<?xml version="1.0"?>

<!-- Created with Inkscape (http://www.inkscape.org/) --> <svg xmlns:dc="http://purl.org/dc/elements/1.1/" xmlns:cc="http://creativecommons.org/ns#" xmlns:rdf="http://www.w3.org/1999/02/22-rdf-syntax-ns#" xmlns:svg="http://www.w3.org/2000/svg" xmlns="http://www.w3.org/2000/svg" xmlns:sodipodi="http://sodipodi.sourceforge.net/DTD/sodipodi-0.dtd" xmlns:inkscape="http://www.inkscape.org/namespaces/inkscape" width="382.76639" height="383.86923" viewBox="0 0 382.76639 383.86925" version="1.1" id="svg8" inkscape:version="0.92.1 r15371" sodipodi:docname="implicite.svg" inkscape:export-filename="/home/david/Thèse/These/redaction/CPD/figure/surface.png" inkscape:export-xdpi="100" inkscape:export-ydpi="100"> <defs id="defs2"></defs> <sodipodi:namedview id="base" pagecolor="#ffffff" bordercolor="#666666" borderopacity="1.0" inkscape:pageopacity="0.0" inkscape:pageshadow="2" inkscape:zoom="0.32898217" inkscape:cx="619.05608" inkscape:cy="835.44532" inkscape:document-units="mm" inkscape:current-layer="layer1" showgrid="false" inkscape:window-width="1417" inkscape:window-height="886" inkscape:window-x="523" inkscape:window-y="78" inkscape:window-maximized="0" showguides="true" inkscape:guide-bbox="true"> <sodipodi:guide position="53.894367,208.87626" orientation="1,0" id="guide5049" inkscape:locked="false"></sodipodi:guide> </sodipodi:namedview> <metadata id="metadata5"> <rdf:rdf> <cc:work rdf:about=""> <dc:format>image/svg+xml</dc:format> <dc:type rdf:resource="http://purl.org/dc/dcmitype/StillImage"></dc:type> <dc:title></dc:title> </cc:work> </rdf:rdf> </metadata> <g inkscape:label="Calque 1" inkscape:groupmode="layer" id="layer1" transform="translate(55.391364,91.048194)"> <path style="opacity:1;fill:#ffaaaa;fill-opacity:0.99543379;stroke:#cccccc;stroke-width:1.00700486;stroke-linejoin:round;stroke-miterlimit:4;stroke-dasharray:none;stroke-dashoffset:0;stroke-opacity:1;paint-order:stroke fill markers" d="M -54.887862,-90.544692 V 292.31755 H 326.87151 V -90.544692 Z" id="rect5882" inkscape:connector-curvature="0"></path> <path style="fill:#cccccc;fill-opacity:0.98636367;stroke:#000000;stroke-width:20.7874012;stroke-miterlimit:4;stroke-dasharray:none" d="m 651.66016,-226.92969 a 91.957207,112.09285 86.472977 0 0 -108.85743,55.125 91.957207,112.09285 86.472977 0 0 -9.54687,50.76172 91.957207,112.09285 86.472977 0 0 -13.77344,0.31445 91.957207,112.09285 86.472977 0 0 -129.92773,52.703129 91.957207,112.09285 86.472977 0 0 -6.875,16.03125 91.957207,112.09285 86.472977 0 0 -98.53907,55.0488285 91.957207,112.09285 86.472977 0 0 34.94727,112.1718725 91.957207,112.09285 86.472977 0 0 -16.32617,21.03516 91.957207,112.09285 86.472977 0 0 -10.37305,42.76562 91.957207,112.09285 86.472977 0 0 -14.62305,19.29297 91.957207,112.09285 86.472977 0 0 9.85547,91.41602 91.957207,112.09285 86.472977 0 0 57.85352,113.70312 91.957207,112.09285 86.472977 0 0 102.7793,-5.58203 91.957207,112.09285 86.472977 0 0 64.54297,78.14649 91.957207,112.09285 86.472977 0 0 115.46874,-12.77344 91.957207,112.09285 86.472977 0 0 36.6836,21.875 91.957207,112.09285 86.472977 0 0 148.86719,-47.50977 91.957207,112.09285 86.472977 0 0 1.40429,-74.95703 91.957207,112.09285 86.472977 0 0 16.55469,-21.26758 91.957207,112.09285 86.472977 0 0 1.4043,-74.95703 91.957207,112.09285 86.472977 0 0 16.55469,-21.26758 91.957207,112.09285 86.472977 0 0 9.70117,-29.16015 96.756242,99.517772 30.206544 0 0 84.83593,-59.08594 96.756242,99.517772 30.206544 0 0 3.15235,-75.693359 91.957207,112.09285 86.472977 0 0 54.33207,-45.660156 91.957207,112.09285 86.472977 0 0 -54.19731,-121.185547 91.957207,112.09285 86.472977 0 0 -21.51171,-5.603516 91.957207,112.09285 86.472977 0 0 -59.0879,-110.574222 91.957207,112.09285 86.472977 0 0 -84.11328,-1.82812 91.957207,112.09285 86.472977 0 0 -61.8789,0.11523 91.957207,112.09285 86.472977 0 0 -29.29883,-15.78515 91.957207,112.09285 86.472977 0 0 -40.00781,-7.61524 z M 152.71875,612.82812 a 1.0654071,0.8358547 3.0740137 0 0 -0.91211,0.48243 1.0654071,0.8358547 3.0740137 0 0 0.55078,1.11133 1.0654071,0.8358547 3.0740137 0 0 1.40235,-0.40235 1.0654071,0.8358547 3.0740137 0 0 -0.55079,-1.11328 1.0654071,0.8358547 3.0740137 0 0 -0.49023,-0.0781 z m 3.83398,1.86915 a 12.29858,2.7758963 19.434207 0 0 -0.69921,0.002 12.29858,2.7758963 19.434207 0 0 3.04492,5.07812 l 0.25,0.125 a 12.29858,2.7758963 19.434207 0 0 16.05273,4.49414 12.29858,2.7758963 19.434207 0 0 -3.2539,-5.13671 12.29858,2.7758963 19.434207 0 0 -15.39454,-4.5625 z" transform="matrix(0.26458333,0,0,0.26458333,-22.797015,69.828309)" id="ellipse5958" inkscape:connector-curvature="0"></path> <rect style="opacity:1;fill:#ffaaaa;fill-opacity:0.98636367;stroke:#ffaaaa;stroke-width:5.5;stroke-linejoin:round;stroke-miterlimit:4;stroke-dasharray:none;stroke-dashoffset:0;stroke-opacity:1;paint-order:stroke fill markers" id="rect5884" width="71.675484" height="102.55108" x="-31.618612" y="176.42149"></rect> </g>
</svg>
