<?xml version="1.0" encoding="UTF-8" standalone="no"?>
<!-- Created with Inkscape (http://www.inkscape.org/) -->

<svg
   xmlns:dc="http://purl.org/dc/elements/1.1/"
   xmlns:cc="http://creativecommons.org/ns#"
   xmlns:rdf="http://www.w3.org/1999/02/22-rdf-syntax-ns#"
   xmlns:svg="http://www.w3.org/2000/svg"
   xmlns="http://www.w3.org/2000/svg"
   xmlns:sodipodi="http://sodipodi.sourceforge.net/DTD/sodipodi-0.dtd"
   xmlns:inkscape="http://www.inkscape.org/namespaces/inkscape"
   version="1.1"
   id="svg2353"
   xml:space="preserve"
   width="793.70135"
   height="1122.52"
   viewBox="0 0 793.70135 1122.52"
   sodipodi:docname="abstract.svg"
   inkscape:version="0.92.1 r15371"><metadata
     id="metadata2359"><rdf:RDF><cc:Work
         rdf:about=""><dc:format>image/svg+xml</dc:format><dc:type
           rdf:resource="http://purl.org/dc/dcmitype/StillImage" /><dc:title></dc:title></cc:Work></rdf:RDF></metadata><defs
     id="defs2357" /><sodipodi:namedview
     pagecolor="#ffffff"
     bordercolor="#666666"
     borderopacity="1"
     objecttolerance="10"
     gridtolerance="10"
     guidetolerance="10"
     inkscape:pageopacity="0"
     inkscape:pageshadow="2"
     inkscape:window-width="640"
     inkscape:window-height="480"
     id="namedview2355"
     showgrid="false"
     inkscape:zoom="0.24309143"
     inkscape:cx="396.85068"
     inkscape:cy="561.26001"
     inkscape:window-x="0"
     inkscape:window-y="0"
     inkscape:window-maximized="0"
     inkscape:current-layer="g2361" /><g
     id="g2361"
     inkscape:groupmode="layer"
     inkscape:label="these"
     transform="matrix(1.3333333,0,0,-1.3333333,0,1122.52)"><text
       transform="matrix(1,0,0,-1,85.039,771.684)"
       style="font-variant:normal;font-weight:bold;font-size:17.2154007px;font-family:LMRoman12;-inkscape-font-specification:LMRoman12-Bold;writing-mode:lr-tb;fill:#000000;fill-opacity:1;fill-rule:nonzero;stroke:none"
       id="text2365"><tspan
         x="0 14.624482 25.384108 33.022579 40.554317 48.464794 57.879898 66.487595"
         y="0"
         sodipodi:role="line"
         id="tspan2363">Abstract</tspan></text>
<text
       transform="matrix(1,0,0,-1,85.039,745.399)"
       style="font-variant:normal;font-weight:bold;font-size:14.34619999px;font-family:LMRoman12;-inkscape-font-specification:LMRoman12-Bold;writing-mode:lr-tb;fill:#000000;fill-opacity:1;fill-rule:nonzero;stroke:none"
       id="text2371"><tspan
         x="0 11.656287 19.726025 33.175587 42.141964 51.108337 57.3848 65.230736 71.507202 75.990387 84.060127 93.026497 100.87244 109.96075 118.92713 125.51921 133.58894 139.8654 147.22931 151.71249 165.26965 174.23604 181.59995 187.96535 192.44853 200.51826 209.48465 218.57297 231.02403 237.30049 245.81496 253.8847 262.95868 267.90381 275.97354 287.1564 296.12277 302.71487 310.78461 317.06107 324.42496 328.90814 342.47964 349.84357 358.80994 366.87967 371.36285 380.32925 387.69315 395.05704 401.64914 406.13232 415.09869 427.75922 435.60513 444.57153"
         y="0"
         sodipodi:role="line"
         id="tspan2367">Computationalproteindesign:atoolforproteinengineeringand</tspan><tspan
         x="0 6.3654089 14.882748 23.40439 29.680853 38.647228 46.011131 52.287594 56.770782 69.323708 78.290085 82.77327 90.84301 95.326195 103.39594 111.46567"
         y="14.446"
         sodipodi:role="line"
         id="tspan2369">syntheticbiology</tspan></text>
<text
       transform="matrix(1,0,0,-0.98231827,102.598,704.552)"
       style="font-variant:normal;font-weight:normal;font-size:12.17039394px;font-family:LMRoman12;-inkscape-font-specification:LMRoman12-Regular;writing-mode:lr-tb;fill:#000000;fill-opacity:1;fill-rule:nonzero;stroke:none"
       id="text2375"><tspan
         x="0 8.6069021 15.227596 24.430847 33.03775 41.145668 54.141212 60.099838 68.641022 77.247925 83.206551 93.137589 99.758286 106.37897 111.01347 116.97208 121.60658 124.91692 130.87555 137.49625 143.45486 150.67191 158.77982 163.41431 169.37294 174.00742 179.30397 182.61432 193.12955 202.23056 207.52711 212.22733 215.53767 221.49629 232.02368 235.33403 243.94093 248.57542 255.19612 264.38721 274.31824 280.27686 283.58722 288.88376 294.18033 300.80103 304.11136 310.06998 318.61118 328.54221 334.82944 341.45013 346.74667 350.05704 353.36737 359.98807 369.84122 374.54144 379.83798 385.7966 390.43109 395.41122 405.92645 411.88507 419.43314 424.06763 430.68832"
         y="0"
         sodipodi:role="line"
         id="tspan2373">TheCPDorComputationalProteinDesignisthemolecularmodelingsearchofthe</tspan></text>
<text
       transform="matrix(0.98,0,0,-1,85.039,690.106)"
       style="font-variant:normal;font-weight:normal;font-size:11.9552002px;font-family:LMRoman12;-inkscape-font-specification:LMRoman12-Regular;writing-mode:lr-tb;fill:#000000;fill-opacity:1;fill-rule:nonzero;stroke:none"
       id="text2379"><tspan
         x="0 5.8532658 15.608709 18.860523 25.364153 34.911575 40.764839 45.967743 49.219559 59.429298 64.046394 69.249298 75.42775 81.931374 87.134277 93.637909 98.840813 104.04372 112.35497 117.55787 123.41114 133.16658 139.67021 145.52348 150.07602 153.32784 159.83147 163.08327 171.98033 180.43506 183.68686 188.23941 198.44914 207.99657 212.5491 218.40237 222.95491 228.80818 234.01108 238.56363 243.76653 253.96431 260.46796 265.02048 270.87375 275.4263 280.62918 283.88101 294.0788 298.69589 303.24844 307.80096 314.3046 319.50751 324.06003 330.56366 335.11621 340.31912 347.27704 355.73175 362.23538 371.13245 376.98572 382.83899 388.69223 395.63821 398.89005 407.21323 411.76578 421.3132 427.81683 433.01974 437.63684 440.88864 446.74191 456.95166"
         y="0"
         sodipodi:role="line"
         id="tspan2377">aminoacidsequencescompatiblewithatargetedproteinstructure.Thegoalistodesigna</tspan></text>
<text
       transform="matrix(0.98,0,0,-1,85.039,675.66)"
       style="font-variant:normal;font-weight:normal;font-size:11.9552002px;font-family:LMRoman12;-inkscape-font-specification:LMRoman12-Regular;writing-mode:lr-tb;fill:#000000;fill-opacity:1;fill-rule:nonzero;stroke:none"
       id="text2383"><tspan
         x="0 6.5036287 11.706532 23.79563 27.372625 33.876255 40.379883 45.582787 50.135326 53.387142 59.240406 69.366463 75.219727 81.723358 88.226982 94.080254 99.933517 108.12044 113.9737 120.47733 130.61534 140.10298 146.60661 151.80952 163.88666 170.72504 175.92795 182.43156 187.95009 194.12854 197.38036 203.23361 209.73724 214.28978 221.17598 229.63071 236.13432 244.97162 253.42633 261.39087 273.96536 280.46899 286.32227 294.57373 301.40015 306.60306 311.80597 321.94397 328.4476 333.65051 339.4942 344.69711 347.94891 353.80219 360.64056 365.84348 375.98148 379.23328 389.37131 395.22458 401.72818 409.90317 413.15497 419.00824 425.84662 431.69989 436.25241 442.10568 446.65823 452.51151 457.06403"
         y="0"
         sodipodi:role="line"
         id="tspan2381">newfunctionand/oraddanewbehaviour.TheCPDhasbeendevelopedinourlaboratory</tspan></text>
<text
       transform="matrix(0.98,0,0,-1,85.039,661.214)"
       style="font-variant:normal;font-weight:normal;font-size:11.9552002px;font-family:LMRoman12;-inkscape-font-specification:LMRoman12-Regular;writing-mode:lr-tb;fill:#000000;fill-opacity:1;fill-rule:nonzero;stroke:none"
       id="text2387"><tspan
         x="0 3.5769958 9.4302616 17.330257 21.947355 27.150259 32.993961 38.196865 42.749405 48.602669 55.201939 61.057598 66.260498 72.11377 76.666306 81.283401 87.882675 96.337395 99.589211 104.14175 113.99283 118.54537 125.049 133.59937 138.21646 144.06972 147.64671 151.86452 159.98448 165.83775 170.39029 178.94066 186.90521 191.45775 197.311 201.86356 207.06645 213.57008 221.53464 229.98935 236.49298 239.7448 244.61296 254.476 260.97961 266.83289 274.79745 279.41455 284.61743 290.46115 295.66406 300.21658 306.06985 312.66913 317.28622 323.78986 328.99277 334.19565 339.39856 344.01566 348.63275 353.83566 361.80023 366.35275 375.55347 378.8053 383.35785 391.32239 396.5253 401.07782 406.28073 412.78436 416.03616 420.58871 427.19995 436.14005 442.64368 447.1962 450.44803 456.95166"
         y="0"
         sodipodi:role="line"
         id="tspan2385">forseveralyears,withthesoftwareProteuswhichhasseveralsuccessestoitscredit.During</tspan></text>
<text
       transform="matrix(0.988,0,0,-1,85.039,646.769)"
       style="font-variant:normal;font-weight:normal;font-size:11.9552002px;font-family:LMRoman12;-inkscape-font-specification:LMRoman12-Regular;writing-mode:lr-tb;fill:#000000;fill-opacity:1;fill-rule:nonzero;stroke:none"
       id="text2391"><tspan
         x="0 4.5525403 11.056169 14.307983 22.882254 27.434793 33.938423 39.129368 43.746468 46.998283 51.627335 58.824368 66.944336 76.104416 82.60804 88.126564 93.982216 103.13034 108.33324 114.83687 119.38941 122.64122 127.52134 134.02496 139.22787 149.67671 157.64127 162.1938 168.04707 172.59961 177.80252 184.30615 192.88042 198.73367 209.18253 213.79962 219.00253 224.84622 230.04913 234.60167 240.45494 247.66393 254.49034 260.3436 263.59543 269.77628 274.3288 278.94589 286.14294 289.39474 295.89838 301.10129 304.35309 310.85672 317.36035 320.61215 327.11578 336.92624 341.47876 347.98239 357.13052 362.9838 369.4874 375.99103 379.24286 383.79538 387.04721 392.90048 403.36127 409.21454 416.73676 426.54718 437.27341 443.12665 449.29553 453.84808"
         y="0"
         sodipodi:role="line"
         id="tspan2389">thisthesis,wehaveenrichedProteusonseveralpoints,includingtheadditionofaMonte</tspan></text>
<text
       transform="matrix(1,0,0,-0.98039216,85.039,632.323)"
       style="font-variant:normal;font-weight:normal;font-size:12.19430447px;font-family:LMRoman12;-inkscape-font-specification:LMRoman12-Regular;writing-mode:lr-tb;fill:#000000;fill-opacity:1;fill-rule:nonzero;stroke:none"
       id="text2395"><tspan
         x="0 8.6238117 14.594143 19.237734 22.554585 33.463608 38.770569 45.072586 51.706287 55.02314 60.993469 65.637062 71.607391 76.250984 79.567833 85.538162 97.098366 107.04892 112.35588 116.99947 123.63317 129.93275 141.50514 150.12895 153.4458 158.0894 169.6496 178.43681 183.74377 190.37747 193.69432 197.01117 202.31813 213.22716 221.35101 227.65302 232.63074 239.26443 245.23477 251.86847 257.83881 268.08444 274.05478 283.63708 292.42429 300.54813 311.48886 320.11267 328.35602 342.24533 346.95477 352.26175 356.90533 360.22217 365.52914 375.17728 381.14761 389.73483 395.04181 401.01212 410.96268 417.59637 423.5545 428.19812 431.51495 436.2244 442.19473 448.82843"
         y="0"
         sodipodi:role="line"
         id="tspan2393">CarloexplorationmethodwithReplicaExchangeorREMC.Aseriesofcomparisons</tspan></text>
<text
       transform="matrix(1,0,0,-0.98039216,85.039,617.877)"
       style="font-variant:normal;font-weight:normal;font-size:12.19430447px;font-family:LMRoman12;-inkscape-font-specification:LMRoman12-Regular;writing-mode:lr-tb;fill:#000000;fill-opacity:1;fill-rule:nonzero;stroke:none"
       id="text2399"><tspan
         x="0 5.9703312 13.87468 18.51827 25.151972 29.795563 35.102524 44.67749 52.801338 57.444927 63.41526 68.058853 73.365814 79.999512 88.964767 93.674202 98.317795 104.61737 109.59509 116.22879 122.19912 126.90856 131.55215 134.869 144.44397 154.39452 159.70148 164.34508 170.97878 177.26616 183.89986 192.8773 199.511 205.1521 211.12486 220.69983 227.65059 232.95755 238.26451 249.16621 256.11697 261.42392 266.0675 269.71606 275.68637 280.32999 290.28052 295.58749 302.22119 309.80606 318.59326 326.7171 337.65784 346.28165 353.85431 364.79504 370.76538 377.08203 381.72562 391.28839 399.9122 405.88254 410.52612 413.84299 424.06912 430.03946 436.67316 447.57486"
         y="0"
         sodipodi:role="line"
         id="tspan2397">ofthreeProteusstochasticmethodshavebeenperformed:REMC,MonteCarloanda</tspan></text>
<text
       transform="matrix(1,0,0,-0.98039216,85.039,603.431)"
       style="font-variant:normal;font-weight:normal;font-size:12.19430447px;font-family:LMRoman12;-inkscape-font-specification:LMRoman12-Regular;writing-mode:lr-tb;fill:#000000;fill-opacity:1;fill-rule:nonzero;stroke:none"
       id="text2403"><tspan
         x="0 6.6337013 11.940662 18.574364 23.217955 26.534805 31.244246 35.887836 39.204689 49.352787 55.986488 61.293449 66.002892 69.31974 75.29007 81.923775 87.230736 98.693382 102.34192 108.31225 117.79697 126.42079 134.54463 143.66353 151.82152 162.76225 169.39595 172.7128 177.3564 180.67325 185.38269 190.02628 195.99661 200.6402 210.12492 216.75864 221.40222 226.70918 232.01614 238.9669 244.27386 248.98329 258.46802 267.58691 272.89389 277.60333 282.91028 288.21725 294.5217 304.00644 309.97678 319.46149 330.40222 337.03592 346.15482 354.31281 362.93665 369.57034 374.87729 379.58673 389.73483 395.04181 401.01212 410.96268 417.59637 423.56671 428.19812 431.51495 436.2366 442.19473 448.82843"
         y="0"
         sodipodi:role="line"
         id="tspan2401">heuristicdesignedforCPD,MultistartSteepestDescentorMSD.Thesecomparisons</tspan></text>
<text
       transform="matrix(1,0,0,-0.98039216,85.039,588.985)"
       style="font-variant:normal;font-weight:normal;font-size:12.19430447px;font-family:LMRoman12;-inkscape-font-specification:LMRoman12-Regular;writing-mode:lr-tb;fill:#000000;fill-opacity:1;fill-rule:nonzero;stroke:none"
       id="text2407"><tspan
         x="0 5.3069611 11.277292 17.910994 23.217955 28.524916 33.168507 44.009243 50.642944 53.959797 60.593498 70.11969 76.753387 81.39698 87.36731 92.010902 97.317863 100.63471 107.26842 116.18489 119.83343 124.47701 130.44734 144.60493 149.24852 155.88223 160.52582 165.83278 175.35896 181.99268 187.963 197.91356 203.88388 207.20073 213.83444 222.75092 227.3945 234.0282 242.97882 248.94916 256.47305 263.10675 272.05737 282.24692 288.21725 294.85095 305.69168 313.81552 322.93445 330.23151 334.87509 342.41119 353.70309 363.2171 369.8508 375.49188 381.47684 390.99084 395.70029 401.00726 409.85788 414.50146 421.13516 430.66135 434.97571 441.27771 448.24066"
         y="0"
         sodipodi:role="line"
         id="tspan2405">concernnineproteinsfromthreedomains(SH2,SH3andPDZ).Wehavesetthetype</tspan></text>
<text
       transform="matrix(1,0,0,-0.98039216,85.039,574.539)"
       style="font-variant:normal;font-weight:normal;font-size:12.19430447px;font-family:LMRoman12;-inkscape-font-specification:LMRoman12-Regular;writing-mode:lr-tb;fill:#000000;fill-opacity:1;fill-rule:nonzero;stroke:none"
       id="text2411"><tspan
         x="0 5.9703312 13.642987 18.352428 23.659389 29.632158 34.939121 39.58271 45.553043 52.881817 58.85215 68.802704 72.119553 78.753258 88.747704 94.71804 100.025 103.34185 109.97555 118.70911 124.67944 132.3399 138.31024 144.94394 153.61165 160.24535 164.88895 170.85927 175.50287 180.80983 184.12668 190.76038 199.48174 202.7986 213.45642 219.42674 224.07034 230.70404 236.011 244.66652 249.3101 259.30457 263.94815 269.2551 273.96454 278.60815 283.25174 286.56857 291.87555 300.54324 305.18686 311.82056 321.13943 325.84888 331.15582 337.12616 341.76974 346.74747 357.4053 362.11475 368.74844 374.71878 380.02573 385.3327 392.67368 401.29749 407.60193 414.23563 418.94507 426.28604 432.91974 437.62918 440.94604 447.57974"
         y="0"
         sodipodi:role="line"
         id="tspan2409">ofseveralaminoacidsofourproteinsinordertorestrictthesearchspace.Thus,using</tspan></text>
<text
       transform="matrix(0.991,0,0,-1,85.039,560.094)"
       style="font-variant:normal;font-weight:normal;font-size:11.9552002px;font-family:LMRoman12;-inkscape-font-specification:LMRoman12-Regular;writing-mode:lr-tb;fill:#000000;fill-opacity:1;fill-rule:nonzero;stroke:none"
       id="text2415"><tspan
         x="0 5.2029033 11.056169 20.488821 26.992451 30.244265 36.747894 42.589203 47.141747 52.99501 57.54755 60.799366 66.652634 73.837708 79.690971 86.194603 90.747139 93.998955 103.7544 107.00621 112.20911 118.06239 122.61492 125.86674 131.72 142.15689 146.70943 151.91234 156.78049 163.28412 169.78775 173.03957 179.21802 185.72163 190.92455 195.54164 202.72672 207.27925 213.78288 222.90709 227.5242 232.7271 238.90555 245.40918 250.61208 257.11569 262.3186 271.45477 277.30804 283.81168 294.24857 299.45145 305.30472 311.80835 315.37338 321.22665 325.77921 335.53464 341.38791 345.94046 349.19226 355.04553 365.48242 370.03497 376.53857 382.39185 390.87766 400.63309 403.88492 410.38855 413.64035 423.39581 426.64761 431.85052 440.97473 446.828 453.33163"
         y="0"
         sodipodi:role="line"
         id="tspan2413">combinatorialoptimizationtechniques,thesequenceandconformationthatminimizeour</tspan></text>
<text
       transform="matrix(1,0,0,-0.98039216,85.039,545.648)"
       style="font-variant:normal;font-weight:normal;font-size:12.19430447px;font-family:LMRoman12;-inkscape-font-specification:LMRoman12-Regular;writing-mode:lr-tb;fill:#000000;fill-opacity:1;fill-rule:nonzero;stroke:none"
       id="text2419"><tspan
         x="0 5.3069611 11.940662 17.247623 21.891214 27.861546 38.699844 42.348377 48.982079 55.61578 60.922741 65.56633 68.883186 74.853516 86.011307 90.654892 100.02256 110.96329 119.08714 127.71095 136.89082 140.20767 149.45338 156.0871 161.39406 166.03764 171.3446 175.98819 185.93875 189.2556 195.8893 201.19626 212.35405 216.00258 221.97292 231.15279 237.12312 240.43997 248.29311 252.93669 258.24365 262.95309 267.59668 276.8302 285.45401 288.77087 293.41446 304.58444 307.90131 313.20825 317.91769 327.16342 331.80701 338.4407 344.41104 355.56885 361.53915 372.04578 379.00873 384.97906 389.68851 393.00534 397.64893 400.96579 406.93613 413.56982 422.80334 428.77368 436.9585 441.60208 448.23578"
         y="0"
         sodipodi:role="line"
         id="tspan2417">energyfunction(GMEC)isdeterminedforalltestswithlessthan10positionsofthe</tspan></text>
<text
       transform="matrix(1,0,0,-0.999001,85.039,531.202)"
       style="font-variant:normal;font-weight:normal;font-size:11.96715546px;font-family:LMRoman12;-inkscape-font-specification:LMRoman12-Regular;writing-mode:lr-tb;fill:#000000;fill-opacity:1;fill-rule:nonzero;stroke:none"
       id="text2423"><tspan
         x="0 6.8332458 12.692365 15.947431 22.132057 28.965302 34.173409 40.68354 45.240635 48.495701 55.005833 64.115234 68.988258 75.49839 81.357506 84.612572 95.024002 98.279068 103.48717 107.06774 115.51416 119.09473 123.65182 128.85994 137.95737 143.81648 150.32661 160.72607 167.23621 177.64763 182.20473 191.95317 197.81229 204.64554 210.50465 217.01479 225.4612 229.69519 237.83524 247.58369 252.14078 258.65091 261.90598 266.46307 272.97321 281.49622 287.35532 294.82523 299.38232 305.89246 314.9899 319.54697 324.7551 329.3768 333.9339 342.45691 350.90811 354.16318 358.72028 369.13168 374.99081 384.73926 388.31982 392.87692 398.08502 407.18246 414.01572 419.87482 424.49652 427.75159 432.30869 435.56375 441.42288 447.93301 452.55472"
         y="0"
         sodipodi:role="line"
         id="tspan2421">polypeptidechainleftfreeanduptoabouttwothirdsofthetestswith20freepositions.</tspan></text>
<text
       transform="matrix(0.984,0,0,-1,85.039,516.756)"
       style="font-variant:normal;font-weight:normal;font-size:11.9552002px;font-family:LMRoman12;-inkscape-font-specification:LMRoman12-Regular;writing-mode:lr-tb;fill:#000000;fill-opacity:1;fill-rule:nonzero;stroke:none"
       id="text2427"><tspan
         x="0 9.1050806 14.948782 20.151686 24.704226 30.557491 33.809307 37.061119 44.270107 48.822647 55.326275 64.486351 73.101265 81.065819 91.792023 104.20391 110.05718 116.56081 127.02161 131.57414 138.07777 147.23785 157.96405 164.46768 177.353 183.20627 186.45808 192.31374 201.47382 207.31752 212.52042 217.07295 227.20857 233.06184 239.2379 245.4259 255.8867 260.50381 265.70673 271.88516 278.38879 283.59171 290.09531 295.29822 300.50113 309.07541 312.32721 322.78799 327.34055 332.54346 337.09598 346.85144 355.41376 361.26703 368.80118 374.00409 380.50772 385.71063 390.26315 396.11642 401.30258 408.51157 414.36484 417.94183 422.49438 427.69727 438.15808 446.61279 449.86462 454.41714"
         y="0"
         sodipodi:role="line"
         id="tspan2425">Overall,theREMCandtheMSDgiveverygoodsequencesintermsofenergy,oftenwith</tspan></text>
<text
       transform="matrix(1,0,0,-0.98039216,85.039,502.31)"
       style="font-variant:normal;font-weight:normal;font-size:12.19430447px;font-family:LMRoman12;-inkscape-font-specification:LMRoman12-Regular;writing-mode:lr-tb;fill:#000000;fill-opacity:1;fill-rule:nonzero;stroke:none"
       id="text2431"><tspan
         x="0 5.9703312 17.079342 23.049673 29.020004 33.663597 38.970558 44.277519 54.228069 59.53503 65.839485 74.958389 83.582199 86.899048 91.542641 102.63946 107.28305 113.91675 123.69902 133.06668 144.00742 152.13126 165.23038 173.85419 180.4879 185.79486 196.90387 200.22072 209.32742 212.64427 221.82903 228.13104 234.76474 240.40582 249.02963 255.66335 263.45551 272.07932 278.71301 288.49527 299.436 306.0697 319.66391 326.29764 332.26794 342.21851 345.53537 352.16907 358.1394 362.78299 368.08994 377.27469 381.91827 388.55197 398.32205 402.96567 408.27261 412.98206 417.62564 426.81039 432.78073 441.89963 447.86996"
         y="0"
         sodipodi:role="line"
         id="tspan2429">anagreementwiththeGMECwhenitisknown.TheMSDdominatesthetestsat30</tspan></text>
<text
       transform="matrix(1,0,0,-0.98039216,85.039,487.864)"
       style="font-variant:normal;font-weight:normal;font-size:12.19430447px;font-family:LMRoman12;-inkscape-font-specification:LMRoman12-Regular;writing-mode:lr-tb;fill:#000000;fill-opacity:1;fill-rule:nonzero;stroke:none"
       id="text2435"><tspan
         x="0 5.9703312 11.277292 15.920883 19.237734 25.210505 34.907413 41.870361 47.828499 52.550133 55.866985 60.498383 63.815231 69.785561 76.419266 81.128708 88.835503 97.291039 103.92474 112.95827 117.60187 124.23557 133.92029 142.7075 150.83134 161.78427 174.78584 183.40965 186.7265 191.37009 202.39374 207.7007 211.01755 216.98788 223.29234 232.31369 240.62045 246.59077 249.90762 255.8804 261.18735 265.83096 274.93033 280.90067 287.53436 298.54584 304.51617 311.14987 315.79346 319.11029 329.06085 332.37772 337.68466 342.99164 354.01529 360.64899 366.61932 371.26291 377.23325 387.18378 392.49075 397.13434 402.44128 407.0849 416.17209 419.48892 428.58832 438.53888 444.50922 449.21866"
         y="0"
         sodipodi:role="line"
         id="tspan2433">activepositions.ButtheREMCwitheightwalkersandoptimizedparametersismost</tspan></text>
<text
       transform="matrix(1,0,0,-0.98039216,85.039,473.419)"
       style="font-variant:normal;font-weight:normal;font-size:12.19430447px;font-family:LMRoman12;-inkscape-font-specification:LMRoman12-Regular;writing-mode:lr-tb;fill:#000000;fill-opacity:1;fill-rule:nonzero;stroke:none"
       id="text2439"><tspan
         x="0 5.9703312 9.6188669 14.262458 19.56942 30.654041 35.297634 41.931335 51.689217 58.639969 63.94693 68.656372 77.750885 83.721214 94.80584 100.77617 104.09302 111.86079 117.83112 123.13808 127.78167 131.09853 137.07129 146.82918 151.47276 156.77972 161.48917 166.13275 170.84219 178.60997 189.5507 195.52103 200.16463 205.47159 211.11267 217.08543 222.3924 227.036 234.80376 240.11072 246.08105 256.03162 262.66531 268.63565 273.27924 278.58618 289.67081 294.31439 304.73566 310.70599 321.77841 327.08539 333.38739 339.35773 344.66467 353.75919 359.06616 365.37061 372.0043 381.95486 387.26184 391.90543 397.87576 402.51935 405.83618 411.80652 422.89114 428.86148 436.96094 441.60452 448.23822"
         y="0"
         sodipodi:role="line"
         id="tspan2437">oftenthebestonallactivetests.Moreover,comparedtoanexactenumerationofthe</tspan></text>
<text
       transform="matrix(1,0,0,-1,85.039,458.973)"
       style="font-variant:normal;font-weight:normal;font-size:11.9552002px;font-family:LMRoman12;-inkscape-font-specification:LMRoman12-Regular;writing-mode:lr-tb;fill:#000000;fill-opacity:1;fill-rule:nonzero;stroke:none"
       id="text2443"><tspan
         x="0 4.6170983 11.120727 17.624355 21.526533 27.379799 33.883427 38.435966 41.687782 51.443226 57.29649 64.445702 69.062798 74.265701 80.444153 86.947777 92.150681 98.654312 103.85722 109.06012 113.67722 120.83838 125.39092 131.89455 140.99484 149.60976 157.57433 168.30052 180.65263 187.15627 191.7088 197.23927 203.41772 206.66954 213.17317 218.37607 226.89056 236.65318 241.27028 247.12355 256.879 263.38263 266.63443 275.73474 281.58801 289.06238 293.69144 298.88239 305.06085 311.56445 316.76736 323.271 328.47391 333.67682 342.20325 348.05652 355.53091 361.38657 366.58948 371.142 381.21786 387.07111 393.24716 399.43518 409.83621 416.33984 419.59164 425.4473 430.65021 435.20276 439.81985 443.07166 447.28946 452.49954"
         y="0"
         sodipodi:role="line"
         id="tspan2441">sub-optimalsequences,theREMCprovidesasampleofsequencesofverygooddiversity.</tspan></text>
<text
       transform="matrix(1,0,0,-0.98039216,102.598,444.527)"
       style="font-variant:normal;font-weight:normal;font-size:12.19430447px;font-family:LMRoman12;-inkscape-font-specification:LMRoman12-Regular;writing-mode:lr-tb;fill:#000000;fill-opacity:1;fill-rule:nonzero;stroke:none"
       id="text2447"><tspan
         x="0 4.3070283 15.062405 19.705996 26.339697 35.768333 40.477772 45.784733 51.091694 57.062027 63.695728 74.451103 81.084808 87.055138 91.69873 100.47619 106.44652 114.21673 118.86032 125.49402 128.81087 137.64198 145.93655 151.90689 156.55048 162.85249 170.29102 178.59778 188.02641 194.66011 200.30119 206.27397 215.7148 222.3485 228.30664 232.95023 238.92056 248.87111 254.17807 258.82166 264.12863 268.77222 272.08908 277.39603 282.703 293.45837 299.42871 306.06241 314.83984 324.79041 331.07779 337.71149 343.01846 350.45697 354.10553 360.07584 368.84113 376.96497 386.08386 397.5148 404.1485 410.11884 420.0694 426.0397 429.35657"
         y="0"
         sodipodi:role="line"
         id="tspan2445">Inthesecondpartofthiswork,wehaveparameterizedourmodelforPDZdomain</tspan></text>
<text
       transform="matrix(1,0,0,-0.98039216,85.039,430.081)"
       style="font-variant:normal;font-weight:normal;font-size:12.19430447px;font-family:LMRoman12;-inkscape-font-specification:LMRoman12-Regular;writing-mode:lr-tb;fill:#000000;fill-opacity:1;fill-rule:nonzero;stroke:none"
       id="text2451"><tspan
         x="0 6.6337013 11.940662 16.650103 19.966953 25.937284 32.570988 40.289982 49.577164 56.210865 65.244408 73.868217 81.992058 91.110962 94.427811 103.5394 109.49754 116.13123 122.76494 127.40852 133.37886 139.34918 144.3391 155.36275 158.6796 167.79118 172.43477 178.72215 184.69249 189.33607 194.64304 205.67889 208.99574 220.01939 228.14323 234.44769 240.74971 245.45915 248.776 254.08296 258.79239 266.51138 272.48172 279.11542 288.14896 293.45593 300.08963 305.39658 310.04019 316.0105 326.71466 330.36322 336.99692 343.63062 348.93756 353.56897 356.8858 362.85614 373.892 377.20883 386.30823 392.94193 398.91226 403.6217 408.92868 419.96451 425.93484 436.9585 441.60208 448.23578"
         y="0"
         sodipodi:role="line"
         id="tspan2449">design.OurCPD’sapproachisrootedinPhysics;ourenergyfunctionisbasedonthe</tspan></text>
<text
       transform="matrix(1,0,0,-0.98039216,85.039,415.635)"
       style="font-variant:normal;font-weight:normal;font-size:12.19430447px;font-family:LMRoman12;-inkscape-font-specification:LMRoman12-Regular;writing-mode:lr-tb;fill:#000000;fill-opacity:1;fill-rule:nonzero;stroke:none"
       id="text2455"><tspan
         x="0 6.6337013 9.950552 16.915939 22.2229 26.866491 32.17345 38.807152 44.114113 53.311058 60.274006 65.580963 69.895309 78.18988 83.496841 88.803802 99.327484 103.97108 110.60477 119.80172 123.45026 129.42059 132.73744 139.37114 144.6781 155.20178 159.91122 164.55481 170.52515 175.16873 184.37788 190.34821 197.88673 202.53032 209.16402 218.36096 224.99466 229.63826 235.60858 240.25218 245.55914 248.87599 259.39969 265.37 272.00369 282.5274 285.84424 290.48782 299.08725 305.72095 312.35464 316.0032 321.97351 325.29037 331.92407 337.23105 347.75473 352.46417 357.10776 363.07809 367.72168 373.02863 380.23547 387.05209 393.02243 401.556 406.19958 412.83328 422.03024 425.67877 431.64911 434.96594 441.59964 446.90662"
         y="0"
         sodipodi:role="line"
         id="tspan2453">diferencebetweenthefoldedstateoftheproteinanditsunfoldedstate.Forthefolded</tspan></text>
<text
       transform="matrix(0.992,0,0,-1,85.039,401.19)"
       style="font-variant:normal;font-weight:normal;font-size:11.9552002px;font-family:LMRoman12;-inkscape-font-specification:LMRoman12-Regular;writing-mode:lr-tb;fill:#000000;fill-opacity:1;fill-rule:nonzero;stroke:none"
       id="text2459"><tspan
         x="0 4.6170983 9.1696386 15.022904 19.575445 24.778347 31.975378 40.095348 49.243469 55.747097 60.364197 65.567101 76.015945 85.814423 94.998413 103.28815 109.14141 117.91653 125.88108 138.58946 143.20656 149.05983 152.31165 158.1673 163.37019 169.53908 178.03683 187.79228 193.98029 200.48392 205.68683 212.8719 221.32661 224.57843 229.13097 239.57982 249.3783 255.88193 259.13373 264.33664 267.58847 272.79135 277.99426 282.54681 287.09933 290.35117 299.48734 304.69022 310.54349 317.04712 321.66422 326.21677 332.07004 338.25085 346.74863 352.6019 360.11215 365.96542 373.16245 377.71497 384.2186 389.42151 399.87036 404.1001 412.22009 422.01855 426.63565 432.48892 435.74075 441.58444 446.78735 452.96817"
         y="0"
         sodipodi:role="line"
         id="tspan2457">state,weusedaGB/NEAsolventmodelwithadielectricconstantof8,thentwosolvent</tspan></text>
<text
       transform="matrix(1,0,0,-0.98425197,85.039,386.744)"
       style="font-variant:normal;font-weight:normal;font-size:12.14648342px;font-family:LMRoman12;-inkscape-font-specification:LMRoman12-Regular;writing-mode:lr-tb;fill:#000000;fill-opacity:1;fill-rule:nonzero;stroke:none"
       id="text2463"><tspan
         x="0 9.9115305 16.186403 22.79409 28.08024 31.384083 36.075054 43.265774 52.596703 61.019073 66.965988 75.881508 83.973495 96.78804 102.73495 109.34264 119.8372 129.68314 136.29083 141.57698 154.05385 163.96538 170.24025 176.84793 182.13408 185.43793 192.62865 201.95958 210.38194 216.32887 224.09047 233.17361 245.495 254.08499 257.38882 262.01422 272.50879 282.35471 288.9624 292.26624 297.5524 300.85623 306.1424 311.42853 316.05392 320.67929 323.98315 333.15616 338.44232 344.38925 350.99692 355.6879 360.31326 366.26019 372.53992 381.06433 386.35046 392.62778 399.23547 405.18237 412.37311 416.99847 426.84442 432.79135 439.98206 447.60034"
         y="0"
         sodipodi:role="line"
         id="tspan2461">models,GB/NEAandanewmodel,GB/FDBwithadielectricconstantequalto4.To</tspan></text>
<text
       transform="matrix(0.98,0,0,-1,85.039,372.298)"
       style="font-variant:normal;font-weight:normal;font-size:11.9552002px;font-family:LMRoman12;-inkscape-font-specification:LMRoman12-Regular;writing-mode:lr-tb;fill:#000000;fill-opacity:1;fill-rule:nonzero;stroke:none"
       id="text2467"><tspan
         x="0 4.8681574 11.371786 17.225052 21.777592 27.630857 32.833763 37.386303 42.589203 47.141747 50.393559 55.596462 64.577209 69.129745 75.633377 84.602165 91.105797 97.609428 101.18642 107.03969 110.2915 116.79513 121.99803 132.27951 136.89661 141.44914 147.30241 151.85495 157.05785 164.08751 172.20749 181.18823 187.69186 192.30896 201.27774 210.90886 215.52596 220.72885 229.05923 234.91251 242.26735 248.12061 257.87607 261.12787 267.6315 277.25064 283.10391 288.30682 291.55862 301.84012 306.70825 313.21188 318.41479 328.17023 331.42206 336.62497 342.47821 349.50787 356.34625 362.19952 366.75208 371.95496 378.12384 382.67639 385.92819 391.78146 395.03329 403.41626 409.26953 417.59991 422.15247 427.35535 430.93234 436.13525 440.68781 445.89072 452.39432 457.59723"
         y="0"
         sodipodi:role="line"
         id="tspan2465">characterizetheunfoldedstate,weuseasetofaminoacidchemicalpotentialsorreference</tspan></text>
<text
       transform="matrix(0.98,0,0,-1,85.039,357.852)"
       style="font-variant:normal;font-weight:normal;font-size:11.9552002px;font-family:LMRoman12;-inkscape-font-specification:LMRoman12-Regular;writing-mode:lr-tb;fill:#000000;fill-opacity:1;fill-rule:nonzero;stroke:none"
       id="text2471"><tspan
         x="0 5.2029033 11.706532 16.909435 21.461975 27.315241 30.567055 35.769958 40.387058 46.735268 55.189987 61.693615 66.896515 71.513618 79.812912 84.365456 89.568359 93.145355 98.348259 102.90079 108.09174 114.59538 119.79828 128.09758 133.30048 139.80411 145.00702 149.55956 155.41281 158.66463 163.86754 171.58102 177.4343 181.98683 190.27419 196.77782 201.98071 206.53325 211.73616 216.2887 226.04414 229.29596 235.79958 241.00249 250.60251 256.77139 266.04623 274.98395 284.73938 290.59265 296.77109 300.02292 309.77835 313.03018 318.23306 324.08633 328.63889 331.89069 337.74396 347.34399 353.19727 359.87064 363.12247 366.37427 372.21799 377.42087 380.6727 383.9245 390.42813 396.61615 402.79221 412.39224 418.89587 423.44839 429.63641 434.83932 440.04221 446.54584 453.04947 457.60202"
         y="0"
         sodipodi:role="line"
         id="tspan2469">energies.Thesereferenceenergiesaredeterminedbyamaximizationoflikelihoodprocedure</tspan></text>
<text
       transform="matrix(0.983,0,0,-1,84.618,343.406)"
       style="font-variant:normal;font-weight:normal;font-size:11.9552002px;font-family:LMRoman12;-inkscape-font-specification:LMRoman12-Regular;writing-mode:lr-tb;fill:#000000;fill-opacity:1;fill-rule:nonzero;stroke:none"
       id="text2475"><tspan
         x="0 8.4547176 14.958346 18.210161 23.078318 33.56303 39.416294 42.66811 45.919922 51.450397 59.905117 68.503296 73.05584 79.559464 88.743446 94.596718 104.35216 107.60397 114.1076 123.94195 129.79521 134.99812 138.24994 148.73465 153.93755 159.79082 169.54625 176.38463 182.2379 186.855 190.10681 194.65935 197.91116 203.76443 214.24915 220.1024 227.66048 237.50679 242.12389 247.32678 255.86041 261.71368 269.27176 275.77539 281.62863 286.18118 292.68481 297.23737 303.09061 310.32352 316.82715 322.68042 332.43585 338.28912 341.54092 347.3942 353.24747 359.7511 364.95401 373.55219 378.10471 387.93906 394.77744 403.96143 408.51398 413.71686 420.22049 424.77304 430.96106 437.46469 443.96829 449.1712 454.37411 460.87775"
         y="0"
         sodipodi:role="line"
         id="tspan2473">whichallowstheaminoacidcompositionofasetofnaturalhomologuestobereproduced.</tspan></text>
<text
       transform="matrix(0.98,0,0,-1,84.618,328.96)"
       style="font-variant:normal;font-weight:normal;font-size:11.9552002px;font-family:LMRoman12;-inkscape-font-specification:LMRoman12-Regular;writing-mode:lr-tb;fill:#000000;fill-opacity:1;fill-rule:nonzero;stroke:none"
       id="text2479"><tspan
         x="0 8.4547176 14.958346 24.154285 28.771385 33.974289 40.152733 46.656364 51.859268 58.362896 63.5658 68.7687 77.378838 83.882462 89.085365 93.702469 96.954285 102.80755 109.31117 114.51408 125.0227 131.19159 141.36307 149.32762 153.88016 159.73343 164.28596 169.48888 175.99249 184.61459 190.46785 195.0204 204.21634 209.41924 215.27251 225.02795 231.53157 237.38484 241.93738 247.14029 257.63696 262.18948 272.0358 276.58835 283.09195 292.29987 298.8035 304.65674 309.20929 315.71292 320.26547 326.11871 333.36359 337.98068 343.18359 349.36203 355.86566 361.06857 367.57217 372.77509 377.978 382.59509 389.83994 398.94504 405.44864 413.99423 418.61133 423.81424 429.99268 436.49631 441.69922 448.20285 453.40573 458.60864"
         y="0"
         sodipodi:role="line"
         id="tspan2477">ThesequencesdesignedbyProteusarecomparedtothenaturalsequences.Oursequences</tspan></text>
<text
       transform="matrix(0.98,0,0,-1,85.039,314.515)"
       style="font-variant:normal;font-weight:normal;font-size:11.9552002px;font-family:LMRoman12;-inkscape-font-specification:LMRoman12-Regular;writing-mode:lr-tb;fill:#000000;fill-opacity:1;fill-rule:nonzero;stroke:none"
       id="text2483"><tspan
         x="0 5.8532658 10.405807 18.800747 24.654013 27.905828 33.759094 40.262722 46.11599 49.367802 52.619617 61.990105 66.607201 69.859016 79.614456 82.866272 86.118088 91.971352 99.72789 104.28043 113.32573 117.87827 124.3819 132.77684 140.74139 144.31839 150.17166 163.11914 167.73624 172.93915 179.11758 185.62122 190.82413 197.32774 202.53065 207.73355 212.35065 218.80646 222.05827 231.75394 236.30649 242.81012 251.20505 255.82216 261.02505 267.52869 272.14578 280.54071 286.39398 293.16302 297.71558 304.21918 312.6261 320.91583 328.23001 337.33508 343.83871 352.61383 363.34006 369.1933 378.23862 382.85571 388.05862 393.9119 398.46442 403.66733 408.28442 414.72827 423.18298 426.43481 430.98737 440.68301 447.18665 450.43848 456.29172"
         y="0"
         sodipodi:role="line"
         id="tspan2481">aregloballysimilartothePfamsequences,inthesenseoftheBLOSUM40scores,withhigh</tspan></text>
<text
       transform="matrix(0.996,0,0,-1,85.039,300.069)"
       style="font-variant:normal;font-weight:normal;font-size:11.9552002px;font-family:LMRoman12;-inkscape-font-specification:LMRoman12-Regular;writing-mode:lr-tb;fill:#000000;fill-opacity:1;fill-rule:nonzero;stroke:none"
       id="text2487"><tspan
         x="0 4.6170983 9.8200016 15.673267 20.225807 25.428711 33.979069 37.556065 43.409332 51.883179 56.435719 62.939346 72.075508 76.628052 81.830956 86.448051 89.699867 96.203491 102.70712 107.91003 116.46039 119.7122 130.14909 134.70163 141.20526 150.32947 155.53236 161.38564 165.93817 175.07434 180.92761 188.43787 192.9904 199.49403 208.63019 215.13382 219.68637 225.53963 230.09216 235.29507 238.53493 245.03856 252.22363 260.67834 267.18198 276.31815 283.95752 292.89761 305.12061 314.87607 321.05212 327.55576 332.75864 339.94373 345.797 349.0488 357.18073 362.69925 368.87769 377.42807 383.28131 386.53314 392.38879 397.59171 406.1301 410.74719 415.9501 422.12854 428.63217 433.83508 440.33871 445.54163 450.74451"
         y="0"
         sodipodi:role="line"
         id="tspan2485">scoresfortheresiduesinthecoreoftheprotein.TheFDBmodelalwaysgivessequences</tspan></text>
<text
       transform="matrix(1,0,0,-0.98039216,85.039,285.623)"
       style="font-variant:normal;font-weight:normal;font-size:12.19430447px;font-family:LMRoman12;-inkscape-font-specification:LMRoman12-Regular;writing-mode:lr-tb;fill:#000000;fill-opacity:1;fill-rule:nonzero;stroke:none"
       id="text2491"><tspan
         x="0 4.7094402 8.0262909 17.976843 21.293694 24.610544 30.580875 39.13884 43.782429 53.654938 63.605488 69.905067 76.538765 81.845726 86.489319 92.459648 97.103241 102.4102 105.72705 115.93125 122.56495 125.8818 130.59125 135.23483 141.20517 147.50961 156.06758 162.70128 168.67162 173.3152 179.9489 184.5925 190.56282 197.78186 204.41556 210.38589 220.33644 226.30678 229.62363 235.59395 241.56429 248.19798 253.50494 262.12875 268.09909 274.73279 285.26868 289.91226 296.54596 305.7673 312.401 319.0347 325.99765 331.29242 335.936 339.58453 345.55487 355.50543 358.82227 362.13913 372.3555 376.00406 381.97437 385.29123 395.82712 400.4707 405.77765 411.08463 417.05496 423.02527 429.659 432.97583 437.61942 440.93628 446.90662"
         y="0"
         sodipodi:role="line"
         id="tspan2489">similartomoderatelydistantnaturalhomologuesandtheSuperfamilyfoldrecognition</tspan></text>
<text
       transform="matrix(0.993,0,0,-1,85.039,271.177)"
       style="font-variant:normal;font-weight:normal;font-size:11.9552002px;font-family:LMRoman12;-inkscape-font-specification:LMRoman12-Regular;writing-mode:lr-tb;fill:#000000;fill-opacity:1;fill-rule:nonzero;stroke:none"
       id="text2495"><tspan
         x="0 4.5525403 10.728597 16.581861 23.766937 29.620203 36.123833 42.62746 45.879276 49.131088 54.333992 64.758926 69.31147 79.086037 83.63858 90.142204 95.345108 99.962212 109.08642 113.70351 118.90642 125.08487 131.5885 136.7914 143.29503 148.49792 153.70084 162.25119 168.10446 171.35628 177.19998 182.40288 190.94128 196.14418 202.32263 207.52553 212.72844 215.98026 219.23207 224.43497 230.61581 239.08966 243.6422 248.84509 253.46219 259.96582 263.21765 267.77017 272.38727 279.56039 288.66547 295.1691 303.65491 308.272 313.47491 319.65335 326.15698 331.35989 337.86353 343.06641 348.26932 356.80774 364.9277 370.13062 374.68314 383.81931 389.67258 392.92438 397.54147 407.31604 412.51895 418.37222 428.12766 434.63129 440.48456 445.03711 450.23999"
         y="0"
         sodipodi:role="line"
         id="tspan2493">toolappliedtothesesequencesgivesexcellentresults.Oursequenceswerealsocompared</tspan></text>
<text
       transform="matrix(0.999,0,0,-1,85.039,256.731)"
       style="font-variant:normal;font-weight:normal;font-size:11.9552002px;font-family:LMRoman12;-inkscape-font-specification:LMRoman12-Regular;writing-mode:lr-tb;fill:#000000;fill-opacity:1;fill-rule:nonzero;stroke:none"
       id="text2499"><tspan
         x="0 4.5525403 14.315157 18.867697 25.371325 31.224592 35.84169 44.965897 50.819164 58.305511 62.858051 69.361679 78.47393 87.088852 92.942116 97.559212 102.76212 107.31466 111.8672 121.62981 126.24691 132.10017 135.67717 139.90692 148.03885 153.89212 158.44466 163.64755 170.80873 179.26344 185.76707 194.87932 201.05777 207.5614 213.41467 216.66647 219.91829 224.14804 229.34616 236.51929 242.3606 247.56351 252.7664 258.61966 263.17221 269.67584 272.92764 279.43127 289.20584 293.75839 303.521 308.07355 314.57718 323.68942 328.30652 334.15979 343.91525 353.0275 358.23041 362.78293 366.03476 370.58728 375.79019 380.34274 383.59454 393.36911 399.22238 407.74884 414.57526 419.77817 423.35516 429.2084 433.76096 438.96387 446.12503 449.37683"
         y="0"
         sodipodi:role="line"
         id="tspan2497">tothoseoftheRosettasoftware.Thequality,accordingtothesamecriteriaasbefore,is</tspan></text>
<text
       transform="matrix(1,0,0,-0.98619329,84.735,242.285)"
       style="font-variant:normal;font-weight:normal;font-size:12.1225729px;font-family:LMRoman12;-inkscape-font-specification:LMRoman12-Regular;writing-mode:lr-tb;fill:#000000;fill-opacity:1;fill-rule:nonzero;stroke:none"
       id="text2503"><tspan
         x="0 5.9376364 11.21338 15.829656 26.010193 31.285936 37.221146 47.113167 53.707848 59.643059 64.259331 70.194542 76.789223 80.086563 85.362312 92.575241 100.98103 107.57571 116.09546 120.71173 127.30641 136.49774 145.23328 151.16849 155.85022 161.12596 165.74223 170.35852 180.20932 184.89105 190.16679 196.43175 203.02643 208.30217 214.89685 220.17259 225.44833 234.03354 238.64981 243.92557 253.81758 259.75278 263.05014 273.56039 283.12512 289.71979 294.66821 305.1785 310.45425 313.75159 319.6868 324.36853 329.64429 338.17615 342.79242 352.64322 357.25949 363.85419 373.03339 379.62805 385.56326 390.17957 393.4769 399.42667 408.60587 413.2876 418.56335 424.82828 431.42297 436.6987 443.2934 448.56912"
         y="0"
         sodipodi:role="line"
         id="tspan2501">verycomparable.ButtheRosettasequencesremainmuchclosertothenativesequence</tspan></text>
<text
       transform="matrix(1,0,0,-1,85.039,227.84)"
       style="font-variant:normal;font-weight:normal;font-size:11.9552002px;font-family:LMRoman12;-inkscape-font-specification:LMRoman12-Regular;writing-mode:lr-tb;fill:#000000;fill-opacity:1;fill-rule:nonzero;stroke:none"
       id="text2507"><tspan
         x="0 4.5525403 11.056169 16.909435 27.310459 31.862999 38.366627 44.219894 48.83699 57.949245 63.802513 71.276901 79.241455 83.793999 89.647263 94.199806 99.402702 105.90633 110.52343"
         y="0"
         sodipodi:role="line"
         id="tspan2505">thanthoseofProteus.</tspan></text>
<text
       transform="matrix(1,0,0,-1,102.598,201.439)"
       style="font-variant:normal;font-weight:bold;font-size:11.9552002px;font-family:LMRoman12;-inkscape-font-specification:LMRoman12-Bold;writing-mode:lr-tb;fill:#000000;fill-opacity:1;fill-rule:nonzero;stroke:none"
       id="text2511"><tspan
         x="0 10.528945 16.665548 23.763351 33.106339 39.831139 45.324554 52.796555 58.101078"
         y="0"
         sodipodi:role="line"
         id="tspan2509">Keywords:</tspan></text>
<text
       transform="matrix(0.983,0,0,-1,168.339,201.439)"
       style="font-variant:normal;font-weight:normal;font-size:11.9552002px;font-family:LMRoman12;-inkscape-font-specification:LMRoman12-Regular;writing-mode:lr-tb;fill:#000000;fill-opacity:1;fill-rule:nonzero;stroke:none"
       id="text2515"><tspan
         x="0 9.7554436 15.608709 18.860523 24.063427 29.266329 35.769958 39.021774 44.875038 53.396706 63.152149 69.340157 75.843788 81.046692 84.298508 87.550323 94.053947 99.907219 107.12816 112.33106 118.18433 127.93977 134.44339 140.94702 145.49957 151.35283 155.90536 159.15718 165.01045 171.51408 177.36734 184.58829 191.09192 195.64445 201.49773 206.05026 211.25316 214.50497 224.97774 231.48137 236.68427 241.30136 244.55318 250.40645 256.91006 264.13101 272.09558 276.6481 282.50137 287.05392 292.25681 298.76044 303.37753 310.61044 321.33664 327.18991 333.3588 337.91135 347.08337 355.53809 361.39136 365.94388 369.19571 375.04898"
         y="0"
         sodipodi:role="line"
         id="tspan2513">molecularmodeling,computationalproteindesign,Proteus,MonteCarlo,</tspan></text>
<text
       transform="matrix(1,0,0,-1,85.039,186.993)"
       style="font-variant:normal;font-weight:normal;font-size:11.9552002px;font-family:LMRoman12;-inkscape-font-specification:LMRoman12-Regular;writing-mode:lr-tb;fill:#000000;fill-opacity:1;fill-rule:nonzero;stroke:none"
       id="text2519"><tspan
         x="0 7.9645543 16.904654 27.956039 34.459667 40.312935 50.068378 55.921642 59.173458"
         y="0"
         sodipodi:role="line"
         id="tspan2517">PDZdomain</tspan></text>
</g></svg>