<?xml version="1.0" encoding="UTF-8" standalone="no"?>
<!-- Created with Inkscape (http://www.inkscape.org/) -->

<svg
   xmlns:dc="http://purl.org/dc/elements/1.1/"
   xmlns:cc="http://creativecommons.org/ns#"
   xmlns:rdf="http://www.w3.org/1999/02/22-rdf-syntax-ns#"
   xmlns:svg="http://www.w3.org/2000/svg"
   xmlns="http://www.w3.org/2000/svg"
   xmlns:sodipodi="http://sodipodi.sourceforge.net/DTD/sodipodi-0.dtd"
   xmlns:inkscape="http://www.inkscape.org/namespaces/inkscape"
   inkscape:version="0.48.5 r10040"
   version="1.1"
   id="svg2"
   height="297mm"
   width="210mm"
   sodipodi:docname="CPD.svg"
   viewBox="400">
  <defs
     id="defs4">
    <marker
       inkscape:stockid="Arrow1Lend"
       orient="auto"
       refY="0"
       refX="0"
       id="Arrow1Lend"
       style="overflow:visible">
      <path
         id="path4084"
         d="M 0,0 5,-5 -12.5,0 5,5 0,0 z"
         style="fill-rule:evenodd;stroke:#000000;stroke-width:1pt"
         transform="matrix(-0.8,0,0,-0.8,-10,0)"
         inkscape:connector-curvature="0" />
    </marker>
    <marker
       inkscape:stockid="Arrow2Lend"
       orient="auto"
       refY="0"
       refX="0"
       id="Arrow2Lend"
       style="overflow:visible">
      <path
         id="path4102"
         style="fill-rule:evenodd;stroke-width:0.625;stroke-linejoin:round"
         d="M 8.7185878,4.0337352 -2.2072895,0.01601326 8.7185884,-4.0017078 c -1.7454984,2.3720609 -1.7354408,5.6174519 -6e-7,8.035443 z"
         transform="matrix(-1.1,0,0,-1.1,-1.1,0)"
         inkscape:connector-curvature="0" />
    </marker>
    <inkscape:path-effect
       effect="skeletal"
       id="path-effect4000"
       is_visible="true"
       pattern="M 0,0 0,10 10,5 z"
       copytype="single_stretched"
       prop_scale="1"
       scale_y_rel="false"
       spacing="0"
       normal_offset="0"
       tang_offset="0"
       prop_units="false"
       vertical_pattern="false"
       fuse_tolerance="0" />
    <inkscape:path-effect
       effect="skeletal"
       id="path-effect3815"
       is_visible="true"
       pattern="M 0,0 0,10 10,5 z"
       copytype="single_stretched"
       prop_scale="1"
       scale_y_rel="false"
       spacing="0"
       normal_offset="0"
       tang_offset="0"
       prop_units="false"
       vertical_pattern="false"
       fuse_tolerance="0" />
    <inkscape:perspective
       sodipodi:type="inkscape:persp3d"
       inkscape:vp_x="0 : 526.18109 : 1"
       inkscape:vp_y="0 : 1000 : 0"
       inkscape:vp_z="744.09448 : 526.18109 : 1"
       inkscape:persp3d-origin="372.04724 : 350.78739 : 1"
       id="perspective3755" />
  </defs>
  <sodipodi:namedview
     id="base"
     pagecolor="#ffffff"
     bordercolor="#666666"
     borderopacity="1.0"
     inkscape:pageopacity="0.0"
     inkscape:pageshadow="2"
     inkscape:zoom="0.98994949"
     inkscape:cx="263.58981"
     inkscape:cy="441.42815"
     inkscape:document-units="px"
     inkscape:current-layer="layer1"
     showgrid="false"
     inkscape:window-width="1574"
     inkscape:window-height="892"
     inkscape:window-x="275"
     inkscape:window-y="79"
     inkscape:window-maximized="0" />
  <metadata
     id="metadata7">
    <rdf:RDF>
      <cc:Work
         rdf:about="">
        <dc:format>image/svg+xml</dc:format>
        <dc:type
           rdf:resource="http://purl.org/dc/dcmitype/StillImage" />
        <dc:title></dc:title>
      </cc:Work>
    </rdf:RDF>
  </metadata>
  <g
     inkscape:label="Calque 1"
     inkscape:groupmode="layer"
     id="layer1">
    <path
       transform="matrix(0.63752806,0.81495644,-1.1495906,1.483381,477.04929,283.87961)"
       d="m 264.65997,126.55737 a 11.111678,10.606602 0 1 1 -22.22335,0 11.111678,10.606602 0 1 1 22.22335,0 z"
       sodipodi:ry="10.606602"
       sodipodi:rx="11.111678"
       sodipodi:cy="126.55737"
       sodipodi:cx="253.54829"
       id="path3955"
       style="fill:#dbe01e;fill-opacity:1;stroke:#121614;stroke-width:1.30503714;stroke-linejoin:bevel;stroke-miterlimit:4;stroke-opacity:1;stroke-dasharray:none"
       sodipodi:type="arc" />
    <path
       transform="matrix(1.6259049,-0.36525773,0.22488642,0.70127502,-244.98941,329.66892)"
       d="m 264.65997,126.55737 a 11.111678,10.606602 0 1 1 -22.22335,0 11.111678,10.606602 0 1 1 22.22335,0 z"
       sodipodi:ry="10.606602"
       sodipodi:rx="11.111678"
       sodipodi:cy="126.55737"
       sodipodi:cx="253.54829"
       id="path3836"
       style="fill:#28e01e;fill-opacity:1;stroke:#121614;stroke-width:1.30503714;stroke-linejoin:bevel;stroke-miterlimit:4;stroke-opacity:1;stroke-dasharray:none"
       sodipodi:type="arc" />
    <path
       style="fill:none;stroke:#82b594;stroke-width:7.9000001;stroke-linecap:butt;stroke-linejoin:bevel;stroke-miterlimit:4;stroke-opacity:1;stroke-dasharray:none"
       d="m 196.97975,99.788332 c -41.41626,34.345188 -42.42641,40.406098 -45.45687,73.741138 -3.03046,33.33503 31.31473,16.16244 40.4061,65.65991 9.09138,49.49748 5.77984,72.28958 -16.16244,96.97465 -24.24365,27.27412 103.03556,29.29442 60.60916,84.85281 -42.42641,55.55839 -9.09138,127.27922 -9.09138,127.27922 l 0,0"
       id="path2985"
       inkscape:connector-curvature="0"
       sodipodi:nodetypes="csssscc" />
    <path
       sodipodi:type="arc"
       style="fill:#dbe01e;fill-opacity:1;stroke:#121614;stroke-width:1.30503714;stroke-linejoin:bevel;stroke-miterlimit:4;stroke-opacity:1;stroke-dasharray:none"
       id="path3773"
       sodipodi:cx="253.54829"
       sodipodi:cy="126.55737"
       sodipodi:rx="11.111678"
       sodipodi:ry="10.606602"
       d="m 264.65997,126.55737 a 11.111678,10.606602 0 1 1 -22.22335,0 11.111678,10.606602 0 1 1 22.22335,0 z"
       transform="matrix(1.6707202,0.3563231,-1.2138849,0.55922763,-25.020171,-34.371597)" />
    <rect
       style="fill:#201919;fill-opacity:1;stroke:#121614;stroke-width:2.25588322;stroke-linejoin:bevel;stroke-miterlimit:4;stroke-opacity:1;stroke-dasharray:none"
       id="rect3777"
       width="4.2091632"
       height="5.9469724"
       x="375.19199"
       y="303.97455"
       ry="0"
       transform="matrix(0.90138924,0.43300974,-0.38509847,0.92287549,0,0)" />
    <rect
       transform="matrix(0.68878529,0.7249654,-0.7249654,0.68878529,0,0)"
       ry="0"
       y="-58.385433"
       x="204.81851"
       height="6.0714288"
       width="4.2857141"
       id="rect3779"
       style="fill:#201919;fill-opacity:1;stroke:#121614;stroke-width:2.29999995;stroke-linejoin:bevel;stroke-miterlimit:4;stroke-opacity:1;stroke-dasharray:none" />
    <rect
       style="fill:#201919;fill-opacity:1;stroke:#121614;stroke-width:2.29999995;stroke-linejoin:bevel;stroke-miterlimit:4;stroke-opacity:1;stroke-dasharray:none"
       id="rect3781"
       width="4.2857141"
       height="6.0714288"
       x="204.81851"
       y="-58.385433"
       ry="0"
       transform="matrix(0.68878529,0.7249654,-0.7249654,0.68878529,0,0)" />
    <rect
       transform="matrix(0.5103082,-0.85999159,0.85999159,0.5103082,0,0)"
       ry="0"
       y="334.17972"
       x="-213.25703"
       height="6.0714288"
       width="4.2857141"
       id="rect3783"
       style="fill:#201919;fill-opacity:1;stroke:#121614;stroke-width:2.29999995;stroke-linejoin:bevel;stroke-miterlimit:4;stroke-opacity:1;stroke-dasharray:none" />
    <rect
       transform="matrix(0.82049421,0.57165484,-0.5490975,0.8357583,0,0)"
       ry="0"
       y="15.653485"
       x="206.68758"
       height="6.0263414"
       width="4.3193808"
       id="rect3785"
       style="fill:#201919;fill-opacity:1;stroke:#121614;stroke-width:2.30042672;stroke-linejoin:bevel;stroke-miterlimit:4;stroke-opacity:1;stroke-dasharray:none"
       inkscape:transform-center-x="-4.0923654"
       inkscape:transform-center-y="2.6271601" />
    <rect
       transform="matrix(0.99393321,0.10998534,-0.10998534,0.99393321,0,0)"
       ry="0"
       y="262.95084"
       x="224.73822"
       height="6.0714288"
       width="4.2857141"
       id="rect3787"
       style="fill:#201919;fill-opacity:1;stroke:#121614;stroke-width:2.29999995;stroke-linejoin:bevel;stroke-miterlimit:4;stroke-opacity:1;stroke-dasharray:none" />
    <rect
       style="fill:#201919;fill-opacity:1;stroke:#121614;stroke-width:2.29999995;stroke-linejoin:bevel;stroke-miterlimit:4;stroke-opacity:1;stroke-dasharray:none"
       id="rect3789"
       width="4.2857141"
       height="6.0714288"
       x="117.81307"
       y="271.57828"
       ry="0"
       transform="matrix(0.96223193,-0.27223098,0.27223098,0.96223193,0,0)" />
    <rect
       transform="matrix(0.72729502,-0.68632497,0.68632497,0.72729502,0,0)"
       ry="0"
       y="244.15695"
       x="-20.082397"
       height="6.0714288"
       width="4.2857141"
       id="rect3791"
       style="fill:#201919;fill-opacity:1;stroke:#121614;stroke-width:2.29999995;stroke-linejoin:bevel;stroke-miterlimit:4;stroke-opacity:1;stroke-dasharray:none" />
    <rect
       transform="matrix(-0.59145198,0.80634022,-0.80634022,-0.59145198,0,0)"
       ry="0"
       y="-410.32721"
       x="166.21606"
       height="6.0714288"
       width="4.2857141"
       id="rect3793"
       style="fill:#201919;fill-opacity:1;stroke:#121614;stroke-width:2.29999995;stroke-linejoin:bevel;stroke-miterlimit:4;stroke-opacity:1;stroke-dasharray:none" />
    <rect
       transform="matrix(0.99738334,-0.0722943,0.0722943,0.99738334,0,0)"
       ry="0"
       y="506.67435"
       x="176.23026"
       height="6.0714288"
       width="4.2857141"
       id="rect3793-3"
       style="fill:#201919;fill-opacity:1;stroke:#121614;stroke-width:2.29999995;stroke-linejoin:bevel;stroke-miterlimit:4;stroke-opacity:1;stroke-dasharray:none" />
    <a
       id="a3846">
      <path
         inkscape:connection-end-point="d4"
         inkscape:connection-end="#path3773"
         inkscape:connector-curvature="0"
         inkscape:connector-type="polyline"
         id="path3826"
         d="m 181.82746,109.38478 46.24949,12.71943"
         style="fill:none;stroke:#000000;stroke-width:1px;stroke-linecap:butt;stroke-linejoin:miter;stroke-opacity:1" />
    </a>
    <path
       transform="matrix(1.8636364,0,0,1.6666667,-214.93292,-28.308116)"
       d="m 264.65997,126.55737 a 11.111678,10.606602 0 1 1 -22.22335,0 11.111678,10.606602 0 1 1 22.22335,0 z"
       sodipodi:ry="10.606602"
       sodipodi:rx="11.111678"
       sodipodi:cy="126.55737"
       sodipodi:cx="253.54829"
       id="path3828"
       style="fill:#e01e1e;fill-opacity:1;stroke:#121614;stroke-width:1.30503714;stroke-linejoin:bevel;stroke-miterlimit:4;stroke-opacity:1;stroke-dasharray:none"
       sodipodi:type="arc" />
    <path
       sodipodi:type="arc"
       style="fill:#dbe01e;fill-opacity:1;stroke:#121614;stroke-width:1.30503714;stroke-linejoin:bevel;stroke-miterlimit:4;stroke-opacity:1;stroke-dasharray:none"
       id="path3830"
       sodipodi:cx="253.54829"
       sodipodi:cy="126.55737"
       sodipodi:rx="11.111678"
       sodipodi:ry="10.606602"
       d="m 264.65997,126.55737 a 11.111678,10.606602 0 1 1 -22.22335,0 11.111678,10.606602 0 1 1 22.22335,0 z"
       transform="matrix(0.63752806,0.81495644,-1.1495906,1.483381,100.74688,-265.46347)" />
    <path
       transform="matrix(1.7657177,0.59613905,-0.38175646,1.130733,-176.13689,-73.782499)"
       d="m 264.65997,126.55737 a 11.111678,10.606602 0 1 1 -22.22335,0 11.111678,10.606602 0 1 1 22.22335,0 z"
       sodipodi:ry="10.606602"
       sodipodi:rx="11.111678"
       sodipodi:cy="126.55737"
       sodipodi:cx="253.54829"
       id="path3832"
       style="fill:#dbe01e;fill-opacity:1;stroke:#121614;stroke-width:1.30503714;stroke-linejoin:bevel;stroke-miterlimit:4;stroke-opacity:1;stroke-dasharray:none"
       sodipodi:type="arc" />
    <path
       sodipodi:type="arc"
       style="fill:#1e61e0;fill-opacity:1;stroke:#121614;stroke-width:1.30503714;stroke-linejoin:bevel;stroke-miterlimit:4;stroke-opacity:1;stroke-dasharray:none"
       id="path3834"
       sodipodi:cx="253.54829"
       sodipodi:cy="126.55737"
       sodipodi:rx="11.111678"
       sodipodi:ry="10.606602"
       d="m 264.65997,126.55737 a 11.111678,10.606602 0 1 1 -22.22335,0 11.111678,10.606602 0 1 1 22.22335,0 z"
       transform="matrix(1.8400742,-0.29541115,0.09917228,0.61773005,-326.06054,280.28888)" />
    <path
       transform="matrix(1.8636364,0,0,1.6666667,-298.27051,180.79346)"
       d="m 264.65997,126.55737 a 11.111678,10.606602 0 1 1 -22.22335,0 11.111678,10.606602 0 1 1 22.22335,0 z"
       sodipodi:ry="10.606602"
       sodipodi:rx="11.111678"
       sodipodi:cy="126.55737"
       sodipodi:cx="253.54829"
       id="path3838"
       style="fill:#e01e27;fill-opacity:1;stroke:#121614;stroke-width:1.30503714;stroke-linejoin:bevel;stroke-miterlimit:4;stroke-opacity:1;stroke-dasharray:none"
       sodipodi:type="arc" />
    <path
       sodipodi:type="arc"
       style="fill:#1e30e0;fill-opacity:1;stroke:#121614;stroke-width:1.30503714;stroke-linejoin:bevel;stroke-miterlimit:4;stroke-opacity:1;stroke-dasharray:none"
       id="path3840"
       sodipodi:cx="253.54829"
       sodipodi:cy="126.55737"
       sodipodi:rx="11.111678"
       sodipodi:ry="10.606602"
       d="m 264.65997,126.55737 a 11.111678,10.606602 0 1 1 -22.22335,0 11.111678,10.606602 0 1 1 22.22335,0 z"
       transform="matrix(1.8636364,0,0,1.6666667,-188.97098,193.79418)" />
    <path
       sodipodi:type="arc"
       style="fill:#55e01e;fill-opacity:1;stroke:#121614;stroke-width:1.30503714;stroke-linejoin:bevel;stroke-miterlimit:4;stroke-opacity:1;stroke-dasharray:none"
       id="path3844"
       sodipodi:cx="253.54829"
       sodipodi:cy="126.55737"
       sodipodi:rx="11.111678"
       sodipodi:ry="10.606602"
       d="m 264.65997,126.55737 a 11.111678,10.606602 0 1 1 -22.22335,0 11.111678,10.606602 0 1 1 22.22335,0 z"
       transform="matrix(1.5185651,-1.0801341,0.59964846,0.86727359,-294.80891,684.75374)" />
    <path
       style="fill:none;stroke:#000000;stroke-width:1px;stroke-linecap:butt;stroke-linejoin:miter;stroke-opacity:1"
       d="m 128.46272,130.4926 30.27666,4.17048"
       id="path3929"
       inkscape:connector-type="polyline"
       inkscape:connector-curvature="0"
       inkscape:connection-start="#path3830"
       inkscape:connection-start-point="d4"
       inkscape:connection-end="#rect3785"
       inkscape:connection-end-point="d4" />
    <path
       style="fill:none;stroke:#000000;stroke-width:1px;stroke-linecap:butt;stroke-linejoin:miter;stroke-opacity:1"
       d="m 237.00294,184.5521 -77.68906,7.28832"
       id="path3931"
       inkscape:connector-type="polyline"
       inkscape:connector-curvature="0"
       inkscape:connection-start="#path3828"
       inkscape:connection-start-point="d4"
       inkscape:connection-end="#rect3791"
       inkscape:connection-end-point="d4" />
    <path
       style="fill:none;stroke:#000000;stroke-width:1px;stroke-linecap:butt;stroke-linejoin:miter;stroke-opacity:1"
       d="M 192.21738,230.90286 207.7927,225.6656"
       id="path3933"
       inkscape:connector-type="polyline"
       inkscape:connector-curvature="0"
       inkscape:connection-start="#rect3789"
       inkscape:connection-start-point="d4"
       inkscape:connection-end="#path3832"
       inkscape:connection-end-point="d4" />
    <path
       style="fill:none;stroke:#000000;stroke-width:1px;stroke-linecap:butt;stroke-linejoin:miter;stroke-opacity:1"
       d="m 168.67722,285.65092 25.4482,3.39232"
       id="path3935"
       inkscape:connector-type="polyline"
       inkscape:connector-curvature="0"
       inkscape:connection-start="#path3834"
       inkscape:connection-start-point="d4"
       inkscape:connection-end="#rect3787"
       inkscape:connection-end-point="d4" />
    <path
       style="fill:none;stroke:#000000;stroke-width:1px;stroke-linecap:butt;stroke-linejoin:miter;stroke-opacity:1"
       d="m 191.66387,334.19794 -8.459,17.50581"
       id="path3937"
       inkscape:connector-type="polyline"
       inkscape:connector-curvature="0"
       inkscape:connection-start="#path3836"
       inkscape:connection-start-point="d4"
       inkscape:connection-end="#rect3783"
       inkscape:connection-end-point="d4" />
    <path
       style="fill:none;stroke:#000000;stroke-width:1px;stroke-linecap:butt;stroke-linejoin:miter;stroke-opacity:1"
       d="m 193.95949,386.28 32.2477,-8.90521"
       id="path3939"
       inkscape:connector-type="polyline"
       inkscape:connector-curvature="0"
       inkscape:connection-start="#path3838"
       inkscape:connection-start-point="d4"
       inkscape:connection-end="#rect3793"
       inkscape:connection-end-point="d4" />
    <path
       style="fill:none;stroke:#000000;stroke-width:1px;stroke-linecap:butt;stroke-linejoin:miter;stroke-opacity:1"
       d="m 184.04987,511.36655 28.63481,-14.81424"
       id="path3943"
       inkscape:connector-type="polyline"
       inkscape:connector-curvature="0"
       inkscape:connection-start="#path3844"
       inkscape:connection-start-point="d4"
       inkscape:connection-end="#rect3793-3"
       inkscape:connection-end-point="d4" />
    <path
       style="fill:none;stroke:#000000;stroke-width:1px;stroke-linecap:butt;stroke-linejoin:miter;stroke-opacity:1"
       d="m 224.72507,444.71758 42.62666,-28.98099"
       id="path3949"
       inkscape:connector-type="polyline"
       inkscape:connector-curvature="0"
       inkscape:connection-start="#rect3777"
       inkscape:connection-start-point="d4"
       inkscape:connection-end="#path3840"
       inkscape:connection-end-point="d4" />
    <path
       sodipodi:type="arc"
       style="fill:#1e61e0;fill-opacity:1;stroke:#121614;stroke-width:1.30503714;stroke-linejoin:bevel;stroke-miterlimit:4;stroke-opacity:1;stroke-dasharray:none"
       id="path3963"
       sodipodi:cx="253.54829"
       sodipodi:cy="126.55737"
       sodipodi:rx="11.111678"
       sodipodi:ry="10.606602"
       d="m 264.65997,126.55737 a 11.111678,10.606602 0 1 1 -22.22335,0 11.111678,10.606602 0 1 1 22.22335,0 z"
       transform="matrix(1.6259049,-0.36525773,0.22488642,0.70127502,91.883709,803.57255)" />
    <rect
       style="fill:#201919;fill-opacity:1;stroke:#121614;stroke-width:2.29999995;stroke-linejoin:bevel;stroke-miterlimit:4;stroke-opacity:1;stroke-dasharray:none"
       id="rect3969"
       width="4.2857141"
       height="6.0714288"
       x="176.23026"
       y="506.67435"
       ry="0"
       transform="matrix(0.99738334,-0.0722943,0.0722943,0.99738334,0,0)" />
    <path
       transform="matrix(1.8636364,0,0,1.6666667,-281.07838,578.59772)"
       d="m 264.65997,126.55737 a 11.111678,10.606602 0 1 1 -22.22335,0 11.111678,10.606602 0 1 1 22.22335,0 z"
       sodipodi:ry="10.606602"
       sodipodi:rx="11.111678"
       sodipodi:cy="126.55737"
       sodipodi:cx="253.54829"
       id="path3978"
       style="fill:#1e30e0;fill-opacity:1;stroke:#121614;stroke-width:1.30503714;stroke-linejoin:bevel;stroke-miterlimit:4;stroke-opacity:1;stroke-dasharray:none"
       sodipodi:type="arc" />
    <path
       transform="matrix(1.6259049,-0.36525773,0.22488642,0.70127502,-250.7037,814.66892)"
       d="m 264.65997,126.55737 a 11.111678,10.606602 0 1 1 -22.22335,0 11.111678,10.606602 0 1 1 22.22335,0 z"
       sodipodi:ry="10.606602"
       sodipodi:rx="11.111678"
       sodipodi:cy="126.55737"
       sodipodi:cx="253.54829"
       id="path4014"
       style="fill:#28e01e;fill-opacity:1;stroke:#121614;stroke-width:1.30503714;stroke-linejoin:bevel;stroke-miterlimit:4;stroke-opacity:1;stroke-dasharray:none"
       sodipodi:type="arc" />
    <path
       transform="matrix(1.8636364,0,0,1.6666667,-272.79006,518.83474)"
       d="m 264.65997,126.55737 a 11.111678,10.606602 0 1 1 -22.22335,0 11.111678,10.606602 0 1 1 22.22335,0 z"
       sodipodi:ry="10.606602"
       sodipodi:rx="11.111678"
       sodipodi:cy="126.55737"
       sodipodi:cx="253.54829"
       id="path4020"
       style="fill:#e01e1e;fill-opacity:1;stroke:#121614;stroke-width:1.30503714;stroke-linejoin:bevel;stroke-miterlimit:4;stroke-opacity:1;stroke-dasharray:none"
       sodipodi:type="arc" />
    <path
       sodipodi:type="arc"
       style="fill:#dbe01e;fill-opacity:1;stroke:#121614;stroke-width:1.30503714;stroke-linejoin:bevel;stroke-miterlimit:4;stroke-opacity:1;stroke-dasharray:none"
       id="path4026"
       sodipodi:cx="253.54829"
       sodipodi:cy="126.55737"
       sodipodi:rx="11.111678"
       sodipodi:ry="10.606602"
       d="m 264.65997,126.55737 a 11.111678,10.606602 0 1 1 -22.22335,0 11.111678,10.606602 0 1 1 22.22335,0 z"
       transform="matrix(0.63752806,0.81495644,-1.1495906,1.483381,120.74688,295.9651)" />
    <path
       style="fill:none;stroke:#82b594;stroke-width:7.9000001;stroke-linecap:butt;stroke-linejoin:bevel;stroke-miterlimit:4;stroke-opacity:1;stroke-dasharray:none"
       d="m 196.80133,702.81519 c -41.41626,34.34519 -37.42641,96.12038 -40.45687,129.45542 -3.03046,33.33503 65.60045,-83.12327 74.69182,-33.6258 9.09138,49.49748 -76.36302,-144.85328 -98.3053,-120.16821 -24.24365,27.27412 103.03556,29.29442 60.60916,84.85281 -42.42641,55.55839 -69.09138,-24.86364 -69.09138,-24.86364 16.42857,37.38096 119.7045,2.0036 49.28571,112.14286"
       id="path3992"
       inkscape:connector-curvature="0"
       sodipodi:nodetypes="csssscc" />
    <path
       style="fill:#7a72b7;fill-opacity:1;stroke:#121614;stroke-width:0.83863968;stroke-linejoin:bevel;stroke-miterlimit:4;stroke-opacity:1;stroke-dasharray:none"
       d="m 239.49434,851.84051 c -10.88801,4.32062 -19.71867,7.06611 -32.29396,10.04031 -8.51388,2.01363 -10.77542,2.17669 -12.62731,0.91039 -1.13379,-0.77529 -1.44507,-1.47215 -1.47853,-3.30999 -0.0338,-1.85575 1.00763,-4.83549 2.93107,-8.38638 4.89472,-9.03622 18.06145,-23.36011 24.5694,-26.72868 2.99714,-1.55134 5.16581,-1.71639 10.27315,-0.78183 5.22886,0.95678 6.60729,0.75551 8.65429,-1.26364 2.7879,-2.74998 4.29747,-6.69969 4.09891,-10.72462 -0.0602,-1.22037 -0.49844,-4.08131 -0.97384,-6.35764 -1.81975,-8.71341 -2.05719,-10.26497 -1.87276,-12.23552 0.30142,-3.21995 2.28975,-5.11075 6.07612,-5.77811 6.95467,-1.22577 13.27621,2.42011 18.88972,10.89445 5.39764,8.14844 8.44679,19.94373 6.25145,24.18296 -2.14266,4.13747 -6.82595,9.55504 -15.60139,18.04745 l -6.06111,5.86561 -4.74676,2.54637 c -2.61072,1.40053 -5.35051,2.78602 -6.08847,3.07881 l 0,0 z"
       id="path4004"
       inkscape:connector-curvature="0" />
    <path
       sodipodi:type="arc"
       style="fill:#e01e27;fill-opacity:1;stroke:#121614;stroke-width:1.30503714;stroke-linejoin:bevel;stroke-miterlimit:4;stroke-opacity:1;stroke-dasharray:none"
       id="path4008"
       sodipodi:cx="253.54829"
       sodipodi:cy="126.55737"
       sodipodi:rx="11.111678"
       sodipodi:ry="10.606602"
       d="m 264.65997,126.55737 a 11.111678,10.606602 0 1 1 -22.22335,0 11.111678,10.606602 0 1 1 22.22335,0 z"
       transform="matrix(1.8621637,0.94789958,-0.66861986,0.5355156,-219.18484,532.65593)" />
    <path
       sodipodi:type="arc"
       style="fill:#55e01e;fill-opacity:1;stroke:#121614;stroke-width:1.30503714;stroke-linejoin:bevel;stroke-miterlimit:4;stroke-opacity:1;stroke-dasharray:none"
       id="path4010"
       sodipodi:cx="253.54829"
       sodipodi:cy="126.55737"
       sodipodi:rx="11.111678"
       sodipodi:ry="10.606602"
       d="m 264.65997,126.55737 a 11.111678,10.606602 0 1 1 -22.22335,0 11.111678,10.606602 0 1 1 22.22335,0 z"
       transform="matrix(1.5185651,-1.0801341,0.59964846,0.86727359,-219.02072,932.89231)" />
    <path
       sodipodi:type="arc"
       style="fill:#1e61e0;fill-opacity:1;stroke:#121614;stroke-width:1.30503714;stroke-linejoin:bevel;stroke-miterlimit:4;stroke-opacity:1;stroke-dasharray:none"
       id="path4016"
       sodipodi:cx="253.54829"
       sodipodi:cy="126.55737"
       sodipodi:rx="11.111678"
       sodipodi:ry="10.606602"
       d="m 264.65997,126.55737 a 11.111678,10.606602 0 1 1 -22.22335,0 11.111678,10.606602 0 1 1 22.22335,0 z"
       transform="matrix(1.8400742,-0.29541115,0.09917228,0.61773005,-371.77483,779.5746)" />
    <path
       transform="matrix(1.7657177,0.59613905,-0.38175646,1.130733,-249.70832,441.93179)"
       d="m 264.65997,126.55737 a 11.111678,10.606602 0 1 1 -22.22335,0 11.111678,10.606602 0 1 1 22.22335,0 z"
       sodipodi:ry="10.606602"
       sodipodi:rx="11.111678"
       sodipodi:cy="126.55737"
       sodipodi:cx="253.54829"
       id="path4018"
       style="fill:#dbe01e;fill-opacity:1;stroke:#121614;stroke-width:1.30503714;stroke-linejoin:bevel;stroke-miterlimit:4;stroke-opacity:1;stroke-dasharray:none"
       sodipodi:type="arc" />
    <path
       sodipodi:type="arc"
       style="fill:#e01e1e;fill-opacity:1;stroke:#121614;stroke-width:1.30503714;stroke-linejoin:bevel;stroke-miterlimit:4;stroke-opacity:1;stroke-dasharray:none"
       id="path4022"
       sodipodi:cx="253.54829"
       sodipodi:cy="126.55737"
       sodipodi:rx="11.111678"
       sodipodi:ry="10.606602"
       d="m 264.65997,126.55737 a 11.111678,10.606602 0 1 1 -22.22335,0 11.111678,10.606602 0 1 1 22.22335,0 z"
       transform="matrix(1.8636364,0,0,1.6666667,-272.79006,518.83474)" />
    <path
       sodipodi:type="arc"
       style="fill:#dbe01e;fill-opacity:1;stroke:#121614;stroke-width:1.30503714;stroke-linejoin:bevel;stroke-miterlimit:4;stroke-opacity:1;stroke-dasharray:none"
       id="path4024"
       sodipodi:cx="253.54829"
       sodipodi:cy="126.55737"
       sodipodi:rx="11.111678"
       sodipodi:ry="10.606602"
       d="m 264.65997,126.55737 a 11.111678,10.606602 0 1 1 -22.22335,0 11.111678,10.606602 0 1 1 22.22335,0 z"
       transform="matrix(1.6707202,0.3563231,-1.2138849,0.55922763,-77.163024,521.34269)" />
    <path
       sodipodi:nodetypes="csssscc"
       inkscape:connector-curvature="0"
       id="path4036"
       d="m 552.37502,698.77459 c -41.41626,34.34519 -37.42641,96.12038 -40.45687,129.45542 -3.03046,33.33503 65.60045,-83.12327 74.69182,-33.6258 9.09138,49.49748 -76.36302,-144.85328 -98.3053,-120.16821 -24.24365,27.27412 103.03556,29.29442 60.60916,84.85281 -42.42641,55.55839 -69.09138,-24.86364 -69.09138,-24.86364 16.42857,37.38096 119.7045,2.0036 49.28571,112.14286"
       style="fill:none;stroke:#82b594;stroke-width:7.9000001;stroke-linecap:butt;stroke-linejoin:bevel;stroke-miterlimit:4;stroke-opacity:1;stroke-dasharray:none" />
    <g
       id="g4521"
       transform="translate(113.13708,4.0406102)">
      <path
         sodipodi:type="arc"
         style="fill:#1e61e0;fill-opacity:1;stroke:#121614;stroke-width:1.30503714;stroke-linejoin:bevel;stroke-miterlimit:4;stroke-opacity:1;stroke-dasharray:none"
         id="path3961"
         sodipodi:cx="253.54829"
         sodipodi:cy="126.55737"
         sodipodi:rx="11.111678"
         sodipodi:ry="10.606602"
         d="m 264.65997,126.55737 a 11.111678,10.606602 0 1 1 -22.22335,0 11.111678,10.606602 0 1 1 22.22335,0 z"
         transform="matrix(1.8400742,-0.29541115,0.09917228,0.61773005,-137.82342,760.64211)" />
      <path
         sodipodi:type="arc"
         style="fill:#dbe01e;fill-opacity:1;stroke:#121614;stroke-width:1.30503714;stroke-linejoin:bevel;stroke-miterlimit:4;stroke-opacity:1;stroke-dasharray:none"
         id="path4038"
         sodipodi:cx="253.54829"
         sodipodi:cy="126.55737"
         sodipodi:rx="11.111678"
         sodipodi:ry="10.606602"
         d="m 264.65997,126.55737 a 11.111678,10.606602 0 1 1 -22.22335,0 11.111678,10.606602 0 1 1 22.22335,0 z"
         transform="matrix(1.6707202,0.3563231,-1.2138849,0.55922763,166.28374,513.26147)" />
      <path
         transform="matrix(1.7657177,0.59613905,-0.38175646,1.130733,-9.2920142,430.82011)"
         d="m 264.65997,126.55737 a 11.111678,10.606602 0 1 1 -22.22335,0 11.111678,10.606602 0 1 1 22.22335,0 z"
         sodipodi:ry="10.606602"
         sodipodi:rx="11.111678"
         sodipodi:cy="126.55737"
         sodipodi:cx="253.54829"
         id="path4040"
         style="fill:#dbe01e;fill-opacity:1;stroke:#121614;stroke-width:1.30503714;stroke-linejoin:bevel;stroke-miterlimit:4;stroke-opacity:1;stroke-dasharray:none"
         sodipodi:type="arc" />
      <path
         sodipodi:type="arc"
         style="fill:#55e01e;fill-opacity:1;stroke:#121614;stroke-width:1.30503714;stroke-linejoin:bevel;stroke-miterlimit:4;stroke-opacity:1;stroke-dasharray:none"
         id="path4042"
         sodipodi:cx="253.54829"
         sodipodi:cy="126.55737"
         sodipodi:rx="11.111678"
         sodipodi:ry="10.606602"
         d="m 264.65997,126.55737 a 11.111678,10.606602 0 1 1 -22.22335,0 11.111678,10.606602 0 1 1 22.22335,0 z"
         transform="matrix(1.8636364,0,0,1.6666667,29.245551,585.50481)" />
      <path
         transform="matrix(1.8636364,0,0,1.6666667,-20.251924,620.86015)"
         d="m 264.65997,126.55737 a 11.111678,10.606602 0 1 1 -22.22335,0 11.111678,10.606602 0 1 1 22.22335,0 z"
         sodipodi:ry="10.606602"
         sodipodi:rx="11.111678"
         sodipodi:cy="126.55737"
         sodipodi:cx="253.54829"
         id="path4044"
         style="fill:#55e01e;fill-opacity:1;stroke:#121614;stroke-width:1.30503714;stroke-linejoin:bevel;stroke-miterlimit:4;stroke-opacity:1;stroke-dasharray:none"
         sodipodi:type="arc" />
      <path
         transform="matrix(1.7657177,0.59613905,-0.38175646,1.130733,75.5608,452.03332)"
         d="m 264.65997,126.55737 a 11.111678,10.606602 0 1 1 -22.22335,0 11.111678,10.606602 0 1 1 22.22335,0 z"
         sodipodi:ry="10.606602"
         sodipodi:rx="11.111678"
         sodipodi:cy="126.55737"
         sodipodi:cx="253.54829"
         id="path4048"
         style="fill:#e01e1e;fill-opacity:1;stroke:#121614;stroke-width:1.30503714;stroke-linejoin:bevel;stroke-miterlimit:4;stroke-opacity:1;stroke-dasharray:none"
         sodipodi:type="arc" />
      <path
         sodipodi:type="arc"
         style="fill:#e01e1e;fill-opacity:1;stroke:#121614;stroke-width:1.30503714;stroke-linejoin:bevel;stroke-miterlimit:4;stroke-opacity:1;stroke-dasharray:none"
         id="path4050"
         sodipodi:cx="253.54829"
         sodipodi:cy="126.55737"
         sodipodi:rx="11.111678"
         sodipodi:ry="10.606602"
         d="m 264.65997,126.55737 a 11.111678,10.606602 0 1 1 -22.22335,0 11.111678,10.606602 0 1 1 22.22335,0 z"
         transform="matrix(1.8636364,0,0,1.6666667,-70.759551,626.92106)" />
    </g>
    <text
       xml:space="preserve"
       style="font-size:119.08057404px;font-style:normal;font-weight:normal;line-height:125%;letter-spacing:0px;word-spacing:0px;fill:#000000;fill-opacity:1;stroke:none;font-family:Sans"
       x="303.56848"
       y="157.76936"
       id="text4071"
       sodipodi:linespacing="125%"
       transform="scale(0.98984852,1.0102556)"><tspan
         sodipodi:role="line"
         id="tspan4073"
         x="303.56848"
         y="157.76936">?</tspan></text>
    <text
       xml:space="preserve"
       style="font-size:79.40156555px;font-style:normal;font-weight:normal;line-height:125%;letter-spacing:0px;word-spacing:0px;fill:#000000;fill-opacity:1;stroke:none;font-family:Sans"
       x="342.36258"
       y="745.17352"
       id="text4530"
       sodipodi:linespacing="125%"
       transform="scale(0.9508868,1.0516499)"><tspan
         sodipodi:role="line"
         id="tspan4532"
         x="342.36258"
         y="745.17352">+</tspan></text>
    <text
       xml:space="preserve"
       style="font-size:40px;font-style:normal;font-weight:normal;line-height:125%;letter-spacing:0px;word-spacing:0px;fill:#000000;fill-opacity:1;stroke:none;font-family:Sans"
       x="121.21831"
       y="927.10327"
       id="text4534"
       sodipodi:linespacing="125%"><tspan
         sodipodi:role="line"
         id="tspan4536"
         x="121.21831"
         y="927.10327">affinité                 stabilité</tspan></text>
    <path
       style="fill:none;stroke:#82b594;stroke-width:7.9000001;stroke-linecap:butt;stroke-linejoin:bevel;stroke-miterlimit:4;stroke-opacity:1;stroke-dasharray:none"
       d="m 576.61868,325.01815 c -41.41626,34.34519 -37.42641,96.12038 -40.45687,129.45542 -3.03046,33.33503 65.60045,-83.12327 74.69182,-33.6258 9.09138,49.49748 -76.36302,-144.85328 -98.3053,-120.16821 -24.24365,27.27412 103.03556,29.29442 60.60916,84.85281 -42.42641,55.55839 -69.09138,-24.86364 -69.09138,-24.86364 16.42857,37.38096 119.7045,2.0036 49.28571,112.14286"
       id="path4538"
       inkscape:connector-curvature="0"
       sodipodi:nodetypes="csssscc" />
    <g
       transform="translate(137.38074,-360.62446)"
       id="g4540">
      <path
         transform="matrix(1.8400742,-0.29541115,0.09917228,0.61773005,-137.82342,760.64211)"
         d="m 264.65997,126.55737 a 11.111678,10.606602 0 1 1 -22.22335,0 11.111678,10.606602 0 1 1 22.22335,0 z"
         sodipodi:ry="10.606602"
         sodipodi:rx="11.111678"
         sodipodi:cy="126.55737"
         sodipodi:cx="253.54829"
         id="path4542"
         style="fill:#1e61e0;fill-opacity:1;stroke:#121614;stroke-width:1.30503714;stroke-linejoin:bevel;stroke-miterlimit:4;stroke-opacity:1;stroke-dasharray:none"
         sodipodi:type="arc" />
      <path
         transform="matrix(1.6707202,0.3563231,-1.2138849,0.55922763,166.28374,513.26147)"
         d="m 264.65997,126.55737 a 11.111678,10.606602 0 1 1 -22.22335,0 11.111678,10.606602 0 1 1 22.22335,0 z"
         sodipodi:ry="10.606602"
         sodipodi:rx="11.111678"
         sodipodi:cy="126.55737"
         sodipodi:cx="253.54829"
         id="path4544"
         style="fill:#dbe01e;fill-opacity:1;stroke:#121614;stroke-width:1.30503714;stroke-linejoin:bevel;stroke-miterlimit:4;stroke-opacity:1;stroke-dasharray:none"
         sodipodi:type="arc" />
      <path
         sodipodi:type="arc"
         style="fill:#dbe01e;fill-opacity:1;stroke:#121614;stroke-width:1.30503714;stroke-linejoin:bevel;stroke-miterlimit:4;stroke-opacity:1;stroke-dasharray:none"
         id="path4546"
         sodipodi:cx="253.54829"
         sodipodi:cy="126.55737"
         sodipodi:rx="11.111678"
         sodipodi:ry="10.606602"
         d="m 264.65997,126.55737 a 11.111678,10.606602 0 1 1 -22.22335,0 11.111678,10.606602 0 1 1 22.22335,0 z"
         transform="matrix(1.7657177,0.59613905,-0.38175646,1.130733,-9.2920142,430.82011)" />
      <path
         transform="matrix(1.8636364,0,0,1.6666667,29.245551,585.50481)"
         d="m 264.65997,126.55737 a 11.111678,10.606602 0 1 1 -22.22335,0 11.111678,10.606602 0 1 1 22.22335,0 z"
         sodipodi:ry="10.606602"
         sodipodi:rx="11.111678"
         sodipodi:cy="126.55737"
         sodipodi:cx="253.54829"
         id="path4548"
         style="fill:#55e01e;fill-opacity:1;stroke:#121614;stroke-width:1.30503714;stroke-linejoin:bevel;stroke-miterlimit:4;stroke-opacity:1;stroke-dasharray:none"
         sodipodi:type="arc" />
      <path
         sodipodi:type="arc"
         style="fill:#55e01e;fill-opacity:1;stroke:#121614;stroke-width:1.30503714;stroke-linejoin:bevel;stroke-miterlimit:4;stroke-opacity:1;stroke-dasharray:none"
         id="path4550"
         sodipodi:cx="253.54829"
         sodipodi:cy="126.55737"
         sodipodi:rx="11.111678"
         sodipodi:ry="10.606602"
         d="m 264.65997,126.55737 a 11.111678,10.606602 0 1 1 -22.22335,0 11.111678,10.606602 0 1 1 22.22335,0 z"
         transform="matrix(1.8636364,0,0,0.47503763,-25.302687,761.07522)" />
      <path
         sodipodi:type="arc"
         style="fill:#e01e1e;fill-opacity:1;stroke:#121614;stroke-width:1.30503714;stroke-linejoin:bevel;stroke-miterlimit:4;stroke-opacity:1;stroke-dasharray:none"
         id="path4552"
         sodipodi:cx="253.54829"
         sodipodi:cy="126.55737"
         sodipodi:rx="11.111678"
         sodipodi:ry="10.606602"
         d="m 264.65997,126.55737 a 11.111678,10.606602 0 1 1 -22.22335,0 11.111678,10.606602 0 1 1 22.22335,0 z"
         transform="matrix(1.7657177,0.59613905,-0.38175646,1.130733,75.5608,452.03332)" />
      <path
         transform="matrix(2.3209965,0,0,0.53262293,-196.713,764.33302)"
         d="m 264.65997,126.55737 a 11.111678,10.606602 0 1 1 -22.22335,0 11.111678,10.606602 0 1 1 22.22335,0 z"
         sodipodi:ry="10.606602"
         sodipodi:rx="11.111678"
         sodipodi:cy="126.55737"
         sodipodi:cx="253.54829"
         id="path4554"
         style="fill:#e01e1e;fill-opacity:1;stroke:#121614;stroke-width:1.30503714;stroke-linejoin:bevel;stroke-miterlimit:4;stroke-opacity:1;stroke-dasharray:none"
         sodipodi:type="arc" />
    </g>
    <path
       transform="matrix(1.8636364,0,0,1.6666667,93.871733,220.05815)"
       d="m 264.65997,126.55737 a 11.111678,10.606602 0 1 1 -22.22335,0 11.111678,10.606602 0 1 1 22.22335,0 z"
       sodipodi:ry="10.606602"
       sodipodi:rx="11.111678"
       sodipodi:cy="126.55737"
       sodipodi:cx="253.54829"
       id="path4556"
       style="fill:#1e30e0;fill-opacity:1;stroke:#121614;stroke-width:1.30503714;stroke-linejoin:bevel;stroke-miterlimit:4;stroke-opacity:1;stroke-dasharray:none"
       sodipodi:type="arc" />
    <path
       transform="matrix(1.8636364,0,0,1.6666667,10.029071,81.667247)"
       d="m 264.65997,126.55737 a 11.111678,10.606602 0 1 1 -22.22335,0 11.111678,10.606602 0 1 1 22.22335,0 z"
       sodipodi:ry="10.606602"
       sodipodi:rx="11.111678"
       sodipodi:cy="126.55737"
       sodipodi:cx="253.54829"
       id="path4558"
       style="fill:#dbe01e;fill-opacity:1;stroke:#121614;stroke-width:1.30503714;stroke-linejoin:bevel;stroke-miterlimit:4;stroke-opacity:1;stroke-dasharray:none"
       sodipodi:type="arc" />
    <text
       xml:space="preserve"
       style="font-size:40px;font-style:normal;font-weight:normal;line-height:125%;letter-spacing:0px;word-spacing:0px;fill:#000000;fill-opacity:1;stroke:none;font-family:Sans"
       x="494.97476"
       y="538.19452"
       id="text4560"
       sodipodi:linespacing="125%"><tspan
         sodipodi:role="line"
         id="tspan4562"
         x="494.97476"
         y="538.19452">stabilité</tspan></text>
    <path
       style="fill:none;stroke:#000000;stroke-width:3.79999995;stroke-linecap:butt;stroke-linejoin:miter;stroke-miterlimit:4;stroke-opacity:1;stroke-dasharray:none;marker-end:url(#Arrow1Lend)"
       d="m 284.86302,316.97113 c 114.14724,14.14214 164.65486,31.31473 164.65486,31.31473"
       id="path4564"
       inkscape:connector-curvature="0"
       sodipodi:nodetypes="cc" />
    <path
       style="fill:none;stroke:#000000;stroke-width:4.80000019;stroke-linecap:butt;stroke-linejoin:miter;stroke-miterlimit:4;stroke-opacity:1;stroke-dasharray:none;marker-end:url(#Arrow1Lend)"
       d="m 287.89348,333.13357 c 67.68022,159.6041 96.97464,329.30973 96.97464,329.30973"
       id="path4752"
       inkscape:connector-curvature="0"
       sodipodi:nodetypes="cc" />
  </g>
</svg>
