<?xml version="1.0" encoding="UTF-8" standalone="no"?>
<!-- Created with Inkscape (http://www.inkscape.org/) -->

<svg
   xmlns:dc="http://purl.org/dc/elements/1.1/"
   xmlns:cc="http://creativecommons.org/ns#"
   xmlns:rdf="http://www.w3.org/1999/02/22-rdf-syntax-ns#"
   xmlns:svg="http://www.w3.org/2000/svg"
   xmlns="http://www.w3.org/2000/svg"
   xmlns:sodipodi="http://sodipodi.sourceforge.net/DTD/sodipodi-0.dtd"
   xmlns:inkscape="http://www.inkscape.org/namespaces/inkscape"
   version="1.1"
   id="svg29"
   xml:space="preserve"
   width="631.20294"
   height="326.35483"
   viewBox="0 0 631.20294 326.35483"
   sodipodi:docname="DFBB.svg"
   inkscape:version="0.92.1 r15371"><metadata
     id="metadata35"><rdf:RDF><cc:Work
         rdf:about=""><dc:format>image/svg+xml</dc:format><dc:type
           rdf:resource="http://purl.org/dc/dcmitype/StillImage" /><dc:title></dc:title></cc:Work></rdf:RDF></metadata><defs
     id="defs33" /><sodipodi:namedview
     pagecolor="#ffffff"
     bordercolor="#666666"
     borderopacity="1"
     objecttolerance="10"
     gridtolerance="10"
     guidetolerance="10"
     inkscape:pageopacity="0"
     inkscape:pageshadow="2"
     inkscape:window-width="1674"
     inkscape:window-height="945"
     id="namedview31"
     showgrid="false"
     inkscape:zoom="2.1317701"
     inkscape:cx="315.60147"
     inkscape:cy="88.122417"
     inkscape:window-x="0"
     inkscape:window-y="0"
     inkscape:window-maximized="0"
     inkscape:current-layer="g39" /><g
     id="g37"
     inkscape:groupmode="layer"
     inkscape:label="DFBB"
     transform="matrix(1.3333333,0,0,-1.3333333,0,326.35484)"><g
       id="g39"><g
         id="g41"
         transform="matrix(1,0,0,-1,0,244.76613)"><path
           d="M 136.098,79.992 253.164,34.23"
           style="fill:none;stroke:#000000;stroke-width:2.0260489;stroke-linecap:butt;stroke-linejoin:miter;stroke-miterlimit:4;stroke-dasharray:none;stroke-opacity:1"
           id="path43"
           inkscape:connector-curvature="0" /></g><g
         id="g45"
         transform="rotate(180,0,122.38306)"><path
           d="M -372.578,78.008 -255.512,32.246"
           style="fill:none;stroke:#000000;stroke-width:2.0260489;stroke-linecap:butt;stroke-linejoin:miter;stroke-miterlimit:4;stroke-dasharray:none;stroke-opacity:1"
           id="path47"
           inkscape:connector-curvature="0" /></g><g
         id="g49"
         transform="matrix(1,0,0,-1,0,244.76613)"><path
           d="m 248,45.465 c -10.641,-1.66 -16.957,-8.039 -14.105,-14.242 2.855,-6.203 13.789,-9.887 24.433,-8.223 10.637,1.66 16.953,8.039 14.102,14.242 -2.852,6.203 -13.789,9.887 -24.43,8.223 l 5.164,-11.235 z"
           style="fill:none;stroke:#000000;stroke-width:1.28785503;stroke-linecap:butt;stroke-linejoin:round;stroke-miterlimit:4;stroke-dasharray:none;stroke-opacity:1"
           id="path51"
           inkscape:connector-curvature="0" /></g><path
         d="m 248,199.301 c -10.641,1.66 -16.957,8.039 -14.105,14.242 2.855,6.204 13.789,9.887 24.433,8.223 10.637,-1.66 16.953,-8.039 14.102,-14.242 -2.852,-6.203 -13.789,-9.887 -24.43,-8.223 l 5.164,11.235 z"
         style="fill:#ffffff;fill-opacity:1;fill-rule:nonzero;stroke:none"
         id="path53"
         inkscape:connector-curvature="0" /><text
         transform="matrix(1,0,0,-1,243.76947,229.92238)"
         style="font-variant:normal;font-weight:normal;font-size:20px;font-family:'DejaVu Sans';-inkscape-font-specification:DejaVuSans;writing-mode:lr-tb;fill:#000000;fill-opacity:1;fill-rule:nonzero;stroke:none"
         id="text57"><tspan
           x="0"
           y="0"
           id="tspan55">S</tspan></text>
<text
         transform="matrix(1,0,0,-1,256.46478,225.92238)"
         style="font-variant:normal;font-weight:normal;font-size:9.75px;font-family:'DejaVu Sans';-inkscape-font-specification:DejaVuSans;writing-mode:lr-tb;fill:#000000;fill-opacity:1;fill-rule:nonzero;stroke:none"
         id="text61"><tspan
           x="0"
           y="0"
           id="tspan59">0</tspan></text>
<g
         id="g63"
         transform="matrix(1,0,0,-1,0,244.76613)"><path
           d="M 55.121,187.805 136.098,79.992"
           style="fill:none;stroke:#000000;stroke-width:2.0260489;stroke-linecap:butt;stroke-linejoin:miter;stroke-miterlimit:4;stroke-dasharray:none;stroke-opacity:1"
           id="path65"
           inkscape:connector-curvature="0" /></g><g
         id="g67"
         transform="rotate(180,0,122.38306)"><path
           d="M -216.957,191.02 -138.449,78.008"
           style="fill:none;stroke:#000000;stroke-width:2.0260489;stroke-linecap:butt;stroke-linejoin:miter;stroke-miterlimit:4;stroke-dasharray:none;stroke-opacity:1"
           id="path69"
           inkscape:connector-curvature="0" /></g><text
         transform="matrix(1,0,0,-1,126.7043,184.16133)"
         style="font-variant:normal;font-weight:normal;font-size:20px;font-family:'DejaVu Sans';-inkscape-font-specification:DejaVuSans;writing-mode:lr-tb;fill:#000000;fill-opacity:1;fill-rule:nonzero;stroke:none"
         id="text73"><tspan
           x="0"
           y="0"
           id="tspan71">S</tspan></text>
<text
         transform="matrix(1,0,0,-1,139.39961,180.16133)"
         style="font-variant:normal;font-weight:normal;font-size:9.75px;font-family:'DejaVu Sans';-inkscape-font-specification:DejaVuSans;writing-mode:lr-tb;fill:#000000;fill-opacity:1;fill-rule:nonzero;stroke:none"
         id="text77"><tspan
           x="0"
           y="0"
           id="tspan75">1</tspan></text>
<g
         id="g79"
         transform="matrix(1,0,0,-1,0,244.76613)"><path
           d="M 316.754,186.996 372.578,81.066"
           style="fill:none;stroke:#000000;stroke-width:2.0260489;stroke-linecap:butt;stroke-linejoin:miter;stroke-miterlimit:4;stroke-dasharray:none;stroke-opacity:1"
           id="path81"
           inkscape:connector-curvature="0" /></g><g
         id="g83"
         transform="rotate(180,0,122.38306)"><path
           d="M -452.82,187.805 -374.93,79.082"
           style="fill:none;stroke:#000000;stroke-width:2.0260489;stroke-linecap:butt;stroke-linejoin:miter;stroke-miterlimit:4;stroke-dasharray:none;stroke-opacity:1"
           id="path85"
           inkscape:connector-curvature="0" /></g><text
         transform="matrix(1,0,0,-1,363.18527,183.08684)"
         style="font-variant:normal;font-weight:normal;font-size:20px;font-family:'DejaVu Sans';-inkscape-font-specification:DejaVuSans;writing-mode:lr-tb;fill:#000000;fill-opacity:1;fill-rule:nonzero;stroke:none"
         id="text89"><tspan
           x="0"
           y="0"
           id="tspan87">S</tspan></text>
<text
         transform="matrix(1,0,0,-1,375.88058,179.08684)"
         style="font-variant:normal;font-weight:normal;font-size:9.75px;font-family:'DejaVu Sans';-inkscape-font-specification:DejaVuSans;writing-mode:lr-tb;fill:#000000;fill-opacity:1;fill-rule:nonzero;stroke:none"
         id="text93"><tspan
           x="0"
           y="0"
           id="tspan91">4</tspan></text>
<text
         transform="matrix(1,0,0,-1,160.67406,200.65156)"
         style="font-variant:normal;font-weight:normal;font-size:20px;font-family:'DejaVu Sans';-inkscape-font-specification:DejaVuSans;writing-mode:lr-tb;fill:#000000;fill-opacity:1;fill-rule:nonzero;stroke:none"
         id="text97"><tspan
           x="0"
           y="0"
           id="tspan95">v</tspan></text>
<text
         transform="matrix(1,0,0,-1,172.51,196.65156)"
         style="font-variant:normal;font-weight:normal;font-size:9.75px;font-family:'DejaVu Sans';-inkscape-font-specification:DejaVuSans;writing-mode:lr-tb;fill:#000000;fill-opacity:1;fill-rule:nonzero;stroke:none"
         id="text101"><tspan
           x="0"
           y="0"
           id="tspan99">1</tspan></text>
<text
         transform="matrix(1,0,0,-1,178.718,200.65156)"
         style="font-variant:normal;font-weight:normal;font-size:20px;font-family:'DejaVu Sans';-inkscape-font-specification:DejaVuSans;writing-mode:lr-tb;fill:#000000;fill-opacity:1;fill-rule:nonzero;stroke:none"
         id="text105"><tspan
           x="0 16.74"
           y="0"
           sodipodi:role="line"
           id="tspan103">=a</tspan></text>
<text
         transform="matrix(1,0,0,-1,207.74144,196.65156)"
         style="font-variant:normal;font-weight:normal;font-size:9.75px;font-family:'DejaVu Sans';-inkscape-font-specification:DejaVuSans;writing-mode:lr-tb;fill:#000000;fill-opacity:1;fill-rule:nonzero;stroke:none"
         id="text109"><tspan
           x="0"
           y="0"
           id="tspan107">1</tspan></text>
<text
         transform="matrix(1,0,0,-1,297.01343,200.03465)"
         style="font-variant:normal;font-weight:normal;font-size:20px;font-family:'DejaVu Sans';-inkscape-font-specification:DejaVuSans;writing-mode:lr-tb;fill:#000000;fill-opacity:1;fill-rule:nonzero;stroke:none"
         id="text113"><tspan
           x="0"
           y="0"
           id="tspan111">v</tspan></text>
<text
         transform="matrix(1,0,0,-1,308.84936,196.03465)"
         style="font-variant:normal;font-weight:normal;font-size:9.75px;font-family:'DejaVu Sans';-inkscape-font-specification:DejaVuSans;writing-mode:lr-tb;fill:#000000;fill-opacity:1;fill-rule:nonzero;stroke:none"
         id="text117"><tspan
           x="0"
           y="0"
           id="tspan115">1</tspan></text>
<text
         transform="matrix(1,0,0,-1,315.05737,200.03465)"
         style="font-variant:normal;font-weight:normal;font-size:20px;font-family:'DejaVu Sans';-inkscape-font-specification:DejaVuSans;writing-mode:lr-tb;fill:#000000;fill-opacity:1;fill-rule:nonzero;stroke:none"
         id="text121"><tspan
           x="0 16.74"
           y="0"
           sodipodi:role="line"
           id="tspan119">=a</tspan></text>
<text
         transform="matrix(1,0,0,-1,344.08081,196.03465)"
         style="font-variant:normal;font-weight:normal;font-size:9.75px;font-family:'DejaVu Sans';-inkscape-font-specification:DejaVuSans;writing-mode:lr-tb;fill:#000000;fill-opacity:1;fill-rule:nonzero;stroke:none"
         id="text125"><tspan
           x="0"
           y="0"
           id="tspan123">2</tspan></text>
<text
         transform="matrix(1,0,0,-1,38.523839,115.51656)"
         style="font-variant:normal;font-weight:normal;font-size:20px;font-family:'DejaVu Sans';-inkscape-font-specification:DejaVuSans;writing-mode:lr-tb;fill:#000000;fill-opacity:1;fill-rule:nonzero;stroke:none"
         id="text129"><tspan
           x="0"
           y="0"
           id="tspan127">v</tspan></text>
<text
         transform="matrix(1,0,0,-1,50.359776,111.51656)"
         style="font-variant:normal;font-weight:normal;font-size:9.75px;font-family:'DejaVu Sans';-inkscape-font-specification:DejaVuSans;writing-mode:lr-tb;fill:#000000;fill-opacity:1;fill-rule:nonzero;stroke:none"
         id="text133"><tspan
           x="0"
           y="0"
           id="tspan131">2</tspan></text>
<text
         transform="matrix(1,0,0,-1,56.567783,115.51656)"
         style="font-variant:normal;font-weight:normal;font-size:20px;font-family:'DejaVu Sans';-inkscape-font-specification:DejaVuSans;writing-mode:lr-tb;fill:#000000;fill-opacity:1;fill-rule:nonzero;stroke:none"
         id="text137"><tspan
           x="0 16.74"
           y="0"
           sodipodi:role="line"
           id="tspan135">=b</tspan></text>
<text
         transform="matrix(1,0,0,-1,86.020908,111.51656)"
         style="font-variant:normal;font-weight:normal;font-size:9.75px;font-family:'DejaVu Sans';-inkscape-font-specification:DejaVuSans;writing-mode:lr-tb;fill:#000000;fill-opacity:1;fill-rule:nonzero;stroke:none"
         id="text141"><tspan
           x="0"
           y="0"
           id="tspan139">1</tspan></text>
<text
         transform="matrix(1,0,0,-1,174.24629,116.75041)"
         style="font-variant:normal;font-weight:normal;font-size:20px;font-family:'DejaVu Sans';-inkscape-font-specification:DejaVuSans;writing-mode:lr-tb;fill:#000000;fill-opacity:1;fill-rule:nonzero;stroke:none"
         id="text145"><tspan
           x="0"
           y="0"
           id="tspan143">v</tspan></text>
<text
         transform="matrix(1,0,0,-1,186.08223,112.75041)"
         style="font-variant:normal;font-weight:normal;font-size:9.75px;font-family:'DejaVu Sans';-inkscape-font-specification:DejaVuSans;writing-mode:lr-tb;fill:#000000;fill-opacity:1;fill-rule:nonzero;stroke:none"
         id="text149"><tspan
           x="0"
           y="0"
           id="tspan147">2</tspan></text>
<text
         transform="matrix(1,0,0,-1,192.29024,116.75041)"
         style="font-variant:normal;font-weight:normal;font-size:20px;font-family:'DejaVu Sans';-inkscape-font-specification:DejaVuSans;writing-mode:lr-tb;fill:#000000;fill-opacity:1;fill-rule:nonzero;stroke:none"
         id="text153"><tspan
           x="0 16.74"
           y="0"
           sodipodi:role="line"
           id="tspan151">=b</tspan></text>
<text
         transform="matrix(1,0,0,-1,221.74336,112.75041)"
         style="font-variant:normal;font-weight:normal;font-size:9.75px;font-family:'DejaVu Sans';-inkscape-font-specification:DejaVuSans;writing-mode:lr-tb;fill:#000000;fill-opacity:1;fill-rule:nonzero;stroke:none"
         id="text157"><tspan
           x="0"
           y="0"
           id="tspan155">2</tspan></text>
<text
         transform="matrix(1,0,0,-1,288.9935,114.28271)"
         style="font-variant:normal;font-weight:normal;font-size:20px;font-family:'DejaVu Sans';-inkscape-font-specification:DejaVuSans;writing-mode:lr-tb;fill:#000000;fill-opacity:1;fill-rule:nonzero;stroke:none"
         id="text161"><tspan
           x="0"
           y="0"
           id="tspan159">v</tspan></text>
<text
         transform="matrix(1,0,0,-1,300.82943,110.28271)"
         style="font-variant:normal;font-weight:normal;font-size:9.75px;font-family:'DejaVu Sans';-inkscape-font-specification:DejaVuSans;writing-mode:lr-tb;fill:#000000;fill-opacity:1;fill-rule:nonzero;stroke:none"
         id="text165"><tspan
           x="0"
           y="0"
           id="tspan163">2</tspan></text>
<text
         transform="matrix(1,0,0,-1,307.03744,114.28271)"
         style="font-variant:normal;font-weight:normal;font-size:20px;font-family:'DejaVu Sans';-inkscape-font-specification:DejaVuSans;writing-mode:lr-tb;fill:#000000;fill-opacity:1;fill-rule:nonzero;stroke:none"
         id="text169"><tspan
           x="0 16.74"
           y="0"
           sodipodi:role="line"
           id="tspan167">=b</tspan></text>
<text
         transform="matrix(1,0,0,-1,336.49057,110.28271)"
         style="font-variant:normal;font-weight:normal;font-size:9.75px;font-family:'DejaVu Sans';-inkscape-font-specification:DejaVuSans;writing-mode:lr-tb;fill:#000000;fill-opacity:1;fill-rule:nonzero;stroke:none"
         id="text173"><tspan
           x="0"
           y="0"
           id="tspan171">1</tspan></text>
<text
         transform="matrix(1,0,0,-1,413.61141,113.6658)"
         style="font-variant:normal;font-weight:normal;font-size:20px;font-family:'DejaVu Sans';-inkscape-font-specification:DejaVuSans;writing-mode:lr-tb;fill:#000000;fill-opacity:1;fill-rule:nonzero;stroke:none"
         id="text177"><tspan
           x="0"
           y="0"
           id="tspan175">v</tspan></text>
<text
         transform="matrix(1,0,0,-1,425.44735,109.6658)"
         style="font-variant:normal;font-weight:normal;font-size:9.75px;font-family:'DejaVu Sans';-inkscape-font-specification:DejaVuSans;writing-mode:lr-tb;fill:#000000;fill-opacity:1;fill-rule:nonzero;stroke:none"
         id="text181"><tspan
           x="0"
           y="0"
           id="tspan179">2</tspan></text>
<text
         transform="matrix(1,0,0,-1,431.65536,113.6658)"
         style="font-variant:normal;font-weight:normal;font-size:20px;font-family:'DejaVu Sans';-inkscape-font-specification:DejaVuSans;writing-mode:lr-tb;fill:#000000;fill-opacity:1;fill-rule:nonzero;stroke:none"
         id="text185"><tspan
           x="0 16.74"
           y="0"
           sodipodi:role="line"
           id="tspan183">=b</tspan></text>
<text
         transform="matrix(1,0,0,-1,461.10848,109.6658)"
         style="font-variant:normal;font-weight:normal;font-size:9.75px;font-family:'DejaVu Sans';-inkscape-font-specification:DejaVuSans;writing-mode:lr-tb;fill:#000000;fill-opacity:1;fill-rule:nonzero;stroke:none"
         id="text189"><tspan
           x="0"
           y="0"
           id="tspan187">2</tspan></text>
<g
         id="g191"
         transform="matrix(0.352336,1,1,-0.352336,0,244.76613)"><path
           d="m -177.454,118.059 27.665,-10.162"
           style="fill:none;stroke:#000000;stroke-width:1.91090703;stroke-linecap:butt;stroke-linejoin:miter;stroke-miterlimit:4;stroke-dasharray:none;stroke-opacity:1"
           id="path193"
           inkscape:connector-curvature="0" /></g><g
         id="g195"
         transform="matrix(1,0.33478,0.33478,-1,0,244.76613)"><path
           d="m -49.254,200.401 42.283,-14.93"
           style="fill:none;stroke:#000000;stroke-width:1.92124295;stroke-linecap:butt;stroke-linejoin:miter;stroke-miterlimit:4;stroke-dasharray:none;stroke-opacity:1"
           id="path197"
           inkscape:connector-curvature="0" /></g><g
         id="g199"
         transform="matrix(-1,0.33478,-0.33478,-1,0,244.76613)"><path
           d="m -150.146,165.703 41.883,-12.486"
           style="fill:none;stroke:#000000;stroke-width:1.92124295;stroke-linecap:butt;stroke-linejoin:miter;stroke-miterlimit:4;stroke-dasharray:none;stroke-opacity:1"
           id="path201"
           inkscape:connector-curvature="0" /></g><g
         id="g203"
         transform="matrix(1,0,0,-1,0,244.76613)"><path
           d="M 39.449,215.816 H 70.648 V 244.07 H 39.449 Z"
           style="fill:none;stroke:#090909;stroke-width:0.77669299;stroke-linecap:butt;stroke-linejoin:round;stroke-miterlimit:4;stroke-dasharray:none;stroke-opacity:1"
           id="path205"
           inkscape:connector-curvature="0" /></g><path
         d="M 39.449,28.95 H 70.648 V 0.696 H 39.449 Z"
         style="fill:#ffffff;fill-opacity:1;fill-rule:nonzero;stroke:none"
         id="path207"
         inkscape:connector-curvature="0" /><g
         id="g213"
         transform="matrix(1,0,0,-1,0,244.76613)"><path
           d="m 0.387,216.129 h 31.199 v 28.25 H 0.387 Z"
           style="fill:none;stroke:#090909;stroke-width:0.77669299;stroke-linecap:butt;stroke-linejoin:round;stroke-miterlimit:4;stroke-dasharray:none;stroke-opacity:1"
           id="path215"
           inkscape:connector-curvature="0" /></g><path
         d="M 0.387,28.637 H 31.586 V 0.387 H 0.387 Z"
         style="fill:#ffffff;fill-opacity:1;fill-rule:nonzero;stroke:none"
         id="path217"
         inkscape:connector-curvature="0" /><g
         id="g223"
         transform="matrix(1,0,0,-1,0,244.76613)"><path
           d="m 78.52,215.508 h 31.203 v 28.254 H 78.52 Z"
           style="fill:none;stroke:#090909;stroke-width:0.77669299;stroke-linecap:butt;stroke-linejoin:round;stroke-miterlimit:4;stroke-dasharray:none;stroke-opacity:1"
           id="path225"
           inkscape:connector-curvature="0" /></g><path
         d="m 78.52,29.258 h 31.203 V 1.004 H 78.52 Z"
         style="fill:#ffffff;fill-opacity:1;fill-rule:nonzero;stroke:none"
         id="path227"
         inkscape:connector-curvature="0" /><text
         transform="scale(1,-1)"
         style="font-variant:normal;font-weight:normal;font-size:20px;font-family:'DejaVu Sans';-inkscape-font-specification:DejaVuSans;writing-mode:lr-tb;fill:#000000;fill-opacity:1;fill-rule:nonzero;stroke:none"
         id="text233"
         x="80.242546"
         y="-7.3228827"><tspan
           x="80.242546 92.962547"
           y="-7.3228827"
           sodipodi:role="line"
           id="tspan229">34</tspan><tspan
           x="45.377151"
           y="-75.998245"
           id="tspan231">S</tspan></text>
<text
         transform="matrix(1,0,0,-1,58.424275,72.350053)"
         style="font-variant:normal;font-weight:normal;font-size:9.75px;font-family:'DejaVu Sans';-inkscape-font-specification:DejaVuSans;writing-mode:lr-tb;fill:#000000;fill-opacity:1;fill-rule:nonzero;stroke:none"
         id="text237"><tspan
           x="0"
           y="0"
           id="tspan235">2</tspan></text>
<g
         id="g239"
         transform="matrix(1,0,0,-1,0,244.76613)"><path
           d="M 49.957,199.039 C 39.32,197.375 33.004,191 35.855,184.797 c 2.852,-6.207 13.79,-9.887 24.43,-8.227 10.641,1.664 16.953,8.039 14.106,14.242 -2.852,6.204 -13.789,9.887 -24.43,8.227 l 5.16,-11.234 z"
           style="fill:none;stroke:#000000;stroke-width:1.28785503;stroke-linecap:butt;stroke-linejoin:round;stroke-miterlimit:4;stroke-dasharray:none;stroke-opacity:1"
           id="path241"
           inkscape:connector-curvature="0" /></g><path
         d="m 49.957,45.727 c -10.637,1.664 -16.953,8.039 -14.102,14.242 2.852,6.207 13.79,9.887 24.43,8.227 10.641,-1.664 16.953,-8.039 14.106,-14.242 -2.852,-6.203 -13.789,-9.887 -24.43,-8.227 l 5.16,11.234 z"
         style="fill:#ffffff;fill-opacity:1;fill-rule:nonzero;stroke:none"
         id="path243"
         inkscape:connector-curvature="0" /><g
         id="g249"
         transform="matrix(1,0,0,-1,0,244.76613)"><path
           d="m 133.285,89.238 c -10.64,-1.66 -16.957,-8.039 -14.105,-14.242 2.855,-6.203 13.789,-9.887 24.433,-8.223 10.637,1.661 16.953,8.039 14.102,14.243 -2.852,6.203 -13.789,9.886 -24.43,8.222 l 5.164,-11.234 z"
           style="fill:none;stroke:#000000;stroke-width:1.28785503;stroke-linecap:butt;stroke-linejoin:round;stroke-miterlimit:4;stroke-dasharray:none;stroke-opacity:1"
           id="path251"
           inkscape:connector-curvature="0" /></g><path
         d="m 133.285,155.528 c -10.64,1.66 -16.957,8.039 -14.105,14.242 2.855,6.203 13.789,9.887 24.433,8.223 10.637,-1.66 16.953,-8.039 14.102,-14.242 -2.852,-6.204 -13.789,-9.887 -24.43,-8.223 l 5.164,11.23 z"
         style="fill:#ffffff;fill-opacity:1;fill-rule:nonzero;stroke:none"
         id="path253"
         inkscape:connector-curvature="0" /><g
         id="g255"
         transform="matrix(1,0,0,-1,0,244.76613)"><path
           d="m 367.414,89.238 c -10.637,-1.66 -16.953,-8.039 -14.102,-14.242 2.852,-6.203 13.786,-9.887 24.43,-8.223 10.641,1.661 16.953,8.039 14.102,14.243 -2.848,6.203 -13.785,9.886 -24.426,8.222 l 5.16,-11.23 z"
           style="fill:none;stroke:#000000;stroke-width:1.28785503;stroke-linecap:butt;stroke-linejoin:round;stroke-miterlimit:4;stroke-dasharray:none;stroke-opacity:1"
           id="path257"
           inkscape:connector-curvature="0" /></g><path
         d="m 367.414,155.528 c -10.637,1.66 -16.953,8.039 -14.102,14.242 2.852,6.203 13.786,9.887 24.43,8.223 10.641,-1.66 16.953,-8.039 14.102,-14.242 -2.848,-6.204 -13.785,-9.887 -24.426,-8.223 l 5.16,11.23 z"
         style="fill:#ffffff;fill-opacity:1;fill-rule:nonzero;stroke:none"
         id="path259"
         inkscape:connector-curvature="0" /><g
         id="g261"
         transform="matrix(0.352336,1,1,-0.352336,0,244.76613)"><path
           d="m -128.665,256.533 27.666,-10.162"
           style="fill:none;stroke:#000000;stroke-width:1.91090703;stroke-linecap:butt;stroke-linejoin:miter;stroke-miterlimit:4;stroke-dasharray:none;stroke-opacity:1"
           id="path263"
           inkscape:connector-curvature="0" /></g><g
         id="g265"
         transform="matrix(1,0.33478,0.33478,-1,0,244.76613)"><path
           d="m 91.283,246.833 27.815,-10.215"
           style="fill:none;stroke:#000000;stroke-width:1.92124295;stroke-linecap:butt;stroke-linejoin:miter;stroke-miterlimit:4;stroke-dasharray:none;stroke-opacity:1"
           id="path267"
           inkscape:connector-curvature="0" /></g><g
         id="g269"
         transform="matrix(-1,0.33478,-0.33478,-1,0,244.76613)"><path
           d="m -290.308,118.162 27.814,-10.215"
           style="fill:none;stroke:#000000;stroke-width:1.92124295;stroke-linecap:butt;stroke-linejoin:miter;stroke-miterlimit:4;stroke-dasharray:none;stroke-opacity:1"
           id="path271"
           inkscape:connector-curvature="0" /></g><g
         id="g273"
         transform="matrix(1,0,0,-1,0,244.76613)"><path
           d="m 195.531,215.199 h 31.199 v 28.254 h -31.199 z"
           style="fill:none;stroke:#090909;stroke-width:0.77669299;stroke-linecap:butt;stroke-linejoin:round;stroke-miterlimit:4;stroke-dasharray:none;stroke-opacity:1"
           id="path275"
           inkscape:connector-curvature="0" /></g><path
         d="M 195.531,29.567 H 226.73 V 1.313 h -31.199 z"
         style="fill:#ffffff;fill-opacity:1;fill-rule:nonzero;stroke:none"
         id="path277"
         inkscape:connector-curvature="0" /><g
         id="g279"
         transform="matrix(1,0,0,-1,0,244.76613)"><path
           d="m 156.469,215.512 h 31.199 v 28.25 h -31.199 z"
           style="fill:none;stroke:#090909;stroke-width:0.77669299;stroke-linecap:butt;stroke-linejoin:round;stroke-miterlimit:4;stroke-dasharray:none;stroke-opacity:1"
           id="path281"
           inkscape:connector-curvature="0" /></g><path
         d="m 156.469,29.254 h 31.199 V 1.004 h -31.199 z"
         style="fill:#ffffff;fill-opacity:1;fill-rule:nonzero;stroke:none"
         id="path283"
         inkscape:connector-curvature="0" /><g
         id="g285"
         transform="matrix(1,0,0,-1,0,244.76613)"><path
           d="m 234.602,214.891 h 31.203 v 28.254 h -31.203 z"
           style="fill:none;stroke:#090909;stroke-width:0.77669299;stroke-linecap:butt;stroke-linejoin:round;stroke-miterlimit:4;stroke-dasharray:none;stroke-opacity:1"
           id="path287"
           inkscape:connector-curvature="0" /></g><path
         d="m 234.602,29.876 h 31.203 V 1.622 h -31.203 z"
         style="fill:#ffffff;fill-opacity:1;fill-rule:nonzero;stroke:none"
         id="path289"
         inkscape:connector-curvature="0" /><text
         transform="matrix(1,0,0,-1,201.39339,76.350281)"
         style="font-variant:normal;font-weight:normal;font-size:20px;font-family:'DejaVu Sans';-inkscape-font-specification:DejaVuSans;writing-mode:lr-tb;fill:#000000;fill-opacity:1;fill-rule:nonzero;stroke:none"
         id="text293"><tspan
           x="0"
           y="0"
           id="tspan291">S</tspan></text>
<text
         transform="matrix(1,0,0,-1,214.0887,72.350281)"
         style="font-variant:normal;font-weight:normal;font-size:9.75px;font-family:'DejaVu Sans';-inkscape-font-specification:DejaVuSans;writing-mode:lr-tb;fill:#000000;fill-opacity:1;fill-rule:nonzero;stroke:none"
         id="text297"><tspan
           x="0"
           y="0"
           id="tspan295">3</tspan></text>
<g
         id="g299"
         transform="matrix(1,0,0,-1,0,244.76613)"><path
           d="M 205.625,199.039 C 194.984,197.375 188.668,191 191.52,184.797 c 2.851,-6.207 13.789,-9.887 24.429,-8.227 10.641,1.664 16.953,8.039 14.106,14.242 -2.852,6.204 -13.789,9.887 -24.43,8.227 l 5.16,-11.234 z"
           style="fill:none;stroke:#000000;stroke-width:1.28785503;stroke-linecap:butt;stroke-linejoin:round;stroke-miterlimit:4;stroke-dasharray:none;stroke-opacity:1"
           id="path301"
           inkscape:connector-curvature="0" /></g><path
         d="m 205.625,45.727 c -10.641,1.664 -16.957,8.039 -14.105,14.242 2.851,6.207 13.789,9.887 24.429,8.227 10.641,-1.664 16.953,-8.039 14.106,-14.242 -2.852,-6.203 -13.789,-9.887 -24.43,-8.227 l 5.16,11.234 z"
         style="fill:#ffffff;fill-opacity:1;fill-rule:nonzero;stroke:none"
         id="path303"
         inkscape:connector-curvature="0" /><g
         id="g305"
         transform="matrix(1,0,0,-1,0,244.76613)"><path
           d="m 172.133,226.684 62.469,-59.399"
           style="fill:none;stroke:#ff0000;stroke-width:2.0260489;stroke-linecap:butt;stroke-linejoin:miter;stroke-miterlimit:4;stroke-dasharray:none;stroke-opacity:1"
           id="path307"
           inkscape:connector-curvature="0" /></g><g
         id="g309"
         transform="rotate(180,0,122.38306)"><path
           d="m -259.895,210.57 82.207,-43.285"
           style="fill:none;stroke:#ff0000;stroke-width:2.0260489;stroke-linecap:butt;stroke-linejoin:miter;stroke-miterlimit:4;stroke-dasharray:none;stroke-opacity:1"
           id="path311"
           inkscape:connector-curvature="0" /></g><text
         transform="matrix(1,0,0,-1,190.90314,11.180957)"
         style="font-variant:normal;font-weight:normal;font-size:20px;font-family:'DejaVu Sans';-inkscape-font-specification:DejaVuSans;writing-mode:lr-tb;fill:#ff0000;fill-opacity:1;fill-rule:nonzero;stroke:none"
         id="text315"><tspan
           x="0"
           y="0"
           id="tspan313">C</tspan></text>
<text
         transform="matrix(1,0,0,-1,204.88751,7.180957)"
         style="font-variant:normal;font-weight:normal;font-size:9.75px;font-family:'DejaVu Sans';-inkscape-font-specification:DejaVuSans;writing-mode:lr-tb;fill:#ff0000;fill-opacity:1;fill-rule:nonzero;stroke:none"
         id="text319"><tspan
           x="0"
           y="0"
           id="tspan317">0</tspan></text>
<text
         transform="matrix(1,0,0,-1,211.09552,11.180957)"
         style="font-variant:normal;font-weight:normal;font-size:20px;font-family:'DejaVu Sans';-inkscape-font-specification:DejaVuSans;writing-mode:lr-tb;fill:#ff0000;fill-opacity:1;fill-rule:nonzero;stroke:none"
         id="text323"><tspan
           x="0 16.74"
           y="0"
           sodipodi:role="line"
           id="tspan321">+C</tspan></text>
<text
         transform="matrix(1,0,0,-1,241.83771,7.180957)"
         style="font-variant:normal;font-weight:normal;font-size:9.75px;font-family:'DejaVu Sans';-inkscape-font-specification:DejaVuSans;writing-mode:lr-tb;fill:#ff0000;fill-opacity:1;fill-rule:nonzero;stroke:none"
         id="text327"><tspan
           x="0"
           y="0"
           id="tspan325">1</tspan></text>
<text
         transform="matrix(1,0,0,-1,248.04571,11.180957)"
         style="font-variant:normal;font-weight:normal;font-size:20px;font-family:'DejaVu Sans';-inkscape-font-specification:DejaVuSans;writing-mode:lr-tb;fill:#ff0000;fill-opacity:1;fill-rule:nonzero;stroke:none"
         id="text331"><tspan
           x="0 7.8000002"
           y="0"
           sodipodi:role="line"
           id="tspan329">(a</tspan></text>
<text
         transform="matrix(1,0,0,-1,268.12384,7.180957)"
         style="font-variant:normal;font-weight:normal;font-size:9.75px;font-family:'DejaVu Sans';-inkscape-font-specification:DejaVuSans;writing-mode:lr-tb;fill:#ff0000;fill-opacity:1;fill-rule:nonzero;stroke:none"
         id="text335"><tspan
           x="0"
           y="0"
           id="tspan333">1</tspan></text>
<text
         transform="matrix(1,0,0,-1,274.33185,11.180957)"
         style="font-variant:normal;font-weight:normal;font-size:20px;font-family:'DejaVu Sans';-inkscape-font-specification:DejaVuSans;writing-mode:lr-tb;fill:#ff0000;fill-opacity:1;fill-rule:nonzero;stroke:none"
         id="text339"><tspan
           x="0 7.8000002 24.540001"
           y="0"
           sodipodi:role="line"
           id="tspan337">)+C</tspan></text>
<text
         transform="matrix(1,0,0,-1,312.88653,7.180957)"
         style="font-variant:normal;font-weight:normal;font-size:9.75px;font-family:'DejaVu Sans';-inkscape-font-specification:DejaVuSans;writing-mode:lr-tb;fill:#ff0000;fill-opacity:1;fill-rule:nonzero;stroke:none"
         id="text343"><tspan
           x="0"
           y="0"
           id="tspan341">1</tspan></text>
<text
         transform="matrix(1,0,0,-1,319.09454,11.180957)"
         style="font-variant:normal;font-weight:normal;font-size:20px;font-family:'DejaVu Sans';-inkscape-font-specification:DejaVuSans;writing-mode:lr-tb;fill:#ff0000;fill-opacity:1;fill-rule:nonzero;stroke:none"
         id="text347"><tspan
           x="0 7.8000002"
           y="0"
           sodipodi:role="line"
           id="tspan345">(b</tspan></text>
<text
         transform="matrix(1,0,0,-1,339.60235,7.180957)"
         style="font-variant:normal;font-weight:normal;font-size:9.75px;font-family:'DejaVu Sans';-inkscape-font-specification:DejaVuSans;writing-mode:lr-tb;fill:#ff0000;fill-opacity:1;fill-rule:nonzero;stroke:none"
         id="text351"><tspan
           x="0"
           y="0"
           id="tspan349">2</tspan></text>
<text
         transform="matrix(1,0,0,-1,345.81036,11.180957)"
         style="font-variant:normal;font-weight:normal;font-size:20px;font-family:'DejaVu Sans';-inkscape-font-specification:DejaVuSans;writing-mode:lr-tb;fill:#ff0000;fill-opacity:1;fill-rule:nonzero;stroke:none"
         id="text355"><tspan
           x="0 7.8000002 24.540001 37.259998"
           y="0"
           sodipodi:role="line"
           id="tspan353">)&gt;25</tspan></text>
<text
         transform="matrix(1,0,0,-1,304.27697,75.925675)"
         style="font-variant:normal;font-weight:normal;font-size:20px;font-family:'DejaVu Sans';-inkscape-font-specification:DejaVuSans;writing-mode:lr-tb;fill:#000000;fill-opacity:1;fill-rule:nonzero;stroke:none"
         id="text359"><tspan
           x="0"
           y="0"
           id="tspan357">S</tspan></text>
<text
         transform="matrix(1,0,0,-1,316.97229,71.925675)"
         style="font-variant:normal;font-weight:normal;font-size:9.75px;font-family:'DejaVu Sans';-inkscape-font-specification:DejaVuSans;writing-mode:lr-tb;fill:#000000;fill-opacity:1;fill-rule:nonzero;stroke:none"
         id="text363"><tspan
           x="0"
           y="0"
           id="tspan361">5</tspan></text>
<g
         id="g365"
         transform="matrix(1,0,0,-1,0,244.76613)"><path
           d="m 312.246,198.93 c -10.641,-1.66 -16.957,-8.039 -14.105,-14.242 2.855,-6.204 13.789,-9.887 24.433,-8.223 10.637,1.66 16.953,8.039 14.102,14.242 -2.852,6.203 -13.789,9.887 -24.43,8.223 l 5.164,-11.235 z"
           style="fill:none;stroke:#000000;stroke-width:1.28785503;stroke-linecap:butt;stroke-linejoin:round;stroke-miterlimit:4;stroke-dasharray:none;stroke-opacity:1"
           id="path367"
           inkscape:connector-curvature="0" /></g><path
         d="m 312.246,45.836 c -10.641,1.661 -16.957,8.04 -14.105,14.243 2.855,6.203 13.789,9.886 24.433,8.222 10.637,-1.66 16.953,-8.039 14.102,-14.242 -2.852,-6.203 -13.789,-9.887 -24.43,-8.223 l 5.164,11.235 z"
         style="fill:#ffffff;fill-opacity:1;fill-rule:nonzero;stroke:none"
         id="path369"
         inkscape:connector-curvature="0" /><text
         transform="matrix(1,0,0,-1,443.42664,76.349549)"
         style="font-variant:normal;font-weight:normal;font-size:20px;font-family:'DejaVu Sans';-inkscape-font-specification:DejaVuSans;writing-mode:lr-tb;fill:#000000;fill-opacity:1;fill-rule:nonzero;stroke:none"
         id="text373"><tspan
           x="0"
           y="0"
           id="tspan371">S</tspan></text>
<text
         transform="matrix(1,0,0,-1,456.12195,72.349549)"
         style="font-variant:normal;font-weight:normal;font-size:9.75px;font-family:'DejaVu Sans';-inkscape-font-specification:DejaVuSans;writing-mode:lr-tb;fill:#000000;fill-opacity:1;fill-rule:nonzero;stroke:none"
         id="text377"><tspan
           x="0"
           y="0"
           id="tspan375">6</tspan></text>
<g
         id="g379"
         transform="matrix(1,0,0,-1,0,244.76613)"><path
           d="m 447.656,199.039 c -10.64,-1.664 -16.953,-8.039 -14.101,-14.242 2.851,-6.207 13.785,-9.887 24.429,-8.227 10.641,1.664 16.954,8.039 14.102,14.242 -2.848,6.204 -13.785,9.887 -24.426,8.227 l 5.16,-11.234 z"
           style="fill:none;stroke:#000000;stroke-width:1.28785503;stroke-linecap:butt;stroke-linejoin:round;stroke-miterlimit:4;stroke-dasharray:none;stroke-opacity:1"
           id="path381"
           inkscape:connector-curvature="0" /></g><path
         d="m 447.656,45.727 c -10.64,1.664 -16.953,8.039 -14.101,14.242 2.851,6.207 13.785,9.887 24.429,8.227 10.641,-1.664 16.954,-8.039 14.102,-14.242 -2.848,-6.203 -13.785,-9.887 -24.426,-8.227 l 5.16,11.234 z"
         style="fill:#ffffff;fill-opacity:1;fill-rule:nonzero;stroke:none"
         id="path383"
         inkscape:connector-curvature="0" /><text
         xml:space="preserve"
         style="font-style:normal;font-weight:normal;font-size:10px;line-height:125%;font-family:Sans;-inkscape-font-specification:Sans;letter-spacing:0px;word-spacing:0px;fill:#000000;fill-opacity:1;stroke:none;stroke-width:0.75px;stroke-linecap:butt;stroke-linejoin:miter;stroke-opacity:1"
         x="42.218437"
         y="-50.310314"
         id="text387"
         transform="scale(1,-1)"><tspan
           sodipodi:role="line"
           id="tspan385"
           x="42.218437"
           y="-50.310314"
           style="font-size:20px;stroke-width:0.75px">25</tspan></text>
<text
         transform="scale(1,-1)"
         id="text391"
         y="-8.7955179"
         x="41.866615"
         style="font-style:normal;font-weight:normal;font-size:10px;line-height:125%;font-family:Sans;-inkscape-font-specification:Sans;letter-spacing:0px;word-spacing:0px;fill:#000000;fill-opacity:1;stroke:none;stroke-width:0.75px;stroke-linecap:butt;stroke-linejoin:miter;stroke-opacity:1"
         xml:space="preserve"><tspan
           style="font-size:20px;stroke-width:0.75px"
           y="-8.7955179"
           x="41.866615"
           id="tspan389"
           sodipodi:role="line">25</tspan></text>
<text
         xml:space="preserve"
         style="font-style:normal;font-weight:normal;font-size:10px;line-height:125%;font-family:Sans;-inkscape-font-specification:Sans;letter-spacing:0px;word-spacing:0px;fill:#000000;fill-opacity:1;stroke:none;stroke-width:0.75px;stroke-linecap:butt;stroke-linejoin:miter;stroke-opacity:1"
         x="3.1663828"
         y="-8.795516"
         id="text395"
         transform="scale(1,-1)"><tspan
           sodipodi:role="line"
           id="tspan393"
           x="3.1663828"
           y="-8.795516"
           style="font-size:20px;stroke-width:0.75px">30</tspan></text>
<rect
         style="opacity:1;fill:#ffffff;fill-opacity:0.99543379;stroke:#ffffff;stroke-width:3.49349999;stroke-linejoin:round;stroke-miterlimit:4;stroke-dasharray:none;stroke-dashoffset:0;stroke-opacity:1;paint-order:stroke fill markers"
         id="rect397"
         width="23.57196"
         height="18.294657"
         x="80.918678"
         y="-24.627424"
         transform="scale(1,-1)" /><text
         xml:space="preserve"
         style="font-style:normal;font-weight:normal;font-size:10px;line-height:125%;font-family:Sans;-inkscape-font-specification:Sans;letter-spacing:0px;word-spacing:0px;fill:#000000;fill-opacity:1;stroke:none;stroke-width:0.75px;stroke-linecap:butt;stroke-linejoin:miter;stroke-opacity:1"
         x="81.270493"
         y="-8.0918655"
         id="text401"
         transform="scale(1,-1)"><tspan
           sodipodi:role="line"
           id="tspan399"
           x="81.270493"
           y="-8.0918655"
           style="font-size:20px;stroke-width:0.75px">34</tspan></text>
</g></g></svg>