<?xml version="1.0" encoding="UTF-8" standalone="no"?>
<svg
   xmlns:dc="http://purl.org/dc/elements/1.1/"
   xmlns:cc="http://creativecommons.org/ns#"
   xmlns:rdf="http://www.w3.org/1999/02/22-rdf-syntax-ns#"
   xmlns:svg="http://www.w3.org/2000/svg"
   xmlns="http://www.w3.org/2000/svg"
   xmlns:xlink="http://www.w3.org/1999/xlink"
   id="svg5318"
   version="1.1"
   viewBox="0 0 210 297"
   height="297mm"
   width="210mm">
  <defs
     id="defs5312">
    <marker
       style="overflow:visible;"
       id="marker7500"
       refX="0.0"
       refY="0.0"
       orient="auto">
      <path
         transform="scale(0.4) rotate(180) translate(10,0)"
         style="fill-rule:evenodd;stroke:#000000;stroke-width:1pt;stroke-opacity:1;fill:#000000;fill-opacity:1"
         d="M 0.0,0.0 L 5.0,-5.0 L -12.5,0.0 L 5.0,5.0 L 0.0,0.0 z "
         id="path7498" />
    </marker>
    <marker
       style="overflow:visible"
       id="Arrow1Mstart"
       refX="0.0"
       refY="0.0"
       orient="auto">
      <path
         transform="scale(0.4) translate(10,0)"
         style="fill-rule:evenodd;stroke:#000000;stroke-width:1pt;stroke-opacity:1;fill:#000000;fill-opacity:1"
         d="M 0.0,0.0 L 5.0,-5.0 L -12.5,0.0 L 5.0,5.0 L 0.0,0.0 z "
         id="path4501" />
    </marker>
    <marker
       style="overflow:visible"
       id="Arrow1Sstart"
       refX="0.0"
       refY="0.0"
       orient="auto">
      <path
         transform="scale(0.2) translate(6,0)"
         style="fill-rule:evenodd;stroke:#000000;stroke-width:1pt;stroke-opacity:1;fill:#000000;fill-opacity:1"
         d="M 0.0,0.0 L 5.0,-5.0 L -12.5,0.0 L 5.0,5.0 L 0.0,0.0 z "
         id="path4507" />
    </marker>
    <marker
       style="overflow:visible;"
       id="Arrow2Send"
       refX="0.0"
       refY="0.0"
       orient="auto">
      <path
         transform="scale(0.3) rotate(180) translate(-2.3,0)"
         d="M 8.7185878,4.0337352 L -2.2072895,0.016013256 L 8.7185884,-4.0017078 C 6.9730900,-1.6296469 6.9831476,1.6157441 8.7185878,4.0337352 z "
         style="fill-rule:evenodd;stroke-width:0.625;stroke-linejoin:round;stroke:#000000;stroke-opacity:1;fill:#000000;fill-opacity:1"
         id="path4528" />
    </marker>
    <marker
       style="overflow:visible;"
       id="marker6577"
       refX="0.0"
       refY="0.0"
       orient="auto">
      <path
         transform="scale(0.2) rotate(180) translate(6,0)"
         style="fill-rule:evenodd;stroke:#000000;stroke-width:1pt;stroke-opacity:1;fill:#000000;fill-opacity:1"
         d="M 0.0,0.0 L 5.0,-5.0 L -12.5,0.0 L 5.0,5.0 L 0.0,0.0 z "
         id="path6575" />
    </marker>
    <marker
       style="overflow:visible;"
       id="Arrow1Send"
       refX="0.0"
       refY="0.0"
       orient="auto">
      <path
         transform="scale(0.2) rotate(180) translate(6,0)"
         style="fill-rule:evenodd;stroke:#000000;stroke-width:1pt;stroke-opacity:1;fill:#000000;fill-opacity:1"
         d="M 0.0,0.0 L 5.0,-5.0 L -12.5,0.0 L 5.0,5.0 L 0.0,0.0 z "
         id="path4510" />
    </marker>
    <marker
       style="overflow:visible;"
       id="Arrow2Lend"
       refX="0.0"
       refY="0.0"
       orient="auto">
      <path
         transform="scale(1.1) rotate(180) translate(1,0)"
         d="M 8.7185878,4.0337352 L -2.2072895,0.016013256 L 8.7185884,-4.0017078 C 6.9730900,-1.6296469 6.9831476,1.6157441 8.7185878,4.0337352 z "
         style="fill-rule:evenodd;stroke-width:0.625;stroke-linejoin:round;stroke:#000000;stroke-opacity:1;fill:#000000;fill-opacity:1"
         id="path4516" />
    </marker>
    <marker
       style="overflow:visible;"
       id="Arrow1Mend"
       refX="0.0"
       refY="0.0"
       orient="auto">
      <path
         transform="scale(0.4) rotate(180) translate(10,0)"
         style="fill-rule:evenodd;stroke:#000000;stroke-width:1pt;stroke-opacity:1;fill:#000000;fill-opacity:1"
         d="M 0.0,0.0 L 5.0,-5.0 L -12.5,0.0 L 5.0,5.0 L 0.0,0.0 z "
         id="path4504" />
    </marker>
    <marker
       style="overflow:visible"
       id="Arrow2Mstart"
       refX="0.0"
       refY="0.0"
       orient="auto">
      <path
         transform="scale(0.6) translate(0,0)"
         d="M 8.7185878,4.0337352 L -2.2072895,0.016013256 L 8.7185884,-4.0017078 C 6.9730900,-1.6296469 6.9831476,1.6157441 8.7185878,4.0337352 z "
         style="fill-rule:evenodd;stroke-width:0.625;stroke-linejoin:round;stroke:#000000;stroke-opacity:1;fill:#000000;fill-opacity:1"
         id="path4519" />
    </marker>
    <marker
       style="overflow:visible"
       id="marker6115"
       refX="0.0"
       refY="0.0"
       orient="auto">
      <path
         transform="scale(1.1) translate(1,0)"
         d="M 8.7185878,4.0337352 L -2.2072895,0.016013256 L 8.7185884,-4.0017078 C 6.9730900,-1.6296469 6.9831476,1.6157441 8.7185878,4.0337352 z "
         style="fill-rule:evenodd;stroke-width:0.625;stroke-linejoin:round;stroke:#000000;stroke-opacity:1;fill:#000000;fill-opacity:1"
         id="path6113" />
    </marker>
    <marker
       style="overflow:visible"
       id="Arrow2Lstart"
       refX="0.0"
       refY="0.0"
       orient="auto">
      <path
         transform="scale(1.1) translate(1,0)"
         d="M 8.7185878,4.0337352 L -2.2072895,0.016013256 L 8.7185884,-4.0017078 C 6.9730900,-1.6296469 6.9831476,1.6157441 8.7185878,4.0337352 z "
         style="fill-rule:evenodd;stroke-width:0.625;stroke-linejoin:round;stroke:#000000;stroke-opacity:1;fill:#000000;fill-opacity:1"
         id="path4513" />
    </marker>
    <marker
       style="overflow:visible;"
       id="Arrow1Lend"
       refX="0.0"
       refY="0.0"
       orient="auto">
      <path
         transform="scale(0.8) rotate(180) translate(12.5,0)"
         style="fill-rule:evenodd;stroke:#000000;stroke-width:1pt;stroke-opacity:1;fill:#000000;fill-opacity:1"
         d="M 0.0,0.0 L 5.0,-5.0 L -12.5,0.0 L 5.0,5.0 L 0.0,0.0 z "
         id="path4498" />
    </marker>
    <linearGradient
       id="linearGradient5935">
      <stop
         id="stop5931"
         offset="0"
         style="stop-color:#53676c;stop-opacity:1" />
      <stop
         style="stop-color:#93a7ac;stop-opacity:1"
         offset="0.19511463"
         id="stop5941" />
      <stop
         style="stop-color:#f9f9f9;stop-opacity:1"
         offset="0.39643821"
         id="stop5939" />
      <stop
         id="stop5943"
         offset="0.81707996"
         style="stop-color:#93a7ac;stop-opacity:1" />
      <stop
         id="stop5933"
         offset="1"
         style="stop-color:#53676c;stop-opacity:1" />
    </linearGradient>
    <linearGradient
       id="linearGradient5888">
      <stop
         id="stop5884"
         offset="0"
         style="stop-color:#afc6e9;stop-opacity:1" />
      <stop
         style="stop-color:#779ed9;stop-opacity:1;"
         offset="0.18055281"
         id="stop5896" />
      <stop
         style="stop-color:#3771c8;stop-opacity:1"
         offset="0.60483581"
         id="stop5892" />
      <stop
         id="stop5886"
         offset="1"
         style="stop-color:#2c5aa0;stop-opacity:1" />
    </linearGradient>
    <radialGradient
       gradientUnits="userSpaceOnUse"
       gradientTransform="matrix(1.1162702,0.89322628,-0.82337472,0.96588403,30.043192,-96.129038)"
       r="43.078353"
       fy="141.79318"
       fx="75.403374"
       cy="141.79318"
       cx="75.403374"
       id="radialGradient5890"
       xlink:href="#linearGradient5888" />
    <radialGradient
       r="43.078353"
       fy="141.79318"
       fx="75.403374"
       cy="141.79318"
       cx="75.403374"
       gradientTransform="matrix(1.017073,0.83353998,-0.75020566,0.90134267,87.418524,-26.966793)"
       gradientUnits="userSpaceOnUse"
       id="radialGradient5900"
       xlink:href="#linearGradient5888" />
    <linearGradient
       gradientTransform="matrix(0.60837495,0.47993191,-0.7048548,0.40430491,53.337953,51.97553)"
       gradientUnits="userSpaceOnUse"
       y2="111.64858"
       x2="105.17056"
       y1="89.732483"
       x1="105.30419"
       id="linearGradient5937"
       xlink:href="#linearGradient5935" />
    <radialGradient
       r="43.078353"
       fy="141.79318"
       fx="75.403374"
       cy="141.79318"
       cx="75.403374"
       gradientTransform="matrix(1.017073,0.83353998,-0.75020566,0.90134267,200.77609,-29.361881)"
       gradientUnits="userSpaceOnUse"
       id="radialGradient7066"
       xlink:href="#linearGradient5888" />
    <linearGradient
       y2="111.64858"
       x2="105.17056"
       y1="89.732483"
       x1="105.30419"
       gradientTransform="matrix(-0.16079632,0.55830679,-0.47537576,-0.19778978,273.91074,87.973722)"
       gradientUnits="userSpaceOnUse"
       id="linearGradient7070"
       xlink:href="#linearGradient5935" />
    <radialGradient
       r="43.078353"
       fy="141.79318"
       fx="75.403374"
       cy="141.79318"
       cx="75.403374"
       gradientTransform="matrix(0.92889777,0.8434877,-0.68516652,0.91209956,227.76336,-118.64835)"
       gradientUnits="userSpaceOnUse"
       id="radialGradient7679"
       xlink:href="#linearGradient5888" />
    <linearGradient
       y2="111.64858"
       x2="105.17056"
       y1="89.732483"
       x1="105.30419"
       gradientTransform="matrix(0.72681953,0.02843776,-0.05231175,0.88974818,62.838389,81.812057)"
       gradientUnits="userSpaceOnUse"
       id="linearGradient7683"
       xlink:href="#linearGradient5935" />
  </defs>
  <metadata
     id="metadata5315">
    <rdf:RDF>
      <cc:Work
         rdf:about="">
        <dc:format>image/svg+xml</dc:format>
        <dc:type
           rdf:resource="http://purl.org/dc/dcmitype/StillImage" />
        <dc:title></dc:title>
      </cc:Work>
    </rdf:RDF>
  </metadata>
  <g
     id="layer1">
    <ellipse
       ry="32.049412"
       rx="31.854864"
       cy="86.067467"
       cx="219.68623"
       id="ellipse7677"
       style="fill:url(#radialGradient7679);fill-opacity:1;stroke:#0000ff;stroke-width:0;stroke-linejoin:bevel;stroke-miterlimit:4;stroke-dasharray:none;stroke-dashoffset:0;stroke-opacity:1" />
    <ellipse
       style="fill:url(#radialGradient7066);fill-opacity:1;stroke:#0000ff;stroke-width:0;stroke-linejoin:bevel;stroke-miterlimit:4;stroke-dasharray:none;stroke-dashoffset:0;stroke-opacity:1"
       id="ellipse7064"
       cx="191.93221"
       cy="172.93961"
       rx="34.878674"
       ry="31.671436" />
    <path
       style="opacity:1;fill:url(#linearGradient7070);fill-opacity:1;fill-rule:evenodd;stroke:#000000;stroke-width:0;stroke-linecap:butt;stroke-linejoin:miter;stroke-miterlimit:4;stroke-dasharray:none;stroke-opacity:1"
       d="m 220.69911,107.12937 c 0,0 -3.77713,-0.64069 -5.58012,-1.3574 -1.75171,-0.69633 -4.90457,-2.77292 -4.90457,-2.77292 l -12.41325,43.10052 c 0,0 3.97192,1.09408 5.8915,1.97927 1.56229,0.7204 4.46348,2.54291 4.46348,2.54291 z"
       id="path7068" />
    <path
       style="opacity:1;fill:url(#linearGradient7683);fill-opacity:1;fill-rule:evenodd;stroke:#000000;stroke-width:0;stroke-linecap:butt;stroke-linejoin:miter;stroke-miterlimit:4;stroke-dasharray:none;stroke-opacity:1"
       d="m 106.15839,163.40673 c 0,0 0.69285,6.66382 0.53427,10.0238 -0.15406,3.26447 -1.41171,9.49896 -1.41171,9.49896 l 56.10946,2.19535 c 0,0 -0.228,-7.19069 0.0862,-10.82125 0.25569,-2.95474 1.30783,-8.65307 1.30783,-8.65307 z"
       id="path7681" />
    <ellipse
       style="fill:url(#radialGradient5900);fill-opacity:1;stroke:#0000ff;stroke-width:0;stroke-linejoin:bevel;stroke-miterlimit:4;stroke-dasharray:none;stroke-dashoffset:0;stroke-opacity:1"
       id="ellipse5898"
       cx="78.574654"
       cy="175.3347"
       rx="34.878674"
       ry="31.671436" />
    <path
       id="path5929"
       d="m 30.370496,119.89868 c 0,0 -4.339703,3.72341 -6.967718,5.27517 -2.553309,1.50768 -8.26397,3.76939 -8.26397,3.76939 l 46.965706,37.05009 c 0,0 5.132847,-3.68467 8.09624,-5.26979 2.411732,-1.29011 4.130891,-7.66211 4.130891,-7.66211 z"
       style="opacity:1;fill:url(#linearGradient5937);fill-opacity:1;fill-rule:evenodd;stroke:#000000;stroke-width:0;stroke-linecap:butt;stroke-linejoin:miter;stroke-miterlimit:4;stroke-dasharray:none;stroke-opacity:1" />
    <ellipse
       ry="33.939293"
       rx="38.28046"
       cy="120.65841"
       cx="20.336765"
       id="path5882"
       style="fill:url(#radialGradient5890);fill-opacity:1;stroke:#0000ff;stroke-width:0;stroke-linejoin:bevel;stroke-miterlimit:4;stroke-dasharray:none;stroke-dashoffset:0;stroke-opacity:1" />
    <g
       transform="translate(0,8.6934524)"
       id="g7698">
      <path
         style="fill:#000000;fill-rule:evenodd;stroke:#000000;stroke-width:0.23821954px;stroke-linecap:butt;stroke-linejoin:miter;stroke-opacity:1"
         d="m 137.37455,200.25904 -9.14355,-0.28973 4.77595,-17.72693 z"
         id="path7652" />
      <path
         id="path7656"
         d="m 124.51066,136.54609 10.54886,1.38892 -5.97663,15.28503 z"
         style="fill:#000000;fill-rule:evenodd;stroke:#000000;stroke-width:0.24260212px;stroke-linecap:butt;stroke-linejoin:miter;stroke-opacity:1" />
      <path
         style="fill:none;fill-rule:evenodd;stroke:#000000;stroke-width:4.04238749;stroke-linecap:butt;stroke-linejoin:miter;stroke-miterlimit:4;stroke-dasharray:none;stroke-opacity:1"
         d="m 130.42467,140.24932 c 4.98879,-41.336237 12.80473,-61.918193 17.69925,-45.336503 7.09914,24.050443 7.07971,62.004323 7.07971,62.004323 0,0 1.6051,62.24331 -9.01054,76.67204 -2.63937,3.58743 -6.41959,3.5623 -9.33233,-3.33357 -2.91274,-6.89587 -4.82707,-38.66938 -4.82707,-38.66938"
         id="path7685" />
    </g>
  </g>
</svg>
