<?xml version="1.0" encoding="UTF-8" standalone="no"?>
<!-- Created with Inkscape (http://www.inkscape.org/) -->

<svg
   xmlns:dc="http://purl.org/dc/elements/1.1/"
   xmlns:cc="http://creativecommons.org/ns#"
   xmlns:rdf="http://www.w3.org/1999/02/22-rdf-syntax-ns#"
   xmlns:svg="http://www.w3.org/2000/svg"
   xmlns="http://www.w3.org/2000/svg"
   xmlns:sodipodi="http://sodipodi.sourceforge.net/DTD/sodipodi-0.dtd"
   xmlns:inkscape="http://www.inkscape.org/namespaces/inkscape"
   version="1.1"
   id="svg14559"
   xml:space="preserve"
   width="658.58893"
   height="806.07129"
   viewBox="0 0 658.58893 806.07129"
   sodipodi:docname="rayon_Born.svg"
   inkscape:version="0.92.1 r15371"><metadata
     id="metadata14565"><rdf:RDF><cc:Work
         rdf:about=""><dc:format>image/svg+xml</dc:format><dc:type
           rdf:resource="http://purl.org/dc/dcmitype/StillImage" /><dc:title></dc:title></cc:Work></rdf:RDF></metadata><defs
     id="defs14563" /><sodipodi:namedview
     pagecolor="#ffffff"
     bordercolor="#666666"
     borderopacity="1"
     objecttolerance="10"
     gridtolerance="10"
     guidetolerance="10"
     inkscape:pageopacity="0"
     inkscape:pageshadow="2"
     inkscape:window-width="950"
     inkscape:window-height="755"
     id="namedview14561"
     showgrid="false"
     inkscape:zoom="0.65303235"
     inkscape:cx="329.29446"
     inkscape:cy="403.03564"
     inkscape:window-x="0"
     inkscape:window-y="0"
     inkscape:window-maximized="0"
     inkscape:current-layer="g14567" /><g
     id="g14567"
     inkscape:groupmode="layer"
     inkscape:label="rayon_Born"
     transform="matrix(1.3333333,0,0,-1.3333333,0,806.07129)"><g
       transform="matrix(1,0,0,-1,0,604.55347)"
       id="g14571"><path
         inkscape:connector-curvature="0"
         id="path14573"
         style="fill:#00ffff;fill-opacity:1;fill-rule:nonzero;stroke:#00ffff;stroke-width:2.25;stroke-linecap:butt;stroke-linejoin:bevel;stroke-miterlimit:4;stroke-dasharray:none;stroke-opacity:1"
         d="M 1.125,1.125 H 492.816 V 603.43 H 1.125 Z" /></g><g
       id="g14665"
       transform="translate(-8.0394182,33.306161)"><g
         id="g14575"
         transform="matrix(1,0,0,-1,0,604.55347)"><path
           d="m 309.543,68.543 c -25.035,-16.914 -61.086,1.945 -90,10.715 -45.242,13.719 -98.469,26.16 -126.426,64.285 -17.988,24.523 -16.426,59.617 -15,90 1.176,25.094 8.903,49.98 19.285,72.855 15.309,33.735 53.782,56.055 62.141,92.145 5.859,25.289 -4.652,51.898 -10.715,77.141 -4.586,19.113 -26.527,37.449 -19.285,55.718 18.727,47.219 84.203,70.41 135,70.711 45.68,0.274 94.805,-25.547 122.145,-62.14 23.476,-31.426 25.769,-76.731 21.429,-115.715 -4.215,-37.844 -31.222,-69.504 -45,-105 -11.773,-30.324 -26.711,-60.07 -32.144,-92.145 -4.414,-26.054 3.476,-53.086 0,-79.285 -3.602,-27.14 1.257,-63.961 -21.43,-79.285 z"
           style="fill:#b3b3b3;fill-opacity:1;fill-rule:evenodd;stroke:#000000;stroke-width:0.75;stroke-linecap:butt;stroke-linejoin:miter;stroke-miterlimit:4;stroke-dasharray:none;stroke-opacity:1"
           id="path14577"
           inkscape:connector-curvature="0" /></g><g
         id="g14579"
         transform="matrix(1,0,0,-1,0,604.55347)"><path
           d="m 407.207,415.918 c 0,11.926 -10.008,21.594 -22.352,21.594 -12.343,0 -22.347,-9.668 -22.347,-21.594 0,-11.926 10.004,-21.59 22.347,-21.59 12.344,0 22.352,9.664 22.352,21.59 z"
           style="fill:#b3b3b3;fill-opacity:1;fill-rule:nonzero;stroke:#ff0000;stroke-width:2.25;stroke-linecap:butt;stroke-linejoin:bevel;stroke-miterlimit:4;stroke-dasharray:none;stroke-opacity:1"
           id="path14581"
           inkscape:connector-curvature="0" /></g><g
         id="g14583"
         transform="matrix(1,0,0,-1,0,604.55347)"><path
           d="m 322.457,194.316 c 0,57.379 -50.926,103.899 -113.746,103.899 -62.82,0 -113.746,-46.52 -113.746,-103.899 0,-57.378 50.926,-103.894 113.746,-103.894 62.82,0 113.746,46.516 113.746,103.894 z"
           style="fill:#b3b3b3;fill-opacity:1;fill-rule:nonzero;stroke:#ff0000;stroke-width:3.40157509;stroke-linecap:butt;stroke-linejoin:bevel;stroke-miterlimit:4;stroke-dasharray:none;stroke-opacity:1"
           id="path14585"
           inkscape:connector-curvature="0" /></g><g
         id="g14587"
         transform="matrix(1,0,0,-1,0,604.55347)"><path
           d="m 207.195,198.484 c 0,2.719 -1.863,4.922 -4.168,4.922 -2.3,0 -4.164,-2.203 -4.164,-4.922 0,-2.718 1.864,-4.925 4.164,-4.925 2.305,0 4.168,2.207 4.168,4.925 z"
           style="fill:#ff0000;fill-opacity:1;fill-rule:nonzero;stroke:#ff0000;stroke-width:2.25;stroke-linecap:butt;stroke-linejoin:bevel;stroke-miterlimit:4;stroke-dasharray:none;stroke-opacity:1"
           id="path14589"
           inkscape:connector-curvature="0" /></g><g
         id="g14591"
         transform="matrix(1,0,0,-1,0,604.55347)"><path
           d="m 388.266,415.918 c 0,2.719 -1.864,4.926 -4.168,4.926 -2.301,0 -4.164,-2.207 -4.164,-4.926 0,-2.719 1.863,-4.922 4.164,-4.922 2.304,0 4.168,2.203 4.168,4.922 z"
           style="fill:#ff0000;fill-opacity:1;fill-rule:nonzero;stroke:#ff0000;stroke-width:2.25;stroke-linecap:butt;stroke-linejoin:bevel;stroke-miterlimit:4;stroke-dasharray:none;stroke-opacity:1"
           id="path14593"
           inkscape:connector-curvature="0" /></g><g
         id="g14595"
         transform="matrix(1,0,0,-1,0,604.55347)"><path
           d="m 158.707,99.613 c 43.945,100.766 43.945,100.766 43.945,100.766 z"
           style="fill:none;stroke:#000000;stroke-width:1.88503897;stroke-linecap:butt;stroke-linejoin:miter;stroke-miterlimit:4;stroke-dasharray:15.080315, 7.540158;stroke-dashoffset:0;stroke-opacity:1"
           id="path14597"
           inkscape:connector-curvature="0" /></g><g
         id="g14599"
         transform="matrix(1,0,0,-1,0,604.55347)"><path
           d="m 383.719,416.297 21.972,-7.574"
           style="fill:none;stroke:#000000;stroke-width:1.31810999;stroke-linecap:butt;stroke-linejoin:miter;stroke-miterlimit:4;stroke-dasharray:7.908662, 2.636221;stroke-dashoffset:0;stroke-opacity:1"
           id="path14601"
           inkscape:connector-curvature="0" /></g><text
         y="-410.65375"
         x="232.58656"
         transform="scale(0.92438315,-1.0818025)"
         style="font-variant:normal;font-weight:normal;font-size:31.54592133px;font-family:'DejaVu Sans';-inkscape-font-specification:DejaVuSans;writing-mode:lr-tb;fill:#000000;fill-opacity:1;fill-rule:nonzero;stroke:none;stroke-width:0.92438316"
         id="text14605"><tspan
           style="stroke-width:0.92438316"
           x="232.58656"
           y="-410.65375"
           id="tspan14603">b</tspan></text>
<text
         y="-597.27954"
         x="-176.62238"
         transform="scale(-1.3723055,-0.72870071)"
         style="font-variant:normal;font-weight:normal;font-size:26.15539932px;font-family:'DejaVu Sans';-inkscape-font-specification:DejaVuSans;writing-mode:lr-tb;fill:#000000;fill-opacity:1;fill-rule:nonzero;stroke:none;stroke-width:0.7287007"
         id="text14609"><tspan
           style="stroke-width:0.7287007"
           x="-176.62238"
           y="-597.27954"
           id="tspan14607">i</tspan></text>
<text
         y="-192.69502"
         x="426.7327"
         transform="scale(0.94090026,-1.0628119)"
         style="font-variant:normal;font-weight:normal;font-size:29.34638405px;font-family:'DejaVu Sans';-inkscape-font-specification:DejaVuSans;writing-mode:lr-tb;fill:#000000;fill-opacity:1;fill-rule:nonzero;stroke:none;stroke-width:0.94090027"
         id="text14613"><tspan
           style="stroke-width:0.94090027"
           x="426.7327"
           y="-192.69502"
           id="tspan14611">b</tspan></text>
<text
         y="-259.8179"
         x="319.54565"
         transform="scale(1.3073101,-0.76492945)"
         style="font-variant:normal;font-weight:normal;font-size:27.73036766px;font-family:'DejaVu Sans';-inkscape-font-specification:DejaVuSans;writing-mode:lr-tb;fill:#000000;fill-opacity:1;fill-rule:nonzero;stroke:none;stroke-width:0.76492947"
         id="text14617"><tspan
           style="stroke-width:0.76492947"
           x="319.54565"
           y="-259.8179"
           id="tspan14615">j</tspan></text>
</g></g></svg>