<?xml version="1.0" encoding="UTF-8" standalone="no"?>
<!-- Created with Inkscape (http://www.inkscape.org/) -->

<svg
   xmlns:dc="http://purl.org/dc/elements/1.1/"
   xmlns:cc="http://creativecommons.org/ns#"
   xmlns:rdf="http://www.w3.org/1999/02/22-rdf-syntax-ns#"
   xmlns:svg="http://www.w3.org/2000/svg"
   xmlns="http://www.w3.org/2000/svg"
   xmlns:sodipodi="http://sodipodi.sourceforge.net/DTD/sodipodi-0.dtd"
   xmlns:inkscape="http://www.inkscape.org/namespaces/inkscape"
   width="330.14957mm"
   height="108.79858mm"
   viewBox="0 0 330.14957 108.79858"
   version="1.1"
   id="svg8"
   inkscape:version="0.92.1 r15371"
   sodipodi:docname="surface.svg"
   inkscape:export-filename="/home/david/Thèse/These/redaction/CPD/figure/surface.png"
   inkscape:export-xdpi="100"
   inkscape:export-ydpi="100">
  <defs
     id="defs2" />
  <sodipodi:namedview
     id="base"
     pagecolor="#ffffff"
     bordercolor="#666666"
     borderopacity="1.0"
     inkscape:pageopacity="0.0"
     inkscape:pageshadow="2"
     inkscape:zoom="0.49497475"
     inkscape:cx="-44.351967"
     inkscape:cy="109.17534"
     inkscape:document-units="mm"
     inkscape:current-layer="layer1"
     showgrid="false"
     inkscape:window-width="1920"
     inkscape:window-height="1016"
     inkscape:window-x="0"
     inkscape:window-y="0"
     inkscape:window-maximized="1"
     showguides="true"
     inkscape:guide-bbox="true">
    <sodipodi:guide
       position="21.300018,94.682093"
       orientation="1,0"
       id="guide5049"
       inkscape:locked="false" />
  </sodipodi:namedview>
  <metadata
     id="metadata5">
    <rdf:RDF>
      <cc:Work
         rdf:about="">
        <dc:format>image/svg+xml</dc:format>
        <dc:type
           rdf:resource="http://purl.org/dc/dcmitype/StillImage" />
        <dc:title></dc:title>
      </cc:Work>
    </rdf:RDF>
  </metadata>
  <g
     inkscape:label="Calque 1"
     inkscape:groupmode="layer"
     id="layer1"
     transform="translate(22.797015,-69.828309)">
    <g
       id="g6096">
      <path
         inkscape:connector-curvature="0"
         id="ellipse4515"
         d="m 235.45021,86.953049 a 13.30751,11.837529 0 0 0 -13.30771,11.83752 13.30751,11.837529 0 0 0 1.85931,6.008931 20.149643,19.214201 0 0 0 -7.36492,14.83785 20.149643,19.214201 0 0 0 4.97592,12.62146 13.30751,11.837529 0 0 0 -3.2122,7.69152 13.30751,11.837529 0 0 0 13.30771,11.83752 13.30751,11.837529 0 0 0 4.11241,-0.58756 26.603989,25.267641 0 0 0 24.88634,16.42277 26.603989,25.267641 0 0 0 26.52964,-23.41821 16.589813,16.322544 0 0 0 3.13728,0.30799 16.589813,16.322544 0 0 0 16.58968,-16.32252 16.589813,16.322544 0 0 0 -16.58968,-16.32252 16.589813,16.322544 0 0 0 -15.01149,9.41648 26.603989,25.267641 0 0 0 -14.65543,-4.19664 26.603989,25.267641 0 0 0 -3.92276,0.30851 20.149643,19.214201 0 0 0 -9.12348,-13.93352 13.30751,11.837529 0 0 0 1.09658,-4.672061 13.30751,11.837529 0 0 0 -13.3072,-11.83752 z"
         style="fill:#ffffff;fill-opacity:0.47474748;stroke:#00ff00;stroke-width:0.7777766" />
      <rect
         y="146.85605"
         x="231.56953"
         height="7.8784409"
         width="6.2129836"
         id="rect5147"
         style="fill:#ffffff;fill-opacity:0.99494952;stroke:#fffff6;stroke-width:0.76499999;stroke-miterlimit:4;stroke-dasharray:none;stroke-opacity:1" />
      <path
         sodipodi:open="true"
         d="m 229.94757,151.67267 a 9.5287495,8.1355467 0 0 1 8.34562,4.20926"
         sodipodi:end="5.7795543"
         sodipodi:start="4.712389"
         sodipodi:ry="8.1355467"
         sodipodi:rx="9.5287495"
         sodipodi:cy="159.80821"
         sodipodi:cx="229.94757"
         sodipodi:type="arc"
         style="fill:#ffffff;fill-opacity:0.54040402;stroke:#008080;stroke-width:0.72749949;stroke-miterlimit:4;stroke-dasharray:none"
         id="ellipse4580" />
      <rect
         style="fill:#ffffff;fill-opacity:0.99494952;stroke:#fffff6;stroke-width:0.92205745;stroke-miterlimit:4;stroke-dasharray:none;stroke-opacity:1"
         id="rect5149"
         width="7.6623249"
         height="9.2805347"
         x="286.26562"
         y="141.69016" />
      <path
         sodipodi:open="true"
         d="m 285.5897,151.34053 a 9.1831388,8.4463501 0 0 1 9.20543,-7.32224"
         sodipodi:end="4.7237039"
         sodipodi:start="3.2750123"
         sodipodi:ry="8.4463501"
         sodipodi:rx="9.1831388"
         sodipodi:cy="152.4641"
         sodipodi:cx="294.69122"
         sodipodi:type="arc"
         id="ellipse4588"
         style="fill:#ffffff;fill-opacity:0.54040402;stroke:#008080;stroke-width:0.7276985;stroke-miterlimit:4;stroke-dasharray:none" />
      <rect
         y="114.05065"
         x="270.29614"
         height="9.2805347"
         width="7.6623249"
         id="rect5151"
         style="fill:#ffffff;fill-opacity:0.99494952;stroke:#fffff6;stroke-width:0.92205745;stroke-miterlimit:4;stroke-dasharray:none;stroke-opacity:1" />
      <path
         sodipodi:open="true"
         d="m 278.84737,116.46618 a 9.2407331,9.3678646 0 0 1 -10.59484,1.54285"
         sodipodi:end="2.0458141"
         sodipodi:start="0.81043632"
         sodipodi:ry="9.3678646"
         sodipodi:rx="9.2407331"
         sodipodi:cy="109.67834"
         sodipodi:cx="272.47882"
         sodipodi:type="arc"
         style="fill:#ffffff;fill-opacity:0.54040402;stroke:#008080;stroke-width:0.76876724;stroke-miterlimit:4;stroke-dasharray:none"
         id="ellipse4596" />
      <rect
         style="fill:#ffffff;fill-opacity:0.99494952;stroke:#fffff6;stroke-width:0.87307751;stroke-miterlimit:4;stroke-dasharray:none;stroke-opacity:1"
         id="rect5153"
         width="7.4384909"
         height="8.5711346"
         x="254.83542"
         y="111.56796" />
      <path
         sodipodi:open="true"
         d="m 262.72464,117.0124 a 9.4494047,9.0714283 0 0 1 -7.883,-6.16004"
         sodipodi:end="2.8218784"
         sodipodi:start="1.6861441"
         sodipodi:ry="9.0714283"
         sodipodi:rx="9.4494047"
         sodipodi:cy="108.00125"
         sodipodi:cx="263.81219"
         sodipodi:type="arc"
         id="ellipse4604"
         style="fill:#ffffff;fill-opacity:0.54040402;stroke:#008080;stroke-width:0.76499999;stroke-miterlimit:4;stroke-dasharray:none" />
      <rect
         style="fill:#ffffff;fill-opacity:0.99494952;stroke:#fffff6;stroke-width:0.87196231;stroke-miterlimit:4;stroke-dasharray:none;stroke-opacity:1"
         id="rect5143"
         width="6.9564681"
         height="9.1416416"
         x="244.23798"
         y="98.528587" />
      <path
         sodipodi:open="true"
         d="m 252.02596,106.76819 a 8.3736782,8.8147984 0 0 1 -3.15073,-8.640736"
         sodipodi:end="3.3277969"
         sodipodi:start="2.2223821"
         sodipodi:ry="8.8147984"
         sodipodi:rx="8.3736782"
         sodipodi:cy="99.759338"
         sodipodi:cx="257.10416"
         sodipodi:type="arc"
         style="fill:#ffffff;fill-opacity:0.54040402;stroke:#008080;stroke-width:0.70988125;stroke-miterlimit:4;stroke-dasharray:none"
         id="ellipse4612" />
      <rect
         y="99.892517"
         x="219.4743"
         height="7.8784409"
         width="6.2129836"
         id="rect5141"
         style="fill:#ffffff;fill-opacity:0.99494952;stroke:#fffff6;stroke-width:0.76499999;stroke-miterlimit:4;stroke-dasharray:none;stroke-opacity:1" />
      <path
         d="m 222.16232,99.360321 a 8.145299,9.6507912 0 0 1 -1.62968,9.094519"
         sodipodi:open="true"
         sodipodi:end="0.71178102"
         sodipodi:start="5.9898183"
         sodipodi:ry="9.6507912"
         sodipodi:rx="8.145299"
         sodipodi:cy="102.15111"
         sodipodi:cx="214.36502"
         sodipodi:type="arc"
         id="ellipse4620"
         style="fill:#ffffff;fill-opacity:0.54040402;stroke:#008080;stroke-width:0.787;stroke-miterlimit:4;stroke-dasharray:none" />
      <rect
         style="fill:#ffffff;fill-opacity:0.99494952;stroke:#fffff6;stroke-width:0.76499999;stroke-miterlimit:4;stroke-dasharray:none;stroke-opacity:1"
         id="rect5145"
         width="6.2129836"
         height="7.8784409"
         x="219.66328"
         y="127.39028" />
      <path
         d="m 218.54591,127.60132 a 9.4494047,9.0714283 0 0 1 0.64862,8.34076"
         sodipodi:open="true"
         sodipodi:end="0.40461239"
         sodipodi:start="5.7295401"
         sodipodi:ry="9.0714283"
         sodipodi:rx="9.4494047"
         sodipodi:cy="132.371"
         sodipodi:cx="210.50812"
         sodipodi:type="arc"
         style="fill:#ffffff;fill-opacity:0.54040402;stroke:#008080;stroke-width:0.76499999;stroke-miterlimit:4;stroke-dasharray:none"
         id="ellipse4628" />
      <ellipse
         ry="9.0714283"
         rx="9.4494047"
         cy="153.3647"
         cx="294.92172"
         id="ellipse4690"
         style="fill:#008080;fill-opacity:0.54040402;stroke:#008080;stroke-width:0.26458332" />
      <path
         d="m 188.41716,127.89291 a 17.339109,4.1092691 0 0 1 -0.21603,0.006"
         sodipodi:open="true"
         sodipodi:end="1.4659713"
         sodipodi:start="1.4534352"
         sodipodi:ry="4.1092691"
         sodipodi:rx="17.339109"
         sodipodi:cy="123.81191"
         sodipodi:cx="186.38689"
         sodipodi:type="arc"
         id="path4835"
         style="fill:#ffffff;fill-opacity:0;stroke:#0000ff;stroke-width:0.26499999;stroke-miterlimit:4;stroke-dasharray:none" />
      <g
         transform="translate(-0.1889881)"
         id="g5948">
        <ellipse
           id="ellipse4515-6"
           cx="-260.85281"
           cy="142.84163"
           style="fill:#cccccc;fill-opacity:0.47474748;stroke:#cccccc;stroke-width:0.054;stroke-miterlimit:4;stroke-dasharray:none"
           rx="25.339626"
           ry="24.923904"
           transform="scale(-1,1)" />
        <ellipse
           ry="16.100494"
           rx="15.801378"
           style="fill:#cccccc;fill-opacity:0.54040402;stroke:#808080;stroke-width:0;stroke-miterlimit:4;stroke-dasharray:none"
           cy="128.06725"
           cx="-290.44617"
           id="ellipse4517"
           transform="scale(-1,1)" />
        <ellipse
           id="ellipse4519"
           cx="-237.06676"
           cy="119.36372"
           style="fill:#cccccc;fill-opacity:0.54040402;stroke:#808080;stroke-width:0;stroke-miterlimit:4;stroke-dasharray:none"
           rx="19.927017"
           ry="18.952814"
           transform="scale(-1,1)" />
        <ellipse
           ry="11.676494"
           rx="12.675067"
           style="fill:#cccccc;fill-opacity:0.54040402;stroke:#808080;stroke-width:0;stroke-miterlimit:4;stroke-dasharray:none"
           cy="98.800285"
           cx="-235.45982"
           id="ellipse4521"
           transform="scale(-1,1)" />
        <ellipse
           id="ellipse4523"
           cx="-231.36134"
           cy="139.80077"
           style="fill:#cccccc;fill-opacity:0.54040402;stroke:#808080;stroke-width:0;stroke-miterlimit:4;stroke-dasharray:none"
           rx="12.675067"
           ry="11.676494"
           transform="scale(-1,1)" />
      </g>
      <ellipse
         ry="0.13981284"
         rx="0.13500479"
         cy="125.15606"
         cx="9.1700258"
         id="path4566"
         style="fill:#008080;fill-opacity:0.54040402;stroke:#008080;stroke-width:0.25645718" />
      <ellipse
         ry="0.13981284"
         rx="0.13500479"
         cy="102.40195"
         cx="57.318012"
         id="circle4600"
         style="fill:#008080;fill-opacity:0.54040402;stroke:#008080;stroke-width:0.25645718" />
      <ellipse
         ry="0.13981284"
         rx="0.13500479"
         cy="71.573692"
         cx="27.513914"
         id="circle4670"
         style="fill:#008080;fill-opacity:0.54040402;stroke:#008080;stroke-width:0.25645718" />
      <ellipse
         ry="0.13981284"
         rx="0.13500479"
         style="fill:#008080;fill-opacity:0.54040402;stroke:#008080;stroke-width:0.25645718"
         id="circle4694"
         cx="53.884846"
         cy="168.69702" />
      <path
         d="m -22.587943,120.60431 a 16.515064,4.0533671 0 0 1 -0.205756,0.006"
         sodipodi:open="true"
         sodipodi:end="1.4659713"
         sodipodi:start="1.4534352"
         sodipodi:ry="4.0533671"
         sodipodi:rx="16.515064"
         sodipodi:cy="116.57883"
         sodipodi:cx="-24.521723"
         sodipodi:type="arc"
         id="path4835-6"
         style="fill:#ffffff;fill-opacity:0;stroke:#0000ff;stroke-width:0.25686106;stroke-miterlimit:4;stroke-dasharray:none" />
      <path
         d="m 56.741909,103.53783 a 0.43732882,1.6546265 0 0 1 0.587934,-0.70153 0.43732882,1.6546265 0 0 1 0.189205,2.21987 0.43732882,1.6546265 0 0 1 -0.585494,0.73016 0.43732882,1.6546265 0 0 1 -0.196756,-2.21045"
         sodipodi:open="true"
         sodipodi:end="3.5989213"
         sodipodi:start="3.6247172"
         sodipodi:ry="1.6546265"
         sodipodi:rx="0.43732882"
         sodipodi:cy="104.30648"
         sodipodi:cx="57.129185"
         sodipodi:type="arc"
         id="path5009"
         style="fill:#ffffff;fill-opacity:0;stroke:#ffffff;stroke-width:1.15241027;stroke-miterlimit:4;stroke-dasharray:none" />
      <path
         inkscape:connector-curvature="0"
         id="ellipse3682"
         d="m 23.365368,79.864174 a 13.30751,11.837529 0 0 1 13.30772,11.837516 13.30751,11.837529 0 0 1 -1.09709,4.67155 20.149643,19.214201 0 0 1 9.123469,13.93352 26.603989,25.267641 0 0 1 3.922758,-0.30799 26.603989,25.267641 0 0 1 14.655954,4.19664 16.589813,16.322544 0 0 1 15.01097,-9.417 16.589813,16.322544 0 0 1 16.5902,16.32252 16.589813,16.322544 0 0 1 -16.5902,16.32252 16.589813,16.322544 0 0 1 -3.13728,-0.30747 26.603989,25.267641 0 0 1 -26.529644,23.41821 26.603989,25.267641 0 0 1 -24.886337,-16.42277 13.30751,11.837529 0 0 1 -4.11241,0.58704 13.30751,11.837529 0 0 1 -13.3071895,-11.83752 13.30751,11.837529 0 0 1 3.21169,-7.69101 20.149643,19.214201 0 0 1 -4.97593,-12.62145 20.149643,19.214201 0 0 1 7.3649295,-14.83785 13.30751,11.837529 0 0 1 -1.8588,-6.00894 13.30751,11.837529 0 0 1 13.30719,-11.837516 z"
         style="fill:#ffffff;fill-opacity:0.47474748;stroke:#ff0000;stroke-width:0.7777766" />
      <circle
         r="0.14174107"
         cy="133.51874"
         cx="117.04462"
         id="path4566-3"
         style="fill:#008080;fill-opacity:0.54040402;stroke:#008080;stroke-width:0.26458332" />
      <circle
         r="0.14174107"
         cy="110.45082"
         cx="167.59503"
         id="circle4600-1"
         style="fill:#008080;fill-opacity:0.54040402;stroke:#008080;stroke-width:0.26458332" />
      <g
         transform="translate(118.95553,-20.346349)"
         id="g4606">
        <ellipse
           style="fill:#008080;fill-opacity:0.54040402;stroke:#008080;stroke-width:0.26458332"
           id="ellipse4604-9"
           cx="34.765102"
           cy="121.01009"
           rx="9.4494047"
           ry="9.0714283" />
      </g>
      <g
         transform="translate(101.56233,-41.978065)"
         id="g4668">
        <ellipse
           ry="9.0714283"
           rx="9.4494047"
           cy="121.01009"
           cx="34.765102"
           id="ellipse4666"
           style="fill:#008080;fill-opacity:0.54040402;stroke:#008080;stroke-width:0.26458332" />
      </g>
      <circle
         r="0.14174107"
         cy="79.197403"
         cx="136.3038"
         id="circle4670-4"
         style="fill:#008080;fill-opacity:0.54040402;stroke:#008080;stroke-width:0.26458332" />
      <g
         transform="translate(156.46337,-17.031636)"
         id="g4676">
        <ellipse
           style="fill:#008080;fill-opacity:0.54040402;stroke:#008080;stroke-width:0.26458332"
           id="ellipse4674"
           cx="34.765102"
           cy="121.01009"
           rx="9.4494047"
           ry="9.0714283" />
      </g>
      <circle
         style="fill:#008080;fill-opacity:0.54040402;stroke:#008080;stroke-width:0.26458332"
         id="circle4694-7"
         cx="163.99055"
         cy="177.6602"
         r="0.14174107" />
      <path
         d="m 83.702037,128.90422 a 17.339109,4.1092691 0 0 1 -0.216023,0.006"
         sodipodi:open="true"
         sodipodi:end="1.4659713"
         sodipodi:start="1.4534352"
         sodipodi:ry="4.1092691"
         sodipodi:rx="17.339109"
         sodipodi:cy="124.82322"
         sodipodi:cx="81.671768"
         sodipodi:type="arc"
         id="path4835-8"
         style="fill:#ffffff;fill-opacity:0;stroke:#0000ff;stroke-width:0.26499999;stroke-miterlimit:4;stroke-dasharray:none" />
      <path
         inkscape:connector-curvature="0"
         id="path4851"
         d="m 131.24381,78.215584 a 23.376337,22.333816 0 0 0 -20.9889,11.956893 l -0.27337,0.513663 a 23.376337,22.333816 0 0 0 -2.17403,12.81679 30.655736,28.526412 0 0 0 -1.96732,2.97501 l -0.35812,0.65629 a 30.655736,28.526412 0 0 0 0.36329,25.79842 20.697799,20.364956 0 0 0 9.56789,26.65006 20.697799,20.364956 0 0 0 9.59476,2.13526 37.179829,35.145458 0 0 0 14.73502,12.64316 37.179829,35.145458 0 0 0 49.77629,-15.50913 37.179829,35.145458 0 0 0 2.05982,-4.70566 25.62474,26.046745 0 0 0 17.59376,-13.68547 25.62474,26.046745 0 0 0 -11.08614,-34.94463 25.62474,26.046745 0 0 0 -28.02258,3.01636 25.62474,26.046745 0 0 0 -1.37408,1.26969 37.179829,35.145458 0 0 0 -7.76077,-1.73788 30.655736,28.526412 0 0 0 -6.66574,-8.855276 23.376337,22.333816 0 0 0 -12.58218,-18.505847 23.376337,22.333816 0 0 0 -10.4376,-2.487703 z"
         style="fill:#ffffff;fill-opacity:0;stroke:#0000ff;stroke-width:1.09000003;stroke-miterlimit:4;stroke-dasharray:none" />
      <path
         d="m 166.99018,111.60237 a 0.45915005,1.6774462 0 0 1 0.61727,-0.7112 0.45915005,1.6774462 0 0 1 0.19864,2.25048 0.45915005,1.6774462 0 0 1 -0.61471,0.74023 0.45915005,1.6774462 0 0 1 -0.20657,-2.24094"
         sodipodi:open="true"
         sodipodi:end="3.5989213"
         sodipodi:start="3.6247172"
         sodipodi:ry="1.6774462"
         sodipodi:rx="0.45915005"
         sodipodi:cy="112.38162"
         sodipodi:cx="167.39677"
         sodipodi:type="arc"
         id="path5009-4"
         style="fill:#ffffff;fill-opacity:0;stroke:#ffffff;stroke-width:1.18892562;stroke-miterlimit:4;stroke-dasharray:none" />
      <g
         id="g5960"
         transform="translate(-103.94345,0.94494043)">
        <ellipse
           transform="scale(-1,1)"
           ry="24.923904"
           rx="25.339626"
           style="fill:#cccccc;fill-opacity:0.47474748;stroke:#cccccc;stroke-width:0.054;stroke-miterlimit:4;stroke-dasharray:none"
           cy="142.84163"
           cx="-260.85281"
           id="ellipse5950" />
        <ellipse
           transform="scale(-1,1)"
           id="ellipse5952"
           cx="-290.44617"
           cy="128.06725"
           style="fill:#cccccc;fill-opacity:0.54040402;stroke:#808080;stroke-width:0;stroke-miterlimit:4;stroke-dasharray:none"
           rx="15.801378"
           ry="16.100494" />
        <ellipse
           transform="scale(-1,1)"
           ry="18.952814"
           rx="19.927017"
           style="fill:#cccccc;fill-opacity:0.54040402;stroke:#808080;stroke-width:0;stroke-miterlimit:4;stroke-dasharray:none"
           cy="119.36372"
           cx="-237.06676"
           id="ellipse5954" />
        <ellipse
           transform="scale(-1,1)"
           id="ellipse5956"
           cx="-235.45982"
           cy="98.800285"
           style="fill:#cccccc;fill-opacity:0.54040402;stroke:#808080;stroke-width:0;stroke-miterlimit:4;stroke-dasharray:none"
           rx="12.675067"
           ry="11.676494" />
        <ellipse
           transform="scale(-1,1)"
           ry="11.676494"
           rx="12.675067"
           style="fill:#cccccc;fill-opacity:0.54040402;stroke:#808080;stroke-width:0;stroke-miterlimit:4;stroke-dasharray:none"
           cy="139.80077"
           cx="-231.36134"
           id="ellipse5958" />
      </g>
      <ellipse
         transform="scale(-1,1)"
         ry="25.524403"
         rx="26.34103"
         style="fill:#cccccc;fill-opacity:0.47474748;stroke:#cccccc;stroke-width:0.05571598;stroke-miterlimit:4;stroke-dasharray:none"
         cy="135.69447"
         cx="-48.395805"
         id="ellipse6006" />
      <ellipse
         transform="scale(-1,1)"
         id="ellipse6008"
         cx="-78.857788"
         cy="121.25417"
         style="fill:#cccccc;fill-opacity:0.54040402;stroke:#808080;stroke-width:0;stroke-miterlimit:4;stroke-dasharray:none"
         rx="16.068647"
         ry="17.035938" />
      <ellipse
         transform="scale(-1,1)"
         ry="18.752361"
         rx="19.993834"
         style="fill:#cccccc;fill-opacity:0.54040402;stroke:#808080;stroke-width:0;stroke-miterlimit:4;stroke-dasharray:none"
         cy="112.21657"
         cx="-24.743385"
         id="ellipse6010" />
      <ellipse
         transform="scale(-1,1)"
         id="ellipse6012"
         cx="-23.336905"
         cy="91.118591"
         style="fill:#cccccc;fill-opacity:0.54040402;stroke:#808080;stroke-width:0;stroke-miterlimit:4;stroke-dasharray:none"
         rx="12.942336"
         ry="11.743311" />
      <ellipse
         transform="scale(-1,1)"
         ry="12.077398"
         rx="13.075972"
         style="fill:#cccccc;fill-opacity:0.54040402;stroke:#808080;stroke-width:0;stroke-miterlimit:4;stroke-dasharray:none"
         cy="132.45317"
         cx="-19.10479"
         id="ellipse6014" />
    </g>
  </g>
</svg>
