<?xml version="1.0" encoding="UTF-8" standalone="no"?>
<!-- Created with Inkscape (http://www.inkscape.org/) -->

<svg
   xmlns:dc="http://purl.org/dc/elements/1.1/"
   xmlns:cc="http://creativecommons.org/ns#"
   xmlns:rdf="http://www.w3.org/1999/02/22-rdf-syntax-ns#"
   xmlns:svg="http://www.w3.org/2000/svg"
   xmlns="http://www.w3.org/2000/svg"
   xmlns:sodipodi="http://sodipodi.sourceforge.net/DTD/sodipodi-0.dtd"
   xmlns:inkscape="http://www.inkscape.org/namespaces/inkscape"
   width="91.262245mm"
   height="81.485008mm"
   viewBox="0 0 91.262245 81.485008"
   version="1.1"
   id="svg8"
   inkscape:version="0.92.1 r15371"
   sodipodi:docname="surface1.svg">
  <defs
     id="defs2" />
  <sodipodi:namedview
     id="base"
     pagecolor="#ffffff"
     bordercolor="#666666"
     borderopacity="1.0"
     inkscape:pageopacity="0.0"
     inkscape:pageshadow="2"
     inkscape:zoom="0.7"
     inkscape:cx="252.36863"
     inkscape:cy="96.379627"
     inkscape:document-units="mm"
     inkscape:current-layer="layer1"
     showgrid="false"
     inkscape:window-width="962"
     inkscape:window-height="690"
     inkscape:window-x="1003"
     inkscape:window-y="307"
     inkscape:window-maximized="0" />
  <metadata
     id="metadata5">
    <rdf:RDF>
      <cc:Work
         rdf:about="">
        <dc:format>image/svg+xml</dc:format>
        <dc:type
           rdf:resource="http://purl.org/dc/dcmitype/StillImage" />
        <dc:title></dc:title>
      </cc:Work>
    </rdf:RDF>
  </metadata>
  <g
     inkscape:label="Calque 1"
     inkscape:groupmode="layer"
     id="layer1"
     transform="translate(-41.970271,-76.637629)">
    <g
       id="g4525"
       transform="matrix(-1,0,0,1,175.86336,-0.53453862)"
       style="fill:#808080;stroke:#808080">
      <ellipse
         ry="25.267641"
         rx="26.603989"
         style="fill:#808080;fill-opacity:0.47474748;stroke:#808080;stroke-width:0.7777766"
         cy="132.76286"
         cx="89.134392"
         id="ellipse4515" />
      <ellipse
         id="ellipse4517"
         cx="59.467472"
         cy="118.59759"
         style="fill:#808080;fill-opacity:0.54040402;stroke:#808080;stroke-width:0.49364394"
         rx="16.589813"
         ry="16.322544" />
      <ellipse
         ry="19.214201"
         rx="20.149643"
         style="fill:#808080;fill-opacity:0.54040402;stroke:#808080;stroke-width:0.59026086"
         cy="110.04497"
         cx="113.05502"
         id="ellipse4519" />
      <ellipse
         id="ellipse4521"
         cx="114.39138"
         cy="89.197952"
         style="fill:#808080;fill-opacity:0.54040402;stroke:#808080;stroke-width:0.37651137"
         rx="13.30751"
         ry="11.837529" />
      <ellipse
         ry="11.837529"
         rx="13.30751"
         style="fill:#808080;fill-opacity:0.54040402;stroke:#808080;stroke-width:0.37651137"
         cy="130.35745"
         cx="118.13316"
         id="ellipse4523" />
    </g>
    <path
       style="fill:#ffffff;fill-opacity:0.47474748;stroke:#ff0000;stroke-width:0.7777766"
       d="m 61.172479,77.06374 a 13.30751,11.837529 0 0 1 13.30772,11.837519 13.30751,11.837529 0 0 1 -1.09709,4.671549 20.149643,19.214201 0 0 1 9.123469,13.933512 26.603989,25.267641 0 0 1 3.922758,-0.30799 26.603989,25.267641 0 0 1 14.655954,4.19664 16.589813,16.322544 0 0 1 15.01097,-9.417 16.589813,16.322544 0 0 1 16.5902,16.32252 16.589813,16.322544 0 0 1 -16.5902,16.32252 16.589813,16.322544 0 0 1 -3.13728,-0.30747 26.603989,25.267641 0 0 1 -26.529644,23.41821 26.603989,25.267641 0 0 1 -24.886337,-16.42277 13.30751,11.837529 0 0 1 -4.11241,0.58704 13.30751,11.837529 0 0 1 -13.30719,-11.83752 13.30751,11.837529 0 0 1 3.21169,-7.69101 20.149643,19.214201 0 0 1 -4.97593,-12.62145 20.149643,19.214201 0 0 1 7.36493,-14.837845 13.30751,11.837529 0 0 1 -1.8588,-6.008936 13.30751,11.837529 0 0 1 13.30719,-11.837519 z"
       id="ellipse3682"
       inkscape:connector-curvature="0" />
  </g>
</svg>
