<?xml version="1.0" encoding="UTF-8" standalone="no"?>
<!-- Created with Inkscape (http://www.inkscape.org/) -->

<svg
   xmlns:dc="http://purl.org/dc/elements/1.1/"
   xmlns:cc="http://creativecommons.org/ns#"
   xmlns:rdf="http://www.w3.org/1999/02/22-rdf-syntax-ns#"
   xmlns:svg="http://www.w3.org/2000/svg"
   xmlns="http://www.w3.org/2000/svg"
   xmlns:sodipodi="http://sodipodi.sourceforge.net/DTD/sodipodi-0.dtd"
   xmlns:inkscape="http://www.inkscape.org/namespaces/inkscape"
   width="91.262245mm"
   height="81.485008mm"
   viewBox="0 0 91.262245 81.485008"
   version="1.1"
   id="svg8"
   inkscape:version="0.92.1 r15371"
   sodipodi:docname="surface3.svg">
  <defs
     id="defs2" />
  <sodipodi:namedview
     id="base"
     pagecolor="#ffffff"
     bordercolor="#666666"
     borderopacity="1.0"
     inkscape:pageopacity="0.0"
     inkscape:pageshadow="2"
     inkscape:zoom="1.979899"
     inkscape:cx="213.24671"
     inkscape:cy="125.76159"
     inkscape:document-units="mm"
     inkscape:current-layer="layer1"
     showgrid="false"
     inkscape:window-width="1920"
     inkscape:window-height="1016"
     inkscape:window-x="0"
     inkscape:window-y="0"
     inkscape:window-maximized="1"
     showguides="true"
     inkscape:guide-bbox="true">
    <sodipodi:guide
       position="-43.467263,74.17783"
       orientation="1,0"
       id="guide5049"
       inkscape:locked="false" />
  </sodipodi:namedview>
  <metadata
     id="metadata5">
    <rdf:RDF>
      <cc:Work
         rdf:about="">
        <dc:format>image/svg+xml</dc:format>
        <dc:type
           rdf:resource="http://purl.org/dc/dcmitype/StillImage" />
        <dc:title></dc:title>
      </cc:Work>
    </rdf:RDF>
  </metadata>
  <g
     inkscape:label="Calque 1"
     inkscape:groupmode="layer"
     id="layer1"
     transform="translate(-41.970271,-76.637629)">
    <path
       style="fill:#ffffff;fill-opacity:0.47474748;stroke:#00ff00;stroke-width:0.7777766"
       d="m 64.206418,76.663172 a 13.30751,11.837529 0 0 0 -13.307715,11.83752 13.30751,11.837529 0 0 0 1.859318,6.008936 20.149643,19.214201 0 0 0 -7.364925,14.837852 20.149643,19.214201 0 0 0 4.975924,12.62146 13.30751,11.837529 0 0 0 -3.212207,7.69152 13.30751,11.837529 0 0 0 13.307715,11.83752 13.30751,11.837529 0 0 0 4.11241,-0.58756 26.603989,25.267641 0 0 0 24.886337,16.42277 26.603989,25.267641 0 0 0 26.529645,-23.41821 16.589813,16.322544 0 0 0 3.13728,0.30799 16.589813,16.322544 0 0 0 16.58968,-16.32252 16.589813,16.322544 0 0 0 -16.58968,-16.32252 16.589813,16.322544 0 0 0 -15.01149,9.41648 26.603989,25.267641 0 0 0 -14.655435,-4.19664 26.603989,25.267641 0 0 0 -3.922758,0.30851 20.149643,19.214201 0 0 0 -9.123476,-13.933522 13.30751,11.837529 0 0 0 1.096574,-4.672066 13.30751,11.837529 0 0 0 -13.307197,-11.83752 z"
       id="ellipse4515"
       inkscape:connector-curvature="0" />
    <rect
       style="fill:#ffffff;fill-opacity:0.99494952;stroke:#fffff6;stroke-width:0.76499999;stroke-miterlimit:4;stroke-dasharray:none;stroke-opacity:1"
       id="rect5147"
       width="6.2129836"
       height="7.8784409"
       x="60.325741"
       y="136.56618" />
    <g
       id="g4582"
       transform="matrix(1.0083968,0,0,0.89683192,23.646752,40.992623)"
       style="fill:#ffffff">
      <path
         sodipodi:open="true"
         d="m 34.765103,111.93867 a 9.4494047,9.0714283 0 0 1 8.276128,4.69347"
         sodipodi:end="5.7795543"
         sodipodi:start="4.712389"
         sodipodi:ry="9.0714283"
         sodipodi:rx="9.4494047"
         sodipodi:cy="121.01009"
         sodipodi:cx="34.765102"
         sodipodi:type="arc"
         style="fill:#ffffff;fill-opacity:0.54040402;stroke:#008080;stroke-width:0.76499999;stroke-miterlimit:4;stroke-dasharray:none"
         id="ellipse4580" />
    </g>
    <rect
       y="131.40028"
       x="115.02183"
       height="9.2805347"
       width="7.6623249"
       id="rect5149"
       style="fill:#ffffff;fill-opacity:0.99494952;stroke:#fffff6;stroke-width:0.92205745;stroke-miterlimit:4;stroke-dasharray:none;stroke-opacity:1" />
    <g
       id="g4590"
       transform="matrix(0.97182191,0,0,0.93109371,89.753758,29.502494)"
       style="fill:#ffffff">
      <path
         sodipodi:open="true"
         d="m 25.305183,119.80337 a 9.4494047,9.0714283 0 0 1 9.472342,-7.86412"
         sodipodi:end="4.7237039"
         sodipodi:start="3.2750123"
         sodipodi:ry="9.0714283"
         sodipodi:rx="9.4494047"
         sodipodi:cy="121.01009"
         sodipodi:cx="34.670609"
         sodipodi:type="arc"
         id="ellipse4588"
         style="fill:#ffffff;fill-opacity:0.54040402;stroke:#008080;stroke-width:0.76499999;stroke-miterlimit:4;stroke-dasharray:none" />
    </g>
    <rect
       style="fill:#ffffff;fill-opacity:0.99494952;stroke:#fffff6;stroke-width:0.92205745;stroke-miterlimit:4;stroke-dasharray:none;stroke-opacity:1"
       id="rect5151"
       width="7.6623249"
       height="9.2805347"
       x="99.05233"
       y="103.76077" />
    <g
       id="g4598"
       transform="matrix(0.97791692,0,0,1.032678,67.237633,-25.575996)"
       style="fill:#ffffff">
      <path
         sodipodi:open="true"
         d="m 41.277465,127.58314 a 9.4494047,9.0714283 0 0 1 -10.834088,1.49404"
         sodipodi:end="2.0458141"
         sodipodi:start="0.81043632"
         sodipodi:ry="9.0714283"
         sodipodi:rx="9.4494047"
         sodipodi:cy="121.01009"
         sodipodi:cx="34.765102"
         sodipodi:type="arc"
         style="fill:#ffffff;fill-opacity:0.54040402;stroke:#008080;stroke-width:0.76499999;stroke-miterlimit:4;stroke-dasharray:none"
         id="ellipse4596" />
    </g>
    <rect
       y="101.27808"
       x="83.591629"
       height="8.5711346"
       width="7.4384909"
       id="rect5153"
       style="fill:#ffffff;fill-opacity:0.99494952;stroke:#fffff6;stroke-width:0.87307751;stroke-miterlimit:4;stroke-dasharray:none;stroke-opacity:1" />
    <g
       id="g4606"
       transform="translate(57.803277,-23.298718)"
       style="fill:#ffffff">
      <path
         sodipodi:open="true"
         d="M 33.67755,130.02124 A 9.4494047,9.0714283 0 0 1 25.794544,123.8612"
         sodipodi:end="2.8218784"
         sodipodi:start="1.6861441"
         sodipodi:ry="9.0714283"
         sodipodi:rx="9.4494047"
         sodipodi:cy="121.01009"
         sodipodi:cx="34.765102"
         sodipodi:type="arc"
         id="ellipse4604"
         style="fill:#ffffff;fill-opacity:0.54040402;stroke:#008080;stroke-width:0.76499999;stroke-miterlimit:4;stroke-dasharray:none" />
    </g>
    <rect
       y="88.238708"
       x="72.994179"
       height="9.1416416"
       width="6.9564681"
       id="rect5143"
       style="fill:#ffffff;fill-opacity:0.99494952;stroke:#fffff6;stroke-width:0.87196231;stroke-miterlimit:4;stroke-dasharray:none;stroke-opacity:1" />
    <g
       id="g4614"
       transform="matrix(0.88615932,0,0,0.97171011,55.052941,-28.117274)"
       style="fill:#ffffff">
      <path
         sodipodi:open="true"
         d="M 29.034529,128.223 A 9.4494047,9.0714283 0 0 1 25.47904,119.3307"
         sodipodi:end="3.3277969"
         sodipodi:start="2.2223821"
         sodipodi:ry="9.0714283"
         sodipodi:rx="9.4494047"
         sodipodi:cy="121.01009"
         sodipodi:cx="34.765102"
         sodipodi:type="arc"
         style="fill:#ffffff;fill-opacity:0.54040402;stroke:#008080;stroke-width:0.76499999;stroke-miterlimit:4;stroke-dasharray:none"
         id="ellipse4612" />
    </g>
    <rect
       style="fill:#ffffff;fill-opacity:0.99494952;stroke:#fffff6;stroke-width:0.76499999;stroke-miterlimit:4;stroke-dasharray:none;stroke-opacity:1"
       id="rect5141"
       width="6.2129836"
       height="7.8784409"
       x="48.230503"
       y="89.602638" />
    <g
       id="g4622"
       transform="matrix(0.86199074,0,0,1.0638668,13.154035,-36.877392)"
       style="fill:#ffffff;stroke-width:0.30000001;stroke-miterlimit:4;stroke-dasharray:none">
      <path
         d="m 43.810787,118.38685 a 9.4494047,9.0714283 0 0 1 -1.890598,8.54855"
         sodipodi:open="true"
         sodipodi:end="0.71178102"
         sodipodi:start="5.9898183"
         sodipodi:ry="9.0714283"
         sodipodi:rx="9.4494047"
         sodipodi:cy="121.01009"
         sodipodi:cx="34.765102"
         sodipodi:type="arc"
         id="ellipse4620"
         style="fill:#ffffff;fill-opacity:0.54040402;stroke:#008080;stroke-width:0.82182586;stroke-miterlimit:4;stroke-dasharray:none" />
    </g>
    <rect
       y="117.1004"
       x="48.419491"
       height="7.8784409"
       width="6.2129836"
       id="rect5145"
       style="fill:#ffffff;fill-opacity:0.99494952;stroke:#fffff6;stroke-width:0.76499999;stroke-miterlimit:4;stroke-dasharray:none;stroke-opacity:1" />
    <g
       id="g4630"
       transform="translate(4.4992176,1.071039)"
       style="fill:#ffffff">
      <path
         d="m 42.802894,116.24041 a 9.4494047,9.0714283 0 0 1 0.648621,8.34076"
         sodipodi:open="true"
         sodipodi:end="0.40461239"
         sodipodi:start="5.7295401"
         sodipodi:ry="9.0714283"
         sodipodi:rx="9.4494047"
         sodipodi:cy="121.01009"
         sodipodi:cx="34.765102"
         sodipodi:type="arc"
         style="fill:#ffffff;fill-opacity:0.54040402;stroke:#008080;stroke-width:0.76499999;stroke-miterlimit:4;stroke-dasharray:none"
         id="ellipse4628" />
    </g>
    <g
       id="g4692"
       transform="translate(88.912819,22.064734)">
      <ellipse
         ry="9.0714283"
         rx="9.4494047"
         cy="121.01009"
         cx="34.765102"
         id="ellipse4690"
         style="fill:#008080;fill-opacity:0.54040402;stroke:#008080;stroke-width:0.26458332" />
    </g>
    <path
       style="fill:#ffffff;fill-opacity:0;stroke:#0000ff;stroke-width:0.26499999;stroke-miterlimit:4;stroke-dasharray:none"
       id="path4835"
       sodipodi:type="arc"
       sodipodi:cx="15.143093"
       sodipodi:cy="113.52203"
       sodipodi:rx="17.339109"
       sodipodi:ry="4.1092691"
       sodipodi:start="1.4534352"
       sodipodi:end="1.4659713"
       sodipodi:open="true"
       d="m 17.173362,117.60304 a 17.339109,4.1092691 0 0 1 -0.216023,0.006" />
  </g>
</svg>
