<?xml version="1.0" encoding="UTF-8" standalone="no"?>
<!-- Created with Inkscape (http://www.inkscape.org/) -->

<svg
   xmlns:dc="http://purl.org/dc/elements/1.1/"
   xmlns:cc="http://creativecommons.org/ns#"
   xmlns:rdf="http://www.w3.org/1999/02/22-rdf-syntax-ns#"
   xmlns:svg="http://www.w3.org/2000/svg"
   xmlns="http://www.w3.org/2000/svg"
   xmlns:sodipodi="http://sodipodi.sourceforge.net/DTD/sodipodi-0.dtd"
   xmlns:inkscape="http://www.inkscape.org/namespaces/inkscape"
   width="91.262245mm"
   height="81.485008mm"
   viewBox="0 0 91.262245 81.485008"
   version="1.1"
   id="svg8"
   inkscape:version="0.92.1 r15371"
   sodipodi:docname="surface2.svg">
  <defs
     id="defs2" />
  <sodipodi:namedview
     id="base"
     pagecolor="#ffffff"
     bordercolor="#666666"
     borderopacity="1.0"
     inkscape:pageopacity="0.0"
     inkscape:pageshadow="2"
     inkscape:zoom="0.98994949"
     inkscape:cx="235.04832"
     inkscape:cy="239.17171"
     inkscape:document-units="mm"
     inkscape:current-layer="layer1"
     showgrid="false"
     inkscape:window-width="1920"
     inkscape:window-height="1016"
     inkscape:window-x="0"
     inkscape:window-y="0"
     inkscape:window-maximized="1" />
  <metadata
     id="metadata5">
    <rdf:RDF>
      <cc:Work
         rdf:about="">
        <dc:format>image/svg+xml</dc:format>
        <dc:type
           rdf:resource="http://purl.org/dc/dcmitype/StillImage" />
        <dc:title></dc:title>
      </cc:Work>
    </rdf:RDF>
  </metadata>
  <g
     inkscape:label="Calque 1"
     inkscape:groupmode="layer"
     id="layer1"
     transform="translate(-41.970271,-76.637629)">
    <ellipse
       id="ellipse4515"
       cx="-89.510506"
       cy="132.01837"
       style="fill:#808080;fill-opacity:0.47474748;stroke:#808080;stroke-width:0.7777766"
       rx="26.603989"
       ry="25.267641"
       transform="scale(-1,1)" />
    <ellipse
       ry="16.322544"
       rx="16.589813"
       style="fill:#808080;fill-opacity:0.54040402;stroke:#808080;stroke-width:0.49364394"
       cy="117.8531"
       cx="-119.17743"
       id="ellipse4517"
       transform="scale(-1,1)" />
    <ellipse
       id="ellipse4519"
       cx="-65.589874"
       cy="109.30048"
       style="fill:#808080;fill-opacity:0.54040402;stroke:#808080;stroke-width:0.59026086"
       rx="20.149643"
       ry="19.214201"
       transform="scale(-1,1)" />
    <ellipse
       ry="11.837529"
       rx="13.30751"
       style="fill:#808080;fill-opacity:0.54040402;stroke:#808080;stroke-width:0.37651137"
       cy="88.453461"
       cx="-64.253517"
       id="ellipse4521"
       transform="scale(-1,1)" />
    <ellipse
       id="ellipse4523"
       cx="-60.511738"
       cy="129.61296"
       style="fill:#808080;fill-opacity:0.54040402;stroke:#808080;stroke-width:0.37651137"
       rx="13.30751"
       ry="11.837529"
       transform="scale(-1,1)" />
    <path
       style="fill:#ffffff;fill-opacity:0.47474748;stroke:#b3b3b3;stroke-width:0.7777766"
       d="m 63.954016,76.853785 a 13.30751,11.837529 0 0 1 13.30772,11.837519 13.30751,11.837529 0 0 1 -1.09709,4.671549 20.149643,19.214201 0 0 1 9.123469,13.933507 26.603989,25.267641 0 0 1 3.922758,-0.30799 26.603989,25.267641 0 0 1 14.655957,4.19664 16.589813,16.322544 0 0 1 15.01097,-9.417 16.589813,16.322544 0 0 1 16.5902,16.32252 16.589813,16.322544 0 0 1 -16.5902,16.32252 16.589813,16.322544 0 0 1 -3.13728,-0.30747 26.603989,25.267641 0 0 1 -26.529647,23.41821 26.603989,25.267641 0 0 1 -24.886337,-16.42277 13.30751,11.837529 0 0 1 -4.11241,0.58704 13.30751,11.837529 0 0 1 -13.30719,-11.83752 13.30751,11.837529 0 0 1 3.21169,-7.69101 20.149643,19.214201 0 0 1 -4.97593,-12.62145 20.149643,19.214201 0 0 1 7.36493,-14.83784 13.30751,11.837529 0 0 1 -1.8588,-6.008936 13.30751,11.837529 0 0 1 13.30719,-11.837519 z"
       id="ellipse3682"
       inkscape:connector-curvature="0" />
    <circle
       style="fill:#008080;fill-opacity:0.54040402;stroke:#008080;stroke-width:0.26458332"
       id="path4566"
       cx="50.515945"
       cy="122.21756"
       r="0.14174107" />
    <circle
       style="fill:#008080;fill-opacity:0.54040402;stroke:#008080;stroke-width:0.26458332"
       id="circle4600"
       cx="101.06635"
       cy="99.149635"
       r="0.14174107" />
    <g
       id="g4606"
       transform="translate(52.426852,-31.647534)">
      <ellipse
         ry="9.0714283"
         rx="9.4494047"
         cy="121.01009"
         cx="34.765102"
         id="ellipse4604"
         style="fill:#008080;fill-opacity:0.54040402;stroke:#008080;stroke-width:0.26458332" />
    </g>
    <g
       id="g4668"
       transform="translate(35.03365,-53.27925)">
      <ellipse
         style="fill:#008080;fill-opacity:0.54040402;stroke:#008080;stroke-width:0.26458332"
         id="ellipse4666"
         cx="34.765102"
         cy="121.01009"
         rx="9.4494047"
         ry="9.0714283" />
    </g>
    <circle
       style="fill:#008080;fill-opacity:0.54040402;stroke:#008080;stroke-width:0.26458332"
       id="circle4670"
       cx="69.775131"
       cy="67.896217"
       r="0.14174107" />
    <g
       id="g4676"
       transform="translate(89.934692,-28.332821)">
      <ellipse
         ry="9.0714283"
         rx="9.4494047"
         cy="121.01009"
         cx="34.765102"
         id="ellipse4674"
         style="fill:#008080;fill-opacity:0.54040402;stroke:#008080;stroke-width:0.26458332" />
    </g>
    <circle
       r="0.14174107"
       cy="166.35902"
       cx="97.461884"
       id="circle4694"
       style="fill:#008080;fill-opacity:0.54040402;stroke:#008080;stroke-width:0.26458332" />
    <path
       style="fill:#ffffff;fill-opacity:0;stroke:#0000ff;stroke-width:0.26499999;stroke-miterlimit:4;stroke-dasharray:none"
       id="path4835"
       sodipodi:type="arc"
       sodipodi:cx="15.143093"
       sodipodi:cy="113.52203"
       sodipodi:rx="17.339109"
       sodipodi:ry="4.1092691"
       sodipodi:start="1.4534352"
       sodipodi:end="1.4659713"
       sodipodi:open="true"
       d="m 17.173362,117.60304 a 17.339109,4.1092691 0 0 1 -0.216023,0.006" />
    <path
       style="fill:#ffffff;fill-opacity:0;stroke:#0000ff;stroke-width:1.09000003;stroke-miterlimit:4;stroke-dasharray:none"
       d="m 64.715131,66.914399 a 23.376337,22.333816 0 0 0 -20.9889,11.956893 l -0.273368,0.513663 a 23.376337,22.333816 0 0 0 -2.174028,12.816789 30.655736,28.526412 0 0 0 -1.967321,2.975012 l -0.358118,0.656291 a 30.655736,28.526412 0 0 0 0.363285,25.798423 20.697799,20.364956 0 0 0 9.567892,26.65006 20.697799,20.364956 0 0 0 9.594763,2.13526 37.179829,35.145458 0 0 0 14.735018,12.64316 37.179829,35.145458 0 0 0 49.776286,-15.50913 37.179829,35.145458 0 0 0 2.05982,-4.70566 25.62474,26.046745 0 0 0 17.59376,-13.68547 25.62474,26.046745 0 0 0 -11.08614,-34.944632 25.62474,26.046745 0 0 0 -28.02258,3.016353 25.62474,26.046745 0 0 0 -1.37408,1.26969 A 37.179829,35.145458 0 0 0 94.400657,96.763222 30.655736,28.526412 0 0 0 87.734914,87.907949 23.376337,22.333816 0 0 0 75.152736,69.402102 23.376337,22.333816 0 0 0 64.715131,66.914399 Z"
       id="path4851"
       inkscape:connector-curvature="0" />
    <path
       style="fill:#ffffff;fill-opacity:0;stroke:#ffffff;stroke-width:1.18892562;stroke-miterlimit:4;stroke-dasharray:none"
       id="path5009"
       sodipodi:type="arc"
       sodipodi:cx="100.8681"
       sodipodi:cy="101.08044"
       sodipodi:rx="0.45915005"
       sodipodi:ry="1.6774462"
       sodipodi:start="3.6247172"
       sodipodi:end="3.5989213"
       sodipodi:open="true"
       d="m 100.4615,100.30118 a 0.45915005,1.6774462 0 0 1 0.61727,-0.711197 0.45915005,1.6774462 0 0 1 0.19865,2.250487 0.45915005,1.6774462 0 0 1 -0.61471,0.74022 0.45915005,1.6774462 0 0 1 -0.20657,-2.24093" />
  </g>
</svg>
