<?xml version="1.0" encoding="UTF-8" standalone="no"?>
<!-- Created with Inkscape (http://www.inkscape.org/) -->

<svg
   xmlns:dc="http://purl.org/dc/elements/1.1/"
   xmlns:cc="http://creativecommons.org/ns#"
   xmlns:rdf="http://www.w3.org/1999/02/22-rdf-syntax-ns#"
   xmlns:svg="http://www.w3.org/2000/svg"
   xmlns="http://www.w3.org/2000/svg"
   xmlns:sodipodi="http://sodipodi.sourceforge.net/DTD/sodipodi-0.dtd"
   xmlns:inkscape="http://www.inkscape.org/namespaces/inkscape"
   width="184.57475mm"
   height="74.802872mm"
   viewBox="0 0 184.57475 74.802872"
   version="1.1"
   id="svg8"
   inkscape:version="0.92.1 r15371"
   sodipodi:docname="mutation.svg">
  <defs
     id="defs2">
    <marker
       inkscape:isstock="true"
       style="overflow:visible"
       id="marker5605"
       refX="0"
       refY="0"
       orient="auto"
       inkscape:stockid="Arrow1Send">
      <path
         transform="matrix(-0.2,0,0,-0.2,-1.2,0)"
         style="fill:#818181;fill-opacity:1;fill-rule:evenodd;stroke:#818181;stroke-width:1.00000003pt;stroke-opacity:1"
         d="M 0,0 5,-5 -12.5,0 5,5 Z"
         id="path5603"
         inkscape:connector-curvature="0" />
    </marker>
    <marker
       inkscape:stockid="Arrow1Send"
       orient="auto"
       refY="0"
       refX="0"
       id="Arrow1Send"
       style="overflow:visible"
       inkscape:isstock="true"
       inkscape:collect="always">
      <path
         id="path4559"
         d="M 0,0 5,-5 -12.5,0 5,5 Z"
         style="fill:#818181;fill-opacity:1;fill-rule:evenodd;stroke:#818181;stroke-width:1.00000003pt;stroke-opacity:1"
         transform="matrix(-0.2,0,0,-0.2,-1.2,0)"
         inkscape:connector-curvature="0" />
    </marker>
    <marker
       inkscape:stockid="Arrow1Mend"
       orient="auto"
       refY="0"
       refX="0"
       id="Arrow1Mend"
       style="overflow:visible"
       inkscape:isstock="true">
      <path
         id="path4553"
         d="M 0,0 5,-5 -12.5,0 5,5 Z"
         style="fill:#000000;fill-opacity:1;fill-rule:evenodd;stroke:#000000;stroke-width:1.00000003pt;stroke-opacity:1"
         transform="matrix(-0.4,0,0,-0.4,-4,0)"
         inkscape:connector-curvature="0" />
    </marker>
    <marker
       inkscape:stockid="Arrow2Lend"
       orient="auto"
       refY="0"
       refX="0"
       id="Arrow2Lend"
       style="overflow:visible"
       inkscape:isstock="true">
      <path
         id="path4565"
         style="fill:#000000;fill-opacity:1;fill-rule:evenodd;stroke:#000000;stroke-width:0.625;stroke-linejoin:round;stroke-opacity:1"
         d="M 8.7185878,4.0337352 -2.2072895,0.01601326 8.7185884,-4.0017078 c -1.7454984,2.3720609 -1.7354408,5.6174519 -6e-7,8.035443 z"
         transform="matrix(-1.1,0,0,-1.1,-1.1,0)"
         inkscape:connector-curvature="0" />
    </marker>
    <marker
       inkscape:stockid="Arrow1Lend"
       orient="auto"
       refY="0"
       refX="0"
       id="Arrow1Lend"
       style="overflow:visible"
       inkscape:isstock="true">
      <path
         id="path4547"
         d="M 0,0 5,-5 -12.5,0 5,5 Z"
         style="fill:#000000;fill-opacity:1;fill-rule:evenodd;stroke:#000000;stroke-width:1.00000003pt;stroke-opacity:1"
         transform="matrix(-0.8,0,0,-0.8,-10,0)"
         inkscape:connector-curvature="0" />
    </marker>
  </defs>
  <sodipodi:namedview
     id="base"
     pagecolor="#ffffff"
     bordercolor="#666666"
     borderopacity="1.0"
     inkscape:pageopacity="0.0"
     inkscape:pageshadow="2"
     inkscape:zoom="0.7"
     inkscape:cx="367.07772"
     inkscape:cy="12.149605"
     inkscape:document-units="mm"
     inkscape:current-layer="layer1"
     showgrid="false"
     inkscape:window-width="1384"
     inkscape:window-height="877"
     inkscape:window-x="659"
     inkscape:window-y="16"
     inkscape:window-maximized="0" />
  <metadata
     id="metadata5">
    <rdf:RDF>
      <cc:Work
         rdf:about="">
        <dc:format>image/svg+xml</dc:format>
        <dc:type
           rdf:resource="http://purl.org/dc/dcmitype/StillImage" />
        <dc:title></dc:title>
      </cc:Work>
    </rdf:RDF>
  </metadata>
  <g
     inkscape:label="Layer 1"
     inkscape:groupmode="layer"
     id="layer1"
     transform="translate(-12.011951,-40.847396)">
    <g
       id="g4510"
       transform="matrix(0.90371814,0,0,0.8878332,1.4819353,4.584168)">
      <g
         id="g4516">
        <path
           style="fill:none;fill-rule:evenodd;stroke:#000000;stroke-width:1.44226468;stroke-linecap:butt;stroke-linejoin:miter;stroke-miterlimit:4;stroke-dasharray:none;stroke-opacity:1"
           d="m 18.745867,87.813276 c 0,0 -5.340031,-13.983874 -0.668319,-19.453721 3.003272,-3.516388 10.157227,-6.486453 15.371188,-4.988133 8.559707,2.459784 3.155792,15.646335 11.361306,18.705515 7.349507,2.740049 20.748819,1.621432 24.059263,-3.990525 C 73.634693,70.007839 54.414334,63.626874 51.159005,55.140998 49.410302,50.582536 50.490696,40.924813 50.490696,40.924813"
           id="path4489"
           inkscape:connector-curvature="0"
           sodipodi:nodetypes="csssssc" />
      </g>
    </g>
    <path
       style="fill:none;fill-rule:evenodd;stroke:#000000;stroke-width:1.23577797;stroke-linecap:butt;stroke-linejoin:miter;stroke-miterlimit:4;stroke-dasharray:none;stroke-opacity:1"
       d="m 12.128072,107.6263 c 0,0 18.528382,-3.54523 27.882167,-3.41661 7.641564,0.10507 15.069147,3.77439 22.704048,3.41661 5.309137,-0.24881 15.534348,-3.84369 15.534348,-3.84369"
       id="path4493"
       inkscape:connector-curvature="0"
       sodipodi:nodetypes="cssc" />
    <path
       d="m 62.590845,110.15393 a 3.5588756,3.5999172 0 0 1 -2.294865,-4.5104 3.5588756,3.5999172 0 0 1 4.442355,-2.35373 3.5588756,3.5999172 0 0 1 2.358791,4.47654 3.5588756,3.5999172 0 0 1 -4.408412,2.41814"
       sodipodi:open="true"
       sodipodi:end="1.8557039"
       sodipodi:start="1.8844844"
       sodipodi:ry="3.5999172"
       sodipodi:rx="3.5588756"
       sodipodi:cy="106.72968"
       sodipodi:cx="63.689003"
       sodipodi:type="arc"
       id="path4501"
       style="opacity:1;fill:#eabc5d;fill-opacity:0.99521532;stroke:#000000;stroke-width:0.24553293;stroke-linejoin:round;stroke-miterlimit:4;stroke-dasharray:none;stroke-dashoffset:0;stroke-opacity:1" />
    <g
       id="g4513"
       transform="matrix(0.87451266,0,0,0.76327173,3.6869715,12.132372)">
      <path
         d="m 50.647214,60.483151 a 4.2924972,4.6709099 0 0 1 -2.767926,-5.852271 4.2924972,4.6709099 0 0 1 5.358096,-3.053966 4.2924972,4.6709099 0 0 1 2.84503,5.808324 4.2924972,4.6709099 0 0 1 -5.317156,3.137549"
         sodipodi:open="true"
         sodipodi:end="1.8557039"
         sodipodi:start="1.8844844"
         sodipodi:ry="4.6709099"
         sodipodi:rx="4.2924972"
         sodipodi:cy="56.040173"
         sodipodi:cx="51.971745"
         sodipodi:type="arc"
         id="path4503"
         style="opacity:1;fill:#ea1e5d;fill-opacity:0.99521532;stroke:#000000;stroke-width:0.30715871;stroke-linejoin:round;stroke-miterlimit:4;stroke-dasharray:none;stroke-dashoffset:0;stroke-opacity:1" />
    </g>
    <path
       sodipodi:nodetypes="cssc"
       inkscape:connector-curvature="0"
       id="path4518"
       d="m 130.2612,58.448707 c 0,0 18.52839,-3.54523 27.88217,-3.41661 7.64156,0.10507 15.06915,3.77439 22.70405,3.41661 5.30914,-0.24881 15.53435,-3.84369 15.53435,-3.84369"
       style="fill:none;fill-rule:evenodd;stroke:#000000;stroke-width:1.23577797;stroke-linecap:butt;stroke-linejoin:miter;stroke-miterlimit:4;stroke-dasharray:none;stroke-opacity:1" />
    <g
       transform="matrix(0.87451266,0,0,0.76327173,134.1145,15.072337)"
       id="g4522">
      <path
         style="opacity:1;fill:#ea1e5d;fill-opacity:0.99521532;stroke:#000000;stroke-width:0.30715871;stroke-linejoin:round;stroke-miterlimit:4;stroke-dasharray:none;stroke-dashoffset:0;stroke-opacity:1"
         id="path4520"
         sodipodi:type="arc"
         sodipodi:cx="51.971745"
         sodipodi:cy="56.040173"
         sodipodi:rx="4.2924972"
         sodipodi:ry="4.6709099"
         sodipodi:start="1.8844844"
         sodipodi:end="1.8557039"
         sodipodi:open="true"
         d="m 50.647214,60.483151 a 4.2924972,4.6709099 0 0 1 -2.767926,-5.852271 4.2924972,4.6709099 0 0 1 5.358096,-3.053966 4.2924972,4.6709099 0 0 1 2.84503,5.808324 4.2924972,4.6709099 0 0 1 -5.317156,3.137549" />
    </g>
    <g
       transform="matrix(0.90371814,0,0,0.8878332,128.70223,37.45832)"
       id="g4528">
      <g
         id="g4526">
        <path
           sodipodi:nodetypes="csssssc"
           inkscape:connector-curvature="0"
           id="path4524"
           d="m 18.745867,87.813276 c 0,0 -5.340031,-13.983874 -0.668319,-19.453721 3.003272,-3.516388 10.157227,-6.486453 15.371188,-4.988133 8.559707,2.459784 3.155792,15.646335 11.361306,18.705515 7.349507,2.740049 20.748819,1.621432 24.059263,-3.990525 C 73.634693,70.007839 54.414334,63.626874 51.159005,55.140998 49.410302,50.582536 50.490696,40.924813 50.490696,40.924813"
           style="fill:none;fill-rule:evenodd;stroke:#000000;stroke-width:1.44226468;stroke-linecap:butt;stroke-linejoin:miter;stroke-miterlimit:4;stroke-dasharray:none;stroke-opacity:1" />
      </g>
    </g>
    <path
       style="opacity:1;fill:#eabc5d;fill-opacity:0.99521532;stroke:#000000;stroke-width:0.24553293;stroke-linejoin:round;stroke-miterlimit:4;stroke-dasharray:none;stroke-dashoffset:0;stroke-opacity:1"
       id="path4530"
       sodipodi:type="arc"
       sodipodi:cx="175.9422"
       sodipodi:cy="88.020813"
       sodipodi:rx="3.5588756"
       sodipodi:ry="3.5999172"
       sodipodi:start="1.8844844"
       sodipodi:end="1.8557039"
       sodipodi:open="true"
       d="m 174.84404,91.445061 a 3.5588756,3.5999172 0 0 1 -2.29486,-4.510404 3.5588756,3.5999172 0 0 1 4.44235,-2.353722 3.5588756,3.5999172 0 0 1 2.35879,4.476533 3.5588756,3.5999172 0 0 1 -4.40841,2.418141" />
    <path
       style="fill:none;fill-rule:evenodd;stroke:#818181;stroke-width:3.86500001;stroke-linecap:butt;stroke-linejoin:miter;stroke-miterlimit:0;stroke-dasharray:none;stroke-opacity:1;marker-end:url(#Arrow1Send)"
       d="M 86.595327,80.511682 H 122.14218"
       id="path4542"
       inkscape:connector-curvature="0" />
  </g>
</svg>
