<?xml version="1.0"?>

<svg xmlns:dc="http://purl.org/dc/elements/1.1/" xmlns:cc="http://creativecommons.org/ns#" xmlns:rdf="http://www.w3.org/1999/02/22-rdf-syntax-ns#" xmlns:svg="http://www.w3.org/2000/svg" xmlns="http://www.w3.org/2000/svg" id="svg8" version="1.1" viewBox="0 0 48.916549 50.493545" height="50.493546" width="48.91655"> <defs id="defs2"> <marker orient="auto" refY="0" refX="0" id="marker1371" style="overflow:visible"> <path id="path1369" style="fill:#ea1e5d;fill-opacity:1;fill-rule:evenodd;stroke:#ea1e5d;stroke-width:0.625;stroke-linejoin:round;stroke-opacity:1" d="M 8.7185878,4.0337352 -2.2072895,0.01601326 8.7185884,-4.0017078 c -1.7454984,2.3720609 -1.7354408,5.6174519 -6e-7,8.035443 z" transform="matrix(0.3,0,0,0.3,-0.69,0)"></path> </marker> <marker style="overflow:visible" id="Arrow2Sstart" refX="0" refY="0" orient="auto"> <path transform="matrix(0.3,0,0,0.3,-0.69,0)" d="M 8.7185878,4.0337352 -2.2072895,0.01601326 8.7185884,-4.0017078 c -1.7454984,2.3720609 -1.7354408,5.6174519 -6e-7,8.035443 z" style="fill:#ea1e5d;fill-opacity:1;fill-rule:evenodd;stroke:#ea1e5d;stroke-width:0.625;stroke-linejoin:round;stroke-opacity:1" id="path955"></path> </marker> <marker style="overflow:visible" id="Arrow1Mstart" refX="0" refY="0" orient="auto"> <path transform="matrix(0.4,0,0,0.4,4,0)" style="fill:#ea1e5d;fill-opacity:1;fill-rule:evenodd;stroke:#ea1e5d;stroke-width:1.00000003pt;stroke-opacity:1" d="M 0,0 5,-5 -12.5,0 5,5 Z" id="path931"></path> </marker> <marker style="overflow:visible" id="TriangleOutL" refX="0" refY="0" orient="auto"> <path transform="scale(0.8)" style="fill:#ea1e5d;fill-opacity:1;fill-rule:evenodd;stroke:#ea1e5d;stroke-width:1.00000003pt;stroke-opacity:1" d="M 5.77,0 -2.88,5 V -5 Z" id="path1067"></path> </marker> <marker orient="auto" refY="0" refX="0" id="marker5605" style="overflow:visible"> <path id="path5603" d="M 0,0 5,-5 -12.5,0 5,5 Z" style="fill:#818181;fill-opacity:1;fill-rule:evenodd;stroke:#818181;stroke-width:1.00000003pt;stroke-opacity:1" transform="matrix(-0.2,0,0,-0.2,-1.2,0)"></path> </marker> <marker style="overflow:visible" id="Arrow1Mend" refX="0" refY="0" orient="auto"> <path transform="matrix(-0.4,0,0,-0.4,-4,0)" style="fill:#000000;fill-opacity:1;fill-rule:evenodd;stroke:#000000;stroke-width:1.00000003pt;stroke-opacity:1" d="M 0,0 5,-5 -12.5,0 5,5 Z" id="path4553"></path> </marker> <marker style="overflow:visible" id="Arrow2Lend" refX="0" refY="0" orient="auto"> <path transform="matrix(-1.1,0,0,-1.1,-1.1,0)" d="M 8.7185878,4.0337352 -2.2072895,0.01601326 8.7185884,-4.0017078 c -1.7454984,2.3720609 -1.7354408,5.6174519 -6e-7,8.035443 z" style="fill:#000000;fill-opacity:1;fill-rule:evenodd;stroke:#000000;stroke-width:0.625;stroke-linejoin:round;stroke-opacity:1" id="path4565"></path> </marker> <marker style="overflow:visible" id="Arrow1Lend" refX="0" refY="0" orient="auto"> <path transform="matrix(-0.8,0,0,-0.8,-10,0)" style="fill:#000000;fill-opacity:1;fill-rule:evenodd;stroke:#000000;stroke-width:1.00000003pt;stroke-opacity:1" d="M 0,0 5,-5 -12.5,0 5,5 Z" id="path4547"></path> </marker> </defs> <metadata id="metadata5"> <rdf:rdf> <cc:work rdf:about=""> <dc:format>image/svg+xml</dc:format> <dc:type rdf:resource="http://purl.org/dc/dcmitype/StillImage"></dc:type> <dc:title></dc:title> </cc:work> </rdf:rdf> </metadata> <g transform="translate(-5.03706,-40.845494)" id="layer1"> <path id="path4489" d="M 5.5245451,60.866103 C 8.2386565,57.744137 13.197569,54.208036 17.909521,55.538294 25.645083,57.722172 14.586069,77.384589 35.363,87.641256 41.705633,90.772338 48.690125,86.434984 51.681834,81.452502 55.988401,74.280077 50.657156,61.074219 47.715256,53.540177 46.134922,49.493023 47.111293,40.918576 47.111293,40.918576" style="fill:none;fill-rule:evenodd;stroke:#ffffff;stroke-width:1.29189479;stroke-linecap:butt;stroke-linejoin:miter;stroke-miterlimit:4;stroke-dasharray:none;stroke-opacity:1"></path> <g id="g57" transform="matrix(0.87451266,0,0,0.76327173,-24.242694,19.482284)"> <path d="m 50.757757,60.520389 a 4.2924972,4.6709099 0 0 1 -2.903333,-5.800972 4.2924972,4.6709099 0 0 1 5.330843,-3.159609 4.2924972,4.6709099 0 0 1 2.903935,5.800615 4.2924972,4.6709099 0 0 1 -5.330516,3.160264" id="path55" style="opacity:1;fill:#ea1e5d;fill-opacity:0.99521532;stroke:#000000;stroke-width:0.30715871;stroke-linejoin:round;stroke-miterlimit:4;stroke-dasharray:none;stroke-dashoffset:0;stroke-opacity:1"></path> </g> <g transform="matrix(0.87451266,0,0,0.76327173,2.7448059,11.412492)" id="g83"> <path style="opacity:1;fill:#ea1e5d;fill-opacity:0.99521532;stroke:#000000;stroke-width:0.30715871;stroke-linejoin:round;stroke-miterlimit:4;stroke-dasharray:none;stroke-dashoffset:0;stroke-opacity:1" id="path81" d="m 50.757757,60.520389 a 4.2924972,4.6709099 0 0 1 -2.903333,-5.800972 4.2924972,4.6709099 0 0 1 5.330843,-3.159609 4.2924972,4.6709099 0 0 1 2.903935,5.800615 4.2924972,4.6709099 0 0 1 -5.330516,3.160264"></path> </g> <g transform="matrix(0.87451266,0,0,0.76327173,-3.6051941,44.882284)" id="g87"> <path style="opacity:1;fill:#ea1e5d;fill-opacity:0.99521532;stroke:#000000;stroke-width:0.30715871;stroke-linejoin:round;stroke-miterlimit:4;stroke-dasharray:none;stroke-dashoffset:0;stroke-opacity:1" id="path85" d="m 50.757757,60.520389 a 4.2924972,4.6709099 0 0 1 -2.903333,-5.800972 4.2924972,4.6709099 0 0 1 5.330843,-3.159609 4.2924972,4.6709099 0 0 1 2.903935,5.800615 4.2924972,4.6709099 0 0 1 -5.330516,3.160264"></path> </g> <g id="g1670"> <path style="fill:#ea1e5d;fill-rule:evenodd;stroke:#ea1e5d;stroke-width:0.96499997;stroke-linecap:butt;stroke-linejoin:miter;stroke-miterlimit:4;stroke-dasharray:none;stroke-opacity:1;marker-start:url(#Arrow2Sstart)" d="M 26.693223,59.9816 C 41.377598,55.483684 41.377598,55.483684 41.377598,55.483684" id="path89"></path> <path id="path1367" d="M 41.377599,55.483685 C 26.693224,59.981601 26.693224,59.981601 26.693224,59.981601" style="fill:#ea1e5d;fill-rule:evenodd;stroke:#ea1e5d;stroke-width:0.96499997;stroke-linecap:butt;stroke-linejoin:miter;stroke-miterlimit:4;stroke-dasharray:none;stroke-opacity:1;marker-start:url(#marker1371)"></path> </g> <g transform="rotate(-112.37897,38.35963,66.621653)" id="g1688"> <path id="path1684" d="M 26.693223,59.9816 C 41.377598,55.483684 41.377598,55.483684 41.377598,55.483684" style="fill:#ea1e5d;fill-rule:evenodd;stroke:#ea1e5d;stroke-width:0.96499997;stroke-linecap:butt;stroke-linejoin:miter;stroke-miterlimit:4;stroke-dasharray:none;stroke-opacity:1;marker-start:url(#Arrow2Sstart)"></path> <path style="fill:#ea1e5d;fill-rule:evenodd;stroke:#ea1e5d;stroke-width:0.96499997;stroke-linecap:butt;stroke-linejoin:miter;stroke-miterlimit:4;stroke-dasharray:none;stroke-opacity:1;marker-start:url(#marker1371)" d="M 41.377599,55.483685 C 26.693224,59.981601 26.693224,59.981601 26.693224,59.981601" id="path1686"></path> </g> </g>
</svg>
