<?xml version="1.0"?>

<svg xmlns:dc="http://purl.org/dc/elements/1.1/" xmlns:cc="http://creativecommons.org/ns#" xmlns:rdf="http://www.w3.org/1999/02/22-rdf-syntax-ns#" xmlns:svg="http://www.w3.org/2000/svg" xmlns="http://www.w3.org/2000/svg" width="184.57475" height="74.802872" viewBox="0 0 184.57475 74.802872" version="1.1" id="svg8"> <defs id="defs2"> <marker style="overflow:visible" id="marker5605" refX="0" refY="0" orient="auto"> <path transform="matrix(-0.2,0,0,-0.2,-1.2,0)" style="fill:#818181;fill-opacity:1;fill-rule:evenodd;stroke:#818181;stroke-width:1.00000003pt;stroke-opacity:1" d="M 0,0 5,-5 -12.5,0 5,5 Z" id="path5603"></path> </marker> <marker orient="auto" refY="0" refX="0" id="Arrow1Mend" style="overflow:visible"> <path id="path4553" d="M 0,0 5,-5 -12.5,0 5,5 Z" style="fill:#000000;fill-opacity:1;fill-rule:evenodd;stroke:#000000;stroke-width:1.00000003pt;stroke-opacity:1" transform="matrix(-0.4,0,0,-0.4,-4,0)"></path> </marker> <marker orient="auto" refY="0" refX="0" id="Arrow2Lend" style="overflow:visible"> <path id="path4565" style="fill:#000000;fill-opacity:1;fill-rule:evenodd;stroke:#000000;stroke-width:0.625;stroke-linejoin:round;stroke-opacity:1" d="M 8.7185878,4.0337352 -2.2072895,0.01601326 8.7185884,-4.0017078 c -1.7454984,2.3720609 -1.7354408,5.6174519 -6e-7,8.035443 z" transform="matrix(-1.1,0,0,-1.1,-1.1,0)"></path> </marker> <marker orient="auto" refY="0" refX="0" id="Arrow1Lend" style="overflow:visible"> <path id="path4547" d="M 0,0 5,-5 -12.5,0 5,5 Z" style="fill:#000000;fill-opacity:1;fill-rule:evenodd;stroke:#000000;stroke-width:1.00000003pt;stroke-opacity:1" transform="matrix(-0.8,0,0,-0.8,-10,0)"></path> </marker> </defs> <metadata id="metadata5"> <rdf:rdf> <cc:work rdf:about=""> <dc:format>image/svg+xml</dc:format> <dc:type rdf:resource="http://purl.org/dc/dcmitype/StillImage"></dc:type> <dc:title></dc:title> </cc:work> </rdf:rdf> </metadata> <path id="path4489" d="m 6.4109641,41.700314 c 0,0 -4.8258829,-12.415348 -0.603972,-17.27166 2.7141113,-3.121966 9.1792699,-5.758888 13.8912209,-4.42863 7.735563,2.183878 2.851947,13.891336 10.267419,16.607378 6.641883,2.432706 18.751084,1.439561 21.742792,-3.542921 C 56.014992,25.892056 38.645205,20.226823 35.703305,12.692781 34.12297,8.6456268 35.099342,0.07117969 35.099342,0.07117969" style="fill:none;fill-rule:evenodd;stroke:#ffffff;stroke-width:1.29189479;stroke-linecap:butt;stroke-linejoin:miter;stroke-miterlimit:4;stroke-dasharray:none;stroke-opacity:1"></path> <path id="path4493" d="m 0.116121,66.778904 c 0,0 18.528382,-3.54523 27.882167,-3.41661 7.641564,0.10507 15.069147,3.77439 22.704048,3.41661 5.309137,-0.24881 15.534348,-3.84369 15.534348,-3.84369" style="fill:none;fill-rule:evenodd;stroke:#ffffff;stroke-width:1.23577797;stroke-linecap:butt;stroke-linejoin:miter;stroke-miterlimit:4;stroke-dasharray:none;stroke-opacity:1"></path> <path style="opacity:1;fill:#eabc5d;fill-opacity:0.99521532;stroke:#000000;stroke-width:0.24553293;stroke-linejoin:round;stroke-miterlimit:4;stroke-dasharray:none;stroke-dashoffset:0;stroke-opacity:1" id="path4501" d="m 50.578894,69.306534 a 3.5588756,3.5999172 0 0 1 -2.294865,-4.5104 3.5588756,3.5999172 0 0 1 4.442355,-2.35373 3.5588756,3.5999172 0 0 1 2.358791,4.47654 3.5588756,3.5999172 0 0 1 -4.408412,2.41814"></path> <g transform="matrix(0.87451266,0,0,0.76327173,-8.3249795,-28.715024)" id="g4513"> <path style="opacity:1;fill:#ea1e5d;fill-opacity:0.99521532;stroke:#000000;stroke-width:0.30715871;stroke-linejoin:round;stroke-miterlimit:4;stroke-dasharray:none;stroke-dashoffset:0;stroke-opacity:1" id="path4503" d="m 50.647214,60.483151 a 4.2924972,4.6709099 0 0 1 -2.767926,-5.852271 4.2924972,4.6709099 0 0 1 5.358096,-3.053966 4.2924972,4.6709099 0 0 1 2.84503,5.808324 4.2924972,4.6709099 0 0 1 -5.317156,3.137549"></path> </g> <path style="fill:none;fill-rule:evenodd;stroke:#ffffff;stroke-width:1.23577797;stroke-linecap:butt;stroke-linejoin:miter;stroke-miterlimit:4;stroke-dasharray:none;stroke-opacity:1" d="m 118.06026,63.147434 c 0,0 18.52839,-3.54523 27.88217,-3.41661 7.64156,0.10507 15.06915,3.77439 22.70405,3.41661 5.30914,-0.24881 15.53435,-3.84369 15.53435,-3.84369" id="path4518"></path> <g id="g4522" transform="matrix(0.87451266,0,0,0.76327173,121.91356,19.771072)"> <path d="m 50.647214,60.483151 a 4.2924972,4.6709099 0 0 1 -2.767926,-5.852271 4.2924972,4.6709099 0 0 1 5.358096,-3.053966 4.2924972,4.6709099 0 0 1 2.84503,5.808324 4.2924972,4.6709099 0 0 1 -5.317156,3.137549" id="path4520" style="opacity:1;fill:#ea1e5d;fill-opacity:0.99521532;stroke:#000000;stroke-width:0.30715871;stroke-linejoin:round;stroke-miterlimit:4;stroke-dasharray:none;stroke-dashoffset:0;stroke-opacity:1"></path> </g> <g style="stroke:#ffffff" id="g4528" transform="matrix(0.90371814,0,0,0.8878332,117.82421,-36.461993)"> <g style="stroke:#ffffff" id="g4526"> <path style="fill:none;fill-rule:evenodd;stroke:#ffffff;stroke-width:1.44226468;stroke-linecap:butt;stroke-linejoin:miter;stroke-miterlimit:4;stroke-dasharray:none;stroke-opacity:1" d="m 18.745867,87.813276 c 0,0 -5.340031,-13.983874 -0.668319,-19.453721 3.003272,-3.516388 10.157227,-6.486453 15.371188,-4.988133 8.559707,2.459784 3.155792,15.646335 11.361306,18.705515 7.349507,2.740049 20.748819,1.621432 24.059263,-3.990525 C 73.634693,70.007839 54.414334,63.626874 51.159005,55.140998 49.410302,50.582536 50.490696,40.924813 50.490696,40.924813" id="path4524"></path> </g> </g> <path d="m 163.96602,17.524748 a 3.5588756,3.5999172 0 0 1 -2.29487,-4.510405 3.5588756,3.5999172 0 0 1 4.44236,-2.353722 3.5588756,3.5999172 0 0 1 2.35879,4.476534 3.5588756,3.5999172 0 0 1 -4.40841,2.41814" id="path4530" style="opacity:1;fill:#eabc5d;fill-opacity:0.99521532;stroke:#000000;stroke-width:0.24553293;stroke-linejoin:round;stroke-miterlimit:4;stroke-dasharray:none;stroke-dashoffset:0;stroke-opacity:1"></path>
</svg>
