<?xml version="1.0"?>

<svg xmlns:dc="http://purl.org/dc/elements/1.1/" xmlns:cc="http://creativecommons.org/ns#" xmlns:rdf="http://www.w3.org/1999/02/22-rdf-syntax-ns#" xmlns:svg="http://www.w3.org/2000/svg" xmlns="http://www.w3.org/2000/svg" id="svg8" version="1.1" viewBox="0 0 184.57475 74.802872" height="74.802872" width="184.57475"> <defs id="defs2"> <marker orient="auto" refY="0" refX="0" id="marker5605" style="overflow:visible"> <path id="path5603" d="M 0,0 5,-5 -12.5,0 5,5 Z" style="fill:#818181;fill-opacity:1;fill-rule:evenodd;stroke:#818181;stroke-width:1.00000003pt;stroke-opacity:1" transform="matrix(-0.2,0,0,-0.2,-1.2,0)"></path> </marker> <marker style="overflow:visible" id="Arrow1Mend" refX="0" refY="0" orient="auto"> <path transform="matrix(-0.4,0,0,-0.4,-4,0)" style="fill:#000000;fill-opacity:1;fill-rule:evenodd;stroke:#000000;stroke-width:1.00000003pt;stroke-opacity:1" d="M 0,0 5,-5 -12.5,0 5,5 Z" id="path4553"></path> </marker> <marker style="overflow:visible" id="Arrow2Lend" refX="0" refY="0" orient="auto"> <path transform="matrix(-1.1,0,0,-1.1,-1.1,0)" d="M 8.7185878,4.0337352 -2.2072895,0.01601326 8.7185884,-4.0017078 c -1.7454984,2.3720609 -1.7354408,5.6174519 -6e-7,8.035443 z" style="fill:#000000;fill-opacity:1;fill-rule:evenodd;stroke:#000000;stroke-width:0.625;stroke-linejoin:round;stroke-opacity:1" id="path4565"></path> </marker> <marker style="overflow:visible" id="Arrow1Lend" refX="0" refY="0" orient="auto"> <path transform="matrix(-0.8,0,0,-0.8,-10,0)" style="fill:#000000;fill-opacity:1;fill-rule:evenodd;stroke:#000000;stroke-width:1.00000003pt;stroke-opacity:1" d="M 0,0 5,-5 -12.5,0 5,5 Z" id="path4547"></path> </marker> <marker orient="auto" refY="0" refX="0" id="Arrow1Lend-5" style="overflow:visible"> <path id="path4084" d="M 0,0 5,-5 -12.5,0 5,5 0,0 z" style="fill-rule:evenodd;stroke:#000000;stroke-width:1pt" transform="matrix(-0.8,0,0,-0.8,-10,0)"></path> </marker> <marker orient="auto" refY="0" refX="0" id="Arrow2Lend-1" style="overflow:visible"> <path id="path4102" style="fill-rule:evenodd;stroke-width:0.625;stroke-linejoin:round" d="M 8.7185878,4.0337352 -2.2072895,0.01601326 8.7185884,-4.0017078 c -1.7454984,2.3720609 -1.7354408,5.6174519 -6e-7,8.035443 z" transform="matrix(-1.1,0,0,-1.1,-1.1,0)"></path> </marker> </defs> <metadata id="metadata5"> <rdf:rdf> <cc:work rdf:about=""> <dc:format>image/svg+xml</dc:format> <dc:type rdf:resource="http://purl.org/dc/dcmitype/StillImage"></dc:type> <dc:title></dc:title> </cc:work> </rdf:rdf> </metadata> <g transform="translate(-12.011951,-40.847396)" id="layer1"> <g style="stroke:#ffffff" transform="matrix(0.90371814,0,0,0.8878332,2.4524742,21.993297)" id="g4510"> <g style="stroke:#ffffff" id="g4516"> <path id="path4489" d="m 18.745867,87.813276 c 0,0 -5.340031,-13.983874 -0.668319,-19.453721 3.003272,-3.516388 10.157227,-6.486453 15.371188,-4.988133 8.559707,2.459784 3.155792,15.646335 11.361306,18.705515 7.349507,2.740049 20.748819,1.621432 24.059263,-3.990525 C 73.634693,70.007839 54.414334,63.626874 51.159005,55.140998 49.410302,50.582536 50.490696,40.924813 50.490696,40.924813" style="fill:none;fill-rule:evenodd;stroke:#ffffff;stroke-width:1.44226468;stroke-linecap:butt;stroke-linejoin:miter;stroke-miterlimit:4;stroke-dasharray:none;stroke-opacity:1"></path> </g> </g> <g style="stroke:#ffffff" id="g4528" transform="matrix(0.90371814,0,0,0.8878332,128.70223,20.827368)"> <g style="stroke:#ffffff" id="g4526"> <path style="fill:none;fill-rule:evenodd;stroke:#ffffff;stroke-width:1.44226468;stroke-linecap:butt;stroke-linejoin:miter;stroke-miterlimit:4;stroke-dasharray:none;stroke-opacity:1" d="m 18.745867,87.813276 c 0,0 -5.340031,-13.983874 -0.668319,-19.453721 3.003272,-3.516388 10.157227,-6.486453 15.371188,-4.988133 8.559707,2.459784 3.155792,15.646335 11.361306,18.705515 7.349507,2.740049 20.748819,1.621432 24.059263,-3.990525 C 73.634693,70.007839 54.414334,63.626874 51.159005,55.140998 49.410302,50.582536 50.490696,40.924813 50.490696,40.924813" id="path4524"></path> </g> </g> <ellipse style="fill:#e01e1e;fill-opacity:1;stroke:#ffffff;stroke-width:0.45807362;stroke-linejoin:bevel;stroke-miterlimit:4;stroke-dasharray:none;stroke-opacity:1" id="path3828" cx="161.8916" cy="64.304237" rx="5.5542593" ry="2.6142948"></ellipse> <ellipse style="fill:#e01e27;fill-opacity:1;stroke:#ffffff;stroke-width:0.60854167;stroke-linejoin:bevel;stroke-miterlimit:4;stroke-dasharray:none;stroke-opacity:1" id="path3838" cx="61.531895" cy="66.709656" rx="5.4790254" ry="4.677217"></ellipse> <text id="text4534" y="225.73503" x="42.422123" style="font-style:normal;font-weight:normal;font-size:3.17499995px;line-height:0%;font-family:sans-serif;letter-spacing:0px;word-spacing:0px;fill:#000000;fill-opacity:1;stroke:none;stroke-width:0.26458332" xml:space="preserve"><tspan style="font-size:10.58333302px;line-height:1.25;font-family:sans-serif;stroke-width:0.26458332" y="225.73503" x="42.422123" id="tspan4536">affinité stabilité</tspan></text> <path id="path6425" d="m 48.864628,71.427054 c 7.559524,-2.456847 7.559524,-2.456847 7.559524,-2.456847" style="fill:none;fill-rule:evenodd;stroke:#ffffff;stroke-width:0.26458332px;stroke-linecap:butt;stroke-linejoin:miter;stroke-opacity:1"></path> <path id="path6427" d="m 166.22647,65.670865 c 8.28535,4.009044 8.28535,4.009044 8.28535,4.009044" style="fill:none;fill-rule:evenodd;stroke:#ffffff;stroke-width:0.26458332px;stroke-linecap:butt;stroke-linejoin:miter;stroke-opacity:1"></path> </g>
</svg>
