<?xml version="1.0"?>

<svg xmlns:dc="http://purl.org/dc/elements/1.1/" xmlns:cc="http://creativecommons.org/ns#" xmlns:rdf="http://www.w3.org/1999/02/22-rdf-syntax-ns#" xmlns:svg="http://www.w3.org/2000/svg" xmlns="http://www.w3.org/2000/svg" xmlns:xlink="http://www.w3.org/1999/xlink" height="345" version="1.1" viewBox="0 0 460 345" width="460" id="svg464"> <metadata id="metadata468"> <rdf:rdf> <cc:work rdf:about=""> <dc:format>image/svg+xml</dc:format> <dc:type rdf:resource="http://purl.org/dc/dcmitype/StillImage"></dc:type> <dc:title></dc:title> </cc:work> </rdf:rdf> </metadata> <defs id="defs4"> <style type="text/css" id="style2">
*{stroke-linecap:butt;stroke-linejoin:round;} </style> </defs> <g style="stroke-linecap:butt;stroke-linejoin:round" id="patch_1"> <path id="path6" style="fill:#ffffff;stroke-linecap:butt;stroke-linejoin:round" d="M 0,345.6 H 460.8 V 0 H 0 Z"></path> </g> <g id="patch_2" style="stroke-linecap:butt;stroke-linejoin:round"> <path d="M 57.6,307.584 H 396.864 V 41.472 H 57.6 Z" style="fill:#ffffff;stroke-linecap:butt;stroke-linejoin:round" id="path9"></path> </g> <g id="matplotlib.axis_1" style="stroke-linecap:butt;stroke-linejoin:round" transform="translate(6.1648798,73.36207)"> <g id="g1721" transform="translate(-5.6669969,-103.34016)" style="stroke-linecap:butt;stroke-linejoin:round"> <g transform="translate(-0.61648798,30.207911)" style="stroke-linecap:butt;stroke-linejoin:round" id="g1163"> <defs id="defs1157"> <path style="stroke:#000000;stroke-width:0.80000001;stroke-linecap:butt;stroke-linejoin:round" id="path1155" d="M 0,0 V 3.5"></path> </defs> <g style="stroke-linecap:butt;stroke-linejoin:round" id="g1161"> <path d="m 57.599998,307.58401 v 3.5" id="use1159" style="stroke:#000000;stroke-width:0.80000001;stroke-linecap:butt;stroke-linejoin:round"></path> </g> </g> <g transform="translate(166.45176,30.207911)" style="stroke-linecap:butt;stroke-linejoin:round" id="g1185">  <defs id="defs1173"> <path style="stroke-linecap:butt;stroke-linejoin:round" id="path1165" d="m 12.40625,8.296875 h 16.109375 v 55.625 L 10.984375,60.40625 v 8.984375 l 17.4375,3.515625 H 38.28125 V 8.296875 H 54.390625 V 0 H 12.40625 Z"></path> <path style="stroke-linecap:butt;stroke-linejoin:round" id="path1167" d="M 64.40625,67.28125 V 56.890625 q -4.984375,4.640625 -10.625,6.921875 -5.640625,2.296875 -11.984375,2.296875 -12.5,0 -19.140625,-7.640625 -6.640625,-7.640625 -6.640625,-22.09375 0,-14.40625 6.640625,-22.046875 Q 29.296875,6.6875 41.796875,6.6875 q 6.34375,0 11.984375,2.296875 5.640625,2.296875 10.625,6.9375 V 5.609375 Q 59.234375,2.09375 53.4375,0.328125 q -5.78125,-1.75 -12.21875,-1.75 -16.5625,0 -26.09375,10.125 Q 5.609375,18.84375 5.609375,36.375 q 0,17.578125 9.515625,27.703125 9.53125,10.140625 26.09375,10.140625 6.53125,0 12.3125,-1.734375 5.796875,-1.734375 10.875,-5.203125"></path> <path style="stroke-linecap:butt;stroke-linejoin:round" id="path1169" d="m 9.8125,72.90625 h 9.859375 v -30.8125 l 32.71875,30.8125 H 65.09375 L 28.90625,38.921875 67.671875,0 H 54.6875 L 19.671875,35.109375 V 0 H 9.8125 Z"></path> <path style="stroke-linecap:butt;stroke-linejoin:round" id="path1171" d="M 34.1875,63.1875 20.796875,26.90625 h 26.8125 z m -5.578125,9.71875 h 11.1875 L 67.578125,0 h -10.25 L 50.6875,18.703125 H 17.828125 L 11.1875,0 H 0.78125 Z"></path> </defs> <g style="stroke-linecap:butt;stroke-linejoin:round" id="g1183" transform="matrix(0.1,0,0,-0.1,44.228906,322.18244)"> <path d="m 12.40625,8.296875 h 16.109375 v 55.625 L 10.984375,60.40625 v 8.984375 l 17.4375,3.515625 H 38.28125 V 8.296875 H 54.390625 V 0 H 12.40625 Z" id="use1175" style="stroke-linecap:butt;stroke-linejoin:round"></path> <path d="M 128.0293,67.28125 V 56.890625 q -4.98438,4.640625 -10.625,6.921875 -5.64063,2.296875 -11.98438,2.296875 -12.499998,0 -19.140623,-7.640625 -6.640625,-7.640625 -6.640625,-22.09375 0,-14.40625 6.640625,-22.046875 Q 92.919922,6.6875 105.41992,6.6875 q 6.34375,0 11.98438,2.296875 5.64062,2.296875 10.625,6.9375 v -10.3125 q -5.17188,-3.515625 -10.96875,-5.28125 -5.78125,-1.75 -12.21875,-1.75 -16.562503,0 -26.093753,10.125 -9.515625,10.140625 -9.515625,27.671875 0,17.578125 9.515625,27.703125 9.53125,10.140625 26.093753,10.140625 6.53125,0 12.3125,-1.734375 5.79687,-1.734375 10.875,-5.203125" id="use1177" style="stroke-linecap:butt;stroke-linejoin:round"></path> <path d="m 143.25977,72.90625 h 9.85937 v -30.8125 l 32.71875,30.8125 h 12.70313 L 162.35352,38.921875 201.11914,0 H 188.13477 L 153.11914,35.109375 V 0 h -9.85937 z" id="use1179" style="stroke-linecap:butt;stroke-linejoin:round"></path> <path d="M 233.19531,63.1875 219.80469,26.90625 h 26.8125 z m -5.57812,9.71875 h 11.1875 L 266.58594,0 h -10.25 l -6.64063,18.703125 H 216.83594 L 210.19531,0 h -10.40625 z" id="use1181" style="stroke-linecap:butt;stroke-linejoin:round"></path> </g> </g> <g transform="translate(-0.61648798,30.207911)" style="stroke-linecap:butt;stroke-linejoin:round" id="g1193"> <g style="stroke-linecap:butt;stroke-linejoin:round" id="g1191"> <path d="m 100.008,307.58401 v 3.5" id="use1189" style="stroke:#000000;stroke-width:0.80000001;stroke-linecap:butt;stroke-linejoin:round"></path> </g> </g> <g transform="translate(83.120105,30.207911)" style="stroke-linecap:butt;stroke-linejoin:round" id="g1211">  <defs id="defs1199"> <path style="stroke-linecap:butt;stroke-linejoin:round" id="path1195" d="M 19.671875,34.8125 V 8.109375 H 35.5 q 7.953125,0 11.78125,3.296875 3.84375,3.296875 3.84375,10.078125 0,6.84375 -3.84375,10.078125 -3.828125,3.25 -11.78125,3.25 z m 0,29.984375 V 42.828125 H 34.28125 q 7.21875,0 10.75,2.703125 3.546875,2.71875 3.546875,8.28125 0,5.515625 -3.546875,8.25 -3.53125,2.734375 -10.75,2.734375 z M 9.8125,72.90625 h 25.203125 q 11.28125,0 17.375,-4.6875 Q 58.5,63.53125 58.5,54.890625 58.5,48.1875 55.375,44.234375 52.25,40.28125 46.1875,39.3125 53.46875,37.75 57.5,32.78125 q 4.03125,-4.953125 4.03125,-12.375 0,-9.765625 -6.640625,-15.09375 Q 48.25,0 35.984375,0 H 9.8125 Z"></path> <path style="stroke-linecap:butt;stroke-linejoin:round" id="path1197" d="m 39.40625,66.21875 q -10.75,0 -17.078125,-8.015625 -6.3125,-8 -6.3125,-21.828125 0,-13.765625 6.3125,-21.78125 6.328125,-8 17.078125,-8 10.734375,0 17.015625,8 6.28125,8.015625 6.28125,21.78125 0,13.828125 -6.28125,21.828125 -6.28125,8.015625 -17.015625,8.015625 m 0,8 q 15.328125,0 24.5,-10.28125 9.1875,-10.28125 9.1875,-27.5625 0,-17.234375 -9.1875,-27.515625 -9.171875,-10.28125 -24.5,-10.28125 -15.375,0 -24.59375,10.25 Q 5.609375,19.09375 5.609375,36.375 q 0,17.28125 9.203125,27.5625 9.21875,10.28125 24.59375,10.28125"></path> </defs> <g style="stroke-linecap:butt;stroke-linejoin:round" id="g1209" transform="matrix(0.1,0,0,-0.1,86.040812,322.18244)"> <path d="m 12.40625,8.296875 h 16.109375 v 55.625 L 10.984375,60.40625 v 8.984375 l 17.4375,3.515625 H 38.28125 V 8.296875 H 54.390625 V 0 H 12.40625 Z" id="use1201" style="stroke-linecap:butt;stroke-linejoin:round"></path> <path d="M 97.810547,63.1875 84.419922,26.90625 h 26.812498 z m -5.578125,9.71875 H 103.41992 L 131.20117,0 h -10.25 l -6.64062,18.703125 H 81.451172 L 74.810547,0 h -10.40625 z" id="use1203" style="stroke-linecap:butt;stroke-linejoin:round"></path> <path d="M 151.70312,34.8125 V 8.109375 h 15.82813 q 7.95312,0 11.78125,3.296875 3.84375,3.296875 3.84375,10.078125 0,6.84375 -3.84375,10.078125 -3.82813,3.25 -11.78125,3.25 z m 0,29.984375 v -21.96875 h 14.60938 q 7.21875,0 10.75,2.703125 3.54687,2.71875 3.54687,8.28125 0,5.515625 -3.54687,8.25 -3.53125,2.734375 -10.75,2.734375 z m -9.85937,8.109375 h 25.20312 q 11.28125,0 17.375,-4.6875 6.10938,-4.6875 6.10938,-13.328125 0,-6.703125 -3.125,-10.65625 -3.125,-3.953125 -9.1875,-4.921875 7.28125,-1.5625 11.3125,-6.53125 4.03125,-4.953125 4.03125,-12.375 0,-9.765625 -6.64063,-15.09375 Q 180.28125,0 168.01562,0 h -26.17187 z" id="use1205" style="stroke-linecap:butt;stroke-linejoin:round"></path> <path d="m 240.02539,66.21875 q -10.75,0 -17.07812,-8.015625 -6.3125,-8 -6.3125,-21.828125 0,-13.765625 6.3125,-21.78125 6.32812,-8 17.07812,-8 10.73438,0 17.01563,8 6.28125,8.015625 6.28125,21.78125 0,13.828125 -6.28125,21.828125 -6.28125,8.015625 -17.01563,8.015625 m 0,8 q 15.32813,0 24.5,-10.28125 9.1875,-10.28125 9.1875,-27.5625 0,-17.234375 -9.1875,-27.515625 -9.17187,-10.28125 -24.5,-10.28125 -15.375,0 -24.59375,10.25 -9.20312,10.265625 -9.20312,27.546875 0,17.28125 9.20312,27.5625 9.21875,10.28125 24.59375,10.28125" id="use1207" style="stroke-linecap:butt;stroke-linejoin:round"></path> </g> </g> <g transform="translate(-0.61648798,30.207911)" style="stroke-linecap:butt;stroke-linejoin:round" id="g1219"> <g style="stroke-linecap:butt;stroke-linejoin:round" id="g1217"> <path d="m 142.416,307.58401 v 3.5" id="use1215" style="stroke:#000000;stroke-width:0.80000001;stroke-linecap:butt;stroke-linejoin:round"></path> </g> </g> <g transform="translate(-85.69183,30.207911)" style="stroke-linecap:butt;stroke-linejoin:round" id="g1239">  <defs id="defs1227"> <path style="stroke-linecap:butt;stroke-linejoin:round" id="path1221" d="m 44.390625,34.1875 q 3.171875,-1.078125 6.171875,-4.59375 3,-3.515625 6.03125,-9.671875 L 66.609375,0 H 56 l -9.3125,18.703125 q -3.625,7.328125 -7.015625,9.71875 -3.390625,2.390625 -9.25,2.390625 h -10.75 V 0 H 9.8125 v 72.90625 h 22.265625 q 12.5,0 18.65625,-5.234375 6.15625,-5.21875 6.15625,-15.765625 0,-6.890625 -3.203125,-11.4375 -3.203125,-4.53125 -9.296875,-6.28125 m -24.71875,30.609375 v -25.875 h 12.40625 q 7.125,0 10.765625,3.296875 3.640625,3.296875 3.640625,9.6875 0,6.390625 -3.640625,9.640625 -3.640625,3.25 -10.765625,3.25 z"></path> <path style="stroke-linecap:butt;stroke-linejoin:round" id="path1223" d="m 33.015625,40.375 q -6.640625,0 -10.53125,-4.546875 -3.875,-4.53125 -3.875,-12.4375 0,-7.859375 3.875,-12.4375 3.890625,-4.5625 10.53125,-4.5625 6.640625,0 10.515625,4.5625 3.875,4.578125 3.875,12.4375 0,7.90625 -3.875,12.4375 Q 39.65625,40.375 33.015625,40.375 M 52.59375,71.296875 V 62.3125 q -3.71875,1.75 -7.5,2.671875 -3.78125,0.9375 -7.5,0.9375 -9.765625,0 -14.921875,-6.59375 -5.140625,-6.59375 -5.875,-19.921875 2.875,4.25 7.21875,6.515625 4.359375,2.265625 9.578125,2.265625 10.984375,0 17.359375,-6.671875 6.375,-6.65625 6.375,-18.125 0,-11.234375 -6.640625,-18.03125 -6.640625,-6.78125 -17.671875,-6.78125 -12.65625,0 -19.34375,9.6875 -6.6875,9.703125 -6.6875,28.109375 0,17.28125 8.203125,27.5625 8.203125,10.28125 22.015625,10.28125 3.71875,0 7.5,-0.734375 3.78125,-0.734375 7.890625,-2.1875"></path> <path style="stroke-linecap:butt;stroke-linejoin:round" id="path1225" d="m 9.8125,72.90625 h 9.859375 V 5.078125 q 0,-13.1875 -5,-19.140625 -5,-5.953125 -16.09375,-5.953125 h -3.75 v 8.296875 h 3.078125 q 6.53125,0 9.21875,3.671875 2.6875,3.65625 2.6875,13.125 z"></path> </defs> <g style="stroke-linecap:butt;stroke-linejoin:round" id="g1237" transform="matrix(0.1,0,0,-0.1,131.10428,322.18244)"> <path d="m 12.40625,8.296875 h 16.109375 v 55.625 L 10.984375,60.40625 v 8.984375 l 17.4375,3.515625 H 38.28125 V 8.296875 H 54.390625 V 0 H 12.40625 Z" id="use1229" style="stroke-linecap:butt;stroke-linejoin:round"></path> <path d="m 108.01367,34.1875 q 3.17188,-1.078125 6.17188,-4.59375 3,-3.515625 6.03125,-9.671875 L 130.23242,0 h -10.60937 l -9.3125,18.703125 q -3.625,7.328125 -7.01563,9.71875 -3.390623,2.390625 -9.249998,2.390625 h -10.75 V 0 h -9.859375 v 72.90625 h 22.265625 q 12.499998,0 18.656248,-5.234375 6.15625,-5.21875 6.15625,-15.765625 0,-6.890625 -3.20312,-11.4375 -3.20313,-4.53125 -9.29688,-6.28125 M 83.294922,64.796875 v -25.875 h 12.40625 q 7.124998,0 10.765628,3.296875 3.64062,3.296875 3.64062,9.6875 0,6.390625 -3.64062,9.640625 -3.64063,3.25 -10.765628,3.25 z" id="use1231" style="stroke-linecap:butt;stroke-linejoin:round"></path> <path d="m 166.12109,40.375 q -6.64062,0 -10.53125,-4.546875 -3.875,-4.53125 -3.875,-12.4375 0,-7.859375 3.875,-12.4375 3.89063,-4.5625 10.53125,-4.5625 6.64063,0 10.51563,4.5625 3.875,4.578125 3.875,12.4375 0,7.90625 -3.875,12.4375 -3.875,4.546875 -10.51563,4.546875 m 19.57813,30.921875 V 62.3125 q -3.71875,1.75 -7.5,2.671875 -3.78125,0.9375 -7.5,0.9375 -9.76563,0 -14.92188,-6.59375 -5.14062,-6.59375 -5.875,-19.921875 2.875,4.25 7.21875,6.515625 4.35938,2.265625 9.57813,2.265625 10.98437,0 17.35937,-6.671875 6.375,-6.65625 6.375,-18.125 0,-11.234375 -6.64062,-18.03125 -6.64063,-6.78125 -17.67188,-6.78125 -12.65625,0 -19.34375,9.6875 -6.6875,9.703125 -6.6875,28.109375 0,17.28125 8.20313,27.5625 8.20312,10.28125 22.01562,10.28125 3.71875,0 7.5,-0.734375 3.78125,-0.734375 7.89063,-2.1875" id="use1233" style="stroke-linecap:butt;stroke-linejoin:round"></path> <path d="m 206.54102,72.90625 h 9.85937 V 5.078125 q 0,-13.1875 -5,-19.140625 -5,-5.953125 -16.09375,-5.953125 h -3.75 v 8.296875 h 3.07813 q 6.53125,0 9.21875,3.671875 2.6875,3.65625 2.6875,13.125 z" id="use1235" style="stroke-linecap:butt;stroke-linejoin:round"></path> </g> </g> <g transform="translate(-0.61648798,30.207911)" style="stroke-linecap:butt;stroke-linejoin:round" id="g1247"> <g style="stroke-linecap:butt;stroke-linejoin:round" id="g1245"> <path d="m 184.82401,307.58401 v 3.5" id="use1243" style="stroke:#000000;stroke-width:0.80000001;stroke-linecap:butt;stroke-linejoin:round"></path> </g> </g> <g transform="translate(84.427874,30.207911)" style="stroke-linecap:butt;stroke-linejoin:round" id="g1265">  <defs id="defs1253"> <path style="stroke-linecap:butt;stroke-linejoin:round" id="path1249" d="M 59.515625,10.40625 V 29.984375 H 43.40625 v 8.109375 h 25.875 V 6.78125 Q 63.578125,2.734375 56.6875,0.65625 49.8125,-1.421875 42,-1.421875 q -17.09375,0 -26.75,9.984375 -9.640625,10 -9.640625,27.8125 0,17.875 9.640625,27.859375 9.65625,9.984375 26.75,9.984375 7.125,0 13.546875,-1.765625 6.421875,-1.75 11.84375,-5.171875 v -10.5 q -5.46875,4.640625 -11.625,6.984375 -6.15625,2.34375 -12.9375,2.34375 -13.390625,0 -20.109375,-7.46875 -6.703125,-7.46875 -6.703125,-22.265625 0,-14.75 6.703125,-22.21875 6.71875,-7.46875 20.109375,-7.46875 5.21875,0 9.3125,0.90625 4.109375,0.90625 7.375,2.8125"></path> <path style="stroke-linecap:butt;stroke-linejoin:round" id="path1251" d="M 10.984375,1.515625 V 10.5 Q 14.703125,8.734375 18.5,7.8125 q 3.8125,-0.921875 7.484375,-0.921875 9.765625,0 14.90625,6.5625 5.15625,6.5625 5.890625,19.953125 -2.828125,-4.203125 -7.1875,-6.453125 -4.34375,-2.25 -9.609375,-2.25 -10.9375,0 -17.3125,6.609375 -6.375,6.625 -6.375,18.109375 0,11.21875 6.640625,18 6.640625,6.796875 17.671875,6.796875 12.65625,0 19.3125,-9.703125 6.671875,-9.6875 6.671875,-28.140625 0,-17.234375 -8.1875,-27.515625 -8.171875,-10.28125 -21.984375,-10.28125 -3.71875,0 -7.53125,0.734375 -3.796875,0.734375 -7.90625,2.203125 m 19.625,30.90625 q 6.640625,0 10.515625,4.53125 3.890625,4.546875 3.890625,12.46875 0,7.859375 -3.890625,12.421875 -3.875,4.5625 -10.515625,4.5625 -6.640625,0 -10.515625,-4.5625 -3.875,-4.5625 -3.875,-12.421875 0,-7.921875 3.875,-12.46875 3.875,-4.53125 10.515625,-4.53125"></path> </defs> <g style="stroke-linecap:butt;stroke-linejoin:round" id="g1263" transform="matrix(0.1,0,0,-0.1,170.65134,322.18244)"> <path d="m 12.40625,8.296875 h 16.109375 v 55.625 L 10.984375,60.40625 v 8.984375 l 17.4375,3.515625 H 38.28125 V 8.296875 H 54.390625 V 0 H 12.40625 Z" id="use1255" style="stroke-linecap:butt;stroke-linejoin:round"></path> <path d="M 123.13867,10.40625 V 29.984375 H 107.0293 v 8.109375 h 25.875 V 6.78125 q -5.70313,-4.046875 -12.59375,-6.125 -6.875,-2.078125 -14.6875,-2.078125 -17.093753,0 -26.750003,9.984375 -9.640625,10 -9.640625,27.8125 0,17.875 9.640625,27.859375 9.65625,9.984375 26.750003,9.984375 7.125,0 13.54687,-1.765625 6.42188,-1.75 11.84375,-5.171875 v -10.5 q -5.46875,4.640625 -11.625,6.984375 -6.15625,2.34375 -12.9375,2.34375 -13.390623,0 -20.109373,-7.46875 -6.703125,-7.46875 -6.703125,-22.265625 0,-14.75 6.703125,-22.21875 6.71875,-7.46875 20.109373,-7.46875 5.21875,0 9.3125,0.90625 4.10938,0.90625 7.375,2.8125" id="use1257" style="stroke-linecap:butt;stroke-linejoin:round"></path> <path d="M 152.09766,1.515625 V 10.5 q 3.71875,-1.765625 7.51562,-2.6875 3.8125,-0.921875 7.48438,-0.921875 9.76562,0 14.90625,6.5625 5.15625,6.5625 5.89062,19.953125 -2.82812,-4.203125 -7.1875,-6.453125 -4.34375,-2.25 -9.60937,-2.25 -10.9375,0 -17.3125,6.609375 -6.375,6.625 -6.375,18.109375 0,11.21875 6.64062,18 6.64063,6.796875 17.67188,6.796875 12.65625,0 19.3125,-9.703125 6.67187,-9.6875 6.67187,-28.140625 0,-17.234375 -8.1875,-27.515625 -8.17187,-10.28125 -21.98437,-10.28125 -3.71875,0 -7.53125,0.734375 -3.79688,0.734375 -7.90625,2.203125 m 19.625,30.90625 q 6.64062,0 10.51562,4.53125 3.89063,4.546875 3.89063,12.46875 0,7.859375 -3.89063,12.421875 -3.875,4.5625 -10.51562,4.5625 -6.64063,0 -10.51563,-4.5625 -3.875,-4.5625 -3.875,-12.421875 0,-7.921875 3.875,-12.46875 3.875,-4.53125 10.51563,-4.53125" id="use1259" style="stroke-linecap:butt;stroke-linejoin:round"></path> <path d="m 244.14258,66.21875 q -10.75,0 -17.07813,-8.015625 -6.3125,-8 -6.3125,-21.828125 0,-13.765625 6.3125,-21.78125 6.32813,-8 17.07813,-8 10.73437,0 17.01562,8 6.28125,8.015625 6.28125,21.78125 0,13.828125 -6.28125,21.828125 -6.28125,8.015625 -17.01562,8.015625 m 0,8 q 15.32812,0 24.5,-10.28125 9.1875,-10.28125 9.1875,-27.5625 0,-17.234375 -9.1875,-27.515625 -9.17188,-10.28125 -24.5,-10.28125 -15.375,0 -24.59375,10.25 -9.20313,10.265625 -9.20313,27.546875 0,17.28125 9.20313,27.5625 9.21875,10.28125 24.59375,10.28125" id="use1261" style="stroke-linecap:butt;stroke-linejoin:round"></path> </g> </g> <g transform="translate(-0.61648798,30.207911)" style="stroke-linecap:butt;stroke-linejoin:round" id="g1273"> <g style="stroke-linecap:butt;stroke-linejoin:round" id="g1271"> <path d="m 227.23199,307.58401 v 3.5" id="use1269" style="stroke:#000000;stroke-width:0.80000001;stroke-linecap:butt;stroke-linejoin:round"></path> </g> </g> <g transform="translate(-86.308318,30.207911)" style="stroke-linecap:butt;stroke-linejoin:round" id="g1291">  <defs id="defs1279"> <path style="stroke-linecap:butt;stroke-linejoin:round" id="path1275" d="M 19.1875,8.296875 H 53.609375 V 0 H 7.328125 v 8.296875 q 5.609375,5.8125 15.296875,15.59375 9.703125,9.796875 12.1875,12.640625 4.734375,5.3125 6.609375,9 1.890625,3.6875 1.890625,7.25 0,5.8125 -4.078125,9.46875 -4.078125,3.671875 -10.625,3.671875 -4.640625,0 -9.796875,-1.609375 -5.140625,-1.609375 -11,-4.890625 v 9.96875 Q 13.765625,71.78125 18.9375,73 q 5.1875,1.21875 9.484375,1.21875 11.328125,0 18.0625,-5.671875 6.734375,-5.65625 6.734375,-15.125 0,-4.5 -1.6875,-8.53125 Q 49.859375,40.875 45.40625,35.40625 44.1875,33.984375 37.640625,27.21875 31.109375,20.453125 19.1875,8.296875"></path> <path style="stroke-linecap:butt;stroke-linejoin:round" id="path1277" d="M -0.203125,72.90625 H 10.40625 L 30.609375,42.921875 50.6875,72.90625 H 61.28125 L 35.5,34.71875 V 0 h -9.90625 v 34.71875 z"></path> </defs> <g style="stroke-linecap:butt;stroke-linejoin:round" id="g1289" transform="matrix(0.1,0,0,-0.1,213.69606,322.18244)"> <path d="M 19.1875,8.296875 H 53.609375 V 0 H 7.328125 v 8.296875 q 5.609375,5.8125 15.296875,15.59375 9.703125,9.796875 12.1875,12.640625 4.734375,5.3125 6.609375,9 1.890625,3.6875 1.890625,7.25 0,5.8125 -4.078125,9.46875 -4.078125,3.671875 -10.625,3.671875 -4.640625,0 -9.796875,-1.609375 -5.140625,-1.609375 -11,-4.890625 v 9.96875 Q 13.765625,71.78125 18.9375,73 q 5.1875,1.21875 9.484375,1.21875 11.328125,0 18.0625,-5.671875 6.734375,-5.65625 6.734375,-15.125 0,-4.5 -1.6875,-8.53125 Q 49.859375,40.875 45.40625,35.40625 44.1875,33.984375 37.640625,27.21875 31.109375,20.453125 19.1875,8.296875" id="use1281" style="stroke-linecap:butt;stroke-linejoin:round"></path> <path d="M 83.294922,34.8125 V 8.109375 h 15.828125 q 7.953123,0 11.781253,3.296875 3.84375,3.296875 3.84375,10.078125 0,6.84375 -3.84375,10.078125 -3.82813,3.25 -11.781253,3.25 z m 0,29.984375 v -21.96875 h 14.609375 q 7.218753,0 10.750003,2.703125 3.54687,2.71875 3.54687,8.28125 0,5.515625 -3.54687,8.25 -3.53125,2.734375 -10.750003,2.734375 z m -9.859375,8.109375 h 25.203125 q 11.281248,0 17.374998,-4.6875 6.10938,-4.6875 6.10938,-13.328125 0,-6.703125 -3.125,-10.65625 -3.125,-3.953125 -9.1875,-4.921875 7.28125,-1.5625 11.3125,-6.53125 4.03125,-4.953125 4.03125,-12.375 0,-9.765625 -6.64063,-15.09375 Q 111.87305,0 99.607422,0 H 73.435547 Z" id="use1283" style="stroke-linecap:butt;stroke-linejoin:round"></path> <path d="m 131.94531,72.90625 h 10.60938 l 20.20312,-29.984375 20.07813,29.984375 h 10.59375 L 167.64844,34.71875 V 0 h -9.90625 v 34.71875 z" id="use1285" style="stroke-linecap:butt;stroke-linejoin:round"></path> <path d="m 252.74805,10.40625 v 19.578125 h -16.10938 v 8.109375 h 25.875 V 6.78125 q -5.70312,-4.046875 -12.59375,-6.125 -6.875,-2.078125 -14.6875,-2.078125 -17.09375,0 -26.75,9.984375 -9.64062,10 -9.64062,27.8125 0,17.875 9.64062,27.859375 9.65625,9.984375 26.75,9.984375 7.125,0 13.54688,-1.765625 6.42187,-1.75 11.84375,-5.171875 v -10.5 q -5.46875,4.640625 -11.625,6.984375 -6.15625,2.34375 -12.9375,2.34375 -13.39063,0 -20.10938,-7.46875 -6.70312,-7.46875 -6.70312,-22.265625 0,-14.75 6.70312,-22.21875 6.71875,-7.46875 20.10938,-7.46875 5.21875,0 9.3125,0.90625 4.10937,0.90625 7.375,2.8125" id="use1287" style="stroke-linecap:butt;stroke-linejoin:round"></path> </g> </g> <g transform="translate(-0.61648798,30.207911)" style="stroke-linecap:butt;stroke-linejoin:round" id="g1299"> <g style="stroke-linecap:butt;stroke-linejoin:round" id="g1297"> <path d="m 269.64001,307.58401 v 3.5" id="use1295" style="stroke:#000000;stroke-width:0.80000001;stroke-linecap:butt;stroke-linejoin:round"></path> </g> </g> <g transform="translate(42.394502,30.207911)" style="stroke-linecap:butt;stroke-linejoin:round" id="g1315">  <defs id="defs1303"> <path style="stroke-linecap:butt;stroke-linejoin:round" id="path1301" d="M 9.8125,72.90625 H 24.515625 L 43.109375,23.296875 61.8125,72.90625 H 76.515625 V 0 h -9.625 v 64.015625 l -18.796875,-50 H 38.1875 l -18.796875,50 V 0 H 9.8125 Z"></path> </defs> <g style="stroke-linecap:butt;stroke-linejoin:round" id="g1313" transform="matrix(0.1,0,0,-0.1,255.53297,322.18244)"> <path d="m 12.40625,8.296875 h 16.109375 v 55.625 L 10.984375,60.40625 v 8.984375 l 17.4375,3.515625 H 38.28125 V 8.296875 H 54.390625 V 0 H 12.40625 Z" id="use1305" style="stroke-linecap:butt;stroke-linejoin:round"></path> <path d="M 83.294922,34.8125 V 8.109375 h 15.828125 q 7.953123,0 11.781253,3.296875 3.84375,3.296875 3.84375,10.078125 0,6.84375 -3.84375,10.078125 -3.82813,3.25 -11.781253,3.25 z m 0,29.984375 v -21.96875 h 14.609375 q 7.218753,0 10.750003,2.703125 3.54687,2.71875 3.54687,8.28125 0,5.515625 -3.54687,8.25 -3.53125,2.734375 -10.750003,2.734375 z m -9.859375,8.109375 h 25.203125 q 11.281248,0 17.374998,-4.6875 6.10938,-4.6875 6.10938,-13.328125 0,-6.703125 -3.125,-10.65625 -3.125,-3.953125 -9.1875,-4.921875 7.28125,-1.5625 11.3125,-6.53125 4.03125,-4.953125 4.03125,-12.375 0,-9.765625 -6.64063,-15.09375 Q 111.87305,0 99.607422,0 H 73.435547 Z" id="use1307" style="stroke-linecap:butt;stroke-linejoin:round"></path> <path d="m 142.03906,72.90625 h 14.70313 l 18.59375,-49.609375 18.70312,49.609375 h 14.70313 V 0 h -9.625 v 64.015625 l -18.79688,-50 h -9.90625 l -18.79687,50 V 0 h -9.57813 z" id="use1309" style="stroke-linecap:butt;stroke-linejoin:round"></path> <path d="m 237.69336,8.296875 h 34.42187 V 0 h -46.28125 v 8.296875 q 5.60938,5.8125 15.29688,15.59375 9.70312,9.796875 12.1875,12.640625 4.73437,5.3125 6.60937,9 1.89063,3.6875 1.89063,7.25 0,5.8125 -4.07813,9.46875 -4.07812,3.671875 -10.625,3.671875 -4.64062,0 -9.79687,-1.609375 -5.14063,-1.609375 -11,-4.890625 v 9.96875 q 5.95312,2.390625 11.125,3.609375 5.1875,1.21875 9.48437,1.21875 11.32813,0 18.0625,-5.671875 6.73438,-5.65625 6.73438,-15.125 0,-4.5 -1.6875,-8.53125 -1.67188,-4.015625 -6.125,-9.484375 -1.21875,-1.421875 -7.76563,-8.1875 -6.53125,-6.765625 -18.45312,-18.921875" id="use1311" style="stroke-linecap:butt;stroke-linejoin:round"></path> </g> </g> <g transform="translate(-0.61648798,30.207911)" style="stroke-linecap:butt;stroke-linejoin:round" id="g1323"> <g style="stroke-linecap:butt;stroke-linejoin:round" id="g1321"> <path d="m 312.048,307.58401 v 3.5" id="use1319" style="stroke:#000000;stroke-width:0.80000001;stroke-linecap:butt;stroke-linejoin:round"></path> </g> </g> <g transform="translate(85.548661,30.207911)" style="stroke-linecap:butt;stroke-linejoin:round" id="g1339">  <defs id="defs1327"> <path style="stroke-linecap:butt;stroke-linejoin:round" id="path1325" d="M 37.796875,64.3125 12.890625,25.390625 h 24.90625 z m -2.59375,8.59375 h 12.40625 V 25.390625 h 10.40625 V 17.1875 H 47.609375 V 0 h -9.8125 V 17.1875 H 4.890625 v 9.515625 z"></path> </defs> <g style="stroke-linecap:butt;stroke-linejoin:round" id="g1337" transform="matrix(0.1,0,0,-0.1,298.25816,322.18244)"> <path d="m 12.40625,8.296875 h 16.109375 v 55.625 L 10.984375,60.40625 v 8.984375 l 17.4375,3.515625 H 38.28125 V 8.296875 H 54.390625 V 0 H 12.40625 Z" id="use1329" style="stroke-linecap:butt;stroke-linejoin:round"></path> <path d="m 103.0293,66.21875 q -10.750003,0 -17.078128,-8.015625 -6.3125,-8 -6.3125,-21.828125 0,-13.765625 6.3125,-21.78125 6.328125,-8 17.078128,-8 10.73437,0 17.01562,8 6.28125,8.015625 6.28125,21.78125 0,13.828125 -6.28125,21.828125 -6.28125,8.015625 -17.01562,8.015625 m 0,8 q 15.32812,0 24.5,-10.28125 9.1875,-10.28125 9.1875,-27.5625 0,-17.234375 -9.1875,-27.515625 -9.17188,-10.28125 -24.5,-10.28125 -15.375003,0 -24.593753,10.25 -9.203125,10.265625 -9.203125,27.546875 0,17.28125 9.203125,27.5625 9.21875,10.28125 24.593753,10.28125" id="use1331" style="stroke-linecap:butt;stroke-linejoin:round"></path> <path d="M 180.13086,64.3125 155.22461,25.390625 h 24.90625 z m -2.59375,8.59375 h 12.40625 V 25.390625 h 10.40625 V 17.1875 H 189.94336 V 0 h -9.8125 v 17.1875 h -32.90625 v 9.515625 z" id="use1333" style="stroke-linecap:butt;stroke-linejoin:round"></path> <path d="M 270.36328,67.28125 V 56.890625 q -4.98437,4.640625 -10.625,6.921875 -5.64062,2.296875 -11.98437,2.296875 -12.5,0 -19.14063,-7.640625 -6.64062,-7.640625 -6.64062,-22.09375 0,-14.40625 6.64062,-22.046875 6.64063,-7.640625 19.14063,-7.640625 6.34375,0 11.98437,2.296875 5.64063,2.296875 10.625,6.9375 v -10.3125 q -5.17187,-3.515625 -10.96875,-5.28125 -5.78125,-1.75 -12.21875,-1.75 -16.5625,0 -26.09375,10.125 -9.51562,10.140625 -9.51562,27.671875 0,17.578125 9.51562,27.703125 9.53125,10.140625 26.09375,10.140625 6.53125,0 12.3125,-1.734375 5.79688,-1.734375 10.875,-5.203125" id="use1335" style="stroke-linecap:butt;stroke-linejoin:round"></path> </g> </g> <g transform="translate(-0.61648798,30.207911)" style="stroke-linecap:butt;stroke-linejoin:round" id="g1347"> <g style="stroke-linecap:butt;stroke-linejoin:round" id="g1345"> <path d="m 354.45599,307.58401 v 3.5" id="use1343" style="stroke:#000000;stroke-width:0.80000001;stroke-linecap:butt;stroke-linejoin:round"></path> </g> </g> <g transform="translate(-255.84251,30.207911)" style="stroke-linecap:butt;stroke-linejoin:round" id="g1359">  <g style="stroke-linecap:butt;stroke-linejoin:round" id="g1357" transform="matrix(0.1,0,0,-0.1,340.59819,322.18244)"> <path d="m 12.40625,8.296875 h 16.109375 v 55.625 L 10.984375,60.40625 v 8.984375 l 17.4375,3.515625 H 38.28125 V 8.296875 H 54.390625 V 0 H 12.40625 Z" id="use1349" style="stroke-linecap:butt;stroke-linejoin:round"></path> <path d="M 73.435547,72.90625 H 88.138672 L 106.73242,23.296875 125.43555,72.90625 h 14.70312 V 0 h -9.625 v 64.015625 l -18.79687,-50 h -9.90625 l -18.796878,50 V 0 h -9.578125 z" id="use1351" style="stroke-linecap:butt;stroke-linejoin:round"></path> <path d="m 182.91797,40.375 q -6.64063,0 -10.53125,-4.546875 -3.875,-4.53125 -3.875,-12.4375 0,-7.859375 3.875,-12.4375 3.89062,-4.5625 10.53125,-4.5625 6.64062,0 10.51562,4.5625 3.875,4.578125 3.875,12.4375 0,7.90625 -3.875,12.4375 -3.875,4.546875 -10.51562,4.546875 m 19.57812,30.921875 V 62.3125 q -3.71875,1.75 -7.5,2.671875 -3.78125,0.9375 -7.5,0.9375 -9.76562,0 -14.92187,-6.59375 -5.14063,-6.59375 -5.875,-19.921875 2.875,4.25 7.21875,6.515625 4.35937,2.265625 9.57812,2.265625 10.98438,0 17.35938,-6.671875 6.375,-6.65625 6.375,-18.125 0,-11.234375 -6.64063,-18.03125 -6.64062,-6.78125 -17.67187,-6.78125 -12.65625,0 -19.34375,9.6875 -6.6875,9.703125 -6.6875,28.109375 0,17.28125 8.20312,27.5625 8.20313,10.28125 22.01563,10.28125 3.71875,0 7.5,-0.734375 3.78125,-0.734375 7.89062,-2.1875" id="use1353" style="stroke-linecap:butt;stroke-linejoin:round"></path> <path d="m 225.93164,8.296875 h 16.10938 v 55.625 L 224.50977,60.40625 v 8.984375 l 17.4375,3.515625 h 9.85937 V 8.296875 h 16.10938 V 0 h -41.98438 z" id="use1355" style="stroke-linecap:butt;stroke-linejoin:round"></path> </g> </g> <g transform="translate(-0.61648798,30.207911)" style="stroke-linecap:butt;stroke-linejoin:round" id="g1367"> <g style="stroke-linecap:butt;stroke-linejoin:round" id="g1365"> <path d="m 396.86401,307.58401 v 3.5" id="use1363" style="stroke:#000000;stroke-width:0.80000001;stroke-linecap:butt;stroke-linejoin:round"></path> </g> </g> <g transform="translate(-42.575067,30.207911)" style="stroke-linecap:butt;stroke-linejoin:round" id="g1383">  <defs id="defs1371"> <path style="stroke-linecap:butt;stroke-linejoin:round" id="path1369" d="m 31.78125,34.625 q -7.03125,0 -11.0625,-3.765625 -4.015625,-3.765625 -4.015625,-10.34375 0,-6.59375 4.015625,-10.359375 4.03125,-3.765625 11.0625,-3.765625 7.03125,0 11.078125,3.78125 4.0625,3.796875 4.0625,10.34375 0,6.578125 -4.03125,10.34375 Q 38.875,34.625 31.78125,34.625 m -9.859375,4.1875 Q 15.578125,40.375 12.03125,44.71875 8.5,49.078125 8.5,55.328125 q 0,8.734375 6.21875,13.8125 6.234375,5.078125 17.0625,5.078125 10.890625,0 17.09375,-5.078125 6.203125,-5.078125 6.203125,-13.8125 0,-6.25 -3.546875,-10.609375 Q 48,40.375 41.703125,38.8125 q 7.125,-1.65625 11.09375,-6.5 3.984375,-4.828125 3.984375,-11.796875 0,-10.609375 -6.46875,-16.28125 -6.46875,-5.65625 -18.53125,-5.65625 -12.046875,0 -18.53125,5.65625 -6.46875,5.671875 -6.46875,16.28125 0,6.96875 4,11.796875 4.015625,4.84375 11.140625,6.5 M 18.3125,54.390625 q 0,-5.65625 3.53125,-8.828125 3.546875,-3.171875 9.9375,-3.171875 6.359375,0 9.9375,3.171875 3.59375,3.171875 3.59375,8.828125 0,5.671875 -3.59375,8.84375 -3.578125,3.171875 -9.9375,3.171875 -6.390625,0 -9.9375,-3.171875 Q 18.3125,60.0625 18.3125,54.390625"></path> </defs> <g style="stroke-linecap:butt;stroke-linejoin:round" id="g1381" transform="matrix(0.1,0,0,-0.1,383.89994,322.18244)"> <path d="m 12.40625,8.296875 h 16.109375 v 55.625 L 10.984375,60.40625 v 8.984375 l 17.4375,3.515625 H 38.28125 V 8.296875 H 54.390625 V 0 H 12.40625 Z" id="use1373" style="stroke-linecap:butt;stroke-linejoin:round"></path> <path d="M 97.810547,63.1875 84.419922,26.90625 h 26.812498 z m -5.578125,9.71875 H 103.41992 L 131.20117,0 h -10.25 l -6.64062,18.703125 H 81.451172 L 74.810547,0 h -10.40625 z" id="use1375" style="stroke-linecap:butt;stroke-linejoin:round"></path> <path d="m 163.8125,34.625 q -7.03125,0 -11.0625,-3.765625 -4.01563,-3.765625 -4.01563,-10.34375 0,-6.59375 4.01563,-10.359375 4.03125,-3.765625 11.0625,-3.765625 7.03125,0 11.07812,3.78125 4.0625,3.796875 4.0625,10.34375 0,6.578125 -4.03125,10.34375 Q 170.90625,34.625 163.8125,34.625 m -9.85938,4.1875 q -6.34375,1.5625 -9.89062,5.90625 -3.53125,4.359375 -3.53125,10.609375 0,8.734375 6.21875,13.8125 6.23437,5.078125 17.0625,5.078125 10.89062,0 17.09375,-5.078125 6.20312,-5.078125 6.20312,-13.8125 0,-6.25 -3.54687,-10.609375 -3.53125,-4.34375 -9.82813,-5.90625 7.125,-1.65625 11.09375,-6.5 3.98438,-4.828125 3.98438,-11.796875 0,-10.609375 -6.46875,-16.28125 -6.46875,-5.65625 -18.53125,-5.65625 -12.04688,0 -18.53125,5.65625 -6.46875,5.671875 -6.46875,16.28125 0,6.96875 4,11.796875 4.01562,4.84375 11.14062,6.5 m -3.60937,15.578125 q 0,-5.65625 3.53125,-8.828125 3.54687,-3.171875 9.9375,-3.171875 6.35937,0 9.9375,3.171875 3.59375,3.171875 3.59375,8.828125 0,5.671875 -3.59375,8.84375 -3.57813,3.171875 -9.9375,3.171875 -6.39063,0 -9.9375,-3.171875 -3.53125,-3.171875 -3.53125,-8.84375" id="use1377" style="stroke-linecap:butt;stroke-linejoin:round"></path> <path d="m 208.06055,8.296875 h 16.10937 v 55.625 L 206.63867,60.40625 v 8.984375 l 17.4375,3.515625 h 9.85938 V 8.296875 h 16.10937 V 0 h -41.98437 z" id="use1379" style="stroke-linecap:butt;stroke-linejoin:round"></path> </g> </g> </g> </g> <g id="matplotlib.axis_2" style="stroke-linecap:butt;stroke-linejoin:round"> <g id="ytick_1" style="stroke-linecap:butt;stroke-linejoin:round"> <g id="line2d_10" style="stroke-linecap:butt;stroke-linejoin:round"> <defs id="defs202"> <path d="M 0,0 H -3.5" id="m062f43cc09" style="stroke:#000000;stroke-width:0.80000001;stroke-linecap:butt;stroke-linejoin:round"></path> </defs> <g id="g206" style="stroke-linecap:butt;stroke-linejoin:round"> <use style="stroke:#000000;stroke-width:0.80000001;stroke-linecap:butt;stroke-linejoin:round" x="57.599998" xlink:href="#m062f43cc09" y="307.58401" id="use204" width="100%" height="100%"></use> </g> </g> <g id="text_10" style="stroke-linecap:butt;stroke-linejoin:round">  <defs id="defs210"> <path d="m 31.78125,66.40625 q -7.609375,0 -11.453125,-7.5 Q 16.5,51.421875 16.5,36.375 q 0,-14.984375 3.828125,-22.484375 3.84375,-7.5 11.453125,-7.5 7.671875,0 11.5,7.5 3.84375,7.5 3.84375,22.484375 0,15.046875 -3.84375,22.53125 -3.828125,7.5 -11.5,7.5 m 0,7.8125 q 12.265625,0 18.734375,-9.703125 6.46875,-9.6875 6.46875,-28.140625 0,-18.40625 -6.46875,-28.109375 -6.46875,-9.6875 -18.734375,-9.6875 -12.25,0 -18.71875,9.6875 Q 6.59375,17.96875 6.59375,36.375 q 0,18.453125 6.46875,28.140625 6.46875,9.703125 18.71875,9.703125" id="DejaVuSans-30" style="stroke-linecap:butt;stroke-linejoin:round"></path> </defs> <g transform="matrix(0.1,0,0,-0.1,44.2375,311.38322)" id="g214" style="stroke-linecap:butt;stroke-linejoin:round"> <use xlink:href="#DejaVuSans-30" id="use212" style="stroke-linecap:butt;stroke-linejoin:round" x="0" y="0" width="100%" height="100%"></use> </g> </g> </g> <g id="ytick_2" style="stroke-linecap:butt;stroke-linejoin:round"> <g id="line2d_11" style="stroke-linecap:butt;stroke-linejoin:round"> <g id="g220" style="stroke-linecap:butt;stroke-linejoin:round"> <use style="stroke:#000000;stroke-width:0.80000001;stroke-linecap:butt;stroke-linejoin:round" x="57.599998" xlink:href="#m062f43cc09" y="259.20001" id="use218" width="100%" height="100%"></use> </g> </g> <g id="text_11" style="stroke-linecap:butt;stroke-linejoin:round">  <g transform="matrix(0.1,0,0,-0.1,44.2375,262.99922)" id="g225" style="stroke-linecap:butt;stroke-linejoin:round"> <path d="M 19.1875,8.296875 H 53.609375 V 0 H 7.328125 v 8.296875 q 5.609375,5.8125 15.296875,15.59375 9.703125,9.796875 12.1875,12.640625 4.734375,5.3125 6.609375,9 1.890625,3.6875 1.890625,7.25 0,5.8125 -4.078125,9.46875 -4.078125,3.671875 -10.625,3.671875 -4.640625,0 -9.796875,-1.609375 -5.140625,-1.609375 -11,-4.890625 v 9.96875 Q 13.765625,71.78125 18.9375,73 q 5.1875,1.21875 9.484375,1.21875 11.328125,0 18.0625,-5.671875 6.734375,-5.65625 6.734375,-15.125 0,-4.5 -1.6875,-8.53125 Q 49.859375,40.875 45.40625,35.40625 44.1875,33.984375 37.640625,27.21875 31.109375,20.453125 19.1875,8.296875" id="use223" style="stroke-linecap:butt;stroke-linejoin:round"></path> </g> </g> </g> <g id="ytick_3" style="stroke-linecap:butt;stroke-linejoin:round"> <g id="line2d_12" style="stroke-linecap:butt;stroke-linejoin:round"> <g id="g231" style="stroke-linecap:butt;stroke-linejoin:round"> <use style="stroke:#000000;stroke-width:0.80000001;stroke-linecap:butt;stroke-linejoin:round" x="57.599998" xlink:href="#m062f43cc09" y="210.81599" id="use229" width="100%" height="100%"></use> </g> </g> <g id="text_12" style="stroke-linecap:butt;stroke-linejoin:round">  <g transform="matrix(0.1,0,0,-0.1,44.2375,214.61522)" id="g236" style="stroke-linecap:butt;stroke-linejoin:round"> <path d="M 37.796875,64.3125 12.890625,25.390625 h 24.90625 z m -2.59375,8.59375 h 12.40625 V 25.390625 h 10.40625 V 17.1875 H 47.609375 V 0 h -9.8125 V 17.1875 H 4.890625 v 9.515625 z" id="use234" style="stroke-linecap:butt;stroke-linejoin:round"></path> </g> </g> </g> <g id="ytick_4" style="stroke-linecap:butt;stroke-linejoin:round"> <g id="line2d_13" style="stroke-linecap:butt;stroke-linejoin:round"> <g id="g242" style="stroke-linecap:butt;stroke-linejoin:round"> <use style="stroke:#000000;stroke-width:0.80000001;stroke-linecap:butt;stroke-linejoin:round" x="57.599998" xlink:href="#m062f43cc09" y="162.43201" id="use240" width="100%" height="100%"></use> </g> </g> <g id="text_13" style="stroke-linecap:butt;stroke-linejoin:round">  <g transform="matrix(0.1,0,0,-0.1,44.2375,166.23122)" id="g247" style="stroke-linecap:butt;stroke-linejoin:round"> <path d="m 33.015625,40.375 q -6.640625,0 -10.53125,-4.546875 -3.875,-4.53125 -3.875,-12.4375 0,-7.859375 3.875,-12.4375 3.890625,-4.5625 10.53125,-4.5625 6.640625,0 10.515625,4.5625 3.875,4.578125 3.875,12.4375 0,7.90625 -3.875,12.4375 Q 39.65625,40.375 33.015625,40.375 M 52.59375,71.296875 V 62.3125 q -3.71875,1.75 -7.5,2.671875 -3.78125,0.9375 -7.5,0.9375 -9.765625,0 -14.921875,-6.59375 -5.140625,-6.59375 -5.875,-19.921875 2.875,4.25 7.21875,6.515625 4.359375,2.265625 9.578125,2.265625 10.984375,0 17.359375,-6.671875 6.375,-6.65625 6.375,-18.125 0,-11.234375 -6.640625,-18.03125 -6.640625,-6.78125 -17.671875,-6.78125 -12.65625,0 -19.34375,9.6875 -6.6875,9.703125 -6.6875,28.109375 0,17.28125 8.203125,27.5625 8.203125,10.28125 22.015625,10.28125 3.71875,0 7.5,-0.734375 3.78125,-0.734375 7.890625,-2.1875" id="use245" style="stroke-linecap:butt;stroke-linejoin:round"></path> </g> </g> </g> <g id="ytick_5" style="stroke-linecap:butt;stroke-linejoin:round"> <g id="line2d_14" style="stroke-linecap:butt;stroke-linejoin:round"> <g id="g253" style="stroke-linecap:butt;stroke-linejoin:round"> <use style="stroke:#000000;stroke-width:0.80000001;stroke-linecap:butt;stroke-linejoin:round" x="57.599998" xlink:href="#m062f43cc09" y="114.048" id="use251" width="100%" height="100%"></use> </g> </g> <g id="text_14" style="stroke-linecap:butt;stroke-linejoin:round">  <g transform="matrix(0.1,0,0,-0.1,44.2375,117.84722)" id="g258" style="stroke-linecap:butt;stroke-linejoin:round"> <path d="m 31.78125,34.625 q -7.03125,0 -11.0625,-3.765625 -4.015625,-3.765625 -4.015625,-10.34375 0,-6.59375 4.015625,-10.359375 4.03125,-3.765625 11.0625,-3.765625 7.03125,0 11.078125,3.78125 4.0625,3.796875 4.0625,10.34375 0,6.578125 -4.03125,10.34375 Q 38.875,34.625 31.78125,34.625 m -9.859375,4.1875 Q 15.578125,40.375 12.03125,44.71875 8.5,49.078125 8.5,55.328125 q 0,8.734375 6.21875,13.8125 6.234375,5.078125 17.0625,5.078125 10.890625,0 17.09375,-5.078125 6.203125,-5.078125 6.203125,-13.8125 0,-6.25 -3.546875,-10.609375 Q 48,40.375 41.703125,38.8125 q 7.125,-1.65625 11.09375,-6.5 3.984375,-4.828125 3.984375,-11.796875 0,-10.609375 -6.46875,-16.28125 -6.46875,-5.65625 -18.53125,-5.65625 -12.046875,0 -18.53125,5.65625 -6.46875,5.671875 -6.46875,16.28125 0,6.96875 4,11.796875 4.015625,4.84375 11.140625,6.5 M 18.3125,54.390625 q 0,-5.65625 3.53125,-8.828125 3.546875,-3.171875 9.9375,-3.171875 6.359375,0 9.9375,3.171875 3.59375,3.171875 3.59375,8.828125 0,5.671875 -3.59375,8.84375 -3.578125,3.171875 -9.9375,3.171875 -6.390625,0 -9.9375,-3.171875 Q 18.3125,60.0625 18.3125,54.390625" id="use256" style="stroke-linecap:butt;stroke-linejoin:round"></path> </g> </g> </g> <g id="ytick_6" style="stroke-linecap:butt;stroke-linejoin:round"> <g id="line2d_15" style="stroke-linecap:butt;stroke-linejoin:round"> <g id="g264" style="stroke-linecap:butt;stroke-linejoin:round"> <use style="stroke:#000000;stroke-width:0.80000001;stroke-linecap:butt;stroke-linejoin:round" x="57.599998" xlink:href="#m062f43cc09" y="65.664001" id="use262" width="100%" height="100%"></use> </g> </g> <g id="text_15" style="stroke-linecap:butt;stroke-linejoin:round">  <g transform="matrix(0.1,0,0,-0.1,37.875,69.463219)" id="g271" style="stroke-linecap:butt;stroke-linejoin:round"> <path d="m 12.40625,8.296875 h 16.109375 v 55.625 L 10.984375,60.40625 v 8.984375 l 17.4375,3.515625 H 38.28125 V 8.296875 H 54.390625 V 0 H 12.40625 Z" id="use267" style="stroke-linecap:butt;stroke-linejoin:round"></path> <use x="63.623047" xlink:href="#DejaVuSans-30" id="use269" style="stroke-linecap:butt;stroke-linejoin:round" y="0" width="100%" height="100%"></use> </g> </g> </g> <g id="text_16" style="stroke-linecap:butt;stroke-linejoin:round">  <defs id="defs287"> <path d="M 34.1875,63.1875 14.15625,8.203125 H 54.25 Z M 0.78125,0 28.609375,72.90625 h 11.1875 L 67.578125,0 Z" id="DejaVuSans-394" style="stroke-linecap:butt;stroke-linejoin:round"></path> <path d="m 9.8125,72.90625 h 46.09375 v -8.3125 H 19.671875 V 43.015625 h 34.71875 V 34.71875 H 19.671875 V 8.296875 H 56.78125 V 0 H 9.8125 Z" id="DejaVuSans-45" style="stroke-linecap:butt;stroke-linejoin:round"></path> <path id="DejaVuSans-20" d="" style="stroke-linecap:butt;stroke-linejoin:round"></path> <path d="M 31,75.875 Q 24.46875,64.65625 21.28125,53.65625 18.109375,42.671875 18.109375,31.390625 18.109375,20.125 21.3125,9.0625 24.515625,-2 31,-13.1875 H 23.1875 Q 15.875,-1.703125 12.234375,9.375 8.59375,20.453125 8.59375,31.390625 q 0,10.890625 3.609375,21.921875 3.625,11.046875 10.984375,22.5625 z" id="DejaVuSans-28" style="stroke-linecap:butt;stroke-linejoin:round"></path> <path d="m 9.078125,75.984375 h 9.03125 v -44.875 l 26.8125,23.578125 h 11.46875 l -29,-25.578125 L 57.625,0 H 45.90625 L 18.109375,26.703125 V 0 h -9.03125 z" id="DejaVuSans-6b" style="stroke-linecap:butt;stroke-linejoin:round"></path> <path d="M 48.78125,52.59375 V 44.1875 q -3.8125,2.109375 -7.640625,3.15625 -3.828125,1.046875 -7.734375,1.046875 -8.75,0 -13.59375,-5.546875 -4.828125,-5.53125 -4.828125,-15.546875 0,-10.015625 4.828125,-15.5625 4.84375,-5.53125 13.59375,-5.53125 3.90625,0 7.734375,1.046875 3.828125,1.046875 7.640625,3.15625 v -8.3125 q -3.765625,-1.75 -7.796875,-2.625 -4.015625,-0.890625 -8.5625,-0.890625 -12.359375,0 -19.640625,7.765625 -7.265625,7.765625 -7.265625,20.953125 0,13.375 7.34375,21.03125 Q 20.21875,56 33.015625,56 q 4.140625,0 8.09375,-0.859375 3.953125,-0.84375 7.671875,-2.546875" id="DejaVuSans-63" style="stroke-linecap:butt;stroke-linejoin:round"></path> <path d="m 34.28125,27.484375 q -10.890625,0 -15.09375,-2.484375 -4.203125,-2.484375 -4.203125,-8.5 0,-4.78125 3.15625,-7.59375 3.15625,-2.796875 8.5625,-2.796875 7.484375,0 12,5.296875 4.515625,5.296875 4.515625,14.078125 v 2 z m 17.921875,3.71875 V 0 H 43.21875 v 8.296875 q -3.078125,-4.96875 -7.671875,-7.34375 -4.59375,-2.375 -11.234375,-2.375 -8.390625,0 -13.359375,4.71875 Q 6,8.015625 6,15.921875 q 0,9.21875 6.171875,13.90625 6.1875,4.6875 18.4375,4.6875 H 43.21875 v 0.890625 q 0,6.203125 -4.078125,9.59375 -4.078125,3.390625 -11.453125,3.390625 -4.6875,0 -9.140625,-1.125 -4.4375,-1.125 -8.53125,-3.375 v 8.3125 q 4.921875,1.90625 9.5625,2.84375 Q 24.21875,56 28.609375,56 q 11.875,0 17.734375,-6.15625 5.859375,-6.140625 5.859375,-18.640625" id="DejaVuSans-61" style="stroke-linecap:butt;stroke-linejoin:round"></path> <path d="M 9.421875,75.984375 H 18.40625 V 0 H 9.421875 Z" id="DejaVuSans-6c" style="stroke-linecap:butt;stroke-linejoin:round"></path> <path d="M 25.390625,72.90625 H 33.6875 L 8.296875,-9.28125 H 0 Z" id="DejaVuSans-2f" style="stroke-linecap:butt;stroke-linejoin:round"></path> <path d="M 52,44.1875 Q 55.375,50.25 60.0625,53.125 64.75,56 71.09375,56 q 8.546875,0 13.1875,-5.984375 4.640625,-5.96875 4.640625,-17 V 0 h -9.03125 v 32.71875 q 0,7.859375 -2.796875,11.65625 -2.78125,3.8125 -8.484375,3.8125 -6.984375,0 -11.046875,-4.640625 -4.046875,-4.625 -4.046875,-12.640625 V 0 h -9.03125 v 32.71875 q 0,7.90625 -2.78125,11.6875 -2.78125,3.78125 -8.59375,3.78125 -6.890625,0 -10.953125,-4.65625 -4.046875,-4.65625 -4.046875,-12.625 V 0 h -9.03125 v 54.6875 h 9.03125 v -8.5 q 3.078125,5.03125 7.375,7.421875 Q 29.78125,56 35.6875,56 41.65625,56 45.828125,52.96875 50,49.953125 52,44.1875" id="DejaVuSans-6d" style="stroke-linecap:butt;stroke-linejoin:round"></path> <path d="m 30.609375,48.390625 q -7.21875,0 -11.421875,-5.640625 -4.203125,-5.640625 -4.203125,-15.453125 0,-9.8125 4.171875,-15.453125 4.1875,-5.640625 11.453125,-5.640625 7.1875,0 11.375,5.65625 4.203125,5.671875 4.203125,15.4375 0,9.71875 -4.203125,15.40625 -4.1875,5.6875 -11.375,5.6875 m 0,7.609375 q 11.71875,0 18.40625,-7.625 6.703125,-7.609375 6.703125,-21.078125 0,-13.421875 -6.703125,-21.078125 -6.6875,-7.640625 -18.40625,-7.640625 -11.765625,0 -18.4375,7.640625 -6.65625,7.65625 -6.65625,21.078125 0,13.46875 6.65625,21.078125 Q 18.84375,56 30.609375,56" id="DejaVuSans-6f" style="stroke-linecap:butt;stroke-linejoin:round"></path> <path d="m 8.015625,75.875 h 7.8125 q 7.3125,-11.515625 10.953125,-22.5625 3.640625,-11.03125 3.640625,-21.921875 0,-10.9375 -3.640625,-22.015625 -3.640625,-11.078125 -10.953125,-22.5625 h -7.8125 Q 14.5,-2 17.703125,9.0625 20.90625,20.125 20.90625,31.390625 q 0,11.28125 -3.203125,22.265625 -3.203125,11 -9.6875,22.21875" id="DejaVuSans-29" style="stroke-linecap:butt;stroke-linejoin:round"></path> </defs> <g transform="matrix(0,-0.11,-0.11,0,31.587344,211.0162)" id="g315" style="stroke-linecap:butt;stroke-linejoin:round"> <use xlink:href="#DejaVuSans-394" id="use289" style="stroke-linecap:butt;stroke-linejoin:round" x="0" y="0" width="100%" height="100%"></use> <use x="68.408203" xlink:href="#DejaVuSans-45" id="use291" style="stroke-linecap:butt;stroke-linejoin:round" y="0" width="100%" height="100%"></use> <use x="131.5918" xlink:href="#DejaVuSans-20" id="use293" style="stroke-linecap:butt;stroke-linejoin:round" y="0" width="100%" height="100%"></use> <use x="163.37891" xlink:href="#DejaVuSans-28" id="use295" style="stroke-linecap:butt;stroke-linejoin:round" y="0" width="100%" height="100%"></use> <use x="202.39258" xlink:href="#DejaVuSans-6b" id="use297" style="stroke-linecap:butt;stroke-linejoin:round" y="0" width="100%" height="100%"></use> <use x="260.30273" xlink:href="#DejaVuSans-63" id="use299" style="stroke-linecap:butt;stroke-linejoin:round" y="0" width="100%" height="100%"></use> <use x="315.2832" xlink:href="#DejaVuSans-61" id="use301" style="stroke-linecap:butt;stroke-linejoin:round" y="0" width="100%" height="100%"></use> <use x="376.5625" xlink:href="#DejaVuSans-6c" id="use303" style="stroke-linecap:butt;stroke-linejoin:round" y="0" width="100%" height="100%"></use> <use x="404.3457" xlink:href="#DejaVuSans-2f" id="use305" style="stroke-linecap:butt;stroke-linejoin:round" y="0" width="100%" height="100%"></use> <use x="438.03711" xlink:href="#DejaVuSans-6d" id="use307" style="stroke-linecap:butt;stroke-linejoin:round" y="0" width="100%" height="100%"></use> <use x="535.44922" xlink:href="#DejaVuSans-6f" id="use309" style="stroke-linecap:butt;stroke-linejoin:round" y="0" width="100%" height="100%"></use> <use x="596.63086" xlink:href="#DejaVuSans-6c" id="use311" style="stroke-linecap:butt;stroke-linejoin:round" y="0" width="100%" height="100%"></use> <use x="624.41406" xlink:href="#DejaVuSans-29" id="use313" style="stroke-linecap:butt;stroke-linejoin:round" y="0" width="100%" height="100%"></use> </g> </g> </g> <g id="line2d_16" style="stroke-linecap:butt;stroke-linejoin:round"> <path clip-path="url(#pb54243acf4)" d="m 57.6,307.584 42.408,-24.192 42.408,-48.384 42.408,-24.192 42.408,-24.192 42.408,-48.384 42.408,-24.192 42.408,-24.192 42.408,-48.384" style="fill:none;stroke:#ff0000;stroke-width:4;stroke-linecap:square;stroke-linejoin:round" id="path319"></path> </g> <g id="line2d_17" style="stroke-linecap:butt;stroke-linejoin:round"> <path clip-path="url(#pb54243acf4)" d="m 57.6,138.24 42.408,169.344 h 42.408 42.408 L 227.232,259.2 269.64,138.24 312.048,65.664 h 42.408 l 42.408,72.576" style="fill:none;stroke:#008000;stroke-width:4;stroke-linecap:butt;stroke-linejoin:round;stroke-dasharray:11.2, 4.8;stroke-dashoffset:0" id="path322"></path> </g> <g id="line2d_18" style="stroke-linecap:butt;stroke-linejoin:round"> <path clip-path="url(#pb54243acf4)" d="m 57.6,259.2 42.408,24.192 42.408,-24.192 42.408,24.192 42.408,-72.576 42.408,96.768 42.408,-120.96 42.408,-72.576 42.408,72.576" style="fill:none;stroke:#0000ff;stroke-width:2;stroke-linecap:square;stroke-linejoin:round" id="path325"></path> </g> <g id="line2d_19" style="stroke-linecap:butt;stroke-linejoin:round"> <path clip-path="url(#pb54243acf4)" d="m 57.6,138.24 42.408,145.152 42.408,-169.344 42.408,96.768 42.408,48.384 42.408,-120.96 42.408,-72.576 42.408,96.768 42.408,-48.384" style="fill:none;stroke:#0000ff;stroke-width:2;stroke-linecap:butt;stroke-linejoin:round;stroke-dasharray:5.6, 2.4;stroke-dashoffset:0" id="path328"></path> </g> <g id="line2d_20" style="stroke-linecap:butt;stroke-linejoin:round"> <path clip-path="url(#pb54243acf4)" d="m 57.6,259.2 42.408,24.192 42.408,-24.192 42.408,48.384 h 42.408 L 269.64,138.24 312.048,259.2 h 42.408 l 42.408,-24.192" style="fill:none;stroke:#999999;stroke-width:4;stroke-linecap:butt;stroke-linejoin:round;stroke-dasharray:11.2, 4.8;stroke-dashoffset:0" id="path331"></path> </g> <g id="line2d_21" style="stroke-linecap:butt;stroke-linejoin:round"> <path clip-path="url(#pb54243acf4)" d="m 57.6,283.392 h 42.408 l 42.408,24.192 42.408,-72.576 42.408,48.384 42.408,-72.576 42.408,96.768 h 42.408 42.408" style="fill:none;stroke:#000000;stroke-width:4;stroke-linecap:square;stroke-linejoin:round" id="path334"></path> </g> <g id="line2d_22" style="stroke-linecap:butt;stroke-linejoin:round"> <path clip-path="url(#pb54243acf4)" d="m 57.6,259.2 42.408,24.192 42.408,24.192 42.408,-72.576 42.408,-48.384 h 42.408 l 42.408,24.192 42.408,96.768 42.408,-24.192" style="fill:none;stroke:#cccccc;stroke-width:3;stroke-linecap:butt;stroke-linejoin:round;stroke-dasharray:3.3, 3.3;stroke-dashoffset:0" id="path337"></path> </g> <g id="patch_3" style="stroke-linecap:butt;stroke-linejoin:round"> <path d="M 57.6,307.584 V 41.472" style="fill:none;stroke:#000000;stroke-width:0.80000001;stroke-linecap:square;stroke-linejoin:miter" id="path340"></path> </g> <g id="patch_4" style="stroke-linecap:butt;stroke-linejoin:round"> <path d="M 396.864,307.584 V 41.472" style="fill:none;stroke:#000000;stroke-width:0.80000001;stroke-linecap:square;stroke-linejoin:miter" id="path343"></path> </g> <g id="patch_5" style="stroke-linecap:butt;stroke-linejoin:round"> <path d="M 57.6,307.584 H 396.864" style="fill:none;stroke:#000000;stroke-width:0.80000001;stroke-linecap:square;stroke-linejoin:miter" id="path346"></path> </g> <g id="patch_6" style="stroke-linecap:butt;stroke-linejoin:round"> <path d="M 57.6,41.472 H 396.864" style="fill:none;stroke:#000000;stroke-width:0.80000001;stroke-linecap:square;stroke-linejoin:miter" id="path349"></path> </g> <g style="stroke-linecap:butt;stroke-linejoin:round" id="patch_7"> <path id="path352" style="opacity:0.8;fill:#ffffff;stroke:#cccccc;stroke-linecap:butt;stroke-linejoin:miter" d="m 403.164,214.01409 h 52.18031 q 1.8,0 1.8,-1.8 v -75.37218 q 0,-1.8 -1.8,-1.8 H 403.164 q -1.8,0 -1.8,1.8 v 75.37218 q 0,1.8 1.8,1.8 z"></path> </g> <g style="stroke-linecap:butt;stroke-linejoin:round" id="line2d_23"> <path id="path355" style="fill:none;stroke:#ff0000;stroke-width:4;stroke-linecap:square;stroke-linejoin:round" d="m 404.964,142.3305 h 18"></path> </g> <g style="stroke-linecap:butt;stroke-linejoin:round" id="line2d_24"></g> <g style="stroke-linecap:butt;stroke-linejoin:round" id="text_17">  <defs id="defs360"> <path style="stroke-linecap:butt;stroke-linejoin:round" id="DejaVuSans-48" d="m 9.8125,72.90625 h 9.859375 V 43.015625 h 35.84375 V 72.90625 H 65.375 V 0 H 55.515625 V 34.71875 H 19.671875 V 0 H 9.8125 Z"></path> </defs> <g style="stroke-linecap:butt;stroke-linejoin:round" id="g364" transform="matrix(0.09,0,0,-0.09,430.164,145.4805)"></g> </g> <g style="stroke-linecap:butt;stroke-linejoin:round" id="line2d_25"> <path id="path367" style="fill:none;stroke:#008000;stroke-width:4;stroke-linecap:butt;stroke-linejoin:round;stroke-dasharray:11.2, 4.8;stroke-dashoffset:0" d="m 404.964,152.84081 h 18"></path> </g> <g style="stroke-linecap:butt;stroke-linejoin:round" id="line2d_26"></g> <g style="stroke-linecap:butt;stroke-linejoin:round" id="text_18">  <g style="stroke-linecap:butt;stroke-linejoin:round" id="g375" transform="matrix(0.09,0,0,-0.09,430.164,155.99081)"> <path style="stroke-linecap:butt;stroke-linejoin:round" id="use371" d="M 9.8125,72.90625 H 24.515625 L 43.109375,23.296875 61.8125,72.90625 H 76.515625 V 0 h -9.625 v 64.015625 l -18.796875,-50 H 38.1875 l -18.796875,50 V 0 H 9.8125 Z"></path> <path style="stroke-linecap:butt;stroke-linejoin:round" id="use373" d="M 150.68555,67.28125 V 56.890625 q -4.98438,4.640625 -10.625,6.921875 -5.64063,2.296875 -11.98438,2.296875 -12.5,0 -19.14062,-7.640625 -6.64063,-7.640625 -6.64063,-22.09375 0,-14.40625 6.64063,-22.046875 6.64062,-7.640625 19.14062,-7.640625 6.34375,0 11.98438,2.296875 5.64062,2.296875 10.625,6.9375 v -10.3125 q -5.17188,-3.515625 -10.96875,-5.28125 -5.78125,-1.75 -12.21875,-1.75 -16.5625,0 -26.09375,10.125 -9.515628,10.140625 -9.515628,27.671875 0,17.578125 9.515628,27.703125 9.53125,10.140625 26.09375,10.140625 6.53125,0 12.3125,-1.734375 5.79687,-1.734375 10.875,-5.203125"></path> </g> </g> <g style="stroke-linecap:butt;stroke-linejoin:round" id="line2d_27"> <path id="path378" style="fill:none;stroke:#0000ff;stroke-width:2;stroke-linecap:square;stroke-linejoin:round" d="m 404.964,163.35112 h 18"></path> </g> <g style="stroke-linecap:butt;stroke-linejoin:round" id="line2d_28"></g> <g style="stroke-linecap:butt;stroke-linejoin:round" id="text_19">  <g style="stroke-linecap:butt;stroke-linejoin:round" id="g390" transform="matrix(0.09,0,0,-0.09,430.164,166.50112)"> <path style="stroke-linecap:butt;stroke-linejoin:round" id="use382" d="m 44.390625,34.1875 q 3.171875,-1.078125 6.171875,-4.59375 3,-3.515625 6.03125,-9.671875 L 66.609375,0 H 56 l -9.3125,18.703125 q -3.625,7.328125 -7.015625,9.71875 -3.390625,2.390625 -9.25,2.390625 h -10.75 V 0 H 9.8125 v 72.90625 h 22.265625 q 12.5,0 18.65625,-5.234375 6.15625,-5.21875 6.15625,-15.765625 0,-6.890625 -3.203125,-11.4375 -3.203125,-4.53125 -9.296875,-6.28125 m -24.71875,30.609375 v -25.875 h 12.40625 q 7.125,0 10.765625,3.296875 3.640625,3.296875 3.640625,9.6875 0,6.390625 -3.640625,9.640625 -3.640625,3.25 -10.765625,3.25 z"></path> <use height="100%" width="100%" y="0" style="stroke-linecap:butt;stroke-linejoin:round" id="use384" xlink:href="#DejaVuSans-45" x="69.482422"></use> <path style="stroke-linecap:butt;stroke-linejoin:round" id="use386" d="M 170.46289,64.3125 145.55664,25.390625 h 24.90625 z m -2.59375,8.59375 h 12.40625 V 25.390625 h 10.40625 V 17.1875 H 180.27539 V 0 h -9.8125 v 17.1875 h -32.90625 v 9.515625 z"></path> <use height="100%" width="100%" y="0" style="stroke-linecap:butt;stroke-linejoin:round" id="use388" xlink:href="#DejaVuSans-61" x="196.28906"></use> </g> </g> <g style="stroke-linecap:butt;stroke-linejoin:round" id="line2d_29"> <path id="path393" style="fill:none;stroke:#0000ff;stroke-width:2;stroke-linecap:butt;stroke-linejoin:round;stroke-dasharray:5.6, 2.4;stroke-dashoffset:0" d="m 404.964,173.86144 h 18"></path> </g> <g style="stroke-linecap:butt;stroke-linejoin:round" id="line2d_30"></g> <g style="stroke-linecap:butt;stroke-linejoin:round" id="text_20">  <defs id="defs398"> <path style="stroke-linecap:butt;stroke-linejoin:round" id="DejaVuSans-62" d="m 48.6875,27.296875 q 0,9.90625 -4.078125,15.546875 -4.078125,5.640625 -11.203125,5.640625 -7.140625,0 -11.21875,-5.640625 -4.078125,-5.640625 -4.078125,-15.546875 0,-9.90625 4.078125,-15.546875 4.078125,-5.640625 11.21875,-5.640625 7.125,0 11.203125,5.640625 4.078125,5.640625 4.078125,15.546875 m -30.578125,19.09375 q 2.84375,4.875 7.15625,7.234375 Q 29.59375,56 35.59375,56 q 9.96875,0 16.1875,-7.90625 6.234375,-7.90625 6.234375,-20.796875 0,-12.890625 -6.234375,-20.8125 -6.21875,-7.90625 -16.1875,-7.90625 -6,0 -10.328125,2.375 -4.3125,2.375 -7.15625,7.25 V 0 h -9.03125 v 75.984375 h 9.03125 z"></path> </defs> <g style="stroke-linecap:butt;stroke-linejoin:round" id="g408" transform="matrix(0.09,0,0,-0.09,430.164,177.01144)"> <path style="stroke-linecap:butt;stroke-linejoin:round" id="use400" d="m 44.390625,34.1875 q 3.171875,-1.078125 6.171875,-4.59375 3,-3.515625 6.03125,-9.671875 L 66.609375,0 H 56 l -9.3125,18.703125 q -3.625,7.328125 -7.015625,9.71875 -3.390625,2.390625 -9.25,2.390625 h -10.75 V 0 H 9.8125 v 72.90625 h 22.265625 q 12.5,0 18.65625,-5.234375 6.15625,-5.21875 6.15625,-15.765625 0,-6.890625 -3.203125,-11.4375 -3.203125,-4.53125 -9.296875,-6.28125 m -24.71875,30.609375 v -25.875 h 12.40625 q 7.125,0 10.765625,3.296875 3.640625,3.296875 3.640625,9.6875 0,6.390625 -3.640625,9.640625 -3.640625,3.25 -10.765625,3.25 z"></path> <use height="100%" width="100%" y="0" style="stroke-linecap:butt;stroke-linejoin:round" id="use402" xlink:href="#DejaVuSans-45" x="69.482422"></use> <path style="stroke-linecap:butt;stroke-linejoin:round" id="use404" d="M 170.46289,64.3125 145.55664,25.390625 h 24.90625 z m -2.59375,8.59375 h 12.40625 V 25.390625 h 10.40625 V 17.1875 H 180.27539 V 0 h -9.8125 v 17.1875 h -32.90625 v 9.515625 z"></path> <use height="100%" width="100%" y="0" style="stroke-linecap:butt;stroke-linejoin:round" id="use406" xlink:href="#DejaVuSans-62" x="196.28906"></use> </g> </g> <g style="stroke-linecap:butt;stroke-linejoin:round" id="line2d_31"> <path id="path411" style="fill:none;stroke:#999999;stroke-width:4;stroke-linecap:butt;stroke-linejoin:round;stroke-dasharray:11.2, 4.8;stroke-dashoffset:0" d="m 404.964,184.37175 h 18"></path> </g> <g style="stroke-linecap:butt;stroke-linejoin:round" id="line2d_32"></g> <g style="stroke-linecap:butt;stroke-linejoin:round" id="text_21">  <g style="stroke-linecap:butt;stroke-linejoin:round" id="g423" transform="matrix(0.09,0,0,-0.09,430.164,187.52175)"> <path style="stroke-linecap:butt;stroke-linejoin:round" id="use415" d="m 44.390625,34.1875 q 3.171875,-1.078125 6.171875,-4.59375 3,-3.515625 6.03125,-9.671875 L 66.609375,0 H 56 l -9.3125,18.703125 q -3.625,7.328125 -7.015625,9.71875 -3.390625,2.390625 -9.25,2.390625 h -10.75 V 0 H 9.8125 v 72.90625 h 22.265625 q 12.5,0 18.65625,-5.234375 6.15625,-5.21875 6.15625,-15.765625 0,-6.890625 -3.203125,-11.4375 -3.203125,-4.53125 -9.296875,-6.28125 m -24.71875,30.609375 v -25.875 h 12.40625 q 7.125,0 10.765625,3.296875 3.640625,3.296875 3.640625,9.6875 0,6.390625 -3.640625,9.640625 -3.640625,3.25 -10.765625,3.25 z"></path> <use height="100%" width="100%" y="0" style="stroke-linecap:butt;stroke-linejoin:round" id="use417" xlink:href="#DejaVuSans-45" x="69.482422"></use> <path style="stroke-linecap:butt;stroke-linejoin:round" id="use419" d="m 164.44727,34.625 q -7.03125,0 -11.0625,-3.765625 -4.01563,-3.765625 -4.01563,-10.34375 0,-6.59375 4.01563,-10.359375 4.03125,-3.765625 11.0625,-3.765625 7.03125,0 11.07812,3.78125 4.0625,3.796875 4.0625,10.34375 0,6.578125 -4.03125,10.34375 Q 171.54102,34.625 164.44727,34.625 m -9.85938,4.1875 q -6.34375,1.5625 -9.89062,5.90625 -3.53125,4.359375 -3.53125,10.609375 0,8.734375 6.21875,13.8125 6.23437,5.078125 17.0625,5.078125 10.89062,0 17.09375,-5.078125 6.20312,-5.078125 6.20312,-13.8125 0,-6.25 -3.54687,-10.609375 -3.53125,-4.34375 -9.82813,-5.90625 7.125,-1.65625 11.09375,-6.5 3.98438,-4.828125 3.98438,-11.796875 0,-10.609375 -6.46875,-16.28125 -6.46875,-5.65625 -18.53125,-5.65625 -12.04688,0 -18.53125,5.65625 -6.46875,5.671875 -6.46875,16.28125 0,6.96875 4,11.796875 4.01562,4.84375 11.14062,6.5 m -3.60937,15.578125 q 0,-5.65625 3.53125,-8.828125 3.54687,-3.171875 9.9375,-3.171875 6.35937,0 9.9375,3.171875 3.59375,3.171875 3.59375,8.828125 0,5.671875 -3.59375,8.84375 -3.57813,3.171875 -9.9375,3.171875 -6.39063,0 -9.9375,-3.171875 -3.53125,-3.171875 -3.53125,-8.84375"></path> <use height="100%" width="100%" y="0" style="stroke-linecap:butt;stroke-linejoin:round" id="use421" xlink:href="#DejaVuSans-61" x="196.28906"></use> </g> </g> <g style="stroke-linecap:butt;stroke-linejoin:round" id="line2d_33"> <path id="path426" style="fill:none;stroke:#000000;stroke-width:4;stroke-linecap:square;stroke-linejoin:round" d="m 404.964,194.88206 h 18"></path> </g> <g style="stroke-linecap:butt;stroke-linejoin:round" id="line2d_34"></g> <g style="stroke-linecap:butt;stroke-linejoin:round" id="text_22">  <g style="stroke-linecap:butt;stroke-linejoin:round" id="g438" transform="matrix(0.09,0,0,-0.09,430.164,198.03206)"> <path style="stroke-linecap:butt;stroke-linejoin:round" id="use430" d="m 44.390625,34.1875 q 3.171875,-1.078125 6.171875,-4.59375 3,-3.515625 6.03125,-9.671875 L 66.609375,0 H 56 l -9.3125,18.703125 q -3.625,7.328125 -7.015625,9.71875 -3.390625,2.390625 -9.25,2.390625 h -10.75 V 0 H 9.8125 v 72.90625 h 22.265625 q 12.5,0 18.65625,-5.234375 6.15625,-5.21875 6.15625,-15.765625 0,-6.890625 -3.203125,-11.4375 -3.203125,-4.53125 -9.296875,-6.28125 m -24.71875,30.609375 v -25.875 h 12.40625 q 7.125,0 10.765625,3.296875 3.640625,3.296875 3.640625,9.6875 0,6.390625 -3.640625,9.640625 -3.640625,3.25 -10.765625,3.25 z"></path> <use height="100%" width="100%" y="0" style="stroke-linecap:butt;stroke-linejoin:round" id="use432" xlink:href="#DejaVuSans-45" x="69.482422"></use> <path style="stroke-linecap:butt;stroke-linejoin:round" id="use434" d="m 164.44727,34.625 q -7.03125,0 -11.0625,-3.765625 -4.01563,-3.765625 -4.01563,-10.34375 0,-6.59375 4.01563,-10.359375 4.03125,-3.765625 11.0625,-3.765625 7.03125,0 11.07812,3.78125 4.0625,3.796875 4.0625,10.34375 0,6.578125 -4.03125,10.34375 Q 171.54102,34.625 164.44727,34.625 m -9.85938,4.1875 q -6.34375,1.5625 -9.89062,5.90625 -3.53125,4.359375 -3.53125,10.609375 0,8.734375 6.21875,13.8125 6.23437,5.078125 17.0625,5.078125 10.89062,0 17.09375,-5.078125 6.20312,-5.078125 6.20312,-13.8125 0,-6.25 -3.54687,-10.609375 -3.53125,-4.34375 -9.82813,-5.90625 7.125,-1.65625 11.09375,-6.5 3.98438,-4.828125 3.98438,-11.796875 0,-10.609375 -6.46875,-16.28125 -6.46875,-5.65625 -18.53125,-5.65625 -12.04688,0 -18.53125,5.65625 -6.46875,5.671875 -6.46875,16.28125 0,6.96875 4,11.796875 4.01562,4.84375 11.14062,6.5 m -3.60937,15.578125 q 0,-5.65625 3.53125,-8.828125 3.54687,-3.171875 9.9375,-3.171875 6.35937,0 9.9375,3.171875 3.59375,3.171875 3.59375,8.828125 0,5.671875 -3.59375,8.84375 -3.57813,3.171875 -9.9375,3.171875 -6.39063,0 -9.9375,-3.171875 -3.53125,-3.171875 -3.53125,-8.84375"></path> <use height="100%" width="100%" y="0" style="stroke-linecap:butt;stroke-linejoin:round" id="use436" xlink:href="#DejaVuSans-62" x="196.28906"></use> </g> </g> <g style="stroke-linecap:butt;stroke-linejoin:round" id="line2d_35"> <path id="path441" style="fill:none;stroke:#cccccc;stroke-width:3;stroke-linecap:butt;stroke-linejoin:round;stroke-dasharray:3.3, 3.3;stroke-dashoffset:0" d="m 404.964,205.39237 h 18"></path> </g> <g style="stroke-linecap:butt;stroke-linejoin:round" id="line2d_36"></g> <g style="stroke-linecap:butt;stroke-linejoin:round" id="text_23">  <g style="stroke-linecap:butt;stroke-linejoin:round" id="g453" transform="matrix(0.09,0,0,-0.09,430.164,208.54237)"> <path style="stroke-linecap:butt;stroke-linejoin:round" id="use445" d="m 44.390625,34.1875 q 3.171875,-1.078125 6.171875,-4.59375 3,-3.515625 6.03125,-9.671875 L 66.609375,0 H 56 l -9.3125,18.703125 q -3.625,7.328125 -7.015625,9.71875 -3.390625,2.390625 -9.25,2.390625 h -10.75 V 0 H 9.8125 v 72.90625 h 22.265625 q 12.5,0 18.65625,-5.234375 6.15625,-5.21875 6.15625,-15.765625 0,-6.890625 -3.203125,-11.4375 -3.203125,-4.53125 -9.296875,-6.28125 m -24.71875,30.609375 v -25.875 h 12.40625 q 7.125,0 10.765625,3.296875 3.640625,3.296875 3.640625,9.6875 0,6.390625 -3.640625,9.640625 -3.640625,3.25 -10.765625,3.25 z"></path> <use height="100%" width="100%" y="0" style="stroke-linecap:butt;stroke-linejoin:round" id="use447" xlink:href="#DejaVuSans-45" x="69.482422"></use> <path style="stroke-linecap:butt;stroke-linejoin:round" id="use449" d="m 164.44727,34.625 q -7.03125,0 -11.0625,-3.765625 -4.01563,-3.765625 -4.01563,-10.34375 0,-6.59375 4.01563,-10.359375 4.03125,-3.765625 11.0625,-3.765625 7.03125,0 11.07812,3.78125 4.0625,3.796875 4.0625,10.34375 0,6.578125 -4.03125,10.34375 Q 171.54102,34.625 164.44727,34.625 m -9.85938,4.1875 q -6.34375,1.5625 -9.89062,5.90625 -3.53125,4.359375 -3.53125,10.609375 0,8.734375 6.21875,13.8125 6.23437,5.078125 17.0625,5.078125 10.89062,0 17.09375,-5.078125 6.20312,-5.078125 6.20312,-13.8125 0,-6.25 -3.54687,-10.609375 -3.53125,-4.34375 -9.82813,-5.90625 7.125,-1.65625 11.09375,-6.5 3.98438,-4.828125 3.98438,-11.796875 0,-10.609375 -6.46875,-16.28125 -6.46875,-5.65625 -18.53125,-5.65625 -12.04688,0 -18.53125,5.65625 -6.46875,5.671875 -6.46875,16.28125 0,6.96875 4,11.796875 4.01562,4.84375 11.14062,6.5 m -3.60937,15.578125 q 0,-5.65625 3.53125,-8.828125 3.54687,-3.171875 9.9375,-3.171875 6.35937,0 9.9375,3.171875 3.59375,3.171875 3.59375,8.828125 0,5.671875 -3.59375,8.84375 -3.57813,3.171875 -9.9375,3.171875 -6.39063,0 -9.9375,-3.171875 -3.53125,-3.171875 -3.53125,-8.84375"></path> <use height="100%" width="100%" y="0" style="stroke-linecap:butt;stroke-linejoin:round" id="use451" xlink:href="#DejaVuSans-63" x="196.28906"></use> </g> </g> <defs id="defs462"> <clipPath id="pb54243acf4"> <rect height="266.112" width="339.264" x="57.6" y="41.472" id="rect459"></rect> </clipPath> </defs> <g transform="matrix(0.79572797,0,0,0.79572797,78.668317,24.174586)" id="g25449" style="stroke-linecap:butt;stroke-linejoin:round">  <text id="text25453" y="151.4686" x="441.23465" style="font-style:normal;font-weight:normal;font-size:10px;line-height:125%;font-family:Sans;letter-spacing:0px;word-spacing:0px;fill:#000000;fill-opacity:1;stroke:none;stroke-width:0.75px;stroke-linecap:butt;stroke-linejoin:miter;stroke-opacity:1" xml:space="preserve"><tspan y="151.4686" x="441.23465" style="font-size:11px;stroke-width:0.75px;stroke-linecap:butt;stroke-linejoin:round" id="tspan25451">MSD</tspan></text> </g>
</svg>
