<?xml version="1.0" encoding="UTF-8" standalone="no"?>
<!-- Created with Inkscape (http://www.inkscape.org/) -->

<svg
   xmlns:dc="http://purl.org/dc/elements/1.1/"
   xmlns:cc="http://creativecommons.org/ns#"
   xmlns:rdf="http://www.w3.org/1999/02/22-rdf-syntax-ns#"
   xmlns:svg="http://www.w3.org/2000/svg"
   xmlns="http://www.w3.org/2000/svg"
   xmlns:sodipodi="http://sodipodi.sourceforge.net/DTD/sodipodi-0.dtd"
   xmlns:inkscape="http://www.inkscape.org/namespaces/inkscape"
   version="1.1"
   id="svg2131"
   xml:space="preserve"
   width="793.70135"
   height="1122.52"
   viewBox="0 0 793.70135 1122.52"
   sodipodi:docname="resume.svg"
   inkscape:version="0.92.1 r15371"><metadata
     id="metadata2137"><rdf:RDF><cc:Work
         rdf:about=""><dc:format>image/svg+xml</dc:format><dc:type
           rdf:resource="http://purl.org/dc/dcmitype/StillImage" /><dc:title></dc:title></cc:Work></rdf:RDF></metadata><defs
     id="defs2135" /><sodipodi:namedview
     pagecolor="#ffffff"
     bordercolor="#666666"
     borderopacity="1"
     objecttolerance="10"
     gridtolerance="10"
     guidetolerance="10"
     inkscape:pageopacity="0"
     inkscape:pageshadow="2"
     inkscape:window-width="640"
     inkscape:window-height="480"
     id="namedview2133"
     showgrid="false"
     inkscape:zoom="0.24309143"
     inkscape:cx="396.85068"
     inkscape:cy="561.26001"
     inkscape:window-x="449"
     inkscape:window-y="111"
     inkscape:window-maximized="0"
     inkscape:current-layer="g2139" /><g
     id="g2139"
     inkscape:groupmode="layer"
     inkscape:label="these"
     transform="matrix(1.3333333,0,0,-1.3333333,0,1122.52)"><text
       transform="matrix(1,0,0,-1,56.693,771.684)"
       style="font-variant:normal;font-weight:bold;font-size:17.2154007px;font-family:LMRoman12;-inkscape-font-specification:LMRoman12-Bold;writing-mode:lr-tb;fill:#000000;fill-opacity:1;fill-rule:nonzero;stroke:none"
       id="text2143"><tspan
         x="0 14.447164 23.283829 30.922302 41.681927 57.821365"
         y="0"
         sodipodi:role="line"
         id="tspan2141">Résumé</tspan></text>
<text
       transform="matrix(1,0,0,-1,56.693,745.399)"
       style="font-variant:normal;font-weight:bold;font-size:14.34619999px;font-family:LMRoman12;-inkscape-font-specification:LMRoman12-Bold;writing-mode:lr-tb;fill:#000000;fill-opacity:1;fill-rule:nonzero;stroke:none"
       id="text2149"><tspan
         x="0 11.656287 19.726025 33.175587 42.141964 51.108337 57.3848 65.230736 71.507202 75.990387 84.060127 93.026497 100.87244 109.73122 118.69759 125.28967 133.35941 139.63586 146.99977 151.48296 164.82492 173.79131 181.15521 187.52061 192.0038 200.07355 213.42986 222.28864 231.255 244.59697 252.6667 261.63309 267.90955 272.39273 281.25153 290.66263 298.73236 307.69873 318.68076 323.16394 327.64713 332.13031 341.09668 349.16641 356.53033 365.4967 369.97989 377.34378 383.93588 388.41907 400.15857 409.12494 416.48883 427.22983 436.1962 442.7883 450.85803"
         y="0"
         sodipodi:role="line"
         id="tspan2145">Computationalproteindesign:unoutilpourl’ingénieriedespro-</tspan><tspan
         x="0 6.2764626 13.640367 18.123554 27.08993 34.453835 46.199066 53.562973 65.219261 69.702446 82.928207 91.894585 96.377769 104.44751 108.93069 117.00043 125.07018 129.55336 142.29709 148.66249 157.17984 165.70148 171.97794 180.94432 188.30823 194.58469 199.06787 207.58521 216.55159"
         y="14.446"
         sodipodi:role="line"
         id="tspan2147">téinesetlabiologiesynthétique</tspan></text>
<text
       transform="matrix(1,0,0,-0.98039216,74.252,704.552)"
       style="font-variant:normal;font-weight:normal;font-size:12.19430447px;font-family:LMRoman12;-inkscape-font-specification:LMRoman12-Regular;writing-mode:lr-tb;fill:#000000;fill-opacity:1;fill-rule:nonzero;stroke:none"
       id="text2153"><tspan
         x="0 7.460475 16.730585 25.354397 33.478241 46.560291 52.530624 63.11528 72.895111 81.518921 87.48925 97.439804 104.07351 110.70721 115.3508 121.32113 125.96472 129.28157 135.25191 141.8856 147.85594 155.12375 161.75745 166.40103 172.37137 177.01495 182.32191 185.63876 196.23561 202.86932 208.17628 212.88573 216.20258 222.1729 231.95273 242.53738 247.84435 252.55379 261.16052 264.47739 274.41086 279.05444 284.36142 289.33914 295.97284 301.27979 305.92337 310.90109 317.53479 326.8049 333.4386 339.40894 348.01569 357.96625 364.26581 370.89951 376.20648 379.52332 382.84018 387.54962 393.51996 398.15134 401.4682 407.43854 418.03537 427.98593 433.95627"
         y="0"
         sodipodi:role="line"
         id="tspan2151">LeCPDou«Computationalproteindesign»estlarechercheparmodélisationmo-</tspan></text>
<text
       transform="matrix(1,0,0,-0.98328417,56.693,690.106)"
       style="font-variant:normal;font-weight:normal;font-size:12.15843868px;font-family:LMRoman12;-inkscape-font-specification:LMRoman12-Regular;writing-mode:lr-tb;fill:#000000;fill-opacity:1;fill-rule:nonzero;stroke:none"
       id="text2157"><tspan
         x="0 3.3070953 8.5984478 13.8898 20.50399 23.811087 29.763857 33.070953 37.700886 46.895096 53.509289 58.80064 67.386932 72.08252 77.373871 83.657349 90.271545 95.562897 102.17709 107.46844 112.75979 121.35824 127.97243 131.27953 137.2323 142.52365 145.83073 152.44493 157.73628 166.32257 172.27534 182.19662 185.50372 192.11792 197.40927 206.00772 211.29907 217.25185 227.17313 233.78732 239.74008 244.37003 247.67712 254.29131 257.59839 262.88974 271.48819 277.1127 283.0679 288.35925 297.55347 304.16766 310.78183 319.97604 324.67163 329.30157 333.93152 340.54572 345.82489 350.45483 357.06903 361.69894 370.89316 377.50735 382.1373 388.09006 392.72 398.01135 401.31845 407.60193 414.21613 423.41031 428.70166 432.00876 438.62296 441.93005 447.22141 452.51276"
         y="0"
         sodipodi:role="line"
         id="tspan2155">léculairedesséquencesd’acidesaminéscompatiblesavecunestructureprotéiqueciblée.</tspan></text>
<text
       transform="matrix(0.98,0,0,-1,56.693,675.66)"
       style="font-variant:normal;font-weight:normal;font-size:11.9552002px;font-family:LMRoman12;-inkscape-font-specification:LMRoman12-Regular;writing-mode:lr-tb;fill:#000000;fill-opacity:1;fill-rule:nonzero;stroke:none"
       id="text2161"><tspan
         x="0 7.3141913 10.566006 16.419271 23.257647 26.834642 32.037544 37.240448 41.792988 45.044804 51.861656 57.06456 61.68166 69.47406 75.977684 84.420448 89.623352 95.476616 101.98025 107.18315 112.38605 118.22975 124.08302 127.33484 135.13919 141.64282 148.14645 156.5892 160.1662 166.01947 172.5231 177.726 182.27855 185.53036 191.38362 201.12711 207.63074 213.48401 219.98764 225.83133 231.03424 234.28606 237.53787 245.98064 251.18353 255.73607 261.58932 267.4426 277.19806 283.70169 286.95349 293.12955 296.70654 302.55981 309.06345 313.61597 318.81888 326.61127 333.1149 342.87036 349.37399 355.22723 361.73087 367.57458 372.7775 378.63074 388.37424 393.57715 399.43042 409.18585 416.02423 421.8775 426.43002 430.98257 436.18549 445.94092 451.14383 457.31271 461.86523"
         y="0"
         sodipodi:role="line"
         id="tspan2159">L’objectifestdeconcevoirunefonctionnouvelleet/oud’ajouterunnouveaucomportement.</tspan></text>
<text
       transform="matrix(0.98,0,0,-1,56.693,661.214)"
       style="font-variant:normal;font-weight:normal;font-size:11.9552002px;font-family:LMRoman12;-inkscape-font-specification:LMRoman12-Regular;writing-mode:lr-tb;fill:#000000;fill-opacity:1;fill-rule:nonzero;stroke:none"
       id="text2165"><tspan
         x="0 7.3141913 16.318848 24.773565 32.738121 45.479973 50.682877 55.299973 63.666222 68.869125 79.174507 85.678139 90.881042 96.724739 101.92764 105.17946 111.03272 117.53635 124.37473 129.57764 139.33307 144.53598 150.70486 159.05916 164.91241 175.2178 179.8349 185.0378 188.28961 198.60695 205.11058 214.11523 220.61887 226.47214 231.02467 235.57721 244.58188 247.83369 253.68695 260.52533 266.3786 270.93112 276.78439 281.33694 287.19022 290.44202 294.99457 303.99921 310.50284 315.70575 322.20938 328.71301 331.96481 340.38367 346.56213 353.06573 358.26865 361.52048 367.69891 374.20255 379.40546 387.82431 393.67755 400.18118 406.68481 411.88773 417.09064 421.70773 428.77325 434.29178 440.13547 445.33838 454.34302 457.59485"
         y="0"
         sodipodi:role="line"
         id="tspan2163">LeCPDestendéveloppementauseindenotrelaboratoiredepuisquelquesannées,avecle</tspan></text>
<text
       transform="matrix(1,0,0,-0.98039216,56.693,646.769)"
       style="font-variant:normal;font-weight:normal;font-size:12.19430447px;font-family:LMRoman12;-inkscape-font-specification:LMRoman12-Regular;writing-mode:lr-tb;fill:#000000;fill-opacity:1;fill-rule:nonzero;stroke:none"
       id="text2169"><tspan
         x="0 3.3168507 9.2871819 15.257513 18.574364 23.881325 27.198175 32.505138 39.931469 48.055313 52.698906 58.669235 63.312828 68.619789 75.253487 84.072411 90.374428 97.008125 104.43446 114.51427 121.14797 124.46482 131.09853 135.80797 139.12482 144.43178 151.06548 155.70906 164.52798 169.23743 175.87112 181.17809 186.48505 191.79201 200.61093 210.69075 215.40019 221.37051 232.11369 238.08403 243.39099 248.03458 251.35144 254.99997 262.4263 271.05988 281.80304 287.11002 293.08035 299.71405 304.35764 313.17654 319.81024 329.22668 334.53366 339.84061 344.48422 349.12781 358.54425 367.16806 373.80176 379.1087 383.81815 389.12512 396.55145 403.18515 409.15549 415.78918 424.60809 430.24918 436.23416 442.2045 448.8382"
         y="0"
         sodipodi:role="line"
         id="tspan2167">logicielProteusquiaplusieurssuccèsàsonactif.AucoursdecetteThèse,nousavons</tspan></text>
<text
       transform="matrix(0.985,0,0,-1,56.693,632.323)"
       style="font-variant:normal;font-weight:normal;font-size:11.9552002px;font-family:LMRoman12;-inkscape-font-specification:LMRoman12-Regular;writing-mode:lr-tb;fill:#000000;fill-opacity:1;fill-rule:nonzero;stroke:none"
       id="text2173"><tspan
         x="0 5.2029033 11.706532 16.259071 19.510887 24.379044 30.882673 38.09166 46.056213 50.608753 56.462017 61.014557 66.217461 72.721092 81.283401 85.900505 92.404129 100.91384 107.41747 110.66929 117.17291 121.79002 125.04182 130.24474 136.74835 141.3009 149.87517 156.70158 162.55486 165.80667 171.9875 176.54005 181.15715 188.35417 193.88466 199.72835 204.93126 214.09132 220.59496 226.44823 231.00076 236.85403 246.60948 256.36493 261.56781 267.73669 276.24643 279.49823 282.75003 288.92609 292.50308 298.35635 304.85999 313.36969 319.87332 323.12515 329.62878 336.13242 345.28052 355.03598 360.23886 364.79141 371.29504 377.48306 383.98666 393.1348 399.63843 402.89023 408.09314 414.27158 420.77521 424.02704 429.88031 434.43283 440.2861 444.83865 448.09045 453.94373"
         y="0"
         sodipodi:role="line"
         id="tspan2171">enrichiProteussurplusieurspoints,avecnotammentl’ajoutd’uneméthoded’exploration</tspan></text>
<text
       transform="matrix(1,0,0,-0.999001,56.693,617.877)"
       style="font-variant:normal;font-weight:normal;font-size:11.96715546px;font-family:LMRoman12;-inkscape-font-specification:LMRoman12-Regular;writing-mode:lr-tb;fill:#000000;fill-opacity:1;fill-rule:nonzero;stroke:none"
       id="text2177"><tspan
         x="0 10.736932 16.59605 22.78307 27.340162 36.437595 44.900764 50.759884 55.316978 58.572044 68.320488 73.856499 79.71801 84.926117 94.023544 99.231651 104.11665 110.62678 116.48589 122.99603 128.85515 137.95258 144.46271 153.56013 158.11723 163.32535 169.83548 173.09055 176.34561 182.53023 189.04036 194.24847 202.75951 208.61864 219.01808 227.64162 235.61414 246.35107 254.81424 261.97061 270.75449 277.26462 286.36206 290.98376 296.19186 300.74896 304.00403 313.10147 319.6116 328.70905 333.91714 339.77625 349.54144 356.05157 361.91071 366.4678 372.3269 375.582 380.2037 386.06281 392.57297 401.08398 406.29211 412.47913 417.03622 421.59329 430.69073 435.24783 439.80493 445.66403 448.9191"
         y="0"
         sodipodi:role="line"
         id="tspan2175">MonteCarloavecéchangederépliquesouREMC.Unesériedecomparaisonsentretrois</tspan></text>
<text
       transform="matrix(1,0,0,-0.98911968,56.693,603.431)"
       style="font-variant:normal;font-weight:normal;font-size:12.08670712px;font-family:LMRoman12;-inkscape-font-specification:LMRoman12-Regular;writing-mode:lr-tb;fill:#000000;fill-opacity:1;fill-rule:nonzero;stroke:none"
       id="text2181"><tspan
         x="0 9.8627529 15.122888 19.725506 26.300674 32.544666 39.119835 44.379971 52.939777 57.607662 62.210281 68.454277 73.388069 79.963234 85.88089 90.548775 95.15139 98.43898 104.68539 111.26056 116.52069 125.09258 131.66776 140.81981 148.87198 153.47459 159.39224 163.99486 169.25499 175.83017 184.38997 190.30762 196.55644 205.06308 210.32321 214.92583 224.07788 229.33801 236.24194 241.50208 246.76221 251.36484 257.94 263.20013 268.46027 277.02008 284.21167 287.49924 296.65131 305.36099 313.41315 324.25735 332.80505 339.98456 343.27216 352.43631 363.28049 369.19815 375.44696 380.04959 389.20163 397.74936 403.66702 408.26962 411.55722 421.37888 426.63901 435.13354 441.70871 448.28387"
         y="0"
         sodipodi:role="line"
         id="tspan2179">méthodesstochastiquesdeProteusontétéefectuées:leREMC,leMonteCarloetune</tspan></text>
<text
       transform="matrix(0.993,0,0,-1,56.693,588.985)"
       style="font-variant:normal;font-weight:normal;font-size:11.9552002px;font-family:LMRoman12;-inkscape-font-specification:LMRoman12-Regular;writing-mode:lr-tb;fill:#000000;fill-opacity:1;fill-rule:nonzero;stroke:none"
       id="text2185"><tspan
         x="0 6.5036287 11.706532 18.210161 22.762701 26.014515 30.631613 35.184155 38.435966 44.614414 51.118046 60.254208 65.457108 71.310379 77.814003 83.016907 89.520538 98.668655 105.49508 111.34834 117.85197 126.34972 129.60155 138.7377 147.19243 155.15698 164.09708 171.28215 174.53397 183.68208 193.32993 204.05614 210.55977 213.81158 218.36412 221.61594 226.23303 230.78557 236.63884 241.19138 249.68913 256.19275 260.7453 265.93625 271.13916 277.97754 283.18042 287.79752 296.28333 305.22342 310.42633 315.04343 320.24634 325.44925 331.63007 339.32684 349.76373 355.61697 366.06583 376.79205 383.29565 392.23578 399.42084 407.87555 413.07846 421.64078 426.84369 432.69693 442.45239 448.95602 454.8093"
         y="0"
         sodipodi:role="line"
         id="tspan2183">heuristiqueconçuepourleCPD,le«MultistartSteepestDescent»ouMSD.Cescompa-</tspan></text>
<text
       transform="matrix(0.991,0,0,-1,56.693,574.539)"
       style="font-variant:normal;font-weight:normal;font-size:11.9552002px;font-family:LMRoman12;-inkscape-font-specification:LMRoman12-Regular;writing-mode:lr-tb;fill:#000000;fill-opacity:1;fill-rule:nonzero;stroke:none"
       id="text2189"><tspan
         x="0 4.5525403 10.405807 13.65762 18.274719 24.127985 30.631613 39.193928 46.032303 51.885567 56.438107 60.978695 66.181595 72.362434 80.860191 85.477287 91.980919 100.47868 106.9823 112.1852 118.68884 126.21104 132.71468 137.26721 143.12048 147.67302 152.87593 156.12773 162.63136 167.83427 176.39659 182.90021 192.04834 196.60088 201.15341 207.00668 210.2585 218.8208 225.32443 231.1777 240.93315 246.78641 250.03822 256.54184 261.74475 270.31903 274.87158 281.37518 290.1503 296.00357 303.20062 309.70422 318.47937 328.27783 333.48074 341.97849 349.94305 358.88315 366.03714 370.58969 377.78671 386.56183 392.4151 398.91873 407.48105 413.01151 418.85522 424.70847 431.2121 439.77441 446.27805 452.45651"
         y="0"
         sodipodi:role="line"
         id="tspan2187">raisonsportentsurneufprotéinesdetroisdomaines(SH2,SH3etPDZ).Nousavonsfxé</tspan></text>
<text
       transform="matrix(0.98,0,0,-1,56.693,560.094)"
       style="font-variant:normal;font-weight:normal;font-size:11.9552002px;font-family:LMRoman12;-inkscape-font-specification:LMRoman12-Regular;writing-mode:lr-tb;fill:#000000;fill-opacity:1;fill-rule:nonzero;stroke:none"
       id="text2193"><tspan
         x="0 3.2518144 12.029323 16.247116 22.425564 29.263939 38.041447 44.545074 53.310627 59.814255 63.066071 69.569702 74.186798 77.438614 82.641518 89.145142 93.697685 101.88939 107.74265 112.94556 116.19737 122.701 127.9039 136.09561 141.94887 151.70432 154.95613 161.45976 166.66266 174.85437 181.35799 190.1355 196.63913 202.4924 210.67215 217.17577 221.72832 227.58157 232.13412 237.33702 240.58884 247.09247 252.29536 260.48706 266.34033 272.84396 282.92221 289.42584 298.20334 302.75589 307.95877 312.57587 317.12842 321.68097 326.88385 330.13568 336.63931 343.14294 347.69547 356.47299 359.72479 362.97662 368.16757 372.7966 379.30023 385.14154 390.34445 399.12195 405.62558 414.40311 418.95563 424.15854 429.0267 435.53033 440.73322 445.28577 450.15393 456.65756 461.86047"
         y="0"
         sodipodi:role="line"
         id="tspan2191">letypedeplusieursacidesaminésdenosprotéinesafnderestreindrel’espacederecherche.</tspan></text>
<text
       transform="matrix(0.98,0,0,-1,56.26,545.648)"
       style="font-variant:normal;font-weight:normal;font-size:11.9552002px;font-family:LMRoman12;-inkscape-font-specification:LMRoman12-Regular;writing-mode:lr-tb;fill:#000000;fill-opacity:1;fill-rule:nonzero;stroke:none"
       id="text2197"><tspan
         x="0 8.7751169 12.026931 18.53056 23.147657 26.399473 33.333488 42.868958 46.12077 49.372585 55.225849 58.477665 64.981293 73.866402 80.370026 89.255135 93.807671 99.010574 103.87873 110.38236 116.88599 120.1378 126.31625 132.81989 138.02278 146.32208 152.82571 161.71082 164.96263 168.21445 174.06772 180.57133 185.12389 188.3757 198.13113 201.38295 206.00005 211.85332 216.40585 219.65767 225.51094 235.68481 240.88771 246.74098 256.17365 262.67728 265.92908 272.43271 278.28598 282.8385 288.69177 291.9436 296.49612 301.69904 308.63306 311.88486 321.40839 326.02548 331.22839 337.40683 343.91046 349.11337 355.61697 360.81989 369.70499 374.9079 383.14264 386.39447 395.92993 401.13281 406.98608 413.48972 417.06671 422.91998 427.47253 437.22797 443.08124 447.63376 450.88559 456.73886"
         y="0"
         sodipodi:role="line"
         id="tspan2195">Ainsi,àl’aidedetechniquesdel’optimisationcombinatoire,laséquenceetlaconformation</tspan></text>
<text
       transform="matrix(1,0,0,-0.99108028,56.693,531.202)"
       style="font-variant:normal;font-weight:normal;font-size:12.06279659px;font-family:LMRoman12;-inkscape-font-specification:LMRoman12-Regular;writing-mode:lr-tb;fill:#000000;fill-opacity:1;fill-rule:nonzero;stroke:none"
       id="text2201"><tspan
         x="0 6.2340536 12.796215 19.961515 29.804758 33.085838 39.647999 42.929081 52.772324 56.053406 60.712055 65.961784 72.19825 80.688049 87.250206 93.156151 97.749664 102.34318 111.47713 115.08632 120.99226 127.55443 132.80415 137.39767 140.67874 146.5847 157.03108 163.59323 166.87431 172.12405 178.6862 183.93594 188.52945 194.43539 197.71648 206.85043 211.44394 214.72502 223.87103 233.13768 243.96042 251.99664 260.52747 269.00519 273.66385 279.56979 285.80624 294.284 300.84616 306.09589 310.68939 315.93912 320.53262 330.37589 333.65695 340.21912 345.46884 350.71857 359.26144 366.14932 372.05527 378.6174 387.10721 391.70071 397.60666 404.16882 412.7117 415.9928 421.24252 429.7854 434.37891 439.62863 444.28729 448.8808"
         y="0"
         sodipodi:role="line"
         id="tspan2199">quiminimisentnotrefonctiond’énergie(leGMEC)sontdéterminéespourtouslestests</tspan></text>
<text
       transform="matrix(1,0,0,-0.98716683,56.693,516.756)"
       style="font-variant:normal;font-weight:normal;font-size:12.11061764px;font-family:LMRoman12;-inkscape-font-specification:LMRoman12-Regular;writing-mode:lr-tb;fill:#000000;fill-opacity:1;fill-rule:nonzero;stroke:none"
       id="text2205"><tspan
         x="0 5.6023717 11.534152 16.804693 25.986963 35.869228 41.798584 45.092674 51.680851 60.269699 66.857872 76.028038 81.95739 91.798485 98.713646 104.64301 109.32012 112.61421 117.22594 120.52002 126.44938 133.03755 141.6264 148.21458 157.39685 160.69093 170.51991 175.46347 182.05165 187.981 191.2751 197.86327 207.04555 213.96071 219.89006 223.18414 229.44292 236.35808 241.62862 248.2168 252.82852 256.12262 262.71078 266.00488 272.26364 278.85181 288.02197 291.31607 297.24542 300.53952 305.21661 309.89374 315.16428 320.43484 329.02368 332.31778 335.61185 342.20004 346.81177 352.08231 360.67114 365.94168 374.46515 378.08862 384.67682 389.35394 395.6127 402.20087 405.49496 415.32394 420.59448 426.8678 433.12656 436.42062 441.02026 446.94962"
         y="0"
         sodipodi:role="line"
         id="tspan2203">avecmoinsde10positionsdelachaînepolypeptidiquelaisséeslibresetjusqu’àenviron</tspan></text>
<text
       transform="matrix(1,0,0,-0.98619329,56.693,502.31)"
       style="font-variant:normal;font-weight:normal;font-size:12.1225729px;font-family:LMRoman12;-inkscape-font-specification:LMRoman12-Regular;writing-mode:lr-tb;fill:#000000;fill-opacity:1;fill-rule:nonzero;stroke:none"
       id="text2209"><tspan
         x="0 6.5946798 11.870423 18.465103 28.621395 33.237671 36.535011 41.810753 46.427029 55.000114 61.594791 66.870537 75.455742 80.072021 85.347763 90.029503 94.645775 103.21886 108.82676 114.7644 120.04014 129.20723 135.14244 144.96899 151.89099 157.8262 162.50793 165.80528 170.42155 173.71889 179.6541 186.24878 194.82187 198.1192 201.41655 208.01123 212.6275 217.90324 222.58498 229.7858 239.09836 242.39569 248.3309 254.92558 260.86081 264.15814 269.43387 279.3259 284.60165 290.86902 295.48529 302.67398 305.97131 315.1384 323.87393 331.94998 342.82635 355.2908 360.56653 369.08627 372.38361 381.55072 392.42706 399.02176 411.97836 418.57303 424.50824 431.10294 437.6976 442.97336 449.24072"
         y="0"
         sodipodi:role="line"
         id="tspan2207">deuxtiersdestestsavec20positionslibres.Globalement,leREMCetleMSDdonnent</tspan></text>
<text
       transform="matrix(0.993,0,0,-1,56.693,487.864)"
       style="font-variant:normal;font-weight:normal;font-size:11.9552002px;font-family:LMRoman12;-inkscape-font-specification:LMRoman12-Regular;writing-mode:lr-tb;fill:#000000;fill-opacity:1;fill-rule:nonzero;stroke:none"
       id="text2213"><tspan
         x="0 6.5036287 15.615882 20.168423 24.720963 29.923866 38.462269 45.288689 51.141956 57.645584 64.149216 69.352112 77.890518 82.507614 87.710518 93.888969 100.39259 105.5955 112.09913 117.30203 122.50494 131.03139 136.23428 146.64726 151.1998 156.40271 160.95525 170.71069 175.91359 184.452 190.95563 194.20744 199.41034 205.91397 211.11688 215.66942 221.52269 224.77449 229.9774 237.13857 242.66904 248.51274 253.71565 262.83984 267.45694 273.31021 279.81384 285.65756 290.86044 297.04129 305.50317 312.00681 322.43173 328.285 333.48792 338.69083 344.54407 349.09662 359.50961 365.36285 375.78781 384.97177 395.698 403.66254 416.02661 419.27844 425.13168 429.68423 434.30133 440.47977 446.9834 450.23523 453.48703"
         y="0"
         sodipodi:role="line"
         id="tspan2211">detrèsbonnesséquencesentermesd’énergie,avecsouventunaccordauGMEClorsqu’il</tspan></text>
<text
       transform="matrix(1,0,0,-0.99009901,56.693,473.419)"
       style="font-variant:normal;font-weight:normal;font-size:12.07475185px;font-family:LMRoman12;-inkscape-font-specification:LMRoman12-Regular;writing-mode:lr-tb;fill:#000000;fill-opacity:1;fill-rule:nonzero;stroke:none"
       id="text2217"><tspan
         x="0 5.2549319 9.9182014 18.416412 23.671345 29.583143 36.151806 42.394455 48.96312 56.159672 63.534931 72.70208 83.535553 90.104218 103.03386 109.60252 115.51432 125.36732 128.65166 135.22032 144.3754 149.03867 155.60733 164.11761 167.40195 172.65688 181.22029 185.81836 191.07329 195.73656 200.33463 208.89804 218.70998 224.62178 234.4458 241.32841 247.2402 251.90347 255.18781 259.78589 263.07022 268.98199 275.55066 284.12616 290.03796 295.29288 299.89096 303.17529 309.08951 314.34442 319.00769 326.19217 337.02563 342.93744 346.22177 354.78519 358.06952 367.22461 375.92566 383.96988 394.8154 407.25482 412.84061 418.75482 424.00974 433.16483 439.40747 445.97614 449.26047"
         y="0"
         sodipodi:role="line"
         id="tspan2215">estconnu.LeMSDdominesurlestestsà30positionsactives.MaisleREMCavechuit</tspan></text>
<text
       transform="matrix(0.989,0,0,-1,56.693,458.973)"
       style="font-variant:normal;font-weight:normal;font-size:11.9552002px;font-family:LMRoman12;-inkscape-font-specification:LMRoman12-Regular;writing-mode:lr-tb;fill:#000000;fill-opacity:1;fill-rule:nonzero;stroke:none"
       id="text2221"><tspan
         x="0 9.7554436 15.608709 20.161249 25.029408 31.533035 36.735939 43.239567 47.792107 56.366379 61.569279 70.067039 76.570663 81.773567 90.335884 96.839508 102.69278 107.24532 113.09858 122.85403 128.05693 132.60947 137.162 142.36491 150.92723 156.78049 163.28412 167.83665 171.08847 180.84392 184.09573 188.71283 193.91574 202.47804 207.68095 212.29805 220.80775 227.31139 230.5632 237.06683 245.62915 250.24625 256.09952 262.60315 268.4588 273.64975 279.8306 288.32834 291.58017 300.72827 310.4837 315.68661 318.93845 322.19025 325.44208 330.64496 337.14859 345.65829 350.27539 356.77902 365.27679 368.52859 373.73151 382.29382 386.84637 392.04926 396.66635 401.2189 409.78122 414.33377 420.18701 426.69064 435.20038 441.05362 446.25653 450.80908 454.06088 457.63788"
         y="0"
         sodipodi:role="line"
         id="tspan2219">marcheursetdesparamètresoptimisésestplussouventlemeilleursurlesteststoutactif.</tspan></text>
<text
       transform="matrix(0.98,0,0,-1,56.693,444.527)"
       style="font-variant:normal;font-weight:normal;font-size:11.9552002px;font-family:LMRoman12;-inkscape-font-specification:LMRoman12-Regular;writing-mode:lr-tb;fill:#000000;fill-opacity:1;fill-rule:nonzero;stroke:none"
       id="text2225"><tspan
         x="0 8.9400988 17.849113 24.352743 27.604557 34.108185 38.73724 45.695164 50.898067 56.751335 66.506775 73.010406 78.86367 83.416214 92.325226 101.89656 108.40019 114.90382 123.81284 129.01573 135.19658 141.70021 151.45564 156.64659 161.19913 167.0524 171.60493 174.85675 180.71002 190.93172 196.13461 202.31306 208.16634 213.36923 217.92178 226.8308 233.33443 238.53732 246.87248 251.48959 256.6925 262.87094 269.37457 274.57748 281.08109 286.284 291.48691 299.81012 304.42722 310.28049 316.78412 325.11926 330.97253 337.47617 342.02872 345.28052 355.03598 360.88922 364.14105 369.34396 373.96106 380.91898 384.17078 393.09177 401.69473 409.65927 420.39743 432.55826 436.13525 441.98853 448.49216 453.04471 459.54831"
         y="0"
         sodipodi:role="line"
         id="tspan2223">Deplus,comparéàuneénumérationexactedesséquencessousoptimales,leREMCfourni</tspan></text>
<text
       transform="matrix(1,0,0,-1,56.693,430.081)"
       style="font-variant:normal;font-weight:normal;font-size:11.9552002px;font-family:LMRoman12;-inkscape-font-specification:LMRoman12-Regular;writing-mode:lr-tb;fill:#000000;fill-opacity:1;fill-rule:nonzero;stroke:none"
       id="text2229"><tspan
         x="0 6.5036287 16.904654 22.107555 26.987669 33.491299 39.344563 45.525402 50.077942 53.329758 56.58157 59.833385 65.686653 76.087677 82.591301 91.70356 96.320656 101.52356 107.702 114.20564 119.39658 125.90021 131.10312 136.30602 144.83246 151.33609 160.43639 164.98894 169.54147 174.74437 183.25887 190.09724 195.95052 202.45413 208.95776 218.05806 224.56169 227.81351 233.66916 238.87207 243.42461 248.0417 251.29352 255.84607 261.04895"
         y="0"
         sodipodi:role="line"
         id="tspan2227">unéchantillondeséquencesdetrèsbonnediversité.</tspan></text>
<text
       transform="matrix(1,0,0,-0.98039216,74.252,415.635)"
       style="font-variant:normal;font-weight:normal;font-size:12.19430447px;font-family:LMRoman12;-inkscape-font-specification:LMRoman12-Regular;writing-mode:lr-tb;fill:#000000;fill-opacity:1;fill-rule:nonzero;stroke:none"
       id="text2233"><tspan
         x="0 9.1189003 15.089231 21.722933 31.614952 34.931805 46.084713 50.794155 56.101116 61.408077 67.37841 74.012108 80.645813 91.135353 97.769051 103.73938 108.38297 113.02657 116.34341 126.83295 133.46666 143.95619 149.26315 159.7527 164.39629 169.03989 174.68097 180.33669 186.30702 189.62387 192.94072 201.44014 208.07385 214.04417 220.67789 230.5699 236.21098 242.19595 248.16628 254.79999 264.69202 271.32571 277.29602 281.93964 287.89777 297.84833 303.15527 307.79886 312.44244 322.93201 329.5657 335.53604 340.17963 344.82321 355.31274 365.26331 371.5629 378.19659 383.50354 386.8204 397.30994 404.27289 410.24323 416.87692 426.70309 430.01993"
         y="0"
         sodipodi:role="line"
         id="tspan2231">Danslasecondepartiedecetravail,nousavonsparamétrénotremodèlepourla</tspan></text>
<text
       transform="matrix(0.996,0,0,-1,56.693,401.19)"
       style="font-variant:normal;font-weight:normal;font-size:11.9552002px;font-family:LMRoman12;-inkscape-font-specification:LMRoman12-Regular;writing-mode:lr-tb;fill:#000000;fill-opacity:1;fill-rule:nonzero;stroke:none"
       id="text2237"><tspan
         x="0 5.2029033 11.056169 17.559797 22.762701 27.965605 34.469234 39.021774 42.273586 48.126854 58.527878 65.031509 74.143761 80.647385 86.500656 96.256096 102.10936 105.36118 111.86481 117.06771 125.59415 133.55872 142.49881 149.6528 156.80202 165.57713 171.43039 175.98294 180.53548 189.64774 195.50099 202.00462 208.50826 213.06079 219.23685 224.11696 230.62059 239.72089 246.22452 256.63748 265.09222 273.05676 285.90622 291.09717 295.71426 304.17615 307.75314 313.60641 320.11005 326.61368 331.81659 340.92883 345.54593 352.04956 360.49948 363.75131 373.51392 381.47849 387.6593 393.83777 398.45486 401.70667 407.88513 414.38876 421.54034 428.70151 435.20514 441.05841 445.61096 450.16348"
         y="0"
         sodipodi:role="line"
         id="tspan2235">conceptiondedomainesPDZ.NotreapprocheduCPDestfondéesurlaPhysique;notre</tspan></text>
<text
       transform="matrix(1,0,0,-0.98039216,56.693,386.744)"
       style="font-variant:normal;font-weight:normal;font-size:12.19430447px;font-family:LMRoman12;-inkscape-font-specification:LMRoman12-Regular;writing-mode:lr-tb;fill:#000000;fill-opacity:1;fill-rule:nonzero;stroke:none"
       id="text2241"><tspan
         x="0 3.6485357 9.6188669 16.252569 21.55953 26.203121 29.519972 35.490303 46.428593 53.062294 56.379147 61.686108 68.319809 73.62677 78.270363 84.240692 87.557541 97.156898 101.86634 111.47789 118.11159 124.08192 128.79137 138.40291 143.11235 149.74605 158.69423 162.01108 172.28601 178.91971 182.23656 189.20195 194.50891 199.1525 204.45946 211.09315 216.38792 225.99948 231.30644 237.62309 242.26668 246.91026 256.50961 259.82648 263.14331 268.45029 273.09387 279.06421 288.01239 292.65598 297.96295 304.59665 307.91348 311.23035 320.84189 327.47559 337.08716 340.40399 350.66672 357.30042 361.944 367.91434 372.55792 377.8649 381.18176 387.81546 397.427 402.73395 411.68213 416.39157 422.36191 433.3002 438.60718 443.25076 449.2211"
         y="0"
         sodipodi:role="line"
         id="tspan2239">fonctiond’énergiesebasesurladiférenceentrel’étatrepliédelaprotéineetsonétat</tspan></text>
<text
       transform="matrix(1,0,0,-0.98039216,56.693,372.298)"
       style="font-variant:normal;font-weight:normal;font-size:12.19430447px;font-family:LMRoman12;-inkscape-font-specification:LMRoman12-Regular;writing-mode:lr-tb;fill:#000000;fill-opacity:1;fill-rule:nonzero;stroke:none"
       id="text2245"><tspan
         x="0 6.6337013 11.940662 18.574364 21.891214 25.208065 30.515026 38.624237 46.43103 52.401363 59.035065 68.458824 71.775673 75.092522 80.399483 85.043076 91.013405 100.44936 105.09295 110.39991 117.03362 120.35046 123.66731 128.97427 137.08348 143.71719 149.68752 156.32123 165.82303 171.46411 177.44907 183.4194 190.0531 199.54271 206.17641 210.82001 214.13686 217.4537 220.77055 225.48 235.57932 242.21303 253.63908 263.58963 269.88922 276.52292 281.82986 285.14673 295.24606 301.87976 311.97906 316.68851 322.65884 325.97571 331.61923 337.58954 343.90619 353.32996 362.69763 371.15317 377.12347 386.0741 394.19794 407.94092 413.59421 419.56699 424.87393 434.97327 441.60696 448.24066"
         y="0"
         sodipodi:role="line"
         id="tspan2243">déplié.Pourl’étatreplié,nousavonsutiliséunmodèledesolvantGB/NEAavecune</tspan></text>
<text
       transform="matrix(0.981,0,0,-1,56.693,357.852)"
       style="font-variant:normal;font-weight:normal;font-size:11.9552002px;font-family:LMRoman12;-inkscape-font-specification:LMRoman12-Regular;writing-mode:lr-tb;fill:#000000;fill-opacity:1;fill-rule:nonzero;stroke:none"
       id="text2249"><tspan
         x="0 5.2029033 11.056169 17.559797 22.176895 26.729437 32.582703 38.751587 43.304127 52.476154 58.979782 62.231598 67.434502 70.686317 75.889221 81.092125 85.644661 90.197205 93.449013 99.627464 106.1311 115.30312 120.50603 126.35929 132.21255 135.46437 144.6364 154.45879 160.31206 167.533 174.03662 180.54025 183.79207 192.3783 198.88193 204.08482 210.58846 220.73604 230.49147 236.66753 243.17116 248.37407 251.62587 256.82877 265.41501 271.91864 281.09067 285.70776 291.56104 294.81284 300.33374 306.18701 312.3559 316.90845 324.12939 327.3812 336.55322 345.73721 354.02695 359.88022 368.65533 376.61987 389.36414 394.56702 403.08868 409.59232 420.06509 426.5687 432.42197 438.9256 444.76932 449.9722 455.82547"
         y="0"
         sodipodi:role="line"
         id="tspan2247">constantediélectriqueégaleà8,puisdeuxmodèlesdesolvant,leGB/NEAetunnouveau</tspan></text>
<text
       transform="matrix(1,0,0,-0.98039216,56.693,343.406)"
       style="font-variant:normal;font-weight:normal;font-size:12.19430447px;font-family:LMRoman12;-inkscape-font-specification:LMRoman12-Regular;writing-mode:lr-tb;fill:#000000;fill-opacity:1;fill-rule:nonzero;stroke:none"
       id="text2253"><tspan
         x="0 9.950552 16.25013 22.883831 28.190792 31.507643 36.814602 44.497017 47.813866 57.498581 66.866249 75.321777 81.292107 89.084267 98.203171 111.02426 116.67754 122.65031 127.95727 137.64198 144.2757 150.90939 160.58191 165.88887 171.85921 178.4929 183.20235 187.84593 193.81627 200.12073 204.76431 214.44904 221.08273 224.39958 229.70654 233.02339 238.33035 243.63731 248.28091 252.9245 256.24136 262.54337 269.17706 278.84958 284.15656 290.12689 296.0972 299.41406 309.09879 319.44687 325.41721 333.09961 340.9064 346.87674 353.51044 362.51959 367.82654 373.79688 378.44046 384.4108 389.71777 394.36136 399.6683 404.31189 407.62875 412.3382 417.64514 426.6665 429.98337 433.3002 438.60718 443.25076 449.2211"
         y="0"
         sodipodi:role="line"
         id="tspan2251">modèle,leGB/FDBavecuneconstantediélectriqueégaleà4.Pourcaractériserl’état</tspan></text>
<text
       transform="matrix(1,0,0,-0.98328417,56.693,328.96)"
       style="font-variant:normal;font-weight:normal;font-size:12.15843868px;font-family:LMRoman12;-inkscape-font-specification:LMRoman12-Regular;writing-mode:lr-tb;fill:#000000;fill-opacity:1;fill-rule:nonzero;stroke:none"
       id="text2257"><tspan
         x="0 6.6141906 11.905543 18.519733 21.826828 25.133924 30.425276 37.623074 44.237263 50.190033 56.804226 65.378357 71.992546 76.622482 79.929573 83.236671 86.543762 91.239357 97.192123 103.80631 112.3926 119.0068 129.51169 134.80304 141.41724 146.11282 151.40417 160.99718 167.61137 170.91846 180.08836 186.70255 195.8846 202.82707 208.77985 213.40977 218.70113 224.98705 229.61697 232.92407 238.21542 241.52252 250.10881 255.07188 261.68607 264.99316 274.91446 278.22156 284.50504 291.11923 296.41058 304.98471 311.59888 314.90598 320.85876 326.15012 329.45721 336.07138 345.25345 351.20621 361.1275 364.4346 371.0488 380.23083 386.18362 396.67636 401.96771 408.58188 413.87323 418.50317 424.45596 427.76303 433.05438 441.64069 448.25488"
         y="0"
         sodipodi:role="line"
         id="tspan2255">déplié,nousutilisonsunensembledepotentielschimiquesd’acideaminéouénergiesde</tspan></text>
<text
       transform="matrix(0.98,0,0,-1,56.693,314.515)"
       style="font-variant:normal;font-weight:normal;font-size:11.9552002px;font-family:LMRoman12;-inkscape-font-specification:LMRoman12-Regular;writing-mode:lr-tb;fill:#000000;fill-opacity:1;fill-rule:nonzero;stroke:none"
       id="text2261"><tspan
         x="0 4.5525403 9.7554436 13.332439 18.535341 23.087883 28.290785 34.794415 39.997318 45.200222 49.817318 56.870888 65.325607 70.528503 78.959312 84.162216 90.665848 95.868752 100.42129 106.27455 109.52637 114.72927 123.16008 129.66371 138.66837 143.2209 148.42381 152.00081 157.2037 161.75624 166.95915 173.46278 178.66568 183.86859 192.29939 196.91649 202.76976 208.93864 217.29294 223.79655 228.99947 233.552 238.75491 243.30745 253.0629 256.3147 262.81833 268.02124 273.22415 281.65494 288.15857 294.01184 302.36615 308.86975 315.37338 324.39001 330.89365 335.44617 341.63419 346.8371 352.03998 358.54361 365.04724 369.59979 378.60446 385.10806 394.12469 403.88013 409.7334 415.91183 419.16367 428.9191 432.17093 436.78802 442.64127 447.19382 450.44565 456.29889"
         y="0"
         sodipodi:role="line"
         id="tspan2259">références.Cesénergiesderéférencessontdéterminéesparuneprocéduredemaximisation</tspan></text>
<text
       transform="matrix(1,0,0,-0.98039216,56.693,300.069)"
       style="font-variant:normal;font-weight:normal;font-size:12.19430447px;font-family:LMRoman12;-inkscape-font-specification:LMRoman12-Regular;writing-mode:lr-tb;fill:#000000;fill-opacity:1;fill-rule:nonzero;stroke:none"
       id="text2265"><tspan
         x="0 6.6337013 17.428099 20.744949 32.214912 38.51693 43.160519 49.130852 52.447701 57.157143 62.464104 72.085411 78.719109 82.035957 88.006294 94.639992 99.946953 110.74136 117.04337 123.67707 132.48135 139.44431 144.75127 149.39485 159.34541 164.65237 174.7834 181.4171 192.2115 196.85509 202.16205 208.79575 213.43935 219.73892 226.37262 233.00632 236.32317 240.96677 251.76115 255.07802 266.54797 271.85495 277.82526 287.77582 294.72656 300.6969 305.40634 308.72321 313.36679 316.68362 322.65396 334.77512 340.08206 352.21539 358.18573 363.49271 366.80954 373.44324 378.75021 388.94708 394.91742 404.86795 408.18481 414.81851 420.12549 430.32236 436.95605 440.27292 446.90662"
         y="0"
         sodipodi:role="line"
         id="tspan2263">delavraisemblancequipermetdereproduirelacompositionenacidesaminésd’un</tspan></text>
<text
       transform="matrix(1,0,0,-0.99601594,56.693,285.623)"
       style="font-variant:normal;font-weight:normal;font-size:12.00302124px;font-family:LMRoman12;-inkscape-font-specification:LMRoman12-Regular;writing-mode:lr-tb;fill:#000000;fill-opacity:1;fill-rule:nonzero;stroke:none"
       id="text2269"><tspan
         x="0 5.2237148 11.753358 16.388926 21.612638 31.083023 37.612667 40.877487 49.990181 56.519825 59.784645 66.314293 72.190971 81.985435 87.862114 91.12693 97.003616 102.88029 109.40993 114.63365 123.1582 129.68784 135.56451 140.13527 146.66492 151.23566 156.45938 159.7242 164.35977 171.51357 178.85701 184.08073 192.60527 197.24084 202.46455 208.66771 215.19736 220.42107 226.95071 232.17444 237.39815 245.9227 251.14641 257.02307 263.55273 268.77643 275.30609 280.52982 289.05435 295.58398 301.46066 309.92041 317.91681 322.48755 328.36423 332.935 338.15869 344.68835 353.21289 357.84845 363.72513 369.93069 378.39044 383.61414 389.49081 399.28528 405.81494 411.69162 416.26236 421.48608 426.70978 435.23434 441.11102 447.64066"
         y="0"
         sodipodi:role="line"
         id="tspan2267">ensembled’homologuesnaturels.LesséquencesconçuesparProteussontcomparéesaux</tspan></text>
<text
       transform="matrix(1,0,0,-0.98039216,56.693,271.177)"
       style="font-variant:normal;font-weight:normal;font-size:12.19430447px;font-family:LMRoman12;-inkscape-font-specification:LMRoman12-Regular;writing-mode:lr-tb;fill:#000000;fill-opacity:1;fill-rule:nonzero;stroke:none"
       id="text2273"><tspan
         x="0 4.7094402 10.016401 16.318419 22.95212 28.259081 34.89278 40.199741 45.506702 55.581638 62.21534 68.185669 72.829262 79.462959 84.106552 89.413513 92.730362 96.047218 101.35418 106.06361 114.75816 123.70878 129.67911 139.75404 144.46349 149.77045 156.07246 162.70616 168.01312 174.64682 179.94159 185.24855 195.32349 200.04512 206.00325 212.3199 222.32899 228.29932 231.61617 237.5865 244.2202 250.19054 253.50739 258.81436 268.76489 274.07187 280.37631 290.38541 295.09485 298.41168 308.36224 311.67911 314.99594 320.96628 324.28311 328.92673 334.23367 344.30862 350.27893 356.91266 368.58017 373.28958 378.59656 384.89856 391.53229 396.83923 403.47293 408.77991 414.08685 424.1618 432.28564 435.93417 441.90451 451.85507"
         y="0"
         sodipodi:role="line"
         id="tspan2271">séquencesnaturelles.NosséquencessontglobalementsimilairesauxséquencesPfam,</tspan></text>
<text
       transform="matrix(1,0,0,-0.98039216,56.693,256.731)"
       style="font-variant:normal;font-weight:normal;font-size:12.19430447px;font-family:LMRoman12;-inkscape-font-specification:LMRoman12-Regular;writing-mode:lr-tb;fill:#000000;fill-opacity:1;fill-rule:nonzero;stroke:none"
       id="text2277"><tspan
         x="0 5.9703312 17.469561 22.179001 27.485962 34.119663 43.69463 50.328331 55.635292 65.210258 69.919701 75.226662 81.196991 85.840584 91.147545 100.72251 109.17804 116.63852 125.9257 132.5594 141.51003 152.45074 158.42108 164.39142 172.57379 178.22707 184.19984 189.50681 199.67929 206.31299 216.48547 221.12907 225.77266 231.07962 240.65459 247.61754 253.58788 260.22156 269.79654 274.50598 279.81293 285.78326 290.42685 295.73383 305.30878 312.25955 318.22989 324.86359 334.37268 337.68954 342.99649 352.57147 357.21506 362.52203 367.23148 370.54831 377.18201 383.8157 393.39069 399.36102 410.87244 416.16721 425.45438 432.0881 441.60941 448.2309"
         y="0"
         sodipodi:role="line"
         id="tspan2275">ausensdesscoresBLOSUM40,avecdetrèsbonsscorespourlesrésidusaucœurde</tspan></text>
<text
       transform="matrix(1,0,0,-0.98039216,56.693,242.285)"
       style="font-variant:normal;font-weight:normal;font-size:12.19430447px;font-family:LMRoman12;-inkscape-font-specification:LMRoman12-Regular;writing-mode:lr-tb;fill:#000000;fill-opacity:1;fill-rule:nonzero;stroke:none"
       id="text2281"><tspan
         x="0 3.3168507 13.542994 20.176695 24.820286 30.790617 35.434208 40.741169 44.058022 50.691723 55.998684 63.571346 71.031822 80.582397 90.532951 96.832527 103.46623 108.77319 112.09004 121.65282 129.44498 138.56387 151.26303 157.89673 163.86705 170.50076 177.13446 186.69724 191.34082 197.31116 203.94485 207.5934 213.56372 220.19742 224.84102 233.80627 240.43997 245.74693 254.71219 259.42163 264.72858 271.03061 277.66431 282.97125 289.60495 294.91193 300.21887 309.17194 313.88138 317.19824 327.14877 330.46564 333.7825 339.75281 343.06967 347.71326 353.02023 361.98547 372.21161 378.84531 384.15228 393.11752 399.75122 405.72156 415.67212 421.64246 424.95929 430.92963 436.88776 443.52148 448.82843"
         y="0"
         sodipodi:role="line"
         id="tspan2279">laprotéine.LemodèleFDBdonnetoujoursdesséquencessimilairesàdeshomologues</tspan></text>
<text
       transform="matrix(1,0,0,-0.98716683,56.693,227.84)"
       style="font-variant:normal;font-weight:normal;font-size:12.11061764px;font-family:LMRoman12;-inkscape-font-specification:LMRoman12-Regular;writing-mode:lr-tb;fill:#000000;fill-opacity:1;fill-rule:nonzero;stroke:none"
       id="text2285"><tspan
         x="0 6.5881758 12.517534 17.129257 23.717434 28.329157 33.599697 36.893784 45.470524 55.352787 61.597023 68.185196 73.455742 78.067467 83.338005 93.220268 98.490807 104.752 113.26334 118.53388 121.82797 127.75732 131.05142 136.98077 143.56895 148.83949 157.41623 162.68677 171.186 174.48009 177.77419 183.70354 190.29172 194.90344 198.19753 205.39124 211.9794 221.14957 225.76129 231.03183 236.30237 242.23174 248.8199 255.40808 261.32532 264.61942 269.30865 273.98578 279.91513 286.5033 291.76172 300.93188 307.52008 316.69022 323.27841 326.57248 333.75409 340.34225 346.93045 353.84561 359.11615 363.72787 367.35135 373.28073 383.16299 386.45706 389.75116 399.90955 405.8389 412.42709 419.01526 422.30936 425.60342 431.86221 438.45038 447.60843"
         y="0"
         sodipodi:role="line"
         id="tspan2283">naturelsmodérémentéloignésetl’outildereconnaissancedepliSuperfamilyappliquéà</tspan></text>
<text
       transform="matrix(1,0,0,-0.999001,56.693,213.394)"
       style="font-variant:normal;font-weight:normal;font-size:11.96715546px;font-family:LMRoman12;-inkscape-font-specification:LMRoman12-Regular;writing-mode:lr-tb;fill:#000000;fill-opacity:1;fill-rule:nonzero;stroke:none"
       id="text2289"><tspan
         x="0 5.208106 10.416212 18.951187 23.572903 28.781008 34.965633 41.475765 46.683872 53.194004 58.402111 63.610218 72.157158 78.66729 84.526413 91.036545 97.546677 106.66804 113.17818 116.43324 121.64134 127.82597 133.03407 138.24219 141.49725 144.75232 149.96042 156.14745 160.70453 169.2395 173.7966 179.00471 183.62642 190.13655 193.39162 197.94872 203.80783 208.36493 212.98665 220.15497 228.93886 234.79797 243.34492 247.96663 253.17474 259.35938 265.86951 271.07761 277.58774 282.79584 288.00394 296.53894 302.39804 308.58505 317.05542 322.26352 328.12265 333.98175 337.23682 342.44495 352.21014 357.41824 363.60526 372.07562 377.28372 381.84082 390.97415 396.18225 402.04135 411.80658 418.31671 424.17581 428.73291 433.94101 439.14911 447.68408"
         y="0"
         sodipodi:role="line"
         id="tspan2287">cesséquencesdonned’excellentsrésultats.Nosséquencesontégalementétécomparéesà</tspan></text>
<text
       transform="matrix(0.99,0,0,-1,56.693,198.948)"
       style="font-variant:normal;font-weight:normal;font-size:11.9552002px;font-family:LMRoman12;-inkscape-font-specification:LMRoman12-Regular;writing-mode:lr-tb;fill:#000000;fill-opacity:1;fill-rule:nonzero;stroke:none"
       id="text2293"><tspan
         x="0 5.2029033 10.405807 13.65762 16.909435 22.112337 30.662697 37.166325 47.603214 50.85503 56.708294 62.561562 65.813377 71.016281 74.268097 79.470993 86.656075 95.270988 101.12425 105.74136 110.94426 115.4968 120.04934 125.9026 133.08768 140.40187 150.1884 156.36684 162.87047 168.72374 171.97556 175.22737 179.77991 184.9828 192.16788 196.78499 201.98788 205.2397 211.09297 221.52986 224.78168 229.98457 238.54689 248.30234 253.49329 263.24872 268.45163 277.01395 282.21683 286.76938 290.02121 294.57373 299.76468 304.31723 309.52014 318.08243 324.26089 330.76453 339.9007 346.4043 350.95685 356.15976 361.36267 366.56555 373.06918 378.26013 388.01559 397.77103 402.97394 409.15475 413.70731 420.8924 426.09528 430.71237 439.19818 443.75073 448.30325 453.50616"
         y="0"
         sodipodi:role="line"
         id="tspan2291">cellesdulogicielRosetta.Laqualité,selonlesmêmescritèresqueprécédemment,esttrès</tspan></text>
<text
       transform="matrix(0.998,0,0,-1,56.693,184.502)"
       style="font-variant:normal;font-weight:normal;font-size:11.9552002px;font-family:LMRoman12;-inkscape-font-specification:LMRoman12-Regular;writing-mode:lr-tb;fill:#000000;fill-opacity:1;fill-rule:nonzero;stroke:none"
       id="text2297"><tspan
         x="0 5.2029033 11.056169 20.811613 27.315241 33.168507 37.721046 43.574314 50.077942 53.329758 58.532658 65.693825 76.420029 82.273293 85.525108 94.051559 97.303375 102.50628 111.03272 115.64983 120.85272 127.03117 133.53481 138.7377 145.24133 150.44424 155.64714 164.17358 170.67722 179.78947 188.40439 194.25766 198.87476 204.07765 208.63019 213.18274 222.94536 227.49789 232.70079 237.31789 241.87044 247.07333 253.25418 261.71606 268.54248 273.74539 279.59866 286.10229 291.30518 297.15845 303.66208 314.07507 320.57867 323.83051 330.33414 338.86057 345.3642 349.91675 356.0928 360.97293 367.47653 372.67944 381.2059 387.70953 396.82178 400.07361 409.83621 414.45331 419.65622 425.83466 432.33829 437.5412 444.04483 449.24771"
         y="0"
         sodipodi:role="line"
         id="tspan2295">comparable.MaislesséquencesdeRosettarestentbeaucoupplusprochesdelaséquence</tspan></text>
<text
       transform="matrix(1,0,0,-1,56.693,170.056)"
       style="font-variant:normal;font-weight:normal;font-size:11.9552002px;font-family:LMRoman12;-inkscape-font-specification:LMRoman12-Regular;writing-mode:lr-tb;fill:#000000;fill-opacity:1;fill-rule:nonzero;stroke:none"
       id="text2301"><tspan
         x="0 6.5036287 12.356894 16.909435 20.161249 26.016907 35.117203 41.29565 47.799282 56.899578 62.102482 67.305382 70.557198 73.809013 79.011917 87.538368 94.041992 103.1423 111.10685 115.65939 121.51265 126.06519 131.2681 137.77173 142.38882"
         y="0"
         sodipodi:role="line"
         id="tspan2299">nativequecellesdeProteus.</tspan></text>
<text
       transform="matrix(1,0,0,-1,74.252,143.655)"
       style="font-variant:normal;font-weight:bold;font-size:11.9552002px;font-family:LMRoman12;-inkscape-font-specification:LMRoman12-Bold;writing-mode:lr-tb;fill:#000000;fill-opacity:1;fill-rule:nonzero;stroke:none"
       id="text2305"><tspan
         x="0 12.75859 19.483389 24.713789 30.018312 34.501511 40.479111 44.215111 50.351715 60.103573"
         y="0"
         sodipodi:role="line"
         id="tspan2303">Mots-clés:</tspan></text>
<text
       transform="matrix(0.98,0,0,-1,141.951,143.655)"
       style="font-variant:normal;font-weight:normal;font-size:11.9552002px;font-family:LMRoman12;-inkscape-font-specification:LMRoman12-Regular;writing-mode:lr-tb;fill:#000000;fill-opacity:1;fill-rule:nonzero;stroke:none"
       id="text2309"><tspan
         x="0 9.7554436 15.943455 22.447084 27.649986 30.9018 34.153614 38.770714 44.623978 49.176521 52.428333 58.281601 68.730446 78.485886 84.327202 87.57901 92.781914 97.984818 104.48845 107.74026 113.59353 116.84534 121.39788 126.60078 133.79782 139.00072 144.85399 151.35762 156.56052 161.76343 168.26704 172.8196 176.07141 181.92467 192.37352 198.87714 208.02527 214.52888 219.08144 224.93469 229.48724 234.69014 237.94196 244.44559 253.5937 260.09732 265.93863 274.4364 280.28967 284.84219 291.34583 294.59766 301.10129 306.95453 311.50708 316.70999 323.21362 327.76614 334.9632 342.92773 347.48029 353.33356 357.88608 363.08899 369.59262 374.20972"
         y="0"
         sodipodi:role="line"
         id="tspan2307">modélisationmoléculaire,conceptiondeprotéineparordinateur,Proteus,</tspan></text>
<text
       transform="matrix(1,0,0,-1,56.693,129.209)"
       style="font-variant:normal;font-weight:normal;font-size:11.9552002px;font-family:LMRoman12;-inkscape-font-specification:LMRoman12-Regular;writing-mode:lr-tb;fill:#000000;fill-opacity:1;fill-rule:nonzero;stroke:none"
       id="text2313"><tspan
         x="0 10.726206 16.579472 22.760309 27.312849 36.413147 44.867867 50.72113 55.27367 58.525486 64.378754 71.527962 78.031593 83.884857 93.640297 99.493568 102.74538 109.24901 118.36126 126.32581 135.26591"
         y="0"
         sodipodi:role="line"
         id="tspan2311">MonteCarlo,domainePDZ</tspan></text>
</g></svg>