<?xml version="1.0"?>

<svg xmlns:dc="http://purl.org/dc/elements/1.1/" xmlns:cc="http://creativecommons.org/ns#" xmlns:rdf="http://www.w3.org/1999/02/22-rdf-syntax-ns#" xmlns:svg="http://www.w3.org/2000/svg" xmlns="http://www.w3.org/2000/svg" xmlns:xlink="http://www.w3.org/1999/xlink" xmlns:sodipodi="http://sodipodi.sourceforge.net/DTD/sodipodi-0.dtd" xmlns:inkscape="http://www.inkscape.org/namespaces/inkscape" id="svg5318" version="1.1" viewBox="0 0 243.17741 219.74571" height="219.74571" width="243.17741" sodipodi:docname="angle.svg" inkscape:version="0.92.1 r15371"> <sodipodi:namedview pagecolor="#ffffff" bordercolor="#666666" borderopacity="1" objecttolerance="10" gridtolerance="10" guidetolerance="10" inkscape:pageopacity="0" inkscape:pageshadow="2" inkscape:window-width="902" inkscape:window-height="709" id="namedview4585" showgrid="false" inkscape:zoom="0.3048754" inkscape:cx="520.51387" inkscape:cy="279.52127" inkscape:window-x="1010" inkscape:window-y="120" inkscape:window-maximized="0" inkscape:current-layer="svg5318"></sodipodi:namedview> <defs id="defs5312"> <marker style="overflow:visible" id="marker7500" refX="0" refY="0" orient="auto"> <path transform="matrix(-0.4,0,0,-0.4,-4,0)" style="fill:#000000;fill-opacity:1;fill-rule:evenodd;stroke:#000000;stroke-width:1.00000003pt;stroke-opacity:1" d="M 0,0 5,-5 -12.5,0 5,5 Z" id="path7498" inkscape:connector-curvature="0"></path> </marker> <marker style="overflow:visible" id="Arrow1Mstart" refX="0" refY="0" orient="auto"> <path transform="matrix(0.4,0,0,0.4,4,0)" style="fill:#000000;fill-opacity:1;fill-rule:evenodd;stroke:#000000;stroke-width:1.00000003pt;stroke-opacity:1" d="M 0,0 5,-5 -12.5,0 5,5 Z" id="path4501" inkscape:connector-curvature="0"></path> </marker> <marker style="overflow:visible" id="Arrow1Sstart" refX="0" refY="0" orient="auto"> <path transform="matrix(0.2,0,0,0.2,1.2,0)" style="fill:#000000;fill-opacity:1;fill-rule:evenodd;stroke:#000000;stroke-width:1.00000003pt;stroke-opacity:1" d="M 0,0 5,-5 -12.5,0 5,5 Z" id="path4507" inkscape:connector-curvature="0"></path> </marker> <marker style="overflow:visible" id="Arrow2Send" refX="0" refY="0" orient="auto"> <path transform="matrix(-0.3,0,0,-0.3,0.69,0)" d="M 8.7185878,4.0337352 -2.2072895,0.01601326 8.7185884,-4.0017078 c -1.7454984,2.3720609 -1.7354408,5.6174519 -6e-7,8.035443 z" style="fill:#000000;fill-opacity:1;fill-rule:evenodd;stroke:#000000;stroke-width:0.625;stroke-linejoin:round;stroke-opacity:1" id="path4528" inkscape:connector-curvature="0"></path> </marker> <marker style="overflow:visible" id="marker6577" refX="0" refY="0" orient="auto"> <path transform="matrix(-0.2,0,0,-0.2,-1.2,0)" style="fill:#000000;fill-opacity:1;fill-rule:evenodd;stroke:#000000;stroke-width:1.00000003pt;stroke-opacity:1" d="M 0,0 5,-5 -12.5,0 5,5 Z" id="path6575" inkscape:connector-curvature="0"></path> </marker> <marker style="overflow:visible" id="Arrow1Send" refX="0" refY="0" orient="auto"> <path transform="matrix(-0.2,0,0,-0.2,-1.2,0)" style="fill:#000000;fill-opacity:1;fill-rule:evenodd;stroke:#000000;stroke-width:1.00000003pt;stroke-opacity:1" d="M 0,0 5,-5 -12.5,0 5,5 Z" id="path4510" inkscape:connector-curvature="0"></path> </marker> <marker style="overflow:visible" id="Arrow2Lend" refX="0" refY="0" orient="auto"> <path transform="matrix(-1.1,0,0,-1.1,-1.1,0)" d="M 8.7185878,4.0337352 -2.2072895,0.01601326 8.7185884,-4.0017078 c -1.7454984,2.3720609 -1.7354408,5.6174519 -6e-7,8.035443 z" style="fill:#000000;fill-opacity:1;fill-rule:evenodd;stroke:#000000;stroke-width:0.625;stroke-linejoin:round;stroke-opacity:1" id="path4516" inkscape:connector-curvature="0"></path> </marker> <marker style="overflow:visible" id="Arrow1Mend" refX="0" refY="0" orient="auto"> <path transform="matrix(-0.4,0,0,-0.4,-4,0)" style="fill:#000000;fill-opacity:1;fill-rule:evenodd;stroke:#000000;stroke-width:1.00000003pt;stroke-opacity:1" d="M 0,0 5,-5 -12.5,0 5,5 Z" id="path4504" inkscape:connector-curvature="0"></path> </marker> <marker style="overflow:visible" id="Arrow2Mstart" refX="0" refY="0" orient="auto"> <path transform="scale(0.6)" d="M 8.7185878,4.0337352 -2.2072895,0.01601326 8.7185884,-4.0017078 c -1.7454984,2.3720609 -1.7354408,5.6174519 -6e-7,8.035443 z" style="fill:#000000;fill-opacity:1;fill-rule:evenodd;stroke:#000000;stroke-width:0.625;stroke-linejoin:round;stroke-opacity:1" id="path4519" inkscape:connector-curvature="0"></path> </marker> <marker style="overflow:visible" id="marker6115" refX="0" refY="0" orient="auto"> <path transform="matrix(1.1,0,0,1.1,1.1,0)" d="M 8.7185878,4.0337352 -2.2072895,0.01601326 8.7185884,-4.0017078 c -1.7454984,2.3720609 -1.7354408,5.6174519 -6e-7,8.035443 z" style="fill:#000000;fill-opacity:1;fill-rule:evenodd;stroke:#000000;stroke-width:0.625;stroke-linejoin:round;stroke-opacity:1" id="path6113" inkscape:connector-curvature="0"></path> </marker> <marker style="overflow:visible" id="Arrow2Lstart" refX="0" refY="0" orient="auto"> <path transform="matrix(1.1,0,0,1.1,1.1,0)" d="M 8.7185878,4.0337352 -2.2072895,0.01601326 8.7185884,-4.0017078 c -1.7454984,2.3720609 -1.7354408,5.6174519 -6e-7,8.035443 z" style="fill:#000000;fill-opacity:1;fill-rule:evenodd;stroke:#000000;stroke-width:0.625;stroke-linejoin:round;stroke-opacity:1" id="path4513" inkscape:connector-curvature="0"></path> </marker> <marker style="overflow:visible" id="Arrow1Lend" refX="0" refY="0" orient="auto"> <path transform="matrix(-0.8,0,0,-0.8,-10,0)" style="fill:#000000;fill-opacity:1;fill-rule:evenodd;stroke:#000000;stroke-width:1.00000003pt;stroke-opacity:1" d="M 0,0 5,-5 -12.5,0 5,5 Z" id="path4498" inkscape:connector-curvature="0"></path> </marker> <linearGradient id="linearGradient5935"> <stop id="stop5931" offset="0" style="stop-color:#53676c;stop-opacity:1"></stop> <stop style="stop-color:#93a7ac;stop-opacity:1" offset="0.19511463" id="stop5941"></stop> <stop style="stop-color:#f9f9f9;stop-opacity:1" offset="0.39643821" id="stop5939"></stop> <stop id="stop5943" offset="0.81707996" style="stop-color:#93a7ac;stop-opacity:1"></stop> <stop id="stop5933" offset="1" style="stop-color:#53676c;stop-opacity:1"></stop> </linearGradient> <linearGradient id="linearGradient5888"> <stop id="stop5884" offset="0" style="stop-color:#afc6e9;stop-opacity:1"></stop> <stop style="stop-color:#779ed9;stop-opacity:1;" offset="0.18055281" id="stop5896"></stop> <stop style="stop-color:#3771c8;stop-opacity:1" offset="0.60483581" id="stop5892"></stop> <stop id="stop5886" offset="1" style="stop-color:#2c5aa0;stop-opacity:1"></stop> </linearGradient> <radialGradient gradientUnits="userSpaceOnUse" gradientTransform="matrix(1.017073,0.83353998,-0.75020566,0.90134267,52.275168,-130.47608)" r="43.078354" fy="141.79318" fx="75.403374" cy="141.79318" cx="75.403374" id="radialGradient5890" xlink:href="#linearGradient5888"></radialGradient> <radialGradient r="43.078354" fy="141.79318" fx="75.403374" cy="141.79318" cx="75.403374" gradientTransform="matrix(1.017073,0.83353998,-0.75020566,0.90134267,111.609,-34.526317)" gradientUnits="userSpaceOnUse" id="radialGradient5900" xlink:href="#linearGradient5888"></radialGradient> <linearGradient gradientTransform="matrix(0.33821646,0.60605113,-0.67018214,0.37400578,105.15481,18.253362)" gradientUnits="userSpaceOnUse" y2="111.64858" x2="105.17056" y1="89.732483" x1="105.30419" id="linearGradient5937" xlink:href="#linearGradient5935"></linearGradient> <radialGradient r="43.078354" fy="141.79318" fx="75.403374" cy="141.79318" cx="75.403374" gradientTransform="matrix(1.017073,0.83353998,-0.75020566,0.90134267,168.27014,-133.68331)" gradientUnits="userSpaceOnUse" id="radialGradient7066" xlink:href="#linearGradient5888"></radialGradient> <linearGradient y2="111.64858" x2="105.17056" y1="89.732483" x1="105.30419" gradientTransform="matrix(-0.38367611,0.63747867,-0.71456812,-0.41855636,242.73419,91.322025)" gradientUnits="userSpaceOnUse" id="linearGradient7070" xlink:href="#linearGradient5935"></linearGradient> </defs> <metadata id="metadata5315"> <rdf:rdf> <cc:work rdf:about=""> <dc:format>image/svg+xml</dc:format> <dc:type rdf:resource="http://purl.org/dc/dcmitype/StillImage"></dc:type> <dc:title></dc:title> </cc:work> </rdf:rdf> </metadata> <g id="g1455" transform="translate(16.579963,-0.97527178)"> <rect y="6.2733035" x="-10.414091" height="212.62102" width="236.05272" id="rect1369" style="opacity:1;fill:#ac9393;fill-opacity:0.99543379;stroke:#c8b7b7;stroke-width:7.12470007;stroke-linejoin:round;stroke-miterlimit:1.70000005;stroke-dasharray:none;stroke-dashoffset:0;stroke-opacity:1;paint-order:stroke fill markers"></rect> <g id="layer1"> <ellipse style="fill:url(#radialGradient5890);fill-opacity:1;stroke:#0000ff;stroke-width:0;stroke-linejoin:bevel;stroke-miterlimit:4;stroke-dasharray:none;stroke-dashoffset:0;stroke-opacity:1" id="path5882" cx="43.431301" cy="71.825417" rx="34.878674" ry="31.671436"></ellipse> <ellipse ry="31.671436" rx="34.878674" cy="167.77518" cx="102.76513" id="ellipse5898" style="fill:url(#radialGradient5900);fill-opacity:1;stroke:#0000ff;stroke-width:0;stroke-linejoin:bevel;stroke-miterlimit:4;stroke-dasharray:none;stroke-dashoffset:0;stroke-opacity:1"></ellipse> <path style="opacity:1;fill:url(#linearGradient5937);fill-opacity:1;fill-rule:evenodd;stroke:#000000;stroke-width:0;stroke-linecap:butt;stroke-linejoin:miter;stroke-miterlimit:4;stroke-dasharray:none;stroke-opacity:1" d="m 67.449707,91.792154 c 0,0 -4.483905,3.685676 -6.995499,5.129842 -2.440194,1.403095 -7.576088,3.297054 -7.576088,3.297054 l 26.109846,46.78631 c 0,0 5.094957,-3.55333 7.879343,-4.99724 2.26606,-1.17517 6.912213,-2.98565 6.912213,-2.98565 z" id="path5929" inkscape:connector-curvature="0"></path> <ellipse ry="31.671436" rx="34.878674" cy="68.618179" cx="159.42627" id="ellipse7064" style="fill:url(#radialGradient7066);fill-opacity:1;stroke:#0000ff;stroke-width:0;stroke-linejoin:bevel;stroke-miterlimit:4;stroke-dasharray:none;stroke-dashoffset:0;stroke-opacity:1"></ellipse> <path id="path7068" d="m 153.37094,95.927582 c 0,0 -5.88903,-2.165743 -8.6068,-3.711523 -2.64049,-1.50185 -7.2061,-5.230824 -7.2061,-5.230824 l -29.61926,49.212475 c 0,0 6.09728,2.80123 8.96309,4.59917 2.3324,1.4632 6.5536,4.78451 6.5536,4.78451 z" style="opacity:1;fill:url(#linearGradient7070);fill-opacity:1;fill-rule:evenodd;stroke:#000000;stroke-width:0;stroke-linecap:butt;stroke-linejoin:miter;stroke-miterlimit:4;stroke-dasharray:none;stroke-opacity:1" inkscape:connector-curvature="0"></path> <path style="fill:none;fill-rule:evenodd;stroke:#000000;stroke-width:3.54299998;stroke-linecap:butt;stroke-linejoin:miter;stroke-miterlimit:4;stroke-dasharray:none;stroke-opacity:1" d="m 82.063158,93.467659 c 0,0 6.983227,-10.926288 22.062342,-10.75689 15.07912,0.169397 20.0779,10.520474 21.12849,10.047643" id="path7074" inkscape:connector-curvature="0"></path> <path style="fill:#000000;fill-rule:evenodd;stroke:#000000;stroke-width:0.26458332px;stroke-linecap:butt;stroke-linejoin:miter;stroke-opacity:1" d="m 113.39285,91.758928 11.52828,-8.882441 2.83482,15.308035 z" id="path7652" inkscape:connector-curvature="0"></path> <path id="path7656" d="m 83.627227,82.78199 8.882444,11.52828 -15.308038,2.834821 z" style="fill:#000000;fill-rule:evenodd;stroke:#000000;stroke-width:0.26458332px;stroke-linecap:butt;stroke-linejoin:miter;stroke-opacity:1" inkscape:connector-curvature="0"></path> </g> <text transform="scale(1.013301,0.98687359)" id="text5204" y="71.791985" x="93.339401" style="font-style:normal;font-weight:normal;font-size:25.29799461px;line-height:125%;font-family:Sans;letter-spacing:0px;word-spacing:0px;fill:#000000;fill-opacity:1;stroke:none;stroke-width:0.4743374px;stroke-linecap:butt;stroke-linejoin:miter;stroke-opacity:1" xml:space="preserve"><tspan style="stroke-width:0.4743374px" y="71.791985" x="93.339401" id="tspan5202" sodipodi:role="line">θ</tspan></text> </g>
</svg>
