<?xml version="1.0"?>

<!-- Created with Inkscape (http://www.inkscape.org/) --> <svg xmlns:dc="http://purl.org/dc/elements/1.1/" xmlns:cc="http://creativecommons.org/ns#" xmlns:rdf="http://www.w3.org/1999/02/22-rdf-syntax-ns#" xmlns:svg="http://www.w3.org/2000/svg" xmlns="http://www.w3.org/2000/svg" xmlns:sodipodi="http://sodipodi.sourceforge.net/DTD/sodipodi-0.dtd" xmlns:inkscape="http://www.inkscape.org/namespaces/inkscape" width="48.91655" height="50.493546" viewBox="0 0 48.916549 50.493545" version="1.1" id="svg8" inkscape:version="0.92.1 r15371" sodipodi:docname="pairwise.svg"> <defs id="defs2"> <marker inkscape:isstock="true" style="overflow:visible" id="marker1371" refX="0" refY="0" orient="auto" inkscape:stockid="Arrow2Sstart"> <path transform="matrix(0.3,0,0,0.3,-0.69,0)" d="M 8.7185878,4.0337352 -2.2072895,0.01601326 8.7185884,-4.0017078 c -1.7454984,2.3720609 -1.7354408,5.6174519 -6e-7,8.035443 z" style="fill:#ea1e5d;fill-opacity:1;fill-rule:evenodd;stroke:#ea1e5d;stroke-width:0.625;stroke-linejoin:round;stroke-opacity:1" id="path1369" inkscape:connector-curvature="0"></path> </marker> <marker inkscape:stockid="Arrow2Sstart" orient="auto" refY="0" refX="0" id="Arrow2Sstart" style="overflow:visible" inkscape:isstock="true" inkscape:collect="always"> <path id="path955" style="fill:#ea1e5d;fill-opacity:1;fill-rule:evenodd;stroke:#ea1e5d;stroke-width:0.625;stroke-linejoin:round;stroke-opacity:1" d="M 8.7185878,4.0337352 -2.2072895,0.01601326 8.7185884,-4.0017078 c -1.7454984,2.3720609 -1.7354408,5.6174519 -6e-7,8.035443 z" transform="matrix(0.3,0,0,0.3,-0.69,0)" inkscape:connector-curvature="0"></path> </marker> <marker inkscape:stockid="Arrow1Mstart" orient="auto" refY="0" refX="0" id="Arrow1Mstart" style="overflow:visible" inkscape:isstock="true"> <path id="path931" d="M 0,0 5,-5 -12.5,0 5,5 Z" style="fill:#ea1e5d;fill-opacity:1;fill-rule:evenodd;stroke:#ea1e5d;stroke-width:1.00000003pt;stroke-opacity:1" transform="matrix(0.4,0,0,0.4,4,0)" inkscape:connector-curvature="0"></path> </marker> <marker inkscape:stockid="TriangleOutL" orient="auto" refY="0" refX="0" id="TriangleOutL" style="overflow:visible" inkscape:isstock="true"> <path id="path1067" d="M 5.77,0 -2.88,5 V -5 Z" style="fill:#ea1e5d;fill-opacity:1;fill-rule:evenodd;stroke:#ea1e5d;stroke-width:1.00000003pt;stroke-opacity:1" transform="scale(0.8)" inkscape:connector-curvature="0"></path> </marker> <marker inkscape:isstock="true" style="overflow:visible" id="marker5605" refX="0" refY="0" orient="auto" inkscape:stockid="Arrow1Send"> <path transform="matrix(-0.2,0,0,-0.2,-1.2,0)" style="fill:#818181;fill-opacity:1;fill-rule:evenodd;stroke:#818181;stroke-width:1.00000003pt;stroke-opacity:1" d="M 0,0 5,-5 -12.5,0 5,5 Z" id="path5603" inkscape:connector-curvature="0"></path> </marker> <marker inkscape:stockid="Arrow1Mend" orient="auto" refY="0" refX="0" id="Arrow1Mend" style="overflow:visible" inkscape:isstock="true"> <path id="path4553" d="M 0,0 5,-5 -12.5,0 5,5 Z" style="fill:#000000;fill-opacity:1;fill-rule:evenodd;stroke:#000000;stroke-width:1.00000003pt;stroke-opacity:1" transform="matrix(-0.4,0,0,-0.4,-4,0)" inkscape:connector-curvature="0"></path> </marker> <marker inkscape:stockid="Arrow2Lend" orient="auto" refY="0" refX="0" id="Arrow2Lend" style="overflow:visible" inkscape:isstock="true"> <path id="path4565" style="fill:#000000;fill-opacity:1;fill-rule:evenodd;stroke:#000000;stroke-width:0.625;stroke-linejoin:round;stroke-opacity:1" d="M 8.7185878,4.0337352 -2.2072895,0.01601326 8.7185884,-4.0017078 c -1.7454984,2.3720609 -1.7354408,5.6174519 -6e-7,8.035443 z" transform="matrix(-1.1,0,0,-1.1,-1.1,0)" inkscape:connector-curvature="0"></path> </marker> <marker inkscape:stockid="Arrow1Lend" orient="auto" refY="0" refX="0" id="Arrow1Lend" style="overflow:visible" inkscape:isstock="true"> <path id="path4547" d="M 0,0 5,-5 -12.5,0 5,5 Z" style="fill:#000000;fill-opacity:1;fill-rule:evenodd;stroke:#000000;stroke-width:1.00000003pt;stroke-opacity:1" transform="matrix(-0.8,0,0,-0.8,-10,0)" inkscape:connector-curvature="0"></path> </marker> </defs> <sodipodi:namedview id="base" pagecolor="#ffffff" bordercolor="#666666" borderopacity="1.0" inkscape:pageopacity="0.0" inkscape:pageshadow="2" inkscape:zoom="2" inkscape:cx="118.20338" inkscape:cy="65.890866" inkscape:document-units="mm" inkscape:current-layer="layer1" showgrid="false" inkscape:window-width="1384" inkscape:window-height="877" inkscape:window-x="353" inkscape:window-y="44" inkscape:window-maximized="0"></sodipodi:namedview> <metadata id="metadata5"> <rdf:rdf> <cc:work rdf:about=""> <dc:format>image/svg+xml</dc:format> <dc:type rdf:resource="http://purl.org/dc/dcmitype/StillImage"></dc:type> <dc:title></dc:title> </cc:work> </rdf:rdf> </metadata> <g inkscape:label="Layer 1" inkscape:groupmode="layer" id="layer1" transform="translate(-5.03706,-40.845494)"> <path style="fill:none;fill-rule:evenodd;stroke:#000000;stroke-width:1.29189479;stroke-linecap:butt;stroke-linejoin:miter;stroke-miterlimit:4;stroke-dasharray:none;stroke-opacity:1" d="M 5.5245451,60.866103 C 8.2386565,57.744137 13.197569,54.208036 17.909521,55.538294 25.645083,57.722172 14.586069,77.384589 35.363,87.641256 41.705633,90.772338 48.690125,86.434984 51.681834,81.452502 55.988401,74.280077 50.657156,61.074219 47.715256,53.540177 46.134922,49.493023 47.111293,40.918576 47.111293,40.918576" id="path4489" inkscape:connector-curvature="0" sodipodi:nodetypes="cssssc"></path> <g transform="matrix(0.87451266,0,0,0.76327173,-24.242694,19.482284)" id="g57"> <path style="opacity:1;fill:#ea1e5d;fill-opacity:0.99521532;stroke:#000000;stroke-width:0.30715871;stroke-linejoin:round;stroke-miterlimit:4;stroke-dasharray:none;stroke-dashoffset:0;stroke-opacity:1" id="path55" sodipodi:type="arc" sodipodi:cx="51.971745" sodipodi:cy="56.040173" sodipodi:rx="4.2924972" sodipodi:ry="4.6709099" sodipodi:start="1.8575252" sodipodi:end="1.8572995" sodipodi:open="true" d="m 50.757757,60.520389 a 4.2924972,4.6709099 0 0 1 -2.903333,-5.800972 4.2924972,4.6709099 0 0 1 5.330843,-3.159609 4.2924972,4.6709099 0 0 1 2.903935,5.800615 4.2924972,4.6709099 0 0 1 -5.330516,3.160264"></path> </g> <g id="g83" transform="matrix(0.87451266,0,0,0.76327173,2.7448059,11.412492)"> <path d="m 50.757757,60.520389 a 4.2924972,4.6709099 0 0 1 -2.903333,-5.800972 4.2924972,4.6709099 0 0 1 5.330843,-3.159609 4.2924972,4.6709099 0 0 1 2.903935,5.800615 4.2924972,4.6709099 0 0 1 -5.330516,3.160264" sodipodi:open="true" sodipodi:end="1.8572995" sodipodi:start="1.8575252" sodipodi:ry="4.6709099" sodipodi:rx="4.2924972" sodipodi:cy="56.040173" sodipodi:cx="51.971745" sodipodi:type="arc" id="path81" style="opacity:1;fill:#ea1e5d;fill-opacity:0.99521532;stroke:#000000;stroke-width:0.30715871;stroke-linejoin:round;stroke-miterlimit:4;stroke-dasharray:none;stroke-dashoffset:0;stroke-opacity:1"></path> </g> <g id="g87" transform="matrix(0.87451266,0,0,0.76327173,-3.6051941,44.882284)"> <path d="m 50.757757,60.520389 a 4.2924972,4.6709099 0 0 1 -2.903333,-5.800972 4.2924972,4.6709099 0 0 1 5.330843,-3.159609 4.2924972,4.6709099 0 0 1 2.903935,5.800615 4.2924972,4.6709099 0 0 1 -5.330516,3.160264" sodipodi:open="true" sodipodi:end="1.8572995" sodipodi:start="1.8575252" sodipodi:ry="4.6709099" sodipodi:rx="4.2924972" sodipodi:cy="56.040173" sodipodi:cx="51.971745" sodipodi:type="arc" id="path85" style="opacity:1;fill:#ea1e5d;fill-opacity:0.99521532;stroke:#000000;stroke-width:0.30715871;stroke-linejoin:round;stroke-miterlimit:4;stroke-dasharray:none;stroke-dashoffset:0;stroke-opacity:1"></path> </g> <g id="g1670"> <path inkscape:connector-curvature="0" id="path89" d="M 26.693223,59.9816 C 41.377598,55.483684 41.377598,55.483684 41.377598,55.483684" style="fill:#ea1e5d;fill-rule:evenodd;stroke:#ea1e5d;stroke-width:0.96499997;stroke-linecap:butt;stroke-linejoin:miter;stroke-miterlimit:4;stroke-dasharray:none;stroke-opacity:1;marker-start:url(#Arrow2Sstart)"></path> <path style="fill:#ea1e5d;fill-rule:evenodd;stroke:#ea1e5d;stroke-width:0.96499997;stroke-linecap:butt;stroke-linejoin:miter;stroke-miterlimit:4;stroke-dasharray:none;stroke-opacity:1;marker-start:url(#marker1371)" d="M 41.377599,55.483685 C 26.693224,59.981601 26.693224,59.981601 26.693224,59.981601" id="path1367" inkscape:connector-curvature="0"></path> </g> <g id="g1688" transform="rotate(-112.37897,38.35963,66.621653)"> <path style="fill:#ea1e5d;fill-rule:evenodd;stroke:#ea1e5d;stroke-width:0.96499997;stroke-linecap:butt;stroke-linejoin:miter;stroke-miterlimit:4;stroke-dasharray:none;stroke-opacity:1;marker-start:url(#Arrow2Sstart)" d="M 26.693223,59.9816 C 41.377598,55.483684 41.377598,55.483684 41.377598,55.483684" id="path1684" inkscape:connector-curvature="0"></path> <path inkscape:connector-curvature="0" id="path1686" d="M 41.377599,55.483685 C 26.693224,59.981601 26.693224,59.981601 26.693224,59.981601" style="fill:#ea1e5d;fill-rule:evenodd;stroke:#ea1e5d;stroke-width:0.96499997;stroke-linecap:butt;stroke-linejoin:miter;stroke-miterlimit:4;stroke-dasharray:none;stroke-opacity:1;marker-start:url(#marker1371)"></path> </g> </g>
</svg>
