<?xml version="1.0"?>

<svg xmlns:dc="http://purl.org/dc/elements/1.1/" xmlns:cc="http://creativecommons.org/ns#" xmlns:rdf="http://www.w3.org/1999/02/22-rdf-syntax-ns#" xmlns:svg="http://www.w3.org/2000/svg" xmlns="http://www.w3.org/2000/svg" xmlns:xlink="http://www.w3.org/1999/xlink" xmlns:sodipodi="http://sodipodi.sourceforge.net/DTD/sodipodi-0.dtd" xmlns:inkscape="http://www.inkscape.org/namespaces/inkscape" id="svg5318" version="1.1" viewBox="0 0 353.36032 223.44041" height="223.44041" width="353.36032" sodipodi:docname="impropre.svg" inkscape:version="0.92.1 r15371" inkscape:export-filename="/home/david/Thèse/These/redaction/CPD/figure/impropre.png" inkscape:export-xdpi="96" inkscape:export-ydpi="96"> <sodipodi:namedview pagecolor="#ffffff" bordercolor="#666666" borderopacity="1" objecttolerance="10" gridtolerance="10" guidetolerance="10" inkscape:pageopacity="0" inkscape:pageshadow="2" inkscape:window-width="472" inkscape:window-height="440" id="namedview6192" showgrid="false" inkscape:zoom="0.14866305" inkscape:cx="659.16" inkscape:cy="401.3248" inkscape:window-x="906" inkscape:window-y="116" inkscape:window-maximized="0" inkscape:current-layer="svg5318"></sodipodi:namedview> <defs id="defs5312"> <marker style="overflow:visible" id="marker7500" refX="0" refY="0" orient="auto"> <path transform="matrix(-0.4,0,0,-0.4,-4,0)" style="fill:#000000;fill-opacity:1;fill-rule:evenodd;stroke:#000000;stroke-width:1.00000003pt;stroke-opacity:1" d="M 0,0 5,-5 -12.5,0 5,5 Z" id="path7498" inkscape:connector-curvature="0"></path> </marker> <marker style="overflow:visible" id="Arrow1Mstart" refX="0" refY="0" orient="auto"> <path transform="matrix(0.4,0,0,0.4,4,0)" style="fill:#000000;fill-opacity:1;fill-rule:evenodd;stroke:#000000;stroke-width:1.00000003pt;stroke-opacity:1" d="M 0,0 5,-5 -12.5,0 5,5 Z" id="path4501" inkscape:connector-curvature="0"></path> </marker> <marker style="overflow:visible" id="Arrow1Sstart" refX="0" refY="0" orient="auto"> <path transform="matrix(0.2,0,0,0.2,1.2,0)" style="fill:#000000;fill-opacity:1;fill-rule:evenodd;stroke:#000000;stroke-width:1.00000003pt;stroke-opacity:1" d="M 0,0 5,-5 -12.5,0 5,5 Z" id="path4507" inkscape:connector-curvature="0"></path> </marker> <marker style="overflow:visible" id="Arrow2Send" refX="0" refY="0" orient="auto"> <path transform="matrix(-0.3,0,0,-0.3,0.69,0)" d="M 8.7185878,4.0337352 -2.2072895,0.01601326 8.7185884,-4.0017078 c -1.7454984,2.3720609 -1.7354408,5.6174519 -6e-7,8.035443 z" style="fill:#000000;fill-opacity:1;fill-rule:evenodd;stroke:#000000;stroke-width:0.625;stroke-linejoin:round;stroke-opacity:1" id="path4528" inkscape:connector-curvature="0"></path> </marker> <marker style="overflow:visible" id="marker6577" refX="0" refY="0" orient="auto"> <path transform="matrix(-0.2,0,0,-0.2,-1.2,0)" style="fill:#000000;fill-opacity:1;fill-rule:evenodd;stroke:#000000;stroke-width:1.00000003pt;stroke-opacity:1" d="M 0,0 5,-5 -12.5,0 5,5 Z" id="path6575" inkscape:connector-curvature="0"></path> </marker> <marker style="overflow:visible" id="Arrow1Send" refX="0" refY="0" orient="auto"> <path transform="matrix(-0.2,0,0,-0.2,-1.2,0)" style="fill:#000000;fill-opacity:1;fill-rule:evenodd;stroke:#000000;stroke-width:1.00000003pt;stroke-opacity:1" d="M 0,0 5,-5 -12.5,0 5,5 Z" id="path4510" inkscape:connector-curvature="0"></path> </marker> <marker style="overflow:visible" id="Arrow2Lend" refX="0" refY="0" orient="auto"> <path transform="matrix(-1.1,0,0,-1.1,-1.1,0)" d="M 8.7185878,4.0337352 -2.2072895,0.01601326 8.7185884,-4.0017078 c -1.7454984,2.3720609 -1.7354408,5.6174519 -6e-7,8.035443 z" style="fill:#000000;fill-opacity:1;fill-rule:evenodd;stroke:#000000;stroke-width:0.625;stroke-linejoin:round;stroke-opacity:1" id="path4516" inkscape:connector-curvature="0"></path> </marker> <marker style="overflow:visible" id="Arrow1Mend" refX="0" refY="0" orient="auto"> <path transform="matrix(-0.4,0,0,-0.4,-4,0)" style="fill:#000000;fill-opacity:1;fill-rule:evenodd;stroke:#000000;stroke-width:1.00000003pt;stroke-opacity:1" d="M 0,0 5,-5 -12.5,0 5,5 Z" id="path4504" inkscape:connector-curvature="0"></path> </marker> <marker style="overflow:visible" id="Arrow2Mstart" refX="0" refY="0" orient="auto"> <path transform="scale(0.6)" d="M 8.7185878,4.0337352 -2.2072895,0.01601326 8.7185884,-4.0017078 c -1.7454984,2.3720609 -1.7354408,5.6174519 -6e-7,8.035443 z" style="fill:#000000;fill-opacity:1;fill-rule:evenodd;stroke:#000000;stroke-width:0.625;stroke-linejoin:round;stroke-opacity:1" id="path4519" inkscape:connector-curvature="0"></path> </marker> <marker style="overflow:visible" id="marker6115" refX="0" refY="0" orient="auto"> <path transform="matrix(1.1,0,0,1.1,1.1,0)" d="M 8.7185878,4.0337352 -2.2072895,0.01601326 8.7185884,-4.0017078 c -1.7454984,2.3720609 -1.7354408,5.6174519 -6e-7,8.035443 z" style="fill:#000000;fill-opacity:1;fill-rule:evenodd;stroke:#000000;stroke-width:0.625;stroke-linejoin:round;stroke-opacity:1" id="path6113" inkscape:connector-curvature="0"></path> </marker> <marker style="overflow:visible" id="Arrow2Lstart" refX="0" refY="0" orient="auto"> <path transform="matrix(1.1,0,0,1.1,1.1,0)" d="M 8.7185878,4.0337352 -2.2072895,0.01601326 8.7185884,-4.0017078 c -1.7454984,2.3720609 -1.7354408,5.6174519 -6e-7,8.035443 z" style="fill:#000000;fill-opacity:1;fill-rule:evenodd;stroke:#000000;stroke-width:0.625;stroke-linejoin:round;stroke-opacity:1" id="path4513" inkscape:connector-curvature="0"></path> </marker> <marker style="overflow:visible" id="Arrow1Lend" refX="0" refY="0" orient="auto"> <path transform="matrix(-0.8,0,0,-0.8,-10,0)" style="fill:#000000;fill-opacity:1;fill-rule:evenodd;stroke:#000000;stroke-width:1.00000003pt;stroke-opacity:1" d="M 0,0 5,-5 -12.5,0 5,5 Z" id="path4498" inkscape:connector-curvature="0"></path> </marker> <linearGradient id="linearGradient5935"> <stop id="stop5931" offset="0" style="stop-color:#53676c;stop-opacity:1"></stop> <stop style="stop-color:#93a7ac;stop-opacity:1" offset="0.19511463" id="stop5941"></stop> <stop style="stop-color:#f9f9f9;stop-opacity:1" offset="0.39643821" id="stop5939"></stop> <stop id="stop5943" offset="0.81707996" style="stop-color:#93a7ac;stop-opacity:1"></stop> <stop id="stop5933" offset="1" style="stop-color:#53676c;stop-opacity:1"></stop> </linearGradient> <linearGradient id="linearGradient5888"> <stop id="stop5884" offset="0" style="stop-color:#afc6e9;stop-opacity:1"></stop> <stop style="stop-color:#779ed9;stop-opacity:1;" offset="0.18055281" id="stop5896"></stop> <stop style="stop-color:#3771c8;stop-opacity:1" offset="0.60483581" id="stop5892"></stop> <stop id="stop5886" offset="1" style="stop-color:#2c5aa0;stop-opacity:1"></stop> </linearGradient> <radialGradient gradientUnits="userSpaceOnUse" gradientTransform="matrix(0.93701595,0.75254441,-0.69115456,0.81375867,90.329552,-59.824138)" r="43.078354" fy="141.79318" fx="75.403374" cy="141.79318" cx="75.403374" id="radialGradient5890" xlink:href="#linearGradient5888"></radialGradient> <radialGradient r="43.078354" fy="141.79318" fx="75.403374" cy="141.79318" cx="75.403374" gradientTransform="matrix(0.86899341,0.74209677,-0.64098031,0.80246119,175.23745,-115.13267)" gradientUnits="userSpaceOnUse" id="radialGradient5900" xlink:href="#linearGradient5888"></radialGradient> <radialGradient r="43.078354" fy="141.79318" fx="75.403374" cy="141.79318" cx="75.403374" gradientTransform="matrix(1.017073,0.83353998,-0.75020566,0.90134267,219.59075,-48.582259)" gradientUnits="userSpaceOnUse" id="radialGradient7066" xlink:href="#linearGradient5888"></radialGradient> <linearGradient y2="111.64858" x2="105.17056" y1="89.732483" x1="105.30419" gradientTransform="matrix(0.3242478,0.59066984,-0.6449089,0.30456675,223.97343,9.9711773)" gradientUnits="userSpaceOnUse" id="linearGradient7070" xlink:href="#linearGradient5935"></linearGradient> <radialGradient r="43.078354" fy="141.79318" fx="75.403374" cy="141.79318" cx="75.403374" gradientTransform="matrix(0.92889777,0.8434877,-0.68516652,0.91209956,271.16681,-165.66477)" gradientUnits="userSpaceOnUse" id="radialGradient7679" xlink:href="#linearGradient5888"></radialGradient> <linearGradient y2="111.64858" x2="105.17056" y1="89.732483" x1="105.30419" gradientTransform="matrix(0.97364003,0.22292953,-0.18090861,0.86183371,64.037635,27.992562)" gradientUnits="userSpaceOnUse" id="linearGradient7683" xlink:href="#linearGradient5935"></linearGradient> <linearGradient y2="111.64858" x2="105.17056" y1="89.732483" x1="105.30419" gradientTransform="matrix(-0.43368668,0.89977128,-0.80009612,-0.36787428,364.3687,34.103912)" gradientUnits="userSpaceOnUse" id="linearGradient7723" xlink:href="#linearGradient5935"></linearGradient> </defs> <metadata id="metadata5315"> <rdf:rdf> <cc:work rdf:about=""> <dc:format>image/svg+xml</dc:format> <dc:type rdf:resource="http://purl.org/dc/dcmitype/StillImage"></dc:type> <dc:title></dc:title> </cc:work> </rdf:rdf> </metadata> <g id="g2668"> <rect transform="matrix(0.95857456,0.28484173,-0.70995939,0.70424262,0,0)" y="-18.118484" x="131.55229" height="188.55855" width="218.34201" id="rect7719" style="opacity:1;fill:#ac9393;fill-opacity:1;stroke:#ac9393;stroke-width:10.63487339;stroke-linejoin:bevel;stroke-miterlimit:4;stroke-dasharray:none;stroke-dashoffset:0;stroke-opacity:1"></rect> <ellipse transform="rotate(-1.5219815)" style="fill:url(#radialGradient5900);fill-opacity:1;stroke:#0000ff;stroke-width:0;stroke-linejoin:bevel;stroke-miterlimit:4;stroke-dasharray:none;stroke-dashoffset:0;stroke-opacity:1" id="ellipse5898" cx="167.6812" cy="64.975418" rx="29.800552" ry="28.196932"></ellipse> <ellipse transform="rotate(-1.5219815)" ry="32.049412" rx="31.854864" cy="39.05106" cx="263.08966" id="ellipse7677" style="fill:url(#radialGradient7679);fill-opacity:1;stroke:#0000ff;stroke-width:0;stroke-linejoin:bevel;stroke-miterlimit:4;stroke-dasharray:none;stroke-dashoffset:0;stroke-opacity:1"></ellipse> <path style="opacity:1;fill:url(#linearGradient7070);fill-opacity:1;fill-rule:evenodd;stroke:#000000;stroke-width:0;stroke-linecap:butt;stroke-linejoin:miter;stroke-miterlimit:4;stroke-dasharray:none;stroke-opacity:1" d="m 187.61005,76.27268 c 0,0 -4.31662,3.146007 -6.73358,4.327262 -2.34822,1.147643 -7.28895,2.571133 -7.28895,2.571133 l 25.03149,45.598895 c 0,0 4.90389,-2.98039 7.5831,-4.14275 2.1805,-0.94605 6.65023,-2.32479 6.65023,-2.32479 z" id="path7068" inkscape:connector-curvature="0"></path> <ellipse transform="rotate(-1.5219815)" style="fill:url(#radialGradient7066);fill-opacity:1;stroke:#0000ff;stroke-width:0;stroke-linejoin:bevel;stroke-miterlimit:4;stroke-dasharray:none;stroke-dashoffset:0;stroke-opacity:1" id="ellipse7064" cx="210.74686" cy="153.71922" rx="34.878674" ry="31.671436"></ellipse> <ellipse transform="rotate(-1.5219815)" ry="28.593903" rx="32.133263" cy="122.8196" cx="82.181816" id="path5882" style="fill:url(#radialGradient5890);fill-opacity:1;stroke:#0000ff;stroke-width:0;stroke-linejoin:bevel;stroke-miterlimit:4;stroke-dasharray:none;stroke-dashoffset:0;stroke-opacity:1"></ellipse> <path style="opacity:1;fill:url(#linearGradient7683);fill-opacity:1;fill-rule:evenodd;stroke:#000000;stroke-width:0;stroke-linecap:butt;stroke-linejoin:miter;stroke-miterlimit:4;stroke-dasharray:none;stroke-opacity:1" d="m 112.13872,119.93253 c 0,0 0.10333,6.74567 -0.52746,10.01068 -0.61283,3.17221 -3.0785,8.97211 -3.0785,8.97211 l 75.16365,17.20984 c 0,0 0.58713,-7.13963 1.46076,-10.62926 0.71098,-2.84006 2.83372,-8.16728 2.83372,-8.16728 z" id="path7681" inkscape:connector-curvature="0"></path> <path id="path7652" d="m 263.50105,129.4278 9.09445,-0.98972 -2.25418,18.22011 z" style="fill:#000000;fill-rule:evenodd;stroke:#000000;stroke-width:0.23821954px;stroke-linecap:butt;stroke-linejoin:miter;stroke-opacity:1" inkscape:connector-curvature="0"></path> <path id="path7721" d="m 264.03944,60.574875 c 0,0 -6.6,-1.398053 -9.64325,-2.738505 -2.95675,-1.302338 -8.06384,-4.995041 -8.06384,-4.995041 l -33.48001,69.461101 c 0,0 6.83072,2.15877 10.03902,3.78592 2.61109,1.32423 7.33352,4.57755 7.33352,4.57755 z" style="opacity:1;fill:url(#linearGradient7723);fill-opacity:1;fill-rule:evenodd;stroke:#000000;stroke-width:0;stroke-linecap:butt;stroke-linejoin:miter;stroke-miterlimit:4;stroke-dasharray:none;stroke-opacity:1" inkscape:connector-curvature="0"></path> <path id="path7729" d="M 98.602697,111.21199 255.46955,38.22811 174.35746,59.288723 Z" style="opacity:0.66000001;fill:#decd87;fill-rule:evenodd;stroke:#decd87;stroke-width:0.26458332px;stroke-linecap:butt;stroke-linejoin:miter;stroke-opacity:1" inkscape:connector-curvature="0"></path> <path id="path8030" d="m 231.57876,49.828061 c 0,0 23.44648,22.049712 28.57641,36.673574 11.17488,31.856255 8.18658,51.961605 8.18658,51.961605" style="fill:none;fill-rule:evenodd;stroke:#000000;stroke-width:3.36500001;stroke-linecap:butt;stroke-linejoin:miter;stroke-miterlimit:4;stroke-dasharray:none;stroke-opacity:1" inkscape:connector-curvature="0"></path> <text transform="scale(1.0009,0.99910083)" id="text6811" y="95.200859" x="271.15543" style="font-style:normal;font-weight:normal;font-size:33.76885605px;line-height:125%;font-family:Sans;letter-spacing:0px;word-spacing:0px;fill:#000000;fill-opacity:1;stroke:none;stroke-width:0.63316602px;stroke-linecap:butt;stroke-linejoin:miter;stroke-opacity:1" xml:space="preserve"><tspan style="stroke-width:0.63316602px" y="95.200859" x="271.15543" id="tspan6809" sodipodi:role="line">ω</tspan></text> </g>
</svg>
