<?xml version="1.0" encoding="UTF-8" standalone="no"?>
<!-- Created with Inkscape (http://www.inkscape.org/) -->

<svg
   xmlns:osb="http://www.openswatchbook.org/uri/2009/osb"
   xmlns:dc="http://purl.org/dc/elements/1.1/"
   xmlns:cc="http://creativecommons.org/ns#"
   xmlns:rdf="http://www.w3.org/1999/02/22-rdf-syntax-ns#"
   xmlns:svg="http://www.w3.org/2000/svg"
   xmlns="http://www.w3.org/2000/svg"
   xmlns:xlink="http://www.w3.org/1999/xlink"
   xmlns:sodipodi="http://sodipodi.sourceforge.net/DTD/sodipodi-0.dtd"
   xmlns:inkscape="http://www.inkscape.org/namespaces/inkscape"
   width="744.09448819"
   height="1052.3622047"
   id="svg5215"
   version="1.1"
   inkscape:version="0.48.5 r10040"
   sodipodi:docname="New document 3">
  <defs
     id="defs5217">
    <marker
       inkscape:stockid="Arrow1Lstart"
       orient="auto"
       refY="0.0"
       refX="0.0"
       id="Arrow1Lstart"
       style="overflow:visible">
      <path
         id="path5949"
         d="M 0.0,0.0 L 5.0,-5.0 L -12.5,0.0 L 5.0,5.0 L 0.0,0.0 z "
         style="fill-rule:evenodd;stroke:#000000;stroke-width:1.0pt"
         transform="scale(0.8) translate(12.5,0)" />
    </marker>
    <linearGradient
       id="linearGradient5741"
       osb:paint="solid">
      <stop
         style="stop-color:#ffffff;stop-opacity:1;"
         offset="0"
         id="stop5743" />
    </linearGradient>
    <linearGradient
       inkscape:collect="always"
       xlink:href="#linearGradient5741"
       id="linearGradient5745"
       x1="58.5"
       y1="382.36218"
       x2="301.5"
       y2="382.36218"
       gradientUnits="userSpaceOnUse" />
  </defs>
  <sodipodi:namedview
     id="base"
     pagecolor="#ffffff"
     bordercolor="#666666"
     borderopacity="1.0"
     inkscape:pageopacity="0.0"
     inkscape:pageshadow="2"
     inkscape:zoom="1.4"
     inkscape:cx="122.85714"
     inkscape:cy="693.25503"
     inkscape:document-units="px"
     inkscape:current-layer="layer1"
     showgrid="true"
     inkscape:snap-page="true"
     inkscape:window-width="1528"
     inkscape:window-height="813"
     inkscape:window-x="241"
     inkscape:window-y="168"
     inkscape:window-maximized="0">
    <inkscape:grid
       type="xygrid"
       id="grid5735"
       empspacing="5"
       visible="true"
       enabled="true"
       snapvisiblegridlinesonly="true" />
  </sodipodi:namedview>
  <metadata
     id="metadata5220">
    <rdf:RDF>
      <cc:Work
         rdf:about="">
        <dc:format>image/svg+xml</dc:format>
        <dc:type
           rdf:resource="http://purl.org/dc/dcmitype/StillImage" />
        <dc:title></dc:title>
      </cc:Work>
    </rdf:RDF>
  </metadata>
  <g
     inkscape:label="Layer 1"
     inkscape:groupmode="layer"
     id="layer1">
    <path
       sodipodi:type="arc"
       style="stroke:#000000;stroke-opacity:0;opacity:0;stroke-width:1;stroke-miterlimit:4;stroke-dasharray:none"
       id="path5223"
       sodipodi:cx="192.85715"
       sodipodi:cy="333.07648"
       sodipodi:rx="90"
       sodipodi:ry="153.57143"
       d="m 282.85715,333.07648 a 90,153.57143 0 1 1 -180,0 90,153.57143 0 1 1 180,0 z" />
    <path
       sodipodi:type="arc"
       style="stroke:url(#linearGradient5745);stroke-width:3;stroke-miterlimit:4;stroke-opacity:1;stroke-dasharray:none;opacity:0;marker-start:none"
       id="path5737"
       sodipodi:cx="180"
       sodipodi:cy="382.36218"
       sodipodi:rx="120"
       sodipodi:ry="210"
       d="m 300,382.36218 a 120,210 0 1 1 -240,0 120,210 0 1 1 240,0 z" />
    <rect
       style="fill:#000000;fill-opacity:1;stroke:#000000;stroke-width:10;stroke-linejoin:round;stroke-miterlimit:4;stroke-opacity:1;stroke-dasharray:none"
       id="rect6389"
       width="660"
       height="540"
       x="22.142857"
       y="104.50504" />
    <path
       sodipodi:type="arc"
       style="fill:#000000;fill-opacity:0;stroke:#ffffff;stroke-width:3.00001252;stroke-linejoin:round;stroke-miterlimit:4;stroke-opacity:1;stroke-dasharray:6.00002505,3.00001252;stroke-dashoffset:0"
       id="path6391"
       sodipodi:cx="130"
       sodipodi:cy="282.36218"
       sodipodi:rx="30"
       sodipodi:ry="90"
       d="m 160,282.36218 a 30,90 0 1 1 -60,0 30,90 0 1 1 60,0 z"
       transform="matrix(2.6666667,0,0,1.7777778,-166.66667,-149.61503)" />
    <path
       sodipodi:type="arc"
       style="fill:#000000;fill-opacity:0;stroke:#ffffff;stroke-width:2;stroke-linejoin:round;stroke-miterlimit:4;stroke-opacity:1;stroke-dasharray:none;stroke-dashoffset:0"
       id="path6393"
       sodipodi:cx="190"
       sodipodi:cy="292.36218"
       sodipodi:rx="30"
       sodipodi:ry="40"
       d="m 220,292.36218 a 30,40 0 1 1 -60,0 30,40 0 1 1 60,0 z"
       transform="translate(-10,0)" />
    <path
       transform="translate(-10,120)"
       d="m 220,292.36218 a 30,40 0 1 1 -60,0 30,40 0 1 1 60,0 z"
       sodipodi:ry="40"
       sodipodi:rx="30"
       sodipodi:cy="292.36218"
       sodipodi:cx="190"
       id="path6395"
       style="fill:#000000;fill-opacity:0;stroke:#ffffff;stroke-width:2;stroke-linejoin:round;stroke-miterlimit:4;stroke-opacity:1;stroke-dasharray:none;stroke-dashoffset:0"
       sodipodi:type="arc" />
    <path
       transform="matrix(2.6666667,0,0,1.7777778,43.333329,-149.61504)"
       d="m 160,282.36218 a 30,90 0 1 1 -60,0 30,90 0 1 1 60,0 z"
       sodipodi:ry="90"
       sodipodi:rx="30"
       sodipodi:cy="282.36218"
       sodipodi:cx="130"
       id="path6397"
       style="fill:#000000;fill-opacity:0;stroke:#ffffff;stroke-width:3.00001264;stroke-linejoin:round;stroke-miterlimit:4;stroke-opacity:1;stroke-dasharray:6.00002505, 3.00001252;stroke-dashoffset:0"
       sodipodi:type="arc" />
    <path
       transform="translate(200,0)"
       d="m 220,292.36218 a 30,40 0 1 1 -60,0 30,40 0 1 1 60,0 z"
       sodipodi:ry="40"
       sodipodi:rx="30"
       sodipodi:cy="292.36218"
       sodipodi:cx="190"
       id="path6399"
       style="fill:#000000;fill-opacity:0;stroke:#ffffff;stroke-width:2;stroke-linejoin:round;stroke-miterlimit:4;stroke-opacity:1;stroke-dasharray:none;stroke-dashoffset:0"
       sodipodi:type="arc" />
    <path
       sodipodi:type="arc"
       style="fill:#000000;fill-opacity:0;stroke:#ffffff;stroke-width:2;stroke-linejoin:round;stroke-miterlimit:4;stroke-opacity:1;stroke-dasharray:none;stroke-dashoffset:0"
       id="path6401"
       sodipodi:cx="190"
       sodipodi:cy="292.36218"
       sodipodi:rx="30"
       sodipodi:ry="40"
       d="m 220,292.36218 a 30,40 0 1 1 -60,0 30,40 0 1 1 60,0 z"
       transform="translate(200,110)" />
  </g>
</svg>
