<?xml version="1.0" encoding="UTF-8" standalone="no"?>
<!DOCTYPE svg PUBLIC "-//W3C//DTD SVG 1.1//EN"
 "http://www.w3.org/Graphics/SVG/1.1/DTD/svg11.dtd">
<!-- Generated by graphviz version 2.38.0 (20140413.2041)
 -->
<!-- Title: /home/mignon/bioinfo/proteus/gitlab/proteus/backbone.c Pages: 1 -->
<svg width="487pt" height="218pt"
 viewBox="0.00 0.00 486.50 218.00" xmlns="http://www.w3.org/2000/svg" xmlns:xlink="http://www.w3.org/1999/xlink">
<g id="graph0" class="graph" transform="scale(1 1) rotate(0) translate(4 214)">
<title>/home/mignon/bioinfo/proteus/gitlab/proteus/backbone.c</title>
<polygon fill="white" stroke="none" points="-4,4 -4,-214 482.5,-214 482.5,4 -4,4"/>
<!-- Node1 -->
<g id="node1" class="node"><title>Node1</title>
<polygon fill="#bfbfbf" stroke="black" points="119,-168.5 119,-209.5 232,-209.5 232,-168.5 119,-168.5"/>
<text text-anchor="start" x="127" y="-197.5" font-family="Helvetica,sans-Serif" font-size="10.00">/home/mignon/bioinfo</text>
<text text-anchor="start" x="127" y="-186.5" font-family="Helvetica,sans-Serif" font-size="10.00">/proteus/gitlab/proteus</text>
<text text-anchor="middle" x="175.5" y="-175.5" font-family="Helvetica,sans-Serif" font-size="10.00">/backbone.c</text>
</g>
<!-- Node2 -->
<g id="node2" class="node"><title>Node2</title>
<polygon fill="white" stroke="#bfbfbf" points="0,-112.5 0,-131.5 49,-131.5 49,-112.5 0,-112.5"/>
<text text-anchor="middle" x="24.5" y="-119.5" font-family="Helvetica,sans-Serif" font-size="10.00">ctype.h</text>
</g>
<!-- Node1&#45;&gt;Node2 -->
<g id="edge1" class="edge"><title>Node1&#45;&gt;Node2</title>
<path fill="none" stroke="midnightblue" d="M130.195,-168.498C105.486,-157.861 75.6101,-145.001 53.9345,-135.67"/>
<polygon fill="midnightblue" stroke="midnightblue" points="55.1694,-132.392 44.6004,-131.652 52.4017,-138.821 55.1694,-132.392"/>
</g>
<!-- Node3 -->
<g id="node3" class="node"><title>Node3</title>
<polygon fill="white" stroke="#bfbfbf" points="11.5,-0.5 11.5,-19.5 57.5,-19.5 57.5,-0.5 11.5,-0.5"/>
<text text-anchor="middle" x="34.5" y="-7.5" font-family="Helvetica,sans-Serif" font-size="10.00">stdio.h</text>
</g>
<!-- Node1&#45;&gt;Node3 -->
<g id="edge2" class="edge"><title>Node1&#45;&gt;Node3</title>
<path fill="none" stroke="midnightblue" d="M159.872,-168.382C131.952,-133.333 73.9843,-60.5654 47.8222,-27.7236"/>
<polygon fill="midnightblue" stroke="midnightblue" points="50.3063,-25.2246 41.3379,-19.5838 44.8312,-29.5862 50.3063,-25.2246"/>
</g>
<!-- Node4 -->
<g id="node4" class="node"><title>Node4</title>
<polygon fill="white" stroke="#bfbfbf" points="75.5,-0.5 75.5,-19.5 123.5,-19.5 123.5,-0.5 75.5,-0.5"/>
<text text-anchor="middle" x="99.5" y="-7.5" font-family="Helvetica,sans-Serif" font-size="10.00">stdlib.h</text>
</g>
<!-- Node1&#45;&gt;Node4 -->
<g id="edge3" class="edge"><title>Node1&#45;&gt;Node4</title>
<path fill="none" stroke="midnightblue" d="M167.076,-168.382C152.22,-133.783 121.581,-62.425 107.232,-29.0063"/>
<polygon fill="midnightblue" stroke="midnightblue" points="110.347,-27.3916 103.186,-19.5838 103.915,-30.1535 110.347,-27.3916"/>
</g>
<!-- Node5 -->
<g id="node5" class="node"><title>Node5</title>
<polygon fill="white" stroke="#bfbfbf" points="141.5,-0.5 141.5,-19.5 197.5,-19.5 197.5,-0.5 141.5,-0.5"/>
<text text-anchor="middle" x="169.5" y="-7.5" font-family="Helvetica,sans-Serif" font-size="10.00">stdbool.h</text>
</g>
<!-- Node1&#45;&gt;Node5 -->
<g id="edge4" class="edge"><title>Node1&#45;&gt;Node5</title>
<path fill="none" stroke="midnightblue" d="M174.835,-168.382C173.672,-134.082 171.285,-63.6579 170.14,-29.8828"/>
<polygon fill="midnightblue" stroke="midnightblue" points="173.628,-29.4594 169.791,-19.5838 166.632,-29.6967 173.628,-29.4594"/>
</g>
<!-- Node6 -->
<g id="node6" class="node"><title>Node6</title>
<g id="a_node6"><a xlink:href="global_8h.html" target="_top" xlink:title="global.h">
<polygon fill="white" stroke="black" points="181.5,-56.5 181.5,-75.5 231.5,-75.5 231.5,-56.5 181.5,-56.5"/>
<text text-anchor="middle" x="206.5" y="-63.5" font-family="Helvetica,sans-Serif" font-size="10.00">global.h</text>
</a>
</g>
</g>
<!-- Node1&#45;&gt;Node6 -->
<g id="edge5" class="edge"><title>Node1&#45;&gt;Node6</title>
<path fill="none" stroke="midnightblue" d="M180.55,-168.29C186.42,-145.375 196.035,-107.846 201.767,-85.4732"/>
<polygon fill="midnightblue" stroke="midnightblue" points="205.212,-86.1306 204.303,-75.5748 198.431,-84.3933 205.212,-86.1306"/>
</g>
<!-- Node10 -->
<g id="node10" class="node"><title>Node10</title>
<g id="a_node10"><a xlink:href="read__conf_8h.html" target="_top" xlink:title="read_conf.h">
<polygon fill="white" stroke="black" points="251.5,-112.5 251.5,-131.5 319.5,-131.5 319.5,-112.5 251.5,-112.5"/>
<text text-anchor="middle" x="285.5" y="-119.5" font-family="Helvetica,sans-Serif" font-size="10.00">read_conf.h</text>
</a>
</g>
</g>
<!-- Node1&#45;&gt;Node10 -->
<g id="edge12" class="edge"><title>Node1&#45;&gt;Node10</title>
<path fill="none" stroke="midnightblue" d="M208.504,-168.498C225.693,-158.34 246.314,-146.155 261.888,-136.952"/>
<polygon fill="midnightblue" stroke="midnightblue" points="264.029,-139.753 270.857,-131.652 260.467,-133.727 264.029,-139.753"/>
</g>
<!-- Node12 -->
<g id="node12" class="node"><title>Node12</title>
<g id="a_node12"><a xlink:href="backbone_8h.html" target="_top" xlink:title="backbone.h">
<polygon fill="white" stroke="black" points="340,-56.5 340,-75.5 407,-75.5 407,-56.5 340,-56.5"/>
<text text-anchor="middle" x="373.5" y="-63.5" font-family="Helvetica,sans-Serif" font-size="10.00">backbone.h</text>
</a>
</g>
</g>
<!-- Node1&#45;&gt;Node12 -->
<g id="edge19" class="edge"><title>Node1&#45;&gt;Node12</title>
<path fill="none" stroke="midnightblue" d="M232.346,-176.105C263.095,-167.593 300.414,-153.71 328.5,-132 344.734,-119.451 357.354,-99.3913 365.045,-84.8729"/>
<polygon fill="midnightblue" stroke="midnightblue" points="368.207,-86.3749 369.565,-75.8675 361.951,-83.2345 368.207,-86.3749"/>
</g>
<!-- Node14 -->
<g id="node14" class="node"><title>Node14</title>
<g id="a_node14"><a xlink:href="utils_8h.html" target="_top" xlink:title="utils.h">
<polygon fill="white" stroke="black" points="425,-56.5 425,-75.5 468,-75.5 468,-56.5 425,-56.5"/>
<text text-anchor="middle" x="446.5" y="-63.5" font-family="Helvetica,sans-Serif" font-size="10.00">utils.h</text>
</a>
</g>
</g>
<!-- Node1&#45;&gt;Node14 -->
<g id="edge18" class="edge"><title>Node1&#45;&gt;Node14</title>
<path fill="none" stroke="midnightblue" d="M232.203,-174.487C267.513,-164.981 313.319,-150.635 351.5,-132 380.027,-118.077 409.728,-96.407 428.163,-81.9641"/>
<polygon fill="midnightblue" stroke="midnightblue" points="430.381,-84.672 436.025,-75.7054 426.021,-79.1955 430.381,-84.672"/>
</g>
<!-- Node6&#45;&gt;Node3 -->
<g id="edge7" class="edge"><title>Node6&#45;&gt;Node3</title>
<path fill="none" stroke="midnightblue" d="M181.49,-57.1479C151.346,-47.6842 100.606,-31.7541 67.3347,-21.3086"/>
<polygon fill="midnightblue" stroke="midnightblue" points="68.2015,-17.9123 57.6123,-18.2562 66.1047,-24.5909 68.2015,-17.9123"/>
</g>
<!-- Node6&#45;&gt;Node4 -->
<g id="edge8" class="edge"><title>Node6&#45;&gt;Node4</title>
<path fill="none" stroke="midnightblue" d="M189.309,-56.324C172.149,-47.6641 145.554,-34.2424 125.753,-24.249"/>
<polygon fill="midnightblue" stroke="midnightblue" points="127.153,-21.0354 116.649,-19.6545 123.999,-27.2847 127.153,-21.0354"/>
</g>
<!-- Node6&#45;&gt;Node5 -->
<g id="edge11" class="edge"><title>Node6&#45;&gt;Node5</title>
<path fill="none" stroke="midnightblue" d="M200.39,-56.083C195.218,-48.5341 187.654,-37.4948 181.306,-28.2298"/>
<polygon fill="midnightblue" stroke="midnightblue" points="184.036,-26.0221 175.496,-19.7511 178.261,-29.9787 184.036,-26.0221"/>
</g>
<!-- Node7 -->
<g id="node7" class="node"><title>Node7</title>
<polygon fill="white" stroke="#bfbfbf" points="215.5,-0.5 215.5,-19.5 263.5,-19.5 263.5,-0.5 215.5,-0.5"/>
<text text-anchor="middle" x="239.5" y="-7.5" font-family="Helvetica,sans-Serif" font-size="10.00">limits.h</text>
</g>
<!-- Node6&#45;&gt;Node7 -->
<g id="edge6" class="edge"><title>Node6&#45;&gt;Node7</title>
<path fill="none" stroke="midnightblue" d="M211.949,-56.083C216.514,-48.6127 223.168,-37.7244 228.793,-28.5199"/>
<polygon fill="midnightblue" stroke="midnightblue" points="231.924,-30.109 234.152,-19.7511 225.951,-26.4588 231.924,-30.109"/>
</g>
<!-- Node8 -->
<g id="node8" class="node"><title>Node8</title>
<polygon fill="white" stroke="#bfbfbf" points="282,-0.5 282,-19.5 331,-19.5 331,-0.5 282,-0.5"/>
<text text-anchor="middle" x="306.5" y="-7.5" font-family="Helvetica,sans-Serif" font-size="10.00">string.h</text>
</g>
<!-- Node6&#45;&gt;Node8 -->
<g id="edge9" class="edge"><title>Node6&#45;&gt;Node8</title>
<path fill="none" stroke="midnightblue" d="M222.567,-56.324C238.458,-47.7428 263.007,-34.486 281.458,-24.5224"/>
<polygon fill="midnightblue" stroke="midnightblue" points="283.337,-27.4857 290.473,-19.6545 280.011,-21.3264 283.337,-27.4857"/>
</g>
<!-- Node9 -->
<g id="node9" class="node"><title>Node9</title>
<polygon fill="white" stroke="#bfbfbf" points="349,-0.5 349,-19.5 398,-19.5 398,-0.5 349,-0.5"/>
<text text-anchor="middle" x="373.5" y="-7.5" font-family="Helvetica,sans-Serif" font-size="10.00">stdint.h</text>
</g>
<!-- Node6&#45;&gt;Node9 -->
<g id="edge10" class="edge"><title>Node6&#45;&gt;Node9</title>
<path fill="none" stroke="midnightblue" d="M231.502,-56.9157C260.074,-47.6766 307.012,-32.4992 339.04,-22.1428"/>
<polygon fill="midnightblue" stroke="midnightblue" points="340.435,-25.3703 348.873,-18.9633 338.281,-18.7099 340.435,-25.3703"/>
</g>
<!-- Node10&#45;&gt;Node6 -->
<g id="edge16" class="edge"><title>Node10&#45;&gt;Node6</title>
<path fill="none" stroke="midnightblue" d="M272.807,-112.324C260.599,-103.979 241.922,-91.2122 227.497,-81.3524"/>
<polygon fill="midnightblue" stroke="midnightblue" points="229.392,-78.4082 219.161,-75.6545 225.442,-84.1871 229.392,-78.4082"/>
</g>
<!-- Node11 -->
<g id="node11" class="node"><title>Node11</title>
<polygon fill="white" stroke="#bfbfbf" points="249.5,-56.5 249.5,-75.5 321.5,-75.5 321.5,-56.5 249.5,-56.5"/>
<text text-anchor="middle" x="285.5" y="-63.5" font-family="Helvetica,sans-Serif" font-size="10.00">gsl/gsl_rng.h</text>
</g>
<!-- Node10&#45;&gt;Node11 -->
<g id="edge13" class="edge"><title>Node10&#45;&gt;Node11</title>
<path fill="none" stroke="midnightblue" d="M285.5,-112.083C285.5,-105.006 285.5,-94.8611 285.5,-85.9865"/>
<polygon fill="midnightblue" stroke="midnightblue" points="289,-85.751 285.5,-75.7511 282,-85.7511 289,-85.751"/>
</g>
<!-- Node10&#45;&gt;Node12 -->
<g id="edge14" class="edge"><title>Node10&#45;&gt;Node12</title>
<path fill="none" stroke="midnightblue" d="M299.639,-112.324C313.366,-103.9 334.436,-90.9709 350.564,-81.0741"/>
<polygon fill="midnightblue" stroke="midnightblue" points="352.704,-83.8678 359.396,-75.6545 349.043,-77.9016 352.704,-83.8678"/>
</g>
<!-- Node10&#45;&gt;Node14 -->
<g id="edge17" class="edge"><title>Node10&#45;&gt;Node14</title>
<path fill="none" stroke="midnightblue" d="M311.011,-112.444C339.211,-102.985 384.658,-87.7421 415.042,-77.551"/>
<polygon fill="midnightblue" stroke="midnightblue" points="416.355,-80.8025 424.723,-74.3042 414.129,-74.1659 416.355,-80.8025"/>
</g>
<!-- Node13 -->
<g id="node13" class="node"><title>Node13</title>
<g id="a_node13"><a xlink:href="residues_8h.html" target="_top" xlink:title="residues.h">
<polygon fill="white" stroke="black" points="416.5,-0.5 416.5,-19.5 478.5,-19.5 478.5,-0.5 416.5,-0.5"/>
<text text-anchor="middle" x="447.5" y="-7.5" font-family="Helvetica,sans-Serif" font-size="10.00">residues.h</text>
</a>
</g>
</g>
<!-- Node12&#45;&gt;Node13 -->
<g id="edge15" class="edge"><title>Node12&#45;&gt;Node13</title>
<path fill="none" stroke="midnightblue" d="M385.389,-56.324C396.65,-48.1066 413.787,-35.6017 427.209,-25.8069"/>
<polygon fill="midnightblue" stroke="midnightblue" points="429.38,-28.5559 435.394,-19.8339 425.253,-22.9014 429.38,-28.5559"/>
</g>
</g>
</svg>
