<?xml version="1.0" encoding="UTF-8" standalone="no"?>
<!DOCTYPE svg PUBLIC "-//W3C//DTD SVG 1.1//EN"
 "http://www.w3.org/Graphics/SVG/1.1/DTD/svg11.dtd">
<!-- Generated by graphviz version 2.38.0 (20140413.2041)
 -->
<!-- Title: /home/mignon/bioinfo/proteus/gitlab/proteus/backbone.h Pages: 1 -->
<svg width="645pt" height="206pt"
 viewBox="0.00 0.00 645.00 206.00" xmlns="http://www.w3.org/2000/svg" xmlns:xlink="http://www.w3.org/1999/xlink">
<g id="graph0" class="graph" transform="scale(1 1) rotate(0) translate(4 202)">
<title>/home/mignon/bioinfo/proteus/gitlab/proteus/backbone.h</title>
<polygon fill="white" stroke="none" points="-4,4 -4,-202 641,-202 641,4 -4,4"/>
<!-- Node1 -->
<g id="node1" class="node"><title>Node1</title>
<polygon fill="#bfbfbf" stroke="black" points="131,-156.5 131,-197.5 244,-197.5 244,-156.5 131,-156.5"/>
<text text-anchor="start" x="139" y="-185.5" font-family="Helvetica,sans-Serif" font-size="10.00">/home/mignon/bioinfo</text>
<text text-anchor="start" x="139" y="-174.5" font-family="Helvetica,sans-Serif" font-size="10.00">/proteus/gitlab/proteus</text>
<text text-anchor="middle" x="187.5" y="-163.5" font-family="Helvetica,sans-Serif" font-size="10.00">/backbone.h</text>
</g>
<!-- Node2 -->
<g id="node2" class="node"><title>Node2</title>
<g id="a_node2"><a xlink:href="read__conf_8h.html" target="_top" xlink:title="/home/mignon/bioinfo\l/proteus/gitlab/proteus\l/read_conf.h">
<polygon fill="white" stroke="black" points="131,-78.5 131,-119.5 244,-119.5 244,-78.5 131,-78.5"/>
<text text-anchor="start" x="139" y="-107.5" font-family="Helvetica,sans-Serif" font-size="10.00">/home/mignon/bioinfo</text>
<text text-anchor="start" x="139" y="-96.5" font-family="Helvetica,sans-Serif" font-size="10.00">/proteus/gitlab/proteus</text>
<text text-anchor="middle" x="187.5" y="-85.5" font-family="Helvetica,sans-Serif" font-size="10.00">/read_conf.h</text>
</a>
</g>
</g>
<!-- Node1&#45;&gt;Node2 -->
<g id="edge1" class="edge"><title>Node1&#45;&gt;Node2</title>
<path fill="none" stroke="midnightblue" d="M187.5,-146.297C187.5,-137.301 187.5,-127.653 187.5,-119.506"/>
<polygon fill="midnightblue" stroke="midnightblue" points="184,-146.428 187.5,-156.428 191,-146.428 184,-146.428"/>
</g>
<!-- Node3 -->
<g id="node3" class="node"><title>Node3</title>
<g id="a_node3"><a xlink:href="backbone_8c.html" target="_top" xlink:title="/home/mignon/bioinfo\l/proteus/gitlab/proteus\l/backbone.c">
<polygon fill="white" stroke="black" points="0,-0.5 0,-41.5 113,-41.5 113,-0.5 0,-0.5"/>
<text text-anchor="start" x="8" y="-29.5" font-family="Helvetica,sans-Serif" font-size="10.00">/home/mignon/bioinfo</text>
<text text-anchor="start" x="8" y="-18.5" font-family="Helvetica,sans-Serif" font-size="10.00">/proteus/gitlab/proteus</text>
<text text-anchor="middle" x="56.5" y="-7.5" font-family="Helvetica,sans-Serif" font-size="10.00">/backbone.c</text>
</a>
</g>
</g>
<!-- Node1&#45;&gt;Node3 -->
<g id="edge6" class="edge"><title>Node1&#45;&gt;Node3</title>
<path fill="none" stroke="midnightblue" d="M152.943,-149.801C142.28,-140.922 130.885,-130.563 121.5,-120 99.3968,-95.1225 79.089,-62.1947 67.2511,-41.5537"/>
<polygon fill="midnightblue" stroke="midnightblue" points="150.942,-152.685 160.908,-156.281 155.36,-147.255 150.942,-152.685"/>
</g>
<!-- Node7 -->
<g id="node7" class="node"><title>Node7</title>
<g id="a_node7"><a xlink:href="read__ener_8h.html" target="_top" xlink:title="/home/mignon/bioinfo\l/proteus/gitlab/proteus\l/read_ener.h">
<polygon fill="white" stroke="black" points="262,-78.5 262,-119.5 375,-119.5 375,-78.5 262,-78.5"/>
<text text-anchor="start" x="270" y="-107.5" font-family="Helvetica,sans-Serif" font-size="10.00">/home/mignon/bioinfo</text>
<text text-anchor="start" x="270" y="-96.5" font-family="Helvetica,sans-Serif" font-size="10.00">/proteus/gitlab/proteus</text>
<text text-anchor="middle" x="318.5" y="-85.5" font-family="Helvetica,sans-Serif" font-size="10.00">/read_ener.h</text>
</a>
</g>
</g>
<!-- Node1&#45;&gt;Node7 -->
<g id="edge7" class="edge"><title>Node1&#45;&gt;Node7</title>
<path fill="none" stroke="midnightblue" d="M230.242,-151.203C247.971,-140.918 268.24,-129.159 284.879,-119.506"/>
<polygon fill="midnightblue" stroke="midnightblue" points="228.129,-148.382 221.236,-156.428 231.642,-154.437 228.129,-148.382"/>
</g>
<!-- Node2&#45;&gt;Node3 -->
<g id="edge2" class="edge"><title>Node2&#45;&gt;Node3</title>
<path fill="none" stroke="midnightblue" d="M144.758,-73.2029C127.029,-62.9176 106.76,-51.1587 90.1214,-41.5056"/>
<polygon fill="midnightblue" stroke="midnightblue" points="143.358,-76.4373 153.764,-78.4281 146.871,-70.3825 143.358,-76.4373"/>
</g>
<!-- Node4 -->
<g id="node4" class="node"><title>Node4</title>
<g id="a_node4"><a xlink:href="proteus_8c.html" target="_top" xlink:title="/home/mignon/bioinfo\l/proteus/gitlab/proteus\l/proteus.c">
<polygon fill="white" stroke="black" points="131,-0.5 131,-41.5 244,-41.5 244,-0.5 131,-0.5"/>
<text text-anchor="start" x="139" y="-29.5" font-family="Helvetica,sans-Serif" font-size="10.00">/home/mignon/bioinfo</text>
<text text-anchor="start" x="139" y="-18.5" font-family="Helvetica,sans-Serif" font-size="10.00">/proteus/gitlab/proteus</text>
<text text-anchor="middle" x="187.5" y="-7.5" font-family="Helvetica,sans-Serif" font-size="10.00">/proteus.c</text>
</a>
</g>
</g>
<!-- Node2&#45;&gt;Node4 -->
<g id="edge3" class="edge"><title>Node2&#45;&gt;Node4</title>
<path fill="none" stroke="midnightblue" d="M187.5,-68.2965C187.5,-59.3009 187.5,-49.6532 187.5,-41.5056"/>
<polygon fill="midnightblue" stroke="midnightblue" points="184,-68.4281 187.5,-78.4281 191,-68.4281 184,-68.4281"/>
</g>
<!-- Node5 -->
<g id="node5" class="node"><title>Node5</title>
<g id="a_node5"><a xlink:href="read__conf_8c.html" target="_top" xlink:title="/home/mignon/bioinfo\l/proteus/gitlab/proteus\l/read_conf.c">
<polygon fill="white" stroke="black" points="262,-0.5 262,-41.5 375,-41.5 375,-0.5 262,-0.5"/>
<text text-anchor="start" x="270" y="-29.5" font-family="Helvetica,sans-Serif" font-size="10.00">/home/mignon/bioinfo</text>
<text text-anchor="start" x="270" y="-18.5" font-family="Helvetica,sans-Serif" font-size="10.00">/proteus/gitlab/proteus</text>
<text text-anchor="middle" x="318.5" y="-7.5" font-family="Helvetica,sans-Serif" font-size="10.00">/read_conf.c</text>
</a>
</g>
</g>
<!-- Node2&#45;&gt;Node5 -->
<g id="edge4" class="edge"><title>Node2&#45;&gt;Node5</title>
<path fill="none" stroke="midnightblue" d="M230.242,-73.2029C247.971,-62.9176 268.24,-51.1587 284.879,-41.5056"/>
<polygon fill="midnightblue" stroke="midnightblue" points="228.129,-70.3825 221.236,-78.4281 231.642,-76.4373 228.129,-70.3825"/>
</g>
<!-- Node6 -->
<g id="node6" class="node"><title>Node6</title>
<g id="a_node6"><a xlink:href="read__ener_8c.html" target="_top" xlink:title="/home/mignon/bioinfo\l/proteus/gitlab/proteus\l/read_ener.c">
<polygon fill="white" stroke="black" points="393,-0.5 393,-41.5 506,-41.5 506,-0.5 393,-0.5"/>
<text text-anchor="start" x="401" y="-29.5" font-family="Helvetica,sans-Serif" font-size="10.00">/home/mignon/bioinfo</text>
<text text-anchor="start" x="401" y="-18.5" font-family="Helvetica,sans-Serif" font-size="10.00">/proteus/gitlab/proteus</text>
<text text-anchor="middle" x="449.5" y="-7.5" font-family="Helvetica,sans-Serif" font-size="10.00">/read_ener.c</text>
</a>
</g>
</g>
<!-- Node2&#45;&gt;Node6 -->
<g id="edge5" class="edge"><title>Node2&#45;&gt;Node6</title>
<path fill="none" stroke="midnightblue" d="M253.965,-77.6162C312.556,-60.8034 329.065,-58.0834 384.5,-42 387.221,-41.2104 390.004,-40.3931 392.812,-39.5602"/>
<polygon fill="midnightblue" stroke="midnightblue" points="252.824,-74.3026 244.188,-80.4398 254.767,-81.0278 252.824,-74.3026"/>
</g>
<!-- Node7&#45;&gt;Node4 -->
<g id="edge9" class="edge"><title>Node7&#45;&gt;Node4</title>
<path fill="none" stroke="midnightblue" d="M275.758,-73.2029C258.029,-62.9176 237.76,-51.1587 221.121,-41.5056"/>
<polygon fill="midnightblue" stroke="midnightblue" points="274.358,-76.4373 284.764,-78.4281 277.871,-70.3825 274.358,-76.4373"/>
</g>
<!-- Node7&#45;&gt;Node5 -->
<g id="edge10" class="edge"><title>Node7&#45;&gt;Node5</title>
<path fill="none" stroke="midnightblue" d="M318.5,-68.2965C318.5,-59.3009 318.5,-49.6532 318.5,-41.5056"/>
<polygon fill="midnightblue" stroke="midnightblue" points="315,-68.4281 318.5,-78.4281 322,-68.4281 315,-68.4281"/>
</g>
<!-- Node7&#45;&gt;Node6 -->
<g id="edge11" class="edge"><title>Node7&#45;&gt;Node6</title>
<path fill="none" stroke="midnightblue" d="M361.242,-73.2029C378.971,-62.9176 399.24,-51.1587 415.879,-41.5056"/>
<polygon fill="midnightblue" stroke="midnightblue" points="359.129,-70.3825 352.236,-78.4281 362.642,-76.4373 359.129,-70.3825"/>
</g>
<!-- Node8 -->
<g id="node8" class="node"><title>Node8</title>
<g id="a_node8"><a xlink:href="ener__cache_8c.html" target="_top" xlink:title="/home/mignon/bioinfo\l/proteus/gitlab/proteus\l/ener_cache.c">
<polygon fill="white" stroke="black" points="524,-0.5 524,-41.5 637,-41.5 637,-0.5 524,-0.5"/>
<text text-anchor="start" x="532" y="-29.5" font-family="Helvetica,sans-Serif" font-size="10.00">/home/mignon/bioinfo</text>
<text text-anchor="start" x="532" y="-18.5" font-family="Helvetica,sans-Serif" font-size="10.00">/proteus/gitlab/proteus</text>
<text text-anchor="middle" x="580.5" y="-7.5" font-family="Helvetica,sans-Serif" font-size="10.00">/ener_cache.c</text>
</a>
</g>
</g>
<!-- Node7&#45;&gt;Node8 -->
<g id="edge8" class="edge"><title>Node7&#45;&gt;Node8</title>
<path fill="none" stroke="midnightblue" d="M385.045,-79.4685C423.271,-68.7268 472.152,-54.8283 515.5,-42 518.217,-41.1959 520.996,-40.3668 523.801,-39.5244"/>
<polygon fill="midnightblue" stroke="midnightblue" points="383.746,-76.1978 375.063,-82.2696 385.637,-82.9374 383.746,-76.1978"/>
</g>
</g>
</svg>
