<?xml version="1.0" encoding="UTF-8" standalone="no"?>
<!DOCTYPE svg PUBLIC "-//W3C//DTD SVG 1.1//EN"
 "http://www.w3.org/Graphics/SVG/1.1/DTD/svg11.dtd">
<!-- Generated by graphviz version 2.38.0 (20140413.2041)
 -->
<!-- Title: /home/mignon/bioinfo/proteus/gitlab/proteus/ener_cache.h Pages: 1 -->
<svg width="395pt" height="162pt"
 viewBox="0.00 0.00 395.00 162.00" xmlns="http://www.w3.org/2000/svg" xmlns:xlink="http://www.w3.org/1999/xlink">
<g id="graph0" class="graph" transform="scale(1 1) rotate(0) translate(4 158)">
<title>/home/mignon/bioinfo/proteus/gitlab/proteus/ener_cache.h</title>
<polygon fill="white" stroke="none" points="-4,4 -4,-158 391,-158 391,4 -4,4"/>
<!-- Node1 -->
<g id="node1" class="node"><title>Node1</title>
<polygon fill="#bfbfbf" stroke="black" points="130.5,-112.5 130.5,-153.5 243.5,-153.5 243.5,-112.5 130.5,-112.5"/>
<text text-anchor="start" x="138.5" y="-141.5" font-family="Helvetica,sans-Serif" font-size="10.00">/home/mignon/bioinfo</text>
<text text-anchor="start" x="138.5" y="-130.5" font-family="Helvetica,sans-Serif" font-size="10.00">/proteus/gitlab/proteus</text>
<text text-anchor="middle" x="187" y="-119.5" font-family="Helvetica,sans-Serif" font-size="10.00">/ener_cache.h</text>
</g>
<!-- Node2 -->
<g id="node2" class="node"><title>Node2</title>
<g id="a_node2"><a xlink:href="global_8h.html" target="_top" xlink:title="global.h">
<polygon fill="white" stroke="black" points="162,-56.5 162,-75.5 212,-75.5 212,-56.5 162,-56.5"/>
<text text-anchor="middle" x="187" y="-63.5" font-family="Helvetica,sans-Serif" font-size="10.00">global.h</text>
</a>
</g>
</g>
<!-- Node1&#45;&gt;Node2 -->
<g id="edge1" class="edge"><title>Node1&#45;&gt;Node2</title>
<path fill="none" stroke="midnightblue" d="M187,-112.498C187,-104.065 187,-94.2351 187,-85.874"/>
<polygon fill="midnightblue" stroke="midnightblue" points="190.5,-85.6525 187,-75.6525 183.5,-85.6525 190.5,-85.6525"/>
</g>
<!-- Node3 -->
<g id="node3" class="node"><title>Node3</title>
<polygon fill="white" stroke="#bfbfbf" points="0,-0.5 0,-19.5 48,-19.5 48,-0.5 0,-0.5"/>
<text text-anchor="middle" x="24" y="-7.5" font-family="Helvetica,sans-Serif" font-size="10.00">limits.h</text>
</g>
<!-- Node2&#45;&gt;Node3 -->
<g id="edge2" class="edge"><title>Node2&#45;&gt;Node3</title>
<path fill="none" stroke="midnightblue" d="M161.888,-56.6808C133.927,-47.4174 88.5957,-32.3998 57.5972,-22.1304"/>
<polygon fill="midnightblue" stroke="midnightblue" points="58.6699,-18.7987 48.0766,-18.9763 56.4685,-25.4436 58.6699,-18.7987"/>
</g>
<!-- Node4 -->
<g id="node4" class="node"><title>Node4</title>
<polygon fill="white" stroke="#bfbfbf" points="66,-0.5 66,-19.5 112,-19.5 112,-0.5 66,-0.5"/>
<text text-anchor="middle" x="89" y="-7.5" font-family="Helvetica,sans-Serif" font-size="10.00">stdio.h</text>
</g>
<!-- Node2&#45;&gt;Node4 -->
<g id="edge3" class="edge"><title>Node2&#45;&gt;Node4</title>
<path fill="none" stroke="midnightblue" d="M171.255,-56.324C155.681,-47.7428 131.623,-34.486 113.541,-24.5224"/>
<polygon fill="midnightblue" stroke="midnightblue" points="115.154,-21.4152 104.706,-19.6545 111.776,-27.546 115.154,-21.4152"/>
</g>
<!-- Node5 -->
<g id="node5" class="node"><title>Node5</title>
<polygon fill="white" stroke="#bfbfbf" points="130,-0.5 130,-19.5 178,-19.5 178,-0.5 130,-0.5"/>
<text text-anchor="middle" x="154" y="-7.5" font-family="Helvetica,sans-Serif" font-size="10.00">stdlib.h</text>
</g>
<!-- Node2&#45;&gt;Node5 -->
<g id="edge4" class="edge"><title>Node2&#45;&gt;Node5</title>
<path fill="none" stroke="midnightblue" d="M181.551,-56.083C176.986,-48.6127 170.332,-37.7244 164.707,-28.5199"/>
<polygon fill="midnightblue" stroke="midnightblue" points="167.549,-26.4588 159.348,-19.7511 161.576,-30.109 167.549,-26.4588"/>
</g>
<!-- Node6 -->
<g id="node6" class="node"><title>Node6</title>
<polygon fill="white" stroke="#bfbfbf" points="196.5,-0.5 196.5,-19.5 245.5,-19.5 245.5,-0.5 196.5,-0.5"/>
<text text-anchor="middle" x="221" y="-7.5" font-family="Helvetica,sans-Serif" font-size="10.00">string.h</text>
</g>
<!-- Node2&#45;&gt;Node6 -->
<g id="edge5" class="edge"><title>Node2&#45;&gt;Node6</title>
<path fill="none" stroke="midnightblue" d="M192.614,-56.083C197.367,-48.5341 204.318,-37.4948 210.152,-28.2298"/>
<polygon fill="midnightblue" stroke="midnightblue" points="213.124,-30.0783 215.49,-19.7511 207.2,-26.3486 213.124,-30.0783"/>
</g>
<!-- Node7 -->
<g id="node7" class="node"><title>Node7</title>
<polygon fill="white" stroke="#bfbfbf" points="263.5,-0.5 263.5,-19.5 312.5,-19.5 312.5,-0.5 263.5,-0.5"/>
<text text-anchor="middle" x="288" y="-7.5" font-family="Helvetica,sans-Serif" font-size="10.00">stdint.h</text>
</g>
<!-- Node2&#45;&gt;Node7 -->
<g id="edge6" class="edge"><title>Node2&#45;&gt;Node7</title>
<path fill="none" stroke="midnightblue" d="M203.227,-56.324C219.351,-47.7034 244.3,-34.3643 262.964,-24.3855"/>
<polygon fill="midnightblue" stroke="midnightblue" points="264.644,-27.456 271.813,-19.6545 261.344,-21.283 264.644,-27.456"/>
</g>
<!-- Node8 -->
<g id="node8" class="node"><title>Node8</title>
<polygon fill="white" stroke="#bfbfbf" points="331,-0.5 331,-19.5 387,-19.5 387,-0.5 331,-0.5"/>
<text text-anchor="middle" x="359" y="-7.5" font-family="Helvetica,sans-Serif" font-size="10.00">stdbool.h</text>
</g>
<!-- Node2&#45;&gt;Node8 -->
<g id="edge7" class="edge"><title>Node2&#45;&gt;Node8</title>
<path fill="none" stroke="midnightblue" d="M212.01,-57.1479C240.888,-48.0818 288.667,-33.0813 321.882,-22.6534"/>
<polygon fill="midnightblue" stroke="midnightblue" points="323.193,-25.9103 331.685,-19.5756 321.096,-19.2317 323.193,-25.9103"/>
</g>
</g>
</svg>
