<?xml version="1.0" encoding="UTF-8" standalone="no"?>
<!DOCTYPE svg PUBLIC "-//W3C//DTD SVG 1.1//EN"
 "http://www.w3.org/Graphics/SVG/1.1/DTD/svg11.dtd">
<!-- Generated by graphviz version 2.38.0 (20140413.2041)
 -->
<!-- Title: /home/mignon/bioinfo/proteus/gitlab/proteus/ener_cache.c Pages: 1 -->
<!--zoomable 218 -->
<svg id="main" version="1.1" xmlns="http://www.w3.org/2000/svg" xmlns:xlink="http://www.w3.org/1999/xlink" xml:space="preserve" onload="init(evt)">
<style type="text/css"><![CDATA[
.edge:hover path { stroke: red; }
.edge:hover polygon { stroke: red; fill: red; }
]]></style>
<script type="text/javascript"><![CDATA[
var edges = document.getElementsByTagName('g');
if (edges && edges.length) {
  for (var i=0;i<edges.length;i++) {
    if (edges[i].id.substr(0,4)=='edge') {
      edges[i].setAttribute('class','edge');
    }
  }
}
]]></script>
        <defs>
                <circle id="rim" cx="0" cy="0" r="7"/>
                <circle id="rim2" cx="0" cy="0" r="3.5"/>
                <g id="zoomPlus">
                        <use xlink:href="#rim" fill="#404040">
                                <set attributeName="fill" to="#808080" begin="zoomplus.mouseover" end="zoomplus.mouseout"/>
                        </use>
                        <path d="M-4,0h8M0,-4v8" fill="none" stroke="white" stroke-width="1.5" pointer-events="none"/>
                </g>
                <g id="zoomMin">
                        <use xlink:href="#rim" fill="#404040">
                                <set attributeName="fill" to="#808080" begin="zoomminus.mouseover" end="zoomminus.mouseout"/>
                        </use>
                        <path d="M-4,0h8" fill="none" stroke="white" stroke-width="1.5" pointer-events="none"/>
                </g>
                <g id="dirArrow">
                        <path fill="none" stroke="white" stroke-width="1.5" d="M0,-3.0v7 M-2.5,-0.5L0,-3.0L2.5,-0.5"/>
                </g>
               <g id="resetDef">
                       <use xlink:href="#rim2" fill="#404040">
                               <set attributeName="fill" to="#808080" begin="reset.mouseover" end="reset.mouseout"/>
                       </use>
               </g>
        </defs>

<script type="text/javascript">
var viewWidth = 624;
var viewHeight = 218;
var sectionId = 'dynsection-0';
</script>
<script xlink:href="svgpan.js"/>
<svg id="graph" class="graph">
<g id="viewport">
<title>/home/mignon/bioinfo/proteus/gitlab/proteus/ener_cache.c</title>
<polygon fill="white" stroke="none" points="-4,4 -4,-214 620,-214 620,4 -4,4"/>
<!-- Node1 -->
<g id="node1" class="node"><title>Node1</title>
<polygon fill="#bfbfbf" stroke="black" points="231,-168.5 231,-209.5 344,-209.5 344,-168.5 231,-168.5"/>
<text text-anchor="start" x="239" y="-197.5" font-family="Helvetica,sans-Serif" font-size="10.00">/home/mignon/bioinfo</text>
<text text-anchor="start" x="239" y="-186.5" font-family="Helvetica,sans-Serif" font-size="10.00">/proteus/gitlab/proteus</text>
<text text-anchor="middle" x="287.5" y="-175.5" font-family="Helvetica,sans-Serif" font-size="10.00">/ener_cache.c</text>
</g>
<!-- Node2 -->
<g id="node2" class="node"><title>Node2</title>
<polygon fill="white" stroke="#bfbfbf" points="0,-112.5 0,-131.5 59,-131.5 59,-112.5 0,-112.5"/>
<text text-anchor="middle" x="29.5" y="-119.5" font-family="Helvetica,sans-Serif" font-size="10.00">inttypes.h</text>
</g>
<!-- Node1&#45;&gt;Node2 -->
<g id="edge1" class="edge"><title>Node1&#45;&gt;Node2</title>
<path fill="none" stroke="midnightblue" d="M230.881,-173.735C181.856,-161.384 112.21,-143.838 68.9942,-132.95"/>
<polygon fill="midnightblue" stroke="midnightblue" points="69.6863,-129.515 59.1342,-130.466 67.9761,-136.303 69.6863,-129.515"/>
</g>
<!-- Node3 -->
<g id="node3" class="node"><title>Node3</title>
<polygon fill="white" stroke="#bfbfbf" points="43.5,-0.5 43.5,-19.5 99.5,-19.5 99.5,-0.5 43.5,-0.5"/>
<text text-anchor="middle" x="71.5" y="-7.5" font-family="Helvetica,sans-Serif" font-size="10.00">stdbool.h</text>
</g>
<!-- Node1&#45;&gt;Node3 -->
<g id="edge2" class="edge"><title>Node1&#45;&gt;Node3</title>
<path fill="none" stroke="midnightblue" d="M230.839,-178.796C198.277,-171.025 158.429,-156.988 130.5,-132 99.2571,-104.048 82.8305,-55.8609 75.796,-29.5191"/>
<polygon fill="midnightblue" stroke="midnightblue" points="79.1599,-28.5433 73.3405,-19.6898 72.3686,-30.24 79.1599,-28.5433"/>
</g>
<!-- Node4 -->
<g id="node4" class="node"><title>Node4</title>
<polygon fill="white" stroke="#bfbfbf" points="117.5,-0.5 117.5,-19.5 163.5,-19.5 163.5,-0.5 117.5,-0.5"/>
<text text-anchor="middle" x="140.5" y="-7.5" font-family="Helvetica,sans-Serif" font-size="10.00">stdio.h</text>
</g>
<!-- Node1&#45;&gt;Node4 -->
<g id="edge3" class="edge"><title>Node1&#45;&gt;Node4</title>
<path fill="none" stroke="midnightblue" d="M230.774,-180.902C199.948,-173.869 164.198,-159.869 144.5,-132 122.941,-101.5 129.385,-55.0394 135.344,-29.4731"/>
<polygon fill="midnightblue" stroke="midnightblue" points="138.778,-30.1705 137.865,-19.6151 131.996,-28.4362 138.778,-30.1705"/>
</g>
<!-- Node5 -->
<g id="node5" class="node"><title>Node5</title>
<polygon fill="white" stroke="#bfbfbf" points="382.5,-0.5 382.5,-19.5 430.5,-19.5 430.5,-0.5 382.5,-0.5"/>
<text text-anchor="middle" x="406.5" y="-7.5" font-family="Helvetica,sans-Serif" font-size="10.00">stdlib.h</text>
</g>
<!-- Node1&#45;&gt;Node5 -->
<g id="edge4" class="edge"><title>Node1&#45;&gt;Node5</title>
<path fill="none" stroke="midnightblue" d="M305.838,-168.379C315.04,-158.005 326.004,-144.794 334.5,-132 355.502,-100.372 353.545,-88.2982 373.5,-56 379.483,-46.3158 386.926,-36.0414 393.228,-27.7587"/>
<polygon fill="midnightblue" stroke="midnightblue" points="396.134,-29.7225 399.496,-19.675 390.602,-25.4333 396.134,-29.7225"/>
</g>
<!-- Node6 -->
<g id="node6" class="node"><title>Node6</title>
<g id="a_node6"><a xlink:href="ener__cache_8h.html" target="_top" xlink:title="ener_cache.h">
<polygon fill="white" stroke="black" points="250,-112.5 250,-131.5 325,-131.5 325,-112.5 250,-112.5"/>
<text text-anchor="middle" x="287.5" y="-119.5" font-family="Helvetica,sans-Serif" font-size="10.00">ener_cache.h</text>
</a>
</g>
</g>
<!-- Node1&#45;&gt;Node6 -->
<g id="edge5" class="edge"><title>Node1&#45;&gt;Node6</title>
<path fill="none" stroke="midnightblue" d="M287.5,-168.498C287.5,-160.065 287.5,-150.235 287.5,-141.874"/>
<polygon fill="midnightblue" stroke="midnightblue" points="291,-141.652 287.5,-131.652 284,-141.653 291,-141.652"/>
</g>
<!-- Node11 -->
<g id="node11" class="node"><title>Node11</title>
<g id="a_node11"><a xlink:href="read__ener_8h.html" target="_top" xlink:title="read_ener.h">
<polygon fill="white" stroke="black" points="381.5,-112.5 381.5,-131.5 449.5,-131.5 449.5,-112.5 381.5,-112.5"/>
<text text-anchor="middle" x="415.5" y="-119.5" font-family="Helvetica,sans-Serif" font-size="10.00">read_ener.h</text>
</a>
</g>
</g>
<!-- Node1&#45;&gt;Node11 -->
<g id="edge13" class="edge"><title>Node1&#45;&gt;Node11</title>
<path fill="none" stroke="midnightblue" d="M325.904,-168.498C346.378,-158.101 371.036,-145.579 389.297,-136.306"/>
<polygon fill="midnightblue" stroke="midnightblue" points="391.13,-139.301 398.461,-131.652 387.96,-133.06 391.13,-139.301"/>
</g>
<!-- Node14 -->
<g id="node14" class="node"><title>Node14</title>
<g id="a_node14"><a xlink:href="residues_8h.html" target="_top" xlink:title="residues.h">
<polygon fill="white" stroke="black" points="480.5,-0.5 480.5,-19.5 542.5,-19.5 542.5,-0.5 480.5,-0.5"/>
<text text-anchor="middle" x="511.5" y="-7.5" font-family="Helvetica,sans-Serif" font-size="10.00">residues.h</text>
</a>
</g>
</g>
<!-- Node1&#45;&gt;Node14 -->
<g id="edge20" class="edge"><title>Node1&#45;&gt;Node14</title>
<path fill="none" stroke="midnightblue" d="M344.004,-175.284C378.438,-166.154 422.575,-151.923 458.5,-132 492.44,-113.178 509.065,-111.157 525.5,-76 532.512,-61.0004 527.271,-42.4034 521.307,-28.9492"/>
<polygon fill="midnightblue" stroke="midnightblue" points="524.36,-27.2265 516.796,-19.8079 518.082,-30.3243 524.36,-27.2265"/>
</g>
<!-- Node15 -->
<g id="node15" class="node"><title>Node15</title>
<g id="a_node15"><a xlink:href="request__ring_8h.html" target="_top" xlink:title="request_ring.h">
<polygon fill="white" stroke="black" points="153.5,-112.5 153.5,-131.5 231.5,-131.5 231.5,-112.5 153.5,-112.5"/>
<text text-anchor="middle" x="192.5" y="-119.5" font-family="Helvetica,sans-Serif" font-size="10.00">request_ring.h</text>
</a>
</g>
</g>
<!-- Node1&#45;&gt;Node15 -->
<g id="edge18" class="edge"><title>Node1&#45;&gt;Node15</title>
<path fill="none" stroke="midnightblue" d="M258.997,-168.498C244.432,-158.532 227.013,-146.614 213.658,-137.476"/>
<polygon fill="midnightblue" stroke="midnightblue" points="215.375,-134.411 205.146,-131.652 211.423,-140.188 215.375,-134.411"/>
</g>
<!-- Node16 -->
<g id="node16" class="node"><title>Node16</title>
<g id="a_node16"><a xlink:href="utils_8h.html" target="_top" xlink:title="utils.h">
<polygon fill="white" stroke="black" points="573,-112.5 573,-131.5 616,-131.5 616,-112.5 573,-112.5"/>
<text text-anchor="middle" x="594.5" y="-119.5" font-family="Helvetica,sans-Serif" font-size="10.00">utils.h</text>
</a>
</g>
</g>
<!-- Node1&#45;&gt;Node16 -->
<g id="edge21" class="edge"><title>Node1&#45;&gt;Node16</title>
<path fill="none" stroke="midnightblue" d="M344.223,-176.986C399.154,-166.152 484.73,-148.836 558.5,-132 559.952,-131.669 561.436,-131.323 562.934,-130.97"/>
<polygon fill="midnightblue" stroke="midnightblue" points="563.939,-134.328 572.833,-128.57 562.29,-127.525 563.939,-134.328"/>
</g>
<!-- Node7 -->
<g id="node7" class="node"><title>Node7</title>
<g id="a_node7"><a xlink:href="global_8h.html" target="_top" xlink:title="global.h">
<polygon fill="white" stroke="black" points="247.5,-56.5 247.5,-75.5 297.5,-75.5 297.5,-56.5 247.5,-56.5"/>
<text text-anchor="middle" x="272.5" y="-63.5" font-family="Helvetica,sans-Serif" font-size="10.00">global.h</text>
</a>
</g>
</g>
<!-- Node6&#45;&gt;Node7 -->
<g id="edge6" class="edge"><title>Node6&#45;&gt;Node7</title>
<path fill="none" stroke="midnightblue" d="M285.023,-112.083C283.014,-104.849 280.114,-94.4087 277.61,-85.3968"/>
<polygon fill="midnightblue" stroke="midnightblue" points="280.98,-84.4495 274.931,-75.7511 274.235,-86.323 280.98,-84.4495"/>
</g>
<!-- Node7&#45;&gt;Node3 -->
<g id="edge12" class="edge"><title>Node7&#45;&gt;Node3</title>
<path fill="none" stroke="midnightblue" d="M247.45,-58.27C212.815,-48.9652 150.007,-32.0914 109.555,-21.2238"/>
<polygon fill="midnightblue" stroke="midnightblue" points="110.349,-17.813 99.7833,-18.5985 108.533,-24.5733 110.349,-17.813"/>
</g>
<!-- Node7&#45;&gt;Node4 -->
<g id="edge8" class="edge"><title>Node7&#45;&gt;Node4</title>
<path fill="none" stroke="midnightblue" d="M251.584,-56.4435C229.764,-47.5171 195.35,-33.4387 170.608,-23.3168"/>
<polygon fill="midnightblue" stroke="midnightblue" points="171.899,-20.0634 161.318,-19.5164 169.248,-26.5422 171.899,-20.0634"/>
</g>
<!-- Node7&#45;&gt;Node5 -->
<g id="edge9" class="edge"><title>Node7&#45;&gt;Node5</title>
<path fill="none" stroke="midnightblue" d="M293.733,-56.4435C315.884,-47.5171 350.819,-33.4387 375.936,-23.3168"/>
<polygon fill="midnightblue" stroke="midnightblue" points="377.4,-26.5006 385.367,-19.5164 374.783,-20.0079 377.4,-26.5006"/>
</g>
<!-- Node8 -->
<g id="node8" class="node"><title>Node8</title>
<polygon fill="white" stroke="#bfbfbf" points="181.5,-0.5 181.5,-19.5 229.5,-19.5 229.5,-0.5 181.5,-0.5"/>
<text text-anchor="middle" x="205.5" y="-7.5" font-family="Helvetica,sans-Serif" font-size="10.00">limits.h</text>
</g>
<!-- Node7&#45;&gt;Node8 -->
<g id="edge7" class="edge"><title>Node7&#45;&gt;Node8</title>
<path fill="none" stroke="midnightblue" d="M261.735,-56.324C251.734,-48.2631 236.613,-36.0765 224.57,-26.3695"/>
<polygon fill="midnightblue" stroke="midnightblue" points="226.443,-23.3841 216.461,-19.8339 222.05,-28.8343 226.443,-23.3841"/>
</g>
<!-- Node9 -->
<g id="node9" class="node"><title>Node9</title>
<polygon fill="white" stroke="#bfbfbf" points="248,-0.5 248,-19.5 297,-19.5 297,-0.5 248,-0.5"/>
<text text-anchor="middle" x="272.5" y="-7.5" font-family="Helvetica,sans-Serif" font-size="10.00">string.h</text>
</g>
<!-- Node7&#45;&gt;Node9 -->
<g id="edge10" class="edge"><title>Node7&#45;&gt;Node9</title>
<path fill="none" stroke="midnightblue" d="M272.5,-56.083C272.5,-49.0059 272.5,-38.8611 272.5,-29.9865"/>
<polygon fill="midnightblue" stroke="midnightblue" points="276,-29.751 272.5,-19.7511 269,-29.7511 276,-29.751"/>
</g>
<!-- Node10 -->
<g id="node10" class="node"><title>Node10</title>
<polygon fill="white" stroke="#bfbfbf" points="315,-0.5 315,-19.5 364,-19.5 364,-0.5 315,-0.5"/>
<text text-anchor="middle" x="339.5" y="-7.5" font-family="Helvetica,sans-Serif" font-size="10.00">stdint.h</text>
</g>
<!-- Node7&#45;&gt;Node10 -->
<g id="edge11" class="edge"><title>Node7&#45;&gt;Node10</title>
<path fill="none" stroke="midnightblue" d="M283.265,-56.324C293.266,-48.2631 308.387,-36.0765 320.43,-26.3695"/>
<polygon fill="midnightblue" stroke="midnightblue" points="322.95,-28.8343 328.539,-19.8339 318.557,-23.3841 322.95,-28.8343"/>
</g>
<!-- Node11&#45;&gt;Node7 -->
<g id="edge15" class="edge"><title>Node11&#45;&gt;Node7</title>
<path fill="none" stroke="midnightblue" d="M392.841,-112.444C369.098,-103.478 331.591,-89.314 304.762,-79.1827"/>
<polygon fill="midnightblue" stroke="midnightblue" points="305.644,-75.7749 295.053,-75.5164 303.171,-82.3235 305.644,-75.7749"/>
</g>
<!-- Node12 -->
<g id="node12" class="node"><title>Node12</title>
<polygon fill="white" stroke="#bfbfbf" points="467,-56.5 467,-75.5 516,-75.5 516,-56.5 467,-56.5"/>
<text text-anchor="middle" x="491.5" y="-63.5" font-family="Helvetica,sans-Serif" font-size="10.00">dirent.h</text>
</g>
<!-- Node11&#45;&gt;Node12 -->
<g id="edge14" class="edge"><title>Node11&#45;&gt;Node12</title>
<path fill="none" stroke="midnightblue" d="M427.711,-112.324C439.276,-104.107 456.875,-91.6017 470.661,-81.8069"/>
<polygon fill="midnightblue" stroke="midnightblue" points="472.943,-84.4791 479.067,-75.8339 468.888,-78.7729 472.943,-84.4791"/>
</g>
<!-- Node13 -->
<g id="node13" class="node"><title>Node13</title>
<g id="a_node13"><a xlink:href="backbone_8h.html" target="_top" xlink:title="backbone.h">
<polygon fill="white" stroke="black" points="382,-56.5 382,-75.5 449,-75.5 449,-56.5 382,-56.5"/>
<text text-anchor="middle" x="415.5" y="-63.5" font-family="Helvetica,sans-Serif" font-size="10.00">backbone.h</text>
</a>
</g>
</g>
<!-- Node11&#45;&gt;Node13 -->
<g id="edge16" class="edge"><title>Node11&#45;&gt;Node13</title>
<path fill="none" stroke="midnightblue" d="M415.5,-112.083C415.5,-105.006 415.5,-94.8611 415.5,-85.9865"/>
<polygon fill="midnightblue" stroke="midnightblue" points="419,-85.751 415.5,-75.7511 412,-85.7511 419,-85.751"/>
</g>
<!-- Node13&#45;&gt;Node14 -->
<g id="edge17" class="edge"><title>Node13&#45;&gt;Node14</title>
<path fill="none" stroke="midnightblue" d="M430.924,-56.324C446.04,-47.8215 469.315,-34.7288 486.971,-24.7975"/>
<polygon fill="midnightblue" stroke="midnightblue" points="489.114,-27.6077 496.114,-19.6545 485.683,-21.5066 489.114,-27.6077"/>
</g>
<!-- Node15&#45;&gt;Node7 -->
<g id="edge19" class="edge"><title>Node15&#45;&gt;Node7</title>
<path fill="none" stroke="midnightblue" d="M205.353,-112.324C217.716,-103.979 236.63,-91.2122 251.237,-81.3524"/>
<polygon fill="midnightblue" stroke="midnightblue" points="253.348,-84.1503 259.679,-75.6545 249.432,-78.3483 253.348,-84.1503"/>
</g>
</g>
</svg>
        <g id="navigator" transform="translate(0 0)" fill="#404254">
                <rect fill="#f2f5e9" fill-opacity="0.5" stroke="#606060" stroke-width=".5" x="0" y="0" width="60" height="60"/>
                <use id="zoomplus" xlink:href="#zoomPlus" x="17" y="9" onmousedown="handleZoom(evt,'in')"/>
                <use id="zoomminus" xlink:href="#zoomMin" x="42" y="9" onmousedown="handleZoom(evt,'out')"/>
                <use id="reset" xlink:href="#resetDef" x="30" y="36" onmousedown="handleReset()"/>
                <g id="arrowUp" xlink:href="#dirArrow" transform="translate(30 24)" onmousedown="handlePan(0,-1)">
                  <use xlink:href="#rim" fill="#404040">
                        <set attributeName="fill" to="#808080" begin="arrowUp.mouseover" end="arrowUp.mouseout"/>
                  </use>
                  <path fill="none" stroke="white" stroke-width="1.5" d="M0,-3.0v7 M-2.5,-0.5L0,-3.0L2.5,-0.5"/>
                </g>
                <g id="arrowRight" xlink:href="#dirArrow" transform="rotate(90) translate(36 -43)" onmousedown="handlePan(1,0)">
                  <use xlink:href="#rim" fill="#404040">
                        <set attributeName="fill" to="#808080" begin="arrowRight.mouseover" end="arrowRight.mouseout"/>
                  </use>
                  <path fill="none" stroke="white" stroke-width="1.5" d="M0,-3.0v7 M-2.5,-0.5L0,-3.0L2.5,-0.5"/>
                </g>
                <g id="arrowDown" xlink:href="#dirArrow" transform="rotate(180) translate(-30 -48)" onmousedown="handlePan(0,1)">
                  <use xlink:href="#rim" fill="#404040">
                        <set attributeName="fill" to="#808080" begin="arrowDown.mouseover" end="arrowDown.mouseout"/>
                  </use>
                  <path fill="none" stroke="white" stroke-width="1.5" d="M0,-3.0v7 M-2.5,-0.5L0,-3.0L2.5,-0.5"/>
                </g>
                <g id="arrowLeft" xlink:href="#dirArrow" transform="rotate(270) translate(-36 17)" onmousedown="handlePan(-1,0)">
                  <use xlink:href="#rim" fill="#404040">
                        <set attributeName="fill" to="#808080" begin="arrowLeft.mouseover" end="arrowLeft.mouseout"/>
                  </use>
                  <path fill="none" stroke="white" stroke-width="1.5" d="M0,-3.0v7 M-2.5,-0.5L0,-3.0L2.5,-0.5"/>
                </g>
        </g>
        <svg viewBox="0 0 15 15" width="100%" height="30px" preserveAspectRatio="xMaxYMin meet">
         <g id="arrow_out" transform="scale(0.3 0.3)">
          <a xlink:href="ener__cache_8c__incl_org.svg" target="_base">
           <rect id="button" ry="5" rx="5" y="6" x="6" height="38" width="38"
                fill="#f2f5e9" fill-opacity="0.5" stroke="#606060" stroke-width="1.0"/>
           <path id="arrow"
             d="M 11.500037,31.436501 C 11.940474,20.09759 22.043105,11.32322 32.158766,21.979434 L 37.068811,17.246167 C 37.068811,17.246167 37.088388,32 37.088388,32 L 22.160133,31.978069 C 22.160133,31.978069 26.997745,27.140456 26.997745,27.140456 C 18.528582,18.264221 13.291696,25.230495 11.500037,31.436501 z"
             style="fill:#404040;"/>
          </a>
         </g>
        </svg>
</svg>
