<?xml version="1.0" encoding="UTF-8" standalone="no"?>
<!DOCTYPE svg PUBLIC "-//W3C//DTD SVG 1.1//EN"
 "http://www.w3.org/Graphics/SVG/1.1/DTD/svg11.dtd">
<!-- Generated by graphviz version 2.38.0 (20140413.2041)
 -->
<!-- Title: /home/mignon/bioinfo/proteus/gitlab/proteus/ener_cache.h Pages: 1 -->
<svg width="383pt" height="128pt"
 viewBox="0.00 0.00 383.00 128.00" xmlns="http://www.w3.org/2000/svg" xmlns:xlink="http://www.w3.org/1999/xlink">
<g id="graph0" class="graph" transform="scale(1 1) rotate(0) translate(4 124)">
<title>/home/mignon/bioinfo/proteus/gitlab/proteus/ener_cache.h</title>
<polygon fill="white" stroke="none" points="-4,4 -4,-124 379,-124 379,4 -4,4"/>
<!-- Node1 -->
<g id="node1" class="node"><title>Node1</title>
<polygon fill="#bfbfbf" stroke="black" points="131,-78.5 131,-119.5 244,-119.5 244,-78.5 131,-78.5"/>
<text text-anchor="start" x="139" y="-107.5" font-family="Helvetica,sans-Serif" font-size="10.00">/home/mignon/bioinfo</text>
<text text-anchor="start" x="139" y="-96.5" font-family="Helvetica,sans-Serif" font-size="10.00">/proteus/gitlab/proteus</text>
<text text-anchor="middle" x="187.5" y="-85.5" font-family="Helvetica,sans-Serif" font-size="10.00">/ener_cache.h</text>
</g>
<!-- Node2 -->
<g id="node2" class="node"><title>Node2</title>
<g id="a_node2"><a xlink:href="ener__cache_8c.html" target="_top" xlink:title="/home/mignon/bioinfo\l/proteus/gitlab/proteus\l/ener_cache.c">
<polygon fill="white" stroke="black" points="0,-0.5 0,-41.5 113,-41.5 113,-0.5 0,-0.5"/>
<text text-anchor="start" x="8" y="-29.5" font-family="Helvetica,sans-Serif" font-size="10.00">/home/mignon/bioinfo</text>
<text text-anchor="start" x="8" y="-18.5" font-family="Helvetica,sans-Serif" font-size="10.00">/proteus/gitlab/proteus</text>
<text text-anchor="middle" x="56.5" y="-7.5" font-family="Helvetica,sans-Serif" font-size="10.00">/ener_cache.c</text>
</a>
</g>
</g>
<!-- Node1&#45;&gt;Node2 -->
<g id="edge1" class="edge"><title>Node1&#45;&gt;Node2</title>
<path fill="none" stroke="midnightblue" d="M144.758,-73.2029C127.029,-62.9176 106.76,-51.1587 90.1214,-41.5056"/>
<polygon fill="midnightblue" stroke="midnightblue" points="143.358,-76.4373 153.764,-78.4281 146.871,-70.3825 143.358,-76.4373"/>
</g>
<!-- Node3 -->
<g id="node3" class="node"><title>Node3</title>
<g id="a_node3"><a xlink:href="proteus_8c.html" target="_top" xlink:title="/home/mignon/bioinfo\l/proteus/gitlab/proteus\l/proteus.c">
<polygon fill="white" stroke="black" points="131,-0.5 131,-41.5 244,-41.5 244,-0.5 131,-0.5"/>
<text text-anchor="start" x="139" y="-29.5" font-family="Helvetica,sans-Serif" font-size="10.00">/home/mignon/bioinfo</text>
<text text-anchor="start" x="139" y="-18.5" font-family="Helvetica,sans-Serif" font-size="10.00">/proteus/gitlab/proteus</text>
<text text-anchor="middle" x="187.5" y="-7.5" font-family="Helvetica,sans-Serif" font-size="10.00">/proteus.c</text>
</a>
</g>
</g>
<!-- Node1&#45;&gt;Node3 -->
<g id="edge2" class="edge"><title>Node1&#45;&gt;Node3</title>
<path fill="none" stroke="midnightblue" d="M187.5,-68.2965C187.5,-59.3009 187.5,-49.6532 187.5,-41.5056"/>
<polygon fill="midnightblue" stroke="midnightblue" points="184,-68.4281 187.5,-78.4281 191,-68.4281 184,-68.4281"/>
</g>
<!-- Node4 -->
<g id="node4" class="node"><title>Node4</title>
<g id="a_node4"><a xlink:href="read__conf_8c.html" target="_top" xlink:title="/home/mignon/bioinfo\l/proteus/gitlab/proteus\l/read_conf.c">
<polygon fill="white" stroke="black" points="262,-0.5 262,-41.5 375,-41.5 375,-0.5 262,-0.5"/>
<text text-anchor="start" x="270" y="-29.5" font-family="Helvetica,sans-Serif" font-size="10.00">/home/mignon/bioinfo</text>
<text text-anchor="start" x="270" y="-18.5" font-family="Helvetica,sans-Serif" font-size="10.00">/proteus/gitlab/proteus</text>
<text text-anchor="middle" x="318.5" y="-7.5" font-family="Helvetica,sans-Serif" font-size="10.00">/read_conf.c</text>
</a>
</g>
</g>
<!-- Node1&#45;&gt;Node4 -->
<g id="edge3" class="edge"><title>Node1&#45;&gt;Node4</title>
<path fill="none" stroke="midnightblue" d="M230.242,-73.2029C247.971,-62.9176 268.24,-51.1587 284.879,-41.5056"/>
<polygon fill="midnightblue" stroke="midnightblue" points="228.129,-70.3825 221.236,-78.4281 231.642,-76.4373 228.129,-70.3825"/>
</g>
</g>
</svg>
