<?xml version="1.0" encoding="UTF-8" standalone="no"?>
<!DOCTYPE svg PUBLIC "-//W3C//DTD SVG 1.1//EN"
 "http://www.w3.org/Graphics/SVG/1.1/DTD/svg11.dtd">
<!-- Generated by graphviz version 2.38.0 (20140413.2041)
 -->
<!-- Title: /home/mignon/bioinfo/proteus/gitlab/proteus/global.h Pages: 1 -->
<svg width="395pt" height="106pt"
 viewBox="0.00 0.00 395.00 106.00" xmlns="http://www.w3.org/2000/svg" xmlns:xlink="http://www.w3.org/1999/xlink">
<g id="graph0" class="graph" transform="scale(1 1) rotate(0) translate(4 102)">
<title>/home/mignon/bioinfo/proteus/gitlab/proteus/global.h</title>
<polygon fill="white" stroke="none" points="-4,4 -4,-102 391,-102 391,4 -4,4"/>
<!-- Node1 -->
<g id="node1" class="node"><title>Node1</title>
<polygon fill="#bfbfbf" stroke="black" points="130.5,-56.5 130.5,-97.5 243.5,-97.5 243.5,-56.5 130.5,-56.5"/>
<text text-anchor="start" x="138.5" y="-85.5" font-family="Helvetica,sans-Serif" font-size="10.00">/home/mignon/bioinfo</text>
<text text-anchor="start" x="138.5" y="-74.5" font-family="Helvetica,sans-Serif" font-size="10.00">/proteus/gitlab/proteus</text>
<text text-anchor="middle" x="187" y="-63.5" font-family="Helvetica,sans-Serif" font-size="10.00">/global.h</text>
</g>
<!-- Node2 -->
<g id="node2" class="node"><title>Node2</title>
<polygon fill="white" stroke="#bfbfbf" points="0,-0.5 0,-19.5 48,-19.5 48,-0.5 0,-0.5"/>
<text text-anchor="middle" x="24" y="-7.5" font-family="Helvetica,sans-Serif" font-size="10.00">limits.h</text>
</g>
<!-- Node1&#45;&gt;Node2 -->
<g id="edge1" class="edge"><title>Node1&#45;&gt;Node2</title>
<path fill="none" stroke="midnightblue" d="M138.095,-56.4979C111.181,-45.7655 78.5903,-32.7691 55.1434,-23.4192"/>
<polygon fill="midnightblue" stroke="midnightblue" points="56.2829,-20.1056 45.6978,-19.6525 53.69,-26.6077 56.2829,-20.1056"/>
</g>
<!-- Node3 -->
<g id="node3" class="node"><title>Node3</title>
<polygon fill="white" stroke="#bfbfbf" points="66,-0.5 66,-19.5 112,-19.5 112,-0.5 66,-0.5"/>
<text text-anchor="middle" x="89" y="-7.5" font-family="Helvetica,sans-Serif" font-size="10.00">stdio.h</text>
</g>
<!-- Node1&#45;&gt;Node3 -->
<g id="edge2" class="edge"><title>Node1&#45;&gt;Node3</title>
<path fill="none" stroke="midnightblue" d="M157.597,-56.4979C142.427,-46.4363 124.257,-34.3849 110.43,-25.2136"/>
<polygon fill="midnightblue" stroke="midnightblue" points="112.313,-22.2631 102.045,-19.6525 108.444,-28.0967 112.313,-22.2631"/>
</g>
<!-- Node4 -->
<g id="node4" class="node"><title>Node4</title>
<polygon fill="white" stroke="#bfbfbf" points="130,-0.5 130,-19.5 178,-19.5 178,-0.5 130,-0.5"/>
<text text-anchor="middle" x="154" y="-7.5" font-family="Helvetica,sans-Serif" font-size="10.00">stdlib.h</text>
</g>
<!-- Node1&#45;&gt;Node4 -->
<g id="edge3" class="edge"><title>Node1&#45;&gt;Node4</title>
<path fill="none" stroke="midnightblue" d="M177.099,-56.4979C172.623,-47.682 167.372,-37.3385 163.008,-28.7432"/>
<polygon fill="midnightblue" stroke="midnightblue" points="166.041,-26.9847 158.393,-19.6525 159.799,-30.1536 166.041,-26.9847"/>
</g>
<!-- Node5 -->
<g id="node5" class="node"><title>Node5</title>
<polygon fill="white" stroke="#bfbfbf" points="196.5,-0.5 196.5,-19.5 245.5,-19.5 245.5,-0.5 196.5,-0.5"/>
<text text-anchor="middle" x="221" y="-7.5" font-family="Helvetica,sans-Serif" font-size="10.00">string.h</text>
</g>
<!-- Node1&#45;&gt;Node5 -->
<g id="edge4" class="edge"><title>Node1&#45;&gt;Node5</title>
<path fill="none" stroke="midnightblue" d="M197.201,-56.4979C201.812,-47.682 207.223,-37.3385 211.719,-28.7432"/>
<polygon fill="midnightblue" stroke="midnightblue" points="214.94,-30.1357 216.474,-19.6525 208.738,-26.8912 214.94,-30.1357"/>
</g>
<!-- Node6 -->
<g id="node6" class="node"><title>Node6</title>
<polygon fill="white" stroke="#bfbfbf" points="263.5,-0.5 263.5,-19.5 312.5,-19.5 312.5,-0.5 263.5,-0.5"/>
<text text-anchor="middle" x="288" y="-7.5" font-family="Helvetica,sans-Serif" font-size="10.00">stdint.h</text>
</g>
<!-- Node1&#45;&gt;Node6 -->
<g id="edge5" class="edge"><title>Node1&#45;&gt;Node6</title>
<path fill="none" stroke="midnightblue" d="M217.303,-56.4979C232.937,-46.4363 251.664,-34.3849 265.914,-25.2136"/>
<polygon fill="midnightblue" stroke="midnightblue" points="268.04,-28.0075 274.555,-19.6525 264.252,-22.1211 268.04,-28.0075"/>
</g>
<!-- Node7 -->
<g id="node7" class="node"><title>Node7</title>
<polygon fill="white" stroke="#bfbfbf" points="331,-0.5 331,-19.5 387,-19.5 387,-0.5 331,-0.5"/>
<text text-anchor="middle" x="359" y="-7.5" font-family="Helvetica,sans-Serif" font-size="10.00">stdbool.h</text>
</g>
<!-- Node1&#45;&gt;Node7 -->
<g id="edge6" class="edge"><title>Node1&#45;&gt;Node7</title>
<path fill="none" stroke="midnightblue" d="M238.606,-56.4979C267.132,-45.7176 301.703,-32.6531 326.468,-23.2941"/>
<polygon fill="midnightblue" stroke="midnightblue" points="327.987,-26.4616 336.104,-19.6525 325.513,-19.9136 327.987,-26.4616"/>
</g>
</g>
</svg>
