<?xml version="1.0" encoding="UTF-8" standalone="no"?>
<!DOCTYPE svg PUBLIC "-//W3C//DTD SVG 1.1//EN"
 "http://www.w3.org/Graphics/SVG/1.1/DTD/svg11.dtd">
<!-- Generated by graphviz version 2.38.0 (20140413.2041)
 -->
<!-- Title: /home/mignon/bioinfo/proteus/gitlab/proteus/proteus.c Pages: 1 -->
<!--zoomable 218 -->
<svg id="main" version="1.1" xmlns="http://www.w3.org/2000/svg" xmlns:xlink="http://www.w3.org/1999/xlink" xml:space="preserve" onload="init(evt)">
<style type="text/css"><![CDATA[
.edge:hover path { stroke: red; }
.edge:hover polygon { stroke: red; fill: red; }
]]></style>
<script type="text/javascript"><![CDATA[
var edges = document.getElementsByTagName('g');
if (edges && edges.length) {
  for (var i=0;i<edges.length;i++) {
    if (edges[i].id.substr(0,4)=='edge') {
      edges[i].setAttribute('class','edge');
    }
  }
}
]]></script>
        <defs>
                <circle id="rim" cx="0" cy="0" r="7"/>
                <circle id="rim2" cx="0" cy="0" r="3.5"/>
                <g id="zoomPlus">
                        <use xlink:href="#rim" fill="#404040">
                                <set attributeName="fill" to="#808080" begin="zoomplus.mouseover" end="zoomplus.mouseout"/>
                        </use>
                        <path d="M-4,0h8M0,-4v8" fill="none" stroke="white" stroke-width="1.5" pointer-events="none"/>
                </g>
                <g id="zoomMin">
                        <use xlink:href="#rim" fill="#404040">
                                <set attributeName="fill" to="#808080" begin="zoomminus.mouseover" end="zoomminus.mouseout"/>
                        </use>
                        <path d="M-4,0h8" fill="none" stroke="white" stroke-width="1.5" pointer-events="none"/>
                </g>
                <g id="dirArrow">
                        <path fill="none" stroke="white" stroke-width="1.5" d="M0,-3.0v7 M-2.5,-0.5L0,-3.0L2.5,-0.5"/>
                </g>
               <g id="resetDef">
                       <use xlink:href="#rim2" fill="#404040">
                               <set attributeName="fill" to="#808080" begin="reset.mouseover" end="reset.mouseout"/>
                       </use>
               </g>
        </defs>

<script type="text/javascript">
var viewWidth = 1299;
var viewHeight = 218;
var sectionId = 'dynsection-0';
</script>
<script xlink:href="svgpan.js"/>
<svg id="graph" class="graph">
<g id="viewport">
<title>/home/mignon/bioinfo/proteus/gitlab/proteus/proteus.c</title>
<polygon fill="white" stroke="none" points="-4,4 -4,-214 1295.43,-214 1295.43,4 -4,4"/>
<!-- Node1 -->
<g id="node1" class="node"><title>Node1</title>
<polygon fill="#bfbfbf" stroke="black" points="609.876,-168.5 609.876,-209.5 722.876,-209.5 722.876,-168.5 609.876,-168.5"/>
<text text-anchor="start" x="617.876" y="-197.5" font-family="Helvetica,sans-Serif" font-size="10.00">/home/mignon/bioinfo</text>
<text text-anchor="start" x="617.876" y="-186.5" font-family="Helvetica,sans-Serif" font-size="10.00">/proteus/gitlab/proteus</text>
<text text-anchor="middle" x="666.376" y="-175.5" font-family="Helvetica,sans-Serif" font-size="10.00">/proteus.c</text>
</g>
<!-- Node2 -->
<g id="node2" class="node"><title>Node2</title>
<polygon fill="white" stroke="#bfbfbf" points="100.376,-0.5 100.376,-19.5 146.376,-19.5 146.376,-0.5 100.376,-0.5"/>
<text text-anchor="middle" x="123.376" y="-7.5" font-family="Helvetica,sans-Serif" font-size="10.00">stdio.h</text>
</g>
<!-- Node1&#45;&gt;Node2 -->
<g id="edge1" class="edge"><title>Node1&#45;&gt;Node2</title>
<path fill="none" stroke="midnightblue" d="M609.631,-187.459C457.39,-185.422 48.6804,-175.881 8.37569,-132 -3.66716,-118.889 -3.36653,-82.488 17.3757,-56 34.9847,-33.5132 65.9503,-22.11 89.8817,-16.4229"/>
<polygon fill="midnightblue" stroke="midnightblue" points="90.9348,-19.7767 99.9778,-14.2562 89.466,-12.9325 90.9348,-19.7767"/>
</g>
<!-- Node3 -->
<g id="node3" class="node"><title>Node3</title>
<polygon fill="white" stroke="#bfbfbf" points="308.376,-0.5 308.376,-19.5 356.376,-19.5 356.376,-0.5 308.376,-0.5"/>
<text text-anchor="middle" x="332.376" y="-7.5" font-family="Helvetica,sans-Serif" font-size="10.00">stdlib.h</text>
</g>
<!-- Node1&#45;&gt;Node3 -->
<g id="edge2" class="edge"><title>Node1&#45;&gt;Node3</title>
<path fill="none" stroke="midnightblue" d="M609.66,-187.33C460.063,-184.978 63.5443,-174.734 24.3757,-132 -57.0975,-43.1108 202.046,-18.6425 298.058,-12.7115"/>
<polygon fill="midnightblue" stroke="midnightblue" points="298.363,-16.1997 308.141,-12.1202 297.954,-9.21167 298.363,-16.1997"/>
</g>
<!-- Node4 -->
<g id="node4" class="node"><title>Node4</title>
<polygon fill="white" stroke="#bfbfbf" points="33.3757,-112.5 33.3757,-131.5 85.3757,-131.5 85.3757,-112.5 33.3757,-112.5"/>
<text text-anchor="middle" x="59.3757" y="-119.5" font-family="Helvetica,sans-Serif" font-size="10.00">assert.h</text>
</g>
<!-- Node1&#45;&gt;Node4 -->
<g id="edge3" class="edge"><title>Node1&#45;&gt;Node4</title>
<path fill="none" stroke="midnightblue" d="M609.557,-185.343C508.08,-179.965 288.975,-165.49 95.7107,-131.985"/>
<polygon fill="midnightblue" stroke="midnightblue" points="96.1085,-128.502 85.654,-130.22 94.8984,-135.396 96.1085,-128.502"/>
</g>
<!-- Node5 -->
<g id="node5" class="node"><title>Node5</title>
<polygon fill="white" stroke="#bfbfbf" points="103.376,-112.5 103.376,-131.5 153.376,-131.5 153.376,-112.5 103.376,-112.5"/>
<text text-anchor="middle" x="128.376" y="-119.5" font-family="Helvetica,sans-Serif" font-size="10.00">signal.h</text>
</g>
<!-- Node1&#45;&gt;Node5 -->
<g id="edge4" class="edge"><title>Node1&#45;&gt;Node5</title>
<path fill="none" stroke="midnightblue" d="M609.662,-184.449C517.773,-178.093 330.619,-162.654 163.495,-131.956"/>
<polygon fill="midnightblue" stroke="midnightblue" points="164.004,-128.491 153.532,-130.103 162.724,-135.373 164.004,-128.491"/>
</g>
<!-- Node6 -->
<g id="node6" class="node"><title>Node6</title>
<polygon fill="white" stroke="#bfbfbf" points="171.876,-112.5 171.876,-131.5 218.876,-131.5 218.876,-112.5 171.876,-112.5"/>
<text text-anchor="middle" x="195.376" y="-119.5" font-family="Helvetica,sans-Serif" font-size="10.00">math.h</text>
</g>
<!-- Node1&#45;&gt;Node6 -->
<g id="edge5" class="edge"><title>Node1&#45;&gt;Node6</title>
<path fill="none" stroke="midnightblue" d="M609.809,-183.468C527.75,-176.305 370.854,-160.392 229.217,-132.133"/>
<polygon fill="midnightblue" stroke="midnightblue" points="229.542,-128.628 219.046,-130.077 228.154,-135.489 229.542,-128.628"/>
</g>
<!-- Node7 -->
<g id="node7" class="node"><title>Node7</title>
<polygon fill="white" stroke="#bfbfbf" points="236.876,-112.5 236.876,-131.5 295.876,-131.5 295.876,-112.5 236.876,-112.5"/>
<text text-anchor="middle" x="266.376" y="-119.5" font-family="Helvetica,sans-Serif" font-size="10.00">mcheck.h</text>
</g>
<!-- Node1&#45;&gt;Node7 -->
<g id="edge6" class="edge"><title>Node1&#45;&gt;Node7</title>
<path fill="none" stroke="midnightblue" d="M609.568,-180.493C540.285,-171.046 419.426,-153.631 306.033,-132.005"/>
<polygon fill="midnightblue" stroke="midnightblue" points="306.62,-128.554 296.139,-130.104 305.298,-135.428 306.62,-128.554"/>
</g>
<!-- Node8 -->
<g id="node8" class="node"><title>Node8</title>
<polygon fill="white" stroke="#bfbfbf" points="314.376,-112.5 314.376,-131.5 358.376,-131.5 358.376,-112.5 314.376,-112.5"/>
<text text-anchor="middle" x="336.376" y="-119.5" font-family="Helvetica,sans-Serif" font-size="10.00">time.h</text>
</g>
<!-- Node1&#45;&gt;Node8 -->
<g id="edge7" class="edge"><title>Node1&#45;&gt;Node8</title>
<path fill="none" stroke="midnightblue" d="M609.82,-178.211C550.479,-167.71 454.583,-150.09 372.376,-132 371.102,-131.72 369.804,-131.427 368.494,-131.127"/>
<polygon fill="midnightblue" stroke="midnightblue" points="368.953,-127.638 358.414,-128.72 367.327,-134.447 368.953,-127.638"/>
</g>
<!-- Node9 -->
<g id="node9" class="node"><title>Node9</title>
<polygon fill="white" stroke="#bfbfbf" points="446.376,-0.5 446.376,-19.5 494.376,-19.5 494.376,-0.5 446.376,-0.5"/>
<text text-anchor="middle" x="470.376" y="-7.5" font-family="Helvetica,sans-Serif" font-size="10.00">limits.h</text>
</g>
<!-- Node1&#45;&gt;Node9 -->
<g id="edge8" class="edge"><title>Node1&#45;&gt;Node9</title>
<path fill="none" stroke="midnightblue" d="M609.805,-183.989C540.909,-177.791 430.574,-163.178 405.376,-132 377.8,-97.8807 423.426,-50.312 451.284,-26.2442"/>
<polygon fill="midnightblue" stroke="midnightblue" points="453.836,-28.6724 459.259,-19.5703 449.344,-23.3042 453.836,-28.6724"/>
</g>
<!-- Node10 -->
<g id="node10" class="node"><title>Node10</title>
<polygon fill="white" stroke="#bfbfbf" points="414.876,-112.5 414.876,-131.5 465.876,-131.5 465.876,-112.5 414.876,-112.5"/>
<text text-anchor="middle" x="440.376" y="-119.5" font-family="Helvetica,sans-Serif" font-size="10.00">unistd.h</text>
</g>
<!-- Node1&#45;&gt;Node10 -->
<g id="edge9" class="edge"><title>Node1&#45;&gt;Node10</title>
<path fill="none" stroke="midnightblue" d="M609.638,-171.682C567.748,-159.634 512.009,-143.602 476.154,-133.29"/>
<polygon fill="midnightblue" stroke="midnightblue" points="476.727,-129.813 466.149,-130.413 474.792,-136.541 476.727,-129.813"/>
</g>
<!-- Node11 -->
<g id="node11" class="node"><title>Node11</title>
<polygon fill="white" stroke="#bfbfbf" points="596.876,-0.5 596.876,-19.5 645.876,-19.5 645.876,-0.5 596.876,-0.5"/>
<text text-anchor="middle" x="621.376" y="-7.5" font-family="Helvetica,sans-Serif" font-size="10.00">string.h</text>
</g>
<!-- Node1&#45;&gt;Node11 -->
<g id="edge10" class="edge"><title>Node1&#45;&gt;Node11</title>
<path fill="none" stroke="midnightblue" d="M723.206,-186.573C806.412,-183.149 955.139,-171.516 988.376,-132 994.097,-125.197 993.322,-119.386 988.376,-112 950.864,-55.9868 740.04,-25.1041 655.979,-14.8727"/>
<polygon fill="midnightblue" stroke="midnightblue" points="656.256,-11.3811 645.912,-13.6729 655.428,-18.3319 656.256,-11.3811"/>
</g>
<!-- Node12 -->
<g id="node12" class="node"><title>Node12</title>
<polygon fill="white" stroke="#bfbfbf" points="794.876,-56.5 794.876,-75.5 843.876,-75.5 843.876,-56.5 794.876,-56.5"/>
<text text-anchor="middle" x="819.376" y="-63.5" font-family="Helvetica,sans-Serif" font-size="10.00">dirent.h</text>
</g>
<!-- Node1&#45;&gt;Node12 -->
<g id="edge11" class="edge"><title>Node1&#45;&gt;Node12</title>
<path fill="none" stroke="midnightblue" d="M674.05,-168.481C681.573,-151.557 694.516,-127.423 712.376,-112 733.142,-94.0675 762.084,-82.4812 784.632,-75.5629"/>
<polygon fill="midnightblue" stroke="midnightblue" points="785.859,-78.8515 794.49,-72.7067 783.911,-72.128 785.859,-78.8515"/>
</g>
<!-- Node13 -->
<g id="node13" class="node"><title>Node13</title>
<polygon fill="white" stroke="#bfbfbf" points="615.876,-112.5 615.876,-131.5 664.876,-131.5 664.876,-112.5 615.876,-112.5"/>
<text text-anchor="middle" x="640.376" y="-119.5" font-family="Helvetica,sans-Serif" font-size="10.00">ctype.h</text>
</g>
<!-- Node1&#45;&gt;Node13 -->
<g id="edge12" class="edge"><title>Node1&#45;&gt;Node13</title>
<path fill="none" stroke="midnightblue" d="M658.575,-168.498C655.087,-159.778 651.001,-149.563 647.585,-141.024"/>
<polygon fill="midnightblue" stroke="midnightblue" points="650.8,-139.637 643.837,-131.652 644.301,-142.237 650.8,-139.637"/>
</g>
<!-- Node14 -->
<g id="node14" class="node"><title>Node14</title>
<polygon fill="white" stroke="#bfbfbf" points="1123.38,-56.5 1123.38,-75.5 1195.38,-75.5 1195.38,-56.5 1123.38,-56.5"/>
<text text-anchor="middle" x="1159.38" y="-63.5" font-family="Helvetica,sans-Serif" font-size="10.00">gsl/gsl_rng.h</text>
</g>
<!-- Node1&#45;&gt;Node14 -->
<g id="edge13" class="edge"><title>Node1&#45;&gt;Node14</title>
<path fill="none" stroke="midnightblue" d="M723.322,-186.127C852.618,-181.289 1159.57,-166.277 1190.38,-132 1203.09,-117.853 1189.74,-97.5639 1176.82,-83.4295"/>
<polygon fill="midnightblue" stroke="midnightblue" points="1178.96,-80.6092 1169.46,-75.9116 1173.96,-85.506 1178.96,-80.6092"/>
</g>
<!-- Node15 -->
<g id="node15" class="node"><title>Node15</title>
<polygon fill="white" stroke="#bfbfbf" points="721.876,-112.5 721.876,-131.5 768.876,-131.5 768.876,-112.5 721.876,-112.5"/>
<text text-anchor="middle" x="745.376" y="-119.5" font-family="Helvetica,sans-Serif" font-size="10.00">errno.h</text>
</g>
<!-- Node1&#45;&gt;Node15 -->
<g id="edge14" class="edge"><title>Node1&#45;&gt;Node15</title>
<path fill="none" stroke="midnightblue" d="M690.078,-168.498C701.958,-158.724 716.119,-147.072 727.137,-138.007"/>
<polygon fill="midnightblue" stroke="midnightblue" points="729.361,-140.709 734.86,-131.652 724.914,-135.303 729.361,-140.709"/>
</g>
<!-- Node16 -->
<g id="node16" class="node"><title>Node16</title>
<polygon fill="white" stroke="#bfbfbf" points="787.376,-112.5 787.376,-131.5 831.376,-131.5 831.376,-112.5 787.376,-112.5"/>
<text text-anchor="middle" x="809.376" y="-119.5" font-family="Helvetica,sans-Serif" font-size="10.00">float.h</text>
</g>
<!-- Node1&#45;&gt;Node16 -->
<g id="edge15" class="edge"><title>Node1&#45;&gt;Node16</title>
<path fill="none" stroke="midnightblue" d="M709.28,-168.498C732.575,-157.909 760.719,-145.117 781.223,-135.797"/>
<polygon fill="midnightblue" stroke="midnightblue" points="782.685,-138.977 790.34,-131.652 779.788,-132.604 782.685,-138.977"/>
</g>
<!-- Node17 -->
<g id="node17" class="node"><title>Node17</title>
<polygon fill="white" stroke="#bfbfbf" points="849.376,-112.5 849.376,-131.5 893.376,-131.5 893.376,-112.5 849.376,-112.5"/>
<text text-anchor="middle" x="871.376" y="-119.5" font-family="Helvetica,sans-Serif" font-size="10.00">omp.h</text>
</g>
<!-- Node1&#45;&gt;Node17 -->
<g id="edge16" class="edge"><title>Node1&#45;&gt;Node17</title>
<path fill="none" stroke="midnightblue" d="M722.936,-170.066C760.415,-158.183 808.228,-143.023 839.309,-133.167"/>
<polygon fill="midnightblue" stroke="midnightblue" points="840.695,-136.4 849.169,-130.041 838.579,-129.727 840.695,-136.4"/>
</g>
<!-- Node18 -->
<g id="node18" class="node"><title>Node18</title>
<polygon fill="white" stroke="#bfbfbf" points="797.876,-0.5 797.876,-19.5 846.876,-19.5 846.876,-0.5 797.876,-0.5"/>
<text text-anchor="middle" x="822.376" y="-7.5" font-family="Helvetica,sans-Serif" font-size="10.00">stdint.h</text>
</g>
<!-- Node1&#45;&gt;Node18 -->
<g id="edge17" class="edge"><title>Node1&#45;&gt;Node18</title>
<path fill="none" stroke="midnightblue" d="M723.049,-188.249C848.042,-187.864 1142.97,-181.564 1227.38,-132 1253.53,-116.642 1257.29,-104.938 1266.38,-76 1269.04,-67.5191 1272.34,-62.5947 1266.38,-56 1262.93,-52.1924 960.786,-23.8383 856.954,-14.1976"/>
<polygon fill="midnightblue" stroke="midnightblue" points="857.259,-10.711 846.978,-13.2723 856.612,-17.681 857.259,-10.711"/>
</g>
<!-- Node19 -->
<g id="node19" class="node"><title>Node19</title>
<polygon fill="white" stroke="#bfbfbf" points="932.376,-0.5 932.376,-19.5 988.376,-19.5 988.376,-0.5 932.376,-0.5"/>
<text text-anchor="middle" x="960.376" y="-7.5" font-family="Helvetica,sans-Serif" font-size="10.00">stdbool.h</text>
</g>
<!-- Node1&#45;&gt;Node19 -->
<g id="edge18" class="edge"><title>Node1&#45;&gt;Node19</title>
<path fill="none" stroke="midnightblue" d="M722.978,-185.653C861.439,-179.481 1209.11,-161.23 1252.38,-132 1282.33,-111.762 1305.1,-83.2811 1281.38,-56 1279.06,-53.3376 1083.21,-27.2087 998.603,-16.0308"/>
<polygon fill="midnightblue" stroke="midnightblue" points="998.99,-12.5518 988.618,-14.713 998.074,-19.4916 998.99,-12.5518"/>
</g>
<!-- Node20 -->
<g id="node20" class="node"><title>Node20</title>
<polygon fill="white" stroke="#bfbfbf" points="1035.88,-112.5 1035.88,-131.5 1094.88,-131.5 1094.88,-112.5 1035.88,-112.5"/>
<text text-anchor="middle" x="1065.38" y="-119.5" font-family="Helvetica,sans-Serif" font-size="10.00">inttypes.h</text>
</g>
<!-- Node1&#45;&gt;Node20 -->
<g id="edge19" class="edge"><title>Node1&#45;&gt;Node20</title>
<path fill="none" stroke="midnightblue" d="M723.074,-179.865C793.263,-169.609 916.389,-151.008 1021.38,-132 1022.81,-131.74 1024.28,-131.469 1025.76,-131.191"/>
<polygon fill="midnightblue" stroke="midnightblue" points="1026.44,-134.624 1035.59,-129.283 1025.11,-127.752 1026.44,-134.624"/>
</g>
<!-- Node21 -->
<g id="node21" class="node"><title>Node21</title>
<g id="a_node21"><a xlink:href="global_8h.html" target="_top" xlink:title="global.h">
<polygon fill="white" stroke="black" points="579.376,-56.5 579.376,-75.5 629.376,-75.5 629.376,-56.5 579.376,-56.5"/>
<text text-anchor="middle" x="604.376" y="-63.5" font-family="Helvetica,sans-Serif" font-size="10.00">global.h</text>
</a>
</g>
</g>
<!-- Node1&#45;&gt;Node21 -->
<g id="edge20" class="edge"><title>Node1&#45;&gt;Node21</title>
<path fill="none" stroke="midnightblue" d="M636.715,-168.321C625.048,-158.849 612.902,-146.407 606.376,-132 599.825,-117.538 599.868,-99.3506 601.237,-85.8947"/>
<polygon fill="midnightblue" stroke="midnightblue" points="604.718,-86.2678 602.583,-75.8903 597.78,-85.3341 604.718,-86.2678"/>
</g>
<!-- Node22 -->
<g id="node22" class="node"><title>Node22</title>
<g id="a_node22"><a xlink:href="utils_8h.html" target="_top" xlink:title="utils.h">
<polygon fill="white" stroke="black" points="1213.88,-56.5 1213.88,-75.5 1256.88,-75.5 1256.88,-56.5 1213.88,-56.5"/>
<text text-anchor="middle" x="1235.38" y="-63.5" font-family="Helvetica,sans-Serif" font-size="10.00">utils.h</text>
</a>
</g>
</g>
<!-- Node1&#45;&gt;Node22 -->
<g id="edge27" class="edge"><title>Node1&#45;&gt;Node22</title>
<path fill="none" stroke="midnightblue" d="M723.176,-185.305C853.903,-178.652 1167.84,-159.936 1206.38,-132 1221.35,-121.145 1228.73,-100.765 1232.27,-85.7072"/>
<polygon fill="midnightblue" stroke="midnightblue" points="1235.71,-86.3879 1234.23,-75.8962 1228.84,-85.0179 1235.71,-86.3879"/>
</g>
<!-- Node23 -->
<g id="node23" class="node"><title>Node23</title>
<g id="a_node23"><a xlink:href="read__conf_8h.html" target="_top" xlink:title="read_conf.h">
<polygon fill="white" stroke="black" points="1113.38,-112.5 1113.38,-131.5 1181.38,-131.5 1181.38,-112.5 1113.38,-112.5"/>
<text text-anchor="middle" x="1147.38" y="-119.5" font-family="Helvetica,sans-Serif" font-size="10.00">read_conf.h</text>
</a>
</g>
</g>
<!-- Node1&#45;&gt;Node23 -->
<g id="edge28" class="edge"><title>Node1&#45;&gt;Node23</title>
<path fill="none" stroke="midnightblue" d="M722.937,-182.216C804.632,-173.543 960.583,-155.791 1102.93,-132.131"/>
<polygon fill="midnightblue" stroke="midnightblue" points="1103.87,-135.522 1113.15,-130.417 1102.71,-128.619 1103.87,-135.522"/>
</g>
<!-- Node26 -->
<g id="node26" class="node"><title>Node26</title>
<g id="a_node26"><a xlink:href="ener__cache_8h.html" target="_top" xlink:title="ener_cache.h">
<polygon fill="white" stroke="black" points="483.876,-112.5 483.876,-131.5 558.876,-131.5 558.876,-112.5 483.876,-112.5"/>
<text text-anchor="middle" x="521.376" y="-119.5" font-family="Helvetica,sans-Serif" font-size="10.00">ener_cache.h</text>
</a>
</g>
</g>
<!-- Node1&#45;&gt;Node26 -->
<g id="edge34" class="edge"><title>Node1&#45;&gt;Node26</title>
<path fill="none" stroke="midnightblue" d="M622.871,-168.498C599.25,-157.909 570.713,-145.117 549.922,-135.797"/>
<polygon fill="midnightblue" stroke="midnightblue" points="551.234,-132.549 540.677,-131.652 548.371,-138.937 551.234,-132.549"/>
</g>
<!-- Node27 -->
<g id="node27" class="node"><title>Node27</title>
<g id="a_node27"><a xlink:href="read__ener_8h.html" target="_top" xlink:title="read_ener.h">
<polygon fill="white" stroke="black" points="911.376,-112.5 911.376,-131.5 979.376,-131.5 979.376,-112.5 911.376,-112.5"/>
<text text-anchor="middle" x="945.376" y="-119.5" font-family="Helvetica,sans-Serif" font-size="10.00">read_ener.h</text>
</a>
</g>
</g>
<!-- Node1&#45;&gt;Node27 -->
<g id="edge36" class="edge"><title>Node1&#45;&gt;Node27</title>
<path fill="none" stroke="midnightblue" d="M723.172,-174.768C775.828,-162.5 853.09,-144.5 901.251,-133.28"/>
<polygon fill="midnightblue" stroke="midnightblue" points="902.123,-136.671 911.068,-130.993 900.534,-129.853 902.123,-136.671"/>
</g>
<!-- Node21&#45;&gt;Node2 -->
<g id="edge22" class="edge"><title>Node21&#45;&gt;Node2</title>
<path fill="none" stroke="midnightblue" d="M579.192,-62.1728C498.681,-53.1341 247.514,-24.9365 156.626,-14.7329"/>
<polygon fill="midnightblue" stroke="midnightblue" points="156.933,-11.2454 146.604,-13.6078 156.152,-18.2017 156.933,-11.2454"/>
</g>
<!-- Node21&#45;&gt;Node3 -->
<g id="edge23" class="edge"><title>Node21&#45;&gt;Node3</title>
<path fill="none" stroke="midnightblue" d="M579.274,-60.0166C530.347,-50.3032 422.169,-28.8267 366.676,-17.8097"/>
<polygon fill="midnightblue" stroke="midnightblue" points="367.124,-14.3302 356.633,-15.8159 365.76,-21.1962 367.124,-14.3302"/>
</g>
<!-- Node21&#45;&gt;Node9 -->
<g id="edge21" class="edge"><title>Node21&#45;&gt;Node9</title>
<path fill="none" stroke="midnightblue" d="M583.143,-56.4435C560.992,-47.5171 526.057,-33.4387 500.94,-23.3168"/>
<polygon fill="midnightblue" stroke="midnightblue" points="502.092,-20.0079 491.509,-19.5164 499.476,-26.5006 502.092,-20.0079"/>
</g>
<!-- Node21&#45;&gt;Node11 -->
<g id="edge24" class="edge"><title>Node21&#45;&gt;Node11</title>
<path fill="none" stroke="midnightblue" d="M607.183,-56.083C609.46,-48.8486 612.747,-38.4087 615.584,-29.3968"/>
<polygon fill="midnightblue" stroke="midnightblue" points="618.956,-30.3406 618.621,-19.7511 612.279,-28.2385 618.956,-30.3406"/>
</g>
<!-- Node21&#45;&gt;Node18 -->
<g id="edge25" class="edge"><title>Node21&#45;&gt;Node18</title>
<path fill="none" stroke="midnightblue" d="M629.383,-58.8055C668.396,-49.1418 743.832,-30.4558 787.952,-19.527"/>
<polygon fill="midnightblue" stroke="midnightblue" points="788.795,-22.924 797.66,-17.1222 787.112,-16.1294 788.795,-22.924"/>
</g>
<!-- Node21&#45;&gt;Node19 -->
<g id="edge26" class="edge"><title>Node21&#45;&gt;Node19</title>
<path fill="none" stroke="midnightblue" d="M629.409,-61.2028C690.654,-51.9129 848.38,-27.9882 921.761,-16.8573"/>
<polygon fill="midnightblue" stroke="midnightblue" points="922.592,-20.2713 931.954,-15.3111 921.543,-13.3505 922.592,-20.2713"/>
</g>
<!-- Node23&#45;&gt;Node14 -->
<g id="edge29" class="edge"><title>Node23&#45;&gt;Node14</title>
<path fill="none" stroke="midnightblue" d="M1149.36,-112.083C1150.95,-104.927 1153.23,-94.6353 1155.22,-85.6911"/>
<polygon fill="midnightblue" stroke="midnightblue" points="1158.68,-86.2722 1157.43,-75.7511 1151.84,-84.7537 1158.68,-86.2722"/>
</g>
<!-- Node23&#45;&gt;Node21 -->
<g id="edge32" class="edge"><title>Node23&#45;&gt;Node21</title>
<path fill="none" stroke="midnightblue" d="M1113.17,-113.466C1110.21,-112.926 1107.24,-112.427 1104.38,-112 930.951,-86.1368 721.311,-73.1323 639.481,-68.7488"/>
<polygon fill="midnightblue" stroke="midnightblue" points="639.641,-65.2525 629.471,-68.2217 639.273,-72.2428 639.641,-65.2525"/>
</g>
<!-- Node23&#45;&gt;Node22 -->
<g id="edge33" class="edge"><title>Node23&#45;&gt;Node22</title>
<path fill="none" stroke="midnightblue" d="M1161.51,-112.324C1175.24,-103.9 1196.31,-90.9709 1212.44,-81.0741"/>
<polygon fill="midnightblue" stroke="midnightblue" points="1214.58,-83.8678 1221.27,-75.6545 1210.92,-77.9016 1214.58,-83.8678"/>
</g>
<!-- Node24 -->
<g id="node24" class="node"><title>Node24</title>
<g id="a_node24"><a xlink:href="backbone_8h.html" target="_top" xlink:title="backbone.h">
<polygon fill="white" stroke="black" points="1036.88,-56.5 1036.88,-75.5 1103.88,-75.5 1103.88,-56.5 1036.88,-56.5"/>
<text text-anchor="middle" x="1070.38" y="-63.5" font-family="Helvetica,sans-Serif" font-size="10.00">backbone.h</text>
</a>
</g>
</g>
<!-- Node23&#45;&gt;Node24 -->
<g id="edge30" class="edge"><title>Node23&#45;&gt;Node24</title>
<path fill="none" stroke="midnightblue" d="M1135,-112.324C1123.22,-104.058 1105.24,-91.4527 1091.24,-81.6322"/>
<polygon fill="midnightblue" stroke="midnightblue" points="1092.91,-78.5307 1082.72,-75.6545 1088.89,-84.2619 1092.91,-78.5307"/>
</g>
<!-- Node25 -->
<g id="node25" class="node"><title>Node25</title>
<g id="a_node25"><a xlink:href="residues_8h.html" target="_top" xlink:title="residues.h">
<polygon fill="white" stroke="black" points="1039.38,-0.5 1039.38,-19.5 1101.38,-19.5 1101.38,-0.5 1039.38,-0.5"/>
<text text-anchor="middle" x="1070.38" y="-7.5" font-family="Helvetica,sans-Serif" font-size="10.00">residues.h</text>
</a>
</g>
</g>
<!-- Node24&#45;&gt;Node25 -->
<g id="edge31" class="edge"><title>Node24&#45;&gt;Node25</title>
<path fill="none" stroke="midnightblue" d="M1070.38,-56.083C1070.38,-49.0059 1070.38,-38.8611 1070.38,-29.9865"/>
<polygon fill="midnightblue" stroke="midnightblue" points="1073.88,-29.751 1070.38,-19.7511 1066.88,-29.7511 1073.88,-29.751"/>
</g>
<!-- Node26&#45;&gt;Node21 -->
<g id="edge35" class="edge"><title>Node26&#45;&gt;Node21</title>
<path fill="none" stroke="midnightblue" d="M534.711,-112.324C547.538,-103.979 567.161,-91.2122 582.315,-81.3524"/>
<polygon fill="midnightblue" stroke="midnightblue" points="584.6,-84.0417 591.073,-75.6545 580.783,-78.1742 584.6,-84.0417"/>
</g>
<!-- Node27&#45;&gt;Node12 -->
<g id="edge37" class="edge"><title>Node27&#45;&gt;Node12</title>
<path fill="none" stroke="midnightblue" d="M925.411,-112.444C904.767,-103.596 872.313,-89.6875 848.744,-79.5865"/>
<polygon fill="midnightblue" stroke="midnightblue" points="849.818,-76.2387 839.247,-75.5164 847.06,-82.6727 849.818,-76.2387"/>
</g>
<!-- Node27&#45;&gt;Node21 -->
<g id="edge38" class="edge"><title>Node27&#45;&gt;Node21</title>
<path fill="none" stroke="midnightblue" d="M911.142,-113.653C908.181,-113.073 905.228,-112.513 902.376,-112 807.798,-94.9755 695.543,-79.2169 639.655,-71.6705"/>
<polygon fill="midnightblue" stroke="midnightblue" points="639.949,-68.1786 629.572,-70.3156 639.017,-75.1162 639.949,-68.1786"/>
</g>
<!-- Node27&#45;&gt;Node24 -->
<g id="edge39" class="edge"><title>Node27&#45;&gt;Node24</title>
<path fill="none" stroke="midnightblue" d="M965.182,-112.444C985.663,-103.596 1017.86,-89.6875 1041.24,-79.5865"/>
<polygon fill="midnightblue" stroke="midnightblue" points="1042.87,-82.6953 1050.66,-75.5164 1040.09,-76.2692 1042.87,-82.6953"/>
</g>
</g>
</svg>
        <g id="navigator" transform="translate(0 0)" fill="#404254">
                <rect fill="#f2f5e9" fill-opacity="0.5" stroke="#606060" stroke-width=".5" x="0" y="0" width="60" height="60"/>
                <use id="zoomplus" xlink:href="#zoomPlus" x="17" y="9" onmousedown="handleZoom(evt,'in')"/>
                <use id="zoomminus" xlink:href="#zoomMin" x="42" y="9" onmousedown="handleZoom(evt,'out')"/>
                <use id="reset" xlink:href="#resetDef" x="30" y="36" onmousedown="handleReset()"/>
                <g id="arrowUp" xlink:href="#dirArrow" transform="translate(30 24)" onmousedown="handlePan(0,-1)">
                  <use xlink:href="#rim" fill="#404040">
                        <set attributeName="fill" to="#808080" begin="arrowUp.mouseover" end="arrowUp.mouseout"/>
                  </use>
                  <path fill="none" stroke="white" stroke-width="1.5" d="M0,-3.0v7 M-2.5,-0.5L0,-3.0L2.5,-0.5"/>
                </g>
                <g id="arrowRight" xlink:href="#dirArrow" transform="rotate(90) translate(36 -43)" onmousedown="handlePan(1,0)">
                  <use xlink:href="#rim" fill="#404040">
                        <set attributeName="fill" to="#808080" begin="arrowRight.mouseover" end="arrowRight.mouseout"/>
                  </use>
                  <path fill="none" stroke="white" stroke-width="1.5" d="M0,-3.0v7 M-2.5,-0.5L0,-3.0L2.5,-0.5"/>
                </g>
                <g id="arrowDown" xlink:href="#dirArrow" transform="rotate(180) translate(-30 -48)" onmousedown="handlePan(0,1)">
                  <use xlink:href="#rim" fill="#404040">
                        <set attributeName="fill" to="#808080" begin="arrowDown.mouseover" end="arrowDown.mouseout"/>
                  </use>
                  <path fill="none" stroke="white" stroke-width="1.5" d="M0,-3.0v7 M-2.5,-0.5L0,-3.0L2.5,-0.5"/>
                </g>
                <g id="arrowLeft" xlink:href="#dirArrow" transform="rotate(270) translate(-36 17)" onmousedown="handlePan(-1,0)">
                  <use xlink:href="#rim" fill="#404040">
                        <set attributeName="fill" to="#808080" begin="arrowLeft.mouseover" end="arrowLeft.mouseout"/>
                  </use>
                  <path fill="none" stroke="white" stroke-width="1.5" d="M0,-3.0v7 M-2.5,-0.5L0,-3.0L2.5,-0.5"/>
                </g>
        </g>
        <svg viewBox="0 0 15 15" width="100%" height="30px" preserveAspectRatio="xMaxYMin meet">
         <g id="arrow_out" transform="scale(0.3 0.3)">
          <a xlink:href="proteus_8c__incl_org.svg" target="_base">
           <rect id="button" ry="5" rx="5" y="6" x="6" height="38" width="38"
                fill="#f2f5e9" fill-opacity="0.5" stroke="#606060" stroke-width="1.0"/>
           <path id="arrow"
             d="M 11.500037,31.436501 C 11.940474,20.09759 22.043105,11.32322 32.158766,21.979434 L 37.068811,17.246167 C 37.068811,17.246167 37.088388,32 37.088388,32 L 22.160133,31.978069 C 22.160133,31.978069 26.997745,27.140456 26.997745,27.140456 C 18.528582,18.264221 13.291696,25.230495 11.500037,31.436501 z"
             style="fill:#404040;"/>
          </a>
         </g>
        </svg>
</svg>
