<?xml version="1.0" encoding="UTF-8" standalone="no"?>
<!DOCTYPE svg PUBLIC "-//W3C//DTD SVG 1.1//EN"
 "http://www.w3.org/Graphics/SVG/1.1/DTD/svg11.dtd">
<!-- Generated by graphviz version 2.38.0 (20140413.2041)
 -->
<!-- Title: /home/mignon/bioinfo/proteus/gitlab/proteus/read_ener.c Pages: 1 -->
<!--zoomable 218 -->
<svg id="main" version="1.1" xmlns="http://www.w3.org/2000/svg" xmlns:xlink="http://www.w3.org/1999/xlink" xml:space="preserve" onload="init(evt)">
<style type="text/css"><![CDATA[
.edge:hover path { stroke: red; }
.edge:hover polygon { stroke: red; fill: red; }
]]></style>
<script type="text/javascript"><![CDATA[
var edges = document.getElementsByTagName('g');
if (edges && edges.length) {
  for (var i=0;i<edges.length;i++) {
    if (edges[i].id.substr(0,4)=='edge') {
      edges[i].setAttribute('class','edge');
    }
  }
}
]]></script>
        <defs>
                <circle id="rim" cx="0" cy="0" r="7"/>
                <circle id="rim2" cx="0" cy="0" r="3.5"/>
                <g id="zoomPlus">
                        <use xlink:href="#rim" fill="#404040">
                                <set attributeName="fill" to="#808080" begin="zoomplus.mouseover" end="zoomplus.mouseout"/>
                        </use>
                        <path d="M-4,0h8M0,-4v8" fill="none" stroke="white" stroke-width="1.5" pointer-events="none"/>
                </g>
                <g id="zoomMin">
                        <use xlink:href="#rim" fill="#404040">
                                <set attributeName="fill" to="#808080" begin="zoomminus.mouseover" end="zoomminus.mouseout"/>
                        </use>
                        <path d="M-4,0h8" fill="none" stroke="white" stroke-width="1.5" pointer-events="none"/>
                </g>
                <g id="dirArrow">
                        <path fill="none" stroke="white" stroke-width="1.5" d="M0,-3.0v7 M-2.5,-0.5L0,-3.0L2.5,-0.5"/>
                </g>
               <g id="resetDef">
                       <use xlink:href="#rim2" fill="#404040">
                               <set attributeName="fill" to="#808080" begin="reset.mouseover" end="reset.mouseout"/>
                       </use>
               </g>
        </defs>

<script type="text/javascript">
var viewWidth = 597;
var viewHeight = 218;
var sectionId = 'dynsection-0';
</script>
<script xlink:href="svgpan.js"/>
<svg id="graph" class="graph">
<g id="viewport">
<title>/home/mignon/bioinfo/proteus/gitlab/proteus/read_ener.c</title>
<polygon fill="white" stroke="none" points="-4,4 -4,-214 593,-214 593,4 -4,4"/>
<!-- Node1 -->
<g id="node1" class="node"><title>Node1</title>
<polygon fill="#bfbfbf" stroke="black" points="238.5,-168.5 238.5,-209.5 351.5,-209.5 351.5,-168.5 238.5,-168.5"/>
<text text-anchor="start" x="246.5" y="-197.5" font-family="Helvetica,sans-Serif" font-size="10.00">/home/mignon/bioinfo</text>
<text text-anchor="start" x="246.5" y="-186.5" font-family="Helvetica,sans-Serif" font-size="10.00">/proteus/gitlab/proteus</text>
<text text-anchor="middle" x="295" y="-175.5" font-family="Helvetica,sans-Serif" font-size="10.00">/read_ener.c</text>
</g>
<!-- Node2 -->
<g id="node2" class="node"><title>Node2</title>
<polygon fill="white" stroke="#bfbfbf" points="0,-0.5 0,-19.5 46,-19.5 46,-0.5 0,-0.5"/>
<text text-anchor="middle" x="23" y="-7.5" font-family="Helvetica,sans-Serif" font-size="10.00">stdio.h</text>
</g>
<!-- Node1&#45;&gt;Node2 -->
<g id="edge1" class="edge"><title>Node1&#45;&gt;Node2</title>
<path fill="none" stroke="midnightblue" d="M238.278,-177.356C203.714,-168.97 159.839,-154.794 126,-132 84.4082,-103.984 49.9502,-54.7469 33.4654,-28.551"/>
<polygon fill="midnightblue" stroke="midnightblue" points="36.2653,-26.4219 28.0501,-19.7316 30.3001,-30.0848 36.2653,-26.4219"/>
</g>
<!-- Node3 -->
<g id="node3" class="node"><title>Node3</title>
<polygon fill="white" stroke="#bfbfbf" points="64,-0.5 64,-19.5 112,-19.5 112,-0.5 64,-0.5"/>
<text text-anchor="middle" x="88" y="-7.5" font-family="Helvetica,sans-Serif" font-size="10.00">stdlib.h</text>
</g>
<!-- Node1&#45;&gt;Node3 -->
<g id="edge2" class="edge"><title>Node1&#45;&gt;Node3</title>
<path fill="none" stroke="midnightblue" d="M238.437,-170.036C213.07,-160.666 183.429,-147.83 159,-132 128.66,-112.34 117.238,-107.779 100,-76 92.2201,-61.6576 89.3805,-43.1954 88.3934,-29.6143"/>
<polygon fill="midnightblue" stroke="midnightblue" points="91.8865,-29.381 87.9321,-19.5518 84.8938,-29.7016 91.8865,-29.381"/>
</g>
<!-- Node4 -->
<g id="node4" class="node"><title>Node4</title>
<polygon fill="white" stroke="#bfbfbf" points="338.5,-0.5 338.5,-19.5 387.5,-19.5 387.5,-0.5 338.5,-0.5"/>
<text text-anchor="middle" x="363" y="-7.5" font-family="Helvetica,sans-Serif" font-size="10.00">string.h</text>
</g>
<!-- Node1&#45;&gt;Node4 -->
<g id="edge3" class="edge"><title>Node1&#45;&gt;Node4</title>
<path fill="none" stroke="midnightblue" d="M351.697,-170.241C394.284,-153.491 449.34,-123.708 474,-76 478.082,-68.1036 478.966,-63.3722 474,-56 465.037,-42.6941 426.55,-29.0793 397.388,-20.3623"/>
<polygon fill="midnightblue" stroke="midnightblue" points="398.105,-16.9259 387.526,-17.4918 396.149,-23.647 398.105,-16.9259"/>
</g>
<!-- Node5 -->
<g id="node5" class="node"><title>Node5</title>
<polygon fill="white" stroke="#bfbfbf" points="521,-112.5 521,-131.5 589,-131.5 589,-112.5 521,-112.5"/>
<text text-anchor="middle" x="555" y="-119.5" font-family="Helvetica,sans-Serif" font-size="10.00">sys/types.h</text>
</g>
<!-- Node1&#45;&gt;Node5 -->
<g id="edge4" class="edge"><title>Node1&#45;&gt;Node5</title>
<path fill="none" stroke="midnightblue" d="M351.737,-173.816C399.561,-161.86 467.026,-144.994 510.886,-134.029"/>
<polygon fill="midnightblue" stroke="midnightblue" points="511.833,-137.4 520.685,-131.579 510.135,-130.609 511.833,-137.4"/>
</g>
<!-- Node6 -->
<g id="node6" class="node"><title>Node6</title>
<g id="a_node6"><a xlink:href="read__ener_8h.html" target="_top" xlink:title="read_ener.h">
<polygon fill="white" stroke="black" points="168,-112.5 168,-131.5 236,-131.5 236,-112.5 168,-112.5"/>
<text text-anchor="middle" x="202" y="-119.5" font-family="Helvetica,sans-Serif" font-size="10.00">read_ener.h</text>
</a>
</g>
</g>
<!-- Node1&#45;&gt;Node6 -->
<g id="edge5" class="edge"><title>Node1&#45;&gt;Node6</title>
<path fill="none" stroke="midnightblue" d="M267.097,-168.498C252.838,-158.532 235.787,-146.614 222.712,-137.476"/>
<polygon fill="midnightblue" stroke="midnightblue" points="224.581,-134.512 214.38,-131.652 220.571,-140.25 224.581,-134.512"/>
</g>
<!-- Node8 -->
<g id="node8" class="node"><title>Node8</title>
<g id="a_node8"><a xlink:href="global_8h.html" target="_top" xlink:title="global.h">
<polygon fill="white" stroke="black" points="177,-56.5 177,-75.5 227,-75.5 227,-56.5 177,-56.5"/>
<text text-anchor="middle" x="202" y="-63.5" font-family="Helvetica,sans-Serif" font-size="10.00">global.h</text>
</a>
</g>
</g>
<!-- Node1&#45;&gt;Node8 -->
<g id="edge16" class="edge"><title>Node1&#45;&gt;Node8</title>
<path fill="none" stroke="midnightblue" d="M283.389,-168.278C273.799,-152.528 259.459,-130.165 245,-112 236.84,-101.749 226.764,-91.1136 218.417,-82.7576"/>
<polygon fill="midnightblue" stroke="midnightblue" points="220.649,-80.0439 211.063,-75.5315 215.743,-85.0369 220.649,-80.0439"/>
</g>
<!-- Node14 -->
<g id="node14" class="node"><title>Node14</title>
<g id="a_node14"><a xlink:href="utils_8h.html" target="_top" xlink:title="utils.h">
<polygon fill="white" stroke="black" points="421.5,-56.5 421.5,-75.5 464.5,-75.5 464.5,-56.5 421.5,-56.5"/>
<text text-anchor="middle" x="443" y="-63.5" font-family="Helvetica,sans-Serif" font-size="10.00">utils.h</text>
</a>
</g>
</g>
<!-- Node1&#45;&gt;Node14 -->
<g id="edge17" class="edge"><title>Node1&#45;&gt;Node14</title>
<path fill="none" stroke="midnightblue" d="M322.081,-168.245C336.249,-157.725 353.769,-144.425 369,-132 388.937,-115.736 411.002,-96.1353 425.806,-82.739"/>
<polygon fill="midnightblue" stroke="midnightblue" points="428.569,-84.9578 433.613,-75.6406 423.859,-79.7788 428.569,-84.9578"/>
</g>
<!-- Node15 -->
<g id="node15" class="node"><title>Node15</title>
<g id="a_node15"><a xlink:href="read__conf_8h.html" target="_top" xlink:title="read_conf.h">
<polygon fill="white" stroke="black" points="292,-112.5 292,-131.5 360,-131.5 360,-112.5 292,-112.5"/>
<text text-anchor="middle" x="326" y="-119.5" font-family="Helvetica,sans-Serif" font-size="10.00">read_conf.h</text>
</a>
</g>
</g>
<!-- Node1&#45;&gt;Node15 -->
<g id="edge18" class="edge"><title>Node1&#45;&gt;Node15</title>
<path fill="none" stroke="midnightblue" d="M304.301,-168.498C308.505,-159.682 313.439,-149.339 317.538,-140.743"/>
<polygon fill="midnightblue" stroke="midnightblue" points="320.728,-142.185 321.873,-131.652 314.41,-139.172 320.728,-142.185"/>
</g>
<!-- Node7 -->
<g id="node7" class="node"><title>Node7</title>
<polygon fill="white" stroke="#bfbfbf" points="109.5,-56.5 109.5,-75.5 158.5,-75.5 158.5,-56.5 109.5,-56.5"/>
<text text-anchor="middle" x="134" y="-63.5" font-family="Helvetica,sans-Serif" font-size="10.00">dirent.h</text>
</g>
<!-- Node6&#45;&gt;Node7 -->
<g id="edge6" class="edge"><title>Node6&#45;&gt;Node7</title>
<path fill="none" stroke="midnightblue" d="M191.075,-112.324C180.825,-104.185 165.279,-91.8395 152.999,-82.0874"/>
<polygon fill="midnightblue" stroke="midnightblue" points="155.132,-79.3119 145.124,-75.8339 150.779,-84.7937 155.132,-79.3119"/>
</g>
<!-- Node6&#45;&gt;Node8 -->
<g id="edge7" class="edge"><title>Node6&#45;&gt;Node8</title>
<path fill="none" stroke="midnightblue" d="M202,-112.083C202,-105.006 202,-94.8611 202,-85.9865"/>
<polygon fill="midnightblue" stroke="midnightblue" points="205.5,-85.751 202,-75.7511 198.5,-85.7511 205.5,-85.751"/>
</g>
<!-- Node12 -->
<g id="node12" class="node"><title>Node12</title>
<g id="a_node12"><a xlink:href="backbone_8h.html" target="_top" xlink:title="backbone.h">
<polygon fill="white" stroke="black" points="245.5,-56.5 245.5,-75.5 312.5,-75.5 312.5,-56.5 245.5,-56.5"/>
<text text-anchor="middle" x="279" y="-63.5" font-family="Helvetica,sans-Serif" font-size="10.00">backbone.h</text>
</a>
</g>
</g>
<!-- Node6&#45;&gt;Node12 -->
<g id="edge14" class="edge"><title>Node6&#45;&gt;Node12</title>
<path fill="none" stroke="midnightblue" d="M214.371,-112.324C226.158,-104.058 244.132,-91.4527 258.136,-81.6322"/>
<polygon fill="midnightblue" stroke="midnightblue" points="260.482,-84.2619 266.659,-75.6545 256.462,-78.5307 260.482,-84.2619"/>
</g>
<!-- Node8&#45;&gt;Node2 -->
<g id="edge9" class="edge"><title>Node8&#45;&gt;Node2</title>
<path fill="none" stroke="midnightblue" d="M176.733,-57.3776C145.069,-47.8254 90.7346,-31.4339 55.866,-20.9149"/>
<polygon fill="midnightblue" stroke="midnightblue" points="56.7344,-17.5211 46.1497,-17.9837 54.7126,-24.2228 56.7344,-17.5211"/>
</g>
<!-- Node8&#45;&gt;Node3 -->
<g id="edge10" class="edge"><title>Node8&#45;&gt;Node3</title>
<path fill="none" stroke="midnightblue" d="M183.936,-56.4435C165.425,-47.6751 136.419,-33.9355 115.145,-23.8579"/>
<polygon fill="midnightblue" stroke="midnightblue" points="116.515,-20.6343 105.979,-19.5164 113.518,-26.9604 116.515,-20.6343"/>
</g>
<!-- Node8&#45;&gt;Node4 -->
<g id="edge11" class="edge"><title>Node8&#45;&gt;Node4</title>
<path fill="none" stroke="midnightblue" d="M227.156,-56.5625C254.41,-47.4214 298.068,-32.7784 328.51,-22.568"/>
<polygon fill="midnightblue" stroke="midnightblue" points="329.917,-25.788 338.285,-19.2897 327.691,-19.1513 329.917,-25.788"/>
</g>
<!-- Node9 -->
<g id="node9" class="node"><title>Node9</title>
<polygon fill="white" stroke="#bfbfbf" points="272,-0.5 272,-19.5 320,-19.5 320,-0.5 272,-0.5"/>
<text text-anchor="middle" x="296" y="-7.5" font-family="Helvetica,sans-Serif" font-size="10.00">limits.h</text>
</g>
<!-- Node8&#45;&gt;Node9 -->
<g id="edge8" class="edge"><title>Node8&#45;&gt;Node9</title>
<path fill="none" stroke="midnightblue" d="M217.103,-56.324C231.903,-47.8215 254.694,-34.7288 271.982,-24.7975"/>
<polygon fill="midnightblue" stroke="midnightblue" points="274.007,-27.6707 280.935,-19.6545 270.52,-21.6009 274.007,-27.6707"/>
</g>
<!-- Node10 -->
<g id="node10" class="node"><title>Node10</title>
<polygon fill="white" stroke="#bfbfbf" points="130.5,-0.5 130.5,-19.5 179.5,-19.5 179.5,-0.5 130.5,-0.5"/>
<text text-anchor="middle" x="155" y="-7.5" font-family="Helvetica,sans-Serif" font-size="10.00">stdint.h</text>
</g>
<!-- Node8&#45;&gt;Node10 -->
<g id="edge12" class="edge"><title>Node8&#45;&gt;Node10</title>
<path fill="none" stroke="midnightblue" d="M194.239,-56.083C187.463,-48.2982 177.457,-36.8015 169.245,-27.3665"/>
<polygon fill="midnightblue" stroke="midnightblue" points="171.822,-24.9963 162.617,-19.7511 166.542,-29.592 171.822,-24.9963"/>
</g>
<!-- Node11 -->
<g id="node11" class="node"><title>Node11</title>
<polygon fill="white" stroke="#bfbfbf" points="198,-0.5 198,-19.5 254,-19.5 254,-0.5 198,-0.5"/>
<text text-anchor="middle" x="226" y="-7.5" font-family="Helvetica,sans-Serif" font-size="10.00">stdbool.h</text>
</g>
<!-- Node8&#45;&gt;Node11 -->
<g id="edge13" class="edge"><title>Node8&#45;&gt;Node11</title>
<path fill="none" stroke="midnightblue" d="M205.963,-56.083C209.213,-48.77 213.919,-38.1814 217.954,-29.1034"/>
<polygon fill="midnightblue" stroke="midnightblue" points="221.248,-30.3107 222.111,-19.7511 214.851,-27.4677 221.248,-30.3107"/>
</g>
<!-- Node13 -->
<g id="node13" class="node"><title>Node13</title>
<g id="a_node13"><a xlink:href="residues_8h.html" target="_top" xlink:title="residues.h">
<polygon fill="white" stroke="black" points="406,-0.5 406,-19.5 468,-19.5 468,-0.5 406,-0.5"/>
<text text-anchor="middle" x="437" y="-7.5" font-family="Helvetica,sans-Serif" font-size="10.00">residues.h</text>
</a>
</g>
</g>
<!-- Node12&#45;&gt;Node13 -->
<g id="edge15" class="edge"><title>Node12&#45;&gt;Node13</title>
<path fill="none" stroke="midnightblue" d="M304.036,-56.4435C330.616,-47.3591 372.809,-32.9388 402.523,-22.7831"/>
<polygon fill="midnightblue" stroke="midnightblue" points="403.751,-26.0625 412.082,-19.5164 401.487,-19.4386 403.751,-26.0625"/>
</g>
<!-- Node15&#45;&gt;Node8 -->
<g id="edge21" class="edge"><title>Node15&#45;&gt;Node8</title>
<path fill="none" stroke="midnightblue" d="M306.352,-112.444C286.035,-103.596 254.097,-89.6875 230.902,-79.5865"/>
<polygon fill="midnightblue" stroke="midnightblue" points="232.122,-76.3002 221.556,-75.5164 229.327,-82.7181 232.122,-76.3002"/>
</g>
<!-- Node15&#45;&gt;Node12 -->
<g id="edge20" class="edge"><title>Node15&#45;&gt;Node12</title>
<path fill="none" stroke="midnightblue" d="M318.239,-112.083C311.463,-104.298 301.457,-92.8015 293.245,-83.3665"/>
<polygon fill="midnightblue" stroke="midnightblue" points="295.822,-80.9963 286.617,-75.7511 290.542,-85.592 295.822,-80.9963"/>
</g>
<!-- Node15&#45;&gt;Node14 -->
<g id="edge22" class="edge"><title>Node15&#45;&gt;Node14</title>
<path fill="none" stroke="midnightblue" d="M344.539,-112.444C363.623,-103.636 393.575,-89.8116 415.436,-79.722"/>
<polygon fill="midnightblue" stroke="midnightblue" points="416.935,-82.8849 424.548,-75.5164 414.001,-76.5292 416.935,-82.8849"/>
</g>
<!-- Node16 -->
<g id="node16" class="node"><title>Node16</title>
<polygon fill="white" stroke="#bfbfbf" points="331,-56.5 331,-75.5 403,-75.5 403,-56.5 331,-56.5"/>
<text text-anchor="middle" x="367" y="-63.5" font-family="Helvetica,sans-Serif" font-size="10.00">gsl/gsl_rng.h</text>
</g>
<!-- Node15&#45;&gt;Node16 -->
<g id="edge19" class="edge"><title>Node15&#45;&gt;Node16</title>
<path fill="none" stroke="midnightblue" d="M332.77,-112.083C338.562,-104.455 347.058,-93.2645 354.138,-83.9408"/>
<polygon fill="midnightblue" stroke="midnightblue" points="357.096,-85.8321 360.356,-75.7511 351.521,-81.5991 357.096,-85.8321"/>
</g>
</g>
</svg>
        <g id="navigator" transform="translate(0 0)" fill="#404254">
                <rect fill="#f2f5e9" fill-opacity="0.5" stroke="#606060" stroke-width=".5" x="0" y="0" width="60" height="60"/>
                <use id="zoomplus" xlink:href="#zoomPlus" x="17" y="9" onmousedown="handleZoom(evt,'in')"/>
                <use id="zoomminus" xlink:href="#zoomMin" x="42" y="9" onmousedown="handleZoom(evt,'out')"/>
                <use id="reset" xlink:href="#resetDef" x="30" y="36" onmousedown="handleReset()"/>
                <g id="arrowUp" xlink:href="#dirArrow" transform="translate(30 24)" onmousedown="handlePan(0,-1)">
                  <use xlink:href="#rim" fill="#404040">
                        <set attributeName="fill" to="#808080" begin="arrowUp.mouseover" end="arrowUp.mouseout"/>
                  </use>
                  <path fill="none" stroke="white" stroke-width="1.5" d="M0,-3.0v7 M-2.5,-0.5L0,-3.0L2.5,-0.5"/>
                </g>
                <g id="arrowRight" xlink:href="#dirArrow" transform="rotate(90) translate(36 -43)" onmousedown="handlePan(1,0)">
                  <use xlink:href="#rim" fill="#404040">
                        <set attributeName="fill" to="#808080" begin="arrowRight.mouseover" end="arrowRight.mouseout"/>
                  </use>
                  <path fill="none" stroke="white" stroke-width="1.5" d="M0,-3.0v7 M-2.5,-0.5L0,-3.0L2.5,-0.5"/>
                </g>
                <g id="arrowDown" xlink:href="#dirArrow" transform="rotate(180) translate(-30 -48)" onmousedown="handlePan(0,1)">
                  <use xlink:href="#rim" fill="#404040">
                        <set attributeName="fill" to="#808080" begin="arrowDown.mouseover" end="arrowDown.mouseout"/>
                  </use>
                  <path fill="none" stroke="white" stroke-width="1.5" d="M0,-3.0v7 M-2.5,-0.5L0,-3.0L2.5,-0.5"/>
                </g>
                <g id="arrowLeft" xlink:href="#dirArrow" transform="rotate(270) translate(-36 17)" onmousedown="handlePan(-1,0)">
                  <use xlink:href="#rim" fill="#404040">
                        <set attributeName="fill" to="#808080" begin="arrowLeft.mouseover" end="arrowLeft.mouseout"/>
                  </use>
                  <path fill="none" stroke="white" stroke-width="1.5" d="M0,-3.0v7 M-2.5,-0.5L0,-3.0L2.5,-0.5"/>
                </g>
        </g>
        <svg viewBox="0 0 15 15" width="100%" height="30px" preserveAspectRatio="xMaxYMin meet">
         <g id="arrow_out" transform="scale(0.3 0.3)">
          <a xlink:href="read__ener_8c__incl_org.svg" target="_base">
           <rect id="button" ry="5" rx="5" y="6" x="6" height="38" width="38"
                fill="#f2f5e9" fill-opacity="0.5" stroke="#606060" stroke-width="1.0"/>
           <path id="arrow"
             d="M 11.500037,31.436501 C 11.940474,20.09759 22.043105,11.32322 32.158766,21.979434 L 37.068811,17.246167 C 37.068811,17.246167 37.088388,32 37.088388,32 L 22.160133,31.978069 C 22.160133,31.978069 26.997745,27.140456 26.997745,27.140456 C 18.528582,18.264221 13.291696,25.230495 11.500037,31.436501 z"
             style="fill:#404040;"/>
          </a>
         </g>
        </svg>
</svg>
