<?xml version="1.0" encoding="UTF-8" standalone="no"?>
<!DOCTYPE svg PUBLIC "-//W3C//DTD SVG 1.1//EN"
 "http://www.w3.org/Graphics/SVG/1.1/DTD/svg11.dtd">
<!-- Generated by graphviz version 2.38.0 (20140413.2041)
 -->
<!-- Title: /home/mignon/bioinfo/proteus/gitlab/proteus/read_conf.c Pages: 1 -->
<!--zoomable 218 -->
<svg id="main" version="1.1" xmlns="http://www.w3.org/2000/svg" xmlns:xlink="http://www.w3.org/1999/xlink" xml:space="preserve" onload="init(evt)">
<style type="text/css"><![CDATA[
.edge:hover path { stroke: red; }
.edge:hover polygon { stroke: red; fill: red; }
]]></style>
<script type="text/javascript"><![CDATA[
var edges = document.getElementsByTagName('g');
if (edges && edges.length) {
  for (var i=0;i<edges.length;i++) {
    if (edges[i].id.substr(0,4)=='edge') {
      edges[i].setAttribute('class','edge');
    }
  }
}
]]></script>
        <defs>
                <circle id="rim" cx="0" cy="0" r="7"/>
                <circle id="rim2" cx="0" cy="0" r="3.5"/>
                <g id="zoomPlus">
                        <use xlink:href="#rim" fill="#404040">
                                <set attributeName="fill" to="#808080" begin="zoomplus.mouseover" end="zoomplus.mouseout"/>
                        </use>
                        <path d="M-4,0h8M0,-4v8" fill="none" stroke="white" stroke-width="1.5" pointer-events="none"/>
                </g>
                <g id="zoomMin">
                        <use xlink:href="#rim" fill="#404040">
                                <set attributeName="fill" to="#808080" begin="zoomminus.mouseover" end="zoomminus.mouseout"/>
                        </use>
                        <path d="M-4,0h8" fill="none" stroke="white" stroke-width="1.5" pointer-events="none"/>
                </g>
                <g id="dirArrow">
                        <path fill="none" stroke="white" stroke-width="1.5" d="M0,-3.0v7 M-2.5,-0.5L0,-3.0L2.5,-0.5"/>
                </g>
               <g id="resetDef">
                       <use xlink:href="#rim2" fill="#404040">
                               <set attributeName="fill" to="#808080" begin="reset.mouseover" end="reset.mouseout"/>
                       </use>
               </g>
        </defs>

<script type="text/javascript">
var viewWidth = 712;
var viewHeight = 218;
var sectionId = 'dynsection-0';
</script>
<script xlink:href="svgpan.js"/>
<svg id="graph" class="graph">
<g id="viewport">
<title>/home/mignon/bioinfo/proteus/gitlab/proteus/read_conf.c</title>
<polygon fill="white" stroke="none" points="-4,4 -4,-214 708,-214 708,4 -4,4"/>
<!-- Node1 -->
<g id="node1" class="node"><title>Node1</title>
<polygon fill="#bfbfbf" stroke="black" points="261.5,-168.5 261.5,-209.5 374.5,-209.5 374.5,-168.5 261.5,-168.5"/>
<text text-anchor="start" x="269.5" y="-197.5" font-family="Helvetica,sans-Serif" font-size="10.00">/home/mignon/bioinfo</text>
<text text-anchor="start" x="269.5" y="-186.5" font-family="Helvetica,sans-Serif" font-size="10.00">/proteus/gitlab/proteus</text>
<text text-anchor="middle" x="318" y="-175.5" font-family="Helvetica,sans-Serif" font-size="10.00">/read_conf.c</text>
</g>
<!-- Node2 -->
<g id="node2" class="node"><title>Node2</title>
<polygon fill="white" stroke="#bfbfbf" points="0,-112.5 0,-131.5 44,-131.5 44,-112.5 0,-112.5"/>
<text text-anchor="middle" x="22" y="-119.5" font-family="Helvetica,sans-Serif" font-size="10.00">float.h</text>
</g>
<!-- Node1&#45;&gt;Node2 -->
<g id="edge1" class="edge"><title>Node1&#45;&gt;Node2</title>
<path fill="none" stroke="midnightblue" d="M261.374,-177.3C209.736,-167.256 131.157,-151.258 54.1651,-132.156"/>
<polygon fill="midnightblue" stroke="midnightblue" points="54.8476,-128.719 44.2972,-129.688 53.1493,-135.51 54.8476,-128.719"/>
</g>
<!-- Node3 -->
<g id="node3" class="node"><title>Node3</title>
<polygon fill="white" stroke="#bfbfbf" points="62.5,-112.5 62.5,-131.5 109.5,-131.5 109.5,-112.5 62.5,-112.5"/>
<text text-anchor="middle" x="86" y="-119.5" font-family="Helvetica,sans-Serif" font-size="10.00">math.h</text>
</g>
<!-- Node1&#45;&gt;Node3 -->
<g id="edge2" class="edge"><title>Node1&#45;&gt;Node3</title>
<path fill="none" stroke="midnightblue" d="M261.246,-172.099C216.736,-159.629 156.317,-142.701 119.301,-132.33"/>
<polygon fill="midnightblue" stroke="midnightblue" points="120.088,-128.916 109.515,-129.588 118.2,-135.656 120.088,-128.916"/>
</g>
<!-- Node4 -->
<g id="node4" class="node"><title>Node4</title>
<polygon fill="white" stroke="#bfbfbf" points="88,-0.5 88,-19.5 134,-19.5 134,-0.5 88,-0.5"/>
<text text-anchor="middle" x="111" y="-7.5" font-family="Helvetica,sans-Serif" font-size="10.00">stdio.h</text>
</g>
<!-- Node1&#45;&gt;Node4 -->
<g id="edge3" class="edge"><title>Node1&#45;&gt;Node4</title>
<path fill="none" stroke="midnightblue" d="M285.052,-168.44C268.841,-158.287 249.326,-145.254 233,-132 190.944,-97.8571 147.166,-51.2698 125.27,-27.0718"/>
<polygon fill="midnightblue" stroke="midnightblue" points="127.761,-24.6072 118.477,-19.5035 122.552,-29.2832 127.761,-24.6072"/>
</g>
<!-- Node5 -->
<g id="node5" class="node"><title>Node5</title>
<polygon fill="white" stroke="#bfbfbf" points="152,-0.5 152,-19.5 200,-19.5 200,-0.5 152,-0.5"/>
<text text-anchor="middle" x="176" y="-7.5" font-family="Helvetica,sans-Serif" font-size="10.00">stdlib.h</text>
</g>
<!-- Node1&#45;&gt;Node5 -->
<g id="edge4" class="edge"><title>Node1&#45;&gt;Node5</title>
<path fill="none" stroke="midnightblue" d="M291.724,-168.313C279.208,-158.229 264.499,-145.293 253,-132 224.078,-98.5672 198.238,-53.3105 185.115,-28.7097"/>
<polygon fill="midnightblue" stroke="midnightblue" points="188.187,-27.0308 180.44,-19.8026 181.988,-30.2838 188.187,-27.0308"/>
</g>
<!-- Node6 -->
<g id="node6" class="node"><title>Node6</title>
<polygon fill="white" stroke="#bfbfbf" points="218,-0.5 218,-19.5 274,-19.5 274,-0.5 218,-0.5"/>
<text text-anchor="middle" x="246" y="-7.5" font-family="Helvetica,sans-Serif" font-size="10.00">stdbool.h</text>
</g>
<!-- Node1&#45;&gt;Node6 -->
<g id="edge5" class="edge"><title>Node1&#45;&gt;Node6</title>
<path fill="none" stroke="midnightblue" d="M293.656,-168.322C283.175,-158.519 271.79,-145.816 265,-132 248.644,-98.7209 245.754,-54.6349 245.575,-29.9068"/>
<polygon fill="midnightblue" stroke="midnightblue" points="249.076,-29.7603 245.65,-19.7345 242.076,-29.7081 249.076,-29.7603"/>
</g>
<!-- Node7 -->
<g id="node7" class="node"><title>Node7</title>
<polygon fill="white" stroke="#bfbfbf" points="426.5,-0.5 426.5,-19.5 475.5,-19.5 475.5,-0.5 426.5,-0.5"/>
<text text-anchor="middle" x="451" y="-7.5" font-family="Helvetica,sans-Serif" font-size="10.00">string.h</text>
</g>
<!-- Node1&#45;&gt;Node7 -->
<g id="edge6" class="edge"><title>Node1&#45;&gt;Node7</title>
<path fill="none" stroke="midnightblue" d="M336.338,-168.379C345.54,-158.005 356.504,-144.794 365,-132 386.002,-100.372 381.308,-86.4378 404,-56 412.147,-45.0724 423.055,-34.4493 432.311,-26.2711"/>
<polygon fill="midnightblue" stroke="midnightblue" points="434.588,-28.929 439.91,-19.7674 430.037,-23.6109 434.588,-28.929"/>
</g>
<!-- Node8 -->
<g id="node8" class="node"><title>Node8</title>
<polygon fill="white" stroke="#bfbfbf" points="660,-112.5 660,-131.5 704,-131.5 704,-112.5 660,-112.5"/>
<text text-anchor="middle" x="682" y="-119.5" font-family="Helvetica,sans-Serif" font-size="10.00">time.h</text>
</g>
<!-- Node1&#45;&gt;Node8 -->
<g id="edge7" class="edge"><title>Node1&#45;&gt;Node8</title>
<path fill="none" stroke="midnightblue" d="M374.544,-179.681C440.109,-169.726 551.304,-151.891 646,-132 647.277,-131.732 648.577,-131.45 649.888,-131.158"/>
<polygon fill="midnightblue" stroke="midnightblue" points="651.042,-134.482 659.976,-128.787 649.441,-127.668 651.042,-134.482"/>
</g>
<!-- Node9 -->
<g id="node9" class="node"><title>Node9</title>
<polygon fill="white" stroke="#bfbfbf" points="565,-56.5 565,-75.5 637,-75.5 637,-56.5 565,-56.5"/>
<text text-anchor="middle" x="601" y="-63.5" font-family="Helvetica,sans-Serif" font-size="10.00">gsl/gsl_rng.h</text>
</g>
<!-- Node1&#45;&gt;Node9 -->
<g id="edge8" class="edge"><title>Node1&#45;&gt;Node9</title>
<path fill="none" stroke="midnightblue" d="M374.618,-181.885C440.847,-173.689 545.242,-157.188 575,-132 588.75,-120.361 595.294,-100.411 598.367,-85.6745"/>
<polygon fill="midnightblue" stroke="midnightblue" points="601.846,-86.0963 600.102,-75.646 594.948,-84.9029 601.846,-86.0963"/>
</g>
<!-- Node10 -->
<g id="node10" class="node"><title>Node10</title>
<g id="a_node10"><a xlink:href="global_8h.html" target="_top" xlink:title="global.h">
<polygon fill="white" stroke="black" points="292,-56.5 292,-75.5 342,-75.5 342,-56.5 292,-56.5"/>
<text text-anchor="middle" x="317" y="-63.5" font-family="Helvetica,sans-Serif" font-size="10.00">global.h</text>
</a>
</g>
</g>
<!-- Node1&#45;&gt;Node10 -->
<g id="edge9" class="edge"><title>Node1&#45;&gt;Node10</title>
<path fill="none" stroke="midnightblue" d="M296.189,-168.402C286.826,-158.527 276.92,-145.741 272,-132 269.004,-123.631 268.598,-120.212 272,-112 276.92,-100.121 286.667,-89.7428 295.834,-81.9557"/>
<polygon fill="midnightblue" stroke="midnightblue" points="298.253,-84.5058 303.936,-75.5641 293.917,-79.0101 298.253,-84.5058"/>
</g>
<!-- Node13 -->
<g id="node13" class="node"><title>Node13</title>
<g id="a_node13"><a xlink:href="read__conf_8h.html" target="_top" xlink:title="read_conf.h">
<polygon fill="white" stroke="black" points="498,-112.5 498,-131.5 566,-131.5 566,-112.5 498,-112.5"/>
<text text-anchor="middle" x="532" y="-119.5" font-family="Helvetica,sans-Serif" font-size="10.00">read_conf.h</text>
</a>
</g>
</g>
<!-- Node1&#45;&gt;Node13 -->
<g id="edge16" class="edge"><title>Node1&#45;&gt;Node13</title>
<path fill="none" stroke="midnightblue" d="M374.506,-170.837C412.325,-159.35 461.064,-144.546 494.239,-134.469"/>
<polygon fill="midnightblue" stroke="midnightblue" points="495.454,-137.758 504.006,-131.503 493.42,-131.06 495.454,-137.758"/>
</g>
<!-- Node16 -->
<g id="node16" class="node"><title>Node16</title>
<g id="a_node16"><a xlink:href="utils_8h.html" target="_top" xlink:title="utils.h">
<polygon fill="white" stroke="black" points="655.5,-56.5 655.5,-75.5 698.5,-75.5 698.5,-56.5 655.5,-56.5"/>
<text text-anchor="middle" x="677" y="-63.5" font-family="Helvetica,sans-Serif" font-size="10.00">utils.h</text>
</a>
</g>
</g>
<!-- Node1&#45;&gt;Node16 -->
<g id="edge22" class="edge"><title>Node1&#45;&gt;Node16</title>
<path fill="none" stroke="midnightblue" d="M374.505,-184.488C432.472,-179.117 524.089,-165.636 596,-132 621.869,-119.9 646.734,-97.8905 661.935,-82.8657"/>
<polygon fill="midnightblue" stroke="midnightblue" points="664.434,-85.3158 668.957,-75.7348 659.447,-80.4042 664.434,-85.3158"/>
</g>
<!-- Node17 -->
<g id="node17" class="node"><title>Node17</title>
<g id="a_node17"><a xlink:href="ener__cache_8h.html" target="_top" xlink:title="ener_cache.h">
<polygon fill="white" stroke="black" points="280.5,-112.5 280.5,-131.5 355.5,-131.5 355.5,-112.5 280.5,-112.5"/>
<text text-anchor="middle" x="318" y="-119.5" font-family="Helvetica,sans-Serif" font-size="10.00">ener_cache.h</text>
</a>
</g>
</g>
<!-- Node1&#45;&gt;Node17 -->
<g id="edge23" class="edge"><title>Node1&#45;&gt;Node17</title>
<path fill="none" stroke="midnightblue" d="M318,-168.498C318,-160.065 318,-150.235 318,-141.874"/>
<polygon fill="midnightblue" stroke="midnightblue" points="321.5,-141.652 318,-131.652 314.5,-141.653 321.5,-141.652"/>
</g>
<!-- Node18 -->
<g id="node18" class="node"><title>Node18</title>
<g id="a_node18"><a xlink:href="read__ener_8h.html" target="_top" xlink:title="read_ener.h">
<polygon fill="white" stroke="black" points="412,-112.5 412,-131.5 480,-131.5 480,-112.5 412,-112.5"/>
<text text-anchor="middle" x="446" y="-119.5" font-family="Helvetica,sans-Serif" font-size="10.00">read_ener.h</text>
</a>
</g>
</g>
<!-- Node1&#45;&gt;Node18 -->
<g id="edge25" class="edge"><title>Node1&#45;&gt;Node18</title>
<path fill="none" stroke="midnightblue" d="M356.404,-168.498C376.878,-158.101 401.536,-145.579 419.797,-136.306"/>
<polygon fill="midnightblue" stroke="midnightblue" points="421.63,-139.301 428.961,-131.652 418.46,-133.06 421.63,-139.301"/>
</g>
<!-- Node10&#45;&gt;Node4 -->
<g id="edge11" class="edge"><title>Node10&#45;&gt;Node4</title>
<path fill="none" stroke="midnightblue" d="M291.888,-58.6824C259.81,-50.5743 202.345,-35.921 143.834,-20.1844"/>
<polygon fill="midnightblue" stroke="midnightblue" points="144.622,-16.7722 134.056,-17.5471 142.799,-23.5307 144.622,-16.7722"/>
</g>
<!-- Node10&#45;&gt;Node5 -->
<g id="edge12" class="edge"><title>Node10&#45;&gt;Node5</title>
<path fill="none" stroke="midnightblue" d="M294.658,-56.4435C271.247,-47.4776 234.264,-33.314 207.81,-23.1827"/>
<polygon fill="midnightblue" stroke="midnightblue" points="208.828,-19.8245 198.237,-19.5164 206.324,-26.3615 208.828,-19.8245"/>
</g>
<!-- Node10&#45;&gt;Node6 -->
<g id="edge15" class="edge"><title>Node10&#45;&gt;Node6</title>
<path fill="none" stroke="midnightblue" d="M305.593,-56.324C294.891,-48.1849 278.659,-35.8395 265.837,-26.0874"/>
<polygon fill="midnightblue" stroke="midnightblue" points="267.693,-23.1018 257.615,-19.8339 263.456,-28.6734 267.693,-23.1018"/>
</g>
<!-- Node10&#45;&gt;Node7 -->
<g id="edge13" class="edge"><title>Node10&#45;&gt;Node7</title>
<path fill="none" stroke="midnightblue" d="M338.233,-56.4435C360.384,-47.5171 395.319,-33.4387 420.436,-23.3168"/>
<polygon fill="midnightblue" stroke="midnightblue" points="421.9,-26.5006 429.867,-19.5164 419.283,-20.0079 421.9,-26.5006"/>
</g>
<!-- Node11 -->
<g id="node11" class="node"><title>Node11</title>
<polygon fill="white" stroke="#bfbfbf" points="360,-0.5 360,-19.5 408,-19.5 408,-0.5 360,-0.5"/>
<text text-anchor="middle" x="384" y="-7.5" font-family="Helvetica,sans-Serif" font-size="10.00">limits.h</text>
</g>
<!-- Node10&#45;&gt;Node11 -->
<g id="edge10" class="edge"><title>Node10&#45;&gt;Node11</title>
<path fill="none" stroke="midnightblue" d="M327.765,-56.324C337.766,-48.2631 352.887,-36.0765 364.93,-26.3695"/>
<polygon fill="midnightblue" stroke="midnightblue" points="367.45,-28.8343 373.039,-19.8339 363.057,-23.3841 367.45,-28.8343"/>
</g>
<!-- Node12 -->
<g id="node12" class="node"><title>Node12</title>
<polygon fill="white" stroke="#bfbfbf" points="292.5,-0.5 292.5,-19.5 341.5,-19.5 341.5,-0.5 292.5,-0.5"/>
<text text-anchor="middle" x="317" y="-7.5" font-family="Helvetica,sans-Serif" font-size="10.00">stdint.h</text>
</g>
<!-- Node10&#45;&gt;Node12 -->
<g id="edge14" class="edge"><title>Node10&#45;&gt;Node12</title>
<path fill="none" stroke="midnightblue" d="M317,-56.083C317,-49.0059 317,-38.8611 317,-29.9865"/>
<polygon fill="midnightblue" stroke="midnightblue" points="320.5,-29.751 317,-19.7511 313.5,-29.7511 320.5,-29.751"/>
</g>
<!-- Node13&#45;&gt;Node9 -->
<g id="edge17" class="edge"><title>Node13&#45;&gt;Node9</title>
<path fill="none" stroke="midnightblue" d="M543.086,-112.324C553.486,-104.185 569.261,-91.8395 581.722,-82.0874"/>
<polygon fill="midnightblue" stroke="midnightblue" points="583.994,-84.7533 589.712,-75.8339 579.68,-79.2407 583.994,-84.7533"/>
</g>
<!-- Node13&#45;&gt;Node10 -->
<g id="edge20" class="edge"><title>Node13&#45;&gt;Node10</title>
<path fill="none" stroke="midnightblue" d="M497.933,-112.444C458.066,-102.431 392.39,-85.9351 352.089,-75.813"/>
<polygon fill="midnightblue" stroke="midnightblue" points="352.726,-72.3644 342.175,-73.323 351.021,-79.1536 352.726,-72.3644"/>
</g>
<!-- Node14 -->
<g id="node14" class="node"><title>Node14</title>
<g id="a_node14"><a xlink:href="backbone_8h.html" target="_top" xlink:title="backbone.h">
<polygon fill="white" stroke="black" points="479.5,-56.5 479.5,-75.5 546.5,-75.5 546.5,-56.5 479.5,-56.5"/>
<text text-anchor="middle" x="513" y="-63.5" font-family="Helvetica,sans-Serif" font-size="10.00">backbone.h</text>
</a>
</g>
</g>
<!-- Node13&#45;&gt;Node14 -->
<g id="edge18" class="edge"><title>Node13&#45;&gt;Node14</title>
<path fill="none" stroke="midnightblue" d="M528.863,-112.083C526.317,-104.849 522.644,-94.4087 519.473,-85.3968"/>
<polygon fill="midnightblue" stroke="midnightblue" points="522.7,-84.0225 516.079,-75.7511 516.097,-86.3459 522.7,-84.0225"/>
</g>
<!-- Node13&#45;&gt;Node16 -->
<g id="edge21" class="edge"><title>Node13&#45;&gt;Node16</title>
<path fill="none" stroke="midnightblue" d="M554.976,-112.444C579.441,-103.332 618.32,-88.8531 645.602,-78.6929"/>
<polygon fill="midnightblue" stroke="midnightblue" points="646.931,-81.9329 655.081,-75.1629 644.488,-75.3731 646.931,-81.9329"/>
</g>
<!-- Node15 -->
<g id="node15" class="node"><title>Node15</title>
<g id="a_node15"><a xlink:href="residues_8h.html" target="_top" xlink:title="residues.h">
<polygon fill="white" stroke="black" points="494,-0.5 494,-19.5 556,-19.5 556,-0.5 494,-0.5"/>
<text text-anchor="middle" x="525" y="-7.5" font-family="Helvetica,sans-Serif" font-size="10.00">residues.h</text>
</a>
</g>
</g>
<!-- Node14&#45;&gt;Node15 -->
<g id="edge19" class="edge"><title>Node14&#45;&gt;Node15</title>
<path fill="none" stroke="midnightblue" d="M514.982,-56.083C516.572,-48.9272 518.859,-38.6353 520.846,-29.6911"/>
<polygon fill="midnightblue" stroke="midnightblue" points="524.303,-30.2722 523.055,-19.7511 517.469,-28.7537 524.303,-30.2722"/>
</g>
<!-- Node17&#45;&gt;Node10 -->
<g id="edge24" class="edge"><title>Node17&#45;&gt;Node10</title>
<path fill="none" stroke="midnightblue" d="M317.835,-112.083C317.704,-105.006 317.516,-94.8611 317.352,-85.9865"/>
<polygon fill="midnightblue" stroke="midnightblue" points="320.847,-85.6845 317.162,-75.7511 313.848,-85.8142 320.847,-85.6845"/>
</g>
<!-- Node18&#45;&gt;Node10 -->
<g id="edge27" class="edge"><title>Node18&#45;&gt;Node10</title>
<path fill="none" stroke="midnightblue" d="M425.56,-112.444C404.33,-103.557 370.901,-89.5632 346.745,-79.4514"/>
<polygon fill="midnightblue" stroke="midnightblue" points="347.921,-76.1493 337.345,-75.5164 345.218,-82.6064 347.921,-76.1493"/>
</g>
<!-- Node18&#45;&gt;Node14 -->
<g id="edge28" class="edge"><title>Node18&#45;&gt;Node14</title>
<path fill="none" stroke="midnightblue" d="M456.765,-112.324C466.766,-104.263 481.887,-92.0765 493.93,-82.3695"/>
<polygon fill="midnightblue" stroke="midnightblue" points="496.45,-84.8343 502.039,-75.8339 492.057,-79.3841 496.45,-84.8343"/>
</g>
<!-- Node19 -->
<g id="node19" class="node"><title>Node19</title>
<polygon fill="white" stroke="#bfbfbf" points="412.5,-56.5 412.5,-75.5 461.5,-75.5 461.5,-56.5 412.5,-56.5"/>
<text text-anchor="middle" x="437" y="-63.5" font-family="Helvetica,sans-Serif" font-size="10.00">dirent.h</text>
</g>
<!-- Node18&#45;&gt;Node19 -->
<g id="edge26" class="edge"><title>Node18&#45;&gt;Node19</title>
<path fill="none" stroke="midnightblue" d="M444.514,-112.083C443.321,-104.927 441.606,-94.6353 440.115,-85.6911"/>
<polygon fill="midnightblue" stroke="midnightblue" points="443.555,-85.0396 438.459,-75.7511 436.65,-86.1904 443.555,-85.0396"/>
</g>
</g>
</svg>
        <g id="navigator" transform="translate(0 0)" fill="#404254">
                <rect fill="#f2f5e9" fill-opacity="0.5" stroke="#606060" stroke-width=".5" x="0" y="0" width="60" height="60"/>
                <use id="zoomplus" xlink:href="#zoomPlus" x="17" y="9" onmousedown="handleZoom(evt,'in')"/>
                <use id="zoomminus" xlink:href="#zoomMin" x="42" y="9" onmousedown="handleZoom(evt,'out')"/>
                <use id="reset" xlink:href="#resetDef" x="30" y="36" onmousedown="handleReset()"/>
                <g id="arrowUp" xlink:href="#dirArrow" transform="translate(30 24)" onmousedown="handlePan(0,-1)">
                  <use xlink:href="#rim" fill="#404040">
                        <set attributeName="fill" to="#808080" begin="arrowUp.mouseover" end="arrowUp.mouseout"/>
                  </use>
                  <path fill="none" stroke="white" stroke-width="1.5" d="M0,-3.0v7 M-2.5,-0.5L0,-3.0L2.5,-0.5"/>
                </g>
                <g id="arrowRight" xlink:href="#dirArrow" transform="rotate(90) translate(36 -43)" onmousedown="handlePan(1,0)">
                  <use xlink:href="#rim" fill="#404040">
                        <set attributeName="fill" to="#808080" begin="arrowRight.mouseover" end="arrowRight.mouseout"/>
                  </use>
                  <path fill="none" stroke="white" stroke-width="1.5" d="M0,-3.0v7 M-2.5,-0.5L0,-3.0L2.5,-0.5"/>
                </g>
                <g id="arrowDown" xlink:href="#dirArrow" transform="rotate(180) translate(-30 -48)" onmousedown="handlePan(0,1)">
                  <use xlink:href="#rim" fill="#404040">
                        <set attributeName="fill" to="#808080" begin="arrowDown.mouseover" end="arrowDown.mouseout"/>
                  </use>
                  <path fill="none" stroke="white" stroke-width="1.5" d="M0,-3.0v7 M-2.5,-0.5L0,-3.0L2.5,-0.5"/>
                </g>
                <g id="arrowLeft" xlink:href="#dirArrow" transform="rotate(270) translate(-36 17)" onmousedown="handlePan(-1,0)">
                  <use xlink:href="#rim" fill="#404040">
                        <set attributeName="fill" to="#808080" begin="arrowLeft.mouseover" end="arrowLeft.mouseout"/>
                  </use>
                  <path fill="none" stroke="white" stroke-width="1.5" d="M0,-3.0v7 M-2.5,-0.5L0,-3.0L2.5,-0.5"/>
                </g>
        </g>
        <svg viewBox="0 0 15 15" width="100%" height="30px" preserveAspectRatio="xMaxYMin meet">
         <g id="arrow_out" transform="scale(0.3 0.3)">
          <a xlink:href="read__conf_8c__incl_org.svg" target="_base">
           <rect id="button" ry="5" rx="5" y="6" x="6" height="38" width="38"
                fill="#f2f5e9" fill-opacity="0.5" stroke="#606060" stroke-width="1.0"/>
           <path id="arrow"
             d="M 11.500037,31.436501 C 11.940474,20.09759 22.043105,11.32322 32.158766,21.979434 L 37.068811,17.246167 C 37.068811,17.246167 37.088388,32 37.088388,32 L 22.160133,31.978069 C 22.160133,31.978069 26.997745,27.140456 26.997745,27.140456 C 18.528582,18.264221 13.291696,25.230495 11.500037,31.436501 z"
             style="fill:#404040;"/>
          </a>
         </g>
        </svg>
</svg>
