<?xml version="1.0" encoding="UTF-8" standalone="no"?>
<!DOCTYPE svg PUBLIC "-//W3C//DTD SVG 1.1//EN"
 "http://www.w3.org/Graphics/SVG/1.1/DTD/svg11.dtd">
<!-- Generated by graphviz version 2.38.0 (20140413.2041)
 -->
<!-- Title: /home/mignon/bioinfo/proteus/gitlab/proteus/read_ener.h Pages: 1 -->
<svg width="514pt" height="128pt"
 viewBox="0.00 0.00 514.00 128.00" xmlns="http://www.w3.org/2000/svg" xmlns:xlink="http://www.w3.org/1999/xlink">
<g id="graph0" class="graph" transform="scale(1 1) rotate(0) translate(4 124)">
<title>/home/mignon/bioinfo/proteus/gitlab/proteus/read_ener.h</title>
<polygon fill="white" stroke="none" points="-4,4 -4,-124 510,-124 510,4 -4,4"/>
<!-- Node1 -->
<g id="node1" class="node"><title>Node1</title>
<polygon fill="#bfbfbf" stroke="black" points="196,-78.5 196,-119.5 309,-119.5 309,-78.5 196,-78.5"/>
<text text-anchor="start" x="204" y="-107.5" font-family="Helvetica,sans-Serif" font-size="10.00">/home/mignon/bioinfo</text>
<text text-anchor="start" x="204" y="-96.5" font-family="Helvetica,sans-Serif" font-size="10.00">/proteus/gitlab/proteus</text>
<text text-anchor="middle" x="252.5" y="-85.5" font-family="Helvetica,sans-Serif" font-size="10.00">/read_ener.h</text>
</g>
<!-- Node2 -->
<g id="node2" class="node"><title>Node2</title>
<g id="a_node2"><a xlink:href="ener__cache_8c.html" target="_top" xlink:title="/home/mignon/bioinfo\l/proteus/gitlab/proteus\l/ener_cache.c">
<polygon fill="white" stroke="black" points="0,-0.5 0,-41.5 113,-41.5 113,-0.5 0,-0.5"/>
<text text-anchor="start" x="8" y="-29.5" font-family="Helvetica,sans-Serif" font-size="10.00">/home/mignon/bioinfo</text>
<text text-anchor="start" x="8" y="-18.5" font-family="Helvetica,sans-Serif" font-size="10.00">/proteus/gitlab/proteus</text>
<text text-anchor="middle" x="56.5" y="-7.5" font-family="Helvetica,sans-Serif" font-size="10.00">/ener_cache.c</text>
</a>
</g>
</g>
<!-- Node1&#45;&gt;Node2 -->
<g id="edge1" class="edge"><title>Node1&#45;&gt;Node2</title>
<path fill="none" stroke="midnightblue" d="M192.535,-74.7481C165.099,-64.1096 132.955,-51.6458 106.804,-41.5056"/>
<polygon fill="midnightblue" stroke="midnightblue" points="191.436,-78.076 202.025,-78.4281 193.967,-71.5495 191.436,-78.076"/>
</g>
<!-- Node3 -->
<g id="node3" class="node"><title>Node3</title>
<g id="a_node3"><a xlink:href="proteus_8c.html" target="_top" xlink:title="/home/mignon/bioinfo\l/proteus/gitlab/proteus\l/proteus.c">
<polygon fill="white" stroke="black" points="131,-0.5 131,-41.5 244,-41.5 244,-0.5 131,-0.5"/>
<text text-anchor="start" x="139" y="-29.5" font-family="Helvetica,sans-Serif" font-size="10.00">/home/mignon/bioinfo</text>
<text text-anchor="start" x="139" y="-18.5" font-family="Helvetica,sans-Serif" font-size="10.00">/proteus/gitlab/proteus</text>
<text text-anchor="middle" x="187.5" y="-7.5" font-family="Helvetica,sans-Serif" font-size="10.00">/proteus.c</text>
</a>
</g>
</g>
<!-- Node1&#45;&gt;Node3 -->
<g id="edge2" class="edge"><title>Node1&#45;&gt;Node3</title>
<path fill="none" stroke="midnightblue" d="M229.089,-70.627C220.847,-60.9901 211.757,-50.3617 204.182,-41.5056"/>
<polygon fill="midnightblue" stroke="midnightblue" points="226.601,-73.1034 235.761,-78.4281 231.921,-68.5536 226.601,-73.1034"/>
</g>
<!-- Node4 -->
<g id="node4" class="node"><title>Node4</title>
<g id="a_node4"><a xlink:href="read__conf_8c.html" target="_top" xlink:title="/home/mignon/bioinfo\l/proteus/gitlab/proteus\l/read_conf.c">
<polygon fill="white" stroke="black" points="262,-0.5 262,-41.5 375,-41.5 375,-0.5 262,-0.5"/>
<text text-anchor="start" x="270" y="-29.5" font-family="Helvetica,sans-Serif" font-size="10.00">/home/mignon/bioinfo</text>
<text text-anchor="start" x="270" y="-18.5" font-family="Helvetica,sans-Serif" font-size="10.00">/proteus/gitlab/proteus</text>
<text text-anchor="middle" x="318.5" y="-7.5" font-family="Helvetica,sans-Serif" font-size="10.00">/read_conf.c</text>
</a>
</g>
</g>
<!-- Node1&#45;&gt;Node4 -->
<g id="edge3" class="edge"><title>Node1&#45;&gt;Node4</title>
<path fill="none" stroke="midnightblue" d="M276.271,-70.627C284.64,-60.9901 293.87,-50.3617 301.561,-41.5056"/>
<polygon fill="midnightblue" stroke="midnightblue" points="273.411,-68.5828 269.497,-78.4281 278.696,-73.1727 273.411,-68.5828"/>
</g>
<!-- Node5 -->
<g id="node5" class="node"><title>Node5</title>
<g id="a_node5"><a xlink:href="read__ener_8c.html" target="_top" xlink:title="/home/mignon/bioinfo\l/proteus/gitlab/proteus\l/read_ener.c">
<polygon fill="white" stroke="black" points="393,-0.5 393,-41.5 506,-41.5 506,-0.5 393,-0.5"/>
<text text-anchor="start" x="401" y="-29.5" font-family="Helvetica,sans-Serif" font-size="10.00">/home/mignon/bioinfo</text>
<text text-anchor="start" x="401" y="-18.5" font-family="Helvetica,sans-Serif" font-size="10.00">/proteus/gitlab/proteus</text>
<text text-anchor="middle" x="449.5" y="-7.5" font-family="Helvetica,sans-Serif" font-size="10.00">/read_ener.c</text>
</a>
</g>
</g>
<!-- Node1&#45;&gt;Node5 -->
<g id="edge4" class="edge"><title>Node1&#45;&gt;Node5</title>
<path fill="none" stroke="midnightblue" d="M312.771,-74.7481C340.347,-64.1096 372.655,-51.6458 398.94,-41.5056"/>
<polygon fill="midnightblue" stroke="midnightblue" points="311.302,-71.5633 303.232,-78.4281 313.822,-78.0942 311.302,-71.5633"/>
</g>
</g>
</svg>
