<?xml version="1.0" encoding="UTF-8" standalone="no"?>
<!DOCTYPE svg PUBLIC "-//W3C//DTD SVG 1.1//EN"
 "http://www.w3.org/Graphics/SVG/1.1/DTD/svg11.dtd">
<!-- Generated by graphviz version 2.38.0 (20140413.2041)
 -->
<!-- Title: /home/mignon/bioinfo/proteus/gitlab/proteus/read_ener.h Pages: 1 -->
<svg width="475pt" height="162pt"
 viewBox="0.00 0.00 475.00 162.00" xmlns="http://www.w3.org/2000/svg" xmlns:xlink="http://www.w3.org/1999/xlink">
<g id="graph0" class="graph" transform="scale(1 1) rotate(0) translate(4 158)">
<title>/home/mignon/bioinfo/proteus/gitlab/proteus/read_ener.h</title>
<polygon fill="white" stroke="none" points="-4,4 -4,-158 471,-158 471,4 -4,4"/>
<!-- Node1 -->
<g id="node1" class="node"><title>Node1</title>
<polygon fill="#bfbfbf" stroke="black" points="164.5,-112.5 164.5,-153.5 277.5,-153.5 277.5,-112.5 164.5,-112.5"/>
<text text-anchor="start" x="172.5" y="-141.5" font-family="Helvetica,sans-Serif" font-size="10.00">/home/mignon/bioinfo</text>
<text text-anchor="start" x="172.5" y="-130.5" font-family="Helvetica,sans-Serif" font-size="10.00">/proteus/gitlab/proteus</text>
<text text-anchor="middle" x="221" y="-119.5" font-family="Helvetica,sans-Serif" font-size="10.00">/read_ener.h</text>
</g>
<!-- Node2 -->
<g id="node2" class="node"><title>Node2</title>
<polygon fill="white" stroke="#bfbfbf" points="128.5,-56.5 128.5,-75.5 177.5,-75.5 177.5,-56.5 128.5,-56.5"/>
<text text-anchor="middle" x="153" y="-63.5" font-family="Helvetica,sans-Serif" font-size="10.00">dirent.h</text>
</g>
<!-- Node1&#45;&gt;Node2 -->
<g id="edge1" class="edge"><title>Node1&#45;&gt;Node2</title>
<path fill="none" stroke="midnightblue" d="M200.598,-112.498C190.673,-103.011 178.898,-91.7557 169.543,-82.8131"/>
<polygon fill="midnightblue" stroke="midnightblue" points="171.699,-80.0323 162.052,-75.6525 166.862,-85.0924 171.699,-80.0323"/>
</g>
<!-- Node3 -->
<g id="node3" class="node"><title>Node3</title>
<g id="a_node3"><a xlink:href="global_8h.html" target="_top" xlink:title="global.h">
<polygon fill="white" stroke="black" points="196,-56.5 196,-75.5 246,-75.5 246,-56.5 196,-56.5"/>
<text text-anchor="middle" x="221" y="-63.5" font-family="Helvetica,sans-Serif" font-size="10.00">global.h</text>
</a>
</g>
</g>
<!-- Node1&#45;&gt;Node3 -->
<g id="edge2" class="edge"><title>Node1&#45;&gt;Node3</title>
<path fill="none" stroke="midnightblue" d="M221,-112.498C221,-104.065 221,-94.2351 221,-85.874"/>
<polygon fill="midnightblue" stroke="midnightblue" points="224.5,-85.6525 221,-75.6525 217.5,-85.6525 224.5,-85.6525"/>
</g>
<!-- Node10 -->
<g id="node10" class="node"><title>Node10</title>
<g id="a_node10"><a xlink:href="backbone_8h.html" target="_top" xlink:title="backbone.h">
<polygon fill="white" stroke="black" points="333.5,-56.5 333.5,-75.5 400.5,-75.5 400.5,-56.5 333.5,-56.5"/>
<text text-anchor="middle" x="367" y="-63.5" font-family="Helvetica,sans-Serif" font-size="10.00">backbone.h</text>
</a>
</g>
</g>
<!-- Node1&#45;&gt;Node10 -->
<g id="edge9" class="edge"><title>Node1&#45;&gt;Node10</title>
<path fill="none" stroke="midnightblue" d="M264.805,-112.498C288.588,-101.909 317.322,-89.1169 338.256,-79.7968"/>
<polygon fill="midnightblue" stroke="midnightblue" points="339.853,-82.9172 347.565,-75.6525 337.006,-76.5223 339.853,-82.9172"/>
</g>
<!-- Node4 -->
<g id="node4" class="node"><title>Node4</title>
<polygon fill="white" stroke="#bfbfbf" points="0,-0.5 0,-19.5 48,-19.5 48,-0.5 0,-0.5"/>
<text text-anchor="middle" x="24" y="-7.5" font-family="Helvetica,sans-Serif" font-size="10.00">limits.h</text>
</g>
<!-- Node3&#45;&gt;Node4 -->
<g id="edge3" class="edge"><title>Node3&#45;&gt;Node4</title>
<path fill="none" stroke="midnightblue" d="M195.649,-58.051C160.544,-48.4283 97.04,-31.0211 57.8939,-20.2907"/>
<polygon fill="midnightblue" stroke="midnightblue" points="58.5901,-16.8525 48.0206,-17.5843 56.7396,-23.6035 58.5901,-16.8525"/>
</g>
<!-- Node5 -->
<g id="node5" class="node"><title>Node5</title>
<polygon fill="white" stroke="#bfbfbf" points="66,-0.5 66,-19.5 112,-19.5 112,-0.5 66,-0.5"/>
<text text-anchor="middle" x="89" y="-7.5" font-family="Helvetica,sans-Serif" font-size="10.00">stdio.h</text>
</g>
<!-- Node3&#45;&gt;Node5 -->
<g id="edge4" class="edge"><title>Node3&#45;&gt;Node5</title>
<path fill="none" stroke="midnightblue" d="M200.084,-56.4435C178.264,-47.5171 143.85,-33.4387 119.108,-23.3168"/>
<polygon fill="midnightblue" stroke="midnightblue" points="120.399,-20.0634 109.818,-19.5164 117.748,-26.5422 120.399,-20.0634"/>
</g>
<!-- Node6 -->
<g id="node6" class="node"><title>Node6</title>
<polygon fill="white" stroke="#bfbfbf" points="130,-0.5 130,-19.5 178,-19.5 178,-0.5 130,-0.5"/>
<text text-anchor="middle" x="154" y="-7.5" font-family="Helvetica,sans-Serif" font-size="10.00">stdlib.h</text>
</g>
<!-- Node3&#45;&gt;Node6 -->
<g id="edge5" class="edge"><title>Node3&#45;&gt;Node6</title>
<path fill="none" stroke="midnightblue" d="M210.235,-56.324C200.234,-48.2631 185.113,-36.0765 173.07,-26.3695"/>
<polygon fill="midnightblue" stroke="midnightblue" points="174.943,-23.3841 164.961,-19.8339 170.55,-28.8343 174.943,-23.3841"/>
</g>
<!-- Node7 -->
<g id="node7" class="node"><title>Node7</title>
<polygon fill="white" stroke="#bfbfbf" points="196.5,-0.5 196.5,-19.5 245.5,-19.5 245.5,-0.5 196.5,-0.5"/>
<text text-anchor="middle" x="221" y="-7.5" font-family="Helvetica,sans-Serif" font-size="10.00">string.h</text>
</g>
<!-- Node3&#45;&gt;Node7 -->
<g id="edge6" class="edge"><title>Node3&#45;&gt;Node7</title>
<path fill="none" stroke="midnightblue" d="M221,-56.083C221,-49.0059 221,-38.8611 221,-29.9865"/>
<polygon fill="midnightblue" stroke="midnightblue" points="224.5,-29.751 221,-19.7511 217.5,-29.7511 224.5,-29.751"/>
</g>
<!-- Node8 -->
<g id="node8" class="node"><title>Node8</title>
<polygon fill="white" stroke="#bfbfbf" points="263.5,-0.5 263.5,-19.5 312.5,-19.5 312.5,-0.5 263.5,-0.5"/>
<text text-anchor="middle" x="288" y="-7.5" font-family="Helvetica,sans-Serif" font-size="10.00">stdint.h</text>
</g>
<!-- Node3&#45;&gt;Node8 -->
<g id="edge7" class="edge"><title>Node3&#45;&gt;Node8</title>
<path fill="none" stroke="midnightblue" d="M231.765,-56.324C241.766,-48.2631 256.887,-36.0765 268.93,-26.3695"/>
<polygon fill="midnightblue" stroke="midnightblue" points="271.45,-28.8343 277.039,-19.8339 267.057,-23.3841 271.45,-28.8343"/>
</g>
<!-- Node9 -->
<g id="node9" class="node"><title>Node9</title>
<polygon fill="white" stroke="#bfbfbf" points="331,-0.5 331,-19.5 387,-19.5 387,-0.5 331,-0.5"/>
<text text-anchor="middle" x="359" y="-7.5" font-family="Helvetica,sans-Serif" font-size="10.00">stdbool.h</text>
</g>
<!-- Node3&#45;&gt;Node9 -->
<g id="edge8" class="edge"><title>Node3&#45;&gt;Node9</title>
<path fill="none" stroke="midnightblue" d="M242.867,-56.4435C265.779,-47.4776 301.975,-33.314 327.866,-23.1827"/>
<polygon fill="midnightblue" stroke="midnightblue" points="329.199,-26.4198 337.236,-19.5164 326.648,-19.9011 329.199,-26.4198"/>
</g>
<!-- Node11 -->
<g id="node11" class="node"><title>Node11</title>
<g id="a_node11"><a xlink:href="residues_8h.html" target="_top" xlink:title="residues.h">
<polygon fill="white" stroke="black" points="405,-0.5 405,-19.5 467,-19.5 467,-0.5 405,-0.5"/>
<text text-anchor="middle" x="436" y="-7.5" font-family="Helvetica,sans-Serif" font-size="10.00">residues.h</text>
</a>
</g>
</g>
<!-- Node10&#45;&gt;Node11 -->
<g id="edge10" class="edge"><title>Node10&#45;&gt;Node11</title>
<path fill="none" stroke="midnightblue" d="M378.086,-56.324C388.486,-48.1849 404.261,-35.8395 416.722,-26.0874"/>
<polygon fill="midnightblue" stroke="midnightblue" points="418.994,-28.7533 424.712,-19.8339 414.68,-23.2407 418.994,-28.7533"/>
</g>
</g>
</svg>
