<?xml version="1.0" encoding="UTF-8" standalone="no"?>
<!DOCTYPE svg PUBLIC "-//W3C//DTD SVG 1.1//EN"
 "http://www.w3.org/Graphics/SVG/1.1/DTD/svg11.dtd">
<!-- Generated by graphviz version 2.38.0 (20140413.2041)
 -->
<!-- Title: /home/mignon/bioinfo/proteus/gitlab/proteus/request_ring.c Pages: 1 -->
<svg width="425pt" height="218pt"
 viewBox="0.00 0.00 425.00 218.00" xmlns="http://www.w3.org/2000/svg" xmlns:xlink="http://www.w3.org/1999/xlink">
<g id="graph0" class="graph" transform="scale(1 1) rotate(0) translate(4 214)">
<title>/home/mignon/bioinfo/proteus/gitlab/proteus/request_ring.c</title>
<polygon fill="white" stroke="none" points="-4,4 -4,-214 421,-214 421,4 -4,4"/>
<!-- Node1 -->
<g id="node1" class="node"><title>Node1</title>
<polygon fill="#bfbfbf" stroke="black" points="42.5,-168.5 42.5,-209.5 155.5,-209.5 155.5,-168.5 42.5,-168.5"/>
<text text-anchor="start" x="50.5" y="-197.5" font-family="Helvetica,sans-Serif" font-size="10.00">/home/mignon/bioinfo</text>
<text text-anchor="start" x="50.5" y="-186.5" font-family="Helvetica,sans-Serif" font-size="10.00">/proteus/gitlab/proteus</text>
<text text-anchor="middle" x="99" y="-175.5" font-family="Helvetica,sans-Serif" font-size="10.00">/request_ring.c</text>
</g>
<!-- Node2 -->
<g id="node2" class="node"><title>Node2</title>
<polygon fill="white" stroke="#bfbfbf" points="0,-112.5 0,-131.5 52,-131.5 52,-112.5 0,-112.5"/>
<text text-anchor="middle" x="26" y="-119.5" font-family="Helvetica,sans-Serif" font-size="10.00">assert.h</text>
</g>
<!-- Node1&#45;&gt;Node2 -->
<g id="edge1" class="edge"><title>Node1&#45;&gt;Node2</title>
<path fill="none" stroke="midnightblue" d="M77.0976,-168.498C66.3358,-158.915 53.5469,-147.528 43.4558,-138.543"/>
<polygon fill="midnightblue" stroke="midnightblue" points="45.5134,-135.689 35.7174,-131.652 40.8584,-140.916 45.5134,-135.689"/>
</g>
<!-- Node3 -->
<g id="node3" class="node"><title>Node3</title>
<polygon fill="white" stroke="#bfbfbf" points="30,-0.5 30,-19.5 78,-19.5 78,-0.5 30,-0.5"/>
<text text-anchor="middle" x="54" y="-7.5" font-family="Helvetica,sans-Serif" font-size="10.00">stdlib.h</text>
</g>
<!-- Node1&#45;&gt;Node3 -->
<g id="edge2" class="edge"><title>Node1&#45;&gt;Node3</title>
<path fill="none" stroke="midnightblue" d="M94.0123,-168.382C85.254,-133.932 67.2311,-63.0422 58.6887,-29.4424"/>
<polygon fill="midnightblue" stroke="midnightblue" points="62.0385,-28.4131 56.1823,-19.5838 55.2543,-30.1379 62.0385,-28.4131"/>
</g>
<!-- Node4 -->
<g id="node4" class="node"><title>Node4</title>
<g id="a_node4"><a xlink:href="global_8h.html" target="_top" xlink:title="global.h">
<polygon fill="white" stroke="black" points="160,-56.5 160,-75.5 210,-75.5 210,-56.5 160,-56.5"/>
<text text-anchor="middle" x="185" y="-63.5" font-family="Helvetica,sans-Serif" font-size="10.00">global.h</text>
</a>
</g>
</g>
<!-- Node1&#45;&gt;Node4 -->
<g id="edge3" class="edge"><title>Node1&#45;&gt;Node4</title>
<path fill="none" stroke="midnightblue" d="M106.615,-168.18C113.289,-152.17 123.95,-129.504 137,-112 145.238,-100.951 156.373,-90.3205 165.845,-82.169"/>
<polygon fill="midnightblue" stroke="midnightblue" points="168.176,-84.7818 173.625,-75.6953 163.699,-79.4008 168.176,-84.7818"/>
</g>
<!-- Node10 -->
<g id="node10" class="node"><title>Node10</title>
<g id="a_node10"><a xlink:href="request__ring_8h.html" target="_top" xlink:title="request_ring.h">
<polygon fill="white" stroke="black" points="146,-112.5 146,-131.5 224,-131.5 224,-112.5 146,-112.5"/>
<text text-anchor="middle" x="185" y="-119.5" font-family="Helvetica,sans-Serif" font-size="10.00">request_ring.h</text>
</a>
</g>
</g>
<!-- Node1&#45;&gt;Node10 -->
<g id="edge10" class="edge"><title>Node1&#45;&gt;Node10</title>
<path fill="none" stroke="midnightblue" d="M124.803,-168.498C137.861,-158.628 153.454,-146.843 165.497,-137.741"/>
<polygon fill="midnightblue" stroke="midnightblue" points="167.685,-140.474 173.552,-131.652 163.464,-134.89 167.685,-140.474"/>
</g>
<!-- Node4&#45;&gt;Node3 -->
<g id="edge6" class="edge"><title>Node4&#45;&gt;Node3</title>
<path fill="none" stroke="midnightblue" d="M164.243,-56.4435C142.684,-47.5566 108.737,-33.5632 84.2062,-23.4514"/>
<polygon fill="midnightblue" stroke="midnightblue" points="85.2394,-20.0917 74.6602,-19.5164 82.5717,-26.5634 85.2394,-20.0917"/>
</g>
<!-- Node5 -->
<g id="node5" class="node"><title>Node5</title>
<polygon fill="white" stroke="#bfbfbf" points="96,-0.5 96,-19.5 144,-19.5 144,-0.5 96,-0.5"/>
<text text-anchor="middle" x="120" y="-7.5" font-family="Helvetica,sans-Serif" font-size="10.00">limits.h</text>
</g>
<!-- Node4&#45;&gt;Node5 -->
<g id="edge4" class="edge"><title>Node4&#45;&gt;Node5</title>
<path fill="none" stroke="midnightblue" d="M174.557,-56.324C164.854,-48.2631 150.185,-36.0765 138.5,-26.3695"/>
<polygon fill="midnightblue" stroke="midnightblue" points="140.562,-23.532 130.633,-19.8339 136.089,-28.9163 140.562,-23.532"/>
</g>
<!-- Node6 -->
<g id="node6" class="node"><title>Node6</title>
<polygon fill="white" stroke="#bfbfbf" points="162,-0.5 162,-19.5 208,-19.5 208,-0.5 162,-0.5"/>
<text text-anchor="middle" x="185" y="-7.5" font-family="Helvetica,sans-Serif" font-size="10.00">stdio.h</text>
</g>
<!-- Node4&#45;&gt;Node6 -->
<g id="edge5" class="edge"><title>Node4&#45;&gt;Node6</title>
<path fill="none" stroke="midnightblue" d="M185,-56.083C185,-49.0059 185,-38.8611 185,-29.9865"/>
<polygon fill="midnightblue" stroke="midnightblue" points="188.5,-29.751 185,-19.7511 181.5,-29.7511 188.5,-29.751"/>
</g>
<!-- Node7 -->
<g id="node7" class="node"><title>Node7</title>
<polygon fill="white" stroke="#bfbfbf" points="226.5,-0.5 226.5,-19.5 275.5,-19.5 275.5,-0.5 226.5,-0.5"/>
<text text-anchor="middle" x="251" y="-7.5" font-family="Helvetica,sans-Serif" font-size="10.00">string.h</text>
</g>
<!-- Node4&#45;&gt;Node7 -->
<g id="edge7" class="edge"><title>Node4&#45;&gt;Node7</title>
<path fill="none" stroke="midnightblue" d="M195.604,-56.324C205.456,-48.2631 220.351,-36.0765 232.215,-26.3695"/>
<polygon fill="midnightblue" stroke="midnightblue" points="234.68,-28.8752 240.203,-19.8339 230.247,-23.4575 234.68,-28.8752"/>
</g>
<!-- Node8 -->
<g id="node8" class="node"><title>Node8</title>
<polygon fill="white" stroke="#bfbfbf" points="293.5,-0.5 293.5,-19.5 342.5,-19.5 342.5,-0.5 293.5,-0.5"/>
<text text-anchor="middle" x="318" y="-7.5" font-family="Helvetica,sans-Serif" font-size="10.00">stdint.h</text>
</g>
<!-- Node4&#45;&gt;Node8 -->
<g id="edge8" class="edge"><title>Node4&#45;&gt;Node8</title>
<path fill="none" stroke="midnightblue" d="M206.074,-56.4435C228.06,-47.5171 262.734,-33.4387 287.664,-23.3168"/>
<polygon fill="midnightblue" stroke="midnightblue" points="289.076,-26.5213 297.024,-19.5164 286.442,-20.0355 289.076,-26.5213"/>
</g>
<!-- Node9 -->
<g id="node9" class="node"><title>Node9</title>
<polygon fill="white" stroke="#bfbfbf" points="361,-0.5 361,-19.5 417,-19.5 417,-0.5 361,-0.5"/>
<text text-anchor="middle" x="389" y="-7.5" font-family="Helvetica,sans-Serif" font-size="10.00">stdbool.h</text>
</g>
<!-- Node4&#45;&gt;Node9 -->
<g id="edge9" class="edge"><title>Node4&#45;&gt;Node9</title>
<path fill="none" stroke="midnightblue" d="M210.014,-58.3785C245.301,-49.0381 309.974,-31.9186 351.157,-21.0172"/>
<polygon fill="midnightblue" stroke="midnightblue" points="352.064,-24.3978 360.835,-18.4553 350.273,-17.6308 352.064,-24.3978"/>
</g>
<!-- Node10&#45;&gt;Node4 -->
<g id="edge11" class="edge"><title>Node10&#45;&gt;Node4</title>
<path fill="none" stroke="midnightblue" d="M185,-112.083C185,-105.006 185,-94.8611 185,-85.9865"/>
<polygon fill="midnightblue" stroke="midnightblue" points="188.5,-85.751 185,-75.7511 181.5,-85.7511 188.5,-85.751"/>
</g>
</g>
</svg>
