<?xml version="1.0" encoding="UTF-8" standalone="no"?>
<!DOCTYPE svg PUBLIC "-//W3C//DTD SVG 1.1//EN"
 "http://www.w3.org/Graphics/SVG/1.1/DTD/svg11.dtd">
<!-- Generated by graphviz version 2.38.0 (20140413.2041)
 -->
<!-- Title: /home/mignon/bioinfo/proteus/gitlab/proteus/residues.c Pages: 1 -->
<svg width="395pt" height="162pt"
 viewBox="0.00 0.00 394.50 162.00" xmlns="http://www.w3.org/2000/svg" xmlns:xlink="http://www.w3.org/1999/xlink">
<g id="graph0" class="graph" transform="scale(1 1) rotate(0) translate(4 158)">
<title>/home/mignon/bioinfo/proteus/gitlab/proteus/residues.c</title>
<polygon fill="white" stroke="none" points="-4,4 -4,-158 390.5,-158 390.5,4 -4,4"/>
<!-- Node1 -->
<g id="node1" class="node"><title>Node1</title>
<polygon fill="#bfbfbf" stroke="black" points="124.5,-112.5 124.5,-153.5 237.5,-153.5 237.5,-112.5 124.5,-112.5"/>
<text text-anchor="start" x="132.5" y="-141.5" font-family="Helvetica,sans-Serif" font-size="10.00">/home/mignon/bioinfo</text>
<text text-anchor="start" x="132.5" y="-130.5" font-family="Helvetica,sans-Serif" font-size="10.00">/proteus/gitlab/proteus</text>
<text text-anchor="middle" x="181" y="-119.5" font-family="Helvetica,sans-Serif" font-size="10.00">/residues.c</text>
</g>
<!-- Node2 -->
<g id="node2" class="node"><title>Node2</title>
<polygon fill="white" stroke="#bfbfbf" points="0,-0.5 0,-19.5 56,-19.5 56,-0.5 0,-0.5"/>
<text text-anchor="middle" x="28" y="-7.5" font-family="Helvetica,sans-Serif" font-size="10.00">stdbool.h</text>
</g>
<!-- Node1&#45;&gt;Node2 -->
<g id="edge1" class="edge"><title>Node1&#45;&gt;Node2</title>
<path fill="none" stroke="midnightblue" d="M156.077,-112.29C125.514,-88.1193 74.3929,-47.6898 46.8871,-25.9369"/>
<polygon fill="midnightblue" stroke="midnightblue" points="48.8572,-23.0327 38.8425,-19.5748 44.515,-28.5232 48.8572,-23.0327"/>
</g>
<!-- Node3 -->
<g id="node3" class="node"><title>Node3</title>
<polygon fill="white" stroke="#bfbfbf" points="74,-0.5 74,-19.5 120,-19.5 120,-0.5 74,-0.5"/>
<text text-anchor="middle" x="97" y="-7.5" font-family="Helvetica,sans-Serif" font-size="10.00">stdio.h</text>
</g>
<!-- Node1&#45;&gt;Node3 -->
<g id="edge2" class="edge"><title>Node1&#45;&gt;Node3</title>
<path fill="none" stroke="midnightblue" d="M167.317,-112.29C151.046,-88.8517 124.161,-50.1251 108.777,-27.9649"/>
<polygon fill="midnightblue" stroke="midnightblue" points="111.531,-25.7934 102.953,-19.5748 105.78,-29.7854 111.531,-25.7934"/>
</g>
<!-- Node4 -->
<g id="node4" class="node"><title>Node4</title>
<polygon fill="white" stroke="#bfbfbf" points="138,-0.5 138,-19.5 186,-19.5 186,-0.5 138,-0.5"/>
<text text-anchor="middle" x="162" y="-7.5" font-family="Helvetica,sans-Serif" font-size="10.00">stdlib.h</text>
</g>
<!-- Node1&#45;&gt;Node4 -->
<g id="edge3" class="edge"><title>Node1&#45;&gt;Node4</title>
<path fill="none" stroke="midnightblue" d="M177.905,-112.29C174.307,-89.3749 168.414,-51.8464 164.901,-29.4732"/>
<polygon fill="midnightblue" stroke="midnightblue" points="168.355,-28.9108 163.346,-19.5748 161.44,-29.9967 168.355,-28.9108"/>
</g>
<!-- Node5 -->
<g id="node5" class="node"><title>Node5</title>
<polygon fill="white" stroke="#bfbfbf" points="337.5,-0.5 337.5,-19.5 386.5,-19.5 386.5,-0.5 337.5,-0.5"/>
<text text-anchor="middle" x="362" y="-7.5" font-family="Helvetica,sans-Serif" font-size="10.00">string.h</text>
</g>
<!-- Node1&#45;&gt;Node5 -->
<g id="edge4" class="edge"><title>Node1&#45;&gt;Node5</title>
<path fill="none" stroke="midnightblue" d="M204.655,-112.193C224.253,-96.1916 253.146,-73.5291 280,-56 297.96,-44.2763 319.215,-32.6715 335.584,-24.1836"/>
<polygon fill="midnightblue" stroke="midnightblue" points="337.29,-27.2423 344.596,-19.5689 334.1,-21.0117 337.29,-27.2423"/>
</g>
<!-- Node6 -->
<g id="node6" class="node"><title>Node6</title>
<g id="a_node6"><a xlink:href="global_8h.html" target="_top" xlink:title="global.h">
<polygon fill="white" stroke="black" points="183,-56.5 183,-75.5 233,-75.5 233,-56.5 183,-56.5"/>
<text text-anchor="middle" x="208" y="-63.5" font-family="Helvetica,sans-Serif" font-size="10.00">global.h</text>
</a>
</g>
</g>
<!-- Node1&#45;&gt;Node6 -->
<g id="edge5" class="edge"><title>Node1&#45;&gt;Node6</title>
<path fill="none" stroke="midnightblue" d="M189.101,-112.498C192.723,-103.778 196.966,-93.5632 200.513,-85.0241"/>
<polygon fill="midnightblue" stroke="midnightblue" points="203.802,-86.2301 204.406,-75.6525 197.338,-83.5448 203.802,-86.2301"/>
</g>
<!-- Node9 -->
<g id="node9" class="node"><title>Node9</title>
<g id="a_node9"><a xlink:href="residues_8h.html" target="_top" xlink:title="residues.h">
<polygon fill="white" stroke="black" points="289,-56.5 289,-75.5 351,-75.5 351,-56.5 289,-56.5"/>
<text text-anchor="middle" x="320" y="-63.5" font-family="Helvetica,sans-Serif" font-size="10.00">residues.h</text>
</a>
</g>
</g>
<!-- Node1&#45;&gt;Node9 -->
<g id="edge12" class="edge"><title>Node1&#45;&gt;Node9</title>
<path fill="none" stroke="midnightblue" d="M222.705,-112.498C245.245,-101.957 272.456,-89.2326 292.364,-79.9235"/>
<polygon fill="midnightblue" stroke="midnightblue" points="293.921,-83.059 301.497,-75.6525 290.956,-76.7181 293.921,-83.059"/>
</g>
<!-- Node6&#45;&gt;Node2 -->
<g id="edge11" class="edge"><title>Node6&#45;&gt;Node2</title>
<path fill="none" stroke="midnightblue" d="M182.972,-57.4915C152.639,-48.3917 101.223,-32.967 65.9933,-22.398"/>
<polygon fill="midnightblue" stroke="midnightblue" points="66.6534,-18.942 56.0694,-19.4208 64.6419,-25.6468 66.6534,-18.942"/>
</g>
<!-- Node6&#45;&gt;Node3 -->
<g id="edge7" class="edge"><title>Node6&#45;&gt;Node3</title>
<path fill="none" stroke="midnightblue" d="M190.166,-56.324C172.284,-47.6247 144.525,-34.1202 123.954,-24.113"/>
<polygon fill="midnightblue" stroke="midnightblue" points="125.313,-20.8819 114.79,-19.6545 122.251,-27.1765 125.313,-20.8819"/>
</g>
<!-- Node6&#45;&gt;Node4 -->
<g id="edge8" class="edge"><title>Node6&#45;&gt;Node4</title>
<path fill="none" stroke="midnightblue" d="M200.404,-56.083C193.773,-48.2982 183.979,-36.8015 175.942,-27.3665"/>
<polygon fill="midnightblue" stroke="midnightblue" points="178.604,-25.0939 169.455,-19.7511 173.275,-29.6332 178.604,-25.0939"/>
</g>
<!-- Node6&#45;&gt;Node5 -->
<g id="edge9" class="edge"><title>Node6&#45;&gt;Node5</title>
<path fill="none" stroke="midnightblue" d="M232.402,-56.4435C258.197,-47.3986 299.077,-33.064 328.018,-22.9158"/>
<polygon fill="midnightblue" stroke="midnightblue" points="329.434,-26.1283 337.712,-19.5164 327.118,-19.5226 329.434,-26.1283"/>
</g>
<!-- Node7 -->
<g id="node7" class="node"><title>Node7</title>
<polygon fill="white" stroke="#bfbfbf" points="204,-0.5 204,-19.5 252,-19.5 252,-0.5 204,-0.5"/>
<text text-anchor="middle" x="228" y="-7.5" font-family="Helvetica,sans-Serif" font-size="10.00">limits.h</text>
</g>
<!-- Node6&#45;&gt;Node7 -->
<g id="edge6" class="edge"><title>Node6&#45;&gt;Node7</title>
<path fill="none" stroke="midnightblue" d="M211.303,-56.083C213.982,-48.8486 217.849,-38.4087 221.186,-29.3968"/>
<polygon fill="midnightblue" stroke="midnightblue" points="224.568,-30.3442 224.759,-19.7511 218.004,-27.9129 224.568,-30.3442"/>
</g>
<!-- Node8 -->
<g id="node8" class="node"><title>Node8</title>
<polygon fill="white" stroke="#bfbfbf" points="270.5,-0.5 270.5,-19.5 319.5,-19.5 319.5,-0.5 270.5,-0.5"/>
<text text-anchor="middle" x="295" y="-7.5" font-family="Helvetica,sans-Serif" font-size="10.00">stdint.h</text>
</g>
<!-- Node6&#45;&gt;Node8 -->
<g id="edge10" class="edge"><title>Node6&#45;&gt;Node8</title>
<path fill="none" stroke="midnightblue" d="M221.978,-56.324C235.55,-47.9002 256.38,-34.9709 272.325,-25.0741"/>
<polygon fill="midnightblue" stroke="midnightblue" points="274.406,-27.9019 281.057,-19.6545 270.714,-21.9544 274.406,-27.9019"/>
</g>
</g>
</svg>
