<?xml version="1.0" encoding="UTF-8" standalone="no"?>
<!DOCTYPE svg PUBLIC "-//W3C//DTD SVG 1.1//EN"
 "http://www.w3.org/Graphics/SVG/1.1/DTD/svg11.dtd">
<!-- Generated by graphviz version 2.38.0 (20140413.2041)
 -->
<!-- Title: /home/mignon/bioinfo/proteus/gitlab/proteus/residues.h Pages: 1 -->
<svg width="685pt" height="284pt"
 viewBox="0.00 0.00 685.00 284.00" xmlns="http://www.w3.org/2000/svg" xmlns:xlink="http://www.w3.org/1999/xlink">
<g id="graph0" class="graph" transform="scale(1 1) rotate(0) translate(4 280)">
<title>/home/mignon/bioinfo/proteus/gitlab/proteus/residues.h</title>
<polygon fill="white" stroke="none" points="-4,4 -4,-280 681,-280 681,4 -4,4"/>
<!-- Node1 -->
<g id="node1" class="node"><title>Node1</title>
<polygon fill="#bfbfbf" stroke="black" points="479,-234.5 479,-275.5 592,-275.5 592,-234.5 479,-234.5"/>
<text text-anchor="start" x="487" y="-263.5" font-family="Helvetica,sans-Serif" font-size="10.00">/home/mignon/bioinfo</text>
<text text-anchor="start" x="487" y="-252.5" font-family="Helvetica,sans-Serif" font-size="10.00">/proteus/gitlab/proteus</text>
<text text-anchor="middle" x="535.5" y="-241.5" font-family="Helvetica,sans-Serif" font-size="10.00">/residues.h</text>
</g>
<!-- Node2 -->
<g id="node2" class="node"><title>Node2</title>
<g id="a_node2"><a xlink:href="backbone_8h.html" target="_top" xlink:title="/home/mignon/bioinfo\l/proteus/gitlab/proteus\l/backbone.h">
<polygon fill="white" stroke="black" points="241,-156.5 241,-197.5 354,-197.5 354,-156.5 241,-156.5"/>
<text text-anchor="start" x="249" y="-185.5" font-family="Helvetica,sans-Serif" font-size="10.00">/home/mignon/bioinfo</text>
<text text-anchor="start" x="249" y="-174.5" font-family="Helvetica,sans-Serif" font-size="10.00">/proteus/gitlab/proteus</text>
<text text-anchor="middle" x="297.5" y="-163.5" font-family="Helvetica,sans-Serif" font-size="10.00">/backbone.h</text>
</a>
</g>
</g>
<!-- Node1&#45;&gt;Node2 -->
<g id="edge1" class="edge"><title>Node1&#45;&gt;Node2</title>
<path fill="none" stroke="midnightblue" d="M468.841,-232.714C432.74,-221.186 388.613,-207.095 354.182,-196.1"/>
<polygon fill="midnightblue" stroke="midnightblue" points="468.205,-236.185 478.795,-235.893 470.334,-229.517 468.205,-236.185"/>
</g>
<!-- Node9 -->
<g id="node9" class="node"><title>Node9</title>
<g id="a_node9"><a xlink:href="ener__cache_8c.html" target="_top" xlink:title="/home/mignon/bioinfo\l/proteus/gitlab/proteus\l/ener_cache.c">
<polygon fill="white" stroke="black" points="524,-0.5 524,-41.5 637,-41.5 637,-0.5 524,-0.5"/>
<text text-anchor="start" x="532" y="-29.5" font-family="Helvetica,sans-Serif" font-size="10.00">/home/mignon/bioinfo</text>
<text text-anchor="start" x="532" y="-18.5" font-family="Helvetica,sans-Serif" font-size="10.00">/proteus/gitlab/proteus</text>
<text text-anchor="middle" x="580.5" y="-7.5" font-family="Helvetica,sans-Serif" font-size="10.00">/ener_cache.c</text>
</a>
</g>
</g>
<!-- Node1&#45;&gt;Node9 -->
<g id="edge13" class="edge"><title>Node1&#45;&gt;Node9</title>
<path fill="none" stroke="midnightblue" d="M541.236,-224.409C545.005,-204.965 550.045,-178.968 554.5,-156 562.396,-115.288 571.647,-67.6184 576.71,-41.5286"/>
<polygon fill="midnightblue" stroke="midnightblue" points="537.751,-223.993 539.284,-234.476 544.623,-225.325 537.751,-223.993"/>
</g>
<!-- Node10 -->
<g id="node10" class="node"><title>Node10</title>
<g id="a_node10"><a xlink:href="residues_8c.html" target="_top" xlink:title="/home/mignon/bioinfo\l/proteus/gitlab/proteus\l/residues.c">
<polygon fill="white" stroke="black" points="564,-156.5 564,-197.5 677,-197.5 677,-156.5 564,-156.5"/>
<text text-anchor="start" x="572" y="-185.5" font-family="Helvetica,sans-Serif" font-size="10.00">/home/mignon/bioinfo</text>
<text text-anchor="start" x="572" y="-174.5" font-family="Helvetica,sans-Serif" font-size="10.00">/proteus/gitlab/proteus</text>
<text text-anchor="middle" x="620.5" y="-163.5" font-family="Helvetica,sans-Serif" font-size="10.00">/residues.c</text>
</a>
</g>
</g>
<!-- Node1&#45;&gt;Node10 -->
<g id="edge14" class="edge"><title>Node1&#45;&gt;Node10</title>
<path fill="none" stroke="midnightblue" d="M565.148,-227.492C576.178,-217.629 588.483,-206.627 598.685,-197.506"/>
<polygon fill="midnightblue" stroke="midnightblue" points="562.511,-225.154 557.39,-234.428 567.177,-230.372 562.511,-225.154"/>
</g>
<!-- Node3 -->
<g id="node3" class="node"><title>Node3</title>
<g id="a_node3"><a xlink:href="read__conf_8h.html" target="_top" xlink:title="/home/mignon/bioinfo\l/proteus/gitlab/proteus\l/read_conf.h">
<polygon fill="white" stroke="black" points="175,-78.5 175,-119.5 288,-119.5 288,-78.5 175,-78.5"/>
<text text-anchor="start" x="183" y="-107.5" font-family="Helvetica,sans-Serif" font-size="10.00">/home/mignon/bioinfo</text>
<text text-anchor="start" x="183" y="-96.5" font-family="Helvetica,sans-Serif" font-size="10.00">/proteus/gitlab/proteus</text>
<text text-anchor="middle" x="231.5" y="-85.5" font-family="Helvetica,sans-Serif" font-size="10.00">/read_conf.h</text>
</a>
</g>
</g>
<!-- Node2&#45;&gt;Node3 -->
<g id="edge2" class="edge"><title>Node2&#45;&gt;Node3</title>
<path fill="none" stroke="midnightblue" d="M273.729,-148.627C265.36,-138.99 256.13,-128.362 248.439,-119.506"/>
<polygon fill="midnightblue" stroke="midnightblue" points="271.304,-151.173 280.503,-156.428 276.589,-146.583 271.304,-151.173"/>
</g>
<!-- Node4 -->
<g id="node4" class="node"><title>Node4</title>
<g id="a_node4"><a xlink:href="backbone_8c.html" target="_top" xlink:title="/home/mignon/bioinfo\l/proteus/gitlab/proteus\l/backbone.c">
<polygon fill="white" stroke="black" points="0,-0.5 0,-41.5 113,-41.5 113,-0.5 0,-0.5"/>
<text text-anchor="start" x="8" y="-29.5" font-family="Helvetica,sans-Serif" font-size="10.00">/home/mignon/bioinfo</text>
<text text-anchor="start" x="8" y="-18.5" font-family="Helvetica,sans-Serif" font-size="10.00">/proteus/gitlab/proteus</text>
<text text-anchor="middle" x="56.5" y="-7.5" font-family="Helvetica,sans-Serif" font-size="10.00">/backbone.c</text>
</a>
</g>
</g>
<!-- Node2&#45;&gt;Node4 -->
<g id="edge7" class="edge"><title>Node2&#45;&gt;Node4</title>
<path fill="none" stroke="midnightblue" d="M231.359,-152.946C209.604,-144.073 185.806,-132.923 165.5,-120 130.077,-97.4561 95.0356,-63.2615 74.5993,-41.7998"/>
<polygon fill="midnightblue" stroke="midnightblue" points="230.28,-156.283 240.865,-156.733 232.871,-149.78 230.28,-156.283"/>
</g>
<!-- Node8 -->
<g id="node8" class="node"><title>Node8</title>
<g id="a_node8"><a xlink:href="read__ener_8h.html" target="_top" xlink:title="/home/mignon/bioinfo\l/proteus/gitlab/proteus\l/read_ener.h">
<polygon fill="white" stroke="black" points="306,-78.5 306,-119.5 419,-119.5 419,-78.5 306,-78.5"/>
<text text-anchor="start" x="314" y="-107.5" font-family="Helvetica,sans-Serif" font-size="10.00">/home/mignon/bioinfo</text>
<text text-anchor="start" x="314" y="-96.5" font-family="Helvetica,sans-Serif" font-size="10.00">/proteus/gitlab/proteus</text>
<text text-anchor="middle" x="362.5" y="-85.5" font-family="Helvetica,sans-Serif" font-size="10.00">/read_ener.h</text>
</a>
</g>
</g>
<!-- Node2&#45;&gt;Node8 -->
<g id="edge8" class="edge"><title>Node2&#45;&gt;Node8</title>
<path fill="none" stroke="midnightblue" d="M320.911,-148.627C329.153,-138.99 338.243,-128.362 345.818,-119.506"/>
<polygon fill="midnightblue" stroke="midnightblue" points="318.079,-146.554 314.239,-156.428 323.399,-151.103 318.079,-146.554"/>
</g>
<!-- Node3&#45;&gt;Node4 -->
<g id="edge3" class="edge"><title>Node3&#45;&gt;Node4</title>
<path fill="none" stroke="midnightblue" d="M176.995,-74.3291C152.712,-63.7835 124.457,-51.5129 101.414,-41.5056"/>
<polygon fill="midnightblue" stroke="midnightblue" points="175.867,-77.655 186.433,-78.4281 178.655,-71.2343 175.867,-77.655"/>
</g>
<!-- Node5 -->
<g id="node5" class="node"><title>Node5</title>
<g id="a_node5"><a xlink:href="proteus_8c.html" target="_top" xlink:title="/home/mignon/bioinfo\l/proteus/gitlab/proteus\l/proteus.c">
<polygon fill="white" stroke="black" points="131,-0.5 131,-41.5 244,-41.5 244,-0.5 131,-0.5"/>
<text text-anchor="start" x="139" y="-29.5" font-family="Helvetica,sans-Serif" font-size="10.00">/home/mignon/bioinfo</text>
<text text-anchor="start" x="139" y="-18.5" font-family="Helvetica,sans-Serif" font-size="10.00">/proteus/gitlab/proteus</text>
<text text-anchor="middle" x="187.5" y="-7.5" font-family="Helvetica,sans-Serif" font-size="10.00">/proteus.c</text>
</a>
</g>
</g>
<!-- Node3&#45;&gt;Node5 -->
<g id="edge4" class="edge"><title>Node3&#45;&gt;Node5</title>
<path fill="none" stroke="midnightblue" d="M215.149,-69.7571C209.705,-60.354 203.766,-50.096 198.793,-41.5056"/>
<polygon fill="midnightblue" stroke="midnightblue" points="212.129,-71.5275 220.169,-78.4281 218.187,-68.0202 212.129,-71.5275"/>
</g>
<!-- Node6 -->
<g id="node6" class="node"><title>Node6</title>
<g id="a_node6"><a xlink:href="read__conf_8c.html" target="_top" xlink:title="/home/mignon/bioinfo\l/proteus/gitlab/proteus\l/read_conf.c">
<polygon fill="white" stroke="black" points="262,-0.5 262,-41.5 375,-41.5 375,-0.5 262,-0.5"/>
<text text-anchor="start" x="270" y="-29.5" font-family="Helvetica,sans-Serif" font-size="10.00">/home/mignon/bioinfo</text>
<text text-anchor="start" x="270" y="-18.5" font-family="Helvetica,sans-Serif" font-size="10.00">/proteus/gitlab/proteus</text>
<text text-anchor="middle" x="318.5" y="-7.5" font-family="Helvetica,sans-Serif" font-size="10.00">/read_conf.c</text>
</a>
</g>
</g>
<!-- Node3&#45;&gt;Node6 -->
<g id="edge5" class="edge"><title>Node3&#45;&gt;Node6</title>
<path fill="none" stroke="midnightblue" d="M261.517,-71.7785C272.89,-61.8432 285.628,-50.7159 296.171,-41.5056"/>
<polygon fill="midnightblue" stroke="midnightblue" points="259.133,-69.2133 253.905,-78.4281 263.738,-74.4851 259.133,-69.2133"/>
</g>
<!-- Node7 -->
<g id="node7" class="node"><title>Node7</title>
<g id="a_node7"><a xlink:href="read__ener_8c.html" target="_top" xlink:title="/home/mignon/bioinfo\l/proteus/gitlab/proteus\l/read_ener.c">
<polygon fill="white" stroke="black" points="393,-0.5 393,-41.5 506,-41.5 506,-0.5 393,-0.5"/>
<text text-anchor="start" x="401" y="-29.5" font-family="Helvetica,sans-Serif" font-size="10.00">/home/mignon/bioinfo</text>
<text text-anchor="start" x="401" y="-18.5" font-family="Helvetica,sans-Serif" font-size="10.00">/proteus/gitlab/proteus</text>
<text text-anchor="middle" x="449.5" y="-7.5" font-family="Helvetica,sans-Serif" font-size="10.00">/read_ener.c</text>
</a>
</g>
</g>
<!-- Node3&#45;&gt;Node7 -->
<g id="edge6" class="edge"><title>Node3&#45;&gt;Node7</title>
<path fill="none" stroke="midnightblue" d="M297.398,-75.0264C328.087,-64.3275 364.209,-51.7343 393.55,-41.5056"/>
<polygon fill="midnightblue" stroke="midnightblue" points="295.931,-71.8312 287.64,-78.4281 298.235,-78.441 295.931,-71.8312"/>
</g>
<!-- Node8&#45;&gt;Node5 -->
<g id="edge10" class="edge"><title>Node8&#45;&gt;Node5</title>
<path fill="none" stroke="midnightblue" d="M307.995,-74.3291C283.712,-63.7835 255.457,-51.5129 232.414,-41.5056"/>
<polygon fill="midnightblue" stroke="midnightblue" points="306.867,-77.655 317.433,-78.4281 309.655,-71.2343 306.867,-77.655"/>
</g>
<!-- Node8&#45;&gt;Node6 -->
<g id="edge11" class="edge"><title>Node8&#45;&gt;Node6</title>
<path fill="none" stroke="midnightblue" d="M346.149,-69.7571C340.705,-60.354 334.766,-50.096 329.793,-41.5056"/>
<polygon fill="midnightblue" stroke="midnightblue" points="343.129,-71.5275 351.169,-78.4281 349.187,-68.0202 343.129,-71.5275"/>
</g>
<!-- Node8&#45;&gt;Node7 -->
<g id="edge12" class="edge"><title>Node8&#45;&gt;Node7</title>
<path fill="none" stroke="midnightblue" d="M392.517,-71.7785C403.89,-61.8432 416.628,-50.7159 427.171,-41.5056"/>
<polygon fill="midnightblue" stroke="midnightblue" points="390.133,-69.2133 384.905,-78.4281 394.738,-74.4851 390.133,-69.2133"/>
</g>
<!-- Node8&#45;&gt;Node9 -->
<g id="edge9" class="edge"><title>Node8&#45;&gt;Node9</title>
<path fill="none" stroke="midnightblue" d="M428.398,-75.0264C459.087,-64.3275 495.209,-51.7343 524.55,-41.5056"/>
<polygon fill="midnightblue" stroke="midnightblue" points="426.931,-71.8312 418.64,-78.4281 429.235,-78.441 426.931,-71.8312"/>
</g>
</g>
</svg>
