<?xml version="1.0" encoding="UTF-8" standalone="no"?>
<!DOCTYPE svg PUBLIC "-//W3C//DTD SVG 1.1//EN"
 "http://www.w3.org/Graphics/SVG/1.1/DTD/svg11.dtd">
<!-- Generated by graphviz version 2.38.0 (20140413.2041)
 -->
<!-- Title: cache Pages: 1 -->
<svg width="183pt" height="516pt"
 viewBox="0.00 0.00 183.00 516.00" xmlns="http://www.w3.org/2000/svg" xmlns:xlink="http://www.w3.org/1999/xlink">
<g id="graph0" class="graph" transform="scale(1 1) rotate(0) translate(4 512)">
<title>cache</title>
<polygon fill="white" stroke="none" points="-4,4 -4,-512 179,-512 179,4 -4,4"/>
<!-- Node1 -->
<g id="node1" class="node"><title>Node1</title>
<polygon fill="#bfbfbf" stroke="black" points="73,-0.5 73,-57.5 117,-57.5 117,-0.5 73,-0.5"/>
<text text-anchor="middle" x="95" y="-45.5" font-family="Helvetica,sans-Serif" font-size="10.00">cache</text>
<polyline fill="none" stroke="black" points="73,-38.5 117,-38.5 "/>
<text text-anchor="start" x="81" y="-26.5" font-family="Helvetica,sans-Serif" font-size="10.00">+ size</text>
<polyline fill="none" stroke="black" points="73,-19.5 117,-19.5 "/>
<text text-anchor="middle" x="95" y="-7.5" font-family="Helvetica,sans-Serif" font-size="10.00"> </text>
</g>
<!-- Node2 -->
<g id="node2" class="node"><title>Node2</title>
<g id="a_node2"><a xlink:href="structrequest__ring.html" target="_top" xlink:title="{request_ring\n|+ size\l+ last_inserted\l+ elements\l|}">
<polygon fill="white" stroke="black" points="5.5,-105.5 5.5,-184.5 86.5,-184.5 86.5,-105.5 5.5,-105.5"/>
<text text-anchor="middle" x="46" y="-172.5" font-family="Helvetica,sans-Serif" font-size="10.00">request_ring</text>
<polyline fill="none" stroke="black" points="5.5,-165.5 86.5,-165.5 "/>
<text text-anchor="start" x="13.5" y="-153.5" font-family="Helvetica,sans-Serif" font-size="10.00">+ size</text>
<text text-anchor="start" x="13.5" y="-142.5" font-family="Helvetica,sans-Serif" font-size="10.00">+ last_inserted</text>
<text text-anchor="start" x="13.5" y="-131.5" font-family="Helvetica,sans-Serif" font-size="10.00">+ elements</text>
<polyline fill="none" stroke="black" points="5.5,-124.5 86.5,-124.5 "/>
<text text-anchor="middle" x="46" y="-112.5" font-family="Helvetica,sans-Serif" font-size="10.00"> </text>
</a>
</g>
</g>
<!-- Node2&#45;&gt;Node1 -->
<g id="edge1" class="edge"><title>Node2&#45;&gt;Node1</title>
<path fill="none" stroke="#404040" d="M40.6655,-105.484C40.7069,-95.5504 42.0609,-85.1008 46,-76 49.9106,-66.965 56.5663,-58.8887 63.7327,-52.1207"/>
<polygon fill="none" stroke="#404040" points="63.7924,-52.0697 65.7551,-45.1308 72.9151,-44.2738 70.9524,-51.2127 63.7924,-52.0697"/>
<text text-anchor="middle" x="89" y="-79" font-family="Helvetica,sans-Serif" font-size="10.00"> +pending_requests</text>
</g>
<!-- Node3 -->
<g id="node3" class="node"><title>Node3</title>
<g id="a_node3"><a xlink:href="structrequest__t.html" target="_top" xlink:title="{request_t\n|+ status\l+ forwarded_request\l+ local_value\l+ content\l|}">
<polygon fill="white" stroke="black" points="0,-279.5 0,-369.5 106,-369.5 106,-279.5 0,-279.5"/>
<text text-anchor="middle" x="53" y="-357.5" font-family="Helvetica,sans-Serif" font-size="10.00">request_t</text>
<polyline fill="none" stroke="black" points="0,-350.5 106,-350.5 "/>
<text text-anchor="start" x="8" y="-338.5" font-family="Helvetica,sans-Serif" font-size="10.00">+ status</text>
<text text-anchor="start" x="8" y="-327.5" font-family="Helvetica,sans-Serif" font-size="10.00">+ forwarded_request</text>
<text text-anchor="start" x="8" y="-316.5" font-family="Helvetica,sans-Serif" font-size="10.00">+ local_value</text>
<text text-anchor="start" x="8" y="-305.5" font-family="Helvetica,sans-Serif" font-size="10.00">+ content</text>
<polyline fill="none" stroke="black" points="0,-298.5 106,-298.5 "/>
<text text-anchor="middle" x="53" y="-286.5" font-family="Helvetica,sans-Serif" font-size="10.00"> </text>
</a>
</g>
</g>
<!-- Node3&#45;&gt;Node2 -->
<g id="edge2" class="edge"><title>Node3&#45;&gt;Node2</title>
<path fill="none" stroke="#404040" d="M51.2517,-279.167C50.2668,-254.194 49.0326,-222.899 48.0082,-196.923"/>
<polygon fill="none" stroke="#404040" points="47.9972,-196.64 43.7638,-190.802 47.5242,-184.649 51.7576,-190.487 47.9972,-196.64"/>
<text text-anchor="middle" x="74.5" y="-229.5" font-family="Helvetica,sans-Serif" font-size="10.00"> +requests</text>
</g>
<!-- Node4 -->
<g id="node4" class="node"><title>Node4</title>
<g id="a_node4"><a xlink:href="structparam__t.html" target="_top" xlink:title="{param_t\n|+ pos1\l+ rot1\l+ pos2\l+ rot2\l|}">
<polygon fill="white" stroke="black" points="76,-417.5 76,-507.5 128,-507.5 128,-417.5 76,-417.5"/>
<text text-anchor="middle" x="102" y="-495.5" font-family="Helvetica,sans-Serif" font-size="10.00">param_t</text>
<polyline fill="none" stroke="black" points="76,-488.5 128,-488.5 "/>
<text text-anchor="start" x="84" y="-476.5" font-family="Helvetica,sans-Serif" font-size="10.00">+ pos1</text>
<text text-anchor="start" x="84" y="-465.5" font-family="Helvetica,sans-Serif" font-size="10.00">+ rot1</text>
<text text-anchor="start" x="84" y="-454.5" font-family="Helvetica,sans-Serif" font-size="10.00">+ pos2</text>
<text text-anchor="start" x="84" y="-443.5" font-family="Helvetica,sans-Serif" font-size="10.00">+ rot2</text>
<polyline fill="none" stroke="black" points="76,-436.5 128,-436.5 "/>
<text text-anchor="middle" x="102" y="-424.5" font-family="Helvetica,sans-Serif" font-size="10.00"> </text>
</a>
</g>
</g>
<!-- Node4&#45;&gt;Node3 -->
<g id="edge3" class="edge"><title>Node4&#45;&gt;Node3</title>
<path fill="none" stroke="#404040" d="M86.0911,-417.345C81.9404,-405.824 77.4131,-393.259 73.077,-381.224"/>
<polygon fill="none" stroke="#404040" points="73.0644,-381.189 67.2674,-376.9 68.9968,-369.899 74.7938,-374.188 73.0644,-381.189"/>
<text text-anchor="middle" x="91.5" y="-391" font-family="Helvetica,sans-Serif" font-size="10.00"> +key</text>
</g>
<!-- Node5 -->
<g id="node5" class="node"><title>Node5</title>
<g id="a_node5"><a xlink:href="structpair.html" target="_top" xlink:title="{pair\n|+ value\l|}">
<polygon fill="white" stroke="black" points="111.5,-203.5 111.5,-260.5 160.5,-260.5 160.5,-203.5 111.5,-203.5"/>
<text text-anchor="middle" x="136" y="-248.5" font-family="Helvetica,sans-Serif" font-size="10.00">pair</text>
<polyline fill="none" stroke="black" points="111.5,-241.5 160.5,-241.5 "/>
<text text-anchor="start" x="119.5" y="-229.5" font-family="Helvetica,sans-Serif" font-size="10.00">+ value</text>
<polyline fill="none" stroke="black" points="111.5,-222.5 160.5,-222.5 "/>
<text text-anchor="middle" x="136" y="-210.5" font-family="Helvetica,sans-Serif" font-size="10.00"> </text>
</a>
</g>
</g>
<!-- Node4&#45;&gt;Node5 -->
<g id="edge5" class="edge"><title>Node4&#45;&gt;Node5</title>
<path fill="none" stroke="#404040" d="M108.556,-417.443C114.785,-375.576 124.07,-313.176 130.081,-272.782"/>
<polygon fill="none" stroke="#404040" points="130.105,-272.617 127.032,-266.093 131.871,-260.747 134.945,-267.271 130.105,-272.617"/>
<text text-anchor="middle" x="131.5" y="-391" font-family="Helvetica,sans-Serif" font-size="10.00"> +param</text>
</g>
<!-- Node5&#45;&gt;Node1 -->
<g id="edge4" class="edge"><title>Node5&#45;&gt;Node1</title>
<path fill="none" stroke="#404040" d="M140.464,-203.412C144.449,-171.624 147.528,-118.33 132,-76 130.123,-70.8823 127.428,-65.9056 124.337,-61.2321"/>
<polygon fill="none" stroke="#404040" points="124.284,-61.1609 117.488,-58.7491 117.101,-51.5484 123.897,-53.9602 124.284,-61.1609"/>
<text text-anchor="middle" x="159.5" y="-142.5" font-family="Helvetica,sans-Serif" font-size="10.00"> +pairs</text>
</g>
</g>
</svg>
