<?xml version="1.0" encoding="UTF-8" standalone="no"?>
<!DOCTYPE svg PUBLIC "-//W3C//DTD SVG 1.1//EN"
 "http://www.w3.org/Graphics/SVG/1.1/DTD/svg11.dtd">
<!-- Generated by graphviz version 2.38.0 (20140413.2041)
 -->
<!-- Title: matrix_transition Pages: 1 -->
<svg width="180pt" height="364pt"
 viewBox="0.00 0.00 180.00 364.00" xmlns="http://www.w3.org/2000/svg" xmlns:xlink="http://www.w3.org/1999/xlink">
<g id="graph0" class="graph" transform="scale(1 1) rotate(0) translate(4 360)">
<title>matrix_transition</title>
<polygon fill="white" stroke="none" points="-4,4 -4,-360 176,-360 176,4 -4,4"/>
<!-- Node1 -->
<g id="node1" class="node"><title>Node1</title>
<polygon fill="#bfbfbf" stroke="black" points="28,-0.5 28,-79.5 130,-79.5 130,-0.5 28,-0.5"/>
<text text-anchor="middle" x="79" y="-67.5" font-family="Helvetica,sans-Serif" font-size="10.00">matrix_transition</text>
<polyline fill="none" stroke="black" points="28,-60.5 130,-60.5 "/>
<text text-anchor="start" x="36" y="-48.5" font-family="Helvetica,sans-Serif" font-size="10.00">+ list_name</text>
<text text-anchor="start" x="36" y="-37.5" font-family="Helvetica,sans-Serif" font-size="10.00">+ nb_grp</text>
<text text-anchor="start" x="36" y="-26.5" font-family="Helvetica,sans-Serif" font-size="10.00">+ nb_term_involved</text>
<polyline fill="none" stroke="black" points="28,-19.5 130,-19.5 "/>
<text text-anchor="middle" x="79" y="-7.5" font-family="Helvetica,sans-Serif" font-size="10.00"> </text>
</g>
<!-- Node2 -->
<g id="node2" class="node"><title>Node2</title>
<g id="a_node2"><a xlink:href="structexchange__grp.html" target="_top" xlink:title="{exchange_grp\n|+ name\l+ id_grp\l+ id_exchange\l+ nb_grp_allowed\l+ current_active\l+ previous_active\l|}">
<polygon fill="white" stroke="black" points="32,-127.5 32,-239.5 126,-239.5 126,-127.5 32,-127.5"/>
<text text-anchor="middle" x="79" y="-227.5" font-family="Helvetica,sans-Serif" font-size="10.00">exchange_grp</text>
<polyline fill="none" stroke="black" points="32,-220.5 126,-220.5 "/>
<text text-anchor="start" x="40" y="-208.5" font-family="Helvetica,sans-Serif" font-size="10.00">+ name</text>
<text text-anchor="start" x="40" y="-197.5" font-family="Helvetica,sans-Serif" font-size="10.00">+ id_grp</text>
<text text-anchor="start" x="40" y="-186.5" font-family="Helvetica,sans-Serif" font-size="10.00">+ id_exchange</text>
<text text-anchor="start" x="40" y="-175.5" font-family="Helvetica,sans-Serif" font-size="10.00">+ nb_grp_allowed</text>
<text text-anchor="start" x="40" y="-164.5" font-family="Helvetica,sans-Serif" font-size="10.00">+ current_active</text>
<text text-anchor="start" x="40" y="-153.5" font-family="Helvetica,sans-Serif" font-size="10.00">+ previous_active</text>
<polyline fill="none" stroke="black" points="32,-146.5 126,-146.5 "/>
<text text-anchor="middle" x="79" y="-134.5" font-family="Helvetica,sans-Serif" font-size="10.00"> </text>
</a>
</g>
</g>
<!-- Node2&#45;&gt;Node1 -->
<g id="edge1" class="edge"><title>Node2&#45;&gt;Node1</title>
<path fill="none" stroke="#404040" d="M79,-127.387C79,-115.648 79,-103.304 79,-91.7376"/>
<polygon fill="none" stroke="#404040" points="79.0001,-91.5574 75,-85.5574 79,-79.5574 83,-85.5574 79.0001,-91.5574"/>
<text text-anchor="middle" x="117" y="-101" font-family="Helvetica,sans-Serif" font-size="10.00"> +exchange_grps</text>
</g>
<!-- Node3 -->
<g id="node3" class="node"><title>Node3</title>
<g id="a_node3"><a xlink:href="structgrp__allowed.html" target="_top" xlink:title="{grp_allowed\n|+ name\l+ idx\l|}">
<polygon fill="white" stroke="black" points="0,-287.5 0,-355.5 68,-355.5 68,-287.5 0,-287.5"/>
<text text-anchor="middle" x="34" y="-343.5" font-family="Helvetica,sans-Serif" font-size="10.00">grp_allowed</text>
<polyline fill="none" stroke="black" points="0,-336.5 68,-336.5 "/>
<text text-anchor="start" x="8" y="-324.5" font-family="Helvetica,sans-Serif" font-size="10.00">+ name</text>
<text text-anchor="start" x="8" y="-313.5" font-family="Helvetica,sans-Serif" font-size="10.00">+ idx</text>
<polyline fill="none" stroke="black" points="0,-306.5 68,-306.5 "/>
<text text-anchor="middle" x="34" y="-294.5" font-family="Helvetica,sans-Serif" font-size="10.00"> </text>
</a>
</g>
</g>
<!-- Node3&#45;&gt;Node2 -->
<g id="edge2" class="edge"><title>Node3&#45;&gt;Node2</title>
<path fill="none" stroke="#404040" d="M31.341,-287.268C31.4245,-277.672 32.3521,-267.288 35,-258 35.6848,-255.598 36.4693,-253.194 37.3372,-250.8"/>
<polygon fill="none" stroke="#404040" points="37.3436,-250.784 35.9521,-243.709 41.9483,-239.703 43.3397,-246.779 37.3436,-250.784"/>
<text text-anchor="middle" x="68.5" y="-261" font-family="Helvetica,sans-Serif" font-size="10.00"> +grps_allowed</text>
</g>
<!-- Node4 -->
<g id="node4" class="node"><title>Node4</title>
<g id="a_node4"><a xlink:href="structlist__term__id.html" target="_top" xlink:title="{list_term_id\n|+ idx\l|}">
<polygon fill="white" stroke="black" points="90.5,-293 90.5,-350 157.5,-350 157.5,-293 90.5,-293"/>
<text text-anchor="middle" x="124" y="-338" font-family="Helvetica,sans-Serif" font-size="10.00">list_term_id</text>
<polyline fill="none" stroke="black" points="90.5,-331 157.5,-331 "/>
<text text-anchor="start" x="98.5" y="-319" font-family="Helvetica,sans-Serif" font-size="10.00">+ idx</text>
<polyline fill="none" stroke="black" points="90.5,-312 157.5,-312 "/>
<text text-anchor="middle" x="124" y="-300" font-family="Helvetica,sans-Serif" font-size="10.00"> </text>
</a>
</g>
</g>
<!-- Node4&#45;&gt;Node2 -->
<g id="edge3" class="edge"><title>Node4&#45;&gt;Node2</title>
<path fill="none" stroke="#404040" d="M114.894,-292.978C110.881,-280.852 105.975,-266.025 101.095,-251.276"/>
<polygon fill="none" stroke="#404040" points="100.974,-250.909 95.2912,-246.469 97.2039,-239.516 102.886,-243.956 100.974,-250.909"/>
<text text-anchor="middle" x="139.5" y="-261" font-family="Helvetica,sans-Serif" font-size="10.00"> +list_term_ids</text>
</g>
</g>
</svg>
