<?xml version="1.0" encoding="UTF-8" standalone="no"?>
<!DOCTYPE svg PUBLIC "-//W3C//DTD SVG 1.1//EN"
 "http://www.w3.org/Graphics/SVG/1.1/DTD/svg11.dtd">
<!-- Generated by graphviz version 2.38.0 (20140413.2041)
 -->
<!-- Title: group Pages: 1 -->
<svg width="144pt" height="375pt"
 viewBox="0.00 0.00 144.00 375.00" xmlns="http://www.w3.org/2000/svg" xmlns:xlink="http://www.w3.org/1999/xlink">
<g id="graph0" class="graph" transform="scale(1 1) rotate(0) translate(4 371)">
<title>group</title>
<polygon fill="white" stroke="none" points="-4,4 -4,-371 140,-371 140,4 -4,4"/>
<!-- Node1 -->
<g id="node1" class="node"><title>Node1</title>
<polygon fill="#bfbfbf" stroke="black" points="7.5,-0.5 7.5,-68.5 61.5,-68.5 61.5,-0.5 7.5,-0.5"/>
<text text-anchor="middle" x="34.5" y="-56.5" font-family="Helvetica,sans-Serif" font-size="10.00">group</text>
<polyline fill="none" stroke="black" points="7.5,-49.5 61.5,-49.5 "/>
<text text-anchor="start" x="15.5" y="-37.5" font-family="Helvetica,sans-Serif" font-size="10.00">+ name</text>
<text text-anchor="start" x="15.5" y="-26.5" font-family="Helvetica,sans-Serif" font-size="10.00">+ ins_nb</text>
<polyline fill="none" stroke="black" points="7.5,-19.5 61.5,-19.5 "/>
<text text-anchor="middle" x="34.5" y="-7.5" font-family="Helvetica,sans-Serif" font-size="10.00"> </text>
</g>
<!-- Node2 -->
<g id="node2" class="node"><title>Node2</title>
<g id="a_node2"><a xlink:href="struct_p_i.html" target="_top" xlink:title="{PI\n|+ id\l+ posi\l+ grp\l+ space\l+ rot_nb\l+ type_nb\l+ tot_rot_nb\l+ global_idx\l|}">
<polygon fill="white" stroke="black" points="0,-116.5 0,-250.5 69,-250.5 69,-116.5 0,-116.5"/>
<text text-anchor="middle" x="34.5" y="-238.5" font-family="Helvetica,sans-Serif" font-size="10.00">PI</text>
<polyline fill="none" stroke="black" points="0,-231.5 69,-231.5 "/>
<text text-anchor="start" x="8" y="-219.5" font-family="Helvetica,sans-Serif" font-size="10.00">+ id</text>
<text text-anchor="start" x="8" y="-208.5" font-family="Helvetica,sans-Serif" font-size="10.00">+ posi</text>
<text text-anchor="start" x="8" y="-197.5" font-family="Helvetica,sans-Serif" font-size="10.00">+ grp</text>
<text text-anchor="start" x="8" y="-186.5" font-family="Helvetica,sans-Serif" font-size="10.00">+ space</text>
<text text-anchor="start" x="8" y="-175.5" font-family="Helvetica,sans-Serif" font-size="10.00">+ rot_nb</text>
<text text-anchor="start" x="8" y="-164.5" font-family="Helvetica,sans-Serif" font-size="10.00">+ type_nb</text>
<text text-anchor="start" x="8" y="-153.5" font-family="Helvetica,sans-Serif" font-size="10.00">+ tot_rot_nb</text>
<text text-anchor="start" x="8" y="-142.5" font-family="Helvetica,sans-Serif" font-size="10.00">+ global_idx</text>
<polyline fill="none" stroke="black" points="0,-135.5 69,-135.5 "/>
<text text-anchor="middle" x="34.5" y="-123.5" font-family="Helvetica,sans-Serif" font-size="10.00"> </text>
</a>
</g>
</g>
<!-- Node2&#45;&gt;Node1 -->
<g id="edge1" class="edge"><title>Node2&#45;&gt;Node1</title>
<path fill="none" stroke="#404040" d="M34.5,-116.311C34.5,-104.351 34.5,-92.1305 34.5,-80.9329"/>
<polygon fill="none" stroke="#404040" points="34.5001,-80.7934 30.5,-74.7935 34.5,-68.7934 38.5,-74.7934 34.5001,-80.7934"/>
<text text-anchor="middle" x="45.5" y="-90" font-family="Helvetica,sans-Serif" font-size="10.00"> +ins</text>
</g>
<!-- Node2&#45;&gt;Node2 -->
<g id="edge3" class="edge"><title>Node2&#45;&gt;Node2</title>
<path fill="none" stroke="#404040" d="M69.0862,-200.325C79.1809,-199.743 87,-194.135 87,-183.5 87,-177.518 84.526,-173.126 80.5646,-170.325"/>
<polygon fill="none" stroke="#404040" points="80.5221,-170.312 73.5921,-172.306 69.0862,-166.675 76.0162,-164.682 80.5221,-170.312"/>
<text text-anchor="middle" x="111.5" y="-186.5" font-family="Helvetica,sans-Serif" font-size="10.00"> +dupl</text>
<text text-anchor="middle" x="111.5" y="-175.5" font-family="Helvetica,sans-Serif" font-size="10.00">+dupl_from</text>
</g>
<!-- Node3 -->
<g id="node3" class="node"><title>Node3</title>
<g id="a_node3"><a xlink:href="structins___proba.html" target="_top" xlink:title="Monte Carlo probabilities for a position instance. ">
<polygon fill="white" stroke="black" points="4.5,-298.5 4.5,-366.5 64.5,-366.5 64.5,-298.5 4.5,-298.5"/>
<text text-anchor="middle" x="34.5" y="-354.5" font-family="Helvetica,sans-Serif" font-size="10.00">ins_Proba</text>
<polyline fill="none" stroke="black" points="4.5,-347.5 64.5,-347.5 "/>
<text text-anchor="start" x="12.5" y="-335.5" font-family="Helvetica,sans-Serif" font-size="10.00">+ rot</text>
<text text-anchor="start" x="12.5" y="-324.5" font-family="Helvetica,sans-Serif" font-size="10.00">+ mut</text>
<polyline fill="none" stroke="black" points="4.5,-317.5 64.5,-317.5 "/>
<text text-anchor="middle" x="34.5" y="-305.5" font-family="Helvetica,sans-Serif" font-size="10.00"> </text>
</a>
</g>
</g>
<!-- Node3&#45;&gt;Node2 -->
<g id="edge2" class="edge"><title>Node3&#45;&gt;Node2</title>
<path fill="none" stroke="#404040" d="M34.5,-298.143C34.5,-287.597 34.5,-275.46 34.5,-263.13"/>
<polygon fill="none" stroke="#404040" points="34.5001,-262.787 30.5,-256.787 34.5,-250.787 38.5,-256.787 34.5001,-262.787"/>
<text text-anchor="middle" x="51.5" y="-272" font-family="Helvetica,sans-Serif" font-size="10.00"> +proba</text>
</g>
</g>
</svg>
