<?xml version="1.0" encoding="UTF-8" standalone="no"?>
<!DOCTYPE svg PUBLIC "-//W3C//DTD SVG 1.1//EN"
 "http://www.w3.org/Graphics/SVG/1.1/DTD/svg11.dtd">
<!-- Generated by graphviz version 2.38.0 (20140413.2041)
 -->
<!-- Title: opt_formula Pages: 1 -->
<svg width="86pt" height="226pt"
 viewBox="0.00 0.00 86.00 226.00" xmlns="http://www.w3.org/2000/svg" xmlns:xlink="http://www.w3.org/1999/xlink">
<g id="graph0" class="graph" transform="scale(1 1) rotate(0) translate(4 222)">
<title>opt_formula</title>
<polygon fill="white" stroke="none" points="-4,4 -4,-222 82,-222 82,4 -4,4"/>
<!-- Node1 -->
<g id="node1" class="node"><title>Node1</title>
<polygon fill="#bfbfbf" stroke="black" points="5,-0.5 5,-101.5 73,-101.5 73,-0.5 5,-0.5"/>
<text text-anchor="middle" x="39" y="-89.5" font-family="Helvetica,sans-Serif" font-size="10.00">opt_formula</text>
<polyline fill="none" stroke="black" points="5,-82.5 73,-82.5 "/>
<text text-anchor="start" x="13" y="-70.5" font-family="Helvetica,sans-Serif" font-size="10.00">+ string</text>
<text text-anchor="start" x="13" y="-59.5" font-family="Helvetica,sans-Serif" font-size="10.00">+ factor</text>
<text text-anchor="start" x="13" y="-48.5" font-family="Helvetica,sans-Serif" font-size="10.00">+ threshold</text>
<text text-anchor="start" x="13" y="-37.5" font-family="Helvetica,sans-Serif" font-size="10.00">+ core</text>
<text text-anchor="start" x="13" y="-26.5" font-family="Helvetica,sans-Serif" font-size="10.00">+ term_nb</text>
<polyline fill="none" stroke="black" points="5,-19.5 73,-19.5 "/>
<text text-anchor="middle" x="39" y="-7.5" font-family="Helvetica,sans-Serif" font-size="10.00"> </text>
</g>
<!-- Node2 -->
<g id="node2" class="node"><title>Node2</title>
<g id="a_node2"><a xlink:href="structterm.html" target="_top" xlink:title="term in a formula ">
<polygon fill="white" stroke="black" points="0,-149.5 0,-217.5 78,-217.5 78,-149.5 0,-149.5"/>
<text text-anchor="middle" x="39" y="-205.5" font-family="Helvetica,sans-Serif" font-size="10.00">term</text>
<polyline fill="none" stroke="black" points="0,-198.5 78,-198.5 "/>
<text text-anchor="start" x="8" y="-186.5" font-family="Helvetica,sans-Serif" font-size="10.00">+ factor</text>
<text text-anchor="start" x="8" y="-175.5" font-family="Helvetica,sans-Serif" font-size="10.00">+ grp_pair_idx</text>
<polyline fill="none" stroke="black" points="0,-168.5 78,-168.5 "/>
<text text-anchor="middle" x="39" y="-156.5" font-family="Helvetica,sans-Serif" font-size="10.00"> </text>
</a>
</g>
</g>
<!-- Node2&#45;&gt;Node1 -->
<g id="edge1" class="edge"><title>Node2&#45;&gt;Node1</title>
<path fill="none" stroke="#404040" d="M39,-149.232C39,-138.471 39,-126.168 39,-114.015"/>
<polygon fill="none" stroke="#404040" points="39.0001,-113.975 35,-107.975 39,-101.975 43,-107.975 39.0001,-113.975"/>
<text text-anchor="middle" x="56" y="-123" font-family="Helvetica,sans-Serif" font-size="10.00"> +terms</text>
</g>
</g>
</svg>
