<?xml version="1.0" encoding="UTF-8" standalone="no"?>
<!DOCTYPE svg PUBLIC "-//W3C//DTD SVG 1.1//EN"
 "http://www.w3.org/Graphics/SVG/1.1/DTD/svg11.dtd">
<!-- Generated by graphviz version 2.38.0 (20140413.2041)
 -->
<!-- Title: request_t Pages: 1 -->
<svg width="114pt" height="237pt"
 viewBox="0.00 0.00 114.00 237.00" xmlns="http://www.w3.org/2000/svg" xmlns:xlink="http://www.w3.org/1999/xlink">
<g id="graph0" class="graph" transform="scale(1 1) rotate(0) translate(4 233)">
<title>request_t</title>
<polygon fill="white" stroke="none" points="-4,4 -4,-233 110,-233 110,4 -4,4"/>
<!-- Node1 -->
<g id="node1" class="node"><title>Node1</title>
<polygon fill="#bfbfbf" stroke="black" points="-7.10543e-15,-0.5 -7.10543e-15,-90.5 106,-90.5 106,-0.5 -7.10543e-15,-0.5"/>
<text text-anchor="middle" x="53" y="-78.5" font-family="Helvetica,sans-Serif" font-size="10.00">request_t</text>
<polyline fill="none" stroke="black" points="-7.10543e-15,-71.5 106,-71.5 "/>
<text text-anchor="start" x="8" y="-59.5" font-family="Helvetica,sans-Serif" font-size="10.00">+ status</text>
<text text-anchor="start" x="8" y="-48.5" font-family="Helvetica,sans-Serif" font-size="10.00">+ forwarded_request</text>
<text text-anchor="start" x="8" y="-37.5" font-family="Helvetica,sans-Serif" font-size="10.00">+ local_value</text>
<text text-anchor="start" x="8" y="-26.5" font-family="Helvetica,sans-Serif" font-size="10.00">+ content</text>
<polyline fill="none" stroke="black" points="-7.10543e-15,-19.5 106,-19.5 "/>
<text text-anchor="middle" x="53" y="-7.5" font-family="Helvetica,sans-Serif" font-size="10.00"> </text>
</g>
<!-- Node2 -->
<g id="node2" class="node"><title>Node2</title>
<g id="a_node2"><a xlink:href="structparam__t.html" target="_top" xlink:title="{param_t\n|+ pos1\l+ rot1\l+ pos2\l+ rot2\l|}">
<polygon fill="white" stroke="black" points="27,-138.5 27,-228.5 79,-228.5 79,-138.5 27,-138.5"/>
<text text-anchor="middle" x="53" y="-216.5" font-family="Helvetica,sans-Serif" font-size="10.00">param_t</text>
<polyline fill="none" stroke="black" points="27,-209.5 79,-209.5 "/>
<text text-anchor="start" x="35" y="-197.5" font-family="Helvetica,sans-Serif" font-size="10.00">+ pos1</text>
<text text-anchor="start" x="35" y="-186.5" font-family="Helvetica,sans-Serif" font-size="10.00">+ rot1</text>
<text text-anchor="start" x="35" y="-175.5" font-family="Helvetica,sans-Serif" font-size="10.00">+ pos2</text>
<text text-anchor="start" x="35" y="-164.5" font-family="Helvetica,sans-Serif" font-size="10.00">+ rot2</text>
<polyline fill="none" stroke="black" points="27,-157.5 79,-157.5 "/>
<text text-anchor="middle" x="53" y="-145.5" font-family="Helvetica,sans-Serif" font-size="10.00"> </text>
</a>
</g>
</g>
<!-- Node2&#45;&gt;Node1 -->
<g id="edge1" class="edge"><title>Node2&#45;&gt;Node1</title>
<path fill="none" stroke="#404040" d="M53,-138.345C53,-127.062 53,-114.777 53,-102.969"/>
<polygon fill="none" stroke="#404040" points="53.0001,-102.899 49,-96.8992 53,-90.8992 57,-96.8991 53.0001,-102.899"/>
<text text-anchor="middle" x="65.5" y="-112" font-family="Helvetica,sans-Serif" font-size="10.00"> +key</text>
</g>
</g>
</svg>
