<?xml version="1.0" encoding="UTF-8" standalone="no"?>
<!DOCTYPE svg PUBLIC "-//W3C//DTD SVG 1.1//EN"
 "http://www.w3.org/Graphics/SVG/1.1/DTD/svg11.dtd">
<!-- Generated by graphviz version 2.38.0 (20140413.2041)
 -->
<!-- Title: exchange_grp Pages: 1 -->
<svg width="180pt" height="237pt"
 viewBox="0.00 0.00 180.00 237.00" xmlns="http://www.w3.org/2000/svg" xmlns:xlink="http://www.w3.org/1999/xlink">
<g id="graph0" class="graph" transform="scale(1 1) rotate(0) translate(4 233)">
<title>exchange_grp</title>
<polygon fill="white" stroke="none" points="-4,4 -4,-233 176,-233 176,4 -4,4"/>
<!-- Node1 -->
<g id="node1" class="node"><title>Node1</title>
<polygon fill="#bfbfbf" stroke="black" points="32,-0.5 32,-112.5 126,-112.5 126,-0.5 32,-0.5"/>
<text text-anchor="middle" x="79" y="-100.5" font-family="Helvetica,sans-Serif" font-size="10.00">exchange_grp</text>
<polyline fill="none" stroke="black" points="32,-93.5 126,-93.5 "/>
<text text-anchor="start" x="40" y="-81.5" font-family="Helvetica,sans-Serif" font-size="10.00">+ name</text>
<text text-anchor="start" x="40" y="-70.5" font-family="Helvetica,sans-Serif" font-size="10.00">+ id_grp</text>
<text text-anchor="start" x="40" y="-59.5" font-family="Helvetica,sans-Serif" font-size="10.00">+ id_exchange</text>
<text text-anchor="start" x="40" y="-48.5" font-family="Helvetica,sans-Serif" font-size="10.00">+ nb_grp_allowed</text>
<text text-anchor="start" x="40" y="-37.5" font-family="Helvetica,sans-Serif" font-size="10.00">+ current_active</text>
<text text-anchor="start" x="40" y="-26.5" font-family="Helvetica,sans-Serif" font-size="10.00">+ previous_active</text>
<polyline fill="none" stroke="black" points="32,-19.5 126,-19.5 "/>
<text text-anchor="middle" x="79" y="-7.5" font-family="Helvetica,sans-Serif" font-size="10.00"> </text>
</g>
<!-- Node2 -->
<g id="node2" class="node"><title>Node2</title>
<g id="a_node2"><a xlink:href="structgrp__allowed.html" target="_top" xlink:title="{grp_allowed\n|+ name\l+ idx\l|}">
<polygon fill="white" stroke="black" points="0,-160.5 0,-228.5 68,-228.5 68,-160.5 0,-160.5"/>
<text text-anchor="middle" x="34" y="-216.5" font-family="Helvetica,sans-Serif" font-size="10.00">grp_allowed</text>
<polyline fill="none" stroke="black" points="0,-209.5 68,-209.5 "/>
<text text-anchor="start" x="8" y="-197.5" font-family="Helvetica,sans-Serif" font-size="10.00">+ name</text>
<text text-anchor="start" x="8" y="-186.5" font-family="Helvetica,sans-Serif" font-size="10.00">+ idx</text>
<polyline fill="none" stroke="black" points="0,-179.5 68,-179.5 "/>
<text text-anchor="middle" x="34" y="-167.5" font-family="Helvetica,sans-Serif" font-size="10.00"> </text>
</a>
</g>
</g>
<!-- Node2&#45;&gt;Node1 -->
<g id="edge1" class="edge"><title>Node2&#45;&gt;Node1</title>
<path fill="none" stroke="#404040" d="M31.341,-160.268C31.4245,-150.672 32.3521,-140.288 35,-131 35.6848,-128.598 36.4693,-126.194 37.3372,-123.8"/>
<polygon fill="none" stroke="#404040" points="37.3436,-123.784 35.9521,-116.709 41.9483,-112.703 43.3397,-119.779 37.3436,-123.784"/>
<text text-anchor="middle" x="68.5" y="-134" font-family="Helvetica,sans-Serif" font-size="10.00"> +grps_allowed</text>
</g>
<!-- Node3 -->
<g id="node3" class="node"><title>Node3</title>
<g id="a_node3"><a xlink:href="structlist__term__id.html" target="_top" xlink:title="{list_term_id\n|+ idx\l|}">
<polygon fill="white" stroke="black" points="90.5,-166 90.5,-223 157.5,-223 157.5,-166 90.5,-166"/>
<text text-anchor="middle" x="124" y="-211" font-family="Helvetica,sans-Serif" font-size="10.00">list_term_id</text>
<polyline fill="none" stroke="black" points="90.5,-204 157.5,-204 "/>
<text text-anchor="start" x="98.5" y="-192" font-family="Helvetica,sans-Serif" font-size="10.00">+ idx</text>
<polyline fill="none" stroke="black" points="90.5,-185 157.5,-185 "/>
<text text-anchor="middle" x="124" y="-173" font-family="Helvetica,sans-Serif" font-size="10.00"> </text>
</a>
</g>
</g>
<!-- Node3&#45;&gt;Node1 -->
<g id="edge2" class="edge"><title>Node3&#45;&gt;Node1</title>
<path fill="none" stroke="#404040" d="M114.894,-165.978C110.881,-153.852 105.975,-139.025 101.095,-124.276"/>
<polygon fill="none" stroke="#404040" points="100.974,-123.909 95.2912,-119.469 97.2039,-112.516 102.886,-116.956 100.974,-123.909"/>
<text text-anchor="middle" x="139.5" y="-134" font-family="Helvetica,sans-Serif" font-size="10.00"> +list_term_ids</text>
</g>
</g>
</svg>
