<?xml version="1.0" encoding="UTF-8" standalone="no"?>
<!DOCTYPE svg PUBLIC "-//W3C//DTD SVG 1.1//EN"
 "http://www.w3.org/Graphics/SVG/1.1/DTD/svg11.dtd">
<!-- Generated by graphviz version 2.38.0 (20140413.2041)
 -->
<!-- Title: pair Pages: 1 -->
<svg width="71pt" height="204pt"
 viewBox="0.00 0.00 71.00 204.00" xmlns="http://www.w3.org/2000/svg" xmlns:xlink="http://www.w3.org/1999/xlink">
<g id="graph0" class="graph" transform="scale(1 1) rotate(0) translate(4 200)">
<title>pair</title>
<polygon fill="white" stroke="none" points="-4,4 -4,-200 67,-200 67,4 -4,4"/>
<!-- Node1 -->
<g id="node1" class="node"><title>Node1</title>
<polygon fill="#bfbfbf" stroke="black" points="1.5,-0.5 1.5,-57.5 50.5,-57.5 50.5,-0.5 1.5,-0.5"/>
<text text-anchor="middle" x="26" y="-45.5" font-family="Helvetica,sans-Serif" font-size="10.00">pair</text>
<polyline fill="none" stroke="black" points="1.5,-38.5 50.5,-38.5 "/>
<text text-anchor="start" x="9.5" y="-26.5" font-family="Helvetica,sans-Serif" font-size="10.00">+ value</text>
<polyline fill="none" stroke="black" points="1.5,-19.5 50.5,-19.5 "/>
<text text-anchor="middle" x="26" y="-7.5" font-family="Helvetica,sans-Serif" font-size="10.00"> </text>
</g>
<!-- Node2 -->
<g id="node2" class="node"><title>Node2</title>
<g id="a_node2"><a xlink:href="structparam__t.html" target="_top" xlink:title="{param_t\n|+ pos1\l+ rot1\l+ pos2\l+ rot2\l|}">
<polygon fill="white" stroke="black" points="0,-105.5 0,-195.5 52,-195.5 52,-105.5 0,-105.5"/>
<text text-anchor="middle" x="26" y="-183.5" font-family="Helvetica,sans-Serif" font-size="10.00">param_t</text>
<polyline fill="none" stroke="black" points="0,-176.5 52,-176.5 "/>
<text text-anchor="start" x="8" y="-164.5" font-family="Helvetica,sans-Serif" font-size="10.00">+ pos1</text>
<text text-anchor="start" x="8" y="-153.5" font-family="Helvetica,sans-Serif" font-size="10.00">+ rot1</text>
<text text-anchor="start" x="8" y="-142.5" font-family="Helvetica,sans-Serif" font-size="10.00">+ pos2</text>
<text text-anchor="start" x="8" y="-131.5" font-family="Helvetica,sans-Serif" font-size="10.00">+ rot2</text>
<polyline fill="none" stroke="black" points="0,-124.5 52,-124.5 "/>
<text text-anchor="middle" x="26" y="-112.5" font-family="Helvetica,sans-Serif" font-size="10.00"> </text>
</a>
</g>
</g>
<!-- Node2&#45;&gt;Node1 -->
<g id="edge1" class="edge"><title>Node2&#45;&gt;Node1</title>
<path fill="none" stroke="#404040" d="M26,-105.342C26,-93.7485 26,-81.3129 26,-69.9534"/>
<polygon fill="none" stroke="#404040" points="26.0001,-69.6879 22,-63.6879 26,-57.6879 30,-63.6878 26.0001,-69.6879"/>
<text text-anchor="middle" x="44.5" y="-79" font-family="Helvetica,sans-Serif" font-size="10.00"> +param</text>
</g>
</g>
</svg>
