<?xml version="1.0" encoding="UTF-8" standalone="no"?>
<!DOCTYPE svg PUBLIC "-//W3C//DTD SVG 1.1//EN"
 "http://www.w3.org/Graphics/SVG/1.1/DTD/svg11.dtd">
<!-- Generated by graphviz version 2.38.0 (20140413.2041)
 -->
<!-- Title: desc_conf Pages: 1 -->
<svg width="212pt" height="353pt"
 viewBox="0.00 0.00 211.50 353.00" xmlns="http://www.w3.org/2000/svg" xmlns:xlink="http://www.w3.org/1999/xlink">
<g id="graph0" class="graph" transform="scale(1 1) rotate(0) translate(4 349)">
<title>desc_conf</title>
<polygon fill="white" stroke="none" points="-4,4 -4,-349 207.5,-349 207.5,4 -4,4"/>
<!-- Node1 -->
<g id="node1" class="node"><title>Node1</title>
<polygon fill="#bfbfbf" stroke="black" points="24.5,-0.5 24.5,-112.5 116.5,-112.5 116.5,-0.5 24.5,-0.5"/>
<text text-anchor="middle" x="70.5" y="-100.5" font-family="Helvetica,sans-Serif" font-size="10.00">desc_conf</text>
<polyline fill="none" stroke="black" points="24.5,-93.5 116.5,-93.5 "/>
<text text-anchor="start" x="32.5" y="-81.5" font-family="Helvetica,sans-Serif" font-size="10.00">+ best_eners</text>
<text text-anchor="start" x="32.5" y="-70.5" font-family="Helvetica,sans-Serif" font-size="10.00">+ new_eners</text>
<text text-anchor="start" x="32.5" y="-59.5" font-family="Helvetica,sans-Serif" font-size="10.00">+ best_grp_eners</text>
<text text-anchor="start" x="32.5" y="-48.5" font-family="Helvetica,sans-Serif" font-size="10.00">+ grp_eners</text>
<text text-anchor="start" x="32.5" y="-37.5" font-family="Helvetica,sans-Serif" font-size="10.00">+ current_eners</text>
<text text-anchor="start" x="32.5" y="-26.5" font-family="Helvetica,sans-Serif" font-size="10.00">+ prev_eners</text>
<polyline fill="none" stroke="black" points="24.5,-19.5 116.5,-19.5 "/>
<text text-anchor="middle" x="70.5" y="-7.5" font-family="Helvetica,sans-Serif" font-size="10.00"> </text>
</g>
<!-- Node2 -->
<g id="node2" class="node"><title>Node2</title>
<g id="a_node2"><a xlink:href="structconformation.html" target="_top" xlink:title="{conformation\n|+ types\l+ rots\l|}">
<polygon fill="white" stroke="black" points="0,-160.5 0,-228.5 73,-228.5 73,-160.5 0,-160.5"/>
<text text-anchor="middle" x="36.5" y="-216.5" font-family="Helvetica,sans-Serif" font-size="10.00">conformation</text>
<polyline fill="none" stroke="black" points="0,-209.5 73,-209.5 "/>
<text text-anchor="start" x="8" y="-197.5" font-family="Helvetica,sans-Serif" font-size="10.00">+ types</text>
<text text-anchor="start" x="8" y="-186.5" font-family="Helvetica,sans-Serif" font-size="10.00">+ rots</text>
<polyline fill="none" stroke="black" points="0,-179.5 73,-179.5 "/>
<text text-anchor="middle" x="36.5" y="-167.5" font-family="Helvetica,sans-Serif" font-size="10.00"> </text>
</a>
</g>
</g>
<!-- Node2&#45;&gt;Node1 -->
<g id="edge1" class="edge"><title>Node2&#45;&gt;Node1</title>
<path fill="none" stroke="#404040" d="M44.8173,-160.231C47.5288,-149.385 50.6431,-136.928 53.7465,-124.514"/>
<polygon fill="none" stroke="#404040" points="53.7945,-124.322 51.3692,-117.531 56.705,-112.68 59.1303,-119.471 53.7945,-124.322"/>
<text text-anchor="middle" x="59" y="-134" font-family="Helvetica,sans-Serif" font-size="10.00"> +c</text>
</g>
<!-- Node3 -->
<g id="node3" class="node"><title>Node3</title>
<g id="a_node3"><a xlink:href="structgrp__ener__walker.html" target="_top" xlink:title="{grp_ener_walker\n|+ nb_grp\l|}">
<polygon fill="white" stroke="black" points="91.5,-166 91.5,-223 179.5,-223 179.5,-166 91.5,-166"/>
<text text-anchor="middle" x="135.5" y="-211" font-family="Helvetica,sans-Serif" font-size="10.00">grp_ener_walker</text>
<polyline fill="none" stroke="black" points="91.5,-204 179.5,-204 "/>
<text text-anchor="start" x="99.5" y="-192" font-family="Helvetica,sans-Serif" font-size="10.00">+ nb_grp</text>
<polyline fill="none" stroke="black" points="91.5,-185 179.5,-185 "/>
<text text-anchor="middle" x="135.5" y="-173" font-family="Helvetica,sans-Serif" font-size="10.00"> </text>
</a>
</g>
</g>
<!-- Node3&#45;&gt;Node1 -->
<g id="edge2" class="edge"><title>Node3&#45;&gt;Node1</title>
<path fill="none" stroke="#404040" d="M122.346,-165.978C116.436,-153.612 109.183,-138.437 101.996,-123.4"/>
<polygon fill="none" stroke="#404040" points="101.969,-123.343 95.7729,-119.655 96.7945,-112.516 102.991,-116.205 101.969,-123.343"/>
<text text-anchor="middle" x="153.5" y="-134" font-family="Helvetica,sans-Serif" font-size="10.00"> +grps_ener_walker</text>
</g>
<!-- Node4 -->
<g id="node4" class="node"><title>Node4</title>
<g id="a_node4"><a xlink:href="structgrp__type__bb.html" target="_top" xlink:title="{grp_type_bb\n|+ ener\l+ best_ener\l|}">
<polygon fill="white" stroke="black" points="100.5,-276.5 100.5,-344.5 170.5,-344.5 170.5,-276.5 100.5,-276.5"/>
<text text-anchor="middle" x="135.5" y="-332.5" font-family="Helvetica,sans-Serif" font-size="10.00">grp_type_bb</text>
<polyline fill="none" stroke="black" points="100.5,-325.5 170.5,-325.5 "/>
<text text-anchor="start" x="108.5" y="-313.5" font-family="Helvetica,sans-Serif" font-size="10.00">+ ener</text>
<text text-anchor="start" x="108.5" y="-302.5" font-family="Helvetica,sans-Serif" font-size="10.00">+ best_ener</text>
<polyline fill="none" stroke="black" points="100.5,-295.5 170.5,-295.5 "/>
<text text-anchor="middle" x="135.5" y="-283.5" font-family="Helvetica,sans-Serif" font-size="10.00"> </text>
</a>
</g>
</g>
<!-- Node4&#45;&gt;Node3 -->
<g id="edge3" class="edge"><title>Node4&#45;&gt;Node3</title>
<path fill="none" stroke="#404040" d="M135.5,-276.22C135.5,-263.47 135.5,-248.794 135.5,-235.481"/>
<polygon fill="none" stroke="#404040" points="135.5,-235.242 131.5,-229.242 135.5,-223.242 139.5,-229.242 135.5,-235.242"/>
<text text-anchor="middle" x="169.5" y="-250" font-family="Helvetica,sans-Serif" font-size="10.00"> +grps_type_bb</text>
</g>
</g>
</svg>
