<?xml version="1.0" encoding="UTF-8" standalone="no"?>
<!DOCTYPE svg PUBLIC "-//W3C//DTD SVG 1.1//EN"
 "http://www.w3.org/Graphics/SVG/1.1/DTD/svg11.dtd">
<!-- Generated by graphviz version 2.38.0 (20140413.2041)
 -->
<!-- Title: residue_ener Pages: 1 -->
<svg width="84pt" height="237pt"
 viewBox="0.00 0.00 84.00 237.00" xmlns="http://www.w3.org/2000/svg" xmlns:xlink="http://www.w3.org/1999/xlink">
<g id="graph0" class="graph" transform="scale(1 1) rotate(0) translate(4 233)">
<title>residue_ener</title>
<polygon fill="white" stroke="none" points="-4,4 -4,-233 80,-233 80,4 -4,4"/>
<!-- Node1 -->
<g id="node1" class="node"><title>Node1</title>
<polygon fill="#bfbfbf" stroke="black" points="0,-0.5 0,-101.5 76,-101.5 76,-0.5 0,-0.5"/>
<text text-anchor="middle" x="38" y="-89.5" font-family="Helvetica,sans-Serif" font-size="10.00">residue_ener</text>
<polyline fill="none" stroke="black" points="0,-82.5 76,-82.5 "/>
<text text-anchor="start" x="8" y="-70.5" font-family="Helvetica,sans-Serif" font-size="10.00">+ PDB_name</text>
<text text-anchor="start" x="8" y="-59.5" font-family="Helvetica,sans-Serif" font-size="10.00">+ PDB_posi</text>
<text text-anchor="start" x="8" y="-48.5" font-family="Helvetica,sans-Serif" font-size="10.00">+ chain</text>
<text text-anchor="start" x="8" y="-37.5" font-family="Helvetica,sans-Serif" font-size="10.00">+ fix</text>
<text text-anchor="start" x="8" y="-26.5" font-family="Helvetica,sans-Serif" font-size="10.00">+ rot_nb</text>
<polyline fill="none" stroke="black" points="0,-19.5 76,-19.5 "/>
<text text-anchor="middle" x="38" y="-7.5" font-family="Helvetica,sans-Serif" font-size="10.00"> </text>
</g>
<!-- Node2 -->
<g id="node2" class="node"><title>Node2</title>
<g id="a_node2"><a xlink:href="structrotamer.html" target="_top" xlink:title="{rotamer\n|+ id\l+ res_idx\l+ ener\l|}">
<polygon fill="white" stroke="black" points="9.5,-149.5 9.5,-228.5 66.5,-228.5 66.5,-149.5 9.5,-149.5"/>
<text text-anchor="middle" x="38" y="-216.5" font-family="Helvetica,sans-Serif" font-size="10.00">rotamer</text>
<polyline fill="none" stroke="black" points="9.5,-209.5 66.5,-209.5 "/>
<text text-anchor="start" x="17.5" y="-197.5" font-family="Helvetica,sans-Serif" font-size="10.00">+ id</text>
<text text-anchor="start" x="17.5" y="-186.5" font-family="Helvetica,sans-Serif" font-size="10.00">+ res_idx</text>
<text text-anchor="start" x="17.5" y="-175.5" font-family="Helvetica,sans-Serif" font-size="10.00">+ ener</text>
<polyline fill="none" stroke="black" points="9.5,-168.5 66.5,-168.5 "/>
<text text-anchor="middle" x="38" y="-156.5" font-family="Helvetica,sans-Serif" font-size="10.00"> </text>
</a>
</g>
</g>
<!-- Node2&#45;&gt;Node1 -->
<g id="edge1" class="edge"><title>Node2&#45;&gt;Node1</title>
<path fill="none" stroke="#404040" d="M38,-149.392C38,-138.434 38,-126.216 38,-114.238"/>
<polygon fill="none" stroke="#404040" points="38.0001,-113.905 34,-107.905 38,-101.905 42,-107.905 38.0001,-113.905"/>
<text text-anchor="middle" x="51" y="-123" font-family="Helvetica,sans-Serif" font-size="10.00"> +rots</text>
</g>
</g>
</svg>
