<?xml version="1.0" encoding="UTF-8" standalone="no"?>
<!DOCTYPE svg PUBLIC "-//W3C//DTD SVG 1.1//EN"
 "http://www.w3.org/Graphics/SVG/1.1/DTD/svg11.dtd">
<!-- Generated by graphviz version 2.38.0 (20140413.2041)
 -->
<!-- Title: request_ring Pages: 1 -->
<svg width="114pt" height="364pt"
 viewBox="0.00 0.00 114.00 364.00" xmlns="http://www.w3.org/2000/svg" xmlns:xlink="http://www.w3.org/1999/xlink">
<g id="graph0" class="graph" transform="scale(1 1) rotate(0) translate(4 360)">
<title>request_ring</title>
<polygon fill="white" stroke="none" points="-4,4 -4,-360 110,-360 110,4 -4,4"/>
<!-- Node1 -->
<g id="node1" class="node"><title>Node1</title>
<polygon fill="#bfbfbf" stroke="black" points="12.5,-0.5 12.5,-79.5 93.5,-79.5 93.5,-0.5 12.5,-0.5"/>
<text text-anchor="middle" x="53" y="-67.5" font-family="Helvetica,sans-Serif" font-size="10.00">request_ring</text>
<polyline fill="none" stroke="black" points="12.5,-60.5 93.5,-60.5 "/>
<text text-anchor="start" x="20.5" y="-48.5" font-family="Helvetica,sans-Serif" font-size="10.00">+ size</text>
<text text-anchor="start" x="20.5" y="-37.5" font-family="Helvetica,sans-Serif" font-size="10.00">+ last_inserted</text>
<text text-anchor="start" x="20.5" y="-26.5" font-family="Helvetica,sans-Serif" font-size="10.00">+ elements</text>
<polyline fill="none" stroke="black" points="12.5,-19.5 93.5,-19.5 "/>
<text text-anchor="middle" x="53" y="-7.5" font-family="Helvetica,sans-Serif" font-size="10.00"> </text>
</g>
<!-- Node2 -->
<g id="node2" class="node"><title>Node2</title>
<g id="a_node2"><a xlink:href="structrequest__t.html" target="_top" xlink:title="{request_t\n|+ status\l+ forwarded_request\l+ local_value\l+ content\l|}">
<polygon fill="white" stroke="black" points="-7.10543e-15,-127.5 -7.10543e-15,-217.5 106,-217.5 106,-127.5 -7.10543e-15,-127.5"/>
<text text-anchor="middle" x="53" y="-205.5" font-family="Helvetica,sans-Serif" font-size="10.00">request_t</text>
<polyline fill="none" stroke="black" points="-7.10543e-15,-198.5 106,-198.5 "/>
<text text-anchor="start" x="8" y="-186.5" font-family="Helvetica,sans-Serif" font-size="10.00">+ status</text>
<text text-anchor="start" x="8" y="-175.5" font-family="Helvetica,sans-Serif" font-size="10.00">+ forwarded_request</text>
<text text-anchor="start" x="8" y="-164.5" font-family="Helvetica,sans-Serif" font-size="10.00">+ local_value</text>
<text text-anchor="start" x="8" y="-153.5" font-family="Helvetica,sans-Serif" font-size="10.00">+ content</text>
<polyline fill="none" stroke="black" points="-7.10543e-15,-146.5 106,-146.5 "/>
<text text-anchor="middle" x="53" y="-134.5" font-family="Helvetica,sans-Serif" font-size="10.00"> </text>
</a>
</g>
</g>
<!-- Node2&#45;&gt;Node1 -->
<g id="edge1" class="edge"><title>Node2&#45;&gt;Node1</title>
<path fill="none" stroke="#404040" d="M53,-127.319C53,-116.024 53,-103.785 53,-92.1718"/>
<polygon fill="none" stroke="#404040" points="53.0001,-91.8892 49,-85.8893 53,-79.8892 57,-85.8892 53.0001,-91.8892"/>
<text text-anchor="middle" x="76.5" y="-101" font-family="Helvetica,sans-Serif" font-size="10.00"> +requests</text>
</g>
<!-- Node3 -->
<g id="node3" class="node"><title>Node3</title>
<g id="a_node3"><a xlink:href="structparam__t.html" target="_top" xlink:title="{param_t\n|+ pos1\l+ rot1\l+ pos2\l+ rot2\l|}">
<polygon fill="white" stroke="black" points="27,-265.5 27,-355.5 79,-355.5 79,-265.5 27,-265.5"/>
<text text-anchor="middle" x="53" y="-343.5" font-family="Helvetica,sans-Serif" font-size="10.00">param_t</text>
<polyline fill="none" stroke="black" points="27,-336.5 79,-336.5 "/>
<text text-anchor="start" x="35" y="-324.5" font-family="Helvetica,sans-Serif" font-size="10.00">+ pos1</text>
<text text-anchor="start" x="35" y="-313.5" font-family="Helvetica,sans-Serif" font-size="10.00">+ rot1</text>
<text text-anchor="start" x="35" y="-302.5" font-family="Helvetica,sans-Serif" font-size="10.00">+ pos2</text>
<text text-anchor="start" x="35" y="-291.5" font-family="Helvetica,sans-Serif" font-size="10.00">+ rot2</text>
<polyline fill="none" stroke="black" points="27,-284.5 79,-284.5 "/>
<text text-anchor="middle" x="53" y="-272.5" font-family="Helvetica,sans-Serif" font-size="10.00"> </text>
</a>
</g>
</g>
<!-- Node3&#45;&gt;Node2 -->
<g id="edge2" class="edge"><title>Node3&#45;&gt;Node2</title>
<path fill="none" stroke="#404040" d="M53,-265.345C53,-254.062 53,-241.777 53,-229.969"/>
<polygon fill="none" stroke="#404040" points="53.0001,-229.899 49,-223.899 53,-217.899 57,-223.899 53.0001,-229.899"/>
<text text-anchor="middle" x="65.5" y="-239" font-family="Helvetica,sans-Serif" font-size="10.00"> +key</text>
</g>
</g>
</svg>
