<?xml version="1.0" encoding="UTF-8" standalone="no"?>
<!DOCTYPE svg PUBLIC "-//W3C//DTD SVG 1.1//EN"
 "http://www.w3.org/Graphics/SVG/1.1/DTD/svg11.dtd">
<!-- Generated by graphviz version 2.38.0 (20140413.2041)
 -->
<!-- Title: bb_ener Pages: 1 -->
<svg width="93pt" height="364pt"
 viewBox="0.00 0.00 93.00 364.00" xmlns="http://www.w3.org/2000/svg" xmlns:xlink="http://www.w3.org/1999/xlink">
<g id="graph0" class="graph" transform="scale(1 1) rotate(0) translate(4 360)">
<title>bb_ener</title>
<polygon fill="white" stroke="none" points="-4,4 -4,-360 89,-360 89,4 -4,4"/>
<!-- Node1 -->
<g id="node1" class="node"><title>Node1</title>
<polygon fill="#bfbfbf" stroke="black" points="0,-0.5 0,-79.5 78,-79.5 78,-0.5 0,-0.5"/>
<text text-anchor="middle" x="39" y="-67.5" font-family="Helvetica,sans-Serif" font-size="10.00">bb_ener</text>
<polyline fill="none" stroke="black" points="0,-60.5 78,-60.5 "/>
<text text-anchor="start" x="8" y="-48.5" font-family="Helvetica,sans-Serif" font-size="10.00">+ grp_name</text>
<text text-anchor="start" x="8" y="-37.5" font-family="Helvetica,sans-Serif" font-size="10.00">+ chain_name</text>
<text text-anchor="start" x="8" y="-26.5" font-family="Helvetica,sans-Serif" font-size="10.00">+ size</text>
<polyline fill="none" stroke="black" points="0,-19.5 78,-19.5 "/>
<text text-anchor="middle" x="39" y="-7.5" font-family="Helvetica,sans-Serif" font-size="10.00"> </text>
</g>
<!-- Node2 -->
<g id="node2" class="node"><title>Node2</title>
<g id="a_node2"><a xlink:href="structresidue__ener.html" target="_top" xlink:title="{residue_ener\n|+ PDB_name\l+ PDB_posi\l+ chain\l+ fix\l+ rot_nb\l|}">
<polygon fill="white" stroke="black" points="1,-127.5 1,-228.5 77,-228.5 77,-127.5 1,-127.5"/>
<text text-anchor="middle" x="39" y="-216.5" font-family="Helvetica,sans-Serif" font-size="10.00">residue_ener</text>
<polyline fill="none" stroke="black" points="1,-209.5 77,-209.5 "/>
<text text-anchor="start" x="9" y="-197.5" font-family="Helvetica,sans-Serif" font-size="10.00">+ PDB_name</text>
<text text-anchor="start" x="9" y="-186.5" font-family="Helvetica,sans-Serif" font-size="10.00">+ PDB_posi</text>
<text text-anchor="start" x="9" y="-175.5" font-family="Helvetica,sans-Serif" font-size="10.00">+ chain</text>
<text text-anchor="start" x="9" y="-164.5" font-family="Helvetica,sans-Serif" font-size="10.00">+ fix</text>
<text text-anchor="start" x="9" y="-153.5" font-family="Helvetica,sans-Serif" font-size="10.00">+ rot_nb</text>
<polyline fill="none" stroke="black" points="1,-146.5 77,-146.5 "/>
<text text-anchor="middle" x="39" y="-134.5" font-family="Helvetica,sans-Serif" font-size="10.00"> </text>
</a>
</g>
</g>
<!-- Node2&#45;&gt;Node1 -->
<g id="edge1" class="edge"><title>Node2&#45;&gt;Node1</title>
<path fill="none" stroke="#404040" d="M39,-127.131C39,-115.662 39,-103.452 39,-91.9384"/>
<polygon fill="none" stroke="#404040" points="39.0001,-91.7873 35,-85.7873 39,-79.7873 43,-85.7873 39.0001,-91.7873"/>
<text text-anchor="middle" x="62" y="-101" font-family="Helvetica,sans-Serif" font-size="10.00"> +residues</text>
</g>
<!-- Node3 -->
<g id="node3" class="node"><title>Node3</title>
<g id="a_node3"><a xlink:href="structrotamer.html" target="_top" xlink:title="{rotamer\n|+ id\l+ res_idx\l+ ener\l|}">
<polygon fill="white" stroke="black" points="10.5,-276.5 10.5,-355.5 67.5,-355.5 67.5,-276.5 10.5,-276.5"/>
<text text-anchor="middle" x="39" y="-343.5" font-family="Helvetica,sans-Serif" font-size="10.00">rotamer</text>
<polyline fill="none" stroke="black" points="10.5,-336.5 67.5,-336.5 "/>
<text text-anchor="start" x="18.5" y="-324.5" font-family="Helvetica,sans-Serif" font-size="10.00">+ id</text>
<text text-anchor="start" x="18.5" y="-313.5" font-family="Helvetica,sans-Serif" font-size="10.00">+ res_idx</text>
<text text-anchor="start" x="18.5" y="-302.5" font-family="Helvetica,sans-Serif" font-size="10.00">+ ener</text>
<polyline fill="none" stroke="black" points="10.5,-295.5 67.5,-295.5 "/>
<text text-anchor="middle" x="39" y="-283.5" font-family="Helvetica,sans-Serif" font-size="10.00"> </text>
</a>
</g>
</g>
<!-- Node3&#45;&gt;Node2 -->
<g id="edge2" class="edge"><title>Node3&#45;&gt;Node2</title>
<path fill="none" stroke="#404040" d="M39,-276.392C39,-265.434 39,-253.216 39,-241.238"/>
<polygon fill="none" stroke="#404040" points="39.0001,-240.905 35,-234.905 39,-228.905 43,-234.905 39.0001,-240.905"/>
<text text-anchor="middle" x="52" y="-250" font-family="Helvetica,sans-Serif" font-size="10.00"> +rots</text>
</g>
</g>
</svg>
