<?xml version="1.0" encoding="UTF-8" standalone="no"?>
<!DOCTYPE svg PUBLIC "-//W3C//DTD SVG 1.1//EN"
 "http://www.w3.org/Graphics/SVG/1.1/DTD/svg11.dtd">
<!-- Generated by graphviz version 2.38.0 (20140413.2041)
 -->
<!-- Title: grp_ener_walker Pages: 1 -->
<svg width="120pt" height="182pt"
 viewBox="0.00 0.00 120.00 182.00" xmlns="http://www.w3.org/2000/svg" xmlns:xlink="http://www.w3.org/1999/xlink">
<g id="graph0" class="graph" transform="scale(1 1) rotate(0) translate(4 178)">
<title>grp_ener_walker</title>
<polygon fill="white" stroke="none" points="-4,4 -4,-178 116,-178 116,4 -4,4"/>
<!-- Node1 -->
<g id="node1" class="node"><title>Node1</title>
<polygon fill="#bfbfbf" stroke="black" points="-7.10543e-15,-0.5 -7.10543e-15,-57.5 88,-57.5 88,-0.5 -7.10543e-15,-0.5"/>
<text text-anchor="middle" x="44" y="-45.5" font-family="Helvetica,sans-Serif" font-size="10.00">grp_ener_walker</text>
<polyline fill="none" stroke="black" points="-7.10543e-15,-38.5 88,-38.5 "/>
<text text-anchor="start" x="8" y="-26.5" font-family="Helvetica,sans-Serif" font-size="10.00">+ nb_grp</text>
<polyline fill="none" stroke="black" points="-7.10543e-15,-19.5 88,-19.5 "/>
<text text-anchor="middle" x="44" y="-7.5" font-family="Helvetica,sans-Serif" font-size="10.00"> </text>
</g>
<!-- Node2 -->
<g id="node2" class="node"><title>Node2</title>
<g id="a_node2"><a xlink:href="structgrp__type__bb.html" target="_top" xlink:title="{grp_type_bb\n|+ ener\l+ best_ener\l|}">
<polygon fill="white" stroke="black" points="9,-105.5 9,-173.5 79,-173.5 79,-105.5 9,-105.5"/>
<text text-anchor="middle" x="44" y="-161.5" font-family="Helvetica,sans-Serif" font-size="10.00">grp_type_bb</text>
<polyline fill="none" stroke="black" points="9,-154.5 79,-154.5 "/>
<text text-anchor="start" x="17" y="-142.5" font-family="Helvetica,sans-Serif" font-size="10.00">+ ener</text>
<text text-anchor="start" x="17" y="-131.5" font-family="Helvetica,sans-Serif" font-size="10.00">+ best_ener</text>
<polyline fill="none" stroke="black" points="9,-124.5 79,-124.5 "/>
<text text-anchor="middle" x="44" y="-112.5" font-family="Helvetica,sans-Serif" font-size="10.00"> </text>
</a>
</g>
</g>
<!-- Node2&#45;&gt;Node1 -->
<g id="edge1" class="edge"><title>Node2&#45;&gt;Node1</title>
<path fill="none" stroke="#404040" d="M44,-105.357C44,-94.1899 44,-81.6093 44,-69.9724"/>
<polygon fill="none" stroke="#404040" points="44.0001,-69.827 40,-63.827 44,-57.827 48,-63.8269 44.0001,-69.827"/>
<text text-anchor="middle" x="78" y="-79" font-family="Helvetica,sans-Serif" font-size="10.00"> +grps_type_bb</text>
</g>
</g>
</svg>
