<?xml version="1.0" encoding="UTF-8" standalone="no"?>
<!DOCTYPE svg PUBLIC "-//W3C//DTD SVG 1.1//EN"
 "http://www.w3.org/Graphics/SVG/1.1/DTD/svg11.dtd">
<!-- Generated by graphviz version 2.38.0 (20140413.2041)
 -->
<!-- Title: neighbors Pages: 1 -->
<svg width="144pt" height="364pt"
 viewBox="0.00 0.00 144.00 364.00" xmlns="http://www.w3.org/2000/svg" xmlns:xlink="http://www.w3.org/1999/xlink">
<g id="graph0" class="graph" transform="scale(1 1) rotate(0) translate(4 360)">
<title>neighbors</title>
<polygon fill="white" stroke="none" points="-4,4 -4,-360 140,-360 140,4 -4,4"/>
<!-- Node1 -->
<g id="node1" class="node"><title>Node1</title>
<polygon fill="#bfbfbf" stroke="black" points="5,-0.5 5,-57.5 64,-57.5 64,-0.5 5,-0.5"/>
<text text-anchor="middle" x="34.5" y="-45.5" font-family="Helvetica,sans-Serif" font-size="10.00">neighbors</text>
<polyline fill="none" stroke="black" points="5,-38.5 64,-38.5 "/>
<text text-anchor="start" x="13" y="-26.5" font-family="Helvetica,sans-Serif" font-size="10.00">+ nb</text>
<polyline fill="none" stroke="black" points="5,-19.5 64,-19.5 "/>
<text text-anchor="middle" x="34.5" y="-7.5" font-family="Helvetica,sans-Serif" font-size="10.00"> </text>
</g>
<!-- Node2 -->
<g id="node2" class="node"><title>Node2</title>
<g id="a_node2"><a xlink:href="struct_p_i.html" target="_top" xlink:title="{PI\n|+ id\l+ posi\l+ grp\l+ space\l+ rot_nb\l+ type_nb\l+ tot_rot_nb\l+ global_idx\l|}">
<polygon fill="white" stroke="black" points="0,-105.5 0,-239.5 69,-239.5 69,-105.5 0,-105.5"/>
<text text-anchor="middle" x="34.5" y="-227.5" font-family="Helvetica,sans-Serif" font-size="10.00">PI</text>
<polyline fill="none" stroke="black" points="0,-220.5 69,-220.5 "/>
<text text-anchor="start" x="8" y="-208.5" font-family="Helvetica,sans-Serif" font-size="10.00">+ id</text>
<text text-anchor="start" x="8" y="-197.5" font-family="Helvetica,sans-Serif" font-size="10.00">+ posi</text>
<text text-anchor="start" x="8" y="-186.5" font-family="Helvetica,sans-Serif" font-size="10.00">+ grp</text>
<text text-anchor="start" x="8" y="-175.5" font-family="Helvetica,sans-Serif" font-size="10.00">+ space</text>
<text text-anchor="start" x="8" y="-164.5" font-family="Helvetica,sans-Serif" font-size="10.00">+ rot_nb</text>
<text text-anchor="start" x="8" y="-153.5" font-family="Helvetica,sans-Serif" font-size="10.00">+ type_nb</text>
<text text-anchor="start" x="8" y="-142.5" font-family="Helvetica,sans-Serif" font-size="10.00">+ tot_rot_nb</text>
<text text-anchor="start" x="8" y="-131.5" font-family="Helvetica,sans-Serif" font-size="10.00">+ global_idx</text>
<polyline fill="none" stroke="black" points="0,-124.5 69,-124.5 "/>
<text text-anchor="middle" x="34.5" y="-112.5" font-family="Helvetica,sans-Serif" font-size="10.00"> </text>
</a>
</g>
</g>
<!-- Node2&#45;&gt;Node1 -->
<g id="edge1" class="edge"><title>Node2&#45;&gt;Node1</title>
<path fill="none" stroke="#404040" d="M34.5,-105.307C34.5,-93.2099 34.5,-80.9342 34.5,-69.9027"/>
<polygon fill="none" stroke="#404040" points="34.5001,-69.6093 30.5,-63.6094 34.5,-57.6093 38.5,-63.6093 34.5001,-69.6093"/>
<text text-anchor="middle" x="59.5" y="-79" font-family="Helvetica,sans-Serif" font-size="10.00"> +members</text>
</g>
<!-- Node2&#45;&gt;Node2 -->
<g id="edge3" class="edge"><title>Node2&#45;&gt;Node2</title>
<path fill="none" stroke="#404040" d="M69.0862,-189.325C79.1809,-188.743 87,-183.135 87,-172.5 87,-166.518 84.526,-162.126 80.5646,-159.325"/>
<polygon fill="none" stroke="#404040" points="80.5221,-159.312 73.5921,-161.306 69.0862,-155.675 76.0162,-153.682 80.5221,-159.312"/>
<text text-anchor="middle" x="111.5" y="-175.5" font-family="Helvetica,sans-Serif" font-size="10.00"> +dupl</text>
<text text-anchor="middle" x="111.5" y="-164.5" font-family="Helvetica,sans-Serif" font-size="10.00">+dupl_from</text>
</g>
<!-- Node3 -->
<g id="node3" class="node"><title>Node3</title>
<g id="a_node3"><a xlink:href="structins___proba.html" target="_top" xlink:title="Monte Carlo probabilities for a position instance. ">
<polygon fill="white" stroke="black" points="4.5,-287.5 4.5,-355.5 64.5,-355.5 64.5,-287.5 4.5,-287.5"/>
<text text-anchor="middle" x="34.5" y="-343.5" font-family="Helvetica,sans-Serif" font-size="10.00">ins_Proba</text>
<polyline fill="none" stroke="black" points="4.5,-336.5 64.5,-336.5 "/>
<text text-anchor="start" x="12.5" y="-324.5" font-family="Helvetica,sans-Serif" font-size="10.00">+ rot</text>
<text text-anchor="start" x="12.5" y="-313.5" font-family="Helvetica,sans-Serif" font-size="10.00">+ mut</text>
<polyline fill="none" stroke="black" points="4.5,-306.5 64.5,-306.5 "/>
<text text-anchor="middle" x="34.5" y="-294.5" font-family="Helvetica,sans-Serif" font-size="10.00"> </text>
</a>
</g>
</g>
<!-- Node3&#45;&gt;Node2 -->
<g id="edge2" class="edge"><title>Node3&#45;&gt;Node2</title>
<path fill="none" stroke="#404040" d="M34.5,-287.143C34.5,-276.597 34.5,-264.46 34.5,-252.13"/>
<polygon fill="none" stroke="#404040" points="34.5001,-251.787 30.5,-245.787 34.5,-239.787 38.5,-245.787 34.5001,-251.787"/>
<text text-anchor="middle" x="51.5" y="-261" font-family="Helvetica,sans-Serif" font-size="10.00"> +proba</text>
</g>
</g>
</svg>
