<?xml version="1.0" encoding="UTF-8" standalone="no"?>
<!DOCTYPE svg PUBLIC "-//W3C//DTD SVG 1.1//EN"
 "http://www.w3.org/Graphics/SVG/1.1/DTD/svg11.dtd">
<!-- Generated by graphviz version 2.38.0 (20140413.2041)
 -->
<!-- Title: type Pages: 1 -->
<svg width="65pt" height="215pt"
 viewBox="0.00 0.00 65.00 215.00" xmlns="http://www.w3.org/2000/svg" xmlns:xlink="http://www.w3.org/1999/xlink">
<g id="graph0" class="graph" transform="scale(1 1) rotate(0) translate(4 211)">
<title>type</title>
<polygon fill="white" stroke="none" points="-4,4 -4,-211 61,-211 61,4 -4,4"/>
<!-- Node1 -->
<g id="node1" class="node"><title>Node1</title>
<polygon fill="#bfbfbf" stroke="black" points="0,-0.5 0,-79.5 57,-79.5 57,-0.5 0,-0.5"/>
<text text-anchor="middle" x="28.5" y="-67.5" font-family="Helvetica,sans-Serif" font-size="10.00">type</text>
<polyline fill="none" stroke="black" points="0,-60.5 57,-60.5 "/>
<text text-anchor="start" x="8" y="-48.5" font-family="Helvetica,sans-Serif" font-size="10.00">+ name</text>
<text text-anchor="start" x="8" y="-37.5" font-family="Helvetica,sans-Serif" font-size="10.00">+ name1l</text>
<text text-anchor="start" x="8" y="-26.5" font-family="Helvetica,sans-Serif" font-size="10.00">+ rot_nb</text>
<polyline fill="none" stroke="black" points="0,-19.5 57,-19.5 "/>
<text text-anchor="middle" x="28.5" y="-7.5" font-family="Helvetica,sans-Serif" font-size="10.00"> </text>
</g>
<!-- Node2 -->
<g id="node2" class="node"><title>Node2</title>
<g id="a_node2"><a xlink:href="structrotamer.html" target="_top" xlink:title="{rotamer\n|+ id\l+ res_idx\l+ ener\l|}">
<polygon fill="white" stroke="black" points="0,-127.5 0,-206.5 57,-206.5 57,-127.5 0,-127.5"/>
<text text-anchor="middle" x="28.5" y="-194.5" font-family="Helvetica,sans-Serif" font-size="10.00">rotamer</text>
<polyline fill="none" stroke="black" points="0,-187.5 57,-187.5 "/>
<text text-anchor="start" x="8" y="-175.5" font-family="Helvetica,sans-Serif" font-size="10.00">+ id</text>
<text text-anchor="start" x="8" y="-164.5" font-family="Helvetica,sans-Serif" font-size="10.00">+ res_idx</text>
<text text-anchor="start" x="8" y="-153.5" font-family="Helvetica,sans-Serif" font-size="10.00">+ ener</text>
<polyline fill="none" stroke="black" points="0,-146.5 57,-146.5 "/>
<text text-anchor="middle" x="28.5" y="-134.5" font-family="Helvetica,sans-Serif" font-size="10.00"> </text>
</a>
</g>
</g>
<!-- Node2&#45;&gt;Node1 -->
<g id="edge1" class="edge"><title>Node2&#45;&gt;Node1</title>
<path fill="none" stroke="#404040" d="M28.5,-127.476C28.5,-116.189 28.5,-103.672 28.5,-91.7479"/>
<polygon fill="none" stroke="#404040" points="28.5001,-91.6121 24.5,-85.6121 28.5,-79.6121 32.5,-85.612 28.5001,-91.6121"/>
<text text-anchor="middle" x="41.5" y="-101" font-family="Helvetica,sans-Serif" font-size="10.00"> +rots</text>
</g>
</g>
</svg>
