<?xml version="1.0" encoding="UTF-8" standalone="no"?>
<!DOCTYPE svg PUBLIC "-//W3C//DTD SVG 1.1//EN"
 "http://www.w3.org/Graphics/SVG/1.1/DTD/svg11.dtd">
<!-- Generated by graphviz version 2.38.0 (20140413.2041)
 -->
<!-- Title: ins_modif Pages: 1 -->
<svg width="144pt" height="386pt"
 viewBox="0.00 0.00 144.00 386.00" xmlns="http://www.w3.org/2000/svg" xmlns:xlink="http://www.w3.org/1999/xlink">
<g id="graph0" class="graph" transform="scale(1 1) rotate(0) translate(4 382)">
<title>ins_modif</title>
<polygon fill="white" stroke="none" points="-4,4 -4,-382 140,-382 140,4 -4,4"/>
<!-- Node1 -->
<g id="node1" class="node"><title>Node1</title>
<polygon fill="#bfbfbf" stroke="black" points="0.5,-0.5 0.5,-79.5 68.5,-79.5 68.5,-0.5 0.5,-0.5"/>
<text text-anchor="middle" x="34.5" y="-67.5" font-family="Helvetica,sans-Serif" font-size="10.00">ins_modif</text>
<polyline fill="none" stroke="black" points="0.5,-60.5 68.5,-60.5 "/>
<text text-anchor="start" x="8.5" y="-48.5" font-family="Helvetica,sans-Serif" font-size="10.00">+ rot_idx</text>
<text text-anchor="start" x="8.5" y="-37.5" font-family="Helvetica,sans-Serif" font-size="10.00">+ new_rot</text>
<text text-anchor="start" x="8.5" y="-26.5" font-family="Helvetica,sans-Serif" font-size="10.00">+ new_type</text>
<polyline fill="none" stroke="black" points="0.5,-19.5 68.5,-19.5 "/>
<text text-anchor="middle" x="34.5" y="-7.5" font-family="Helvetica,sans-Serif" font-size="10.00"> </text>
</g>
<!-- Node2 -->
<g id="node2" class="node"><title>Node2</title>
<g id="a_node2"><a xlink:href="struct_p_i.html" target="_top" xlink:title="{PI\n|+ id\l+ posi\l+ grp\l+ space\l+ rot_nb\l+ type_nb\l+ tot_rot_nb\l+ global_idx\l|}">
<polygon fill="white" stroke="black" points="0,-127.5 0,-261.5 69,-261.5 69,-127.5 0,-127.5"/>
<text text-anchor="middle" x="34.5" y="-249.5" font-family="Helvetica,sans-Serif" font-size="10.00">PI</text>
<polyline fill="none" stroke="black" points="0,-242.5 69,-242.5 "/>
<text text-anchor="start" x="8" y="-230.5" font-family="Helvetica,sans-Serif" font-size="10.00">+ id</text>
<text text-anchor="start" x="8" y="-219.5" font-family="Helvetica,sans-Serif" font-size="10.00">+ posi</text>
<text text-anchor="start" x="8" y="-208.5" font-family="Helvetica,sans-Serif" font-size="10.00">+ grp</text>
<text text-anchor="start" x="8" y="-197.5" font-family="Helvetica,sans-Serif" font-size="10.00">+ space</text>
<text text-anchor="start" x="8" y="-186.5" font-family="Helvetica,sans-Serif" font-size="10.00">+ rot_nb</text>
<text text-anchor="start" x="8" y="-175.5" font-family="Helvetica,sans-Serif" font-size="10.00">+ type_nb</text>
<text text-anchor="start" x="8" y="-164.5" font-family="Helvetica,sans-Serif" font-size="10.00">+ tot_rot_nb</text>
<text text-anchor="start" x="8" y="-153.5" font-family="Helvetica,sans-Serif" font-size="10.00">+ global_idx</text>
<polyline fill="none" stroke="black" points="0,-146.5 69,-146.5 "/>
<text text-anchor="middle" x="34.5" y="-134.5" font-family="Helvetica,sans-Serif" font-size="10.00"> </text>
</a>
</g>
</g>
<!-- Node2&#45;&gt;Node1 -->
<g id="edge1" class="edge"><title>Node2&#45;&gt;Node1</title>
<path fill="none" stroke="#404040" d="M34.5,-127.498C34.5,-115.557 34.5,-103.274 34.5,-91.8499"/>
<polygon fill="none" stroke="#404040" points="34.5001,-91.8474 30.5,-85.8475 34.5,-79.8474 38.5,-85.8474 34.5001,-91.8474"/>
<text text-anchor="middle" x="45.5" y="-101" font-family="Helvetica,sans-Serif" font-size="10.00"> +ins</text>
</g>
<!-- Node2&#45;&gt;Node2 -->
<g id="edge3" class="edge"><title>Node2&#45;&gt;Node2</title>
<path fill="none" stroke="#404040" d="M69.0862,-211.325C79.1809,-210.743 87,-205.135 87,-194.5 87,-188.518 84.526,-184.126 80.5646,-181.325"/>
<polygon fill="none" stroke="#404040" points="80.5221,-181.312 73.5921,-183.306 69.0862,-177.675 76.0162,-175.682 80.5221,-181.312"/>
<text text-anchor="middle" x="111.5" y="-197.5" font-family="Helvetica,sans-Serif" font-size="10.00"> +dupl</text>
<text text-anchor="middle" x="111.5" y="-186.5" font-family="Helvetica,sans-Serif" font-size="10.00">+dupl_from</text>
</g>
<!-- Node3 -->
<g id="node3" class="node"><title>Node3</title>
<g id="a_node3"><a xlink:href="structins___proba.html" target="_top" xlink:title="Monte Carlo probabilities for a position instance. ">
<polygon fill="white" stroke="black" points="4.5,-309.5 4.5,-377.5 64.5,-377.5 64.5,-309.5 4.5,-309.5"/>
<text text-anchor="middle" x="34.5" y="-365.5" font-family="Helvetica,sans-Serif" font-size="10.00">ins_Proba</text>
<polyline fill="none" stroke="black" points="4.5,-358.5 64.5,-358.5 "/>
<text text-anchor="start" x="12.5" y="-346.5" font-family="Helvetica,sans-Serif" font-size="10.00">+ rot</text>
<text text-anchor="start" x="12.5" y="-335.5" font-family="Helvetica,sans-Serif" font-size="10.00">+ mut</text>
<polyline fill="none" stroke="black" points="4.5,-328.5 64.5,-328.5 "/>
<text text-anchor="middle" x="34.5" y="-316.5" font-family="Helvetica,sans-Serif" font-size="10.00"> </text>
</a>
</g>
</g>
<!-- Node3&#45;&gt;Node2 -->
<g id="edge2" class="edge"><title>Node3&#45;&gt;Node2</title>
<path fill="none" stroke="#404040" d="M34.5,-309.143C34.5,-298.597 34.5,-286.46 34.5,-274.13"/>
<polygon fill="none" stroke="#404040" points="34.5001,-273.787 30.5,-267.787 34.5,-261.787 38.5,-267.787 34.5001,-273.787"/>
<text text-anchor="middle" x="51.5" y="-283" font-family="Helvetica,sans-Serif" font-size="10.00"> +proba</text>
</g>
</g>
</svg>
