<?xml version="1.0" encoding="UTF-8" standalone="no"?>
<!DOCTYPE svg PUBLIC "-//W3C//DTD SVG 1.1//EN"
 "http://www.w3.org/Graphics/SVG/1.1/DTD/svg11.dtd">
<!-- Generated by graphviz version 2.38.0 (20140413.2041)
 -->
<!-- Title: ins_modifs Pages: 1 -->
<!--zoomable 502 -->
<svg id="main" version="1.1" xmlns="http://www.w3.org/2000/svg" xmlns:xlink="http://www.w3.org/1999/xlink" xml:space="preserve" onload="init(evt)">
<style type="text/css"><![CDATA[
.edge:hover path { stroke: red; }
.edge:hover polygon { stroke: red; fill: red; }
]]></style>
<script type="text/javascript"><![CDATA[
var edges = document.getElementsByTagName('g');
if (edges && edges.length) {
  for (var i=0;i<edges.length;i++) {
    if (edges[i].id.substr(0,4)=='edge') {
      edges[i].setAttribute('class','edge');
    }
  }
}
]]></script>
        <defs>
                <circle id="rim" cx="0" cy="0" r="7"/>
                <circle id="rim2" cx="0" cy="0" r="3.5"/>
                <g id="zoomPlus">
                        <use xlink:href="#rim" fill="#404040">
                                <set attributeName="fill" to="#808080" begin="zoomplus.mouseover" end="zoomplus.mouseout"/>
                        </use>
                        <path d="M-4,0h8M0,-4v8" fill="none" stroke="white" stroke-width="1.5" pointer-events="none"/>
                </g>
                <g id="zoomMin">
                        <use xlink:href="#rim" fill="#404040">
                                <set attributeName="fill" to="#808080" begin="zoomminus.mouseover" end="zoomminus.mouseout"/>
                        </use>
                        <path d="M-4,0h8" fill="none" stroke="white" stroke-width="1.5" pointer-events="none"/>
                </g>
                <g id="dirArrow">
                        <path fill="none" stroke="white" stroke-width="1.5" d="M0,-3.0v7 M-2.5,-0.5L0,-3.0L2.5,-0.5"/>
                </g>
               <g id="resetDef">
                       <use xlink:href="#rim2" fill="#404040">
                               <set attributeName="fill" to="#808080" begin="reset.mouseover" end="reset.mouseout"/>
                       </use>
               </g>
        </defs>

<script type="text/javascript">
var viewWidth = 144;
var viewHeight = 502;
var sectionId = 'dynsection-0';
</script>
<script xlink:href="svgpan.js"/>
<svg id="graph" class="graph">
<g id="viewport">
<title>ins_modifs</title>
<polygon fill="white" stroke="none" points="-4,4 -4,-498 140,-498 140,4 -4,4"/>
<!-- Node1 -->
<g id="node1" class="node"><title>Node1</title>
<polygon fill="#bfbfbf" stroke="black" points="2.5,-0.5 2.5,-57.5 66.5,-57.5 66.5,-0.5 2.5,-0.5"/>
<text text-anchor="middle" x="34.5" y="-45.5" font-family="Helvetica,sans-Serif" font-size="10.00">ins_modifs</text>
<polyline fill="none" stroke="black" points="2.5,-38.5 66.5,-38.5 "/>
<text text-anchor="start" x="10.5" y="-26.5" font-family="Helvetica,sans-Serif" font-size="10.00">+ nb</text>
<polyline fill="none" stroke="black" points="2.5,-19.5 66.5,-19.5 "/>
<text text-anchor="middle" x="34.5" y="-7.5" font-family="Helvetica,sans-Serif" font-size="10.00"> </text>
</g>
<!-- Node2 -->
<g id="node2" class="node"><title>Node2</title>
<g id="a_node2"><a xlink:href="structins__modif.html" target="_top" xlink:title="{ins_modif\n|+ rot_idx\l+ new_rot\l+ new_type\l|}">
<polygon fill="white" stroke="black" points="0.5,-116.5 0.5,-195.5 68.5,-195.5 68.5,-116.5 0.5,-116.5"/>
<text text-anchor="middle" x="34.5" y="-183.5" font-family="Helvetica,sans-Serif" font-size="10.00">ins_modif</text>
<polyline fill="none" stroke="black" points="0.5,-176.5 68.5,-176.5 "/>
<text text-anchor="start" x="8.5" y="-164.5" font-family="Helvetica,sans-Serif" font-size="10.00">+ rot_idx</text>
<text text-anchor="start" x="8.5" y="-153.5" font-family="Helvetica,sans-Serif" font-size="10.00">+ new_rot</text>
<text text-anchor="start" x="8.5" y="-142.5" font-family="Helvetica,sans-Serif" font-size="10.00">+ new_type</text>
<polyline fill="none" stroke="black" points="0.5,-135.5 68.5,-135.5 "/>
<text text-anchor="middle" x="34.5" y="-123.5" font-family="Helvetica,sans-Serif" font-size="10.00"> </text>
</a>
</g>
</g>
<!-- Node2&#45;&gt;Node1 -->
<g id="edge1" class="edge"><title>Node2&#45;&gt;Node1</title>
<path fill="none" stroke="#404040" d="M34.5,-116.476C34.5,-101.829 34.5,-85.1107 34.5,-70.3031"/>
<polygon fill="none" stroke="#404040" points="34.5001,-69.8823 30.5,-63.8823 34.5,-57.8823 38.5,-63.8823 34.5001,-69.8823"/>
<text text-anchor="middle" x="45.5" y="-90" font-family="Helvetica,sans-Serif" font-size="10.00"> +inv</text>
<text text-anchor="middle" x="45.5" y="-79" font-family="Helvetica,sans-Serif" font-size="10.00">+list</text>
</g>
<!-- Node3 -->
<g id="node3" class="node"><title>Node3</title>
<g id="a_node3"><a xlink:href="struct_p_i.html" target="_top" xlink:title="{PI\n|+ id\l+ posi\l+ grp\l+ space\l+ rot_nb\l+ type_nb\l+ tot_rot_nb\l+ global_idx\l|}">
<polygon fill="white" stroke="black" points="0,-243.5 0,-377.5 69,-377.5 69,-243.5 0,-243.5"/>
<text text-anchor="middle" x="34.5" y="-365.5" font-family="Helvetica,sans-Serif" font-size="10.00">PI</text>
<polyline fill="none" stroke="black" points="0,-358.5 69,-358.5 "/>
<text text-anchor="start" x="8" y="-346.5" font-family="Helvetica,sans-Serif" font-size="10.00">+ id</text>
<text text-anchor="start" x="8" y="-335.5" font-family="Helvetica,sans-Serif" font-size="10.00">+ posi</text>
<text text-anchor="start" x="8" y="-324.5" font-family="Helvetica,sans-Serif" font-size="10.00">+ grp</text>
<text text-anchor="start" x="8" y="-313.5" font-family="Helvetica,sans-Serif" font-size="10.00">+ space</text>
<text text-anchor="start" x="8" y="-302.5" font-family="Helvetica,sans-Serif" font-size="10.00">+ rot_nb</text>
<text text-anchor="start" x="8" y="-291.5" font-family="Helvetica,sans-Serif" font-size="10.00">+ type_nb</text>
<text text-anchor="start" x="8" y="-280.5" font-family="Helvetica,sans-Serif" font-size="10.00">+ tot_rot_nb</text>
<text text-anchor="start" x="8" y="-269.5" font-family="Helvetica,sans-Serif" font-size="10.00">+ global_idx</text>
<polyline fill="none" stroke="black" points="0,-262.5 69,-262.5 "/>
<text text-anchor="middle" x="34.5" y="-250.5" font-family="Helvetica,sans-Serif" font-size="10.00"> </text>
</a>
</g>
</g>
<!-- Node3&#45;&gt;Node2 -->
<g id="edge2" class="edge"><title>Node3&#45;&gt;Node2</title>
<path fill="none" stroke="#404040" d="M34.5,-243.498C34.5,-231.557 34.5,-219.274 34.5,-207.85"/>
<polygon fill="none" stroke="#404040" points="34.5001,-207.847 30.5,-201.847 34.5,-195.847 38.5,-201.847 34.5001,-207.847"/>
<text text-anchor="middle" x="45.5" y="-217" font-family="Helvetica,sans-Serif" font-size="10.00"> +ins</text>
</g>
<!-- Node3&#45;&gt;Node3 -->
<g id="edge4" class="edge"><title>Node3&#45;&gt;Node3</title>
<path fill="none" stroke="#404040" d="M69.0862,-327.325C79.1809,-326.743 87,-321.135 87,-310.5 87,-304.518 84.526,-300.126 80.5646,-297.325"/>
<polygon fill="none" stroke="#404040" points="80.5221,-297.312 73.5921,-299.306 69.0862,-293.675 76.0162,-291.682 80.5221,-297.312"/>
<text text-anchor="middle" x="111.5" y="-313.5" font-family="Helvetica,sans-Serif" font-size="10.00"> +dupl</text>
<text text-anchor="middle" x="111.5" y="-302.5" font-family="Helvetica,sans-Serif" font-size="10.00">+dupl_from</text>
</g>
<!-- Node4 -->
<g id="node4" class="node"><title>Node4</title>
<g id="a_node4"><a xlink:href="structins___proba.html" target="_top" xlink:title="Monte Carlo probabilities for a position instance. ">
<polygon fill="white" stroke="black" points="4.5,-425.5 4.5,-493.5 64.5,-493.5 64.5,-425.5 4.5,-425.5"/>
<text text-anchor="middle" x="34.5" y="-481.5" font-family="Helvetica,sans-Serif" font-size="10.00">ins_Proba</text>
<polyline fill="none" stroke="black" points="4.5,-474.5 64.5,-474.5 "/>
<text text-anchor="start" x="12.5" y="-462.5" font-family="Helvetica,sans-Serif" font-size="10.00">+ rot</text>
<text text-anchor="start" x="12.5" y="-451.5" font-family="Helvetica,sans-Serif" font-size="10.00">+ mut</text>
<polyline fill="none" stroke="black" points="4.5,-444.5 64.5,-444.5 "/>
<text text-anchor="middle" x="34.5" y="-432.5" font-family="Helvetica,sans-Serif" font-size="10.00"> </text>
</a>
</g>
</g>
<!-- Node4&#45;&gt;Node3 -->
<g id="edge3" class="edge"><title>Node4&#45;&gt;Node3</title>
<path fill="none" stroke="#404040" d="M34.5,-425.143C34.5,-414.597 34.5,-402.46 34.5,-390.13"/>
<polygon fill="none" stroke="#404040" points="34.5001,-389.787 30.5,-383.787 34.5,-377.787 38.5,-383.787 34.5001,-389.787"/>
<text text-anchor="middle" x="51.5" y="-399" font-family="Helvetica,sans-Serif" font-size="10.00"> +proba</text>
</g>
</g>
</svg>
        <g id="navigator" transform="translate(0 0)" fill="#404254">
                <rect fill="#f2f5e9" fill-opacity="0.5" stroke="#606060" stroke-width=".5" x="0" y="0" width="60" height="60"/>
                <use id="zoomplus" xlink:href="#zoomPlus" x="17" y="9" onmousedown="handleZoom(evt,'in')"/>
                <use id="zoomminus" xlink:href="#zoomMin" x="42" y="9" onmousedown="handleZoom(evt,'out')"/>
                <use id="reset" xlink:href="#resetDef" x="30" y="36" onmousedown="handleReset()"/>
                <g id="arrowUp" xlink:href="#dirArrow" transform="translate(30 24)" onmousedown="handlePan(0,-1)">
                  <use xlink:href="#rim" fill="#404040">
                        <set attributeName="fill" to="#808080" begin="arrowUp.mouseover" end="arrowUp.mouseout"/>
                  </use>
                  <path fill="none" stroke="white" stroke-width="1.5" d="M0,-3.0v7 M-2.5,-0.5L0,-3.0L2.5,-0.5"/>
                </g>
                <g id="arrowRight" xlink:href="#dirArrow" transform="rotate(90) translate(36 -43)" onmousedown="handlePan(1,0)">
                  <use xlink:href="#rim" fill="#404040">
                        <set attributeName="fill" to="#808080" begin="arrowRight.mouseover" end="arrowRight.mouseout"/>
                  </use>
                  <path fill="none" stroke="white" stroke-width="1.5" d="M0,-3.0v7 M-2.5,-0.5L0,-3.0L2.5,-0.5"/>
                </g>
                <g id="arrowDown" xlink:href="#dirArrow" transform="rotate(180) translate(-30 -48)" onmousedown="handlePan(0,1)">
                  <use xlink:href="#rim" fill="#404040">
                        <set attributeName="fill" to="#808080" begin="arrowDown.mouseover" end="arrowDown.mouseout"/>
                  </use>
                  <path fill="none" stroke="white" stroke-width="1.5" d="M0,-3.0v7 M-2.5,-0.5L0,-3.0L2.5,-0.5"/>
                </g>
                <g id="arrowLeft" xlink:href="#dirArrow" transform="rotate(270) translate(-36 17)" onmousedown="handlePan(-1,0)">
                  <use xlink:href="#rim" fill="#404040">
                        <set attributeName="fill" to="#808080" begin="arrowLeft.mouseover" end="arrowLeft.mouseout"/>
                  </use>
                  <path fill="none" stroke="white" stroke-width="1.5" d="M0,-3.0v7 M-2.5,-0.5L0,-3.0L2.5,-0.5"/>
                </g>
        </g>
        <svg viewBox="0 0 15 15" width="100%" height="30px" preserveAspectRatio="xMaxYMin meet">
         <g id="arrow_out" transform="scale(0.3 0.3)">
          <a xlink:href="structins__modifs__coll__graph_org.svg" target="_base">
           <rect id="button" ry="5" rx="5" y="6" x="6" height="38" width="38"
                fill="#f2f5e9" fill-opacity="0.5" stroke="#606060" stroke-width="1.0"/>
           <path id="arrow"
             d="M 11.500037,31.436501 C 11.940474,20.09759 22.043105,11.32322 32.158766,21.979434 L 37.068811,17.246167 C 37.068811,17.246167 37.088388,32 37.088388,32 L 22.160133,31.978069 C 22.160133,31.978069 26.997745,27.140456 26.997745,27.140456 C 18.528582,18.264221 13.291696,25.230495 11.500037,31.436501 z"
             style="fill:#404040;"/>
          </a>
         </g>
        </svg>
</svg>
