<?xml version="1.0" encoding="UTF-8" standalone="no"?>
<!DOCTYPE svg PUBLIC "-//W3C//DTD SVG 1.1//EN"
 "http://www.w3.org/Graphics/SVG/1.1/DTD/svg11.dtd">
<!-- Generated by graphviz version 2.38.0 (20140413.2041)
 -->
<!-- Title: residue Pages: 1 -->
<svg width="84pt" height="386pt"
 viewBox="0.00 0.00 84.00 386.00" xmlns="http://www.w3.org/2000/svg" xmlns:xlink="http://www.w3.org/1999/xlink">
<g id="graph0" class="graph" transform="scale(1 1) rotate(0) translate(4 382)">
<title>residue</title>
<polygon fill="white" stroke="none" points="-4,4 -4,-382 80,-382 80,4 -4,4"/>
<!-- Node1 -->
<g id="node1" class="node"><title>Node1</title>
<polygon fill="#bfbfbf" stroke="black" points="0,-0.5 0,-123.5 76,-123.5 76,-0.5 0,-0.5"/>
<text text-anchor="middle" x="38" y="-111.5" font-family="Helvetica,sans-Serif" font-size="10.00">residue</text>
<polyline fill="none" stroke="black" points="0,-104.5 76,-104.5 "/>
<text text-anchor="start" x="8" y="-92.5" font-family="Helvetica,sans-Serif" font-size="10.00">+ PDB_posi</text>
<text text-anchor="start" x="8" y="-81.5" font-family="Helvetica,sans-Serif" font-size="10.00">+ PDB_name</text>
<text text-anchor="start" x="8" y="-70.5" font-family="Helvetica,sans-Serif" font-size="10.00">+ chain</text>
<text text-anchor="start" x="8" y="-59.5" font-family="Helvetica,sans-Serif" font-size="10.00">+ fix</text>
<text text-anchor="start" x="8" y="-48.5" font-family="Helvetica,sans-Serif" font-size="10.00">+ type_nb</text>
<text text-anchor="start" x="8" y="-37.5" font-family="Helvetica,sans-Serif" font-size="10.00">+ rot_nb</text>
<text text-anchor="start" x="8" y="-26.5" font-family="Helvetica,sans-Serif" font-size="10.00">+ global_idx</text>
<polyline fill="none" stroke="black" points="0,-19.5 76,-19.5 "/>
<text text-anchor="middle" x="38" y="-7.5" font-family="Helvetica,sans-Serif" font-size="10.00"> </text>
</g>
<!-- Node2 -->
<g id="node2" class="node"><title>Node2</title>
<g id="a_node2"><a xlink:href="structtype.html" target="_top" xlink:title="{type\n|+ name\l+ name1l\l+ rot_nb\l|}">
<polygon fill="white" stroke="black" points="9.5,-171.5 9.5,-250.5 66.5,-250.5 66.5,-171.5 9.5,-171.5"/>
<text text-anchor="middle" x="38" y="-238.5" font-family="Helvetica,sans-Serif" font-size="10.00">type</text>
<polyline fill="none" stroke="black" points="9.5,-231.5 66.5,-231.5 "/>
<text text-anchor="start" x="17.5" y="-219.5" font-family="Helvetica,sans-Serif" font-size="10.00">+ name</text>
<text text-anchor="start" x="17.5" y="-208.5" font-family="Helvetica,sans-Serif" font-size="10.00">+ name1l</text>
<text text-anchor="start" x="17.5" y="-197.5" font-family="Helvetica,sans-Serif" font-size="10.00">+ rot_nb</text>
<polyline fill="none" stroke="black" points="9.5,-190.5 66.5,-190.5 "/>
<text text-anchor="middle" x="38" y="-178.5" font-family="Helvetica,sans-Serif" font-size="10.00"> </text>
</a>
</g>
</g>
<!-- Node2&#45;&gt;Node1 -->
<g id="edge1" class="edge"><title>Node2&#45;&gt;Node1</title>
<path fill="none" stroke="#404040" d="M38,-171.377C38,-160.404 38,-148.08 38,-135.783"/>
<polygon fill="none" stroke="#404040" points="38.0001,-135.546 34,-129.546 38,-123.546 42,-129.546 38.0001,-135.546"/>
<text text-anchor="middle" x="55" y="-145" font-family="Helvetica,sans-Serif" font-size="10.00"> +types</text>
</g>
<!-- Node3 -->
<g id="node3" class="node"><title>Node3</title>
<g id="a_node3"><a xlink:href="structrotamer.html" target="_top" xlink:title="{rotamer\n|+ id\l+ res_idx\l+ ener\l|}">
<polygon fill="white" stroke="black" points="9.5,-298.5 9.5,-377.5 66.5,-377.5 66.5,-298.5 9.5,-298.5"/>
<text text-anchor="middle" x="38" y="-365.5" font-family="Helvetica,sans-Serif" font-size="10.00">rotamer</text>
<polyline fill="none" stroke="black" points="9.5,-358.5 66.5,-358.5 "/>
<text text-anchor="start" x="17.5" y="-346.5" font-family="Helvetica,sans-Serif" font-size="10.00">+ id</text>
<text text-anchor="start" x="17.5" y="-335.5" font-family="Helvetica,sans-Serif" font-size="10.00">+ res_idx</text>
<text text-anchor="start" x="17.5" y="-324.5" font-family="Helvetica,sans-Serif" font-size="10.00">+ ener</text>
<polyline fill="none" stroke="black" points="9.5,-317.5 66.5,-317.5 "/>
<text text-anchor="middle" x="38" y="-305.5" font-family="Helvetica,sans-Serif" font-size="10.00"> </text>
</a>
</g>
</g>
<!-- Node3&#45;&gt;Node2 -->
<g id="edge2" class="edge"><title>Node3&#45;&gt;Node2</title>
<path fill="none" stroke="#404040" d="M38,-298.476C38,-287.189 38,-274.672 38,-262.748"/>
<polygon fill="none" stroke="#404040" points="38.0001,-262.612 34,-256.612 38,-250.612 42,-256.612 38.0001,-262.612"/>
<text text-anchor="middle" x="51" y="-272" font-family="Helvetica,sans-Serif" font-size="10.00"> +rots</text>
</g>
</g>
</svg>
