<?xml version="1.0" encoding="UTF-8" standalone="no"?>
<!DOCTYPE svg PUBLIC "-//W3C//DTD SVG 1.1//EN"
 "http://www.w3.org/Graphics/SVG/1.1/DTD/svg11.dtd">
<!-- Generated by graphviz version 2.38.0 (20140413.2041)
 -->
<!-- Title: PI Pages: 1 -->
<svg width="144pt" height="259pt"
 viewBox="0.00 0.00 144.00 259.00" xmlns="http://www.w3.org/2000/svg" xmlns:xlink="http://www.w3.org/1999/xlink">
<g id="graph0" class="graph" transform="scale(1 1) rotate(0) translate(4 255)">
<title>PI</title>
<polygon fill="white" stroke="none" points="-4,4 -4,-255 140,-255 140,4 -4,4"/>
<!-- Node1 -->
<g id="node1" class="node"><title>Node1</title>
<polygon fill="#bfbfbf" stroke="black" points="0,-0.5 0,-134.5 69,-134.5 69,-0.5 0,-0.5"/>
<text text-anchor="middle" x="34.5" y="-122.5" font-family="Helvetica,sans-Serif" font-size="10.00">PI</text>
<polyline fill="none" stroke="black" points="0,-115.5 69,-115.5 "/>
<text text-anchor="start" x="8" y="-103.5" font-family="Helvetica,sans-Serif" font-size="10.00">+ id</text>
<text text-anchor="start" x="8" y="-92.5" font-family="Helvetica,sans-Serif" font-size="10.00">+ posi</text>
<text text-anchor="start" x="8" y="-81.5" font-family="Helvetica,sans-Serif" font-size="10.00">+ grp</text>
<text text-anchor="start" x="8" y="-70.5" font-family="Helvetica,sans-Serif" font-size="10.00">+ space</text>
<text text-anchor="start" x="8" y="-59.5" font-family="Helvetica,sans-Serif" font-size="10.00">+ rot_nb</text>
<text text-anchor="start" x="8" y="-48.5" font-family="Helvetica,sans-Serif" font-size="10.00">+ type_nb</text>
<text text-anchor="start" x="8" y="-37.5" font-family="Helvetica,sans-Serif" font-size="10.00">+ tot_rot_nb</text>
<text text-anchor="start" x="8" y="-26.5" font-family="Helvetica,sans-Serif" font-size="10.00">+ global_idx</text>
<polyline fill="none" stroke="black" points="0,-19.5 69,-19.5 "/>
<text text-anchor="middle" x="34.5" y="-7.5" font-family="Helvetica,sans-Serif" font-size="10.00"> </text>
</g>
<!-- Node1&#45;&gt;Node1 -->
<g id="edge2" class="edge"><title>Node1&#45;&gt;Node1</title>
<path fill="none" stroke="#404040" d="M69.0862,-84.3245C79.1809,-83.7429 87,-78.1348 87,-67.5 87,-61.5179 84.526,-57.1263 80.5646,-54.3252"/>
<polygon fill="none" stroke="#404040" points="80.5221,-54.3117 73.5921,-56.3055 69.0862,-50.6755 76.0162,-48.6816 80.5221,-54.3117"/>
<text text-anchor="middle" x="111.5" y="-70.5" font-family="Helvetica,sans-Serif" font-size="10.00"> +dupl</text>
<text text-anchor="middle" x="111.5" y="-59.5" font-family="Helvetica,sans-Serif" font-size="10.00">+dupl_from</text>
</g>
<!-- Node2 -->
<g id="node2" class="node"><title>Node2</title>
<g id="a_node2"><a xlink:href="structins___proba.html" target="_top" xlink:title="Monte Carlo probabilities for a position instance. ">
<polygon fill="white" stroke="black" points="4.5,-182.5 4.5,-250.5 64.5,-250.5 64.5,-182.5 4.5,-182.5"/>
<text text-anchor="middle" x="34.5" y="-238.5" font-family="Helvetica,sans-Serif" font-size="10.00">ins_Proba</text>
<polyline fill="none" stroke="black" points="4.5,-231.5 64.5,-231.5 "/>
<text text-anchor="start" x="12.5" y="-219.5" font-family="Helvetica,sans-Serif" font-size="10.00">+ rot</text>
<text text-anchor="start" x="12.5" y="-208.5" font-family="Helvetica,sans-Serif" font-size="10.00">+ mut</text>
<polyline fill="none" stroke="black" points="4.5,-201.5 64.5,-201.5 "/>
<text text-anchor="middle" x="34.5" y="-189.5" font-family="Helvetica,sans-Serif" font-size="10.00"> </text>
</a>
</g>
</g>
<!-- Node2&#45;&gt;Node1 -->
<g id="edge1" class="edge"><title>Node2&#45;&gt;Node1</title>
<path fill="none" stroke="#404040" d="M34.5,-182.143C34.5,-171.597 34.5,-159.46 34.5,-147.13"/>
<polygon fill="none" stroke="#404040" points="34.5001,-146.787 30.5,-140.787 34.5,-134.787 38.5,-140.787 34.5001,-146.787"/>
<text text-anchor="middle" x="51.5" y="-156" font-family="Helvetica,sans-Serif" font-size="10.00"> +proba</text>
</g>
</g>
</svg>
