<?xml version="1.0" encoding="UTF-8" standalone="no"?>
<svg
   xmlns:dc="http://purl.org/dc/elements/1.1/"
   xmlns:cc="http://creativecommons.org/ns#"
   xmlns:rdf="http://www.w3.org/1999/02/22-rdf-syntax-ns#"
   xmlns:svg="http://www.w3.org/2000/svg"
   xmlns="http://www.w3.org/2000/svg"
   viewBox="0 0 760.5958 287.9407"
   version="1.1"
   id="svg6422"
   height="505.02985"
   width="759.67133">
  <defs
     id="defs6424" />
  <metadata
     id="metadata6427">
    <rdf:RDF>
      <cc:Work
         rdf:about="">
        <dc:format>image/svg+xml</dc:format>
        <dc:type
           rdf:resource="http://purl.org/dc/dcmitype/StillImage" />
        <dc:title></dc:title>
      </cc:Work>
    </rdf:RDF>
  </metadata>
  <g
     transform="translate(9.5835981,-73.774622)"
     id="layer1">
    <rect
       y="7.3712573"
       x="1.4376472"
       height="443.55328"
       width="738.55328"
       id="rect7040"
       style="fill:#ffffff;fill-opacity:1;stroke:#ffffff;stroke-width:2.01815176;stroke-linejoin:round;stroke-miterlimit:4;stroke-opacity:1;stroke-dasharray:none;stroke-dashoffset:0" />
    <path
       id="path6430"
       d="m 108.28066,16.464478 0,351.794272"
       style="fill:none;stroke:#000000;stroke-width:1.07168996px;stroke-linecap:butt;stroke-linejoin:miter;stroke-opacity:1" />
    <path
       id="path6432"
       d="M 738.23949,364.78261 108.4663,367.39465"
       style="fill:none;stroke:#000000;stroke-width:1px;stroke-linecap:butt;stroke-linejoin:miter;stroke-opacity:1" />
    <path
       id="path6438"
       d="m 118.18785,168.47871 c 1.01015,-1.34687 1.68359,-5.05077 3.03046,-4.04061 1.34687,1.01015 -4.22094,5.23108 -3.03046,4.04061 1.52455,-1.52456 2.51605,-3.52621 4.04061,-5.05077 2.09004,-2.09004 -0.0817,3.19386 2.0203,-1.01015 0.69668,-1.39336 -1.22335,-0.90355 1.01016,-2.0203 0.30116,-0.15059 0.77205,0.23809 1.01015,0 0.23809,-0.2381 -0.2381,-0.77206 0,-1.01016 0.23809,-0.23809 0.67343,0 1.01015,0 0.33672,0 0.67344,0 1.01015,0 0.33672,0 1.01016,-0.33671 1.01016,0 0,1.43105 -4.71405,-2.8621 1.01015,0 0.10798,0.054 -0.2093,3.83131 0,4.04061 0.23809,0.2381 0.77206,-0.23809 1.01015,0 0.2381,0.2381 -0.23809,0.77206 0,1.01016 0.2381,0.23809 0.77206,-0.2381 1.01015,0 0.2381,0.23809 -0.15058,0.70898 0,1.01015 0.21296,0.42592 0.7972,0.58423 1.01016,1.01015 0.15058,0.30117 0,0.67344 0,1.01015 0,0.33672 0,0.67344 0,1.01016 0,0.33671 0.33671,1.01015 0,1.01015 -0.33672,0 0,-1.34687 0,-1.01015 0,0.67343 -0.30117,1.41796 0,2.0203 0.15058,0.30117 0.77205,-0.23809 1.01015,0 0.23809,0.2381 -0.2381,0.77206 0,1.01015 0.47619,0.47619 1.54411,-0.47619 2.0203,0 0.2381,0.2381 -0.23809,0.77206 0,1.01016 0.2381,0.23809 0.77206,-0.2381 1.01016,0 0.23809,0.23809 -0.2381,0.77205 0,1.01015 0.23809,0.23809 0.77205,0.23809 1.01015,0 0.23809,-0.2381 -0.33672,-1.01015 0,-1.01015 1.43105,0 -2.8621,4.71404 0,-1.01016 0.15058,-0.30117 1.01015,-0.33671 1.01015,0 0,0.33672 -1.34687,0 -1.01015,0 0.67343,0 1.34687,0 2.0203,0 0.33672,0 0.77206,-0.23809 1.01016,0 0.23809,0.2381 -0.2381,0.77206 0,1.01016 0.23809,0.23809 0.67343,0 1.01015,0 0.33672,0 0.77206,0.23809 1.01015,0 0.2381,-0.2381 -0.23809,-0.77206 0,-1.01016 0.47619,-0.47619 1.54412,0.47619 2.02031,0 1.34687,-1.34687 -1.68359,-1.01015 1.01015,-1.01015 0.33672,0 0.67343,0 1.01015,0 0.33672,0 0.70898,-0.15058 1.01015,0 0.42592,0.21296 0.58424,0.79719 1.01016,1.01015 0.30117,0.15059 0.77205,-0.23809 1.01015,0 0.23809,0.2381 -0.2381,0.77206 0,1.01016 0.23809,0.23809 0.67343,0 1.01015,0 0.33672,0 0.70899,0.15058 1.01015,0 0.42592,-0.21296 0.67344,-0.67344 1.01016,-1.01016 0.33671,-0.33671 0.79719,-0.58423 1.01015,-1.01015 0.15058,-0.30117 -0.2381,-0.77206 0,-1.01015 0.23809,-0.2381 0.77206,0.23809 1.01015,0 0.2381,-0.2381 -0.23809,-0.77206 0,-1.01015 0.50508,-0.50508 2.52538,0.50507 3.03046,0 0.20651,-0.20652 -0.20026,-2.62994 0,-3.03046 0.41068,-0.82137 1.6024,-0.83581 1.01015,-2.02031 -0.21296,-0.42592 -0.79719,-0.58423 -1.01015,-1.01015 -0.15059,-0.30117 0,-0.67343 0,-1.01015 0,-0.33672 -0.2381,-0.77206 0,-1.01015 0.24307,-0.24308 3.79754,0.24307 4.04061,0 0.47619,-0.4762 -0.47619,-1.54412 0,-2.02031 0.2381,-0.2381 0.77206,0.2381 1.01015,0 0.47619,-0.47619 -0.47619,-1.54411 0,-2.02031 0.47619,-0.47619 1.54412,0.4762 2.02031,0 0.23809,-0.23809 -0.2381,-0.77205 0,-1.01015 0.23809,-0.23809 0.77205,0.2381 1.01015,0 2.09004,-2.09004 -3.19386,0.0817 1.01015,-2.0203 0.30117,-0.15059 0.77206,0.23809 1.01016,0 0.23809,-0.2381 -0.2381,-0.77206 0,-1.01016 2.09004,-2.09004 -0.0817,3.19387 2.0203,-1.01015 0.274,-0.54799 -0.2764,-3.76421 0,-4.04061 0.0325,-0.0325 2.78547,0 3.03046,0 0.33672,0 0.77206,-0.23809 1.01015,0 2.09004,2.09004 -3.19386,-0.0817 1.01015,2.02031 0.30117,0.15058 0.77206,-0.2381 1.01016,0 0.23809,0.23809 -0.2381,0.77205 0,1.01015 0.23809,0.23809 1.01015,0.33672 1.01015,0 0,-0.47619 -1.48635,-1.01015 -1.01015,-1.01015 0.75292,0 1.30601,0.77205 2.0203,1.01015 0.63888,0.21296 1.34687,0 2.02031,0 2.69374,0 -0.33672,0.33672 1.01015,-1.01015 0.23809,-0.2381 1.01015,-0.33672 1.01015,0 0,0.33671 -1.34687,0 -1.01015,0 0.67343,0 1.34687,0 2.0203,0 0.33672,0 0.77206,-0.2381 1.01016,0 0.23809,0.23809 0,0.67343 0,1.01015 0,0.33672 0,0.67343 0,1.01015 0,0.33672 0,0.67344 0,1.01015 0,0.33672 -0.2381,0.77206 0,1.01016 0.23809,0.23809 0.77205,-0.2381 1.01015,0 0.47619,0.47619 -0.47619,1.54411 0,2.0203 0.99649,0.99649 2.0203,-2.06988 2.0203,1.01015 0,0.33672 -0.23809,0.77206 0,1.01016 0.50508,0.50507 2.52538,-0.50508 3.03046,0 0.24308,0.24307 -0.24307,3.79753 0,4.04061 0.47619,0.47619 1.54412,-0.47619 2.02031,0 0.23809,0.23809 -0.2381,0.77205 0,1.01015 0.23809,0.2381 1.01015,-0.33672 1.01015,0 0,0.33672 -1.01015,-0.33672 -1.01015,0 0,0.47619 0.79719,0.58423 1.01015,1.01015 0.15058,0.30117 -0.2381,0.77206 0,1.01016 1.34687,1.34687 1.01015,-1.68359 1.01015,1.01015 0,0.33672 0.33672,1.01015 0,1.01015 -0.33672,0 -0.33672,-1.01015 0,-1.01015 2.10201,0 0.40646,1.4166 1.01015,2.0203 0.2381,0.2381 0.77206,-0.23809 1.01016,0 0.23809,0.2381 -0.2381,0.77206 0,1.01016 0.47619,0.47619 2.0203,-0.67344 2.0203,0 0,0.33671 -1.34687,0 -1.01015,0 0.67343,0 1.34687,0 2.0203,0 0.33672,0 0.77206,-0.2381 1.01016,0 0.23809,0.23809 -0.2381,0.77205 0,1.01015 0.23809,0.23809 0.77205,-0.2381 1.01015,0 0.23809,0.23809 -0.2381,0.77206 0,1.01015 0.23809,0.2381 0.77206,-0.23809 1.01015,0 0.2381,0.2381 -0.23809,0.77206 0,1.01015 0.2381,0.2381 0.67344,0 1.01015,0 0.33672,0 0.77206,0.2381 1.01016,0 0.47619,-0.47619 -0.30117,-1.41796 0,-2.0203 0.21296,-0.42592 0.79719,-0.58424 1.01015,-1.01015 0.15058,-0.30117 -0.2381,-0.77206 0,-1.01016 0.23809,-0.23809 1.01015,-0.33671 1.01015,0 0,0.47619 -1.48634,1.01016 -1.01015,1.01016 0.75292,0 1.30602,-0.77206 2.0203,-1.01016 0.39308,-0.13102 2.8737,0.15677 3.03046,0 0.2381,-0.23809 -0.23809,-0.77205 0,-1.01015 0.0325,-0.0325 2.78547,0 3.03046,0 0.33672,0 0.77206,-0.23809 1.01015,0 0.67369,0.67368 -0.67368,1.34662 0,2.02031 0.2381,0.23809 0.77206,-0.2381 1.01015,0 0.4762,0.47619 -0.47619,1.54411 0,2.0203 0.2381,0.2381 0.77206,-0.23809 1.01016,0 2.09004,2.09004 -3.19386,-0.0817 1.01015,2.02031 0.60234,0.30116 1.54411,-0.47619 2.0203,0 0.2381,0.23809 0,0.67343 0,1.01015 0,0.33672 0.33672,1.01015 0,1.01015 -0.33671,0 0,-1.34687 0,-1.01015 0,0.67343 -0.30116,1.41796 0,2.0203 0.15059,0.30117 1.01016,-0.33671 1.01016,0 0,0.33672 -1.01016,-0.33671 -1.01016,0 0,0.47619 0.7972,0.58424 1.01016,1.01016 0.274,0.54799 -0.2764,3.76421 0,4.04061 0.23809,0.23809 0.67343,0 1.01015,0 0.45493,0 2.72303,0.15371 3.03046,0 0.42592,-0.21296 0.58423,-0.7972 1.01015,-1.01016 0.30117,-0.15058 0.77206,0.2381 1.01015,0 0.2381,-0.23809 -0.23809,-0.77205 0,-1.01015 2.69374,0 -0.33671,0.33672 1.01016,-1.01015 0.23809,-0.2381 1.01015,-0.33672 1.01015,0 0,0.33672 -1.34687,0 -1.01015,0 0.67343,0 1.34687,0 2.0203,0 0.33672,0 0.70898,-0.15059 1.01015,0 0.42592,0.21296 0.58424,0.79719 1.01016,1.01015 0.30116,0.15059 0.77205,-0.23809 1.01015,0 0.47619,0.47619 -0.47619,1.54412 0,2.02031 0.0325,0.0325 2.78547,0 3.03046,0 2.69374,0 -0.33672,0.33671 1.01015,-1.01016 0.23809,-0.23809 0.67343,0 1.01015,0 2.35702,0 4.71405,0 7.07107,0 0.33672,0 0.67343,0 1.01015,0 0.33672,0 0.77206,-0.23809 1.01015,0 0.2381,0.2381 -0.33671,1.01016 0,1.01016 0.47619,0 0.58424,-0.7972 1.01016,-1.01016 0.30117,-0.15058 0.77205,0.2381 1.01015,0 0.23809,-0.23809 -0.2381,-0.77205 0,-1.01015 0.23809,-0.23809 0.67343,0 1.01015,0 0.33672,0 0.67344,0 1.01015,0 0.45493,0 2.72304,-0.15371 3.03046,0 0.26299,0.1315 1.23064,1.79982 2.02031,1.01015 0.50507,-0.50507 -0.50508,-2.52538 0,-3.03045 0.23809,-0.2381 0.77205,0.23809 1.01015,0 0.23809,-0.2381 -0.2381,-0.77206 0,-1.01016 0.0406,-0.0406 3.66964,0 4.04061,0 0.33672,0 0.77206,-0.23809 1.01015,0 0.2381,0.2381 -0.23809,0.77206 0,1.01016 0.47619,0.47619 1.54412,-0.47619 2.02031,0 0.23809,0.23809 -0.2381,0.77205 0,1.01015 0.14245,0.14246 2.82324,0.1036 3.03045,0 0.42592,-0.21296 0.67344,-0.67344 1.01016,-1.01015 0.33671,-0.33672 0.79719,-0.58424 1.01015,-1.01016 0.15058,-0.30117 -0.2381,-0.77205 0,-1.01015 0.23809,-0.23809 0.67343,0 1.01015,0 0.33672,0 0.67344,0 1.01015,0 0.716,0 5.79974,0.13059 6.06092,0 4.20401,-2.10201 -1.07989,0.0697 1.01015,-2.0203 0.47619,-0.47619 1.54412,0.47619 2.02031,0 0.23809,-0.2381 0,-0.67344 0,-1.01016 0.33672,0 0.77205,0.2381 1.01015,0 0.47619,-0.47619 -0.47619,-1.54411 0,-2.0203 0.2381,-0.2381 0.77206,0.23809 1.01015,0 0.2381,-0.2381 -0.23809,-0.77206 0,-1.01015 0.47619,-0.4762 1.54412,0.47619 2.02031,0 0.23809,-0.2381 0,-0.67344 0,-1.01016 0,-0.47628 -0.0458,-5.00498 0,-5.05076 0.20651,-0.20651 2.62994,0.20026 3.03046,0 0.42591,-0.21296 0.58423,-0.79719 1.01015,-1.01015 0.11275,-0.0564 4.93801,-0.0564 5.05076,0 0.26299,0.13149 1.23064,1.79981 2.02031,1.01015 0.50507,-0.50508 -0.50508,-2.52538 0,-3.03046 0.0458,-0.0458 4.57447,0 5.05076,0 1.68359,0 3.36717,0 5.05076,0 0.33672,0 0.77206,0.2381 1.01015,0 0.47619,-0.47619 -0.47619,-1.54411 0,-2.0203 0.2381,-0.2381 0.77206,0.23809 1.01016,0 0.47619,-0.47619 -0.47619,-1.54412 0,-2.02031 0.50507,-0.50507 2.52538,0.50508 3.03045,0 0.2381,-0.23809 0,-0.67343 0,-1.01015 0,-0.47628 -0.0458,-5.00498 0,-5.05076 0.50508,-0.50508 2.52539,0.50507 3.03046,0 0.2381,-0.2381 -0.23809,-0.77206 0,-1.01016 0.0458,-0.0458 4.57448,0 5.05076,0 0.33672,0 0.67344,0 1.01016,0 0.33671,0 0.77205,0.2381 1.01015,0 0.24307,-0.24307 -0.24307,-3.79753 0,-4.04061 0.23809,-0.23809 0.77206,0.2381 1.01015,0 0.2381,-0.23809 -0.23809,-0.77205 0,-1.01015 0.2381,-0.23809 0.70899,0.15059 1.01015,0 4.20402,-2.102 -1.07988,0.0697 1.01016,-2.0203 0.23809,-0.2381 0.67343,0 1.01015,0 0.47628,0 5.00498,0.0458 5.05076,0 0.2381,-0.2381 -0.23809,-0.77206 0,-1.01016 0.2381,-0.23809 0.77206,0.2381 1.01015,0 0.4762,-0.47619 -0.47619,-1.54411 0,-2.0203 0.2381,-0.2381 0.77206,0.23809 1.01016,0 0.23809,-0.2381 -0.2381,-0.77206 0,-1.01015 0.23809,-0.2381 0.67343,0 1.01015,0 0.33672,0 0.70898,-0.15059 1.01015,0 0.42592,0.21296 0.7972,0.58423 1.01016,1.01015 0.15058,0.30117 -0.2381,0.77206 0,1.01015 0.23809,0.2381 0.67343,0 1.01015,0 0.33672,0 0.67343,0 1.01015,0 0.33672,0 0.77206,0.2381 1.01015,0 0.2381,-0.23809 0,-0.67343 0,-1.01015 0.33672,0 0.77206,0.23809 1.01016,0 0.23809,-0.2381 -0.2381,-0.77206 0,-1.01015 0.47619,-0.47619 1.54411,0.47619 2.0203,0 0.2381,-0.2381 -0.23809,-0.77206 0,-1.01016 0.47619,-0.47619 1.54411,0.47619 2.02031,0 0.23809,-0.23809 -0.2381,-0.77205 0,-1.01015 0.23809,-0.23809 0.77205,0.2381 1.01015,0 0.23809,-0.23809 -0.2381,-0.77206 0,-1.01015 0.23809,-0.2381 1.01015,-0.33672 1.01015,0 0,0.33672 -1.34687,0 -1.01015,0 0.67343,0 1.34687,0 2.0203,0 0.33672,0 0.77206,0.23809 1.01016,0 0.23809,-0.2381 -0.2381,-0.77206 0,-1.01015 0.23809,-0.2381 0.77205,0.23809 1.01015,0 0.23809,-0.2381 -0.33672,-1.01016 0,-1.01016 0.30185,0 -0.66498,3.35026 1.01015,0 0.34887,-0.69774 -0.35458,-4.69618 0,-5.05076 0.2381,-0.23809 0.67344,0 1.01015,0 2.35703,0 4.71405,0 7.07107,0 0.33672,0 0.67344,0 1.01015,0 0.33672,0 0.77206,-0.23809 1.01016,0 0.23809,0.2381 -0.2381,0.77206 0,1.01015 0.23809,0.2381 0.67343,0 1.01015,0 0.37096,0 3.99996,0.0406 4.04061,0 0.23809,-0.23809 -0.2381,-0.77205 0,-1.01015 0.23809,-0.23809 0.77206,0.2381 1.01015,0 0.2381,-0.23809 -0.33672,-1.01015 0,-1.01015 0.11884,0 -0.14855,2.8819 0,3.03046 0.2381,0.23809 0.77206,-0.2381 1.01015,0 0.2381,0.23809 -0.23809,0.77205 0,1.01015 0.2381,0.23809 0.77206,-0.2381 1.01016,0 0.23809,0.23809 -0.2381,0.77206 0,1.01015 0.23809,0.2381 0.67343,0 1.01015,0 0.33672,0 0.67343,0 1.01015,0 1.34687,0 2.69374,0 4.04061,0 0.33672,0 1.01015,-0.33672 1.01015,0 0,0.33672 -1.34687,0 -1.01015,0 0.67344,0 1.41797,-0.30117 2.02031,0 0.30117,0.15059 0.15058,0.70898 0,1.01015 -0.21296,0.42592 -0.7972,0.58424 -1.01016,1.01016 -0.15058,0.30117 0,0.67343 0,1.01015 0,0.33672 -0.23809,0.77206 0,1.01015 0.2381,0.2381 0.70899,-0.15058 1.01016,0 0.85183,0.42592 1.16847,1.59439 2.0203,2.02031 0.30117,0.15058 0.77206,-0.2381 1.01015,0 0.47619,0.47619 -0.30116,1.41796 0,2.0203 0.21296,0.42592 0.7972,0.58424 1.01016,1.01015 0.15058,0.30117 -0.2381,0.77206 0,1.01016 0.23809,0.23809 0.77205,-0.2381 1.01015,0 0.23809,0.23809 -0.2381,0.77205 0,1.01015 0.23809,0.23809 0.77206,-0.2381 1.01015,0 0.2381,0.23809 -0.23809,0.77206 0,1.01015 0.2381,0.2381 0.77206,-0.23809 1.01015,0 0.2381,0.2381 -0.23809,0.77206 0,1.01015 0.2381,0.2381 0.67344,0 1.01016,0 0.33671,0 0.77205,0.2381 1.01015,0 0.2381,-0.23809 -0.2381,-0.77205 0,-1.01015 0.2381,-0.23809 0.77206,0.2381 1.01015,0 0.2381,-0.23809 -0.23809,-0.77206 0,-1.01015 0.2381,-0.2381 0.77206,-0.2381 1.01015,0 0.2381,0.23809 0.33672,1.01015 0,1.01015 -0.47619,0 -1.01015,-1.48634 -1.01015,-1.01015 0,0.75292 0.77206,1.30602 1.01015,2.0203 0.21296,0.63888 -0.30116,1.41797 0,2.02031 0.21296,0.42592 0.7972,0.58423 1.01016,1.01015 0.15058,0.30117 0,0.67344 0,1.01015 0,0.33672 0,1.34687 0,1.01016 0,-0.67344 0,-2.69374 0,-2.02031 0,1.01015 0,2.02031 0,3.03046 0,0.33672 -0.2381,0.77206 0,1.01015 0.23809,0.2381 0.77205,-0.23809 1.01015,0 0,2.69374 -0.33672,-0.33672 1.01015,1.01015 0.2381,0.2381 0,0.67344 0,1.01016 0,0.33671 0.33672,1.01015 0,1.01015 -0.33672,0 -0.23809,-1.24825 0,-1.01015 0.5324,0.53239 0.47776,1.48791 1.01016,2.0203 0.50507,0.50508 2.52538,-0.50507 3.03045,0 0.47619,0.47619 -0.47619,1.54412 0,2.02031 0.2381,0.23809 0.77206,-0.2381 1.01016,0 0.47619,0.47619 -0.30117,1.41796 0,2.0203 0.21295,0.42592 0.79719,0.58424 1.01015,1.01016 0.31745,0.6349 -0.31745,3.4057 0,4.04061 2.102,4.20401 -0.0697,-1.07989 2.0203,1.01015 0.2381,0.23809 0.33672,1.01015 0,1.01015 -0.33671,0 0,-1.34687 0,-1.01015 0,1.34687 0,2.69374 0,4.04061 0,0.33672 0,0.67343 0,1.01015 0,0.33672 0.33672,1.01015 0,1.01015 -0.33671,0 0,-1.34687 0,-1.01015 0,0.24004 -0.1132,3.81421 0,4.04061 0.1315,0.26299 1.32363,1.70683 2.02031,1.01015 0.23809,-0.23809 -0.2381,-0.77205 0,-1.01015 0.23809,-0.23809 0.70898,0.15059 1.01015,0 0.42592,-0.21296 0.67344,-0.67343 1.01015,-1.01015 0.33672,-0.33672 0.7972,-0.58424 1.01016,-1.01015 0.15058,-0.30117 -0.15059,-0.70899 0,-1.01016 0.21295,-0.42591 0.67343,-0.67343 1.01015,-1.01015 0.33672,-0.33672 0.58423,-0.79719 1.01015,-1.01015 0.30117,-0.15059 0.77206,0.23809 1.01015,0 0.2381,-0.2381 -0.23809,-0.77206 0,-1.01015 0.2381,-0.2381 0.77206,-0.2381 1.01016,0 0.23809,0.23809 -0.15059,0.70898 0,1.01015 0.21295,0.42592 0.79719,0.58423 1.01015,1.01015 0.15058,0.30117 -0.2381,0.77206 0,1.01015 0.23809,0.2381 0.77206,-0.23809 1.01015,0 0.47619,0.47619 -0.47619,1.54412 0,2.02031 0.2381,0.23809 0.77206,-0.2381 1.01015,0 0.20652,0.20651 -0.20026,2.62994 0,3.03046 0.21296,0.42591 0.7972,0.58423 1.01016,1.01015 0.0264,0.0529 0.0264,2.97761 0,3.03046 -0.21296,0.42591 -0.7972,0.58423 -1.01016,1.01015 -0.0264,0.0529 -0.0264,2.97761 0,3.03046 2.10201,4.20401 -0.0697,-1.07989 2.02031,1.01015 0.23809,0.23809 -0.15059,0.70898 0,1.01015 0.21296,0.42592 0.79719,0.58424 1.01015,1.01015 0.15059,0.30117 -0.23809,0.77206 0,1.01016 0.2381,0.23809 0.77206,-0.2381 1.01015,0 0.2381,0.23809 -0.23809,0.77205 0,1.01015 0.2381,0.23809 1.01016,-0.33672 1.01016,0 0,0.47619 -0.7972,0.58423 -1.01016,1.01015 -0.15058,0.30117 0.15059,0.70898 0,1.01015 -0.21296,0.42592 -0.79719,0.58424 -1.01015,1.01016 -0.15058,0.30117 0,0.67343 0,1.01015 0,0.33672 0,0.67343 0,1.01015 0,0.33672 0,0.67344 0,1.01015 0,0.33672 -0.15058,0.70899 0,1.01016 0.21296,0.42591 1.34687,0.67343 1.01015,1.01015 -0.33671,0.33672 -1.34687,-1.34687 -1.01015,-1.01015 0.67344,0.67343 1.34687,1.34687 2.02031,2.0203 0.33671,0.33672 0.58423,0.7972 1.01015,1.01015 0.30117,0.15059 0.77206,-0.23809 1.01015,0 0.2381,0.2381 -0.23809,0.77206 0,1.01016 0.2381,0.23809 0.77206,-0.2381 1.01015,0 0.2381,0.23809 0,0.67343 0,1.01015 0,0.52823 0.13281,3.775 0,4.04061 -0.21296,0.42592 -0.79719,0.58423 -1.01015,1.01015 -0.18265,0.36531 0,4.34816 0,5.05076 0,0.33672 0,0.67344 0,1.01016 0,0.33671 -0.23809,0.77205 0,1.01015 2.69374,0 -0.33672,-0.33672 1.01015,1.01015 0.2381,0.2381 0.77206,-0.23809 1.01016,0 0.50507,0.50508 -0.50508,2.52538 0,3.03046 0.23809,0.2381 1.01015,-0.33672 1.01015,0 0,0.30185 -3.35026,-0.66497 0,1.01015 0.30117,0.15059 0.77206,-0.23809 1.01015,0 0.24308,0.24308 -0.24307,3.79754 0,4.04061 0.2381,0.2381 1.01015,-0.33671 1.01015,0 0,0.33672 -1.01015,-0.33671 -1.01015,0 0,0.47619 0.7972,0.58424 1.01015,1.01016 0.274,0.54799 -0.2764,3.76421 0,4.04061 0.2381,0.23809 0.77206,-0.2381 1.01016,0 0.23809,0.23809 0.33671,1.01015 0,1.01015 -0.33672,0 0,-1.34687 0,-1.01015 0,4.5985 -0.47619,0.0578 1.01015,3.03045 0.40406,0.80813 -0.40406,2.22234 0,3.03046 0.21296,0.42592 0.79719,0.58424 1.01015,1.01015 0.40406,0.80813 -0.40406,2.22234 0,3.03046 1.02151,2.04302 2.34424,0.32393 3.03046,1.01015 0.23809,0.2381 -0.2381,0.77206 0,1.01016 0.50508,0.50507 2.52538,-0.50508 3.03046,0 0.0325,0.0325 0,2.78546 0,3.03045 0,4.49297 0,5.22825 0,8.08122 0,0.33672 0,0.67344 0,1.01016 0,0.33671 0.23809,0.77205 0,1.01015 -0.2381,0.23809 -1.01016,-0.33672 -1.01016,0 0,0.47619 0.67344,0.67343 1.01016,1.01015 0.33671,0.33672 0.58423,0.7972 1.01015,1.01015 0.30117,0.15059 0.77206,-0.23809 1.01015,0 0.2381,0.2381 -0.23809,0.77206 0,1.01016 0.10102,0.10101 2.92944,0.10101 3.03046,0 2.09004,-2.09004 -3.19386,0.0817 1.01015,-2.02031 0.30117,-0.15058 0.77206,0.2381 1.01015,0 0.4762,-0.47619 -0.67343,-2.0203 0,-2.0203 0.67344,0 -0.47619,1.54411 0,2.0203 0.2381,0.2381 0.77206,-0.23809 1.01016,0 0.0325,0.0325 0,2.78547 0,3.03046 0,2.69374 -0.33672,-0.33672 1.01015,1.01015 0.2764,0.2764 -0.274,3.49262 0,4.04061 0.21296,0.42592 0.79719,0.58424 1.01015,1.01015 0.15059,0.30117 -0.23809,0.77206 0,1.01016 0.2381,0.23809 0.77206,-0.2381 1.01015,0 2.09005,2.09004 -3.19386,-0.0817 1.01016,2.0203 0.30117,0.15059 0.77205,-0.23809 1.01015,0 0.2381,0.2381 -0.15058,0.70899 0,1.01015 0.21296,0.42592 0.67343,0.67344 1.01015,1.01016 0.33672,0.33671 0.58424,0.79719 1.01016,1.01015 0.30116,0.15058 0.77205,-0.2381 1.01015,0 0.23809,0.2381 -0.2381,0.77206 0,1.01015 0.23809,0.2381 0.77205,-0.23809 1.01015,0 0.2381,0.2381 0,0.67344 0,1.01016 0,0.33671 0,0.67343 0,1.01015 0,0.33672 0.33672,1.01015 0,1.01015 -0.33672,0 0,-1.34687 0,-1.01015 0,0.67343 -0.21296,1.38143 0,2.0203 0.15058,0.45176 0.67344,0.67344 1.01015,1.01016 0.33672,0.33671 0.58424,0.79719 1.01016,1.01015 0.30116,0.15058 0.77205,-0.2381 1.01015,0 0.23809,0.23809 -0.15059,0.70898 0,1.01015 0.21296,0.42592 0.79719,0.58424 1.01015,1.01015 0.13059,0.26118 0,5.34492 0,6.06092 0,0.7026 0.18265,4.68546 0,5.05076 -0.21296,0.42592 -1.22311,0.58424 -1.01015,1.01015 0.33672,0.67344 1.48791,0.47776 2.0203,1.01016 0.2381,0.23809 -0.23809,0.77205 0,1.01015 0.2381,0.23809 0.77206,-0.2381 1.01016,0 0.24307,0.24307 -0.24308,3.79753 0,4.04061 0.23809,0.23809 0.77205,-0.2381 1.01015,0 0.23809,0.23809 0,0.67343 0,1.01015 0,0.33672 0,0.67344 0,1.01015 0,2.69374 0,5.38748 0,8.08122 0,0.33672 0,0.67344 0,1.01016 0,0.33671 -0.2381,0.77205 0,1.01015 0.23809,0.23809 0.77206,-0.2381 1.01015,0 0.2381,0.23809 -0.23809,0.77206 0,1.01015 0.2381,0.2381 0.77206,-0.23809 1.01015,0 0.0325,0.0325 0,2.78547 0,3.03046 0,2.35702 0,4.71404 0,7.07107 0,0.33671 -0.23809,0.77205 0,1.01015 0.2381,0.2381 0.77206,-0.2381 1.01016,0 0.47619,0.47619 -0.47619,1.54411 0,2.0203 0.0325,0.0325 2.78546,0 3.03045,0 0.33672,0 0.77206,0.2381 1.01016,0 0.23809,-0.23809 -0.2381,-0.77205 0,-1.01015 0.23809,-0.23809 0.67343,0 1.01015,0 0.37096,0 3.99996,-0.0406 4.04061,0 0.23809,0.2381 -0.2381,0.77206 0,1.01015 0.23809,0.2381 0.77206,-0.23809 1.01015,0 0.47619,0.4762 -0.47619,1.54412 0,2.02031 0.2381,0.2381 0.77206,-0.2381 1.01015,0 0.2381,0.2381 0,1.34687 0,1.01015 0,-2.69374 0,-5.38748 0,-8.08122 0,-0.33672 -0.23809,-0.77206 0,-1.01015 0.2381,-0.2381 0.70899,0.15058 1.01016,0 0.42591,-0.21296 0.58423,-0.79719 1.01015,-1.01015 0.30117,-0.15059 1.01015,-0.33672 1.01015,0 0,0.33671 -1.34687,0 -1.01015,0 0.67343,0 1.34687,0 2.0203,0 0.33672,0 0.77206,0.23809 1.01016,0 0.23809,-0.2381 -0.2381,-0.77206 0,-1.01016 0.23809,-0.23809 0.70898,0.15059 1.01015,0 0.42592,-0.21295 0.58423,-0.79719 1.01015,-1.01015 0.30117,-0.15058 0.77206,0.2381 1.01015,0 0.2381,-0.23809 -0.33671,-1.01015 0,-1.01015 0.33672,0 -0.23809,0.77206 0,1.01015 0.2381,0.2381 0.77206,-0.23809 1.01016,0 0.23809,0.2381 -0.2381,0.77206 0,1.01015 0.23809,0.2381 0.77205,-0.23809 1.01015,0 0.0458,0.0458 0,4.57448 0,5.05077 0,1.93693 -0.45638,1.56392 1.01015,3.03045 0.33672,0.33672 0.58424,0.7972 1.01015,1.01016 0.30117,0.15058 0.77206,-0.2381 1.01016,0 0.23809,0.23809 -0.2381,0.77205 0,1.01015 0.23809,0.2381 1.01015,-0.33672 1.01015,0 0,0.33672 -1.01015,-0.33672 -1.01015,0 0,1.64274 1.89279,0.25502 1.01015,2.02031 -1.24825,2.49649 -1.01015,-0.34869 -1.01015,2.0203 0,0.33672 0,0.67344 0,1.01015 0,0.33672 0.15058,0.70899 0,1.01016 -0.21296,0.42591 -0.67344,1.34687 -1.01016,1.01015 -0.33671,-0.33672 1.01016,-1.48635 1.01016,-1.01015 0,0.75292 -0.77206,1.30601 -1.01016,2.0203 -0.10648,0.31944 0,0.67344 0,1.01015 0,0.33672 0,0.67344 0,1.01016 0,0.33671 -0.15058,0.70898 0,1.01015 0.21296,0.42592 0.7972,0.58423 1.01016,1.01015 0.15371,0.30742 0,2.57553 0,3.03046 0,0.33672 0.33671,1.01015 0,1.01015 -0.33672,0 0,-1.34687 0,-1.01015 0,1.34687 0,2.69374 0,4.04061 0,0.33672 -0.2381,0.77206 0,1.01015 0.23809,0.2381 0.67343,0 1.01015,0 0.33672,0 0.67343,0 1.01015,0 0.33672,0 1.01015,-0.33672 1.01015,0 0,0.33672 -1.34687,0 -1.01015,0 0.67344,0 1.41797,-0.30117 2.02031,0 0.30117,0.15059 -0.15059,0.70898 0,1.01015 0.21296,0.42592 0.79719,0.58424 1.01015,1.01016 0.15058,0.30117 -0.2381,0.77205 0,1.01015 0.23809,0.23809 0.70898,-0.15059 1.01015,0 2.04302,1.02151 0.32393,2.34423 1.01015,3.03046 0.2381,0.23809 0.77206,-0.2381 1.01016,0 0,2.69374 -0.33672,-0.33672 1.01015,1.01015 0.23809,0.23809 -0.2381,0.77206 0,1.01015 0.23809,0.2381 0.77206,-0.23809 1.01015,0 0.24308,0.24308 -0.24307,3.79754 0,4.04061 0.2381,0.2381 0.77206,0.2381 1.01015,0 0.2381,-0.23809 -0.15058,-0.70898 0,-1.01015 3.35026,-3.35026 -0.47619,0.95238 1.01016,-2.02031 0.21296,-0.42591 0.79719,-0.58423 1.01015,-1.01015 0.30117,-0.60234 -0.47619,-1.54411 0,-2.0203 0.2381,-0.2381 0.77206,0.23809 1.01015,0 0.31279,-0.31279 -0.31279,-4.73798 0,-5.05077 0.2381,-0.23809 1.01015,-0.33671 1.01015,0 0,0.33672 -1.01015,0.33672 -1.01015,0 0,-0.47619 0.58424,-0.79719 1.01015,-1.01015 2.69374,0 -0.33671,0.33672 1.01016,-1.01015 0.23809,-0.2381 0.77205,0.23809 1.01015,0 0.2381,-0.2381 -0.2381,-0.77206 0,-1.01015 0.2381,-0.2381 0.77206,0.23809 1.01015,0 0.2381,-0.2381 -0.23809,-0.77206 0,-1.01016 0.2381,-0.23809 0.77206,0.2381 1.01016,0 0.24185,-0.24185 -0.22964,-4.04061 0,-4.04061 0.33671,0 0,1.34687 0,1.01016 0,-0.67344 -0.30117,-1.41797 0,-2.02031 0.30116,-0.60234 1.54411,0.47619 2.0203,0 0.47619,-0.47619 -0.47619,-1.54411 0,-2.0203 2.69374,0 -0.33672,0.33671 1.01015,-1.01016 0.2381,-0.23809 0.77206,0.2381 1.01016,0 0.23809,-0.23809 0.23809,-0.77205 0,-1.01015 -0.2381,-0.23809 -0.77206,0.2381 -1.01016,0 -0.0325,-0.0325 0,-2.78547 0,-3.03046 0,-0.33671 0,-0.67343 0,-1.01015 0,-0.33672 -0.33671,-1.01015 0,-1.01015 0.33672,0 0,1.34687 0,1.01015 0,-2.35702 -0.67343,-2.0203 1.01016,-2.0203 0.33671,0 0.77205,0.23809 1.01015,0 0.47619,-0.4762 -0.47619,-1.54412 0,-2.02031 0.23809,-0.2381 0.77206,0.2381 1.01015,0 0.2381,-0.2381 -0.33672,-1.01015 0,-1.01015 0.33672,0 0,1.34687 0,1.01015 0,-0.67344 0.30117,-1.41797 0,-2.02031 -0.15058,-0.30116 -0.77206,0.2381 -1.01015,0 -0.2381,-0.23809 0,-0.67343 0,-1.01015 0,-0.33672 -0.2381,-0.77205 0,-1.01015 0.23809,-0.2381 0.77206,0.2381 1.01015,0 0.2381,-0.2381 -0.23809,-0.77206 0,-1.01015 0.50508,-0.50508 2.52538,0.50507 3.03046,0 0.23809,-0.2381 -0.2381,-0.77206 0,-1.01016 0.23809,-0.23809 0.67343,0 1.01015,0 0.33672,0 1.01015,-0.33671 1.01015,0 0,0.33672 -1.01015,-0.33671 -1.01015,0 0,2.10201 1.41661,0.40646 2.02031,1.01016 0.24307,0.24307 -0.24308,3.79753 0,4.04061 0.31279,0.31279 4.73797,-0.31279 5.05076,0 0.23809,0.23809 0,0.67343 0,1.01015 0,0.33672 0.33672,1.01015 0,1.01015 -0.33672,0 0,-1.34687 0,-1.01015 0,0.67343 -0.30117,1.41797 0,2.02031 0.30117,0.60233 1.54411,-0.4762 2.0203,0 0.2381,0.23809 0.33672,1.01015 0,1.01015 -0.33671,0 0,-1.34687 0,-1.01015 0,0.67343 -0.30117,1.41796 0,2.0203 0.15059,0.30117 1.01016,-0.33672 1.01016,0 0,0.33672 -1.34687,0 -1.01016,0 0.67344,0 1.34687,0 2.02031,0 0.33672,0 0.77206,0.2381 1.01015,0 2.36899,-2.36899 -3.11216,0 -1.01015,0 5.10309,0 0.77633,-0.77633 2.0203,-2.0203 0.2381,-0.2381 0.77206,0.23809 1.01016,0 0.50507,-0.50508 -0.50508,-2.52539 0,-3.03046 0.47619,-0.47619 1.54411,0.47619 2.0203,0 0.2381,-0.2381 0.33672,-1.01016 0,-1.01016 -0.47619,0 -1.01015,1.48635 -1.01015,1.01016 0,-0.75293 0.77206,-1.30602 1.01015,-2.02031 0.13103,-0.39307 -0.15676,-2.87369 0,-3.03046 0.2381,-0.23809 0.77206,0.2381 1.01015,0 0.2381,-0.23809 -0.33671,-1.01015 0,-1.01015 0.33672,0 0,0.67344 0,1.01015 0.33672,-0.33671 0.58424,-0.79719 1.01016,-1.01015 0.60233,-0.30117 1.54411,0.47619 2.0203,0 0.47619,-0.47619 -0.47619,-1.54411 0,-2.0203 0.2381,-0.2381 0.77206,0.23809 1.01015,0 0.2381,-0.2381 -0.23809,-0.77206 0,-1.01016 0.47619,-0.47619 1.54412,0.47619 2.02031,0 0.23809,-0.23809 -0.2381,-0.77205 0,-1.01015 0.23809,-0.23809 0.77206,0.2381 1.01015,0 1.34687,-1.34687 -1.34687,-1.34687 0,0 0.2381,0.2381 1.01015,-0.33672 1.01015,0 0,0.33672 -1.01015,-0.33672 -1.01015,0 0,0.47619 0.7972,0.58424 1.01015,1.01015 0.15059,0.30117 0,0.67344 0,1.01016 0,0.33671 0.33672,1.01015 0,1.01015 -0.33671,0 0,-1.34687 0,-1.01015 0,0.67343 -0.21295,1.38143 0,2.0203 0.15059,0.45176 0.7972,0.58424 1.01016,1.01015 0.15058,0.30117 -0.2381,0.77206 0,1.01016 0.50507,0.50507 2.52538,-0.50508 3.03045,0 0.24308,0.24307 -0.24307,3.79753 0,4.04061 0.2381,0.23809 0.70899,-0.15059 1.01016,0 0.42591,0.21296 0.58423,0.79719 1.01015,1.01015 0.60234,0.30117 2.0203,-0.67344 2.0203,0 0,1.43105 -4.71404,-2.8621 1.01016,0 2.69374,1.34687 -3.03046,1.01015 1.01015,1.01015 1.34687,0 2.69374,0 4.04061,0 0.33672,0 1.34687,0 1.01015,0 -0.67343,0 -2.0203,0.67344 -2.0203,0 0,-0.75292 1.48791,-0.47775 2.0203,-1.01015 0.2381,-0.2381 0,-0.67344 0,-1.01015 0,-0.24499 -0.0325,-2.99797 0,-3.03046 0.2381,-0.2381 0.77206,0.2381 1.01015,0 0.2381,-0.2381 -0.23809,-0.77206 0,-1.01015 0.2381,-0.2381 1.01016,-0.33672 1.01016,0 0,0.33671 -1.34687,0 -1.01016,0 0.67344,0 1.41797,0.30117 2.02031,0 0.30117,-0.15059 -0.2381,-0.77206 0,-1.01016 0.2381,-0.23809 0.77206,0.2381 1.01015,0 0.2381,-0.23809 -0.23809,-0.77205 0,-1.01015 0.2381,-0.23809 0.77206,0.2381 1.01016,0 0.23809,-0.23809 -0.2381,-0.77206 0,-1.01015 0.23809,-0.2381 0.70898,0.15058 1.01015,0 0.42592,-0.21296 0.58423,-0.79719 1.01015,-1.01015 1.79583,-0.89792 0.5612,0.56119 1.01015,1.01015 0.47619,0.47619 1.54412,-0.47619 2.02031,0 0.23809,0.23809 -0.2381,0.77206 0,1.01015 0.10101,0.10102 2.92944,0.10102 3.03046,0 0.47619,-0.47619 -0.30117,-1.41796 0,-2.0203 2.102,-4.20402 -0.0697,1.07989 2.0203,-1.01016 0.2381,-0.23809 -0.23809,-0.77205 0,-1.01015 0.2381,-0.23809 0.77206,0.2381 1.01015,0 0.2381,-0.23809 -0.23809,-0.77206 0,-1.01015 0.2381,-0.2381 0.67344,0 1.01016,0 2.0203,0 4.04061,0 6.06091,0 0.33672,0 0.77206,0.23809 1.01015,0 0.2381,-0.2381 -0.23809,-0.77206 0,-1.01015 0.2381,-0.2381 0.67344,0 1.01016,0 0.33671,0 0.77205,-0.2381 1.01015,0 0.23809,0.23809 -0.2381,0.77205 0,1.01015 0.47619,0.47619 1.54411,-0.47619 2.0203,0 0.2381,0.23809 -0.23809,0.77206 0,1.01015 0.2381,0.2381 0.77206,-0.23809 1.01016,0 0.23809,0.2381 -0.2381,0.77206 0,1.01015 0.23809,0.2381 0.67343,0 1.01015,0 2.0203,0 4.04061,0 6.06091,0 0.24499,0 2.99798,-0.0325 3.03046,0 0.2381,0.2381 -0.23809,0.77206 0,1.01016 0.67487,0.67487 1.34544,-0.67487 2.02031,0 0.23809,0.23809 0.33671,1.01015 0,1.01015 -0.33672,0 0,-1.34687 0,-1.01015 0,0.67343 0,1.34687 0,2.0203 0,0.33672 -0.2381,0.77206 0,1.01015 0.23809,0.2381 0.67343,0 1.01015,0 0.33672,0 0.67343,0 1.01015,0 2.69374,0 5.38748,0 8.08122,0 0.33672,0 0.67344,0 1.01015,0 0.33672,0 0.77206,-0.23809 1.01016,0 0.23809,0.2381 -0.2381,0.77206 0,1.01016 0.23809,0.23809 0.77205,-0.2381 1.01015,0 0.44896,0.44895 -0.78567,1.90806 1.01015,1.01015 0.42592,-0.21296 0.58424,-0.79719 1.01015,-1.01015 0.30117,-0.15059 0.77206,0.23809 1.01016,0 0.23809,-0.2381 -0.2381,-0.77206 0,-1.01016 0.23809,-0.23809 0.77205,0.2381 1.01015,0 0.2381,-0.23809 -0.2381,-0.77205 0,-1.01015 0.2381,-0.23809 0.77206,0.2381 1.01015,0 0.2381,-0.23809 -0.23809,-0.77206 0,-1.01015 0.2381,-0.2381 0.77206,0.23809 1.01016,0 0.23809,-0.2381 0,-0.67344 0,-1.01015 0,-0.33672 0,-0.67344 0,-1.01016 0,-1.34687 0,-2.69374 0,-4.04061 0,-0.99572 0,-3.01602 0,-2.0203 0,0.67343 -0.67344,2.0203 0,2.0203 0.75292,0 0.47775,-1.4879 1.01015,-2.0203 0.23809,-0.2381 0.77205,0.23809 1.01015,0 0.2381,-0.2381 -0.2381,-0.77206 0,-1.01015 0.2381,-0.2381 0.77206,0.23809 1.01015,0 0.2381,-0.2381 -0.23809,-0.77206 0,-1.01016 0.2381,-0.23809 0.77206,0.2381 1.01016,0 0.47619,-0.47619 -0.4762,-1.54411 0,-2.0203 0.23809,-0.2381 0.77205,0.23809 1.01015,0 0.31279,-0.31279 -0.31279,-4.73797 0,-5.05076 0.23809,-0.2381 0.77206,0.23809 1.01015,0 2.09004,-2.09005 -3.19386,0.0817 1.01015,-2.02031 0.63491,-0.31745 3.40571,0.31745 4.04061,0 0.42592,-0.21296 0.58424,-0.79719 1.01016,-1.01015 0.30116,-0.15059 0.77205,0.23809 1.01015,0 0.23809,-0.2381 -0.2381,-0.77206 0,-1.01015 0.23809,-0.2381 0.77206,0.23809 1.01015,0 0.2381,-0.2381 -0.23809,-0.77206 0,-1.01016 0.2381,-0.23809 0.77206,0.2381 1.01015,0 0.2381,-0.23809 -0.23809,-0.77205 0,-1.01015 0.47619,-0.47619 1.54412,0.47619 2.02031,0 0.23809,-0.23809 -0.2381,-0.77206 0,-1.01015 0.23809,-0.2381 0.77206,0.23809 1.01015,0 0.2381,-0.2381 -0.23809,-0.77206 0,-1.01015 0.47619,-0.47619 1.54412,0.47619 2.02031,0 0.23809,-0.2381 -0.2381,-0.77206 0,-1.01016 0.23809,-0.23809 0.77205,0.2381 1.01015,0 0.23809,-0.23809 0,-0.67343 0,-1.01015 0,-2.0203 0,-4.04061 0,-6.06091 0,-0.33672 0,-0.67344 0,-1.01016 0,-0.33671 -0.2381,-0.77205 0,-1.01015 0.23809,-0.23809 0.77206,0.2381 1.01015,0 0.47619,-0.47619 -0.47619,-1.54411 0,-2.0203 0.2381,-0.2381 0.77206,0.23809 1.01015,0 0.2381,-0.2381 -0.23809,-0.77206 0,-1.01016 0.2381,-0.23809 0.77206,-0.23809 1.01016,0 0.24307,0.24308 -0.24308,3.79754 0,4.04061 0.23809,0.2381 0.77205,-0.23809 1.01015,0 0.23809,0.2381 -0.2381,0.77206 0,1.01016 0.23809,0.23809 0.77206,-0.2381 1.01015,0 0.2381,0.23809 0,0.67343 0,1.01015 0,0.67343 0,1.34687 0,2.0203 0,0.33672 0.33672,1.01016 0,1.01016 -0.33672,0 0,-1.34687 0,-1.01016 0,0.67344 0,1.34687 0,2.02031 0,0.33672 -0.23809,0.77206 0,1.01015 0.2381,0.2381 0.77206,-0.23809 1.01015,0 0.14246,0.14246 0.10361,2.82325 0,3.03046 -3.35025,3.35025 0.47619,-0.95238 -1.01015,2.0203 -0.21296,0.42592 -0.79719,0.58424 -1.01015,1.01016 -0.15371,0.30742 0,2.57552 0,3.03045 0,0.33672 -0.2381,0.77206 0,1.01016 0.23809,0.23809 0.77206,-0.2381 1.01015,0 0.2381,0.23809 -0.23809,0.77205 0,1.01015 0.2381,0.23809 1.01015,-0.33672 1.01015,0 0,0.33672 -1.01015,-0.33672 -1.01015,0 0,0.47619 0.67344,0.67343 1.01015,1.01015 0.33672,0.33672 0.58424,0.7972 1.01016,1.01015 0.30117,0.15059 0.77205,-0.23809 1.01015,0 2.09004,2.09005 -3.19386,-0.0817 1.01015,2.02031 1.39336,0.69668 0.90356,-1.22335 2.02031,1.01015 0.15058,0.30117 0.33671,1.01015 0,1.01015 -0.33672,0 0,-1.34687 0,-1.01015 0,1.01015 0,2.02031 0,3.03046 0,0.52823 -0.13281,3.775 0,4.04061 0.21296,0.42592 0.79719,0.58423 1.01015,1.01015 0.15058,0.30117 -0.2381,0.77206 0,1.01015 0.23809,0.2381 0.77206,-0.23809 1.01015,0 0.2381,0.2381 -0.23809,0.77206 0,1.01016 0.2381,0.23809 0.77206,-0.2381 1.01015,0 0.47619,0.47619 -0.47619,1.54411 0,2.0203 0.47619,0.47619 2.02031,-0.67343 2.02031,0 0,0.33672 -1.01015,-0.33672 -1.01015,0 0,0.47619 0.79719,0.58424 1.01015,1.01015 0.30117,0.60234 -0.30117,1.41797 0,2.02031 2.10201,4.20401 -0.0697,-1.07989 2.0203,1.01015 0,2.69374 -0.33671,-0.33672 1.01016,1.01015 0.23809,0.2381 -0.2381,0.77206 0,1.01016 0.23809,0.23809 1.01015,-0.33672 1.01015,0 0,0.33671 -1.34687,0 -1.01015,0 1.34687,0 2.69374,0 4.04061,0 0.33671,0 0.77205,0.23809 1.01015,0 0.23809,-0.2381 -0.2381,-0.77206 0,-1.01016 0.47619,-0.47619 1.54411,0.4762 2.0203,0 0.50508,-0.50507 -0.50507,-2.52538 0,-3.03045 0.2381,-0.2381 0.77206,0.23809 1.01016,0 0.31279,-0.31279 -0.31279,-4.73797 0,-5.05077 0.23809,-0.23809 0.77205,0.2381 1.01015,0 0.23809,-0.23809 -0.2381,-0.77205 0,-1.01015 0.35458,-0.35458 4.35302,0.34888 5.05076,0 0.42592,-0.21296 0.58424,-0.79719 1.01016,-1.01015 0.30116,-0.15059 0.77205,0.23809 1.01015,0 0.23809,-0.2381 -0.2381,-0.77206 0,-1.01015 0.23809,-0.2381 0.77205,0.23809 1.01015,0 0.2381,-0.2381 -0.15058,-0.70899 0,-1.01016 0.42592,-0.85183 1.59439,-1.16847 2.02031,-2.0203 0.15058,-0.30117 0,-0.67344 0,-1.01015 0,-1.23308 -0.39199,-2.32939 1.01015,-3.03046 0.30117,-0.15059 0.70898,0.15058 1.01015,0 0.42592,-0.21296 0.58424,-0.79719 1.01015,-1.01015 0.30117,-0.15059 0.77206,0.23809 1.01016,0 0.23809,-0.2381 -0.2381,-0.77206 0,-1.01016 0.23809,-0.23809 0.70898,0.15059 1.01015,0 0.42592,-0.21295 0.58423,-0.79719 1.01015,-1.01015 0.30117,-0.15058 0.77206,0.2381 1.01015,0 0.2381,-0.23809 -0.23809,-0.77206 0,-1.01015 0.50508,-0.50508 2.52538,0.50508 3.03046,0 0.47619,-0.47619 -0.47619,-1.54412 0,-2.02031 0.2381,-0.23809 1.01015,-0.33671 1.01015,0 0,0.47619 -1.34687,1.34687 -1.01015,1.01016 0.67344,-0.67344 1.49202,-1.22788 2.02031,-2.02031 0.18677,-0.28016 -0.2381,-0.77206 0,-1.01015 0.23809,-0.2381 0.77205,0.23809 1.01015,0 0.23809,-0.2381 -0.15059,-0.70898 0,-1.01015 0.21296,-0.42592 0.79719,-0.58424 1.01015,-1.01016 0.15059,-0.30117 -0.23809,-0.77205 0,-1.01015 0.2381,-0.23809 0.77206,0.2381 1.01015,0 0.2381,-0.23809 -0.23809,-0.77206 0,-1.01015 0.47619,-0.47619 1.54412,0.47619 2.02031,0 0.23809,-0.2381 0,-0.67344 0,-1.01015 0,-0.33672 0.23809,-0.77206 0,-1.01016 -0.2381,-0.23809 -0.77206,0.2381 -1.01015,0 -0.2381,-0.23809 0,-0.67343 0,-1.01015 0,-0.24499 -0.0325,-2.99797 0,-3.03046 0.47619,-0.47619 1.41796,0.30117 2.0203,0 0.42592,-0.21296 0.67344,-0.67343 1.01015,-1.01015 0.33672,-0.33672 0.7972,-0.58423 1.01016,-1.01015 0.15058,-0.30117 -0.2381,-0.77206 0,-1.01015 0.23809,-0.2381 0.77205,0.23809 1.01015,0 0.23809,-0.2381 0,-0.67344 0,-1.01016 0,-0.716 -0.13059,-5.79974 0,-6.06091 0.1341,-0.26821 2.76225,-2.89636 3.03046,-3.03046 0.80812,-0.40406 2.22233,0.40406 3.03045,0 4.20402,-2.10201 -1.07989,0.0697 1.01016,-2.0203 0.23809,-0.2381 0.77205,0.23809 1.01015,0 0.24307,-0.24308 -0.24308,-3.79754 0,-4.04062 0.23809,-0.23809 0.77206,0.2381 1.01015,0 0.0458,-0.0458 0,-4.57447 0,-5.05076 0,-0.24499 -0.0325,-2.99797 0,-3.03046 0.2381,-0.23809 0.77206,0.2381 1.01015,0 0.47619,-0.47619 -0.47619,-1.54411 0,-2.0203 0.47619,-0.47619 1.41797,0.30117 2.02031,0 0.42592,-0.21296 0.58423,-0.79719 1.01015,-1.01015 0.30117,-0.15059 0.77206,0.23809 1.01015,0 0.2381,-0.2381 -0.23809,-0.77206 0,-1.01016 0.2381,-0.23809 0.77206,0.2381 1.01016,0 0.23809,-0.23809 -0.2381,-0.77205 0,-1.01015 0.23809,-0.23809 0.77205,0.2381 1.01015,0 0.23809,-0.23809 -0.2381,-0.77206 0,-1.01015 0.23809,-0.2381 0.77206,0.23809 1.01015,0 0.2381,-0.2381 0,-0.67344 0,-1.01015 0,-0.33672 0,-0.67344 0,-1.01016 0,-2.0203 0,-4.04061 0,-6.06091 0,-0.33672 0,-0.67344 0,-1.01015 0,-0.33672 -0.15058,-0.70899 0,-1.01016 1.24825,-2.49649 1.01015,0.34869 1.01015,-2.0203 0,-0.24499 -0.0325,-2.99797 0,-3.03046 0.2381,-0.23809 0.77206,0.2381 1.01016,0 0.23809,-0.23809 -0.15059,-0.70898 0,-1.01015 0.21296,-0.42592 0.79719,-0.58424 1.01015,-1.01015 0.30117,-0.60234 -0.47619,-1.54412 0,-2.02031 0.23809,-0.23809 0.77206,0.2381 1.01015,0 0.2381,-0.23809 -0.15058,-0.70898 0,-1.01015 3.35026,-3.35026 -0.47619,0.95238 1.01015,-2.02031 0.21296,-0.42591 0.7972,-0.58423 1.01016,-1.01015 0.30117,-0.60234 -0.47619,-1.54411 0,-2.0203 0.23809,-0.2381 0.77205,0.23809 1.01015,0 0,-2.69374 -0.33672,0.33671 1.01015,-1.01016 0.50508,-0.50507 -0.50507,-2.52538 0,-3.03045 0.2381,-0.2381 0.77206,0.23809 1.01015,0 0.2381,-0.2381 -0.15058,-0.70899 0,-1.01016 0.21296,-0.42591 0.7972,-0.58423 1.01016,-1.01015 0.15058,-0.30117 -0.2381,-0.77206 0,-1.01015 0.23809,-0.2381 0.77205,0.23809 1.01015,0 0.2381,-0.2381 0,-0.67344 0,-1.01015 0,-0.33672 0,-0.67344 0,-1.01016"
       style="fill:none;stroke:#000000;stroke-width:1px;stroke-linecap:butt;stroke-linejoin:miter;stroke-opacity:1" />
    <path
       id="path6956"
       d="m 189.90868,156.35687 c 14.0988,-42.60052 16.15208,11.89909 16.16244,12.12183 16.32264,-39.49227 18.41231,-12.08962 21.71828,9.59645 8.24662,-21.33774 12.64606,-34.04603 22.22336,0.50508 4.23395,-21.42111 12.43385,-44.03409 23.2335,-5.05076 4.28139,-19.27759 8.35894,-40.02275 19.1929,-12.12183"
       style="fill:none;stroke:#ff0000;stroke-width:2;stroke-linecap:butt;stroke-linejoin:miter;stroke-miterlimit:4;stroke-opacity:1;stroke-dasharray:none" />
    <path
       id="path6958"
       d="M 187.88837,37.66395 189.4036,155.8518"
       style="fill:none;stroke:#ff0000;stroke-width:2;stroke-linecap:butt;stroke-linejoin:miter;stroke-miterlimit:4;stroke-opacity:1;stroke-dasharray:none" />
    <path
       id="path6960"
       d="m 293.95439,160.39748 c 4.93463,-26.44156 10.72383,-32.37348 17.67767,-10.35406 -2.52408,-3.5428 -0.0693,-34.82522 -11.11168,9.09137 -6.95706,-29.03382 -12.21183,-14.3757 -17.17259,7.82869 -14.84779,-34.63908 -13.76977,4.6631 -20.20305,9.09137 -13.16677,-40.68113 -12.67507,-4.29766 -17.67767,3.03046"
       style="fill:none;stroke:#ff0000;stroke-width:2;stroke-linecap:butt;stroke-linejoin:miter;stroke-miterlimit:4;stroke-opacity:1;stroke-dasharray:none" />
    <path
       id="path6981"
       d="M 472.14285,35.93361 C 475,308.07647 474.28571,313.79075 474.28571,313.79075 486.01705,187.17909 498.98745,196.64088 505,330.93361 c 7.20418,-92.54479 14.4457,-157.43896 26.42857,-15 6.87135,-34.77718 7.63588,-149.18297 28.57143,0.71429 8.14623,-64.71737 15.51832,-122.53178 32.85714,-2.85715 5.62343,-131.51039 15.32986,-106.52295 28.57143,-16.42857 14.8838,-161.79762 17.57451,-83.08025 21.42857,6.42857 8.53935,-89.21522 17.95417,-136.88881 32.14286,2.14286 -7.26294,-134.52353 -19.11009,-50.86489 -25.71429,9.28571 12.56123,-17.45558 19.14264,-201.45114 39.28572,-23.57142 2.68505,-153.90903 7.84695,-117.87457 12.85714,-25.71429 -11.55603,-138.27047 -20.98297,-86.49389 -30.71428,42.85714"
       style="fill:none;stroke:#0000ff;stroke-width:2;stroke-linecap:butt;stroke-linejoin:miter;stroke-miterlimit:4;stroke-opacity:1;stroke-dasharray:none" />
    <path
       id="path6983"
       d="m 108.57142,367.36218 c -125.714277,90 -104.9999914,77.14286 -104.9999914,77.14286"
       style="fill:none;stroke:#000000;stroke-width:1px;stroke-linecap:butt;stroke-linejoin:miter;stroke-opacity:1" />
    <path
       id="path6985"
       d="m 102.14268,183.79074 c -0.62843,-4.12162 1.59415,-16.1931 -2.898986,-12.14285 -25.983585,19.49825 -58.000396,30.23882 -9.598112,-4.06164 12.207758,-8.9831 12.200128,-10.13492 11.953538,-19.50979 l 1e-5,-10.17857"
       style="fill:none;stroke:#ff0000;stroke-width:1.00729644px;stroke-linecap:butt;stroke-linejoin:miter;stroke-opacity:1" />
    <path
       style="fill:none;stroke:#0000ff;stroke-width:1.75575507px;stroke-linecap:butt;stroke-linejoin:miter;stroke-opacity:1"
       d="m 102.2592,345.40977 c -0.41868,-12.17136 -0.81627,-14.73298 -0.87122,-22.94568 -0.19445,-13.28734 -33.204021,-0.26414 -9.656894,-18.40987 15.028324,-14.36569 11.013284,-17.41382 11.085564,-45.24579 l 2e-5,3.06701"
       id="path6989" />
    <g
       id="text6993"
       style="font-size:40px;font-style:normal;font-weight:normal;line-height:125%;letter-spacing:0px;word-spacing:0px;fill:#000000;fill-opacity:1;stroke:none;font-family:Sans"
       transform="matrix(0.9685469,-0.00601275,0.00594171,0.9801264,7.0713814,10.977589)">
      <text
         transform="matrix(1.0103662,-0.71513793,-0.0060982,0.99405647,0,0)"
         id="text7022"
         y="434.67233"
         x="-4.3252182"
         style="font-style:normal;font-weight:normal;line-height:0%;font-family:sans-serif;letter-spacing:0px;word-spacing:0px;fill:#000000;fill-opacity:1;stroke:none"
         xml:space="preserve"><tspan
           style="font-size:14.36873341px;line-height:1.25;font-family:sans-serif"
           y="434.67233"
           x="-4.3252182"
           id="tspan7024">Frequency</tspan></text>
      <text
         transform="matrix(1.0059411,0.00617111,-0.0060982,0.99405659,0,0)"
         id="text7026"
         y="356.2435"
         x="660.59613"
         style="font-style:normal;font-weight:normal;line-height:0%;font-family:sans-serif;letter-spacing:0px;word-spacing:0px;fill:#000000;fill-opacity:1;stroke:none"
         xml:space="preserve"><tspan
           style="font-size:14.36873341px;line-height:1.25;font-family:sans-serif"
           y="356.2435"
           x="660.59613"
           id="tspan7028">Space state</tspan></text>
      <text
         transform="matrix(-0.03063816,-0.96964307,1.00954,-0.68889749,0,0)"
         id="text7030"
         y="91.64122"
         x="-132.28323"
         style="font-style:normal;font-weight:normal;line-height:0%;font-family:sans-serif;letter-spacing:0px;word-spacing:0px;fill:#000000;fill-opacity:1;stroke:none"
         xml:space="preserve"><tspan
           style="font-size:14.36873436px;line-height:1.25;font-family:sans-serif"
           y="91.64122"
           x="-132.28323"
           id="tspan7032">Energy</tspan></text>
    </g>
  </g>
</svg>
