<?xml version="1.0" encoding="utf-8" standalone="no"?>
<!DOCTYPE svg PUBLIC "-//W3C//DTD SVG 1.1//EN"
  "http://www.w3.org/Graphics/SVG/1.1/DTD/svg11.dtd">
<!-- Created with matplotlib (http://matplotlib.org/) -->
<svg height="345pt" version="1.1" viewBox="0 0 460 345" width="460pt" xmlns="http://www.w3.org/2000/svg" xmlns:xlink="http://www.w3.org/1999/xlink">
 <defs>
  <style type="text/css">
*{stroke-linecap:butt;stroke-linejoin:round;}
  </style>
 </defs>
 <g id="figure_1">
  <g id="patch_1">
   <path d="M 0 345.6 
L 460.8 345.6 
L 460.8 0 
L 0 0 
z
" style="fill:#ffffff;"/>
  </g>
  <g id="axes_1">
   <g id="patch_2">
    <path d="M 57.6 307.584 
L 414.72 307.584 
L 414.72 41.472 
L 57.6 41.472 
z
" style="fill:#ffffff;"/>
   </g>
   <g id="matplotlib.axis_1">
    <g id="xtick_1">
     <g id="line2d_1">
      <path clip-path="url(#pb52e812ac4)" d="M 57.6 307.584 
L 57.6 41.472 
" style="fill:none;stroke:#b0b0b0;stroke-linecap:square;stroke-width:0.8;"/>
     </g>
     <g id="line2d_2">
      <defs>
       <path d="M 0 0 
L 0 3.5 
" id="m500cecf027" style="stroke:#000000;stroke-width:0.8;"/>
      </defs>
      <g>
       <use style="stroke:#000000;stroke-width:0.8;" x="57.6" xlink:href="#m500cecf027" y="307.584"/>
      </g>
     </g>
     <g id="text_1">
      <!-- −20 -->
      <defs>
       <path d="M 10.59375 35.5 
L 73.1875 35.5 
L 73.1875 27.203125 
L 10.59375 27.203125 
z
" id="DejaVuSans-2212"/>
       <path d="M 19.1875 8.296875 
L 53.609375 8.296875 
L 53.609375 0 
L 7.328125 0 
L 7.328125 8.296875 
Q 12.9375 14.109375 22.625 23.890625 
Q 32.328125 33.6875 34.8125 36.53125 
Q 39.546875 41.84375 41.421875 45.53125 
Q 43.3125 49.21875 43.3125 52.78125 
Q 43.3125 58.59375 39.234375 62.25 
Q 35.15625 65.921875 28.609375 65.921875 
Q 23.96875 65.921875 18.8125 64.3125 
Q 13.671875 62.703125 7.8125 59.421875 
L 7.8125 69.390625 
Q 13.765625 71.78125 18.9375 73 
Q 24.125 74.21875 28.421875 74.21875 
Q 39.75 74.21875 46.484375 68.546875 
Q 53.21875 62.890625 53.21875 53.421875 
Q 53.21875 48.921875 51.53125 44.890625 
Q 49.859375 40.875 45.40625 35.40625 
Q 44.1875 33.984375 37.640625 27.21875 
Q 31.109375 20.453125 19.1875 8.296875 
" id="DejaVuSans-32"/>
       <path d="M 31.78125 66.40625 
Q 24.171875 66.40625 20.328125 58.90625 
Q 16.5 51.421875 16.5 36.375 
Q 16.5 21.390625 20.328125 13.890625 
Q 24.171875 6.390625 31.78125 6.390625 
Q 39.453125 6.390625 43.28125 13.890625 
Q 47.125 21.390625 47.125 36.375 
Q 47.125 51.421875 43.28125 58.90625 
Q 39.453125 66.40625 31.78125 66.40625 
M 31.78125 74.21875 
Q 44.046875 74.21875 50.515625 64.515625 
Q 56.984375 54.828125 56.984375 36.375 
Q 56.984375 17.96875 50.515625 8.265625 
Q 44.046875 -1.421875 31.78125 -1.421875 
Q 19.53125 -1.421875 13.0625 8.265625 
Q 6.59375 17.96875 6.59375 36.375 
Q 6.59375 54.828125 13.0625 64.515625 
Q 19.53125 74.21875 31.78125 74.21875 
" id="DejaVuSans-30"/>
      </defs>
      <g transform="translate(47.047656 322.182437)scale(0.1 -0.1)">
       <use xlink:href="#DejaVuSans-2212"/>
       <use x="83.789062" xlink:href="#DejaVuSans-32"/>
       <use x="147.412109" xlink:href="#DejaVuSans-30"/>
      </g>
     </g>
    </g>
    <g id="xtick_2">
     <g id="line2d_3">
      <path clip-path="url(#pb52e812ac4)" d="M 129.024 307.584 
L 129.024 41.472 
" style="fill:none;stroke:#b0b0b0;stroke-linecap:square;stroke-width:0.8;"/>
     </g>
     <g id="line2d_4">
      <g>
       <use style="stroke:#000000;stroke-width:0.8;" x="129.024" xlink:href="#m500cecf027" y="307.584"/>
      </g>
     </g>
     <g id="text_2">
      <!-- −10 -->
      <defs>
       <path d="M 12.40625 8.296875 
L 28.515625 8.296875 
L 28.515625 63.921875 
L 10.984375 60.40625 
L 10.984375 69.390625 
L 28.421875 72.90625 
L 38.28125 72.90625 
L 38.28125 8.296875 
L 54.390625 8.296875 
L 54.390625 0 
L 12.40625 0 
z
" id="DejaVuSans-31"/>
      </defs>
      <g transform="translate(118.471656 322.182437)scale(0.1 -0.1)">
       <use xlink:href="#DejaVuSans-2212"/>
       <use x="83.789062" xlink:href="#DejaVuSans-31"/>
       <use x="147.412109" xlink:href="#DejaVuSans-30"/>
      </g>
     </g>
    </g>
    <g id="xtick_3">
     <g id="line2d_5">
      <path clip-path="url(#pb52e812ac4)" d="M 200.448 307.584 
L 200.448 41.472 
" style="fill:none;stroke:#b0b0b0;stroke-linecap:square;stroke-width:0.8;"/>
     </g>
     <g id="line2d_6">
      <g>
       <use style="stroke:#000000;stroke-width:0.8;" x="200.448" xlink:href="#m500cecf027" y="307.584"/>
      </g>
     </g>
     <g id="text_3">
      <!-- 0 -->
      <g transform="translate(197.26675 322.182437)scale(0.1 -0.1)">
       <use xlink:href="#DejaVuSans-30"/>
      </g>
     </g>
    </g>
    <g id="xtick_4">
     <g id="line2d_7">
      <path clip-path="url(#pb52e812ac4)" d="M 271.872 307.584 
L 271.872 41.472 
" style="fill:none;stroke:#b0b0b0;stroke-linecap:square;stroke-width:0.8;"/>
     </g>
     <g id="line2d_8">
      <g>
       <use style="stroke:#000000;stroke-width:0.8;" x="271.872" xlink:href="#m500cecf027" y="307.584"/>
      </g>
     </g>
     <g id="text_4">
      <!-- 10 -->
      <g transform="translate(265.5095 322.182437)scale(0.1 -0.1)">
       <use xlink:href="#DejaVuSans-31"/>
       <use x="63.623047" xlink:href="#DejaVuSans-30"/>
      </g>
     </g>
    </g>
    <g id="xtick_5">
     <g id="line2d_9">
      <path clip-path="url(#pb52e812ac4)" d="M 343.296 307.584 
L 343.296 41.472 
" style="fill:none;stroke:#b0b0b0;stroke-linecap:square;stroke-width:0.8;"/>
     </g>
     <g id="line2d_10">
      <g>
       <use style="stroke:#000000;stroke-width:0.8;" x="343.296" xlink:href="#m500cecf027" y="307.584"/>
      </g>
     </g>
     <g id="text_5">
      <!-- 20 -->
      <g transform="translate(336.9335 322.182437)scale(0.1 -0.1)">
       <use xlink:href="#DejaVuSans-32"/>
       <use x="63.623047" xlink:href="#DejaVuSans-30"/>
      </g>
     </g>
    </g>
    <g id="xtick_6">
     <g id="line2d_11">
      <path clip-path="url(#pb52e812ac4)" d="M 414.72 307.584 
L 414.72 41.472 
" style="fill:none;stroke:#b0b0b0;stroke-linecap:square;stroke-width:0.8;"/>
     </g>
     <g id="line2d_12">
      <g>
       <use style="stroke:#000000;stroke-width:0.8;" x="414.72" xlink:href="#m500cecf027" y="307.584"/>
      </g>
     </g>
     <g id="text_6">
      <!-- 30 -->
      <defs>
       <path d="M 40.578125 39.3125 
Q 47.65625 37.796875 51.625 33 
Q 55.609375 28.21875 55.609375 21.1875 
Q 55.609375 10.40625 48.1875 4.484375 
Q 40.765625 -1.421875 27.09375 -1.421875 
Q 22.515625 -1.421875 17.65625 -0.515625 
Q 12.796875 0.390625 7.625 2.203125 
L 7.625 11.71875 
Q 11.71875 9.328125 16.59375 8.109375 
Q 21.484375 6.890625 26.8125 6.890625 
Q 36.078125 6.890625 40.9375 10.546875 
Q 45.796875 14.203125 45.796875 21.1875 
Q 45.796875 27.640625 41.28125 31.265625 
Q 36.765625 34.90625 28.71875 34.90625 
L 20.21875 34.90625 
L 20.21875 43.015625 
L 29.109375 43.015625 
Q 36.375 43.015625 40.234375 45.921875 
Q 44.09375 48.828125 44.09375 54.296875 
Q 44.09375 59.90625 40.109375 62.90625 
Q 36.140625 65.921875 28.71875 65.921875 
Q 24.65625 65.921875 20.015625 65.03125 
Q 15.375 64.15625 9.8125 62.3125 
L 9.8125 71.09375 
Q 15.4375 72.65625 20.34375 73.4375 
Q 25.25 74.21875 29.59375 74.21875 
Q 40.828125 74.21875 47.359375 69.109375 
Q 53.90625 64.015625 53.90625 55.328125 
Q 53.90625 49.265625 50.4375 45.09375 
Q 46.96875 40.921875 40.578125 39.3125 
" id="DejaVuSans-33"/>
      </defs>
      <g transform="translate(408.3575 322.182437)scale(0.1 -0.1)">
       <use xlink:href="#DejaVuSans-33"/>
       <use x="63.623047" xlink:href="#DejaVuSans-30"/>
      </g>
     </g>
    </g>
   </g>
   <g id="matplotlib.axis_2">
    <g id="ytick_1">
     <g id="line2d_13">
      <path clip-path="url(#pb52e812ac4)" d="M 57.6 307.584 
L 414.72 307.584 
" style="fill:none;stroke:#b0b0b0;stroke-linecap:square;stroke-width:0.8;"/>
     </g>
     <g id="line2d_14">
      <defs>
       <path d="M 0 0 
L -3.5 0 
" id="mb0ca4a25fd" style="stroke:#000000;stroke-width:0.8;"/>
      </defs>
      <g>
       <use style="stroke:#000000;stroke-width:0.8;" x="57.6" xlink:href="#mb0ca4a25fd" y="307.584"/>
      </g>
     </g>
     <g id="text_7">
      <!-- 0.00 -->
      <defs>
       <path d="M 10.6875 12.40625 
L 21 12.40625 
L 21 0 
L 10.6875 0 
z
" id="DejaVuSans-2e"/>
      </defs>
      <g transform="translate(28.334375 311.383219)scale(0.1 -0.1)">
       <use xlink:href="#DejaVuSans-30"/>
       <use x="63.623047" xlink:href="#DejaVuSans-2e"/>
       <use x="95.410156" xlink:href="#DejaVuSans-30"/>
       <use x="159.033203" xlink:href="#DejaVuSans-30"/>
      </g>
     </g>
    </g>
    <g id="ytick_2">
     <g id="line2d_15">
      <path clip-path="url(#pb52e812ac4)" d="M 57.6 269.568 
L 414.72 269.568 
" style="fill:none;stroke:#b0b0b0;stroke-linecap:square;stroke-width:0.8;"/>
     </g>
     <g id="line2d_16">
      <g>
       <use style="stroke:#000000;stroke-width:0.8;" x="57.6" xlink:href="#mb0ca4a25fd" y="269.568"/>
      </g>
     </g>
     <g id="text_8">
      <!-- 0.05 -->
      <defs>
       <path d="M 10.796875 72.90625 
L 49.515625 72.90625 
L 49.515625 64.59375 
L 19.828125 64.59375 
L 19.828125 46.734375 
Q 21.96875 47.46875 24.109375 47.828125 
Q 26.265625 48.1875 28.421875 48.1875 
Q 40.625 48.1875 47.75 41.5 
Q 54.890625 34.8125 54.890625 23.390625 
Q 54.890625 11.625 47.5625 5.09375 
Q 40.234375 -1.421875 26.90625 -1.421875 
Q 22.3125 -1.421875 17.546875 -0.640625 
Q 12.796875 0.140625 7.71875 1.703125 
L 7.71875 11.625 
Q 12.109375 9.234375 16.796875 8.0625 
Q 21.484375 6.890625 26.703125 6.890625 
Q 35.15625 6.890625 40.078125 11.328125 
Q 45.015625 15.765625 45.015625 23.390625 
Q 45.015625 31 40.078125 35.4375 
Q 35.15625 39.890625 26.703125 39.890625 
Q 22.75 39.890625 18.8125 39.015625 
Q 14.890625 38.140625 10.796875 36.28125 
z
" id="DejaVuSans-35"/>
      </defs>
      <g transform="translate(28.334375 273.367219)scale(0.1 -0.1)">
       <use xlink:href="#DejaVuSans-30"/>
       <use x="63.623047" xlink:href="#DejaVuSans-2e"/>
       <use x="95.410156" xlink:href="#DejaVuSans-30"/>
       <use x="159.033203" xlink:href="#DejaVuSans-35"/>
      </g>
     </g>
    </g>
    <g id="ytick_3">
     <g id="line2d_17">
      <path clip-path="url(#pb52e812ac4)" d="M 57.6 231.552 
L 414.72 231.552 
" style="fill:none;stroke:#b0b0b0;stroke-linecap:square;stroke-width:0.8;"/>
     </g>
     <g id="line2d_18">
      <g>
       <use style="stroke:#000000;stroke-width:0.8;" x="57.6" xlink:href="#mb0ca4a25fd" y="231.552"/>
      </g>
     </g>
     <g id="text_9">
      <!-- 0.10 -->
      <g transform="translate(28.334375 235.351219)scale(0.1 -0.1)">
       <use xlink:href="#DejaVuSans-30"/>
       <use x="63.623047" xlink:href="#DejaVuSans-2e"/>
       <use x="95.410156" xlink:href="#DejaVuSans-31"/>
       <use x="159.033203" xlink:href="#DejaVuSans-30"/>
      </g>
     </g>
    </g>
    <g id="ytick_4">
     <g id="line2d_19">
      <path clip-path="url(#pb52e812ac4)" d="M 57.6 193.536 
L 414.72 193.536 
" style="fill:none;stroke:#b0b0b0;stroke-linecap:square;stroke-width:0.8;"/>
     </g>
     <g id="line2d_20">
      <g>
       <use style="stroke:#000000;stroke-width:0.8;" x="57.6" xlink:href="#mb0ca4a25fd" y="193.536"/>
      </g>
     </g>
     <g id="text_10">
      <!-- 0.15 -->
      <g transform="translate(28.334375 197.335219)scale(0.1 -0.1)">
       <use xlink:href="#DejaVuSans-30"/>
       <use x="63.623047" xlink:href="#DejaVuSans-2e"/>
       <use x="95.410156" xlink:href="#DejaVuSans-31"/>
       <use x="159.033203" xlink:href="#DejaVuSans-35"/>
      </g>
     </g>
    </g>
    <g id="ytick_5">
     <g id="line2d_21">
      <path clip-path="url(#pb52e812ac4)" d="M 57.6 155.52 
L 414.72 155.52 
" style="fill:none;stroke:#b0b0b0;stroke-linecap:square;stroke-width:0.8;"/>
     </g>
     <g id="line2d_22">
      <g>
       <use style="stroke:#000000;stroke-width:0.8;" x="57.6" xlink:href="#mb0ca4a25fd" y="155.52"/>
      </g>
     </g>
     <g id="text_11">
      <!-- 0.20 -->
      <g transform="translate(28.334375 159.319219)scale(0.1 -0.1)">
       <use xlink:href="#DejaVuSans-30"/>
       <use x="63.623047" xlink:href="#DejaVuSans-2e"/>
       <use x="95.410156" xlink:href="#DejaVuSans-32"/>
       <use x="159.033203" xlink:href="#DejaVuSans-30"/>
      </g>
     </g>
    </g>
    <g id="ytick_6">
     <g id="line2d_23">
      <path clip-path="url(#pb52e812ac4)" d="M 57.6 117.504 
L 414.72 117.504 
" style="fill:none;stroke:#b0b0b0;stroke-linecap:square;stroke-width:0.8;"/>
     </g>
     <g id="line2d_24">
      <g>
       <use style="stroke:#000000;stroke-width:0.8;" x="57.6" xlink:href="#mb0ca4a25fd" y="117.504"/>
      </g>
     </g>
     <g id="text_12">
      <!-- 0.25 -->
      <g transform="translate(28.334375 121.303219)scale(0.1 -0.1)">
       <use xlink:href="#DejaVuSans-30"/>
       <use x="63.623047" xlink:href="#DejaVuSans-2e"/>
       <use x="95.410156" xlink:href="#DejaVuSans-32"/>
       <use x="159.033203" xlink:href="#DejaVuSans-35"/>
      </g>
     </g>
    </g>
    <g id="ytick_7">
     <g id="line2d_25">
      <path clip-path="url(#pb52e812ac4)" d="M 57.6 79.488 
L 414.72 79.488 
" style="fill:none;stroke:#b0b0b0;stroke-linecap:square;stroke-width:0.8;"/>
     </g>
     <g id="line2d_26">
      <g>
       <use style="stroke:#000000;stroke-width:0.8;" x="57.6" xlink:href="#mb0ca4a25fd" y="79.488"/>
      </g>
     </g>
     <g id="text_13">
      <!-- 0.30 -->
      <g transform="translate(28.334375 83.287219)scale(0.1 -0.1)">
       <use xlink:href="#DejaVuSans-30"/>
       <use x="63.623047" xlink:href="#DejaVuSans-2e"/>
       <use x="95.410156" xlink:href="#DejaVuSans-33"/>
       <use x="159.033203" xlink:href="#DejaVuSans-30"/>
      </g>
     </g>
    </g>
    <g id="ytick_8">
     <g id="line2d_27">
      <path clip-path="url(#pb52e812ac4)" d="M 57.6 41.472 
L 414.72 41.472 
" style="fill:none;stroke:#b0b0b0;stroke-linecap:square;stroke-width:0.8;"/>
     </g>
     <g id="line2d_28">
      <g>
       <use style="stroke:#000000;stroke-width:0.8;" x="57.6" xlink:href="#mb0ca4a25fd" y="41.472"/>
      </g>
     </g>
     <g id="text_14">
      <!-- 0.35 -->
      <g transform="translate(28.334375 45.271219)scale(0.1 -0.1)">
       <use xlink:href="#DejaVuSans-30"/>
       <use x="63.623047" xlink:href="#DejaVuSans-2e"/>
       <use x="95.410156" xlink:href="#DejaVuSans-33"/>
       <use x="159.033203" xlink:href="#DejaVuSans-35"/>
      </g>
     </g>
    </g>
   </g>
   <g id="line2d_29">
    <path clip-path="url(#pb52e812ac4)" d="M 343.635264 307.584 
L 344.01024 91.847882 
L 344.385216 307.584 
L 344.760192 307.584 
L 345.135168 307.584 
L 345.510144 307.584 
L 345.88512 307.584 
L 346.260096 307.584 
L 346.635072 307.584 
L 347.010048 307.584 
L 347.385024 307.584 
L 347.76 307.584 
L 348.134976 307.584 
L 348.509952 307.584 
L 348.884928 307.584 
L 349.259904 307.584 
L 349.63488 307.584 
L 350.009856 307.584 
L 350.384832 307.584 
L 350.759808 307.584 
L 351.134784 67.128118 
L 351.50976 307.584 
" style="fill:none;stroke:#000000;stroke-linecap:square;stroke-width:2;"/>
    <defs>
     <path d="M -1.5 1.5 
L 1.5 1.5 
L 1.5 -1.5 
L -1.5 -1.5 
z
" id="m9d217f306b" style="stroke:#000000;stroke-linejoin:miter;"/>
    </defs>
    <g clip-path="url(#pb52e812ac4)">
     <use style="stroke:#000000;stroke-linejoin:miter;" x="343.635264" xlink:href="#m9d217f306b" y="307.584"/>
     <use style="stroke:#000000;stroke-linejoin:miter;" x="344.01024" xlink:href="#m9d217f306b" y="91.847882"/>
     <use style="stroke:#000000;stroke-linejoin:miter;" x="344.385216" xlink:href="#m9d217f306b" y="307.584"/>
     <use style="stroke:#000000;stroke-linejoin:miter;" x="344.760192" xlink:href="#m9d217f306b" y="307.584"/>
     <use style="stroke:#000000;stroke-linejoin:miter;" x="345.135168" xlink:href="#m9d217f306b" y="307.584"/>
     <use style="stroke:#000000;stroke-linejoin:miter;" x="345.510144" xlink:href="#m9d217f306b" y="307.584"/>
     <use style="stroke:#000000;stroke-linejoin:miter;" x="345.88512" xlink:href="#m9d217f306b" y="307.584"/>
     <use style="stroke:#000000;stroke-linejoin:miter;" x="346.260096" xlink:href="#m9d217f306b" y="307.584"/>
     <use style="stroke:#000000;stroke-linejoin:miter;" x="346.635072" xlink:href="#m9d217f306b" y="307.584"/>
     <use style="stroke:#000000;stroke-linejoin:miter;" x="347.010048" xlink:href="#m9d217f306b" y="307.584"/>
     <use style="stroke:#000000;stroke-linejoin:miter;" x="347.385024" xlink:href="#m9d217f306b" y="307.584"/>
     <use style="stroke:#000000;stroke-linejoin:miter;" x="347.76" xlink:href="#m9d217f306b" y="307.584"/>
     <use style="stroke:#000000;stroke-linejoin:miter;" x="348.134976" xlink:href="#m9d217f306b" y="307.584"/>
     <use style="stroke:#000000;stroke-linejoin:miter;" x="348.509952" xlink:href="#m9d217f306b" y="307.584"/>
     <use style="stroke:#000000;stroke-linejoin:miter;" x="348.884928" xlink:href="#m9d217f306b" y="307.584"/>
     <use style="stroke:#000000;stroke-linejoin:miter;" x="349.259904" xlink:href="#m9d217f306b" y="307.584"/>
     <use style="stroke:#000000;stroke-linejoin:miter;" x="349.63488" xlink:href="#m9d217f306b" y="307.584"/>
     <use style="stroke:#000000;stroke-linejoin:miter;" x="350.009856" xlink:href="#m9d217f306b" y="307.584"/>
     <use style="stroke:#000000;stroke-linejoin:miter;" x="350.384832" xlink:href="#m9d217f306b" y="307.584"/>
     <use style="stroke:#000000;stroke-linejoin:miter;" x="350.759808" xlink:href="#m9d217f306b" y="307.584"/>
     <use style="stroke:#000000;stroke-linejoin:miter;" x="351.134784" xlink:href="#m9d217f306b" y="67.128118"/>
     <use style="stroke:#000000;stroke-linejoin:miter;" x="351.50976" xlink:href="#m9d217f306b" y="307.584"/>
    </g>
   </g>
   <g id="line2d_30">
    <path clip-path="url(#pb52e812ac4)" d="M 312.605107 307.584 
L 312.797952 91.847882 
L 312.990797 307.584 
L 313.183642 307.584 
L 313.376486 307.584 
L 313.569331 307.584 
L 313.762176 307.584 
L 313.955021 307.584 
L 314.147866 307.584 
L 314.34071 307.584 
L 314.533555 307.584 
L 314.7264 307.584 
L 314.919245 307.584 
L 315.11209 307.584 
L 315.304934 307.584 
L 315.497779 307.584 
L 315.690624 307.584 
L 315.883469 307.584 
L 316.076314 307.584 
L 316.269158 307.584 
L 316.462003 67.128118 
L 316.654848 307.584 
" style="fill:none;stroke:#bfbfbf;stroke-linecap:square;stroke-width:2;"/>
    <defs>
     <path d="M 0 1.5 
C 0.397805 1.5 0.77937 1.341951 1.06066 1.06066 
C 1.341951 0.77937 1.5 0.397805 1.5 0 
C 1.5 -0.397805 1.341951 -0.77937 1.06066 -1.06066 
C 0.77937 -1.341951 0.397805 -1.5 0 -1.5 
C -0.397805 -1.5 -0.77937 -1.341951 -1.06066 -1.06066 
C -1.341951 -0.77937 -1.5 -0.397805 -1.5 0 
C -1.5 0.397805 -1.341951 0.77937 -1.06066 1.06066 
C -0.77937 1.341951 -0.397805 1.5 0 1.5 
z
" id="m2664a689f1" style="stroke:#bfbfbf;"/>
    </defs>
    <g clip-path="url(#pb52e812ac4)">
     <use style="fill:#bfbfbf;stroke:#bfbfbf;" x="312.605107" xlink:href="#m2664a689f1" y="307.584"/>
     <use style="fill:#bfbfbf;stroke:#bfbfbf;" x="312.797952" xlink:href="#m2664a689f1" y="91.847882"/>
     <use style="fill:#bfbfbf;stroke:#bfbfbf;" x="312.990797" xlink:href="#m2664a689f1" y="307.584"/>
     <use style="fill:#bfbfbf;stroke:#bfbfbf;" x="313.183642" xlink:href="#m2664a689f1" y="307.584"/>
     <use style="fill:#bfbfbf;stroke:#bfbfbf;" x="313.376486" xlink:href="#m2664a689f1" y="307.584"/>
     <use style="fill:#bfbfbf;stroke:#bfbfbf;" x="313.569331" xlink:href="#m2664a689f1" y="307.584"/>
     <use style="fill:#bfbfbf;stroke:#bfbfbf;" x="313.762176" xlink:href="#m2664a689f1" y="307.584"/>
     <use style="fill:#bfbfbf;stroke:#bfbfbf;" x="313.955021" xlink:href="#m2664a689f1" y="307.584"/>
     <use style="fill:#bfbfbf;stroke:#bfbfbf;" x="314.147866" xlink:href="#m2664a689f1" y="307.584"/>
     <use style="fill:#bfbfbf;stroke:#bfbfbf;" x="314.34071" xlink:href="#m2664a689f1" y="307.584"/>
     <use style="fill:#bfbfbf;stroke:#bfbfbf;" x="314.533555" xlink:href="#m2664a689f1" y="307.584"/>
     <use style="fill:#bfbfbf;stroke:#bfbfbf;" x="314.7264" xlink:href="#m2664a689f1" y="307.584"/>
     <use style="fill:#bfbfbf;stroke:#bfbfbf;" x="314.919245" xlink:href="#m2664a689f1" y="307.584"/>
     <use style="fill:#bfbfbf;stroke:#bfbfbf;" x="315.11209" xlink:href="#m2664a689f1" y="307.584"/>
     <use style="fill:#bfbfbf;stroke:#bfbfbf;" x="315.304934" xlink:href="#m2664a689f1" y="307.584"/>
     <use style="fill:#bfbfbf;stroke:#bfbfbf;" x="315.497779" xlink:href="#m2664a689f1" y="307.584"/>
     <use style="fill:#bfbfbf;stroke:#bfbfbf;" x="315.690624" xlink:href="#m2664a689f1" y="307.584"/>
     <use style="fill:#bfbfbf;stroke:#bfbfbf;" x="315.883469" xlink:href="#m2664a689f1" y="307.584"/>
     <use style="fill:#bfbfbf;stroke:#bfbfbf;" x="316.076314" xlink:href="#m2664a689f1" y="307.584"/>
     <use style="fill:#bfbfbf;stroke:#bfbfbf;" x="316.269158" xlink:href="#m2664a689f1" y="307.584"/>
     <use style="fill:#bfbfbf;stroke:#bfbfbf;" x="316.462003" xlink:href="#m2664a689f1" y="67.128118"/>
     <use style="fill:#bfbfbf;stroke:#bfbfbf;" x="316.654848" xlink:href="#m2664a689f1" y="307.584"/>
    </g>
   </g>
   <g id="line2d_31">
    <path clip-path="url(#pb52e812ac4)" d="M 150.997594 307.584 
L 161.87904 292.626885 
L 172.760486 307.584 
L 183.641933 307.584 
L 194.523379 307.584 
L 205.404826 307.584 
L 216.286272 307.584 
L 227.167718 307.584 
L 238.049165 307.584 
L 248.930611 307.584 
L 259.812058 262.712656 
L 270.693504 307.584 
L 281.57495 217.841311 
L 292.456397 247.755541 
L 303.337843 172.969967 
L 314.21929 232.798426 
L 325.100736 232.798426 
L 335.982182 128.098623 
L 346.863629 187.927082 
L 357.745075 247.755541 
L 368.626522 247.755541 
L 379.507968 307.584 
" style="fill:none;stroke:#000000;stroke-dasharray:2.2,2.2;stroke-dashoffset:0;stroke-width:2;"/>
    <g clip-path="url(#pb52e812ac4)">
     <use style="stroke:#000000;stroke-linejoin:miter;" x="150.997594" xlink:href="#m9d217f306b" y="307.584"/>
     <use style="stroke:#000000;stroke-linejoin:miter;" x="161.87904" xlink:href="#m9d217f306b" y="292.626885"/>
     <use style="stroke:#000000;stroke-linejoin:miter;" x="172.760486" xlink:href="#m9d217f306b" y="307.584"/>
     <use style="stroke:#000000;stroke-linejoin:miter;" x="183.641933" xlink:href="#m9d217f306b" y="307.584"/>
     <use style="stroke:#000000;stroke-linejoin:miter;" x="194.523379" xlink:href="#m9d217f306b" y="307.584"/>
     <use style="stroke:#000000;stroke-linejoin:miter;" x="205.404826" xlink:href="#m9d217f306b" y="307.584"/>
     <use style="stroke:#000000;stroke-linejoin:miter;" x="216.286272" xlink:href="#m9d217f306b" y="307.584"/>
     <use style="stroke:#000000;stroke-linejoin:miter;" x="227.167718" xlink:href="#m9d217f306b" y="307.584"/>
     <use style="stroke:#000000;stroke-linejoin:miter;" x="238.049165" xlink:href="#m9d217f306b" y="307.584"/>
     <use style="stroke:#000000;stroke-linejoin:miter;" x="248.930611" xlink:href="#m9d217f306b" y="307.584"/>
     <use style="stroke:#000000;stroke-linejoin:miter;" x="259.812058" xlink:href="#m9d217f306b" y="262.712656"/>
     <use style="stroke:#000000;stroke-linejoin:miter;" x="270.693504" xlink:href="#m9d217f306b" y="307.584"/>
     <use style="stroke:#000000;stroke-linejoin:miter;" x="281.57495" xlink:href="#m9d217f306b" y="217.841311"/>
     <use style="stroke:#000000;stroke-linejoin:miter;" x="292.456397" xlink:href="#m9d217f306b" y="247.755541"/>
     <use style="stroke:#000000;stroke-linejoin:miter;" x="303.337843" xlink:href="#m9d217f306b" y="172.969967"/>
     <use style="stroke:#000000;stroke-linejoin:miter;" x="314.21929" xlink:href="#m9d217f306b" y="232.798426"/>
     <use style="stroke:#000000;stroke-linejoin:miter;" x="325.100736" xlink:href="#m9d217f306b" y="232.798426"/>
     <use style="stroke:#000000;stroke-linejoin:miter;" x="335.982182" xlink:href="#m9d217f306b" y="128.098623"/>
     <use style="stroke:#000000;stroke-linejoin:miter;" x="346.863629" xlink:href="#m9d217f306b" y="187.927082"/>
     <use style="stroke:#000000;stroke-linejoin:miter;" x="357.745075" xlink:href="#m9d217f306b" y="247.755541"/>
     <use style="stroke:#000000;stroke-linejoin:miter;" x="368.626522" xlink:href="#m9d217f306b" y="247.755541"/>
     <use style="stroke:#000000;stroke-linejoin:miter;" x="379.507968" xlink:href="#m9d217f306b" y="307.584"/>
    </g>
   </g>
   <g id="line2d_32">
    <path clip-path="url(#pb52e812ac4)" d="M -1 307.501051 
L 16.066944 307.156625 
L 37.24416 307.584 
L 58.421376 306.810655 
L 79.598592 307.584 
L 100.775808 304.063246 
L 121.953024 304.917996 
L 143.13024 307.584 
L 164.307456 305.955906 
L 185.484672 307.584 
L 206.661888 264.602313 
L 227.839104 59.075769 
L 249.01632 307.584 
" style="fill:none;stroke:#bfbfbf;stroke-dasharray:2.2,2.2;stroke-dashoffset:0;stroke-width:2;"/>
    <g clip-path="url(#pb52e812ac4)">
     <use style="fill:#bfbfbf;stroke:#bfbfbf;" x="-1" xlink:href="#m2664a689f1" y="307.501051"/>
     <use style="fill:#bfbfbf;stroke:#bfbfbf;" x="16.066944" xlink:href="#m2664a689f1" y="307.156625"/>
     <use style="fill:#bfbfbf;stroke:#bfbfbf;" x="37.24416" xlink:href="#m2664a689f1" y="307.584"/>
     <use style="fill:#bfbfbf;stroke:#bfbfbf;" x="58.421376" xlink:href="#m2664a689f1" y="306.810655"/>
     <use style="fill:#bfbfbf;stroke:#bfbfbf;" x="79.598592" xlink:href="#m2664a689f1" y="307.584"/>
     <use style="fill:#bfbfbf;stroke:#bfbfbf;" x="100.775808" xlink:href="#m2664a689f1" y="304.063246"/>
     <use style="fill:#bfbfbf;stroke:#bfbfbf;" x="121.953024" xlink:href="#m2664a689f1" y="304.917996"/>
     <use style="fill:#bfbfbf;stroke:#bfbfbf;" x="143.13024" xlink:href="#m2664a689f1" y="307.584"/>
     <use style="fill:#bfbfbf;stroke:#bfbfbf;" x="164.307456" xlink:href="#m2664a689f1" y="305.955906"/>
     <use style="fill:#bfbfbf;stroke:#bfbfbf;" x="185.484672" xlink:href="#m2664a689f1" y="307.584"/>
     <use style="fill:#bfbfbf;stroke:#bfbfbf;" x="206.661888" xlink:href="#m2664a689f1" y="264.602313"/>
     <use style="fill:#bfbfbf;stroke:#bfbfbf;" x="227.839104" xlink:href="#m2664a689f1" y="59.075769"/>
     <use style="fill:#bfbfbf;stroke:#bfbfbf;" x="249.01632" xlink:href="#m2664a689f1" y="307.584"/>
    </g>
   </g>
   <g id="patch_3">
    <path d="M 57.6 307.584 
L 57.6 41.472 
" style="fill:none;stroke:#000000;stroke-linecap:square;stroke-linejoin:miter;stroke-width:0.8;"/>
   </g>
   <g id="patch_4">
    <path d="M 414.72 307.584 
L 414.72 41.472 
" style="fill:none;stroke:#000000;stroke-linecap:square;stroke-linejoin:miter;stroke-width:0.8;"/>
   </g>
   <g id="patch_5">
    <path d="M 57.6 307.584 
L 414.72 307.584 
" style="fill:none;stroke:#000000;stroke-linecap:square;stroke-linejoin:miter;stroke-width:0.8;"/>
   </g>
   <g id="patch_6">
    <path d="M 57.6 41.472 
L 414.72 41.472 
" style="fill:none;stroke:#000000;stroke-linecap:square;stroke-linejoin:miter;stroke-width:0.8;"/>
   </g>
   <g id="legend_1">
    <g id="patch_7">
     <path d="M 64.6 108.1845 
L 204.420312 108.1845 
Q 206.420312 108.1845 206.420312 106.1845 
L 206.420312 48.472 
Q 206.420312 46.472 204.420312 46.472 
L 64.6 46.472 
Q 62.6 46.472 62.6 48.472 
L 62.6 106.1845 
Q 62.6 108.1845 64.6 108.1845 
z
" style="fill:#ffffff;opacity:0.8;stroke:#cccccc;stroke-linejoin:miter;"/>
    </g>
    <g id="line2d_33">
     <path d="M 66.6 54.570438 
L 86.6 54.570438 
" style="fill:none;stroke:#000000;stroke-linecap:square;stroke-width:2;"/>
    </g>
    <g id="line2d_34">
     <g>
      <use style="stroke:#000000;stroke-linejoin:miter;" x="76.6" xlink:href="#m9d217f306b" y="54.570438"/>
     </g>
    </g>
    <g id="text_15">
     <!-- Proteus vs Pfam seed -->
     <defs>
      <path d="M 19.671875 64.796875 
L 19.671875 37.40625 
L 32.078125 37.40625 
Q 38.96875 37.40625 42.71875 40.96875 
Q 46.484375 44.53125 46.484375 51.125 
Q 46.484375 57.671875 42.71875 61.234375 
Q 38.96875 64.796875 32.078125 64.796875 
z
M 9.8125 72.90625 
L 32.078125 72.90625 
Q 44.34375 72.90625 50.609375 67.359375 
Q 56.890625 61.8125 56.890625 51.125 
Q 56.890625 40.328125 50.609375 34.8125 
Q 44.34375 29.296875 32.078125 29.296875 
L 19.671875 29.296875 
L 19.671875 0 
L 9.8125 0 
z
" id="DejaVuSans-50"/>
      <path d="M 41.109375 46.296875 
Q 39.59375 47.171875 37.8125 47.578125 
Q 36.03125 48 33.890625 48 
Q 26.265625 48 22.1875 43.046875 
Q 18.109375 38.09375 18.109375 28.8125 
L 18.109375 0 
L 9.078125 0 
L 9.078125 54.6875 
L 18.109375 54.6875 
L 18.109375 46.1875 
Q 20.953125 51.171875 25.484375 53.578125 
Q 30.03125 56 36.53125 56 
Q 37.453125 56 38.578125 55.875 
Q 39.703125 55.765625 41.0625 55.515625 
z
" id="DejaVuSans-72"/>
      <path d="M 30.609375 48.390625 
Q 23.390625 48.390625 19.1875 42.75 
Q 14.984375 37.109375 14.984375 27.296875 
Q 14.984375 17.484375 19.15625 11.84375 
Q 23.34375 6.203125 30.609375 6.203125 
Q 37.796875 6.203125 41.984375 11.859375 
Q 46.1875 17.53125 46.1875 27.296875 
Q 46.1875 37.015625 41.984375 42.703125 
Q 37.796875 48.390625 30.609375 48.390625 
M 30.609375 56 
Q 42.328125 56 49.015625 48.375 
Q 55.71875 40.765625 55.71875 27.296875 
Q 55.71875 13.875 49.015625 6.21875 
Q 42.328125 -1.421875 30.609375 -1.421875 
Q 18.84375 -1.421875 12.171875 6.21875 
Q 5.515625 13.875 5.515625 27.296875 
Q 5.515625 40.765625 12.171875 48.375 
Q 18.84375 56 30.609375 56 
" id="DejaVuSans-6f"/>
      <path d="M 18.3125 70.21875 
L 18.3125 54.6875 
L 36.8125 54.6875 
L 36.8125 47.703125 
L 18.3125 47.703125 
L 18.3125 18.015625 
Q 18.3125 11.328125 20.140625 9.421875 
Q 21.96875 7.515625 27.59375 7.515625 
L 36.8125 7.515625 
L 36.8125 0 
L 27.59375 0 
Q 17.1875 0 13.234375 3.875 
Q 9.28125 7.765625 9.28125 18.015625 
L 9.28125 47.703125 
L 2.6875 47.703125 
L 2.6875 54.6875 
L 9.28125 54.6875 
L 9.28125 70.21875 
z
" id="DejaVuSans-74"/>
      <path d="M 56.203125 29.59375 
L 56.203125 25.203125 
L 14.890625 25.203125 
Q 15.484375 15.921875 20.484375 11.0625 
Q 25.484375 6.203125 34.421875 6.203125 
Q 39.59375 6.203125 44.453125 7.46875 
Q 49.3125 8.734375 54.109375 11.28125 
L 54.109375 2.78125 
Q 49.265625 0.734375 44.1875 -0.34375 
Q 39.109375 -1.421875 33.890625 -1.421875 
Q 20.796875 -1.421875 13.15625 6.1875 
Q 5.515625 13.8125 5.515625 26.8125 
Q 5.515625 40.234375 12.765625 48.109375 
Q 20.015625 56 32.328125 56 
Q 43.359375 56 49.78125 48.890625 
Q 56.203125 41.796875 56.203125 29.59375 
M 47.21875 32.234375 
Q 47.125 39.59375 43.09375 43.984375 
Q 39.0625 48.390625 32.421875 48.390625 
Q 24.90625 48.390625 20.390625 44.140625 
Q 15.875 39.890625 15.1875 32.171875 
z
" id="DejaVuSans-65"/>
      <path d="M 8.5 21.578125 
L 8.5 54.6875 
L 17.484375 54.6875 
L 17.484375 21.921875 
Q 17.484375 14.15625 20.5 10.265625 
Q 23.53125 6.390625 29.59375 6.390625 
Q 36.859375 6.390625 41.078125 11.03125 
Q 45.3125 15.671875 45.3125 23.6875 
L 45.3125 54.6875 
L 54.296875 54.6875 
L 54.296875 0 
L 45.3125 0 
L 45.3125 8.40625 
Q 42.046875 3.421875 37.71875 1 
Q 33.40625 -1.421875 27.6875 -1.421875 
Q 18.265625 -1.421875 13.375 4.4375 
Q 8.5 10.296875 8.5 21.578125 
M 31.109375 56 
z
" id="DejaVuSans-75"/>
      <path d="M 44.28125 53.078125 
L 44.28125 44.578125 
Q 40.484375 46.53125 36.375 47.5 
Q 32.28125 48.484375 27.875 48.484375 
Q 21.1875 48.484375 17.84375 46.4375 
Q 14.5 44.390625 14.5 40.28125 
Q 14.5 37.15625 16.890625 35.375 
Q 19.28125 33.59375 26.515625 31.984375 
L 29.59375 31.296875 
Q 39.15625 29.25 43.1875 25.515625 
Q 47.21875 21.78125 47.21875 15.09375 
Q 47.21875 7.46875 41.1875 3.015625 
Q 35.15625 -1.421875 24.609375 -1.421875 
Q 20.21875 -1.421875 15.453125 -0.5625 
Q 10.6875 0.296875 5.421875 2 
L 5.421875 11.28125 
Q 10.40625 8.6875 15.234375 7.390625 
Q 20.0625 6.109375 24.8125 6.109375 
Q 31.15625 6.109375 34.5625 8.28125 
Q 37.984375 10.453125 37.984375 14.40625 
Q 37.984375 18.0625 35.515625 20.015625 
Q 33.0625 21.96875 24.703125 23.78125 
L 21.578125 24.515625 
Q 13.234375 26.265625 9.515625 29.90625 
Q 5.8125 33.546875 5.8125 39.890625 
Q 5.8125 47.609375 11.28125 51.796875 
Q 16.75 56 26.8125 56 
Q 31.78125 56 36.171875 55.265625 
Q 40.578125 54.546875 44.28125 53.078125 
" id="DejaVuSans-73"/>
      <path id="DejaVuSans-20"/>
      <path d="M 2.984375 54.6875 
L 12.5 54.6875 
L 29.59375 8.796875 
L 46.6875 54.6875 
L 56.203125 54.6875 
L 35.6875 0 
L 23.484375 0 
z
" id="DejaVuSans-76"/>
      <path d="M 37.109375 75.984375 
L 37.109375 68.5 
L 28.515625 68.5 
Q 23.6875 68.5 21.796875 66.546875 
Q 19.921875 64.59375 19.921875 59.515625 
L 19.921875 54.6875 
L 34.71875 54.6875 
L 34.71875 47.703125 
L 19.921875 47.703125 
L 19.921875 0 
L 10.890625 0 
L 10.890625 47.703125 
L 2.296875 47.703125 
L 2.296875 54.6875 
L 10.890625 54.6875 
L 10.890625 58.5 
Q 10.890625 67.625 15.140625 71.796875 
Q 19.390625 75.984375 28.609375 75.984375 
z
" id="DejaVuSans-66"/>
      <path d="M 34.28125 27.484375 
Q 23.390625 27.484375 19.1875 25 
Q 14.984375 22.515625 14.984375 16.5 
Q 14.984375 11.71875 18.140625 8.90625 
Q 21.296875 6.109375 26.703125 6.109375 
Q 34.1875 6.109375 38.703125 11.40625 
Q 43.21875 16.703125 43.21875 25.484375 
L 43.21875 27.484375 
z
M 52.203125 31.203125 
L 52.203125 0 
L 43.21875 0 
L 43.21875 8.296875 
Q 40.140625 3.328125 35.546875 0.953125 
Q 30.953125 -1.421875 24.3125 -1.421875 
Q 15.921875 -1.421875 10.953125 3.296875 
Q 6 8.015625 6 15.921875 
Q 6 25.140625 12.171875 29.828125 
Q 18.359375 34.515625 30.609375 34.515625 
L 43.21875 34.515625 
L 43.21875 35.40625 
Q 43.21875 41.609375 39.140625 45 
Q 35.0625 48.390625 27.6875 48.390625 
Q 23 48.390625 18.546875 47.265625 
Q 14.109375 46.140625 10.015625 43.890625 
L 10.015625 52.203125 
Q 14.9375 54.109375 19.578125 55.046875 
Q 24.21875 56 28.609375 56 
Q 40.484375 56 46.34375 49.84375 
Q 52.203125 43.703125 52.203125 31.203125 
" id="DejaVuSans-61"/>
      <path d="M 52 44.1875 
Q 55.375 50.25 60.0625 53.125 
Q 64.75 56 71.09375 56 
Q 79.640625 56 84.28125 50.015625 
Q 88.921875 44.046875 88.921875 33.015625 
L 88.921875 0 
L 79.890625 0 
L 79.890625 32.71875 
Q 79.890625 40.578125 77.09375 44.375 
Q 74.3125 48.1875 68.609375 48.1875 
Q 61.625 48.1875 57.5625 43.546875 
Q 53.515625 38.921875 53.515625 30.90625 
L 53.515625 0 
L 44.484375 0 
L 44.484375 32.71875 
Q 44.484375 40.625 41.703125 44.40625 
Q 38.921875 48.1875 33.109375 48.1875 
Q 26.21875 48.1875 22.15625 43.53125 
Q 18.109375 38.875 18.109375 30.90625 
L 18.109375 0 
L 9.078125 0 
L 9.078125 54.6875 
L 18.109375 54.6875 
L 18.109375 46.1875 
Q 21.1875 51.21875 25.484375 53.609375 
Q 29.78125 56 35.6875 56 
Q 41.65625 56 45.828125 52.96875 
Q 50 49.953125 52 44.1875 
" id="DejaVuSans-6d"/>
      <path d="M 45.40625 46.390625 
L 45.40625 75.984375 
L 54.390625 75.984375 
L 54.390625 0 
L 45.40625 0 
L 45.40625 8.203125 
Q 42.578125 3.328125 38.25 0.953125 
Q 33.9375 -1.421875 27.875 -1.421875 
Q 17.96875 -1.421875 11.734375 6.484375 
Q 5.515625 14.40625 5.515625 27.296875 
Q 5.515625 40.1875 11.734375 48.09375 
Q 17.96875 56 27.875 56 
Q 33.9375 56 38.25 53.625 
Q 42.578125 51.265625 45.40625 46.390625 
M 14.796875 27.296875 
Q 14.796875 17.390625 18.875 11.75 
Q 22.953125 6.109375 30.078125 6.109375 
Q 37.203125 6.109375 41.296875 11.75 
Q 45.40625 17.390625 45.40625 27.296875 
Q 45.40625 37.203125 41.296875 42.84375 
Q 37.203125 48.484375 30.078125 48.484375 
Q 22.953125 48.484375 18.875 42.84375 
Q 14.796875 37.203125 14.796875 27.296875 
" id="DejaVuSans-64"/>
     </defs>
     <g transform="translate(94.6 58.070438)scale(0.1 -0.1)">
      <use xlink:href="#DejaVuSans-50"/>
      <use x="60.287109" xlink:href="#DejaVuSans-72"/>
      <use x="101.369141" xlink:href="#DejaVuSans-6f"/>
      <use x="162.550781" xlink:href="#DejaVuSans-74"/>
      <use x="201.759766" xlink:href="#DejaVuSans-65"/>
      <use x="263.283203" xlink:href="#DejaVuSans-75"/>
      <use x="326.662109" xlink:href="#DejaVuSans-73"/>
      <use x="378.761719" xlink:href="#DejaVuSans-20"/>
      <use x="410.548828" xlink:href="#DejaVuSans-76"/>
      <use x="469.728516" xlink:href="#DejaVuSans-73"/>
      <use x="521.828125" xlink:href="#DejaVuSans-20"/>
      <use x="553.615234" xlink:href="#DejaVuSans-50"/>
      <use x="613.917969" xlink:href="#DejaVuSans-66"/>
      <use x="649.123047" xlink:href="#DejaVuSans-61"/>
      <use x="710.402344" xlink:href="#DejaVuSans-6d"/>
      <use x="807.814453" xlink:href="#DejaVuSans-20"/>
      <use x="839.601562" xlink:href="#DejaVuSans-73"/>
      <use x="891.701172" xlink:href="#DejaVuSans-65"/>
      <use x="953.224609" xlink:href="#DejaVuSans-65"/>
      <use x="1014.748047" xlink:href="#DejaVuSans-64"/>
     </g>
    </g>
    <g id="line2d_35">
     <path d="M 66.6 69.248563 
L 86.6 69.248563 
" style="fill:none;stroke:#bfbfbf;stroke-linecap:square;stroke-width:2;"/>
    </g>
    <g id="line2d_36">
     <g>
      <use style="fill:#bfbfbf;stroke:#bfbfbf;" x="76.6" xlink:href="#m2664a689f1" y="69.248563"/>
     </g>
    </g>
    <g id="text_16">
     <!-- Proteus vs Pfam full -->
     <defs>
      <path d="M 9.421875 75.984375 
L 18.40625 75.984375 
L 18.40625 0 
L 9.421875 0 
z
" id="DejaVuSans-6c"/>
     </defs>
     <g transform="translate(94.6 72.748563)scale(0.1 -0.1)">
      <use xlink:href="#DejaVuSans-50"/>
      <use x="60.287109" xlink:href="#DejaVuSans-72"/>
      <use x="101.369141" xlink:href="#DejaVuSans-6f"/>
      <use x="162.550781" xlink:href="#DejaVuSans-74"/>
      <use x="201.759766" xlink:href="#DejaVuSans-65"/>
      <use x="263.283203" xlink:href="#DejaVuSans-75"/>
      <use x="326.662109" xlink:href="#DejaVuSans-73"/>
      <use x="378.761719" xlink:href="#DejaVuSans-20"/>
      <use x="410.548828" xlink:href="#DejaVuSans-76"/>
      <use x="469.728516" xlink:href="#DejaVuSans-73"/>
      <use x="521.828125" xlink:href="#DejaVuSans-20"/>
      <use x="553.615234" xlink:href="#DejaVuSans-50"/>
      <use x="613.917969" xlink:href="#DejaVuSans-66"/>
      <use x="649.123047" xlink:href="#DejaVuSans-61"/>
      <use x="710.402344" xlink:href="#DejaVuSans-6d"/>
      <use x="807.814453" xlink:href="#DejaVuSans-20"/>
      <use x="839.601562" xlink:href="#DejaVuSans-66"/>
      <use x="874.806641" xlink:href="#DejaVuSans-75"/>
      <use x="938.185547" xlink:href="#DejaVuSans-6c"/>
      <use x="965.96875" xlink:href="#DejaVuSans-6c"/>
     </g>
    </g>
    <g id="line2d_37">
     <path d="M 66.6 83.926688 
L 86.6 83.926688 
" style="fill:none;stroke:#000000;stroke-dasharray:2.2,2.2;stroke-dashoffset:0;stroke-width:2;"/>
    </g>
    <g id="line2d_38">
     <g>
      <use style="stroke:#000000;stroke-linejoin:miter;" x="76.6" xlink:href="#m9d217f306b" y="83.926688"/>
     </g>
    </g>
    <g id="text_17">
     <!-- Pfam vs Pfam seed -->
     <g transform="translate(94.6 87.426688)scale(0.1 -0.1)">
      <use xlink:href="#DejaVuSans-50"/>
      <use x="60.302734" xlink:href="#DejaVuSans-66"/>
      <use x="95.507812" xlink:href="#DejaVuSans-61"/>
      <use x="156.787109" xlink:href="#DejaVuSans-6d"/>
      <use x="254.199219" xlink:href="#DejaVuSans-20"/>
      <use x="285.986328" xlink:href="#DejaVuSans-76"/>
      <use x="345.166016" xlink:href="#DejaVuSans-73"/>
      <use x="397.265625" xlink:href="#DejaVuSans-20"/>
      <use x="429.052734" xlink:href="#DejaVuSans-50"/>
      <use x="489.355469" xlink:href="#DejaVuSans-66"/>
      <use x="524.560547" xlink:href="#DejaVuSans-61"/>
      <use x="585.839844" xlink:href="#DejaVuSans-6d"/>
      <use x="683.251953" xlink:href="#DejaVuSans-20"/>
      <use x="715.039062" xlink:href="#DejaVuSans-73"/>
      <use x="767.138672" xlink:href="#DejaVuSans-65"/>
      <use x="828.662109" xlink:href="#DejaVuSans-65"/>
      <use x="890.185547" xlink:href="#DejaVuSans-64"/>
     </g>
    </g>
    <g id="line2d_39">
     <path d="M 66.6 98.604813 
L 86.6 98.604813 
" style="fill:none;stroke:#bfbfbf;stroke-dasharray:2.2,2.2;stroke-dashoffset:0;stroke-width:2;"/>
    </g>
    <g id="line2d_40">
     <g>
      <use style="fill:#bfbfbf;stroke:#bfbfbf;" x="76.6" xlink:href="#m2664a689f1" y="98.604813"/>
     </g>
    </g>
    <g id="text_18">
     <!-- Pfam vs Pfam full -->
     <g transform="translate(94.6 102.104813)scale(0.1 -0.1)">
      <use xlink:href="#DejaVuSans-50"/>
      <use x="60.302734" xlink:href="#DejaVuSans-66"/>
      <use x="95.507812" xlink:href="#DejaVuSans-61"/>
      <use x="156.787109" xlink:href="#DejaVuSans-6d"/>
      <use x="254.199219" xlink:href="#DejaVuSans-20"/>
      <use x="285.986328" xlink:href="#DejaVuSans-76"/>
      <use x="345.166016" xlink:href="#DejaVuSans-73"/>
      <use x="397.265625" xlink:href="#DejaVuSans-20"/>
      <use x="429.052734" xlink:href="#DejaVuSans-50"/>
      <use x="489.355469" xlink:href="#DejaVuSans-66"/>
      <use x="524.560547" xlink:href="#DejaVuSans-61"/>
      <use x="585.839844" xlink:href="#DejaVuSans-6d"/>
      <use x="683.251953" xlink:href="#DejaVuSans-20"/>
      <use x="715.039062" xlink:href="#DejaVuSans-66"/>
      <use x="750.244141" xlink:href="#DejaVuSans-75"/>
      <use x="813.623047" xlink:href="#DejaVuSans-6c"/>
      <use x="841.40625" xlink:href="#DejaVuSans-6c"/>
     </g>
    </g>
   </g>
  </g>
 </g>
 <defs>
  <clipPath id="pb52e812ac4">
   <rect height="266.112" width="357.12" x="57.6" y="41.472"/>
  </clipPath>
 </defs>
</svg>
