<?xml version="1.0" encoding="UTF-8" standalone="no"?>
<svg
   xmlns:dc="http://purl.org/dc/elements/1.1/"
   xmlns:cc="http://creativecommons.org/ns#"
   xmlns:rdf="http://www.w3.org/1999/02/22-rdf-syntax-ns#"
   xmlns:svg="http://www.w3.org/2000/svg"
   xmlns="http://www.w3.org/2000/svg"
   id="svg8"
   version="1.1"
   viewBox="0 0 132.16881 67.577553"
   height="67.577553mm"
   width="132.16881mm">
  <defs
     id="defs2" />
  <metadata
     id="metadata5">
    <rdf:RDF>
      <cc:Work
         rdf:about="">
        <dc:format>image/svg+xml</dc:format>
        <dc:type
           rdf:resource="http://purl.org/dc/dcmitype/StillImage" />
        <dc:title></dc:title>
      </cc:Work>
    </rdf:RDF>
  </metadata>
  <g
     transform="translate(-33.275254,-74.911913)"
     id="layer1">
    <g
       transform="rotate(7.9536768,44.854627,1129.2138)"
       id="g1036">
      <path
         style="fill:none;fill-rule:evenodd;stroke:#000000;stroke-width:1.5;stroke-linecap:butt;stroke-linejoin:miter;stroke-miterlimit:4;stroke-dasharray:none;stroke-opacity:1"
         d="m -61.713369,86.941664 c 0,0 -6.520656,2.328807 -6.520656,2.328807 0,0 3.958969,7.685061 3.958969,7.685061 0,0 7.685061,5.123378 7.685061,5.123378 0,0 5.123375,-1.63017 5.123375,-1.63017 0,0 -3.958971,-8.150822 -3.958971,-8.150822 0,0 -6.287778,-5.356254 -6.287778,-5.356254 z"
         id="path221" />
      <path
         style="fill:none;fill-rule:evenodd;stroke:#000000;stroke-width:1.5;stroke-linecap:butt;stroke-linejoin:miter;stroke-miterlimit:4;stroke-dasharray:none;stroke-opacity:1"
         d="m -56.589995,102.07891 c 1.241977,3.33781 2.484061,6.67591 3.726092,10.01386 2.71694,3.92016 5.43384,7.84026 8.15082,11.76048"
         id="path225" />
    </g>
    <path
       id="path1038"
       d="m 52.886905,106.34592 c 2.70557,0.255 5.410461,0.50993 8.115691,0.76489 -0.263863,-2.88443 -0.527732,-5.76895 -0.527732,-5.76895 0,0 0.263869,2.88452 0.527732,5.76895 2.336726,-0.98151 4.673792,-1.96316 4.673966,-1.96324 1.74e-4,-7e-5 -2.33724,0.98173 -4.673966,1.96324 0,0 2.745461,10.96585 2.745461,10.96585 0,0 15.848587,6.68586 15.848587,6.68586"
       style="fill:none;fill-rule:evenodd;stroke:#000000;stroke-width:1.5;stroke-linecap:butt;stroke-linejoin:miter;stroke-miterlimit:4;stroke-dasharray:none;stroke-opacity:1" />
    <g
       id="g1061"
       transform="rotate(88.979739,34.062207,202.23729)">
      <path
         id="path1057"
         d="m -61.713369,86.941664 c 0,0 -6.520656,2.328807 -6.520656,2.328807 0,0 3.958969,7.685061 3.958969,7.685061 0,0 7.685061,5.123378 7.685061,5.123378 0,0 5.123375,-1.63017 5.123375,-1.63017 0,0 -3.958971,-8.150822 -3.958971,-8.150822 0,0 -6.287778,-5.356254 -6.287778,-5.356254 z"
         style="fill:none;fill-rule:evenodd;stroke:#000000;stroke-width:1.5;stroke-linecap:butt;stroke-linejoin:miter;stroke-miterlimit:4;stroke-dasharray:none;stroke-opacity:1" />
      <path
         id="path1059"
         d="m -56.589995,102.07891 c 1.241977,3.33781 2.484061,6.67591 3.726092,10.01386 2.71694,3.92016 5.43384,7.84026 8.15082,11.76048"
         style="fill:none;fill-rule:evenodd;stroke:#000000;stroke-width:1.5;stroke-linecap:butt;stroke-linejoin:miter;stroke-miterlimit:4;stroke-dasharray:none;stroke-opacity:1" />
    </g>
    <path
       id="path1079"
       d="m 33.922325,111.57991 c 13.503379,-6.47723 27.006439,-12.954303 40.728867,-16.028095 13.722429,-3.073792 27.664938,-2.744444 39.905338,0.49406 12.2404,3.238503 22.77957,9.386355 33.31845,15.534035"
       style="fill:none;fill-rule:evenodd;stroke:#ff0000;stroke-width:1.46500003;stroke-linecap:butt;stroke-linejoin:miter;stroke-miterlimit:4;stroke-dasharray:none;stroke-opacity:1" />
    <path
       id="path1083"
       d="m 33.922324,111.57991 c 5.599038,-8.23388 11.197868,-16.467449 16.906295,-18.553191 5.708426,-2.085742 11.527034,1.976305 14.545987,0.164799 3.018952,-1.811505 3.238516,-9.496245 6.037977,-13.612902 2.799461,-4.116656 8.178919,-4.66558 12.954141,-3.018948 4.775221,1.646631 8.947124,5.489173 12.624752,10.319477 3.677624,4.830304 6.861284,10.648708 12.515254,11.911145 5.65398,1.26244 13.77764,-2.030937 21.56615,-4.956929 7.78852,-2.925993 15.04592,-5.417342 20.0956,-3.880527 5.04969,1.536814 7.79433,7.135883 9.66063,13.009166 1.86629,5.87329 2.8543,12.02091 3.84237,18.16886"
       style="fill:none;fill-rule:evenodd;stroke:#0000ff;stroke-width:1.56500006;stroke-linecap:butt;stroke-linejoin:miter;stroke-miterlimit:4;stroke-dasharray:none;stroke-opacity:1" />
    <path
       id="path1091"
       d="m 95.262721,121.13084 c -4.693112,0.54888 -12.432669,1.75647 -19.184308,4.33632 -6.75164,2.57985 -12.514919,6.53181 -15.671252,9.68802 -3.156334,3.15622 -3.70521,5.51639 10.458527,6.58689 14.163737,1.07051 43.032352,0.85097 55.958922,-1.53677 12.92657,-2.38775 9.90756,-6.94371 5.82402,-10.22417 -4.08355,-3.28046 -9.36444,-5.33723 -14.44184,-6.65462 -5.0774,-1.31739 -10.0174,-1.92117 -13.31086,-2.27796 -3.29346,-0.3568 -4.940098,-0.46658 -9.633209,0.0823 z"
       style="fill:#cccccc;fill-rule:evenodd;stroke:#cccccc;stroke-width:0.26458332px;stroke-linecap:butt;stroke-linejoin:miter;stroke-opacity:1" />
  </g>
</svg>
