<?xml version="1.0" encoding="UTF-8" standalone="no"?>
<!-- Created with Inkscape (http://www.inkscape.org/) -->

<svg
   xmlns:dc="http://purl.org/dc/elements/1.1/"
   xmlns:cc="http://creativecommons.org/ns#"
   xmlns:rdf="http://www.w3.org/1999/02/22-rdf-syntax-ns#"
   xmlns:svg="http://www.w3.org/2000/svg"
   xmlns="http://www.w3.org/2000/svg"
   xmlns:sodipodi="http://sodipodi.sourceforge.net/DTD/sodipodi-0.dtd"
   xmlns:inkscape="http://www.inkscape.org/namespaces/inkscape"
   version="1.1"
   id="svg14559"
   xml:space="preserve"
   width="801.32355"
   height="803.63239"
   viewBox="0 0 801.32355 803.63239"
   sodipodi:docname="GB.svg"
   inkscape:version="0.92.1 r15371"
   inkscape:export-filename="/home/mignon/These/soutenance/presentation/img/GB.png"
   inkscape:export-xdpi="218.5"
   inkscape:export-ydpi="218.5"><metadata
     id="metadata14565"><rdf:RDF><cc:Work
         rdf:about=""><dc:format>image/svg+xml</dc:format><dc:type
           rdf:resource="http://purl.org/dc/dcmitype/StillImage" /><dc:title></dc:title></cc:Work></rdf:RDF></metadata><defs
     id="defs14563"><inkscape:path-effect
       effect="bspline"
       id="path-effect26888"
       is_visible="true"
       weight="33.333333"
       steps="2"
       helper_size="0"
       apply_no_weight="true"
       apply_with_weight="true"
       only_selected="false" /></defs><sodipodi:namedview
     pagecolor="#ffffff"
     bordercolor="#666666"
     borderopacity="1"
     objecttolerance="10"
     gridtolerance="10"
     guidetolerance="10"
     inkscape:pageopacity="0"
     inkscape:pageshadow="2"
     inkscape:window-width="1340"
     inkscape:window-height="933"
     id="namedview14561"
     showgrid="false"
     inkscape:zoom="0.67550965"
     inkscape:cx="477.18094"
     inkscape:cy="456.56782"
     inkscape:window-x="355"
     inkscape:window-y="64"
     inkscape:window-maximized="0"
     inkscape:current-layer="g14567" /><g
     id="g14567"
     inkscape:groupmode="layer"
     inkscape:label="rayon_Born"
     transform="matrix(1.3333333,0,0,-1.3333333,78.23276,804.40848)"><g
       transform="matrix(1.5701292,0,0,-1.5701292,28.297027,460.34895)"
       id="layer1"
       inkscape:label="Calque 1"><path
         inkscape:connector-curvature="0"
         id="rect5882"
         d="M -54.887862,-90.544692 V 292.31755 H 326.87151 V -90.544692 Z"
         style="opacity:1;fill:#ffaaaa;fill-opacity:0.99543379;stroke:#cccccc;stroke-width:1.00700486;stroke-linejoin:round;stroke-miterlimit:4;stroke-dasharray:none;stroke-dashoffset:0;stroke-opacity:1;paint-order:stroke fill markers" /><path
         inkscape:connector-curvature="0"
         id="ellipse5958"
         transform="matrix(0.26458333,0,0,0.26458333,-22.797015,69.828309)"
         d="m 651.66016,-226.92969 a 91.957207,112.09285 86.472977 0 0 -108.85743,55.125 91.957207,112.09285 86.472977 0 0 -9.54687,50.76172 91.957207,112.09285 86.472977 0 0 -13.77344,0.31445 91.957207,112.09285 86.472977 0 0 -129.92773,52.703129 91.957207,112.09285 86.472977 0 0 -6.875,16.03125 91.957207,112.09285 86.472977 0 0 -98.53907,55.0488285 91.957207,112.09285 86.472977 0 0 34.94727,112.1718725 91.957207,112.09285 86.472977 0 0 -16.32617,21.03516 91.957207,112.09285 86.472977 0 0 -10.37305,42.76562 91.957207,112.09285 86.472977 0 0 -14.62305,19.29297 91.957207,112.09285 86.472977 0 0 9.85547,91.41602 91.957207,112.09285 86.472977 0 0 57.85352,113.70312 91.957207,112.09285 86.472977 0 0 102.7793,-5.58203 91.957207,112.09285 86.472977 0 0 64.54297,78.14649 91.957207,112.09285 86.472977 0 0 115.46874,-12.77344 91.957207,112.09285 86.472977 0 0 36.6836,21.875 91.957207,112.09285 86.472977 0 0 148.86719,-47.50977 91.957207,112.09285 86.472977 0 0 1.40429,-74.95703 91.957207,112.09285 86.472977 0 0 16.55469,-21.26758 91.957207,112.09285 86.472977 0 0 1.4043,-74.95703 91.957207,112.09285 86.472977 0 0 16.55469,-21.26758 91.957207,112.09285 86.472977 0 0 9.70117,-29.16015 96.756242,99.517772 30.206544 0 0 84.83593,-59.08594 96.756242,99.517772 30.206544 0 0 3.15235,-75.693359 91.957207,112.09285 86.472977 0 0 54.33207,-45.660156 91.957207,112.09285 86.472977 0 0 -54.19731,-121.185547 91.957207,112.09285 86.472977 0 0 -21.51171,-5.603516 91.957207,112.09285 86.472977 0 0 -59.0879,-110.574222 91.957207,112.09285 86.472977 0 0 -84.11328,-1.82812 91.957207,112.09285 86.472977 0 0 -61.8789,0.11523 91.957207,112.09285 86.472977 0 0 -29.29883,-15.78515 91.957207,112.09285 86.472977 0 0 -40.00781,-7.61524 z M 152.71875,612.82812 a 1.0654071,0.8358547 3.0740137 0 0 -0.91211,0.48243 1.0654071,0.8358547 3.0740137 0 0 0.55078,1.11133 1.0654071,0.8358547 3.0740137 0 0 1.40235,-0.40235 1.0654071,0.8358547 3.0740137 0 0 -0.55079,-1.11328 1.0654071,0.8358547 3.0740137 0 0 -0.49023,-0.0781 z m 3.83398,1.86915 a 12.29858,2.7758963 19.434207 0 0 -0.69921,0.002 12.29858,2.7758963 19.434207 0 0 3.04492,5.07812 l 0.25,0.125 a 12.29858,2.7758963 19.434207 0 0 16.05273,4.49414 12.29858,2.7758963 19.434207 0 0 -3.2539,-5.13671 12.29858,2.7758963 19.434207 0 0 -15.39454,-4.5625 z"
         style="fill:#cccccc;fill-opacity:0.98636367;stroke:#000000;stroke-width:20.7874012;stroke-miterlimit:4;stroke-dasharray:none" /><rect
         y="176.42149"
         x="-31.618612"
         height="102.55108"
         width="71.675484"
         id="rect5884"
         style="opacity:1;fill:#ffaaaa;fill-opacity:0.98636367;stroke:#ffaaaa;stroke-width:5.5;stroke-linejoin:round;stroke-miterlimit:4;stroke-dasharray:none;stroke-dashoffset:0;stroke-opacity:1;paint-order:stroke fill markers" /></g><g
       id="g26894"
       transform="translate(-469.64541,21.095184)"><circle
         r="85.479599"
         transform="scale(1,-1)"
         cy="-338.5929"
         cx="745.33893"
         id="path26271"
         style="opacity:1;fill:#cccccc;fill-opacity:0.98636367;stroke:#0000ff;stroke-width:10.07400036;stroke-linejoin:round;stroke-miterlimit:4;stroke-dasharray:none;stroke-dashoffset:0;stroke-opacity:1;paint-order:stroke fill markers" /><path
         style="opacity:1;fill:#0000ff;fill-opacity:0.98636367;stroke:#0000ff;stroke-width:10.07400036;stroke-linejoin:round;stroke-miterlimit:4;stroke-dasharray:none;stroke-dashoffset:0;stroke-opacity:1;paint-order:stroke fill markers"
         id="path26818"
         transform="scale(1,-1)"
         sodipodi:type="arc"
         sodipodi:cx="742.97723"
         sodipodi:cy="-338.71436"
         sodipodi:rx="0.84397364"
         sodipodi:ry="0.84397364"
         sodipodi:start="0"
         sodipodi:end="6.0842994"
         d="m 743.82121,-338.71436 a 0.84397364,0.84397364 0 0 1 -0.80203,0.84294 0.84397364,0.84397364 0 0 1 -0.88175,-0.75915 0.84397364,0.84397364 0 0 1 0.71438,-0.91839 0.84397364,0.84397364 0 0 1 0.95276,0.66785 l -0.82734,0.16675 z" /><g
         transform="matrix(0.76042438,0,0,-0.7769138,588.87571,494.39157)"
         id="g26840"><path
           inkscape:connector-curvature="0"
           id="path26838"
           style="fill:none;stroke:#000000;stroke-width:1.88503897;stroke-linecap:butt;stroke-linejoin:miter;stroke-miterlimit:4;stroke-dasharray:15.080315, 7.540158;stroke-dashoffset:0;stroke-opacity:1"
           d="m 158.707,99.613 c 43.945,100.766 43.945,100.766 43.945,100.766 z" /></g></g><g
       id="g26899"
       transform="translate(-636.18634,68.836917)"><circle
         style="opacity:1;fill:#cccccc;fill-opacity:0.98636367;stroke:#0000ff;stroke-width:10.07400036;stroke-linejoin:round;stroke-miterlimit:4;stroke-dasharray:none;stroke-dashoffset:0;stroke-opacity:1;paint-order:stroke fill markers"
         id="circle26866"
         cx="765.59424"
         cy="-184.98987"
         transform="scale(1,-1)"
         r="25.276218" /><path
         d="m 765.20182,-185.11136 a 0.84397364,0.84397364 0 0 1 -0.80202,0.84293 0.84397364,0.84397364 0 0 1 -0.88175,-0.75914 0.84397364,0.84397364 0 0 1 0.71437,-0.91839 0.84397364,0.84397364 0 0 1 0.95277,0.66785 l -0.82734,0.16675 z"
         sodipodi:end="6.0842994"
         sodipodi:start="0"
         sodipodi:ry="0.84397364"
         sodipodi:rx="0.84397364"
         sodipodi:cy="-185.11136"
         sodipodi:cx="764.35785"
         sodipodi:type="arc"
         transform="scale(1,-1)"
         id="path26868"
         style="opacity:1;fill:#0000ff;fill-opacity:0.98636367;stroke:#0000ff;stroke-width:10.07400036;stroke-linejoin:round;stroke-miterlimit:4;stroke-dasharray:none;stroke-dashoffset:0;stroke-opacity:1;paint-order:stroke fill markers" /><path
         inkscape:original-d="m 764.35787,185.11136 c 9.55223,1.95261 19.10378,3.90446 28.6545,5.85557"
         inkscape:path-effect="#path-effect26888"
         inkscape:connector-curvature="0"
         id="path26886"
         d="m 764.35787,185.11136 c 9.55235,1.95203 19.1039,3.9039 28.6545,5.85557"
         style="fill:none;fill-rule:evenodd;stroke:#000000;stroke-width:1.95000005;stroke-linecap:butt;stroke-linejoin:miter;stroke-miterlimit:4;stroke-dasharray:3.9000001, 1.95000005;stroke-dashoffset:0;stroke-opacity:1" /></g></g></svg>