<?xml version="1.0" encoding="UTF-8" standalone="no"?>
<!-- Created with Inkscape (http://www.inkscape.org/) -->
<svg xmlns:dc="http://purl.org/dc/elements/1.1/" xmlns:cc="http://creativecommons.org/ns#" xmlns:rdf="http://www.w3.org/1999/02/22-rdf-syntax-ns#" xmlns:svg="http://www.w3.org/2000/svg" xmlns="http://www.w3.org/2000/svg" xmlns:xlink="http://www.w3.org/1999/xlink" version="1.1" width="1100" height="1043" id="svg2">
  <defs id="defs4">
    <linearGradient id="linearGradient3767">
      <stop id="stop3769" style="stop-color:#ffffff;stop-opacity:1" offset="0"/>
      <stop id="stop3792" style="stop-color:#fcfcfc;stop-opacity:1" offset="0.12"/>
      <stop id="stop3771" style="stop-color:#000000;stop-opacity:1" offset="1"/>
    </linearGradient>
    <linearGradient id="linearGradient3755">
      <stop id="stop3757" style="stop-color:#ff1313;stop-opacity:1" offset="0"/>
      <stop id="stop3759" style="stop-color:#000000;stop-opacity:1" offset="1"/>
    </linearGradient>
    <radialGradient cx="441.42856" cy="778.07648" r="252.85715" fx="441.42856" fy="727.49109" id="radialGradient3761" xlink:href="#linearGradient3755" gradientUnits="userSpaceOnUse" gradientTransform="matrix(0.72935705,-2.7219976,2.7220045,0.72935892,-2072.2977,1318.8443)"/>
    <radialGradient cx="441.42856" cy="778.07648" r="252.85715" fx="441.42856" fy="727.49109" id="radialGradient3773" xlink:href="#linearGradient3767" gradientUnits="userSpaceOnUse" gradientTransform="matrix(2.2816103,-0.1395489,0.13954962,2.2816103,-815.74822,-961.30431)"/>
    <radialGradient cx="441.42856" cy="778.07648" r="252.85715" fx="441.42856" fy="727.49109" id="radialGradient3796" xlink:href="#linearGradient3767" gradientUnits="userSpaceOnUse" gradientTransform="matrix(1.9931671,0,0,1.0359964,-438.41231,-28.00798)"/>
    <radialGradient cx="441.42856" cy="778.07648" r="252.85715" fx="441.42856" fy="727.49109" id="radialGradient3800" xlink:href="#linearGradient3767" gradientUnits="userSpaceOnUse" gradientTransform="matrix(1.9931671,0,0,1.0359964,-438.41231,-28.00798)"/>
    <radialGradient cx="441.42856" cy="778.07648" r="252.85715" fx="441.42856" fy="727.49109" id="radialGradient3815" xlink:href="#linearGradient3767" gradientUnits="userSpaceOnUse" gradientTransform="matrix(1.6163572,-1.6163567,1.6163572,1.6163567,-1631.161,168.23853)"/>
    <radialGradient cx="441.42856" cy="778.07648" r="252.85715" fx="441.42856" fy="727.49109" id="radialGradient3831" xlink:href="#linearGradient3755" gradientUnits="userSpaceOnUse" gradientTransform="matrix(1.9926405,-1.9926405,1.9926456,1.9926456,-1892.543,-133.96892)"/>
  </defs>
  <metadata id="metadata7">
    <rdf:RDF>
      <cc:Work rdf:about="">
        <dc:format>image/svg+xml</dc:format>
        <dc:type rdf:resource="http://purl.org/dc/dcmitype/StillImage"/>
        <dc:title/>
      </cc:Work>
    </rdf:RDF>
  </metadata>
  <g transform="translate(5.9451911e-7,-9.3621816)" id="layer1">
    <path d="m 694.28571,778.07648 a 252.85715,131.42857 0 1 1 -505.7143,0 252.85715,131.42857 0 1 1 505.7143,0 z" transform="matrix(0.8109745,-0.8109745,1.5602485,1.5602485,-811.97996,-194.64317)" id="path3798" style="fill:url(#radialGradient3800);fill-opacity:1;stroke:none"/>
    <path d="m 694.28571,778.07648 a 252.85715,131.42857 0 1 1 -505.7143,0 252.85715,131.42857 0 1 1 505.7143,0 z" transform="matrix(0.8109745,-0.8109745,1.5602485,1.5602485,-1092.98,-506.64317)" id="path3794" style="fill:url(#radialGradient3796);fill-opacity:1;stroke:none"/>
    <path d="m 715.31912,226.61432 c -136.597,-78.41288 -313.89922,-59.25001 -430.60633,57.45711 -139.61225,139.61225 -139.61951,365.96182 -0.007,505.57447 22.90524,22.90513 48.13228,42.05886 74.94103,57.44835 69.85496,40.0999 150.37403,54.6858 227.9771,43.7571 0.3849,-0.051 0.7949,-0.115 1.1869,-0.1808 0.2549,-0.037 0.5093,-0.099 0.7642,-0.1361 41.1206,-7.8233 119.2428,-95.59715 188.1936,-215.02336 68.1186,-117.98494 105.0742,-228.36654 92.6671,-269.12916 -0.04,-0.1022 -0.067,-0.21227 -0.1071,-0.31445 -17.4371,-44.43722 -44.1302,-86.07786 -80.0415,-121.98916 -22.9052,-22.9052 -48.1593,-42.07456 -74.968,-57.464 z" id="path2985" style="fill:url(#radialGradient3831);fill-opacity:1;stroke:none"/>
    <path d="m 145.76049,497.03708 c -3.67215,3.31782 -7.2965,6.75676 -10.83551,10.29577 -113.248358,113.24831 -113.225788,296.84438 0.0226,410.09271 113.24836,113.24834 296.86503,113.24914 410.11339,8e-4 8.0737,-8.07376 15.5431,-16.52036 22.4656,-25.25836 4.1638,-7.595 -74.82885,-106.79168 -178.09216,-223.50961 C 285.62646,551.32488 196.38943,460.47106 189.15979,464.69071 l -0.0207,-0.0234 c -15.19889,9.27263 -29.73746,20.04486 -43.37859,32.36977 z" id="path3765" style="fill:url(#radialGradient3815);fill-opacity:1;stroke:none"/>
  </g>
</svg>