<?xml version="1.0" encoding="UTF-8" standalone="no"?>
<svg
   xmlns:dc="http://purl.org/dc/elements/1.1/"
   xmlns:cc="http://creativecommons.org/ns#"
   xmlns:rdf="http://www.w3.org/1999/02/22-rdf-syntax-ns#"
   xmlns:svg="http://www.w3.org/2000/svg"
   xmlns="http://www.w3.org/2000/svg"
   width="686.68524"
   height="444.24533"
   id="svg6422"
   version="1.1"
   viewBox="0 0 687.5209 253.28466">
  <defs
     id="defs6424" />
  <metadata
     id="metadata6427">
    <rdf:RDF>
      <cc:Work
         rdf:about="">
        <dc:format>image/svg+xml</dc:format>
        <dc:type
           rdf:resource="http://purl.org/dc/dcmitype/StillImage" />
        <dc:title></dc:title>
      </cc:Work>
    </rdf:RDF>
  </metadata>
  <path
     id="path6438"
     d="m 54.534489,101.9172 c 6.68243,-9.495394 -4.07073,5.96193 4.94242,-5.499154 3.97931,-4.49809 6.82391,-5.93778 9.19971,2.46869 0.0502,4.684134 4.14022,10.347694 6.06092,6.060914 2.31793,2.63644 8.42995,-3.46878 12.12183,1.01016 9.72088,-1.87828 6.17202,-12.139014 13.13198,-14.142144 3.661551,-4.88388 5.897331,-6.84616 11.111681,-11.11168 0.68007,5.69406 7.4835,0.47628 10.10153,3.03046 -0.0835,6.0182 8.26586,9.4304 8.08122,12.12183 2.83216,4.680014 3.82694,5.366084 8.08122,7.071074 4.58561,5.05617 8.13113,-8.506044 14.14213,-1.01015 3.84169,5.07604 5.95738,4.76231 7.07107,12.12183 7.47262,-3.65253 8.15538,-2.79875 14.80505,-0.28411 7.94278,-0.45279 12.05631,-2.03532 18.92831,-0.53225 3.88909,-7.01633 12.57024,-1.77721 21.82503,-5.24456 6.03615,-1.89771 4.88896,-14.239984 16.16244,-13.131984 4.19886,-0.38073 14.53733,-2.3417 17.17259,-7.07107 0.93731,-7.77779 12.9447,-7.24799 14.14214,-13.13198 7.4254,-3.66455 9.35802,-1.84346 16.16244,-4.04061 4.85825,-4.26391 7.49678,-2.81521 10.38829,-10.10153 9.67145,0.87084 13.93906,-1.64325 16.88583,4.04061 9.27188,-1.72708 5.72003,3.78981 11.11168,10.10153 5.23312,6.0359 7.758,-3.61147 8.08122,8.08122 -0.64192,-0.45642 2.95514,7.12527 7.07107,8.08122 2.48698,9.683234 3.09298,9.242864 3.82866,18.037544 5.05587,-5.15627 10.83184,-9.598894 11.32362,1.15536 -2.54918,9.90883 6.84904,9.76478 3.03046,18.18274 2.85567,3.88604 6.4301,11.12154 4.70352,19.477 3.80507,4.95881 3.60932,11.73666 6.40816,16.88849 0.77268,10.09617 2.08701,18.64246 7.07107,22.22336 2.35851,8.06367 9.22272,-6.19674 8.36532,4.70352 -0.44348,8.85172 7.70584,7.85247 8.80727,15.49953 5.80725,2.98658 1.90029,19.18104 7.07107,24.24366 1.80349,16.54731 2.92788,12.84357 2.0203,21.63687 0.60249,4.36714 13.24614,4.92947 11.15284,4.05357 6.64794,-16.44452 7.0448,-7.60591 9.05021,-9.528 1.18484,7.63314 7.68874,9.68201 5.05077,17.1726 -0.94351,1.04216 -1.84224,12.55671 2.0203,14.14213 2.36991,-0.99561 10.41453,13.24643 9.09137,11.11168 3.87222,-5.21352 1.92149,-12.01381 8.08123,-14.14214 0.96529,-5.41712 4.16573,-10.32404 4.04061,-15.15228 1.7381,-2.19834 2.36119,-10.09201 6.29169,-7.1215 8.05973,2.81209 6.28125,10.94338 12.43704,8.14238 -1.44384,3.56513 5.39726,-9.17275 4.50477,-9.10211 4.47595,-1.75607 7.76338,-9.44339 8.08122,-3.03045 0.96816,4.73562 7.38356,10.20885 10.10153,10.10152 7.78835,2.55885 3.47014,-7.01499 9.09137,-8.08122 5.00224,-2.9089 9.0794,0.58268 12.12183,-4.04061 5.94188,-2.50984 11.01007,-1.64412 15.43906,1.01015 11.55228,-2.13319 6.73881,5.31859 17.02273,4.04061 6.36389,1.15554 9.14297,2.75135 11.98493,-3.03045 -1.33255,-8.7691 0.60877,-4.9585 4.08177,-10.72408 3.30436,-14.42822 11.99075,-6.90048 14.10097,-13.51958 5.33989,0.96972 0.0154,-5.12668 6.83611,-10.06037 4.28032,0.17562 1.17228,23.81432 1.24511,18.14159 2.09297,4.7171 7.74751,4.58577 7.07107,14.14213 3.33668,3.86403 4.08573,6.95958 7.07107,10.10153 9.06252,4.00237 4.89495,-13.11794 16.16244,-11.11168 1.60597,-7.22983 9.46559,-10.46294 13.13198,-14.14214 2.98957,-0.52486 7.16219,-8.62929 8.08122,-12.12183 4.70653,-11.72716 8.82653,-8.16777 10.48423,-20.73294 3.17872,-4.31018 12.00316,-11.64236 9.71882,-20.68331 1.02752,-7.54564 4.11236,-12.27077 7.07107,-17.17259 0.28498,-2.39238 3.49449,-6.01882 4.04061,-9.09138"
     style="fill:none;stroke:#000000;stroke-width:10.01216945;stroke-linecap:butt;stroke-linejoin:miter;stroke-opacity:1;stroke-miterlimit:4;stroke-dasharray:none" />
  <path
     style="fill:#d45500;fill-rule:evenodd;stroke:#d45500;stroke-width:3.44786501;stroke-linecap:butt;stroke-linejoin:miter;stroke-miterlimit:4;stroke-dasharray:none;stroke-opacity:1"
     d="m 137.75478,-95.327358 c -0.12932,66.083144 -0.25864,132.16752 -0.38796,198.253088"
     id="path1170" />
  <path
     style="fill:none;fill-rule:evenodd;stroke:#d45500;stroke-width:3.0036509;stroke-linecap:butt;stroke-linejoin:miter;stroke-miterlimit:4;stroke-dasharray:none;stroke-opacity:1"
     d="m 206.18165,107.28505 c -1.80899,-9.755639 -4.18266,-27.551151 -10.64844,-30.831411 -11.9293,-1.69004 -11.7446,15.635592 -12.22631,28.671641"
     id="path3320" />
  <path
     id="path3322"
     d="m 207.40213,94.846126 c 1.80899,-9.755639 4.18266,-27.551151 10.64844,-30.831411 11.9293,-1.69004 11.7446,15.635592 12.22631,28.671641"
     style="fill:none;fill-rule:evenodd;stroke:#ff0000;stroke-width:3.0036509;stroke-linecap:butt;stroke-linejoin:miter;stroke-miterlimit:4;stroke-dasharray:none;stroke-opacity:1" />
  <path
     style="fill:none;fill-rule:evenodd;stroke:#d45500;stroke-width:3.0036509;stroke-linecap:butt;stroke-linejoin:miter;stroke-miterlimit:4;stroke-dasharray:none;stroke-opacity:1"
     d="m 207.40213,94.846126 c 1.80899,-9.755639 4.18266,-27.551151 10.64844,-30.831411 11.9293,-1.69004 11.7446,15.635592 12.22631,28.671641"
     id="path3324" />
  <path
     id="path3326"
     d="m 230.27688,92.686356 c 1.80899,-9.755639 4.18266,-27.551151 10.64844,-30.831411 11.9293,-1.69004 11.7446,7.282061 12.22631,20.31811"
     style="fill:none;fill-rule:evenodd;stroke:#d45500;stroke-width:3.0036509;stroke-linecap:butt;stroke-linejoin:miter;stroke-miterlimit:4;stroke-dasharray:none;stroke-opacity:1" />
  <path
     style="fill:none;fill-rule:evenodd;stroke:#d45500;stroke-width:3.0036509;stroke-linecap:butt;stroke-linejoin:miter;stroke-miterlimit:4;stroke-dasharray:none;stroke-opacity:1"
     d="m 194.47786,106.28998 c 1.80899,-9.755635 4.18266,-27.551147 10.64844,-30.831407 11.9293,-1.69004 11.7446,15.635592 12.22631,28.671637"
     id="path3328" />
  <path
     id="path3330"
     d="m 158.5802,114.03903 c 1.80899,-9.75564 4.18266,-27.551147 10.64844,-30.831407 11.9293,-1.69004 11.7446,15.635592 12.22631,28.671637"
     style="fill:none;fill-rule:evenodd;stroke:#d45500;stroke-width:3.0036509;stroke-linecap:butt;stroke-linejoin:miter;stroke-miterlimit:4;stroke-dasharray:none;stroke-opacity:1" />
  <path
     style="fill:none;fill-rule:evenodd;stroke:#d45500;stroke-width:3.0036509;stroke-linecap:butt;stroke-linejoin:miter;stroke-miterlimit:4;stroke-dasharray:none;stroke-opacity:1"
     d="m 137.367,102.92735 c 1.80899,-9.75564 4.18266,-27.551147 10.64844,-30.831407 11.9293,-1.69004 11.7446,15.635592 12.22631,28.671637"
     id="path3332" />
  <path
     id="path3334"
     d="m 184.88477,107.28505 c 1.80899,-9.755644 4.18266,-27.551151 10.64844,-30.831411 11.9293,-1.69004 11.7446,15.635592 12.22631,28.671641"
     style="fill:none;fill-rule:evenodd;stroke:#d45500;stroke-width:3.0036509;stroke-linecap:butt;stroke-linejoin:miter;stroke-miterlimit:4;stroke-dasharray:none;stroke-opacity:1" />
  <rect
     y="226.64563"
     x="572.47223"
     height="7.3365107"
     width="6.0708246"
     id="rect3355"
     style="opacity:1;fill:#000000;fill-opacity:0.98636367;stroke:#000000;stroke-width:3.00812101;stroke-linejoin:round;stroke-miterlimit:4;stroke-dasharray:none;stroke-dashoffset:0;stroke-opacity:1;paint-order:stroke fill markers" />
</svg>
