<?xml version="1.0" encoding="UTF-8" standalone="no"?>
<svg
   xmlns:dc="http://purl.org/dc/elements/1.1/"
   xmlns:cc="http://creativecommons.org/ns#"
   xmlns:rdf="http://www.w3.org/1999/02/22-rdf-syntax-ns#"
   xmlns:svg="http://www.w3.org/2000/svg"
   xmlns="http://www.w3.org/2000/svg"
   width="686.68524"
   height="444.24533"
   id="svg6422"
   version="1.1"
   viewBox="0 0 687.5209 253.28466">
  <defs
     id="defs6424" />
  <metadata
     id="metadata6427">
    <rdf:RDF>
      <cc:Work
         rdf:about="">
        <dc:format>image/svg+xml</dc:format>
        <dc:type
           rdf:resource="http://purl.org/dc/dcmitype/StillImage" />
        <dc:title></dc:title>
      </cc:Work>
    </rdf:RDF>
  </metadata>
  <path
     id="path6438"
     d="m 54.534489,101.9172 c 6.68243,-9.495394 -4.07073,5.96193 4.94242,-5.499154 3.97931,-4.49809 6.82391,-5.93778 9.19971,2.46869 0.0502,4.684134 4.14022,10.347694 6.06092,6.060914 2.31793,2.63644 8.42995,-3.46878 12.12183,1.01016 9.72088,-1.87828 6.17202,-12.139014 13.13198,-14.142144 3.661551,-4.88388 5.897331,-6.84616 11.111681,-11.11168 0.68007,5.69406 7.4835,0.47628 10.10153,3.03046 -0.0835,6.0182 8.26586,9.4304 8.08122,12.12183 2.83216,4.680014 3.82694,5.366084 8.08122,7.071074 4.58561,5.05617 8.13113,-8.506044 14.14213,-1.01015 3.84169,5.07604 5.95738,4.76231 7.07107,12.12183 7.47262,-3.65253 8.15538,-2.79875 14.80505,-0.28411 7.94278,-0.45279 12.05631,-2.03532 18.92831,-0.53225 3.88909,-7.01633 12.57024,-1.77721 21.82503,-5.24456 6.03615,-1.89771 4.88896,-14.239984 16.16244,-13.131984 4.19886,-0.38073 14.53733,-2.3417 17.17259,-7.07107 0.93731,-7.77779 12.9447,-7.24799 14.14214,-13.13198 7.4254,-3.66455 9.35802,-1.84346 16.16244,-4.04061 4.85825,-4.26391 7.49678,-2.81521 10.38829,-10.10153 9.67145,0.87084 13.93906,-1.64325 16.88583,4.04061 9.27188,-1.72708 5.72003,3.78981 11.11168,10.10153 5.23312,6.0359 7.758,-3.61147 8.08122,8.08122 -0.64192,-0.45642 2.95514,7.12527 7.07107,8.08122 2.48698,9.683234 3.09298,9.242864 3.82866,18.037544 5.05587,-5.15627 10.83184,-9.598894 11.32362,1.15536 -2.54918,9.90883 6.84904,9.76478 3.03046,18.18274 2.85567,3.88604 6.4301,11.12154 4.70352,19.477 3.80507,4.95881 3.60932,11.73666 6.40816,16.88849 0.77268,10.09617 2.08701,18.64246 7.07107,22.22336 2.35851,8.06367 9.22272,-6.19674 8.36532,4.70352 -0.44348,8.85172 7.70584,7.85247 8.80727,15.49953 5.80725,2.98658 1.90029,19.18104 7.07107,24.24366 1.80349,16.54731 2.92788,12.84357 2.0203,21.63687 0.60249,4.36714 13.24614,4.92947 11.15284,4.05357 6.64794,-16.44452 7.0448,-7.60591 9.05021,-9.528 1.18484,7.63314 7.68874,9.68201 5.05077,17.1726 -0.94351,1.04216 -1.84224,12.55671 2.0203,14.14213 2.36991,-0.99561 10.41453,13.24643 9.09137,11.11168 3.87222,-5.21352 1.92149,-12.01381 8.08123,-14.14214 0.96529,-5.41712 4.16573,-10.32404 4.04061,-15.15228 1.7381,-2.19834 2.36119,-10.09201 6.29169,-7.1215 8.05973,2.81209 6.28125,10.94338 12.43704,8.14238 -1.44384,3.56513 5.39726,-9.17275 4.50477,-9.10211 4.47595,-1.75607 7.76338,-9.44339 8.08122,-3.03045 0.96816,4.73562 7.38356,10.20885 10.10153,10.10152 7.78835,2.55885 3.47014,-7.01499 9.09137,-8.08122 5.00224,-2.9089 9.0794,0.58268 12.12183,-4.04061 5.94188,-2.50984 11.01007,-1.64412 15.43906,1.01015 11.55228,-2.13319 6.73881,5.31859 17.02273,4.04061 6.36389,1.15554 9.14297,2.75135 11.98493,-3.03045 -1.33255,-8.7691 0.60877,-4.9585 4.08177,-10.72408 3.30436,-14.42822 11.99075,-6.90048 14.10097,-13.51958 5.33989,0.96972 0.0154,-5.12668 6.83611,-10.06037 4.28032,0.17562 1.17228,23.81432 1.24511,18.14159 2.09297,4.7171 7.74751,4.58577 7.07107,14.14213 3.33668,3.86403 4.08573,6.95958 7.07107,10.10153 9.06252,4.00237 4.89495,-13.11794 16.16244,-11.11168 1.60597,-7.22983 9.46559,-10.46294 13.13198,-14.14214 2.98957,-0.52486 7.16219,-8.62929 8.08122,-12.12183 4.70653,-11.72716 8.82653,-8.16777 10.48423,-20.73294 3.17872,-4.31018 12.00316,-11.64236 9.71882,-20.68331 1.02752,-7.54564 4.11236,-12.27077 7.07107,-17.17259 0.28498,-2.39238 3.49449,-6.01882 4.04061,-9.09138"
     style="fill:none;stroke:#000000;stroke-width:10.01216945;stroke-linecap:butt;stroke-linejoin:miter;stroke-opacity:1;stroke-miterlimit:4;stroke-dasharray:none" />
  <path
     style="fill:#ff0000;fill-rule:evenodd;stroke:#ff0000;stroke-width:3.00365084;stroke-linecap:butt;stroke-linejoin:miter;stroke-opacity:1;stroke-miterlimit:4;stroke-dasharray:none"
     d="m 148.27381,-58.783277 c 0.1292,52.970458 0.2584,105.941833 0.3876,158.914127"
     id="path1150" />
  <path
     style="fill:none;fill-rule:evenodd;stroke:#ff0000;stroke-width:3.00365084;stroke-linecap:butt;stroke-linejoin:miter;stroke-opacity:1;stroke-miterlimit:4;stroke-dasharray:none"
     d="m 148.66141,100.13085 c 1.80899,-9.755644 3.61777,-19.510124 4.84499,-18.509414 1.22722,1.0007 1.87328,12.75913 2.51933,24.517144"
     id="path1152" />
  <path
     id="path1154"
     d="m 155.95721,107.06357 c 1.83183,-10.063964 3.66345,-20.126774 4.90209,-19.280244 1.23864,0.84654 1.8847,12.604974 2.53075,24.362984"
     style="fill:none;fill-rule:evenodd;stroke:#ff0000;stroke-width:3.00365084;stroke-linecap:butt;stroke-linejoin:miter;stroke-opacity:1;stroke-miterlimit:4;stroke-dasharray:none" />
  <path
     style="fill:none;fill-rule:evenodd;stroke:#ff0000;stroke-width:3.00365084;stroke-linecap:butt;stroke-linejoin:miter;stroke-opacity:1;stroke-miterlimit:4;stroke-dasharray:none"
     d="m 163.39005,112.14631 c 1.09839,-6.20267 2.19657,-12.404194 3.13311,-12.468654 0.93653,-0.0645 1.71172,6.007864 2.48702,12.081054"
     id="path1156" />
  <path
     id="path1160"
     d="m 236.50256,-58.783277 c 0.41043,50.75938 0.82087,101.519683 1.23131,152.280883"
     style="fill:#ff0000;fill-rule:evenodd;stroke:#ff0000;stroke-width:3.00365084;stroke-linecap:butt;stroke-linejoin:miter;stroke-opacity:1;stroke-miterlimit:4;stroke-dasharray:none" />
  <path
     id="path1162"
     d="m 237.73387,93.497606 c -1.83182,-11.30879 -3.66344,-22.61635 -4.90208,-22.39213 -1.23865,0.22421 -1.88471,11.98264 -2.53076,23.74065"
     style="fill:none;fill-rule:evenodd;stroke:#ff0000;stroke-width:3.00365084;stroke-linecap:butt;stroke-linejoin:miter;stroke-opacity:1;stroke-miterlimit:4;stroke-dasharray:none" />
  <path
     style="fill:none;fill-rule:evenodd;stroke:#ff0000;stroke-width:3.00365084;stroke-linecap:butt;stroke-linejoin:miter;stroke-opacity:1;stroke-miterlimit:4;stroke-dasharray:none"
     d="m 230.30103,94.846126 c -1.80899,-9.75564 -3.61777,-19.51012 -4.79932,-19.16026 -1.18154,0.34985 -1.73624,10.80629 -2.29093,21.26247"
     id="path1164" />
  <path
     id="path1166"
     d="m 223.21078,96.948336 c -1.18978,-4.90068 -2.37932,-9.80035 -3.9553,-7.98634 -1.57598,1.81402 -3.53881,10.34156 -5.50183,18.869934"
     style="fill:none;fill-rule:evenodd;stroke:#ff0000;stroke-width:3.00365084;stroke-linecap:butt;stroke-linejoin:miter;stroke-opacity:1;stroke-miterlimit:4;stroke-dasharray:none" />
  <path
     style="fill:#ff0000;fill-rule:evenodd;stroke:#ff0000;stroke-width:3.00365084;stroke-linecap:butt;stroke-linejoin:miter;stroke-opacity:1;stroke-miterlimit:4;stroke-dasharray:none"
     d="m 100.37895,-58.783277 c -0.1292,50.198722 -0.2584,100.398383 -0.3876,150.598943"
     id="path1170" />
  <path
     style="fill:none;fill-rule:evenodd;stroke:#ff0000;stroke-width:3.00365084;stroke-linecap:butt;stroke-linejoin:miter;stroke-opacity:1;stroke-miterlimit:4;stroke-dasharray:none"
     d="m 99.99135,91.815666 c -1.80899,-9.75564 -3.61777,-19.51012 -4.76285,-17.87045 -1.14508,1.63966 -1.62681,14.67628 -2.10852,27.712324"
     id="path1172" />
  <path
     id="path1174"
     d="M 93.11998,101.65754 C 91.14667,90.623786 89.17357,79.591276 87.85849,80.095706 c -1.31508,0.50444 -1.97257,12.54839 -2.63004,24.591894"
     style="fill:none;fill-rule:evenodd;stroke:#ff0000;stroke-width:3.00365084;stroke-linecap:butt;stroke-linejoin:miter;stroke-opacity:1;stroke-miterlimit:4;stroke-dasharray:none" />
  <path
     style="fill:none;fill-rule:evenodd;stroke:#ff0000;stroke-width:3.00365084;stroke-linecap:butt;stroke-linejoin:miter;stroke-opacity:1;stroke-miterlimit:4;stroke-dasharray:none"
     d="m 85.22845,104.6876 c -1.08696,-6.488194 -2.17373,-12.975204 -3.10456,-13.020884 -0.93083,-0.0457 -1.70602,6.34963 -2.48131,12.745804"
     id="path1176" />
  <g
     transform="translate(111.6372,-81.894574)"
     id="g1188">
    <path
       style="fill:#ff0000;fill-rule:evenodd;stroke:#ff0000;stroke-width:3.00365084;stroke-linecap:butt;stroke-linejoin:miter;stroke-opacity:1;stroke-miterlimit:4;stroke-dasharray:none"
       d="m 211.53958,23.111297 c 0.31549,46.865923 0.63098,93.732773 0.94648,140.600533"
       id="path1180" />
    <path
       style="fill:none;fill-rule:evenodd;stroke:#ff0000;stroke-width:3.00365084;stroke-linecap:butt;stroke-linejoin:miter;stroke-opacity:1;stroke-miterlimit:4;stroke-dasharray:none"
       d="m 212.48606,163.71183 c 1.75192,-8.76213 3.5036,-17.5231 4.70226,-16.02564 1.19866,1.49746 1.84472,13.25589 2.49077,25.0139"
       id="path1182" />
    <path
       id="path1184"
       d="m 219.67909,172.70009 c 2.16444,-7.20401 4.32851,-14.40682 6.21749,-12.43435 1.88898,1.97246 3.50335,13.11986 5.11784,24.26811"
       style="fill:none;fill-rule:evenodd;stroke:#ff0000;stroke-width:3.00365084;stroke-linecap:butt;stroke-linejoin:miter;stroke-opacity:1;stroke-miterlimit:4;stroke-dasharray:none" />
    <path
       style="fill:none;fill-rule:evenodd;stroke:#ff0000;stroke-width:3.00365084;stroke-linecap:butt;stroke-linejoin:miter;stroke-opacity:1;stroke-miterlimit:4;stroke-dasharray:none"
       d="m 223.27493,188.16328 c 1.0298,-8.97761 2.05947,-17.95409 3.36539,-18.46194 1.30593,-0.50784 2.88839,7.45265 4.471,15.4139"
       id="path1186" />
  </g>
  <g
     id="g1198"
     transform="matrix(-1,0,0,1,500.48126,-106.19142)">
    <path
       id="path1190"
       d="m 214.25275,47.408147 c -0.64598,39.760482 -1.29197,79.521893 -1.93798,119.284213"
       style="fill:#ff0000;fill-rule:evenodd;stroke:#ff0000;stroke-width:3.00365084;stroke-linecap:butt;stroke-linejoin:miter;stroke-opacity:1;stroke-miterlimit:4;stroke-dasharray:none" />
    <path
       id="path1192"
       d="m 212.31477,166.69236 c 1.80899,-9.75564 3.61777,-19.51012 4.85641,-18.15544 1.23863,1.35467 1.90755,13.8212 2.57643,26.28722"
       style="fill:none;fill-rule:evenodd;stroke:#ff0000;stroke-width:3.00365084;stroke-linecap:butt;stroke-linejoin:miter;stroke-opacity:1;stroke-miterlimit:4;stroke-dasharray:none" />
    <path
       style="fill:none;fill-rule:evenodd;stroke:#ff0000;stroke-width:3.00365084;stroke-linecap:butt;stroke-linejoin:miter;stroke-opacity:1;stroke-miterlimit:4;stroke-dasharray:none"
       d="m 219.74761,174.82414 c 1.80899,-9.75564 3.61777,-19.51012 4.81646,-19.01715 1.19869,0.49297 1.78761,11.23417 2.37656,21.97584"
       id="path1194" />
    <path
       id="path1196"
       d="m 226.94063,177.78283 c 1.13266,-5.89431 2.26511,-11.7875 3.21876,-11.69781 0.95366,0.0897 1.72885,6.16201 2.50415,12.2352"
       style="fill:none;fill-rule:evenodd;stroke:#ff0000;stroke-width:3.00365084;stroke-linecap:butt;stroke-linejoin:miter;stroke-opacity:1;stroke-miterlimit:4;stroke-dasharray:none" />
  </g>
  <g
     id="g1208"
     transform="translate(310.4809,73.722096)">
    <path
       id="path1200"
       d="m 212.70237,-132.50537 c -0.0323,102.315704 -0.0646,204.632262 -0.0969,306.94964"
       style="fill:#ff0000;fill-rule:evenodd;stroke:#ff0000;stroke-width:3.00365084;stroke-linecap:butt;stroke-linejoin:miter;stroke-opacity:1;stroke-miterlimit:4;stroke-dasharray:none" />
    <path
       id="path1202"
       d="m 212.60547,174.44427 c 1.71204,-12.33958 3.42392,-24.67803 4.55427,-24.37186 1.13036,0.30617 1.67952,13.25982 2.22865,26.21294"
       style="fill:none;fill-rule:evenodd;stroke:#ff0000;stroke-width:3.00365084;stroke-linecap:butt;stroke-linejoin:miter;stroke-opacity:1;stroke-miterlimit:4;stroke-dasharray:none" />
    <path
       style="fill:none;fill-rule:evenodd;stroke:#ff0000;stroke-width:3.00365084;stroke-linecap:butt;stroke-linejoin:miter;stroke-opacity:1;stroke-miterlimit:4;stroke-dasharray:none"
       d="m 219.38839,176.28535 c 1.90588,-10.95072 3.81156,-21.90028 5.08723,-21.49713 1.27568,0.40316 1.92174,12.16159 2.56779,23.9196"
       id="path1204" />
    <path
       id="path1206"
       d="m 227.04341,178.70782 c 1.09839,-6.20267 2.19657,-12.40419 3.10081,-12.29101 0.90424,0.11318 1.61483,6.54079 2.32552,12.9693"
       style="fill:none;fill-rule:evenodd;stroke:#ff0000;stroke-width:3.00365084;stroke-linecap:butt;stroke-linejoin:miter;stroke-opacity:1;stroke-miterlimit:4;stroke-dasharray:none" />
  </g>
  <g
     id="g1218"
     transform="matrix(-1,0,0,1,626.46356,80.686796)">
    <path
       id="path1210"
       d="m 213.08996,-139.47007 c -0.25839,102.053303 -0.51679,204.107459 -0.77519,306.16243"
       style="fill:#ff0000;fill-rule:evenodd;stroke:#ff0000;stroke-width:3.00365084;stroke-linecap:butt;stroke-linejoin:miter;stroke-opacity:1;stroke-miterlimit:4;stroke-dasharray:none" />
    <path
       id="path1212"
       d="m 212.31477,166.69236 c 1.80899,-9.75564 3.61777,-19.51012 4.84499,-18.50941 1.22722,1.0007 1.87328,12.75913 2.51933,24.51714"
       style="fill:none;fill-rule:evenodd;stroke:#ff0000;stroke-width:3.00365084;stroke-linecap:butt;stroke-linejoin:miter;stroke-opacity:1;stroke-miterlimit:4;stroke-dasharray:none" />
    <path
       style="fill:none;fill-rule:evenodd;stroke:#ff0000;stroke-width:3.00365084;stroke-linecap:butt;stroke-linejoin:miter;stroke-opacity:1;stroke-miterlimit:4;stroke-dasharray:none"
       d="m 219.67909,172.70009 c 1.80899,-9.75564 3.61777,-19.51012 4.86782,-19.01183 1.25005,0.49829 1.9418,11.25168 2.63354,22.00478"
       id="path1214" />
    <path
       id="path1216"
       d="m 227.18045,175.69304 c 1.05272,-5.19765 2.10523,-10.39426 2.80196,-10.68716 0.69674,-0.2929 1.03798,4.3177 1.37929,8.9292"
       style="fill:none;fill-rule:evenodd;stroke:#ff0000;stroke-width:3.00365084;stroke-linecap:butt;stroke-linejoin:miter;stroke-opacity:1;stroke-miterlimit:4;stroke-dasharray:none" />
  </g>
  <g
     transform="translate(236.40999,86.697286)"
     id="g1228">
    <path
       style="fill:#ff0000;fill-rule:evenodd;stroke:#ff0000;stroke-width:3.00365084;stroke-linecap:butt;stroke-linejoin:miter;stroke-opacity:1;stroke-miterlimit:4;stroke-dasharray:none"
       d="m 211.53958,-145.48056 c 0.25839,104.056802 0.51679,208.114455 0.77519,312.17292"
       id="path1220" />
    <path
       style="fill:none;fill-rule:evenodd;stroke:#ff0000;stroke-width:3.00365084;stroke-linecap:butt;stroke-linejoin:miter;stroke-opacity:1;stroke-miterlimit:4;stroke-dasharray:none"
       d="m 212.31477,166.69236 c 1.80899,-9.75564 3.61777,-19.51012 4.84499,-18.50941 1.22722,1.0007 1.87328,12.75913 2.51933,24.51714"
       id="path1222" />
    <path
       id="path1224"
       d="m 219.67909,172.70009 c 1.80899,-9.75564 3.61777,-19.51012 4.46313,-19.15489 0.84536,0.35523 0.72747,10.82249 0.60959,21.28954"
       style="fill:none;fill-rule:evenodd;stroke:#ff0000;stroke-width:3.00365084;stroke-linecap:butt;stroke-linejoin:miter;stroke-opacity:1;stroke-miterlimit:4;stroke-dasharray:none" />
  </g>
  <g
     id="g1238"
     transform="matrix(-1,0,0,1,831.52453,65.534506)">
    <path
       id="path1230"
       d="m 213.86515,-124.31778 c -0.51679,97.002534 -1.03358,194.005926 -1.55038,291.01014"
       style="fill:#ff0000;fill-rule:evenodd;stroke:#ff0000;stroke-width:3.00365084;stroke-linecap:butt;stroke-linejoin:miter;stroke-opacity:1;stroke-miterlimit:4;stroke-dasharray:none" />
    <path
       id="path1232"
       d="m 212.31477,166.69236 c 1.80899,-9.75564 3.61777,-19.51012 4.84499,-18.50941 1.22722,1.0007 1.87328,12.75913 2.51933,24.51714"
       style="fill:none;fill-rule:evenodd;stroke:#ff0000;stroke-width:3.00365084;stroke-linecap:butt;stroke-linejoin:miter;stroke-opacity:1;stroke-miterlimit:4;stroke-dasharray:none" />
    <path
       style="fill:none;fill-rule:evenodd;stroke:#ff0000;stroke-width:3.00365084;stroke-linecap:butt;stroke-linejoin:miter;stroke-opacity:1;stroke-miterlimit:4;stroke-dasharray:none"
       d="m 219.67909,172.70009 c 1.80899,-9.75564 3.61777,-19.51012 4.57893,-18.15498 0.96116,1.35513 1.07495,13.82253 1.18873,26.28939"
       id="path1234" />
    <path
       id="path1236"
       d="m 225.44675,180.8345 c 1.63067,-6.91153 3.26107,-13.82194 4.17304,-13.74016 0.91196,0.0818 1.10575,7.15539 1.29957,14.22974"
       style="fill:none;fill-rule:evenodd;stroke:#ff0000;stroke-width:3.00365084;stroke-linecap:butt;stroke-linejoin:miter;stroke-opacity:1;stroke-miterlimit:4;stroke-dasharray:none" />
  </g>
</svg>
