<?xml version="1.0" encoding="UTF-8" standalone="no"?>
<!-- Created with Inkscape (http://www.inkscape.org/) -->

<svg
   xmlns:dc="http://purl.org/dc/elements/1.1/"
   xmlns:cc="http://creativecommons.org/ns#"
   xmlns:rdf="http://www.w3.org/1999/02/22-rdf-syntax-ns#"
   xmlns:svg="http://www.w3.org/2000/svg"
   xmlns="http://www.w3.org/2000/svg"
   xmlns:sodipodi="http://sodipodi.sourceforge.net/DTD/sodipodi-0.dtd"
   xmlns:inkscape="http://www.inkscape.org/namespaces/inkscape"
   version="1.1"
   id="svg20591"
   xml:space="preserve"
   width="793.33331"
   height="1122.6667"
   viewBox="0 0 793.33331 1122.6667"
   sodipodi:docname="enerpwfile.svg"
   inkscape:version="0.92.1 r15371"><metadata
     id="metadata20597"><rdf:RDF><cc:Work
         rdf:about=""><dc:format>image/svg+xml</dc:format><dc:type
           rdf:resource="http://purl.org/dc/dcmitype/StillImage" /><dc:title></dc:title></cc:Work></rdf:RDF></metadata><defs
     id="defs20595"><clipPath
       clipPathUnits="userSpaceOnUse"
       id="clipPath20607"><path
         d="M 0,0.1 H 595.2 V 841.9 H 0 Z"
         id="path20605"
         inkscape:connector-curvature="0"
         style="clip-rule:evenodd" /></clipPath></defs><sodipodi:namedview
     pagecolor="#ffffff"
     bordercolor="#666666"
     borderopacity="1"
     objecttolerance="10"
     gridtolerance="10"
     guidetolerance="10"
     inkscape:pageopacity="0"
     inkscape:pageshadow="2"
     inkscape:window-width="1310"
     inkscape:window-height="845"
     id="namedview20593"
     showgrid="false"
     inkscape:zoom="1.085557"
     inkscape:cx="396.66666"
     inkscape:cy="819.26548"
     inkscape:window-x="0"
     inkscape:window-y="0"
     inkscape:window-maximized="0"
     inkscape:current-layer="g20599" /><g
     id="g20599"
     inkscape:groupmode="layer"
     inkscape:label="enerpwfile"
     transform="matrix(1.3333333,0,0,-1.3333333,0,1122.6667)"><g
       id="g20609"><text
         transform="matrix(1,0,0,-1,56.8,776.9)"
         style="font-variant:normal;font-weight:bold;font-size:10px;font-family:'Liberation Mono';-inkscape-font-specification:LiberationMono-Bold;writing-mode:lr-tb;fill:#000000;fill-opacity:1;fill-rule:nonzero;stroke:none"
         id="text20613"><tspan
           x="0 6 12 18 24 30 36 42 48 54 60 66 72 78 84"
           y="0"
           sodipodi:role="line"
           id="tspan20611">490 HIS 489 ALA</tspan></text>
</g><g
       id="g20615"><text
         transform="matrix(1,0,0,-1,56.8,765.6)"
         style="font-variant:normal;font-weight:bold;font-size:10px;font-family:'Liberation Mono';-inkscape-font-specification:LiberationMono-Bold;writing-mode:lr-tb;fill:#000000;fill-opacity:1;fill-rule:nonzero;stroke:none"
         id="text20619"><tspan
           x="0 6 12 18 42 48 54 60 66 72 78 84 90 96 114 120 144 150 156 162 168 174 180 186"
           y="0"
           sodipodi:role="line"
           id="tspan20617">1 1 -0.351215 0 0.406196</tspan></text>
</g><g
       id="g20621"><text
         transform="matrix(1,0,0,-1,56.8,754.2)"
         style="font-variant:normal;font-weight:bold;font-size:10px;font-family:'Liberation Mono';-inkscape-font-specification:LiberationMono-Bold;writing-mode:lr-tb;fill:#000000;fill-opacity:1;fill-rule:nonzero;stroke:none"
         id="text20625"><tspan
           x="0 6 12 18 42 48 54 60 66 72 78 84 90 96 114 120 144 150 156 162 168 174 180 186"
           y="0"
           sodipodi:role="line"
           id="tspan20623">2 1 -0.340499 0 0.824753</tspan></text>
</g><g
       id="g20627"><text
         transform="matrix(1,0,0,-1,56.8,742.9)"
         style="font-variant:normal;font-weight:bold;font-size:10px;font-family:'Liberation Mono';-inkscape-font-specification:LiberationMono-Bold;writing-mode:lr-tb;fill:#000000;fill-opacity:1;fill-rule:nonzero;stroke:none"
         id="text20631"><tspan
           x="0 6 12 18 42 48 54 60 66 72 78 84 90 96 114 120 144 150 156 162 168 174 180 186"
           y="0"
           sodipodi:role="line"
           id="tspan20629">3 1 -0.110147 0 0.242977</tspan></text>
</g><g
       id="g20633"><text
         transform="matrix(1,0,0,-1,56.8,731.5)"
         style="font-variant:normal;font-weight:bold;font-size:10px;font-family:'Liberation Mono';-inkscape-font-specification:LiberationMono-Bold;writing-mode:lr-tb;fill:#000000;fill-opacity:1;fill-rule:nonzero;stroke:none"
         id="text20637"><tspan
           x="0 6 12 18 42 48 54 60 66 72 78 84 90 96 114 120 144 150 156 162 168 174 180 186 192 198 204 210"
           y="0"
           sodipodi:role="line"
           id="tspan20635">4 1 -0.112336 0 5.777122E-02</tspan></text>
</g><g
       id="g20639"><text
         transform="matrix(1,0,0,-1,56.8,720.2)"
         style="font-variant:normal;font-weight:bold;font-size:10px;font-family:'Liberation Mono';-inkscape-font-specification:LiberationMono-Bold;writing-mode:lr-tb;fill:#000000;fill-opacity:1;fill-rule:nonzero;stroke:none"
         id="text20643"><tspan
           x="0 6 12 18 42 48 54 60 66 72 78 84 90 114 120 144 150 156 162 168 174 180 186"
           y="0"
           sodipodi:role="line"
           id="tspan20641">5 1 -0.39638 0 0.148099</tspan></text>
</g><g
       id="g20645"><text
         transform="matrix(1,0,0,-1,56.8,708.8)"
         style="font-variant:normal;font-weight:bold;font-size:10px;font-family:'Liberation Mono';-inkscape-font-specification:LiberationMono-Bold;writing-mode:lr-tb;fill:#000000;fill-opacity:1;fill-rule:nonzero;stroke:none"
         id="text20649"><tspan
           x="0 6 12 18 42 48 54 60 66 72 78 84 90 114 120 144 150 156 162 168 174 180 186"
           y="0"
           sodipodi:role="line"
           id="tspan20647">6 1 -0.19973 0 0.214374</tspan></text>
</g><g
       id="g20651"><text
         transform="matrix(1,0,0,-1,56.8,697.5)"
         style="font-variant:normal;font-weight:bold;font-size:10px;font-family:'Liberation Mono';-inkscape-font-specification:LiberationMono-Bold;writing-mode:lr-tb;fill:#000000;fill-opacity:1;fill-rule:nonzero;stroke:none"
         id="text20655"><tspan
           x="0 6 12 18 42 48 54 60 66 72 78 84 90 96 114 120 144 150 156 162 168 174 180"
           y="0"
           sodipodi:role="line"
           id="tspan20653">7 1 -0.189721 0 0.34835</tspan></text>
</g><g
       id="g20657"><text
         transform="matrix(1,0,0,-1,56.8,686.1)"
         style="font-variant:normal;font-weight:bold;font-size:10px;font-family:'Liberation Mono';-inkscape-font-specification:LiberationMono-Bold;writing-mode:lr-tb;fill:#000000;fill-opacity:1;fill-rule:nonzero;stroke:none"
         id="text20661"><tspan
           x="0 6 12 18 42 48 54 60 66 72 78 84 90 96 114 120 144 150 156 162 168 174 180 186"
           y="0"
           sodipodi:role="line"
           id="tspan20659">8 1 -0.115124 0 0.134858</tspan></text>
</g><g
       id="g20663"><text
         transform="matrix(1,0,0,-1,56.8,674.8)"
         style="font-variant:normal;font-weight:bold;font-size:10px;font-family:'Liberation Mono';-inkscape-font-specification:LiberationMono-Bold;writing-mode:lr-tb;fill:#000000;fill-opacity:1;fill-rule:nonzero;stroke:none"
         id="text20667"><tspan
           x="0 6 12 18 42 48 54 60 66 72 78 84 90 96 114 120 144 150 156 162 168 174 180 186"
           y="0"
           sodipodi:role="line"
           id="tspan20665">9 1 -0.167919 0 0.188942</tspan></text>
</g><g
       id="g20669"><text
         transform="matrix(1,0,0,-1,56.8,663.4)"
         style="font-variant:normal;font-weight:bold;font-size:10px;font-family:'Liberation Mono';-inkscape-font-specification:LiberationMono-Bold;writing-mode:lr-tb;fill:#000000;fill-opacity:1;fill-rule:nonzero;stroke:none"
         id="text20673"><tspan
           x="0 6 12 18 24 30 36 42 48 54 60 66 72 78 84"
           y="0"
           sodipodi:role="line"
           id="tspan20671">490 HIS 489 ASP</tspan></text>
</g><g
       id="g20675"><text
         transform="matrix(1,0,0,-1,56.8,652.1)"
         style="font-variant:normal;font-weight:bold;font-size:10px;font-family:'Liberation Mono';-inkscape-font-specification:LiberationMono-Bold;writing-mode:lr-tb;fill:#000000;fill-opacity:1;fill-rule:nonzero;stroke:none"
         id="text20679"><tspan
           x="0 6 12 18 42 48 54 60 66 72 78 84 90 114 120 126 132 138 144 150 156 162 198 204 210 216 222 228 234 240"
           y="0"
           sodipodi:role="line"
           id="tspan20677">1 1 -0.45112 0.107382 0.264577</tspan></text>
</g><g
       id="g20681"><text
         transform="matrix(1,0,0,-1,56.8,640.7)"
         style="font-variant:normal;font-weight:bold;font-size:10px;font-family:'Liberation Mono';-inkscape-font-specification:LiberationMono-Bold;writing-mode:lr-tb;fill:#000000;fill-opacity:1;fill-rule:nonzero;stroke:none"
         id="text20685"><tspan
           x="0 6 12 18 42 48 54 60 66 72 78 84 90 96 108 114 120 126 132 138 144 150 156 162 168 174 180 186 198 204 210 216 222 228 234 240"
           y="0"
           sodipodi:role="line"
           id="tspan20683">1 2 -0.561025 -2.779489E-02 0.275176</tspan></text>
</g><g
       id="g20687"><text
         transform="matrix(1,0,0,-1,56.8,629.4)"
         style="font-variant:normal;font-weight:bold;font-size:10px;font-family:'Liberation Mono';-inkscape-font-specification:LiberationMono-Bold;writing-mode:lr-tb;fill:#000000;fill-opacity:1;fill-rule:nonzero;stroke:none"
         id="text20691"><tspan
           x="0 6 12 18 42 48 54 60 66 72 78 84 90 96 108 114 120 126 132 138 144 150 156 162 168 174 180 186 198 204 210 216 222 228 234 240"
           y="0"
           sodipodi:role="line"
           id="tspan20689">1 3 -0.603197 -4.988197E-02 0.607285</tspan></text>
</g><g
       id="g20693"><text
         transform="matrix(1,0,0,-1,56.8,618)"
         style="font-variant:normal;font-weight:bold;font-size:10px;font-family:'Liberation Mono';-inkscape-font-specification:LiberationMono-Bold;writing-mode:lr-tb;fill:#000000;fill-opacity:1;fill-rule:nonzero;stroke:none"
         id="text20697"><tspan
           x="0 6 12 18 42 48 54 60 66 72 78 84 90 114 120 126 132 138 144 150 156 162 198 204 210 216 222 228 234"
           y="0"
           sodipodi:role="line"
           id="tspan20695">1 4 -2.42051 0.413431 5.08406</tspan></text>
</g><g
       id="g20699"><text
         transform="matrix(1,0,0,-1,56.8,606.7)"
         style="font-variant:normal;font-weight:bold;font-size:10px;font-family:'Liberation Mono';-inkscape-font-specification:LiberationMono-Bold;writing-mode:lr-tb;fill:#000000;fill-opacity:1;fill-rule:nonzero;stroke:none"
         id="text20703"><tspan
           x="0 6 12 18 42 48 54 60 66 72 78 84 90 114 120 126 132 138 144 150 156 162 198 204 210 216 222 228 234"
           y="0"
           sodipodi:role="line"
           id="tspan20701">1 5 -3.24513 0.405399 5.07537</tspan></text>
</g><g
       id="g20705"><text
         transform="matrix(1,0,0,-1,56.8,595.3)"
         style="font-variant:normal;font-weight:bold;font-size:10px;font-family:'Liberation Mono';-inkscape-font-specification:LiberationMono-Bold;writing-mode:lr-tb;fill:#000000;fill-opacity:1;fill-rule:nonzero;stroke:none"
         id="text20709"><tspan
           x="0 6 12 18 42 48 54 60 66 72 78 84 90 96 108 114 120 126 132 138 144 150 156 162 198 204 210 216 222 228 234 240"
           y="0"
           sodipodi:role="line"
           id="tspan20707">2 1 -0.438257 -0.175936 0.664548</tspan></text>
</g><g
       id="g20711"><text
         transform="matrix(1,0,0,-1,56.8,584)"
         style="font-variant:normal;font-weight:bold;font-size:10px;font-family:'Liberation Mono';-inkscape-font-specification:LiberationMono-Bold;writing-mode:lr-tb;fill:#000000;fill-opacity:1;fill-rule:nonzero;stroke:none"
         id="text20715"><tspan
           x="0 6 12 18 42 48 54 60 66 72 78 84 90 96 108 114 120 126 132 138 144 150 156 162 168 174 180 186 198 204 210 216 222 228 234 240"
           y="0"
           sodipodi:role="line"
           id="tspan20713">2 2 -0.547936 -6.606574E-02 0.665577</tspan></text>
</g><g
       id="g20717"><text
         transform="matrix(1,0,0,-1,56.8,572.6)"
         style="font-variant:normal;font-weight:bold;font-size:10px;font-family:'Liberation Mono';-inkscape-font-specification:LiberationMono-Bold;writing-mode:lr-tb;fill:#000000;fill-opacity:1;fill-rule:nonzero;stroke:none"
         id="text20721"><tspan
           x="0 6 12 18 42 48 54 60 66 72 78 84 90 96 108 114 120 126 132 138 144 150 156 162 168 174 180 198 204 210 216 222 228 234 240"
           y="0"
           sodipodi:role="line"
           id="tspan20719">2 3 -0.591824 -4.68311E-02 0.888732</tspan></text>
</g></g></svg>