<?xml version="1.0" encoding="UTF-8" standalone="no"?>
<!-- Created with Inkscape (http://www.inkscape.org/) -->

<svg
   xmlns:dc="http://purl.org/dc/elements/1.1/"
   xmlns:cc="http://creativecommons.org/ns#"
   xmlns:rdf="http://www.w3.org/1999/02/22-rdf-syntax-ns#"
   xmlns:svg="http://www.w3.org/2000/svg"
   xmlns="http://www.w3.org/2000/svg"
   xmlns:sodipodi="http://sodipodi.sourceforge.net/DTD/sodipodi-0.dtd"
   xmlns:inkscape="http://www.inkscape.org/namespaces/inkscape"
   version="1.1"
   id="svg20388"
   xml:space="preserve"
   width="793.33331"
   height="1122.6667"
   viewBox="0 0 793.33331 1122.6667"
   sodipodi:docname="enerbbfile.svg"
   inkscape:version="0.92.1 r15371"><metadata
     id="metadata20394"><rdf:RDF><cc:Work
         rdf:about=""><dc:format>image/svg+xml</dc:format><dc:type
           rdf:resource="http://purl.org/dc/dcmitype/StillImage" /><dc:title></dc:title></cc:Work></rdf:RDF></metadata><defs
     id="defs20392"><clipPath
       clipPathUnits="userSpaceOnUse"
       id="clipPath20404"><path
         d="M 0,0.1 H 595.2 V 841.9 H 0 Z"
         id="path20402"
         inkscape:connector-curvature="0"
         style="clip-rule:evenodd" /></clipPath></defs><sodipodi:namedview
     pagecolor="#ffffff"
     bordercolor="#666666"
     borderopacity="1"
     objecttolerance="10"
     gridtolerance="10"
     guidetolerance="10"
     inkscape:pageopacity="0"
     inkscape:pageshadow="2"
     inkscape:window-width="1365"
     inkscape:window-height="996"
     id="namedview20390"
     showgrid="false"
     inkscape:zoom="1.8859154"
     inkscape:cx="308.76157"
     inkscape:cy="893.41305"
     inkscape:window-x="0"
     inkscape:window-y="0"
     inkscape:window-maximized="0"
     inkscape:current-layer="g20396" /><g
     id="g20396"
     inkscape:groupmode="layer"
     inkscape:label="enerbbfile"
     transform="matrix(1.3333333,0,0,-1.3333333,0,1122.6667)"><g
       id="g20406"><text
         transform="matrix(1,0,0,-1,56.8,776.9)"
         style="font-variant:normal;font-weight:bold;font-size:10px;font-family:'Liberation Mono';-inkscape-font-specification:LiberationMono-Bold;writing-mode:lr-tb;fill:#000000;fill-opacity:1;fill-rule:nonzero;stroke:none"
         id="text20410"><tspan
           x="0 6 12 18 24 30 36 42 48 54 60 66 78 84 90 96 102 108 114 120 126 132 138 150 156 162 168 174 180 186 192 198 204 240 246 312 318 324 330 336 342 348 354 360 366 372 378"
           y="0"
           sodipodi:role="line"
           id="tspan20408">489 ALA A 1 -10.894700 -0.128508 0 3.230323E-02</tspan></text>
</g><g
       id="g20412"><text
         transform="matrix(1,0,0,-1,56.8,765.6)"
         style="font-variant:normal;font-weight:bold;font-size:10px;font-family:'Liberation Mono';-inkscape-font-specification:LiberationMono-Bold;writing-mode:lr-tb;fill:#000000;fill-opacity:1;fill-rule:nonzero;stroke:none"
         id="text20416"><tspan
           x="0 6 12 18 24 30 36 42 48 54 60 66 78 84 90 96 102 108 114 120 126 132 138 150 156 162 168 174 180 186 192 198 204 240 246 252 258 264 270 276 282 288 306 312 318 324 330 336 342 348"
           y="0"
           sodipodi:role="line"
           id="tspan20414">489 ASP D 1 -19.499700 -0.347171 0.240545 -8.92156</tspan></text>
</g><g
       id="g20418"><text
         transform="matrix(1,0,0,-1,56.8,754.2)"
         style="font-variant:normal;font-weight:bold;font-size:10px;font-family:'Liberation Mono';-inkscape-font-specification:LiberationMono-Bold;writing-mode:lr-tb;fill:#000000;fill-opacity:1;fill-rule:nonzero;stroke:none"
         id="text20422"><tspan
           x="0 6 12 18 24 30 36 42 48 54 60 66 78 84 90 96 102 108 114 120 126 132 138 156 162 168 174 180 186 192 198 204 210 216 222 228 240 246 252 258 264 270 276 282 288 306 312 318 324 330 336 342 348"
           y="0"
           sodipodi:role="line"
           id="tspan20420">489 ASP D 2 -19.499700 4.864217E-02 0.589668 -7.68253</tspan></text>
</g><g
       id="g20424"><text
         transform="matrix(1,0,0,-1,56.8,742.9)"
         style="font-variant:normal;font-weight:bold;font-size:10px;font-family:'Liberation Mono';-inkscape-font-specification:LiberationMono-Bold;writing-mode:lr-tb;fill:#000000;fill-opacity:1;fill-rule:nonzero;stroke:none"
         id="text20428"><tspan
           x="0 6 12 18 24 30 36 42 48 54 60 66 78 84 90 96 102 108 114 120 126 132 138 150 156 162 168 174 180 186 192 198 240 246 252 258 264 270 276 282 288 306 312 318 324 330 336 342 348"
           y="0"
           sodipodi:role="line"
           id="tspan20426">489 ASP D 3 -19.499700 -1.71946 0.357956 -7.90181</tspan></text>
</g><g
       id="g20430"><text
         transform="matrix(1,0,0,-1,56.8,731.5)"
         style="font-variant:normal;font-weight:bold;font-size:10px;font-family:'Liberation Mono';-inkscape-font-specification:LiberationMono-Bold;writing-mode:lr-tb;fill:#000000;fill-opacity:1;fill-rule:nonzero;stroke:none"
         id="text20434"><tspan
           x="0 6 12 18 24 30 36 42 48 54 60 66 78 84 90 96 102 108 114 120 126 132 138 156 162 168 174 180 186 192 198 204 210 216 222 228 234 240 246 252 258 264 270 276 282 288 306 312 318 324 330 336 342 348"
           y="0"
           sodipodi:role="line"
           id="tspan20432">489 ASP D 4 -19.499700 5.546893E-02 -0.971609 -7.62914</tspan></text>
</g><g
       id="g20436"><text
         transform="matrix(1,0,0,-1,56.8,720.2)"
         style="font-variant:normal;font-weight:bold;font-size:10px;font-family:'Liberation Mono';-inkscape-font-specification:LiberationMono-Bold;writing-mode:lr-tb;fill:#000000;fill-opacity:1;fill-rule:nonzero;stroke:none"
         id="text20440"><tspan
           x="0 6 12 18 24 30 36 42 48 54 60 66 78 84 90 96 102 108 114 120 126 132 138 150 156 162 168 174 180 186 192 198 234 240 246 252 258 264 270 276 282 288 306 312 318 324 330 336 342 348"
           y="0"
           sodipodi:role="line"
           id="tspan20438">489 ASP D 5 -19.499700 -2.12676 -0.596958 -7.42771</tspan></text>
</g><g
       id="g20442"><text
         transform="matrix(1,0,0,-1,56.8,708.8)"
         style="font-variant:normal;font-weight:bold;font-size:10px;font-family:'Liberation Mono';-inkscape-font-specification:LiberationMono-Bold;writing-mode:lr-tb;fill:#000000;fill-opacity:1;fill-rule:nonzero;stroke:none"
         id="text20446"><tspan
           x="0 6 12 18 24 30 36 42 48 54 60 66 78 84 90 96 102 108 114 120 126 132 138 150 156 162 168 174 180 186 192 198 204 234 240 246 252 258 264 270 276 282 288 306 312 318 324 330 336 342 348"
           y="0"
           sodipodi:role="line"
           id="tspan20444">489 ASN N 1 -17.001400 -0.492971 -0.520301 -5.98663</tspan></text>
</g><g
       id="g20448"><text
         transform="matrix(1,0,0,-1,56.8,697.5)"
         style="font-variant:normal;font-weight:bold;font-size:10px;font-family:'Liberation Mono';-inkscape-font-specification:LiberationMono-Bold;writing-mode:lr-tb;fill:#000000;fill-opacity:1;fill-rule:nonzero;stroke:none"
         id="text20452"><tspan
           x="0 6 12 18 24 30 36 42 48 54 60 66 78 84 90 96 102 108 114 120 126 132 138 150 156 162 168 174 180 186 192 198 204 234 240 246 252 258 264 270 276 282 288 306 312 318 324 330 336 342 348"
           y="0"
           sodipodi:role="line"
           id="tspan20450">489 ASN N 2 -17.001400 -0.596737 -0.549191 -5.64477</tspan></text>
</g></g></svg>