<?xml version="1.0" encoding="UTF-8" standalone="no"?>
<!-- Created with Inkscape (http://www.inkscape.org/) -->

<svg
   xmlns:dc="http://purl.org/dc/elements/1.1/"
   xmlns:cc="http://creativecommons.org/ns#"
   xmlns:rdf="http://www.w3.org/1999/02/22-rdf-syntax-ns#"
   xmlns:svg="http://www.w3.org/2000/svg"
   xmlns="http://www.w3.org/2000/svg"
   xmlns:sodipodi="http://sodipodi.sourceforge.net/DTD/sodipodi-0.dtd"
   xmlns:inkscape="http://www.inkscape.org/namespaces/inkscape"
   version="1.1"
   id="svg32838"
   xml:space="preserve"
   width="527.16107"
   height="128.34761"
   viewBox="0 0 527.16108 128.34761"
   sodipodi:docname="inputenerFDB.svg"
   inkscape:version="0.92.1 r15371"><metadata
     id="metadata32844"><rdf:RDF><cc:Work
         rdf:about=""><dc:format>image/svg+xml</dc:format><dc:type
           rdf:resource="http://purl.org/dc/dcmitype/StillImage" /><dc:title></dc:title></cc:Work></rdf:RDF></metadata><defs
     id="defs32842"><clipPath
       clipPathUnits="userSpaceOnUse"
       id="clipPath33418"><path
         d="M 0,85 H 396 V 97 H 0 Z"
         id="path33416"
         inkscape:connector-curvature="0" /></clipPath><clipPath
       clipPathUnits="userSpaceOnUse"
       id="clipPath33434"><path
         d="M 0,90.272 H 396 V -0.74 H 0 Z"
         id="path33432"
         inkscape:connector-curvature="0" /></clipPath><clipPath
       clipPathUnits="userSpaceOnUse"
       id="clipPath33444"><path
         d="M 1,0 H 394 V 28 H 1 Z"
         id="path33442"
         inkscape:connector-curvature="0" /></clipPath></defs><sodipodi:namedview
     pagecolor="#ffffff"
     bordercolor="#666666"
     borderopacity="1"
     objecttolerance="10"
     gridtolerance="10"
     guidetolerance="10"
     inkscape:pageopacity="0"
     inkscape:pageshadow="2"
     inkscape:window-width="1920"
     inkscape:window-height="1015"
     id="namedview32840"
     showgrid="false"
     showguides="true"
     inkscape:guide-bbox="true"
     inkscape:zoom="1.5986473"
     inkscape:cx="293.5994"
     inkscape:cy="62.119395"
     inkscape:window-x="0"
     inkscape:window-y="0"
     inkscape:window-maximized="1"
     inkscape:current-layer="g32846"><sodipodi:guide
       position="372.03327,83.195327"
       orientation="0,1"
       id="guide34384"
       inkscape:locked="false" /></sodipodi:namedview><g
     id="g32846"
     inkscape:groupmode="layer"
     inkscape:label="inputenerFDB"
     transform="matrix(1.3333333,0,0,-1.3333333,0,128.34761)"><g
       transform="matrix(1,0,0,-1,0,96.260712)"
       id="g32866" /><g
       id="g34773"><g
         id="g32850"
         transform="matrix(1,0,0,-1,0,96.260712)"><path
           sodipodi:nodetypes="csc"
           d="m 143.598,72.762 c 0,0 -0.36005,-18.215801 -0.008,-25.19932 0.0876,-1.739159 5.0712,-0.972865 5.0712,-0.972865"
           style="fill:none;stroke:#0000e4;stroke-width:0.442067;stroke-linecap:butt;stroke-linejoin:miter;stroke-miterlimit:4;stroke-dasharray:none;stroke-opacity:1"
           id="path32852"
           inkscape:connector-curvature="0" /></g><g
         id="g32854"
         transform="matrix(-0.0031889,1,1,0.0031889,0,96.260712)"><path
           d="m -68.801,143.363 1.767,-1.768 -6.185,1.769 6.186,1.766 z"
           style="fill:#0000e4;fill-opacity:1;fill-rule:evenodd;stroke:#0000e4;stroke-width:0.471535;stroke-linecap:butt;stroke-linejoin:miter;stroke-miterlimit:4;stroke-dasharray:none;stroke-opacity:1"
           id="path32856"
           inkscape:connector-curvature="0" /></g><g
         id="g32858"
         transform="matrix(1,0,0,-1,0,96.260712)"><path
           d="M 172.086,72.723 172.16,52.121"
           style="fill:none;stroke:#0000e4;stroke-width:0.45682299;stroke-linecap:butt;stroke-linejoin:miter;stroke-miterlimit:4;stroke-dasharray:none;stroke-opacity:1"
           id="path32860"
           inkscape:connector-curvature="0" /></g><g
         id="g32862"
         transform="matrix(0.00354574,1,1,-0.00354574,0,96.260712)"><path
           d="m -67.541,172.341 1.825,-1.827 -6.396,1.828 6.398,1.829 z"
           style="fill:#0000e4;fill-opacity:1;fill-rule:evenodd;stroke:#0000e4;stroke-width:0.487275;stroke-linecap:butt;stroke-linejoin:miter;stroke-miterlimit:4;stroke-dasharray:none;stroke-opacity:1"
           id="path32864"
           inkscape:connector-curvature="0" /></g><g
         id="g32870"
         transform="matrix(0.0172395,-1,-1,-0.0172395,0,96.260712)"><path
           d="m 21.408,-181.799 1.764,-1.766 -6.186,1.768 6.188,1.767 z"
           style="fill:#0000e4;fill-opacity:1;fill-rule:evenodd;stroke:#0000e4;stroke-width:0.471468;stroke-linecap:butt;stroke-linejoin:miter;stroke-miterlimit:4;stroke-dasharray:none;stroke-opacity:1"
           id="path32872"
           inkscape:connector-curvature="0" /></g><g
         id="g32874"
         transform="matrix(1,0,0,-1,0,96.260712)"><path
           d="m 208.191,13.852 c 0.11,26.562 0.11,26.562 0.11,26.562"
           style="fill:none;stroke:#0000e4;stroke-width:0.432035;stroke-linecap:butt;stroke-linejoin:miter;stroke-miterlimit:4;stroke-dasharray:none;stroke-opacity:1"
           id="path32876"
           inkscape:connector-curvature="0" /></g><g
         id="g32878"
         transform="matrix(0.0041223,-1,-1,-0.0041223,0,96.260712)"><path
           d="m 19.03,-208.132 1.73,-1.728 -6.05,1.729 6.047,1.728 z"
           style="fill:#0000e4;fill-opacity:1;fill-rule:evenodd;stroke:#0000e4;stroke-width:0.460834;stroke-linecap:butt;stroke-linejoin:miter;stroke-miterlimit:4;stroke-dasharray:none;stroke-opacity:1"
           id="path32880"
           inkscape:connector-curvature="0" /></g><g
         id="g32882"
         transform="matrix(1,0,0,-1,0,96.260712)"><path
           sodipodi:nodetypes="cc"
           d="M 211.941,72.781 211.82371,52.780893"
           style="fill:none;stroke:#0000e4;stroke-width:0.45399201;stroke-linecap:butt;stroke-linejoin:miter;stroke-miterlimit:4;stroke-dasharray:none;stroke-opacity:1"
           id="path32884"
           inkscape:connector-curvature="0" /></g><g
         id="g32886"
         transform="matrix(1.22652e-4,1,1,-1.22652e-4,0,96.260712)"><path
           d="m -68.216,211.95 1.816,-1.817 -6.355,1.817 6.355,1.816 z"
           style="fill:#0000e4;fill-opacity:1;fill-rule:evenodd;stroke:#0000e4;stroke-width:0.484258;stroke-linecap:butt;stroke-linejoin:miter;stroke-miterlimit:4;stroke-dasharray:none;stroke-opacity:1"
           id="path32888"
           inkscape:connector-curvature="0" /></g><g
         id="g32942"
         transform="matrix(1,0,0,-1,0,96.260712)"><path
           d="m 154.559,13.754 0.003,9.523"
           style="fill:none;stroke:#0000e4;stroke-width:0.383459;stroke-linecap:butt;stroke-linejoin:miter;stroke-miterlimit:4;stroke-dasharray:none;stroke-opacity:1"
           id="path32944"
           inkscape:connector-curvature="0" /></g><g
         id="g32946"
         transform="matrix(3.15034e-4,-1,-1,-3.15034e-4,0,96.260712)"><path
           d="m 17.639,-154.553 1.531,-1.535 -5.367,1.534 5.366,1.533 z"
           style="fill:#0000e4;fill-opacity:1;fill-rule:evenodd;stroke:#0000e4;stroke-width:0.40902299;stroke-linecap:butt;stroke-linejoin:miter;stroke-miterlimit:4;stroke-dasharray:none;stroke-opacity:1"
           id="path32948"
           inkscape:connector-curvature="0" /></g><g
         transform="translate(9.6175062,0.46914664)"
         id="g33833"><text
           id="text32996"
           style="font-variant:normal;font-weight:normal;font-size:10px;font-family:'DejaVu Sans';-inkscape-font-specification:DejaVuSans;writing-mode:lr-tb;fill:#0000ff;fill-opacity:1;fill-rule:nonzero;stroke:none"
           transform="scale(1,-1)"
           x="14.18321"
           y="-63.505001"><tspan
             id="tspan32994"
             y="-63.505001"
             x="14.18321">s</tspan></text>
<g
           transform="matrix(1,0,0,-1,0,96.260712)"
           id="g32998"><path
             inkscape:connector-curvature="0"
             id="path33000"
             style="fill:none;stroke:#0000ff;stroke-width:0.75;stroke-linecap:butt;stroke-linejoin:miter;stroke-miterlimit:4;stroke-dasharray:none;stroke-opacity:1"
             d="m 18.605,27.441 v 0.86 c -0.25,-0.133 -0.511,-0.235 -0.781,-0.297 -0.273,-0.063 -0.558,-0.094 -0.859,-0.094 -0.438,0 -0.774,0.07 -1,0.203 -0.219,0.137 -0.328,0.34 -0.328,0.61 0,0.211 0.078,0.375 0.234,0.5 0.156,0.117 0.477,0.226 0.969,0.328 l 0.297,0.078 c 0.644,0.137 1.097,0.328 1.359,0.578 0.27,0.25 0.406,0.594 0.406,1.031 0,0.512 -0.203,0.918 -0.609,1.219 -0.398,0.293 -0.945,0.438 -1.641,0.438 -0.304,0 -0.617,-0.032 -0.937,-0.094 -0.313,-0.051 -0.641,-0.133 -0.985,-0.25 v -0.922 c 0.332,0.168 0.657,0.297 0.969,0.391 0.321,0.085 0.645,0.125 0.969,0.125 0.414,0 0.738,-0.071 0.969,-0.219 0.226,-0.145 0.343,-0.348 0.343,-0.61 0,-0.25 -0.085,-0.437 -0.25,-0.562 -0.156,-0.133 -0.515,-0.258 -1.078,-0.375 L 16.34,30.301 c -0.555,-0.113 -0.953,-0.289 -1.203,-0.531 -0.25,-0.25 -0.375,-0.582 -0.375,-1 0,-0.52 0.179,-0.915 0.547,-1.188 0.363,-0.281 0.882,-0.422 1.562,-0.422 0.32,0 0.629,0.028 0.922,0.078 0.301,0.043 0.57,0.11 0.812,0.203 z" /></g><text
           id="text33004"
           style="font-variant:normal;font-weight:normal;font-size:10px;font-family:'DejaVu Sans';-inkscape-font-specification:DejaVuSans;writing-mode:lr-tb;fill:#0000ff;fill-opacity:1;fill-rule:nonzero;stroke:none"
           transform="scale(1,-1)"
           x="19.398054"
           y="-63.505001"><tspan
             id="tspan33002"
             y="-63.505001"
             x="19.398054">o</tspan></text>
<g
           transform="matrix(1,0,0,-1,0,96.260712)"
           id="g33006"><path
             inkscape:connector-curvature="0"
             id="path33008"
             style="fill:none;stroke:#0000ff;stroke-width:0.75;stroke-linecap:butt;stroke-linejoin:miter;stroke-miterlimit:4;stroke-dasharray:none;stroke-opacity:1"
             d="m 22.461,27.91 c -0.481,0 -0.859,0.188 -1.141,0.563 -0.281,0.375 -0.422,0.89 -0.422,1.547 0,0.656 0.133,1.171 0.407,1.546 0.281,0.375 0.664,0.563 1.156,0.563 0.477,0 0.859,-0.188 1.141,-0.563 0.281,-0.375 0.421,-0.89 0.421,-1.546 0,-0.645 -0.14,-1.157 -0.421,-1.532 C 23.32,28.105 22.938,27.91 22.461,27.91 Z m 0,-0.75 c 0.781,0 1.394,0.258 1.844,0.766 0.445,0.5 0.672,1.199 0.672,2.094 0,0.898 -0.227,1.601 -0.672,2.109 -0.45,0.512 -1.063,0.766 -1.844,0.766 -0.781,0 -1.399,-0.254 -1.844,-0.766 -0.449,-0.508 -0.672,-1.211 -0.672,-2.109 0,-0.895 0.223,-1.594 0.672,-2.094 0.445,-0.508 1.063,-0.766 1.844,-0.766 z" /></g><text
           id="text33012"
           style="font-variant:normal;font-weight:normal;font-size:10px;font-family:'DejaVu Sans';-inkscape-font-specification:DejaVuSans;writing-mode:lr-tb;fill:#0000ff;fill-opacity:1;fill-rule:nonzero;stroke:none"
           transform="scale(1,-1)"
           x="25.511335"
           y="-63.505001"><tspan
             id="tspan33010"
             y="-63.505001"
             x="25.511335">m</tspan></text>
<g
           transform="matrix(1,0,0,-1,0,96.260712)"
           id="g33014"><path
             inkscape:connector-curvature="0"
             id="path33016"
             style="fill:none;stroke:#0000ff;stroke-width:0.75;stroke-linecap:butt;stroke-linejoin:miter;stroke-miterlimit:4;stroke-dasharray:none;stroke-opacity:1"
             d="m 30.715,28.332 c 0.219,-0.406 0.484,-0.703 0.797,-0.891 0.312,-0.187 0.679,-0.281 1.109,-0.281 0.57,0 1.008,0.199 1.313,0.594 0.312,0.398 0.468,0.965 0.468,1.703 v 3.297 h -0.906 v -3.266 c 0,-0.531 -0.094,-0.922 -0.281,-1.172 -0.18,-0.25 -0.461,-0.375 -0.844,-0.375 -0.469,0 -0.84,0.157 -1.109,0.469 -0.262,0.305 -0.391,0.719 -0.391,1.25 v 3.094 h -0.906 v -3.266 c 0,-0.531 -0.094,-0.922 -0.281,-1.172 -0.188,-0.25 -0.477,-0.375 -0.86,-0.375 -0.461,0 -0.824,0.157 -1.094,0.469 -0.273,0.305 -0.406,0.719 -0.406,1.25 v 3.094 h -0.906 v -5.469 h 0.906 v 0.844 c 0.207,-0.332 0.453,-0.578 0.735,-0.734 0.289,-0.157 0.629,-0.235 1.015,-0.235 0.406,0 0.742,0.102 1.016,0.297 0.281,0.199 0.488,0.492 0.625,0.875 z" /></g><text
           id="text33020"
           style="font-variant:normal;font-weight:normal;font-size:10px;font-family:'DejaVu Sans';-inkscape-font-specification:DejaVuSans;writing-mode:lr-tb;fill:#0000ff;fill-opacity:1;fill-rule:nonzero;stroke:none"
           transform="scale(1,-1)"
           x="35.257427"
           y="-63.505001"><tspan
             id="tspan33018"
             y="-63.505001"
             x="35.257427">m</tspan></text>
<g
           transform="matrix(1,0,0,-1,0,96.260712)"
           id="g33022"><path
             inkscape:connector-curvature="0"
             id="path33024"
             style="fill:none;stroke:#0000ff;stroke-width:0.75;stroke-linecap:butt;stroke-linejoin:miter;stroke-miterlimit:4;stroke-dasharray:none;stroke-opacity:1"
             d="m 40.461,28.332 c 0.219,-0.406 0.484,-0.703 0.797,-0.891 0.312,-0.187 0.68,-0.281 1.109,-0.281 0.571,0 1.008,0.199 1.313,0.594 0.312,0.398 0.468,0.965 0.468,1.703 v 3.297 h -0.906 v -3.266 c 0,-0.531 -0.094,-0.922 -0.281,-1.172 -0.18,-0.25 -0.461,-0.375 -0.844,-0.375 -0.469,0 -0.84,0.157 -1.109,0.469 -0.262,0.305 -0.391,0.719 -0.391,1.25 v 3.094 h -0.906 v -3.266 c 0,-0.531 -0.094,-0.922 -0.281,-1.172 -0.188,-0.25 -0.477,-0.375 -0.86,-0.375 -0.461,0 -0.824,0.157 -1.093,0.469 -0.274,0.305 -0.407,0.719 -0.407,1.25 v 3.094 h -0.906 v -5.469 h 0.906 v 0.844 c 0.207,-0.332 0.453,-0.578 0.735,-0.734 0.289,-0.157 0.629,-0.235 1.015,-0.235 0.407,0 0.742,0.102 1.016,0.297 0.281,0.199 0.488,0.492 0.625,0.875 z" /></g><text
           id="text33028"
           style="font-variant:normal;font-weight:normal;font-size:10px;font-family:'DejaVu Sans';-inkscape-font-specification:DejaVuSans;writing-mode:lr-tb;fill:#0000ff;fill-opacity:1;fill-rule:nonzero;stroke:none"
           transform="scale(1,-1)"
           x="45.003525"
           y="-63.505001"><tspan
             id="tspan33026"
             y="-63.505001"
             x="45.003525">e</tspan></text>
<g
           transform="matrix(1,0,0,-1,0,96.260712)"
           id="g33030"><path
             inkscape:connector-curvature="0"
             id="path33032"
             style="fill:none;stroke:#0000ff;stroke-width:0.75;stroke-linecap:butt;stroke-linejoin:miter;stroke-miterlimit:4;stroke-dasharray:none;stroke-opacity:1"
             d="m 50.629,29.801 v 0.437 h -4.141 c 0.039,0.617 0.227,1.086 0.563,1.407 0.332,0.324 0.797,0.484 1.39,0.484 0.344,0 0.676,-0.039 1,-0.125 0.332,-0.082 0.657,-0.207 0.969,-0.375 v 0.844 c -0.324,0.136 -0.656,0.242 -1,0.312 -0.336,0.07 -0.672,0.11 -1.015,0.11 -0.875,0 -1.571,-0.25 -2.079,-0.75 -0.511,-0.508 -0.765,-1.204 -0.765,-2.079 0,-0.894 0.238,-1.601 0.719,-2.125 0.488,-0.519 1.144,-0.781 1.968,-0.781 0.739,0 1.321,0.235 1.75,0.703 0.426,0.469 0.641,1.117 0.641,1.938 z m -0.906,-0.266 c 0,-0.488 -0.137,-0.879 -0.407,-1.172 -0.273,-0.301 -0.625,-0.453 -1.062,-0.453 -0.512,0 -0.918,0.149 -1.219,0.438 -0.293,0.281 -0.465,0.679 -0.515,1.187 z" /></g><text
           id="text33036"
           style="font-variant:normal;font-weight:normal;font-size:10px;font-family:'DejaVu Sans';-inkscape-font-specification:DejaVuSans;writing-mode:lr-tb;fill:#0000ff;fill-opacity:1;fill-rule:nonzero;stroke:none"
           transform="scale(1,-1)"
           x="54.325867"
           y="-63.505001"><tspan
             id="tspan33034"
             y="-63.505001"
             x="54.325867">d</tspan></text>
<g
           transform="matrix(1,0,0,-1,0,96.260712)"
           id="g33038"><path
             inkscape:connector-curvature="0"
             id="path33040"
             style="fill:none;stroke:#0000ff;stroke-width:0.75;stroke-linecap:butt;stroke-linejoin:miter;stroke-miterlimit:4;stroke-dasharray:none;stroke-opacity:1"
             d="M 58.887,28.113 V 25.16 h 0.89 v 7.594 h -0.89 v -0.828 c -0.188,0.336 -0.43,0.578 -0.719,0.734 -0.293,0.156 -0.641,0.235 -1.047,0.235 -0.656,0 -1.195,-0.258 -1.609,-0.782 -0.418,-0.531 -0.625,-1.226 -0.625,-2.093 0,-0.852 0.207,-1.54 0.625,-2.063 0.414,-0.531 0.953,-0.797 1.609,-0.797 0.406,0 0.754,0.078 1.047,0.235 0.289,0.156 0.531,0.398 0.719,0.718 z m -3.063,1.907 c 0,0.668 0.133,1.187 0.406,1.562 0.27,0.375 0.645,0.563 1.125,0.563 0.469,0 0.836,-0.188 1.11,-0.563 0.281,-0.375 0.422,-0.894 0.422,-1.562 0,-0.657 -0.141,-1.172 -0.422,-1.547 -0.274,-0.375 -0.641,-0.563 -1.11,-0.563 -0.48,0 -0.855,0.188 -1.125,0.563 -0.273,0.375 -0.406,0.89 -0.406,1.547 z" /></g><text
           id="text33044"
           style="font-variant:normal;font-weight:normal;font-size:10px;font-family:'DejaVu Sans';-inkscape-font-specification:DejaVuSans;writing-mode:lr-tb;fill:#0000ff;fill-opacity:1;fill-rule:nonzero;stroke:none"
           transform="scale(1,-1)"
           x="60.687115"
           y="-63.505001"><tspan
             id="tspan33042"
             y="-63.505001"
             x="60.687115">e</tspan></text>
<g
           transform="matrix(1,0,0,-1,0,96.260712)"
           id="g33046"><path
             inkscape:connector-curvature="0"
             id="path33048"
             style="fill:none;stroke:#0000ff;stroke-width:0.75;stroke-linecap:butt;stroke-linejoin:miter;stroke-miterlimit:4;stroke-dasharray:none;stroke-opacity:1"
             d="m 66.312,29.801 v 0.437 h -4.14 c 0.039,0.617 0.226,1.086 0.562,1.407 0.332,0.324 0.797,0.484 1.391,0.484 0.344,0 0.676,-0.039 1,-0.125 0.332,-0.082 0.656,-0.207 0.969,-0.375 v 0.844 c -0.324,0.136 -0.656,0.242 -1,0.312 -0.336,0.07 -0.672,0.11 -1.016,0.11 -0.875,0 -1.57,-0.25 -2.078,-0.75 -0.512,-0.508 -0.766,-1.204 -0.766,-2.079 0,-0.894 0.239,-1.601 0.719,-2.125 0.488,-0.519 1.145,-0.781 1.969,-0.781 0.738,0 1.32,0.235 1.75,0.703 0.426,0.469 0.64,1.117 0.64,1.938 z m -0.906,-0.266 c 0,-0.488 -0.136,-0.879 -0.406,-1.172 -0.273,-0.301 -0.625,-0.453 -1.062,-0.453 -0.512,0 -0.918,0.149 -1.219,0.438 -0.293,0.281 -0.465,0.679 -0.516,1.187 z" /></g><text
           id="text33052"
           style="font-variant:normal;font-weight:normal;font-size:10px;font-family:'DejaVu Sans';-inkscape-font-specification:DejaVuSans;writing-mode:lr-tb;fill:#0000ff;fill-opacity:1;fill-rule:nonzero;stroke:none"
           transform="scale(1,-1)"
           x="66.839455"
           y="-63.505001"><tspan
             id="tspan33050"
             y="-63.505001"
             x="66.839455">s</tspan></text>
<g
           transform="matrix(1,0,0,-1,0,96.260712)"
           id="g33054"><path
             inkscape:connector-curvature="0"
             id="path33056"
             style="fill:none;stroke:#0000ff;stroke-width:0.75;stroke-linecap:butt;stroke-linejoin:miter;stroke-miterlimit:4;stroke-dasharray:none;stroke-opacity:1"
             d="m 71.262,27.441 v 0.86 C 71.012,28.168 70.75,28.066 70.48,28.004 70.207,27.941 69.922,27.91 69.621,27.91 c -0.437,0 -0.773,0.07 -1,0.203 -0.219,0.137 -0.328,0.34 -0.328,0.61 0,0.211 0.078,0.375 0.234,0.5 0.157,0.117 0.477,0.226 0.969,0.328 l 0.297,0.078 c 0.645,0.137 1.098,0.328 1.359,0.578 0.27,0.25 0.407,0.594 0.407,1.031 0,0.512 -0.204,0.918 -0.61,1.219 -0.398,0.293 -0.945,0.438 -1.64,0.438 -0.305,0 -0.618,-0.032 -0.938,-0.094 -0.312,-0.051 -0.641,-0.133 -0.984,-0.25 v -0.922 c 0.332,0.168 0.656,0.297 0.968,0.391 0.321,0.085 0.645,0.125 0.969,0.125 0.414,0 0.738,-0.071 0.969,-0.219 0.227,-0.145 0.344,-0.348 0.344,-0.61 0,-0.25 -0.086,-0.437 -0.25,-0.562 -0.157,-0.133 -0.516,-0.258 -1.078,-0.375 l -0.313,-0.078 c -0.555,-0.113 -0.953,-0.289 -1.203,-0.531 -0.25,-0.25 -0.375,-0.582 -0.375,-1 0,-0.52 0.18,-0.915 0.547,-1.188 0.363,-0.281 0.883,-0.422 1.562,-0.422 0.321,0 0.629,0.028 0.922,0.078 0.301,0.043 0.571,0.11 0.813,0.203 z" /></g><text
           id="text33060"
           style="font-variant:normal;font-weight:normal;font-size:10px;font-family:'DejaVu Sans';-inkscape-font-specification:DejaVuSans;writing-mode:lr-tb;fill:#0000ff;fill-opacity:1;fill-rule:nonzero;stroke:none"
           transform="scale(1,-1)"
           x="75.224297"
           y="-63.505001"><tspan
             id="tspan33058"
             y="-63.505001"
             x="75.224297">c</tspan></text>
<g
           transform="matrix(1,0,0,-1,0,96.260712)"
           id="g33062"><path
             inkscape:connector-curvature="0"
             id="path33064"
             style="fill:none;stroke:#0000ff;stroke-width:0.75;stroke-linecap:butt;stroke-linejoin:miter;stroke-miterlimit:4;stroke-dasharray:none;stroke-opacity:1"
             d="m 80.113,27.488 v 0.844 c -0.25,-0.133 -0.508,-0.238 -0.765,-0.312 -0.25,-0.071 -0.508,-0.11 -0.766,-0.11 -0.586,0 -1.039,0.188 -1.359,0.563 -0.325,0.367 -0.485,0.882 -0.485,1.547 0,0.668 0.16,1.187 0.485,1.562 0.32,0.367 0.773,0.547 1.359,0.547 0.258,0 0.516,-0.031 0.766,-0.094 0.257,-0.07 0.515,-0.18 0.765,-0.328 v 0.844 c -0.25,0.117 -0.511,0.199 -0.781,0.25 -0.262,0.062 -0.543,0.094 -0.844,0.094 -0.836,0 -1.496,-0.254 -1.984,-0.766 -0.481,-0.52 -0.719,-1.223 -0.719,-2.109 0,-0.883 0.242,-1.582 0.735,-2.094 0.488,-0.508 1.16,-0.766 2.015,-0.766 0.281,0 0.551,0.028 0.813,0.078 0.257,0.055 0.515,0.137 0.765,0.25 z" /></g><text
           id="text33068"
           style="font-variant:normal;font-weight:normal;font-size:10px;font-family:'DejaVu Sans';-inkscape-font-specification:DejaVuSans;writing-mode:lr-tb;fill:#0000ff;fill-opacity:1;fill-rule:nonzero;stroke:none"
           transform="scale(1,-1)"
           x="80.745712"
           y="-63.505001"><tspan
             id="tspan33066"
             y="-63.505001"
             x="80.745712">h</tspan></text>
<g
           transform="matrix(1,0,0,-1,0,96.260712)"
           id="g33070"><path
             inkscape:connector-curvature="0"
             id="path33072"
             style="fill:none;stroke:#0000ff;stroke-width:0.75;stroke-linecap:butt;stroke-linejoin:miter;stroke-miterlimit:4;stroke-dasharray:none;stroke-opacity:1"
             d="m 86.23,29.457 v 3.297 h -0.89 v -3.266 c 0,-0.519 -0.106,-0.906 -0.313,-1.156 -0.199,-0.258 -0.5,-0.391 -0.906,-0.391 -0.48,0 -0.859,0.157 -1.141,0.469 -0.281,0.305 -0.421,0.719 -0.421,1.25 v 3.094 H 81.652 V 25.16 h 0.907 v 2.969 c 0.218,-0.32 0.472,-0.563 0.765,-0.719 0.289,-0.164 0.625,-0.25 1,-0.25 0.625,0 1.098,0.195 1.422,0.578 0.32,0.387 0.484,0.961 0.484,1.719 z" /></g><text
           id="text33076"
           style="font-variant:normal;font-weight:normal;font-size:10px;font-family:'DejaVu Sans';-inkscape-font-specification:DejaVuSans;writing-mode:lr-tb;fill:#0000ff;fill-opacity:1;fill-rule:nonzero;stroke:none"
           transform="scale(1,-1)"
           x="87.093369"
           y="-63.505001"><tspan
             id="tspan33074"
             y="-63.505001"
             x="87.093369">a</tspan></text>
<g
           transform="matrix(1,0,0,-1,0,96.260712)"
           id="g33078"><path
             inkscape:connector-curvature="0"
             id="path33080"
             style="fill:none;stroke:#0000ff;stroke-width:0.75;stroke-linecap:butt;stroke-linejoin:miter;stroke-miterlimit:4;stroke-dasharray:none;stroke-opacity:1"
             d="m 90.516,30.004 c -0.719,0 -1.219,0.086 -1.5,0.25 -0.282,0.168 -0.422,0.449 -0.422,0.844 0,0.324 0.101,0.578 0.312,0.765 0.207,0.188 0.492,0.282 0.86,0.282 0.5,0 0.898,-0.176 1.203,-0.532 0.301,-0.351 0.453,-0.82 0.453,-1.406 v -0.203 z m 1.796,-0.375 v 3.125 h -0.89 v -0.828 c -0.211,0.336 -0.469,0.578 -0.781,0.734 -0.305,0.156 -0.672,0.235 -1.11,0.235 -0.562,0 -1.011,-0.157 -1.343,-0.469 -0.336,-0.313 -0.5,-0.735 -0.5,-1.266 0,-0.613 0.207,-1.078 0.624,-1.39 0.415,-0.313 1.032,-0.469 1.844,-0.469 h 1.266 v -0.094 c 0,-0.406 -0.141,-0.723 -0.422,-0.953 -0.273,-0.227 -0.652,-0.344 -1.141,-0.344 -0.312,0 -0.621,0.043 -0.921,0.125 -0.293,0.074 -0.575,0.184 -0.844,0.328 v -0.828 c 0.332,-0.125 0.648,-0.219 0.953,-0.281 0.312,-0.063 0.613,-0.094 0.906,-0.094 0.789,0 1.379,0.203 1.766,0.61 0.394,0.406 0.593,1.027 0.593,1.859 z" /></g><text
           id="text33084"
           style="font-variant:normal;font-weight:normal;font-size:10px;font-family:'DejaVu Sans';-inkscape-font-specification:DejaVuSans;writing-mode:lr-tb;fill:#0000ff;fill-opacity:1;fill-rule:nonzero;stroke:none"
           transform="scale(1,-1)"
           x="93.226181"
           y="-63.505001"><tspan
             id="tspan33082"
             y="-63.505001"
             x="93.226181">r</tspan></text>
<g
           transform="matrix(1,0,0,-1,0,96.260712)"
           id="g33086"><path
             inkscape:connector-curvature="0"
             id="path33088"
             style="fill:none;stroke:#0000ff;stroke-width:0.75;stroke-linecap:butt;stroke-linejoin:miter;stroke-miterlimit:4;stroke-dasharray:none;stroke-opacity:1"
             d="m 97.336,28.129 c -0.106,-0.063 -0.215,-0.102 -0.328,-0.125 -0.117,-0.031 -0.246,-0.047 -0.391,-0.047 -0.512,0 -0.902,0.168 -1.172,0.5 -0.273,0.324 -0.406,0.797 -0.406,1.422 v 2.875 h -0.906 v -5.469 h 0.906 v 0.844 c 0.188,-0.332 0.43,-0.578 0.734,-0.734 0.301,-0.157 0.672,-0.235 1.11,-0.235 0.062,0 0.129,0.008 0.203,0.016 0.07,0 0.156,0.012 0.25,0.031 z" /></g><text
           id="text33092"
           style="font-variant:normal;font-weight:normal;font-size:10px;font-family:'DejaVu Sans';-inkscape-font-specification:DejaVuSans;writing-mode:lr-tb;fill:#0000ff;fill-opacity:1;fill-rule:nonzero;stroke:none"
           transform="scale(1,-1)"
           x="97.171494"
           y="-63.505001"><tspan
             id="tspan33090"
             y="-63.505001"
             x="97.171494">g</tspan></text>
<g
           transform="matrix(1,0,0,-1,0,96.260712)"
           id="g33094"><path
             inkscape:connector-curvature="0"
             id="path33096"
             style="fill:none;stroke:#0000ff;stroke-width:0.75;stroke-linecap:butt;stroke-linejoin:miter;stroke-miterlimit:4;stroke-dasharray:none;stroke-opacity:1"
             d="m 101.719,29.957 c 0,-0.656 -0.137,-1.16 -0.407,-1.516 -0.273,-0.351 -0.648,-0.531 -1.124,-0.531 -0.493,0 -0.872,0.18 -1.141,0.531 -0.262,0.356 -0.391,0.86 -0.391,1.516 0,0.648 0.129,1.152 0.391,1.516 0.269,0.355 0.648,0.531 1.141,0.531 0.476,0 0.851,-0.176 1.124,-0.531 0.27,-0.364 0.407,-0.868 0.407,-1.516 z m 0.89,2.125 c 0,0.926 -0.211,1.613 -0.625,2.063 -0.406,0.457 -1.039,0.687 -1.89,0.687 -0.313,0 -0.61,-0.027 -0.891,-0.078 -0.281,-0.043 -0.555,-0.109 -0.812,-0.203 v -0.875 c 0.257,0.144 0.515,0.25 0.765,0.312 0.258,0.071 0.524,0.11 0.797,0.11 0.582,0 1.02,-0.157 1.313,-0.469 0.3,-0.305 0.453,-0.766 0.453,-1.391 v -0.453 c -0.188,0.324 -0.43,0.57 -0.719,0.735 -0.293,0.156 -0.641,0.234 -1.047,0.234 -0.668,0 -1.211,-0.254 -1.625,-0.766 -0.406,-0.508 -0.609,-1.187 -0.609,-2.031 0,-0.844 0.203,-1.519 0.609,-2.031 0.414,-0.508 0.957,-0.766 1.625,-0.766 0.406,0 0.754,0.078 1.047,0.235 0.289,0.156 0.531,0.398 0.719,0.718 v -0.828 h 0.89 z" /></g><text
           id="text33100"
           style="font-variant:normal;font-weight:normal;font-size:10px;font-family:'DejaVu Sans';-inkscape-font-specification:DejaVuSans;writing-mode:lr-tb;fill:#0000ff;fill-opacity:1;fill-rule:nonzero;stroke:none"
           transform="scale(1,-1)"
           x="103.51914"
           y="-63.505001"><tspan
             id="tspan33098"
             y="-63.505001"
             x="103.51914">e</tspan></text>
<g
           transform="matrix(1,0,0,-1,0,96.260712)"
           id="g33102"><path
             inkscape:connector-curvature="0"
             id="path33104"
             style="fill:none;stroke:#0000ff;stroke-width:0.75;stroke-linecap:butt;stroke-linejoin:miter;stroke-miterlimit:4;stroke-dasharray:none;stroke-opacity:1"
             d="m 109.145,29.801 v 0.437 h -4.141 c 0.039,0.617 0.226,1.086 0.562,1.407 0.332,0.324 0.797,0.484 1.391,0.484 0.344,0 0.676,-0.039 1,-0.125 0.332,-0.082 0.656,-0.207 0.969,-0.375 v 0.844 c -0.324,0.136 -0.656,0.242 -1,0.312 -0.336,0.07 -0.672,0.11 -1.016,0.11 -0.875,0 -1.57,-0.25 -2.078,-0.75 -0.512,-0.508 -0.766,-1.204 -0.766,-2.079 0,-0.894 0.239,-1.601 0.719,-2.125 0.488,-0.519 1.145,-0.781 1.969,-0.781 0.738,0 1.32,0.235 1.75,0.703 0.426,0.469 0.641,1.117 0.641,1.938 z m -0.907,-0.266 c 0,-0.488 -0.136,-0.879 -0.406,-1.172 -0.273,-0.301 -0.625,-0.453 -1.062,-0.453 -0.512,0 -0.918,0.149 -1.219,0.438 -0.293,0.281 -0.465,0.679 -0.516,1.187 z" /></g><text
           id="text33108"
           style="font-variant:normal;font-weight:normal;font-size:10px;font-family:'DejaVu Sans';-inkscape-font-specification:DejaVuSans;writing-mode:lr-tb;fill:#0000ff;fill-opacity:1;fill-rule:nonzero;stroke:none"
           transform="scale(1,-1)"
           x="109.67149"
           y="-63.505001"><tspan
             id="tspan33106"
             y="-63.505001"
             x="109.67149">s</tspan></text>
<g
           transform="matrix(1,0,0,-1,0,96.260712)"
           id="g33110"><path
             inkscape:connector-curvature="0"
             id="path33112"
             style="fill:none;stroke:#0000ff;stroke-width:0.75;stroke-linecap:butt;stroke-linejoin:miter;stroke-miterlimit:4;stroke-dasharray:none;stroke-opacity:1"
             d="m 114.094,27.441 v 0.86 c -0.25,-0.133 -0.512,-0.235 -0.782,-0.297 -0.273,-0.063 -0.558,-0.094 -0.859,-0.094 -0.437,0 -0.773,0.07 -1,0.203 -0.219,0.137 -0.328,0.34 -0.328,0.61 0,0.211 0.078,0.375 0.234,0.5 0.157,0.117 0.477,0.226 0.969,0.328 l 0.297,0.078 c 0.645,0.137 1.098,0.328 1.359,0.578 0.27,0.25 0.407,0.594 0.407,1.031 0,0.512 -0.203,0.918 -0.61,1.219 -0.398,0.293 -0.945,0.438 -1.64,0.438 -0.305,0 -0.618,-0.032 -0.938,-0.094 -0.312,-0.051 -0.641,-0.133 -0.984,-0.25 v -0.922 c 0.332,0.168 0.656,0.297 0.969,0.391 0.32,0.085 0.644,0.125 0.968,0.125 0.414,0 0.739,-0.071 0.969,-0.219 0.227,-0.145 0.344,-0.348 0.344,-0.61 0,-0.25 -0.086,-0.437 -0.25,-0.562 -0.157,-0.133 -0.516,-0.258 -1.078,-0.375 l -0.313,-0.078 c -0.555,-0.113 -0.953,-0.289 -1.203,-0.531 -0.25,-0.25 -0.375,-0.582 -0.375,-1 0,-0.52 0.18,-0.915 0.547,-1.188 0.363,-0.281 0.883,-0.422 1.562,-0.422 0.321,0 0.629,0.028 0.922,0.078 0.301,0.043 0.571,0.11 0.813,0.203 z" /></g><text
           id="text33116"
           style="font-variant:normal;font-weight:normal;font-size:10px;font-family:'DejaVu Sans';-inkscape-font-specification:DejaVuSans;writing-mode:lr-tb;fill:#0000ff;fill-opacity:1;fill-rule:nonzero;stroke:none"
           transform="scale(1,-1)"
           x="118.05633"
           y="-63.505001"><tspan
             id="tspan33114"
             y="-63.505001"
             x="118.05633">a</tspan></text>
<g
           transform="matrix(1,0,0,-1,0,96.260712)"
           id="g33118"><path
             inkscape:connector-curvature="0"
             id="path33120"
             style="fill:none;stroke:#0000ff;stroke-width:0.75;stroke-linecap:butt;stroke-linejoin:miter;stroke-miterlimit:4;stroke-dasharray:none;stroke-opacity:1"
             d="m 121.492,30.004 c -0.719,0 -1.219,0.086 -1.5,0.25 -0.281,0.168 -0.422,0.449 -0.422,0.844 0,0.324 0.102,0.578 0.313,0.765 0.207,0.188 0.492,0.282 0.859,0.282 0.5,0 0.899,-0.176 1.203,-0.532 0.301,-0.351 0.453,-0.82 0.453,-1.406 v -0.203 z m 1.797,-0.375 v 3.125 h -0.891 v -0.828 c -0.21,0.336 -0.468,0.578 -0.781,0.734 -0.305,0.156 -0.672,0.235 -1.109,0.235 -0.563,0 -1.012,-0.157 -1.344,-0.469 -0.336,-0.313 -0.5,-0.735 -0.5,-1.266 0,-0.613 0.207,-1.078 0.625,-1.39 0.414,-0.313 1.031,-0.469 1.844,-0.469 h 1.265 v -0.094 c 0,-0.406 -0.14,-0.723 -0.421,-0.953 -0.274,-0.227 -0.653,-0.344 -1.141,-0.344 -0.313,0 -0.621,0.043 -0.922,0.125 -0.293,0.074 -0.574,0.184 -0.844,0.328 v -0.828 c 0.332,-0.125 0.649,-0.219 0.953,-0.281 0.313,-0.063 0.614,-0.094 0.907,-0.094 0.789,0 1.379,0.203 1.765,0.61 0.395,0.406 0.594,1.027 0.594,1.859 z" /></g><text
           id="text33124"
           style="font-variant:normal;font-weight:normal;font-size:10px;font-family:'DejaVu Sans';-inkscape-font-specification:DejaVuSans;writing-mode:lr-tb;fill:#0000ff;fill-opacity:1;fill-rule:nonzero;stroke:none"
           transform="scale(1,-1)"
           x="124.20274"
           y="-63.505001"><tspan
             id="tspan33122"
             y="-63.505001"
             x="124.20274">u</tspan></text>
<g
           transform="matrix(1,0,0,-1,0,96.260712)"
           id="g33126"><path
             inkscape:connector-curvature="0"
             id="path33128"
             style="fill:none;stroke:#0000ff;stroke-width:0.75;stroke-linecap:butt;stroke-linejoin:miter;stroke-miterlimit:4;stroke-dasharray:none;stroke-opacity:1"
             d="m 125.047,30.598 v -3.313 h 0.906 v 3.281 c 0,0.512 0.098,0.899 0.297,1.157 0.207,0.261 0.508,0.39 0.906,0.39 0.489,0 0.875,-0.148 1.156,-0.453 0.282,-0.312 0.422,-0.738 0.422,-1.281 v -3.094 h 0.907 v 5.469 h -0.907 V 31.91 c -0.218,0.336 -0.476,0.586 -0.765,0.75 -0.281,0.156 -0.617,0.235 -1,0.235 -0.625,0 -1.106,-0.192 -1.438,-0.579 -0.324,-0.394 -0.484,-0.968 -0.484,-1.718 z" /></g><text
           id="text33132"
           style="font-variant:normal;font-weight:normal;font-size:10px;font-family:'DejaVu Sans';-inkscape-font-specification:DejaVuSans;writing-mode:lr-tb;fill:#0000ff;fill-opacity:1;fill-rule:nonzero;stroke:none"
           transform="scale(1,-1)"
           x="133.7204"
           y="-63.505001"><tspan
             id="tspan33130"
             y="-63.505001"
             x="133.7204">c</tspan></text>
<g
           transform="matrix(1,0,0,-1,0,96.260712)"
           id="g33134"><path
             inkscape:connector-curvature="0"
             id="path33136"
             style="fill:none;stroke:#0000ff;stroke-width:0.75;stroke-linecap:butt;stroke-linejoin:miter;stroke-miterlimit:4;stroke-dasharray:none;stroke-opacity:1"
             d="m 138.609,27.488 v 0.844 c -0.25,-0.133 -0.507,-0.238 -0.765,-0.312 -0.25,-0.071 -0.508,-0.11 -0.766,-0.11 -0.586,0 -1.039,0.188 -1.359,0.563 -0.324,0.367 -0.485,0.882 -0.485,1.547 0,0.668 0.161,1.187 0.485,1.562 0.32,0.367 0.773,0.547 1.359,0.547 0.258,0 0.516,-0.031 0.766,-0.094 0.258,-0.07 0.515,-0.18 0.765,-0.328 v 0.844 c -0.25,0.117 -0.511,0.199 -0.781,0.25 -0.262,0.062 -0.543,0.094 -0.844,0.094 -0.836,0 -1.496,-0.254 -1.984,-0.766 -0.48,-0.52 -0.719,-1.223 -0.719,-2.109 0,-0.883 0.242,-1.582 0.735,-2.094 0.488,-0.508 1.16,-0.766 2.015,-0.766 0.281,0 0.551,0.028 0.813,0.078 0.258,0.055 0.515,0.137 0.765,0.25 z" /></g><text
           id="text33140"
           style="font-variant:normal;font-weight:normal;font-size:10px;font-family:'DejaVu Sans';-inkscape-font-specification:DejaVuSans;writing-mode:lr-tb;fill:#0000ff;fill-opacity:1;fill-rule:nonzero;stroke:none"
           transform="scale(1,-1)"
           x="139.24181"
           y="-63.505001"><tspan
             id="tspan33138"
             y="-63.505001"
             x="139.24181">a</tspan></text>
<g
           transform="matrix(1,0,0,-1,0,96.260712)"
           id="g33142"><path
             inkscape:connector-curvature="0"
             id="path33144"
             style="fill:none;stroke:#0000ff;stroke-width:0.75;stroke-linecap:butt;stroke-linejoin:miter;stroke-miterlimit:4;stroke-dasharray:none;stroke-opacity:1"
             d="m 142.664,30.004 c -0.719,0 -1.219,0.086 -1.5,0.25 -0.281,0.168 -0.422,0.449 -0.422,0.844 0,0.324 0.102,0.578 0.313,0.765 0.207,0.188 0.492,0.282 0.859,0.282 0.5,0 0.898,-0.176 1.203,-0.532 0.301,-0.351 0.453,-0.82 0.453,-1.406 v -0.203 z m 1.797,-0.375 v 3.125 h -0.891 v -0.828 c -0.211,0.336 -0.468,0.578 -0.781,0.734 -0.305,0.156 -0.672,0.235 -1.109,0.235 -0.563,0 -1.012,-0.157 -1.344,-0.469 -0.336,-0.313 -0.5,-0.735 -0.5,-1.266 0,-0.613 0.207,-1.078 0.625,-1.39 0.414,-0.313 1.031,-0.469 1.844,-0.469 h 1.265 v -0.094 c 0,-0.406 -0.14,-0.723 -0.422,-0.953 -0.273,-0.227 -0.652,-0.344 -1.14,-0.344 -0.313,0 -0.621,0.043 -0.922,0.125 -0.293,0.074 -0.574,0.184 -0.844,0.328 v -0.828 c 0.332,-0.125 0.649,-0.219 0.953,-0.281 0.313,-0.063 0.614,-0.094 0.907,-0.094 0.789,0 1.378,0.203 1.765,0.61 0.395,0.406 0.594,1.027 0.594,1.859 z" /></g><text
           id="text33148"
           style="font-variant:normal;font-weight:normal;font-size:10px;font-family:'DejaVu Sans';-inkscape-font-specification:DejaVuSans;writing-mode:lr-tb;fill:#0000ff;fill-opacity:1;fill-rule:nonzero;stroke:none"
           transform="scale(1,-1)"
           x="145.37462"
           y="-63.505001"><tspan
             id="tspan33146"
             y="-63.505001"
             x="145.37462">r</tspan></text>
<g
           transform="matrix(1,0,0,-1,0,96.260712)"
           id="g33150"><path
             inkscape:connector-curvature="0"
             id="path33152"
             style="fill:none;stroke:#0000ff;stroke-width:0.75;stroke-linecap:butt;stroke-linejoin:miter;stroke-miterlimit:4;stroke-dasharray:none;stroke-opacity:1"
             d="m 149.484,28.129 c -0.105,-0.063 -0.214,-0.102 -0.328,-0.125 -0.117,-0.031 -0.246,-0.047 -0.39,-0.047 -0.512,0 -0.903,0.168 -1.172,0.5 -0.274,0.324 -0.406,0.797 -0.406,1.422 v 2.875 h -0.907 v -5.469 h 0.907 v 0.844 c 0.187,-0.332 0.429,-0.578 0.734,-0.734 0.301,-0.157 0.672,-0.235 1.109,-0.235 0.063,0 0.129,0.008 0.203,0.016 0.071,0 0.157,0.012 0.25,0.031 z" /></g><text
           id="text33156"
           style="font-variant:normal;font-weight:normal;font-size:10px;font-family:'DejaVu Sans';-inkscape-font-specification:DejaVuSans;writing-mode:lr-tb;fill:#0000ff;fill-opacity:1;fill-rule:nonzero;stroke:none"
           transform="scale(1,-1)"
           x="149.31992"
           y="-63.505001"><tspan
             id="tspan33154"
             y="-63.505001"
             x="149.31992">r</tspan></text>
<g
           transform="matrix(1,0,0,-1,0,96.260712)"
           id="g33158"><path
             inkscape:connector-curvature="0"
             id="path33160"
             style="fill:none;stroke:#0000ff;stroke-width:0.75;stroke-linecap:butt;stroke-linejoin:miter;stroke-miterlimit:4;stroke-dasharray:none;stroke-opacity:1"
             d="m 153.43,28.129 c -0.106,-0.063 -0.215,-0.102 -0.328,-0.125 -0.118,-0.031 -0.247,-0.047 -0.391,-0.047 -0.512,0 -0.902,0.168 -1.172,0.5 -0.273,0.324 -0.406,0.797 -0.406,1.422 v 2.875 h -0.906 v -5.469 h 0.906 v 0.844 c 0.187,-0.332 0.429,-0.578 0.734,-0.734 0.301,-0.157 0.672,-0.235 1.11,-0.235 0.062,0 0.128,0.008 0.203,0.016 0.07,0 0.156,0.012 0.25,0.031 z" /></g><text
           id="text33164"
           style="font-variant:normal;font-weight:normal;font-size:10px;font-family:'DejaVu Sans';-inkscape-font-specification:DejaVuSans;writing-mode:lr-tb;fill:#0000ff;fill-opacity:1;fill-rule:nonzero;stroke:none"
           transform="scale(1,-1)"
           x="153.22618"
           y="-63.505001"><tspan
             id="tspan33162"
             y="-63.505001"
             x="153.22618">é</tspan></text>
<g
           transform="matrix(1,0,0,-1,0,96.260712)"
           id="g33166"><path
             inkscape:connector-curvature="0"
             id="path33168"
             style="fill:none;stroke:#0000ff;stroke-width:0.75;stroke-linecap:butt;stroke-linejoin:miter;stroke-miterlimit:4;stroke-dasharray:none;stroke-opacity:1"
             d="m 158.852,29.801 v 0.437 h -4.141 c 0.039,0.617 0.227,1.086 0.562,1.407 0.332,0.324 0.797,0.484 1.391,0.484 0.344,0 0.676,-0.039 1,-0.125 0.332,-0.082 0.656,-0.207 0.969,-0.375 v 0.844 c -0.324,0.136 -0.656,0.242 -1,0.312 -0.336,0.07 -0.672,0.11 -1.016,0.11 -0.875,0 -1.57,-0.25 -2.078,-0.75 -0.512,-0.508 -0.766,-1.204 -0.766,-2.079 0,-0.894 0.239,-1.601 0.719,-2.125 0.488,-0.519 1.145,-0.781 1.969,-0.781 0.738,0 1.32,0.235 1.75,0.703 0.426,0.469 0.641,1.117 0.641,1.938 z m -0.907,-0.266 c 0,-0.488 -0.136,-0.879 -0.406,-1.172 -0.273,-0.301 -0.625,-0.453 -1.062,-0.453 -0.512,0 -0.918,0.149 -1.219,0.438 -0.293,0.281 -0.465,0.679 -0.516,1.187 z m -0.547,-4.781 h 0.985 l -1.594,1.844 h -0.75 z" /></g></g><text
         y="-49.685184"
         x="246.52933"
         transform="scale(1,-1)"
         style="font-variant:normal;font-weight:normal;font-size:10px;font-family:'DejaVu Sans';-inkscape-font-specification:DejaVuSans;writing-mode:lr-tb;fill:#0000ff;fill-opacity:1;fill-rule:nonzero;stroke:none"
         id="text33172"><tspan
           x="246.52933"
           y="-49.685184"
           id="tspan33170">c</tspan></text>
<g
         id="g33174"
         transform="matrix(1,0,0,-1,0,96.260712)"><path
           d="m 251.406,41.309 v 0.843 c -0.25,-0.132 -0.508,-0.238 -0.765,-0.312 -0.25,-0.07 -0.508,-0.11 -0.766,-0.11 -0.586,0 -1.039,0.188 -1.359,0.563 -0.325,0.367 -0.485,0.883 -0.485,1.547 0,0.668 0.16,1.187 0.485,1.562 0.32,0.368 0.773,0.547 1.359,0.547 0.258,0 0.516,-0.031 0.766,-0.094 0.257,-0.07 0.515,-0.179 0.765,-0.328 v 0.844 c -0.25,0.117 -0.511,0.199 -0.781,0.25 -0.262,0.063 -0.543,0.094 -0.844,0.094 -0.836,0 -1.496,-0.254 -1.984,-0.766 -0.481,-0.519 -0.719,-1.222 -0.719,-2.109 0,-0.883 0.242,-1.582 0.734,-2.094 0.489,-0.508 1.161,-0.766 2.016,-0.766 0.281,0 0.551,0.028 0.813,0.079 0.257,0.054 0.515,0.136 0.765,0.25 z"
           style="fill:none;stroke:#0000ff;stroke-width:0.75;stroke-linecap:butt;stroke-linejoin:miter;stroke-miterlimit:4;stroke-dasharray:none;stroke-opacity:1"
           id="path33176"
           inkscape:connector-curvature="0" /></g><text
         y="-49.685184"
         x="252.03712"
         transform="scale(1,-1)"
         style="font-variant:normal;font-weight:normal;font-size:10px;font-family:'DejaVu Sans';-inkscape-font-specification:DejaVuSans;writing-mode:lr-tb;fill:#0000ff;fill-opacity:1;fill-rule:nonzero;stroke:none"
         id="text33180"><tspan
           x="252.03712"
           y="-49.685184"
           id="tspan33178">o</tspan></text>
<g
         id="g33182"
         transform="matrix(1,0,0,-1,0,96.260712)"><path
           d="m 255.102,41.73 c -0.481,0 -0.86,0.188 -1.141,0.563 -0.281,0.375 -0.422,0.891 -0.422,1.547 0,0.656 0.133,1.172 0.406,1.547 0.282,0.375 0.664,0.562 1.157,0.562 0.476,0 0.859,-0.187 1.14,-0.562 0.281,-0.375 0.422,-0.891 0.422,-1.547 0,-0.645 -0.141,-1.156 -0.422,-1.531 -0.281,-0.383 -0.664,-0.579 -1.14,-0.579 z m 0,-0.75 c 0.781,0 1.394,0.258 1.843,0.766 0.446,0.5 0.672,1.199 0.672,2.094 0,0.898 -0.226,1.601 -0.672,2.109 -0.449,0.512 -1.062,0.766 -1.843,0.766 -0.782,0 -1.399,-0.254 -1.844,-0.766 -0.449,-0.508 -0.672,-1.211 -0.672,-2.109 0,-0.895 0.223,-1.594 0.672,-2.094 0.445,-0.508 1.062,-0.766 1.844,-0.766 z"
           style="fill:none;stroke:#0000ff;stroke-width:0.75;stroke-linecap:butt;stroke-linejoin:miter;stroke-miterlimit:4;stroke-dasharray:none;stroke-opacity:1"
           id="path33184"
           inkscape:connector-curvature="0" /></g><text
         y="-49.685184"
         x="258.15042"
         transform="scale(1,-1)"
         style="font-variant:normal;font-weight:normal;font-size:10px;font-family:'DejaVu Sans';-inkscape-font-specification:DejaVuSans;writing-mode:lr-tb;fill:#0000ff;fill-opacity:1;fill-rule:nonzero;stroke:none"
         id="text33188"><tspan
           x="258.15042"
           y="-49.685184"
           id="tspan33186">e</tspan></text>
<g
         id="g33190"
         transform="matrix(1,0,0,-1,0,96.260712)"><path
           d="m 263.777,43.621 v 0.438 h -4.14 c 0.039,0.617 0.226,1.086 0.562,1.406 0.332,0.324 0.797,0.484 1.391,0.484 0.344,0 0.676,-0.039 1,-0.125 0.332,-0.082 0.656,-0.207 0.969,-0.375 v 0.844 c -0.325,0.137 -0.657,0.242 -1,0.312 -0.336,0.071 -0.672,0.11 -1.016,0.11 -0.875,0 -1.57,-0.25 -2.078,-0.75 -0.512,-0.508 -0.766,-1.203 -0.766,-2.078 0,-0.895 0.239,-1.602 0.719,-2.125 0.488,-0.52 1.144,-0.782 1.969,-0.782 0.738,0 1.32,0.235 1.75,0.704 0.425,0.468 0.64,1.117 0.64,1.937 z m -0.906,-0.266 c 0,-0.488 -0.137,-0.878 -0.406,-1.171 -0.274,-0.301 -0.625,-0.454 -1.063,-0.454 -0.511,0 -0.918,0.149 -1.218,0.438 -0.293,0.281 -0.465,0.68 -0.516,1.187 z"
           style="fill:none;stroke:#0000ff;stroke-width:0.75;stroke-linecap:butt;stroke-linejoin:miter;stroke-miterlimit:4;stroke-dasharray:none;stroke-opacity:1"
           id="path33192"
           inkscape:connector-curvature="0" /></g><text
         y="-49.685184"
         x="264.30276"
         transform="scale(1,-1)"
         style="font-variant:normal;font-weight:normal;font-size:10px;font-family:'DejaVu Sans';-inkscape-font-specification:DejaVuSans;writing-mode:lr-tb;fill:#0000ff;fill-opacity:1;fill-rule:nonzero;stroke:none"
         id="text33196"><tspan
           x="264.30276"
           y="-49.685184"
           id="tspan33194">ﬃ</tspan></text>
<g
         id="g33198"
         transform="matrix(1,0,0,-1,0,96.260712)"><path
           d="m 268.023,38.98 v 0.75 h -0.859 c -0.324,0 -0.555,0.063 -0.687,0.188 -0.118,0.137 -0.172,0.371 -0.172,0.703 v 0.484 h 2.453 V 40.73 c 0,-0.613 0.144,-1.054 0.437,-1.328 0.082,-0.093 0.188,-0.172 0.313,-0.234 0.258,-0.125 0.601,-0.188 1.031,-0.188 h 0.844 v 0.75 h -0.86 c -0.324,0 -0.546,0.071 -0.671,0.204 -0.125,0.125 -0.188,0.355 -0.188,0.687 v 0.484 h 3.375 v 5.469 h -0.906 v -4.765 h -2.469 v 4.765 h -0.906 v -4.765 h -2.453 v 4.765 h -0.907 v -4.765 h -0.859 v -0.704 h 0.859 V 40.73 c 0,-0.613 0.141,-1.054 0.422,-1.328 0.282,-0.281 0.727,-0.422 1.344,-0.422 z m 4.11,0 h 0.906 v 1.141 h -0.906 z"
           style="fill:none;stroke:#0000ff;stroke-width:0.75;stroke-linecap:butt;stroke-linejoin:miter;stroke-miterlimit:4;stroke-dasharray:none;stroke-opacity:1"
           id="path33200"
           inkscape:connector-curvature="0" /></g><text
         y="-49.685184"
         x="273.99026"
         transform="scale(1,-1)"
         style="font-variant:normal;font-weight:normal;font-size:10px;font-family:'DejaVu Sans';-inkscape-font-specification:DejaVuSans;writing-mode:lr-tb;fill:#0000ff;fill-opacity:1;fill-rule:nonzero;stroke:none"
         id="text33204"><tspan
           x="273.99026"
           y="-49.685184"
           id="tspan33202">c</tspan></text>
<g
         id="g33206"
         transform="matrix(1,0,0,-1,0,96.260712)"><path
           d="m 278.867,41.309 v 0.843 c -0.25,-0.132 -0.508,-0.238 -0.765,-0.312 -0.25,-0.07 -0.508,-0.11 -0.766,-0.11 -0.586,0 -1.039,0.188 -1.359,0.563 -0.325,0.367 -0.485,0.883 -0.485,1.547 0,0.668 0.16,1.187 0.485,1.562 0.32,0.368 0.773,0.547 1.359,0.547 0.258,0 0.516,-0.031 0.766,-0.094 0.257,-0.07 0.515,-0.179 0.765,-0.328 v 0.844 c -0.25,0.117 -0.512,0.199 -0.781,0.25 -0.262,0.063 -0.543,0.094 -0.844,0.094 -0.836,0 -1.496,-0.254 -1.984,-0.766 -0.481,-0.519 -0.719,-1.222 -0.719,-2.109 0,-0.883 0.242,-1.582 0.734,-2.094 0.489,-0.508 1.161,-0.766 2.016,-0.766 0.281,0 0.551,0.028 0.813,0.079 0.257,0.054 0.515,0.136 0.765,0.25 z"
           style="fill:none;stroke:#0000ff;stroke-width:0.75;stroke-linecap:butt;stroke-linejoin:miter;stroke-miterlimit:4;stroke-dasharray:none;stroke-opacity:1"
           id="path33208"
           inkscape:connector-curvature="0" /></g><text
         y="-49.685184"
         x="279.49805"
         transform="scale(1,-1)"
         style="font-variant:normal;font-weight:normal;font-size:10px;font-family:'DejaVu Sans';-inkscape-font-specification:DejaVuSans;writing-mode:lr-tb;fill:#0000ff;fill-opacity:1;fill-rule:nonzero;stroke:none"
         id="text33212"><tspan
           x="279.49805"
           y="-49.685184"
           id="tspan33210">i</tspan></text>
<g
         id="g33214"
         transform="matrix(1,0,0,-1,0,96.260712)"><path
           d="m 280.438,41.105 h 0.906 v 5.469 h -0.906 z m 0,-2.125 h 0.906 v 1.141 h -0.906 z"
           style="fill:none;stroke:#0000ff;stroke-width:0.75;stroke-linecap:butt;stroke-linejoin:miter;stroke-miterlimit:4;stroke-dasharray:none;stroke-opacity:1"
           id="path33216"
           inkscape:connector-curvature="0" /></g><text
         y="-49.685184"
         x="282.27151"
         transform="scale(1,-1)"
         style="font-variant:normal;font-weight:normal;font-size:10px;font-family:'DejaVu Sans';-inkscape-font-specification:DejaVuSans;writing-mode:lr-tb;fill:#0000ff;fill-opacity:1;fill-rule:nonzero;stroke:none"
         id="text33220"><tspan
           x="282.27151"
           y="-49.685184"
           id="tspan33218">e</tspan></text>
<g
         id="g33222"
         transform="matrix(1,0,0,-1,0,96.260712)"><path
           d="m 287.898,43.621 v 0.438 h -4.14 c 0.039,0.617 0.226,1.086 0.562,1.406 0.332,0.324 0.797,0.484 1.391,0.484 0.344,0 0.676,-0.039 1,-0.125 0.332,-0.082 0.656,-0.207 0.969,-0.375 v 0.844 c -0.325,0.137 -0.657,0.242 -1,0.312 -0.336,0.071 -0.672,0.11 -1.016,0.11 -0.875,0 -1.57,-0.25 -2.078,-0.75 -0.512,-0.508 -0.766,-1.203 -0.766,-2.078 0,-0.895 0.239,-1.602 0.719,-2.125 0.488,-0.52 1.145,-0.782 1.969,-0.782 0.738,0 1.32,0.235 1.75,0.704 0.426,0.468 0.64,1.117 0.64,1.937 z m -0.906,-0.266 c 0,-0.488 -0.137,-0.878 -0.406,-1.171 -0.274,-0.301 -0.625,-0.454 -1.063,-0.454 -0.511,0 -0.918,0.149 -1.218,0.438 -0.293,0.281 -0.465,0.68 -0.516,1.187 z"
           style="fill:none;stroke:#0000ff;stroke-width:0.75;stroke-linecap:butt;stroke-linejoin:miter;stroke-miterlimit:4;stroke-dasharray:none;stroke-opacity:1"
           id="path33224"
           inkscape:connector-curvature="0" /></g><text
         y="-49.685184"
         x="288.42386"
         transform="scale(1,-1)"
         style="font-variant:normal;font-weight:normal;font-size:10px;font-family:'DejaVu Sans';-inkscape-font-specification:DejaVuSans;writing-mode:lr-tb;fill:#0000ff;fill-opacity:1;fill-rule:nonzero;stroke:none"
         id="text33228"><tspan
           x="288.42386"
           y="-49.685184"
           id="tspan33226">n</tspan></text>
<g
         id="g33230"
         transform="matrix(1,0,0,-1,0,96.260712)"><path
           d="m 293.91,43.277 v 3.297 h -0.89 v -3.265 c 0,-0.52 -0.106,-0.907 -0.313,-1.157 -0.199,-0.257 -0.5,-0.39 -0.906,-0.39 -0.481,0 -0.86,0.156 -1.141,0.468 -0.281,0.305 -0.422,0.719 -0.422,1.25 v 3.094 h -0.906 v -5.469 h 0.906 v 0.844 c 0.219,-0.32 0.473,-0.562 0.766,-0.719 0.289,-0.164 0.625,-0.25 1,-0.25 0.625,0 1.098,0.196 1.422,0.579 0.32,0.386 0.484,0.961 0.484,1.718 z"
           style="fill:none;stroke:#0000ff;stroke-width:0.75;stroke-linecap:butt;stroke-linejoin:miter;stroke-miterlimit:4;stroke-dasharray:none;stroke-opacity:1"
           id="path33232"
           inkscape:connector-curvature="0" /></g><text
         y="-49.685184"
         x="294.77151"
         transform="scale(1,-1)"
         style="font-variant:normal;font-weight:normal;font-size:10px;font-family:'DejaVu Sans';-inkscape-font-specification:DejaVuSans;writing-mode:lr-tb;fill:#0000ff;fill-opacity:1;fill-rule:nonzero;stroke:none"
         id="text33236"><tspan
           x="294.77151"
           y="-49.685184"
           id="tspan33234">t</tspan></text>
<g
         id="g33238"
         transform="matrix(1,0,0,-1,0,96.260712)"><path
           d="m 296.602,39.559 v 1.546 h 1.859 v 0.704 h -1.859 v 2.968 c 0,0.438 0.062,0.727 0.187,0.86 0.125,0.125 0.375,0.187 0.75,0.187 h 0.922 v 0.75 h -0.922 c -0.699,0 -1.184,-0.129 -1.453,-0.39 -0.262,-0.258 -0.391,-0.727 -0.391,-1.407 v -2.968 h -0.656 v -0.704 h 0.656 v -1.546 z"
           style="fill:none;stroke:#0000ff;stroke-width:0.75;stroke-linecap:butt;stroke-linejoin:miter;stroke-miterlimit:4;stroke-dasharray:none;stroke-opacity:1"
           id="path33240"
           inkscape:connector-curvature="0" /></g><text
         y="-49.685184"
         x="298.69727"
         transform="scale(1,-1)"
         style="font-variant:normal;font-weight:normal;font-size:10px;font-family:'DejaVu Sans';-inkscape-font-specification:DejaVuSans;writing-mode:lr-tb;fill:#0000ff;fill-opacity:1;fill-rule:nonzero;stroke:none"
         id="text33244"><tspan
           x="298.69727"
           y="-49.685184"
           id="tspan33242">s</tspan></text>
<g
         id="g33246"
         transform="matrix(1,0,0,-1,0,96.260712)"><path
           d="m 303.121,41.262 v 0.859 c -0.25,-0.133 -0.512,-0.234 -0.781,-0.297 -0.274,-0.062 -0.559,-0.094 -0.86,-0.094 -0.437,0 -0.773,0.071 -1,0.204 -0.218,0.136 -0.328,0.339 -0.328,0.609 0,0.211 0.078,0.375 0.235,0.5 0.156,0.117 0.476,0.227 0.968,0.328 l 0.297,0.078 c 0.645,0.137 1.098,0.328 1.36,0.578 0.269,0.25 0.406,0.594 0.406,1.032 0,0.511 -0.203,0.918 -0.609,1.218 -0.399,0.293 -0.946,0.438 -1.641,0.438 -0.305,0 -0.617,-0.031 -0.938,-0.094 -0.312,-0.051 -0.64,-0.133 -0.984,-0.25 v -0.922 c 0.332,0.168 0.656,0.297 0.969,0.391 0.32,0.086 0.644,0.125 0.969,0.125 0.414,0 0.738,-0.07 0.968,-0.219 0.227,-0.144 0.344,-0.348 0.344,-0.609 0,-0.25 -0.086,-0.438 -0.25,-0.563 -0.156,-0.133 -0.516,-0.258 -1.078,-0.375 l -0.313,-0.078 c -0.554,-0.113 -0.953,-0.289 -1.203,-0.531 -0.25,-0.25 -0.375,-0.582 -0.375,-1 0,-0.52 0.18,-0.914 0.547,-1.188 0.364,-0.281 0.883,-0.422 1.563,-0.422 0.32,0 0.629,0.028 0.922,0.079 0.3,0.043 0.57,0.109 0.812,0.203 z"
           style="fill:none;stroke:#0000ff;stroke-width:0.75;stroke-linecap:butt;stroke-linejoin:miter;stroke-miterlimit:4;stroke-dasharray:none;stroke-opacity:1"
           id="path33248"
           inkscape:connector-curvature="0" /></g><text
         y="-49.685184"
         x="307.08212"
         transform="scale(1,-1)"
         style="font-variant:normal;font-weight:normal;font-size:10px;font-family:'DejaVu Sans';-inkscape-font-specification:DejaVuSans;writing-mode:lr-tb;fill:#0000ff;fill-opacity:1;fill-rule:nonzero;stroke:none"
         id="text33252"><tspan
           x="307.08212"
           y="-49.685184"
           id="tspan33250">d</tspan></text>
<g
         id="g33254"
         transform="matrix(1,0,0,-1,0,96.260712)"><path
           d="M 311.645,41.934 V 38.98 h 0.89 v 7.594 h -0.89 v -0.828 c -0.188,0.336 -0.43,0.578 -0.719,0.734 -0.293,0.157 -0.641,0.235 -1.047,0.235 -0.656,0 -1.195,-0.258 -1.609,-0.781 -0.418,-0.532 -0.625,-1.227 -0.625,-2.094 0,-0.852 0.207,-1.539 0.625,-2.063 0.414,-0.531 0.953,-0.797 1.609,-0.797 0.406,0 0.754,0.079 1.047,0.235 0.289,0.156 0.531,0.398 0.719,0.719 z m -3.063,1.906 c 0,0.668 0.133,1.187 0.406,1.562 0.27,0.375 0.645,0.563 1.125,0.563 0.469,0 0.836,-0.188 1.11,-0.563 0.281,-0.375 0.422,-0.894 0.422,-1.562 0,-0.656 -0.141,-1.172 -0.422,-1.547 -0.274,-0.375 -0.641,-0.563 -1.11,-0.563 -0.48,0 -0.855,0.188 -1.125,0.563 -0.273,0.375 -0.406,0.891 -0.406,1.547 z"
           style="fill:none;stroke:#0000ff;stroke-width:0.75;stroke-linecap:butt;stroke-linejoin:miter;stroke-miterlimit:4;stroke-dasharray:none;stroke-opacity:1"
           id="path33256"
           inkscape:connector-curvature="0" /></g><text
         y="-49.685184"
         x="313.44339"
         transform="scale(1,-1)"
         style="font-variant:normal;font-weight:normal;font-size:10px;font-family:'DejaVu Sans';-inkscape-font-specification:DejaVuSans;writing-mode:lr-tb;fill:#0000ff;fill-opacity:1;fill-rule:nonzero;stroke:none"
         id="text33260"><tspan
           x="313.44339"
           y="-49.685184"
           id="tspan33258">u</tspan></text>
<g
         id="g33262"
         transform="matrix(1,0,0,-1,0,96.260712)"><path
           d="m 314.289,44.418 v -3.313 h 0.906 v 3.282 c 0,0.511 0.098,0.898 0.297,1.156 0.207,0.262 0.508,0.391 0.906,0.391 0.489,0 0.875,-0.149 1.157,-0.454 0.281,-0.312 0.422,-0.738 0.422,-1.281 v -3.094 h 0.906 v 5.469 h -0.906 V 45.73 c -0.219,0.336 -0.477,0.586 -0.766,0.75 -0.281,0.157 -0.617,0.235 -1,0.235 -0.625,0 -1.106,-0.192 -1.438,-0.578 -0.324,-0.395 -0.484,-0.969 -0.484,-1.719 z"
           style="fill:none;stroke:#0000ff;stroke-width:0.75;stroke-linecap:butt;stroke-linejoin:miter;stroke-miterlimit:4;stroke-dasharray:none;stroke-opacity:1"
           id="path33264"
           inkscape:connector-curvature="0" /></g><text
         y="-49.685184"
         x="322.96103"
         transform="scale(1,-1)"
         style="font-variant:normal;font-weight:normal;font-size:10px;font-family:'DejaVu Sans';-inkscape-font-specification:DejaVuSans;writing-mode:lr-tb;fill:#0000ff;fill-opacity:1;fill-rule:nonzero;stroke:none"
         id="text33268"><tspan
           x="322.96103"
           y="-49.685184"
           id="tspan33266">&quot;</tspan></text>
<g
         id="g33270"
         transform="matrix(1,0,0,-1,0,96.260712)"><path
           d="m 324.773,39.277 v 2.719 h -0.828 v -2.719 z m 1.844,0 v 2.719 h -0.828 v -2.719 z"
           style="fill:none;stroke:#0000ff;stroke-width:0.75;stroke-linecap:butt;stroke-linejoin:miter;stroke-miterlimit:4;stroke-dasharray:none;stroke-opacity:1"
           id="path33272"
           inkscape:connector-curvature="0" /></g><text
         y="-49.685184"
         x="327.58401"
         transform="scale(1,-1)"
         style="font-variant:normal;font-weight:normal;font-size:10px;font-family:'DejaVu Sans';-inkscape-font-specification:DejaVuSans;writing-mode:lr-tb;fill:#0000ff;fill-opacity:1;fill-rule:nonzero;stroke:none"
         id="text33276"><tspan
           x="327.58401"
           y="-49.685184"
           id="tspan33274">ﬁ</tspan></text>
<g
         id="g33278"
         transform="matrix(1,0,0,-1,0,96.260712)"><path
           d="m 332.945,41.105 v 5.469 h -0.906 v -4.765 h -2.453 v 4.765 h -0.906 v -4.765 h -0.86 v -0.704 h 0.86 V 40.73 c 0,-0.601 0.14,-1.046 0.422,-1.328 0.281,-0.281 0.71,-0.422 1.296,-0.422 h 0.907 v 0.75 h -0.86 c -0.324,0 -0.547,0.071 -0.672,0.204 -0.125,0.125 -0.187,0.355 -0.187,0.687 v 0.484 z m -0.906,-2.125 h 0.906 v 1.141 h -0.906 z"
           style="fill:none;stroke:#0000ff;stroke-width:0.75;stroke-linecap:butt;stroke-linejoin:miter;stroke-miterlimit:4;stroke-dasharray:none;stroke-opacity:1"
           id="path33280"
           inkscape:connector-curvature="0" /></g><text
         y="-49.685184"
         x="333.89258"
         transform="scale(1,-1)"
         style="font-variant:normal;font-weight:normal;font-size:10px;font-family:'DejaVu Sans';-inkscape-font-specification:DejaVuSans;writing-mode:lr-tb;fill:#0000ff;fill-opacity:1;fill-rule:nonzero;stroke:none"
         id="text33284"><tspan
           x="333.89258"
           y="-49.685184"
           id="tspan33282">t</tspan></text>
<g
         id="g33286"
         transform="matrix(1,0,0,-1,0,96.260712)"><path
           d="m 335.723,39.559 v 1.546 h 1.859 v 0.704 h -1.859 v 2.968 c 0,0.438 0.062,0.727 0.187,0.86 0.125,0.125 0.375,0.187 0.75,0.187 h 0.922 v 0.75 h -0.922 c -0.699,0 -1.183,-0.129 -1.453,-0.39 -0.262,-0.258 -0.391,-0.727 -0.391,-1.407 v -2.968 h -0.656 v -0.704 h 0.656 v -1.546 z"
           style="fill:none;stroke:#0000ff;stroke-width:0.75;stroke-linecap:butt;stroke-linejoin:miter;stroke-miterlimit:4;stroke-dasharray:none;stroke-opacity:1"
           id="path33288"
           inkscape:connector-curvature="0" /></g><text
         y="-49.685184"
         x="337.81836"
         transform="scale(1,-1)"
         style="font-variant:normal;font-weight:normal;font-size:10px;font-family:'DejaVu Sans';-inkscape-font-specification:DejaVuSans;writing-mode:lr-tb;fill:#0000ff;fill-opacity:1;fill-rule:nonzero;stroke:none"
         id="text33292"><tspan
           x="337.81836"
           y="-49.685184"
           id="tspan33290">&quot;</tspan></text>
<g
         id="g33294"
         transform="matrix(1,0,0,-1,0,96.260712)"><path
           d="m 339.617,39.277 v 2.719 h -0.828 v -2.719 z m 1.844,0 v 2.719 h -0.828 v -2.719 z"
           style="fill:none;stroke:#0000ff;stroke-width:0.75;stroke-linecap:butt;stroke-linejoin:miter;stroke-miterlimit:4;stroke-dasharray:none;stroke-opacity:1"
           id="path33296"
           inkscape:connector-curvature="0" /></g><text
         y="-49.685184"
         x="345.59775"
         transform="scale(1,-1)"
         style="font-variant:normal;font-weight:normal;font-size:10px;font-family:'DejaVu Sans';-inkscape-font-specification:DejaVuSans;writing-mode:lr-tb;fill:#0000ff;fill-opacity:1;fill-rule:nonzero;stroke:none"
         id="text33300"><tspan
           x="345.59775"
           y="-49.685184"
           id="tspan33298">F</tspan></text>
<g
         id="g33302"
         transform="matrix(1,0,0,-1,0,96.260712)"><path
           d="m 346.598,39.277 h 4.187 v 0.844 h -3.203 v 2.141 h 2.891 v 0.828 h -2.891 v 3.484 h -0.984 z"
           style="fill:none;stroke:#0000ff;stroke-width:0.75;stroke-linecap:butt;stroke-linejoin:miter;stroke-miterlimit:4;stroke-dasharray:none;stroke-opacity:1"
           id="path33304"
           inkscape:connector-curvature="0" /></g><text
         y="-49.685184"
         x="351.37305"
         transform="scale(1,-1)"
         style="font-variant:normal;font-weight:normal;font-size:10px;font-family:'DejaVu Sans';-inkscape-font-specification:DejaVuSans;writing-mode:lr-tb;fill:#0000ff;fill-opacity:1;fill-rule:nonzero;stroke:none"
         id="text33308"><tspan
           x="351.37305"
           y="-49.685184"
           id="tspan33306">D</tspan></text>
<g
         id="g33310"
         transform="matrix(1,0,0,-1,0,96.260712)"><path
           d="m 353.344,40.09 v 5.672 h 1.187 c 1.008,0 1.742,-0.223 2.203,-0.672 0.469,-0.457 0.704,-1.18 0.704,-2.172 0,-0.977 -0.235,-1.691 -0.704,-2.141 -0.461,-0.457 -1.195,-0.687 -2.203,-0.687 z m -0.985,-0.813 h 2.032 c 1.406,0 2.437,0.297 3.093,0.891 0.664,0.586 1,1.5 1,2.75 0,1.262 -0.336,2.187 -1,2.781 -0.656,0.586 -1.687,0.875 -3.093,0.875 h -2.032 z"
           style="fill:none;stroke:#0000ff;stroke-width:0.75;stroke-linecap:butt;stroke-linejoin:miter;stroke-miterlimit:4;stroke-dasharray:none;stroke-opacity:1"
           id="path33312"
           inkscape:connector-curvature="0" /></g><text
         y="-49.685184"
         x="359.06836"
         transform="scale(1,-1)"
         style="font-variant:normal;font-weight:normal;font-size:10px;font-family:'DejaVu Sans';-inkscape-font-specification:DejaVuSans;writing-mode:lr-tb;fill:#0000ff;fill-opacity:1;fill-rule:nonzero;stroke:none"
         id="text33316"><tspan
           x="359.06836"
           y="-49.685184"
           id="tspan33314">B</tspan></text>
<g
         id="g33318"
         transform="matrix(1,0,0,-1,0,96.260712)"><path
           d="m 361.039,43.09 v 2.672 h 1.578 c 0.531,0 0.922,-0.11 1.172,-0.328 0.258,-0.219 0.391,-0.555 0.391,-1.016 0,-0.445 -0.133,-0.781 -0.391,-1 -0.25,-0.219 -0.641,-0.328 -1.172,-0.328 z m 0,-3 v 2.203 h 1.453 c 0.488,0 0.848,-0.086 1.078,-0.266 0.239,-0.187 0.36,-0.461 0.36,-0.828 0,-0.375 -0.121,-0.648 -0.36,-0.828 -0.23,-0.187 -0.59,-0.281 -1.078,-0.281 z m -0.984,-0.813 h 2.515 c 0.75,0 1.328,0.157 1.735,0.469 0.406,0.313 0.609,0.762 0.609,1.344 0,0.449 -0.105,0.805 -0.312,1.062 -0.211,0.262 -0.512,0.422 -0.907,0.485 0.477,0.105 0.852,0.324 1.125,0.656 0.27,0.336 0.407,0.746 0.407,1.234 0,0.657 -0.227,1.164 -0.672,1.516 -0.438,0.355 -1.071,0.531 -1.891,0.531 h -2.609 z"
           style="fill:none;stroke:#0000ff;stroke-width:0.75;stroke-linecap:butt;stroke-linejoin:miter;stroke-miterlimit:4;stroke-dasharray:none;stroke-opacity:1"
           id="path33320"
           inkscape:connector-curvature="0" /></g><text
         y="-47.093922"
         x="149.57446"
         transform="scale(1,-1)"
         style="font-variant:normal;font-weight:normal;font-size:10px;font-family:'DejaVu Sans';-inkscape-font-specification:DejaVuSans;writing-mode:lr-tb;fill:#0000ff;fill-opacity:1;fill-rule:nonzero;stroke:none"
         id="text33324"><tspan
           x="149.57446"
           y="-47.093922"
           id="tspan33322">G</tspan></text>
<g
         id="g33326"
         transform="matrix(1,0,0,-1,0,96.260712)"><path
           d="m 155.527,48.121 v -1.953 h -1.609 v -0.813 h 2.578 v 3.141 c -0.375,0.262 -0.793,0.465 -1.25,0.609 -0.461,0.133 -0.949,0.204 -1.469,0.204 -1.148,0 -2.043,-0.332 -2.687,-1 -0.637,-0.664 -0.953,-1.594 -0.953,-2.782 0,-1.187 0.316,-2.113 0.953,-2.781 0.644,-0.664 1.539,-1 2.687,-1 0.469,0 0.914,0.059 1.344,0.172 0.438,0.117 0.832,0.289 1.188,0.516 v 1.062 c -0.368,-0.312 -0.75,-0.547 -1.157,-0.703 -0.406,-0.156 -0.84,-0.234 -1.297,-0.234 -0.898,0 -1.57,0.25 -2.015,0.75 -0.438,0.492 -0.656,1.23 -0.656,2.218 0,0.993 0.218,1.735 0.656,2.235 0.445,0.492 1.117,0.734 2.015,0.734 0.352,0 0.665,-0.023 0.938,-0.078 0.269,-0.063 0.516,-0.16 0.734,-0.297 z"
           style="fill:none;stroke:#0000ff;stroke-width:0.75;stroke-linecap:butt;stroke-linejoin:miter;stroke-miterlimit:4;stroke-dasharray:none;stroke-opacity:1"
           id="path33328"
           inkscape:connector-curvature="0" /></g><text
         y="-47.093922"
         x="157.32837"
         transform="scale(1,-1)"
         style="font-variant:normal;font-weight:normal;font-size:10px;font-family:'DejaVu Sans';-inkscape-font-specification:DejaVuSans;writing-mode:lr-tb;fill:#0000ff;fill-opacity:1;fill-rule:nonzero;stroke:none"
         id="text33332"><tspan
           x="157.32837"
           y="-47.093922"
           id="tspan33330">B</tspan></text>
<g
         id="g33334"
         transform="matrix(1,0,0,-1,0,96.260712)"><path
           d="m 159.297,45.684 v 2.671 h 1.578 c 0.531,0 0.922,-0.109 1.172,-0.328 0.258,-0.218 0.391,-0.554 0.391,-1.015 0,-0.446 -0.133,-0.782 -0.391,-1 -0.25,-0.219 -0.641,-0.328 -1.172,-0.328 z m 0,-3 v 2.203 h 1.453 c 0.488,0 0.848,-0.086 1.078,-0.266 0.238,-0.187 0.36,-0.461 0.36,-0.828 0,-0.375 -0.122,-0.648 -0.36,-0.828 -0.23,-0.188 -0.59,-0.281 -1.078,-0.281 z m -0.985,-0.813 h 2.516 c 0.75,0 1.328,0.156 1.734,0.469 0.407,0.312 0.61,0.762 0.61,1.344 0,0.449 -0.106,0.804 -0.313,1.062 -0.211,0.262 -0.511,0.422 -0.906,0.484 0.477,0.106 0.852,0.325 1.125,0.657 0.27,0.336 0.406,0.746 0.406,1.234 0,0.656 -0.226,1.164 -0.672,1.516 -0.437,0.355 -1.07,0.531 -1.89,0.531 h -2.61 z"
           style="fill:none;stroke:#0000ff;stroke-width:0.75;stroke-linecap:butt;stroke-linejoin:miter;stroke-miterlimit:4;stroke-dasharray:none;stroke-opacity:1"
           id="path33336"
           inkscape:connector-curvature="0" /></g><text
         y="-47.093922"
         x="164.18384"
         transform="scale(1,-1)"
         style="font-variant:normal;font-weight:normal;font-size:6px;font-family:'DejaVu Sans';-inkscape-font-specification:DejaVuSans;writing-mode:lr-tb;fill:#0000ff;fill-opacity:1;fill-rule:nonzero;stroke:none"
         id="text33340"><tspan
           x="164.18384"
           y="-47.093922"
           id="tspan33338">s</tspan></text>
<g
         id="g33342"
         transform="matrix(1,0,0,-1,0,96.260712)"><path
           d="m 166.84,45.98 v 0.516 c -0.156,-0.082 -0.32,-0.141 -0.485,-0.172 -0.156,-0.039 -0.324,-0.062 -0.5,-0.062 -0.273,0 -0.476,0.043 -0.609,0.125 -0.125,0.086 -0.187,0.203 -0.187,0.359 0,0.125 0.046,0.227 0.14,0.297 0.094,0.074 0.285,0.141 0.578,0.203 l 0.188,0.047 c 0.375,0.086 0.64,0.199 0.797,0.344 0.164,0.148 0.25,0.355 0.25,0.625 0,0.304 -0.121,0.543 -0.36,0.718 -0.242,0.18 -0.57,0.266 -0.984,0.266 -0.18,0 -0.367,-0.016 -0.563,-0.047 -0.187,-0.031 -0.386,-0.082 -0.593,-0.156 v -0.547 c 0.195,0.106 0.39,0.184 0.578,0.234 0.195,0.055 0.39,0.079 0.578,0.079 0.258,0 0.457,-0.039 0.594,-0.125 0.133,-0.094 0.203,-0.219 0.203,-0.375 0,-0.145 -0.055,-0.254 -0.156,-0.329 -0.094,-0.082 -0.309,-0.16 -0.641,-0.234 l -0.188,-0.047 c -0.335,-0.07 -0.578,-0.179 -0.734,-0.328 -0.148,-0.144 -0.219,-0.344 -0.219,-0.594 0,-0.312 0.11,-0.55 0.328,-0.718 0.219,-0.164 0.532,-0.25 0.938,-0.25 0.195,0 0.383,0.015 0.562,0.046 0.176,0.032 0.336,0.075 0.485,0.125 z"
           style="fill:none;stroke:#0000ff;stroke-width:0.75;stroke-linecap:butt;stroke-linejoin:miter;stroke-miterlimit:4;stroke-dasharray:none;stroke-opacity:1"
           id="path33344"
           inkscape:connector-curvature="0" /></g><text
         y="-47.093922"
         x="167.31274"
         transform="scale(1,-1)"
         style="font-variant:normal;font-weight:normal;font-size:6px;font-family:'DejaVu Sans';-inkscape-font-specification:DejaVuSans;writing-mode:lr-tb;fill:#0000ff;fill-opacity:1;fill-rule:nonzero;stroke:none"
         id="text33348"><tspan
           x="167.31274"
           y="-47.093922"
           id="tspan33346">e</tspan></text>
<g
         id="g33350"
         transform="matrix(1,0,0,-1,0,96.260712)"><path
           d="m 170.688,47.387 v 0.265 h -2.485 c 0.02,0.375 0.129,0.664 0.328,0.86 0.207,0.187 0.489,0.281 0.844,0.281 0.207,0 0.406,-0.023 0.594,-0.078 0.195,-0.051 0.394,-0.125 0.593,-0.219 v 0.5 c -0.199,0.086 -0.402,0.149 -0.609,0.188 -0.199,0.039 -0.402,0.062 -0.609,0.062 -0.524,0 -0.938,-0.148 -1.25,-0.453 -0.305,-0.301 -0.453,-0.711 -0.453,-1.234 0,-0.539 0.144,-0.969 0.437,-1.282 0.289,-0.312 0.68,-0.468 1.172,-0.468 0.445,0 0.797,0.14 1.047,0.421 0.258,0.282 0.391,0.668 0.391,1.157 z m -0.547,-0.157 c 0,-0.289 -0.086,-0.523 -0.25,-0.703 -0.157,-0.175 -0.368,-0.265 -0.625,-0.265 -0.305,0 -0.547,0.09 -0.735,0.265 -0.179,0.168 -0.281,0.403 -0.312,0.703 z"
           style="fill:none;stroke:#0000ff;stroke-width:0.75;stroke-linecap:butt;stroke-linejoin:miter;stroke-miterlimit:4;stroke-dasharray:none;stroke-opacity:1"
           id="path33352"
           inkscape:connector-curvature="0" /></g><text
         y="-47.093922"
         x="171.00415"
         transform="scale(1,-1)"
         style="font-variant:normal;font-weight:normal;font-size:6px;font-family:'DejaVu Sans';-inkscape-font-specification:DejaVuSans;writing-mode:lr-tb;fill:#0000ff;fill-opacity:1;fill-rule:nonzero;stroke:none"
         id="text33356"><tspan
           x="171.00415"
           y="-47.093922"
           id="tspan33354">l</tspan></text>
<g
         id="g33358"
         transform="matrix(1,0,0,-1,0,96.260712)"><path
           d="m 171.566,44.605 h 0.547 v 4.562 h -0.547 z"
           style="fill:none;stroke:#0000ff;stroke-width:0.75;stroke-linecap:butt;stroke-linejoin:miter;stroke-miterlimit:4;stroke-dasharray:none;stroke-opacity:1"
           id="path33360"
           inkscape:connector-curvature="0" /></g><text
         y="-47.093922"
         x="172.66821"
         transform="scale(1,-1)"
         style="font-variant:normal;font-weight:normal;font-size:6px;font-family:'DejaVu Sans';-inkscape-font-specification:DejaVuSans;writing-mode:lr-tb;fill:#0000ff;fill-opacity:1;fill-rule:nonzero;stroke:none"
         id="text33364"><tspan
           x="172.66821"
           y="-47.093922"
           id="tspan33362">f</tspan></text>
<g
         id="g33366"
         transform="matrix(1,0,0,-1,0,96.260712)"><path
           d="m 174.902,44.605 v 0.454 h -0.515 c -0.199,0 -0.336,0.043 -0.407,0.125 -0.074,0.074 -0.109,0.211 -0.109,0.406 v 0.297 h 0.875 v 0.422 h -0.875 v 2.859 h -0.547 v -2.859 h -0.515 v -0.422 h 0.515 v -0.235 c 0,-0.363 0.082,-0.629 0.25,-0.797 0.164,-0.164 0.438,-0.25 0.813,-0.25 z"
           style="fill:none;stroke:#0000ff;stroke-width:0.75;stroke-linecap:butt;stroke-linejoin:miter;stroke-miterlimit:4;stroke-dasharray:none;stroke-opacity:1"
           id="path33368"
           inkscape:connector-curvature="0" /></g><text
         y="-45.798313"
         x="196.43237"
         transform="scale(1,-1)"
         style="font-variant:normal;font-weight:normal;font-size:10px;font-family:'DejaVu Sans';-inkscape-font-specification:DejaVuSans;writing-mode:lr-tb;fill:#0000ff;fill-opacity:1;fill-rule:nonzero;stroke:none"
         id="text33372"><tspan
           x="196.43237"
           y="-45.798313"
           id="tspan33370">G</tspan></text>
<g
         id="g33374"
         transform="matrix(1,0,0,-1,0,96.260712)"><path
           d="m 202.387,49.414 v -1.953 h -1.61 v -0.813 h 2.578 v 3.141 c -0.375,0.262 -0.793,0.465 -1.25,0.609 -0.46,0.133 -0.949,0.204 -1.468,0.204 -1.149,0 -2.043,-0.332 -2.688,-1 -0.637,-0.664 -0.953,-1.594 -0.953,-2.782 0,-1.187 0.316,-2.113 0.953,-2.781 0.645,-0.664 1.539,-1 2.688,-1 0.468,0 0.914,0.059 1.343,0.172 0.438,0.117 0.832,0.289 1.188,0.516 v 1.062 c -0.367,-0.312 -0.75,-0.547 -1.156,-0.703 -0.407,-0.156 -0.84,-0.234 -1.297,-0.234 -0.899,0 -1.57,0.25 -2.016,0.75 -0.437,0.492 -0.656,1.23 -0.656,2.218 0,0.992 0.219,1.735 0.656,2.235 0.446,0.492 1.117,0.734 2.016,0.734 0.351,0 0.664,-0.023 0.937,-0.078 0.27,-0.063 0.516,-0.16 0.735,-0.297 z"
           style="fill:none;stroke:#0000ff;stroke-width:0.75;stroke-linecap:butt;stroke-linejoin:miter;stroke-miterlimit:4;stroke-dasharray:none;stroke-opacity:1"
           id="path33376"
           inkscape:connector-curvature="0" /></g><text
         y="-45.798313"
         x="204.18626"
         transform="scale(1,-1)"
         style="font-variant:normal;font-weight:normal;font-size:10px;font-family:'DejaVu Sans';-inkscape-font-specification:DejaVuSans;writing-mode:lr-tb;fill:#0000ff;fill-opacity:1;fill-rule:nonzero;stroke:none"
         id="text33380"><tspan
           x="204.18626"
           y="-45.798313"
           id="tspan33378">B</tspan></text>
<g
         id="g33382"
         transform="matrix(1,0,0,-1,0,96.260712)"><path
           d="m 206.156,46.977 v 2.671 h 1.578 c 0.532,0 0.922,-0.109 1.172,-0.328 0.258,-0.218 0.391,-0.554 0.391,-1.015 0,-0.446 -0.133,-0.782 -0.391,-1 -0.25,-0.219 -0.64,-0.328 -1.172,-0.328 z m 0,-3 v 2.203 h 1.453 c 0.489,0 0.848,-0.086 1.079,-0.266 0.238,-0.187 0.359,-0.461 0.359,-0.828 0,-0.375 -0.121,-0.648 -0.359,-0.828 -0.231,-0.188 -0.59,-0.281 -1.079,-0.281 z m -0.984,-0.813 h 2.516 c 0.75,0 1.328,0.156 1.734,0.469 0.406,0.312 0.609,0.762 0.609,1.344 0,0.449 -0.105,0.804 -0.312,1.062 -0.211,0.262 -0.512,0.422 -0.907,0.484 0.477,0.106 0.852,0.325 1.126,0.657 0.269,0.336 0.406,0.746 0.406,1.234 0,0.656 -0.227,1.164 -0.672,1.516 -0.438,0.355 -1.07,0.531 -1.891,0.531 h -2.609 z"
           style="fill:none;stroke:#0000ff;stroke-width:0.75;stroke-linecap:butt;stroke-linejoin:miter;stroke-miterlimit:4;stroke-dasharray:none;stroke-opacity:1"
           id="path33384"
           inkscape:connector-curvature="0" /></g><text
         y="-45.798313"
         x="211.04173"
         transform="scale(1,-1)"
         style="font-variant:normal;font-weight:normal;font-size:6px;font-family:'DejaVu Sans';-inkscape-font-specification:DejaVuSans;writing-mode:lr-tb;fill:#0000ff;fill-opacity:1;fill-rule:nonzero;stroke:none"
         id="text33388"><tspan
           x="211.04173"
           y="-45.798313"
           id="tspan33386">N</tspan></text>
<g
         id="g33390"
         transform="matrix(1,0,0,-1,0,96.260712)"><path
           d="m 211.637,46.086 h 0.797 l 1.937,3.656 v -3.656 h 0.578 v 4.375 h -0.797 l -1.953,-3.656 v 3.656 h -0.562 z"
           style="fill:none;stroke:#0000ff;stroke-width:0.75;stroke-linecap:butt;stroke-linejoin:miter;stroke-miterlimit:4;stroke-dasharray:none;stroke-opacity:1"
           id="path33392"
           inkscape:connector-curvature="0" /></g><text
         y="-45.798313"
         x="215.53001"
         transform="scale(1,-1)"
         style="font-variant:normal;font-weight:normal;font-size:6px;font-family:'DejaVu Sans';-inkscape-font-specification:DejaVuSans;writing-mode:lr-tb;fill:#0000ff;fill-opacity:1;fill-rule:nonzero;stroke:none"
         id="text33396"><tspan
           x="215.53001"
           y="-45.798313"
           id="tspan33394">E</tspan></text>
<g
         id="g33398"
         transform="matrix(1,0,0,-1,0,96.260712)"><path
           d="m 216.125,46.086 h 2.766 v 0.5 h -2.172 v 1.297 h 2.078 v 0.5 h -2.078 v 1.578 h 2.219 v 0.5 h -2.813 z"
           style="fill:none;stroke:#0000ff;stroke-width:0.75;stroke-linecap:butt;stroke-linejoin:miter;stroke-miterlimit:4;stroke-dasharray:none;stroke-opacity:1"
           id="path33400"
           inkscape:connector-curvature="0" /></g><text
         y="-45.798313"
         x="219.3269"
         transform="scale(1,-1)"
         style="font-variant:normal;font-weight:normal;font-size:6px;font-family:'DejaVu Sans';-inkscape-font-specification:DejaVuSans;writing-mode:lr-tb;fill:#0000ff;fill-opacity:1;fill-rule:nonzero;stroke:none"
         id="text33404"><tspan
           x="219.3269"
           y="-45.798313"
           id="tspan33402">A</tspan></text>
<g
         id="g33406"
         transform="matrix(1,0,0,-1,0,96.260712)"><path
           d="m 221.375,46.664 -0.797,2.188 h 1.61 z m -0.328,-0.578 h 0.672 l 1.672,4.375 h -0.625 l -0.391,-1.125 h -1.984 L 220,50.461 h -0.625 z"
           style="fill:none;stroke:#0000ff;stroke-width:0.75;stroke-linecap:butt;stroke-linejoin:miter;stroke-miterlimit:4;stroke-dasharray:none;stroke-opacity:1"
           id="path33408"
           inkscape:connector-curvature="0" /></g><g
         id="g33410"
         transform="translate(0,-0.739288)"><g
           id="g33412"><g
             id="g33414"
             clip-path="url(#clipPath33418)"><g
               id="g33420"><text
                 transform="matrix(1,0,0,-1,-0.228809,92.584961)"
                 style="font-variant:normal;font-weight:bold;font-size:6.5999999px;font-family:'Liberation Mono';-inkscape-font-specification:LiberationMono-Bold;writing-mode:lr-tb;fill:#000000;fill-opacity:1;fill-rule:nonzero;stroke:none"
                 id="text33426"><tspan
                   x="0 3.96 7.9200001 11.88 15.84 19.799999 23.76 27.719999 31.68 35.639999 39.599998 43.560001 47.52 51.48 55.439999 59.400002 63.360001 67.32 71.279999 75.239998 79.199997 83.160004 87.120003 95.026802 98.986801 102.9468 106.9068 110.8668 114.8268 118.7868 122.7468 126.7068 130.66679 134.6268 138.58681 142.5468 146.50681 150.4668 154.4268 158.3868 162.3468 166.30679 174.21359 178.1736 182.13361 186.0936 190.0536 194.0136 197.9736 205.88699 209.847 213.80701 217.767 221.72701 225.687 233.60699 237.567 241.52699 245.487 249.44701 253.407 257.367 261.327 265.28699 269.24701 273.207 277.16699 281.12701 285.08701 289.047 293.00699 296.96701 300.927 304.88699 308.84698 312.80701 316.767 320.70721 324.66721 328.6272 332.58719 336.54721 340.5072 344.46719 348.42719 352.38721 356.3472 360.30719 364.26721 372.1806 376.14059 380.10059 384.06061 388.0206 391.98059"
                   y="0"
                   sodipodi:role="line"
                   id="tspan33422">4 PHE F 4 -13.1 11.921 2.556 -1.581 0.197 -4.255 3.447 1.036 -1.021E-02 3.955E-05 11.220 -3.509</tspan><tspan
                   x="0 3.96 7.9200001 11.88 15.84 19.799999 23.76 27.719999 31.68 35.639999 39.599998 43.560001 47.52 51.48 55.439999 59.400002 67.306801 71.2668 75.226799 79.186798 83.146797 87.106796 91.066803 95.026802 98.986801 102.9468 106.9068 110.8668 114.8268 118.7868 122.7468 126.7068 130.66679 134.6268 138.58681 142.5468 146.50681 150.4668 154.4268 158.3868 162.3468 166.30679 170.2668 174.22681 178.1868 182.1468 186.1068 190.047 194.007 197.967 201.927 205.88699 209.847 213.80701 217.767 221.72701 225.687 233.6004 237.56039 241.5204 245.48039 249.4404 253.40041 257.36041 261.3204 265.2804 269.24039 273.20041 277.1604 281.12039 285.08041 289.04041 293.0004 296.96039 300.92041 304.8804 308.84039 312.80042 316.76041 320.7204 324.68039 328.64041 332.6004 336.56039 340.52039 344.48041 348.4404 352.40039 356.34061 360.3006 364.26059 368.22061 372.1806 376.14059 380.10059 384.06061 388.0206 391.98059"
                   y="7.4799976"
                   sodipodi:role="line"
                   id="tspan33424">4 SER S 1 -16.4 2.741 -1.386 -0.249 0.657 -16.917 14.103 0.381 -4.239E-03 1.742E-05 50.457 -10.975</tspan></text>
</g></g></g></g><g
         id="g33428"><g
           clip-path="url(#clipPath33434)"
           id="g33430"><g
             transform="translate(0,-0.739288)"
             id="g33436"><g
               id="g33438"><g
                 clip-path="url(#clipPath33444)"
                 id="g33440"><g
                   id="g33446"><text
                     id="text33456"
                     style="font-variant:normal;font-weight:bold;font-size:6.5999999px;font-family:'Liberation Mono';-inkscape-font-specification:LiberationMono-Bold;writing-mode:lr-tb;fill:#000000;fill-opacity:1;fill-rule:nonzero;stroke:none"
                     transform="matrix(1,0,0,-1,1.140439,23.253406)"><tspan
                       id="tspan33448"
                       sodipodi:role="line"
                       y="0"
                       x="0 3.96 7.9200001 11.88 15.84 19.799999 23.76 27.719999 31.68 35.639999 39.599998">4 ARG 2 LYS</tspan><tspan
                       id="tspan33450"
                       sodipodi:role="line"
                       y="7.4799976"
                       x="0 3.96 7.9200001 11.88 19.799999 23.76 27.719999 31.68 35.639999 39.599998 43.560001 47.52 51.48 55.439999 59.400002 63.360001 67.32 71.279999 75.239998 79.199997 83.160004 87.120003 91.080002 95.040001 99 102.96 106.9002 110.8602 114.8202 118.7802 122.7402 126.7002 130.6602 134.62019 138.5802 142.54021 146.5002 150.46021 154.4202 158.3802 162.34019 166.3002 170.26019 174.2202 178.18021 182.1402 186.1002 190.0602 194.0202 197.98019 201.9402 205.90021 209.8602 213.82021 217.7802 221.7402 225.7002 229.6404 233.6004 237.56039 241.5204 245.48039 249.4404 253.40041 257.36041 261.3204 265.2804 269.24039 273.20041 277.1604 281.12039 285.08041 289.04041 293.0004 296.96039 300.92041 304.8804 308.84039 312.80042 316.76041 320.7204 324.68039 328.64041 332.6004 336.56039 340.52039 344.48041 348.4404 352.38062 356.34061 360.3006 364.26059 368.22061 372.1806 376.14059 380.10059 384.06061 388.0206">1 7 -8.455E-02 0.441 6.201E-04 4.594E-02 2.560E-02 -6.987 -7.416 2.416E-02 -5.275E-05 0.743 -0.343</tspan><tspan
                       id="tspan33452"
                       sodipodi:role="line"
                       y="14.959996"
                       x="0 3.96 7.9200001 11.88 15.84 19.799999 23.76 27.719999 31.68 35.639999 39.599998 43.560001 47.52 51.48 55.439999 59.400002 63.360001 67.32 71.279999 75.239998 79.199997 83.160004 87.120003 91.080002 95.040001 99 102.9402 106.9002 110.8602 114.8202 118.7802 122.7402 126.7002 130.6602 134.62019 138.5802 142.54021 146.5002 150.46021 154.4202 158.3802 162.34019 166.3002 170.26019 174.2202 178.18021 182.1402 186.1002 190.0602 194.0202 197.98019 201.9402 205.90021 209.8602 213.82021 217.7802 221.7402 225.6804 229.6404 233.6004 237.56039 241.5204 245.48039 249.4404 253.40041 257.36041 261.3204 265.2804 269.24039 273.20041 277.1604 281.12039 285.08041 289.04041 293.0004 296.96039 300.92041 304.8804 308.84039 312.80042 316.76041 320.7204 324.68039 328.64041 332.6004 336.56039 340.52039 344.48041 348.42059 352.38062 356.34061 360.3006 364.26059 368.22061 372.1806 376.14059 380.10059 384.06061 388.0206">1 10 -9.618E-02 0.490 6.085E-04 4.924E-02 4.092E-02 -7.489 -7.870 2.877E-02 -6.863E-05 0.557 -0.207</tspan><tspan
                       id="tspan33454"
                       sodipodi:role="line"
                       y="22.439993"
                       x="0 3.96 7.9200001 11.88 15.84 19.799999 23.76 27.719999 31.68 35.639999 39.599998 43.560001 63.353401 67.3134 71.273399 75.233398 79.193398 83.153397 87.113403 91.073402 95.033401 98.993401 102.9534 106.9134 110.8734 114.8334 118.7934 122.7534 126.7134 130.6734 134.63341 138.5934 142.55341 146.5134 150.4734 154.4334 158.3736 162.3336 166.29359 170.2536 174.21359 178.1736 182.13361 186.0936 190.0536 194.0136 197.9736 201.93359 205.8936 209.85361 213.8136 217.77361 221.7336 225.6936 229.65359 233.6136 237.57359 241.5336 245.49361 249.4536 253.4136 257.3736 261.33359 265.29361 269.2536 273.21359 277.17361 281.1138 285.07379 289.03381 292.9938 296.9538 300.91379 304.87381 308.8338 312.79379 316.75381 320.71381 324.6738 328.63379 332.59381 336.5538 340.51379 344.47379 348.43381 352.3938 356.35379 360.31381 364.2738 368.2338 372.19379 376.15381 380.1138 384.07379 388.03381">1 12 -0.123 0.500 6.121E-05 5.471E-02 4.029E-02 -7.570 -7.940 2.945E-02 -7.090E-05 0.523 -0.185</tspan></text>
</g></g></g></g></g></g><path
         sodipodi:nodetypes="csc"
         inkscape:connector-curvature="0"
         id="path34380"
         d="m 182.16806,77.986835 c 0,0 0.44944,-22.371656 0.32998,-28.785086 -0.0309,-1.661272 -5.04332,-0.996937 -5.04332,-0.996937"
         style="fill:none;fill-rule:evenodd;stroke:#0000ff;stroke-width:0.45000002;stroke-linecap:butt;stroke-linejoin:miter;stroke-miterlimit:4;stroke-dasharray:none;stroke-opacity:1" /><g
         transform="translate(8.9568928)"
         id="g34462"><g
           transform="matrix(1,0,0,-1,0,96.260712)"
           id="g32894"><path
             inkscape:connector-curvature="0"
             id="path32896"
             style="fill:none;stroke:#0000e4;stroke-width:0.349105;stroke-linecap:butt;stroke-linejoin:miter;stroke-miterlimit:4;stroke-dasharray:none;stroke-opacity:1"
             d="m 339.82,13.688 0.16953,20.176212"
             sodipodi:nodetypes="cc" /></g><g
           transform="matrix(0.0117152,-1,-1,-0.0117152,0,96.260712)"
           id="g32898"><path
             inkscape:connector-curvature="0"
             id="path32900"
             style="fill:#0000e4;fill-opacity:1;fill-rule:evenodd;stroke:#0000e4;stroke-width:0.372354;stroke-linecap:butt;stroke-linejoin:miter;stroke-miterlimit:4;stroke-dasharray:none;stroke-opacity:1"
             d="m 21.154,-339.615 1.4,-1.394 -4.888,1.396 4.886,1.393 z" /></g></g><g
         id="g32906"
         transform="matrix(0.00842462,-1,-1,-0.00842462,0,96.260712)"><path
           d="m 19.154,-236.651 1.39,-1.391 -4.867,1.389 4.867,1.392 z"
           style="fill:#0000e4;fill-opacity:1;fill-rule:evenodd;stroke:#0000e4;stroke-width:0.3707;stroke-linecap:butt;stroke-linejoin:miter;stroke-miterlimit:4;stroke-dasharray:none;stroke-opacity:1"
           id="path32908"
           inkscape:connector-curvature="0" /></g><g
         id="g32910"
         transform="matrix(1,0,0,-1,0,96.260712)"><path
           sodipodi:nodetypes="cc"
           d="m 270.09,13.707 0.1096,20.157212"
           style="fill:none;stroke:#0000e4;stroke-width:0.35992199;stroke-linecap:butt;stroke-linejoin:miter;stroke-miterlimit:4;stroke-dasharray:none;stroke-opacity:1"
           id="path32912"
           inkscape:connector-curvature="0" /></g><g
         id="g32914"
         transform="matrix(0.0121973,-1,-1,-0.0121973,0,96.260712)"><path
           d="m 20.597,-269.882 1.439,-1.443 -5.037,1.442 5.037,1.441 z"
           style="fill:#0000e4;fill-opacity:1;fill-rule:evenodd;stroke:#0000e4;stroke-width:0.38388801;stroke-linecap:butt;stroke-linejoin:miter;stroke-miterlimit:4;stroke-dasharray:none;stroke-opacity:1"
           id="path32916"
           inkscape:connector-curvature="0" /></g><g
         id="g32922"
         transform="matrix(1,0,0,-1,0,96.260712)"><path
           sodipodi:nodetypes="cc"
           d="m 308.984,13.707 0.12407,20.157212"
           style="fill:none;stroke:#0000e4;stroke-width:0.35992199;stroke-linecap:butt;stroke-linejoin:miter;stroke-miterlimit:4;stroke-dasharray:none;stroke-opacity:1"
           id="path32924"
           inkscape:connector-curvature="0" /></g><g
         id="g32926"
         transform="matrix(0.0114314,-1,-1,-0.0114314,0,96.260712)"><path
           d="m 20.835,-308.789 1.442,-1.441 -5.04,1.443 5.038,1.436 z"
           style="fill:#0000e4;fill-opacity:1;fill-rule:evenodd;stroke:#0000e4;stroke-width:0.383892;stroke-linecap:butt;stroke-linejoin:miter;stroke-miterlimit:4;stroke-dasharray:none;stroke-opacity:1"
           id="path32928"
           inkscape:connector-curvature="0" /></g><g
         id="g32934"
         transform="matrix(9.05771e-4,-1,-1,-9.05771e-4,6.4507686,95.791568)"><path
           d="m 17.644,-374.375 1.442,-1.44 -5.04,1.441 5.038,1.438 z"
           style="fill:#0000e4;fill-opacity:1;fill-rule:evenodd;stroke:#0000e4;stroke-width:0.383917;stroke-linecap:butt;stroke-linejoin:miter;stroke-miterlimit:4;stroke-dasharray:none;stroke-opacity:1"
           id="path32936"
           inkscape:connector-curvature="0" /></g><path
         sodipodi:nodetypes="cszc"
         inkscape:connector-curvature="0"
         id="path34382"
         d="m 236.81237,79.100407 c 0,0 -0.61359,-16.95271 3.55556,-16.952711 1.16111,0 127.67962,0.248804 134.78474,0.248807 7.10512,3e-6 5.68908,16.090163 5.68908,16.090163"
         style="fill:none;fill-rule:evenodd;stroke:#0000ff;stroke-width:0.375;stroke-linecap:butt;stroke-linejoin:miter;stroke-miterlimit:4;stroke-dasharray:none;stroke-opacity:1" /><g
         transform="translate(7.298209)"
         id="g34485"><g
           id="g34407"
           transform="translate(4.9760515,12.129068)"><path
             sodipodi:nodetypes="cc"
             d="m 339.82,13.688 0.16953,20.176212"
             style="fill:none;stroke:#0000e4;stroke-width:0.349105;stroke-linecap:butt;stroke-linejoin:miter;stroke-miterlimit:4;stroke-dasharray:none;stroke-opacity:1"
             id="path34405"
             inkscape:connector-curvature="0" /></g><g
           id="g34411"
           transform="matrix(0.0117152,1,-1,0.0117152,4.9760515,12.129068)"><path
             d="m 21.154,-339.615 1.4,-1.394 -4.888,1.396 4.886,1.393 z"
             style="fill:#0000e4;fill-opacity:1;fill-rule:evenodd;stroke:#0000e4;stroke-width:0.372354;stroke-linecap:butt;stroke-linejoin:miter;stroke-miterlimit:4;stroke-dasharray:none;stroke-opacity:1"
             id="path34409"
             inkscape:connector-curvature="0" /></g></g><g
         transform="matrix(0.00842462,1,-1,0.00842462,4.9760515,12.129068)"
         id="g34415"><path
           inkscape:connector-curvature="0"
           id="path34413"
           style="fill:#0000e4;fill-opacity:1;fill-rule:evenodd;stroke:#0000e4;stroke-width:0.3707;stroke-linecap:butt;stroke-linejoin:miter;stroke-miterlimit:4;stroke-dasharray:none;stroke-opacity:1"
           d="m 19.154,-236.651 1.39,-1.391 -4.867,1.389 4.867,1.392 z" /></g><g
         transform="translate(4.9760515,12.129068)"
         id="g34419"><path
           inkscape:connector-curvature="0"
           id="path34417"
           style="fill:none;stroke:#0000e4;stroke-width:0.35992199;stroke-linecap:butt;stroke-linejoin:miter;stroke-miterlimit:4;stroke-dasharray:none;stroke-opacity:1"
           d="m 270.09,13.707 0.1096,20.157212"
           sodipodi:nodetypes="cc" /></g><g
         transform="matrix(0.0121973,1,-1,0.0121973,4.9760515,12.129068)"
         id="g34423"><path
           inkscape:connector-curvature="0"
           id="path34421"
           style="fill:#0000e4;fill-opacity:1;fill-rule:evenodd;stroke:#0000e4;stroke-width:0.38388801;stroke-linecap:butt;stroke-linejoin:miter;stroke-miterlimit:4;stroke-dasharray:none;stroke-opacity:1"
           d="m 20.597,-269.882 1.439,-1.443 -5.037,1.442 5.037,1.441 z" /></g><g
         transform="translate(4.9760515,12.129068)"
         id="g34427"><path
           inkscape:connector-curvature="0"
           id="path34425"
           style="fill:none;stroke:#0000e4;stroke-width:0.35992199;stroke-linecap:butt;stroke-linejoin:miter;stroke-miterlimit:4;stroke-dasharray:none;stroke-opacity:1"
           d="m 308.984,13.707 0.12407,20.157212"
           sodipodi:nodetypes="cc" /></g><g
         transform="matrix(0.0114314,1,-1,0.0114314,4.9760515,12.129068)"
         id="g34431"><path
           inkscape:connector-curvature="0"
           id="path34429"
           style="fill:#0000e4;fill-opacity:1;fill-rule:evenodd;stroke:#0000e4;stroke-width:0.383892;stroke-linecap:butt;stroke-linejoin:miter;stroke-miterlimit:4;stroke-dasharray:none;stroke-opacity:1"
           d="m 20.835,-308.789 1.442,-1.441 -5.04,1.443 5.038,1.436 z" /></g><g
         transform="rotate(89.948103,-0.59140643,12.017691)"
         id="g34435"><path
           inkscape:connector-curvature="0"
           id="path34433"
           style="fill:#0000e4;fill-opacity:1;fill-rule:evenodd;stroke:#0000e4;stroke-width:0.383917;stroke-linecap:butt;stroke-linejoin:miter;stroke-miterlimit:4;stroke-dasharray:none;stroke-opacity:1"
           d="m 17.644,-374.375 1.442,-1.44 -5.04,1.441 5.038,1.438 z" /></g><path
         style="fill:none;fill-rule:evenodd;stroke:#0000ff;stroke-width:0.375;stroke-linecap:butt;stroke-linejoin:miter;stroke-miterlimit:4;stroke-dasharray:none;stroke-opacity:1"
         d="m 241.78842,29.289373 c 0,0 -0.61359,16.95271 3.55556,16.952711 1.16111,0 127.67962,-0.248804 134.78474,-0.248807 7.10512,-3e-6 5.68908,-16.090163 5.68908,-16.090163"
         id="path34437"
         inkscape:connector-curvature="0"
         sodipodi:nodetypes="cszc" /></g></g></svg>