<?xml version="1.0" encoding="UTF-8" standalone="no"?>
<!-- Created with Inkscape (http://www.inkscape.org/) -->

<svg
   xmlns:dc="http://purl.org/dc/elements/1.1/"
   xmlns:cc="http://creativecommons.org/ns#"
   xmlns:rdf="http://www.w3.org/1999/02/22-rdf-syntax-ns#"
   xmlns:svg="http://www.w3.org/2000/svg"
   xmlns="http://www.w3.org/2000/svg"
   xmlns:xlink="http://www.w3.org/1999/xlink"
   xmlns:sodipodi="http://sodipodi.sourceforge.net/DTD/sodipodi-0.dtd"
   xmlns:inkscape="http://www.inkscape.org/namespaces/inkscape"
   width="339.95184mm"
   height="297.8204mm"
   viewBox="0 0 339.95184 297.8204"
   version="1.1"
   id="svg8"
   inkscape:version="0.92.1 r15371"
   sodipodi:docname="intersurface.svg">
  <defs
     id="defs2">
    <linearGradient
       id="linearGradient892"
       inkscape:collect="always">
      <stop
         id="stop882"
         offset="0"
         style="stop-color:#808080;stop-opacity:1" />
      <stop
         style="stop-color:#cccccc;stop-opacity:1"
         offset="0.48809519"
         id="stop884" />
      <stop
         id="stop886"
         offset="0.74999988"
         style="stop-color:#e6e6e6;stop-opacity:1" />
      <stop
         style="stop-color:#e6e6e6;stop-opacity:1"
         offset="0.74999988"
         id="stop888" />
      <stop
         id="stop890"
         offset="1"
         style="stop-color:#999999;stop-opacity:1" />
    </linearGradient>
    <linearGradient
       inkscape:collect="always"
       id="linearGradient40">
      <stop
         style="stop-color:#808080;stop-opacity:1"
         offset="0"
         id="stop36" />
      <stop
         id="stop44"
         offset="0.48809519"
         style="stop-color:#cccccc;stop-opacity:1" />
      <stop
         style="stop-color:#e6e6e6;stop-opacity:1"
         offset="0.57142848"
         id="stop46" />
      <stop
         id="stop48"
         offset="0.74999988"
         style="stop-color:#e6e6e6;stop-opacity:1" />
      <stop
         style="stop-color:#999999;stop-opacity:1"
         offset="1"
         id="stop38" />
    </linearGradient>
    <linearGradient
       inkscape:collect="always"
       xlink:href="#linearGradient40"
       id="linearGradient42"
       x1="107.97689"
       y1="85.322533"
       x2="107.97689"
       y2="107.77318"
       gradientUnits="userSpaceOnUse" />
    <linearGradient
       inkscape:collect="always"
       xlink:href="#linearGradient40"
       id="linearGradient864"
       gradientUnits="userSpaceOnUse"
       gradientTransform="matrix(0.34464721,0.24926253,-0.58603223,0.81028774,196.33639,2.595069)"
       x1="107.97689"
       y1="85.322533"
       x2="107.97689"
       y2="107.77318" />
    <linearGradient
       inkscape:collect="always"
       xlink:href="#linearGradient40"
       id="linearGradient868"
       gradientUnits="userSpaceOnUse"
       gradientTransform="matrix(0.24926253,-0.34464721,0.81028774,0.58603223,66.231911,59.966692)"
       x1="107.97689"
       y1="85.322533"
       x2="108.0958"
       y2="107.03689" />
    <linearGradient
       inkscape:collect="always"
       xlink:href="#linearGradient892"
       id="linearGradient874"
       gradientUnits="userSpaceOnUse"
       x1="107.97689"
       y1="85.322533"
       x2="107.97689"
       y2="107.77318"
       gradientTransform="rotate(-90,96.694092,-40.487147)" />
    <linearGradient
       inkscape:collect="always"
       xlink:href="#linearGradient40"
       id="linearGradient878"
       gradientUnits="userSpaceOnUse"
       gradientTransform="translate(216.98486,1.1561875)"
       x1="107.97689"
       y1="85.322533"
       x2="107.97689"
       y2="107.77318" />
    <linearGradient
       inkscape:collect="always"
       xlink:href="#linearGradient40"
       id="linearGradient906"
       gradientUnits="userSpaceOnUse"
       gradientTransform="matrix(-0.00318751,-0.42438986,1.0027387,0.06677855,183.95305,118.58123)"
       x1="107.97689"
       y1="85.322533"
       x2="107.97689"
       y2="107.77318" />
  </defs>
  <sodipodi:namedview
     id="base"
     pagecolor="#ffffff"
     bordercolor="#666666"
     borderopacity="1.0"
     inkscape:pageopacity="0.0"
     inkscape:pageshadow="2"
     inkscape:zoom="0.49497475"
     inkscape:cx="452.69548"
     inkscape:cy="409.95374"
     inkscape:document-units="mm"
     inkscape:current-layer="layer1"
     showgrid="false"
     inkscape:window-width="1920"
     inkscape:window-height="1015"
     inkscape:window-x="0"
     inkscape:window-y="0"
     inkscape:window-maximized="1" />
  <metadata
     id="metadata5">
    <rdf:RDF>
      <cc:Work
         rdf:about="">
        <dc:format>image/svg+xml</dc:format>
        <dc:type
           rdf:resource="http://purl.org/dc/dcmitype/StillImage" />
        <dc:title></dc:title>
      </cc:Work>
    </rdf:RDF>
  </metadata>
  <g
     inkscape:label="Layer 1"
     inkscape:groupmode="layer"
     id="layer1"
     transform="translate(-53.136637,116.11692)">
    <path
       style="opacity:0.56000001;fill:#d40000;fill-rule:evenodd;stroke:#000000;stroke-width:0.26458332px;stroke-linecap:butt;stroke-linejoin:miter;stroke-opacity:1"
       d="m 219.37828,57.155896 v 0 2e-6 l 4.34116,2.337792 21.88646,-1.026005 16.73399,-5.23943 15.50082,-11.589051 10.68406,-8.551809 9.43075,-10.008361 4.70293,-9.649381 1.62933,-13.77550628 -16.88269,-7.74769892 -15.3526,0.3637329 -14.17953,7.30486952 -12.13783,10.25908068 -10.62135,13.3117181 -3.97564,8.084905 -4.67722,6.88219 -4.07586,8.352171 z"
       id="path902"
       inkscape:connector-curvature="0"
       sodipodi:nodetypes="cccccccccccccccccccc" />
    <path
       style="fill:url(#linearGradient906);fill-opacity:1;fill-rule:evenodd;stroke:#808080;stroke-width:0.17255606px;stroke-linecap:butt;stroke-linejoin:miter;stroke-opacity:1"
       d="m 271.21876,98.259169 c -2.39497,-15.290785 0.46617,-27.714139 0.87146,-41.289712 0.0732,-2.451458 7.89143,-5.025316 7.89143,-5.025316 6.10318,-0.934111 9.6265,1.546365 9.85514,3.3041 2.09292,16.090547 2.62274,29.118264 2.60418,44.10359 -0.003,2.342149 -4.72641,3.374979 -10.25039,3.161919 -5.79894,-0.22365 -10.58342,-1.77474 -10.97182,-4.254581 z"
       id="path904"
       inkscape:connector-curvature="0"
       sodipodi:nodetypes="sssssss" />
    <path
       style="fill:url(#linearGradient864);fill-opacity:1;fill-rule:evenodd;stroke:#808080;stroke-width:0.17255606px;stroke-linecap:butt;stroke-linejoin:miter;stroke-opacity:1"
       d="m 166.45454,88.628061 c 13.62751,7.04829 25.17266,15.715359 35.92823,24.118839 1.94222,1.51749 0.34139,6.19337 -3.15008,10.80639 -2.47991,3.27651 -6.3576,7.24146 -7.89937,6.39167 -14.11354,-7.77913 -24.92257,-15.06472 -37.02259,-23.97738 -1.89116,-1.39306 -0.21947,-6.009929 2.88381,-10.565629 3.25774,-4.78248 7.0499,-7.91697 9.26,-6.77389 z"
       id="path862"
       inkscape:connector-curvature="0"
       sodipodi:nodetypes="sssssss" />
    <path
       sodipodi:nodetypes="sssssss"
       inkscape:connector-curvature="0"
       id="path866"
       d="m 152.2649,89.848546 c 7.04829,-13.62751 16.84929,-22.148854 25.25277,-32.904424 1.51749,-1.94222 9.67246,0.12627 9.67246,0.12627 4.72653,3.124818 7.24146,6.3576 6.39167,7.89937 -7.77913,14.113544 -15.06472,24.922574 -23.97738,37.022598 -1.39306,1.89116 -6.00993,0.21947 -10.56563,-2.883814 -4.78248,-3.25774 -7.91697,-7.0499 -6.77389,-9.26 z"
       style="fill:url(#linearGradient868);fill-opacity:1;fill-rule:evenodd;stroke:#808080;stroke-width:0.17255606px;stroke-linecap:butt;stroke-linejoin:miter;stroke-opacity:1" />
    <path
       style="fill:url(#linearGradient42);fill-opacity:1;fill-rule:evenodd;stroke:#808080;stroke-width:0.26458332px;stroke-linecap:butt;stroke-linejoin:miter;stroke-opacity:1"
       d="m 61.610118,87.223213 c 35.672059,-2.275028 69.607512,-2.018034 101.675592,-1.511904 5.7908,0.0914 9.1836,4.818349 8.88801,10.602326 -0.20995,4.108235 -2.13419,9.593435 -6.24217,9.808385 -37.60491,1.96766 -68.234615,2.39867 -103.565478,2.26786 -5.522096,-0.0205 -8.698569,-4.74116 -9.063563,-10.251213 -0.383162,-5.784328 2.522358,-10.546493 8.307609,-10.915454 z"
       id="path34"
       inkscape:connector-curvature="0"
       sodipodi:nodetypes="sssssss" />
    <path
       style="fill:#0000ff;fill-rule:evenodd;stroke:#000000;stroke-width:0.26458332px;stroke-linecap:butt;stroke-linejoin:miter;stroke-opacity:1;opacity:0.28"
       d="m 237.28534,24.549016 -5.07812,5.345391 -7.21628,13.898014 -5.61266,13.363477 -3.74177,12.828937 -2.40543,14.967093 1.06908,19.510672 5.07812,15.23437 7.21628,18.70886 7.21628,14.43255 5.61265,6.68174 10.42352,-13.63074 4.54358,-14.96709 -5.34539,-21.64884 -7.48355,-18.174323 -1.06908,-13.898015 3.20724,-13.096208 3.20723,-13.096205 0.26727,-10.423512 -9.35443,-15.234364 z"
       id="path896"
       inkscape:connector-curvature="0" />
    <path
       style="fill:none;fill-rule:evenodd;stroke:#000000;stroke-width:2.46499991;stroke-linecap:butt;stroke-linejoin:miter;stroke-miterlimit:4;stroke-dasharray:none;stroke-opacity:1"
       d="m 115.99497,39.886715 c 0,0 50.30963,-37.3139644 79.11178,-35.2795781 19.72559,1.3932804 41.6941,13.7082331 50.24667,31.5378031 6.67205,13.909234 -6.02824,30.558781 -5.34539,45.970359 0.89404,20.178271 20.37918,40.824421 12.2944,59.333831 -10.07873,23.07437 -39.50025,38.85651 -64.67922,39.02135 -22.91899,0.15005 -59.33384,-34.74504 -59.33384,-34.74504 h -12.2944"
       id="path870"
       inkscape:connector-curvature="0"
       sodipodi:nodetypes="cssssscc" />
    <path
       sodipodi:nodetypes="sssssss"
       inkscape:connector-curvature="0"
       id="path872"
       d="m 224.40445,-5.4031792 c -2.27503,-35.6720618 -2.01803,-69.6075118 -1.5119,-101.6755908 0.0914,-5.7908 4.81835,-9.1836 10.60232,-8.88801 4.10824,0.20995 9.59344,2.13419 9.80839,6.24217 1.96766,37.604909 2.39867,68.234609 2.26786,103.5654808 -0.0205,5.52208996 -4.74116,8.6985589 -10.25121,9.0635589 -5.78433,0.3831601 -10.5465,-2.52235894 -10.91546,-8.3076089 z"
       style="fill:url(#linearGradient874);fill-opacity:1;fill-rule:evenodd;stroke:#808080;stroke-width:0.26458332px;stroke-linecap:butt;stroke-linejoin:miter;stroke-opacity:1" />
    <path
       style="fill:url(#linearGradient878);fill-opacity:1;fill-rule:evenodd;stroke:#808080;stroke-width:0.26458332px;stroke-linecap:butt;stroke-linejoin:miter;stroke-opacity:1"
       d="m 278.59498,88.379389 c 35.67206,-2.27503 69.60751,-2.01803 101.67559,-1.5119 5.7908,0.0914 9.1836,4.81835 8.88801,10.60232 -0.20995,4.108241 -2.13419,9.593431 -6.24217,9.808381 -37.60491,1.96767 -68.23461,2.39868 -103.56548,2.26787 -5.52209,-0.0205 -8.69856,-4.74116 -9.06356,-10.251214 -0.38316,-5.784327 2.52236,-10.546497 8.30761,-10.915457 z"
       id="path876"
       inkscape:connector-curvature="0"
       sodipodi:nodetypes="sssssss" />
    <path
       sodipodi:nodetypes="ccccc"
       inkscape:connector-curvature="0"
       id="path880"
       d="m 287.45293,-50.4011 c 0,0 30.01235,52.2727141 10.50259,73.480134 -41.9505,48.786748 -89.55092,51.42506 -117.94493,-0.248277 -11.37537,-23.45352903 1.60362,-60.937457 1.60362,-60.937457 v -12.2944"
       style="fill:none;fill-rule:evenodd;stroke:#000000;stroke-width:2.46499991;stroke-linecap:butt;stroke-linejoin:miter;stroke-miterlimit:4;stroke-dasharray:none;stroke-opacity:1" />
    <path
       sodipodi:nodetypes="cssssscc"
       inkscape:connector-curvature="0"
       id="path894"
       d="m 360.63549,144.04204 c 0,0 -50.30962,37.31396 -79.11177,35.27957 -19.72559,-1.39328 -41.6941,-13.70823 -50.24667,-31.5378 -6.67205,-13.90923 -16.95694,-36.97325 -17.63979,-52.384817 -0.89404,-20.178274 2.606,-34.409955 10.69078,-52.919365 10.07873,-23.07437 32.69668,-50.9517494 57.87565,-51.1165894 22.91899,-0.15005 66.1374,46.8402794 66.1374,46.8402794 h 12.2944"
       style="fill:none;fill-rule:evenodd;stroke:#000000;stroke-width:2.46499991;stroke-linecap:butt;stroke-linejoin:miter;stroke-miterlimit:4;stroke-dasharray:none;stroke-opacity:1" />
    <path
       style="opacity:0.3;fill:#008000;fill-rule:evenodd;stroke:#008000;stroke-width:0.26458332px;stroke-linecap:butt;stroke-linejoin:miter;stroke-opacity:1"
       d="m 175.54608,7.9783053 2.93996,10.9580497 5.61266,11.225321 10.42352,12.561667 9.88897,9.621703 19.30825,7.148644 13.01793,0.53176 8.86853,-1.557765 1.30114,-7.458989 0.26727,-10.423511 -9.88897,-16.036171 -8.55263,-8.018084 -13.0962,-6.6817374 -13.36348,-4.2763122 -9.35443,-1.3363496 -13.36348,1.6036184 z"
       id="path898"
       inkscape:connector-curvature="0"
       sodipodi:nodetypes="ccccccccccccccccc" />
    <path
       style="fill:#000000;fill-rule:evenodd;stroke:#000000;stroke-width:0.26458332px;stroke-linecap:butt;stroke-linejoin:miter;stroke-opacity:1"
       d="m 235.11378,23.145846 -2.34396,4.626848 -1.63168,3.458057 -5.64436,8.542687 -3.10872,6.691674 -2.74991,7.765915 -0.25687,2.924869 v 0 l 1.01282,2.366798 3.32834,-0.02901 7.63297,1.540909 7.84301,-0.661458 4.81919,-0.566962 1.88988,-3.590775 1.6064,-8.220982 -0.33658,-7.409238 -3.1597,-7.898797 -4.06324,-5.764138 z"
       id="path908"
       inkscape:connector-curvature="0" />
    <text
       xml:space="preserve"
       style="font-style:normal;font-weight:normal;font-size:44.71584702px;line-height:125%;font-family:Sans;-inkscape-font-specification:Sans;letter-spacing:0px;word-spacing:0px;fill:#000000;fill-opacity:1;stroke:none;stroke-width:2.09605527px;stroke-linecap:butt;stroke-linejoin:miter;stroke-opacity:1"
       x="74.505516"
       y="86.038322"
       id="text4515"
       transform="scale(1.0389375,0.96252182)"><tspan
         sodipodi:role="line"
         id="tspan4513"
         x="74.505516"
         y="86.038322"
         style="stroke-width:2.09605527px;font-size:50.79999966px">A</tspan></text>
    <text
       xml:space="preserve"
       style="font-style:normal;font-weight:normal;font-size:43.01557541px;line-height:125%;font-family:Sans;-inkscape-font-specification:Sans;letter-spacing:0px;word-spacing:0px;fill:#000000;fill-opacity:1;stroke:none;stroke-width:2.01635504px;stroke-linecap:butt;stroke-linejoin:miter;stroke-opacity:1"
       x="226.4474"
       y="-63.113373"
       id="text4519"
       transform="scale(1.0924937,0.91533708)"><tspan
         sodipodi:role="line"
         id="tspan4517"
         x="226.4474"
         y="-63.113373"
         style="stroke-width:2.01635504px;font-size:50.80000017px">B</tspan></text>
    <text
       xml:space="preserve"
       style="font-style:normal;font-weight:normal;font-size:34.09316635px;line-height:125%;font-family:Sans;-inkscape-font-specification:Sans;letter-spacing:0px;word-spacing:0px;fill:#000000;fill-opacity:1;stroke:none;stroke-width:1.59811711px;stroke-linecap:butt;stroke-linejoin:miter;stroke-opacity:1"
       x="304.65451"
       y="89.552513"
       id="text4523"
       transform="scale(1.0723238,0.93255412)"><tspan
         sodipodi:role="line"
         id="tspan4521"
         x="304.65451"
         y="89.552513"
         style="stroke-width:1.59811711px;font-size:50.80000057px">C</tspan></text>
  </g>
</svg>
